<svg id="twrp-user-ii-f" xmlns="http://www.w3.org/2000/svg" viewBox="0 0 512 512"><path d="M349.5,39.9C325.9,16.1,292.9,3,256.5,3c-36.6,0-69.7,13-93.2,36.6c-23.8,23.9-35.3,56.4-32.6,91.4c5.4,69.2,61.8,125.4,125.9,125.4s120.4-56.3,125.8-125.4C385.1,96.3,373.4,63.9,349.5,39.9z"/><path d="M470.1,510H42.9c-11.3,0.1-22.1-4.5-29.4-12.6c-7.9-8.8-11.1-20.8-8.7-32.9C15,411.5,47,367,97.2,335.7c44.6-27.7,101.2-43,159.3-43s114.6,15.3,159.3,43C466,367,498,411.5,508.2,464.4c2.4,12.1-0.8,24.2-8.7,32.9C492.3,505.5,481.5,510.1,470.1,510z"/></svg>
