<svg id="twrp-user-ii-ios-person-f" viewBox="0 0 512 512"><path d="M256.5,4C117,4,4,117.2,4,257s113,253,252.5,253S509,396.8,509,257S396,4,256.5,4z M256.5,489c-71.1,0-134.9-32.4-177.4-83.1c21.6-9.4,75.5-28.8,109.6-38.8c2.7-0.9,3.2-1,3.2-13c0-12.9-1.5-22-4.6-28.7c-4.2-9.1-9.3-24.6-11.2-38.4c-5.1-6-12-17.6-16.5-40c-3.9-19.7-2.1-26.9,0.5-33.6c0.2-0.7,0.6-1.5,0.7-2.2c1-4.5-0.4-28.6-3.8-47.2c-2.3-12.8,0.6-39.9,18.2-62.4c11-14.2,32.3-31.6,70.4-34.1h21.2c38.7,2.4,60,19.8,71,34.1c17.6,22.5,20.5,49.6,18.1,62.4c-3.4,18.6-4.7,42.6-3.8,47.2c0.1,0.7,0.5,1.5,0.7,2.1c2.5,6.7,4.5,13.9,0.5,33.6c-4.5,22.4-11.4,34.1-16.5,40c-1.8,13.9-6.9,29.2-11.2,38.4c-4,8.4-8,18.4-8,28.3c0,12,0.5,12.2,3.3,13c32.4,9.6,88.3,28.9,112.9,39C391.5,456.5,327.8,489,256.5,489z"/></svg>
