<svg id="twrp-user-ii-ios-person-ol" xmlns="http://www.w3.org/2000/svg" viewBox="0 0 512 512"><path d="M256.5,3C117,3,4,116.2,4,256s113,253,252.5,253S509,395.8,509,256S396,3,256.5,3z M256.5,24C384.1,24,488,128,488,256c0,56.7-20.4,108.5-54.1,148.9l-0.1-0.1c-24.3-10-80-29.3-112.8-39c-2.9-0.9-3.3-1.1-3.3-13c0-9.9,4-19.8,8-28.3c4.4-9.1,9.3-24.6,11.2-38.4c5.1-6,12.1-17.6,16.5-40c3.9-19.7,2.1-26.9-0.5-33.6c-0.2-0.7-0.6-1.5-0.7-2.1c-1-4.6,0.4-28.6,3.8-47.2c2.3-12.8-0.6-39.9-18.1-62.4c-11-14.2-32.3-31.6-71-34.1h-21.2c-38.1,2.4-59.2,19.8-70.4,34.1c-17.6,22.5-20.5,49.6-18.2,62.4c3.4,18.6,4.7,42.6,3.8,47.2c-0.2,0.9-0.5,1.5-0.7,2.2c-2.5,6.7-4.5,13.9-0.5,33.6c4.5,22.4,11.4,34.1,16.5,40c1.8,13.9,6.9,29.2,11.2,38.4c3.2,6.7,4.6,15.8,4.6,28.7c0,12-0.5,12.2-3.2,13c-34,10.1-87.6,29.4-109.4,38.8C45.4,364.6,25,312.7,25,256C25,128.2,128.9,24,256.5,24z M93.1,420.2c24.2-9.7,71.1-26.5,100.9-35.4h0.2c10.2-3.2,14.1-10.3,15.5-15.8c1.1-3.9,1.2-7.9,1.2-15.8c0-15.9-2.1-27.6-6.4-37c-3.5-7.4-8-20.9-9.6-32.7l-0.7-5.7l-3.8-4.4c-2.3-2.7-8.3-11.2-12.3-31.1c-3.2-15.8-1.7-19.5-0.5-22.7v-0.2l0.1-0.4c0.2-0.7,0.7-1.9,1.2-3.4l0.1-0.6l0.1-0.6c2.1-9.7-0.7-38.8-3.6-54.7c-1.3-7.5,0.4-28.9,14.3-47c8.6-10.9,25.3-24.4,55.7-26.5h20c31.1,2.1,47.8,15.6,56.3,26.6c14.1,18,15.7,39.4,14.3,47c-2.9,15.8-5.7,45-3.6,54.7l0.1,0.4l0.1,0.4c0.5,1.8,1.1,3.4,1.5,4.4c1.3,3.4,2.5,7.2-0.5,22.6c-4,19.9-9.8,28.3-12.1,31.1l-3.8,4.4l-0.7,5.8c-1.6,11.8-6.1,25.2-9.5,32.6c-4.9,10.3-9.8,22.9-9.8,36.6c0,7.1,0.1,11.7,1.3,16.1c1.6,5.4,5.5,12.4,15.7,15.6h0.2c28.8,8.5,77.6,25.3,104.4,35.8c-41.9,41.8-99.7,67.8-163.3,67.8C192.8,488,135.1,462,93.1,420.2L93.1,420.2z"/></svg>
