<svg id="twrp-user-ii-person-f" xmlns="http://www.w3.org/2000/svg" viewBox="0 0 512 512"><path d="M426,426.8c-20.3-7.3-49.5-9.8-68-13.9c-10.7-2.4-26.3-8.4-31.5-14.5c-5.2-6.3-2-64.5-2-64.5s9.6-15.2,14.8-28.4s10.9-49.6,10.9-49.6s10.7,0,14.5-18.8c4.1-20.5,10.4-29,9.6-44.3c-0.8-14.2-8.2-15-9-15c0,0,7.7-21.5,8.8-66.9C375.3,57,334.2,4,257,4S138.9,56.9,140,110.7c0.9,45.3,8.8,66.9,8.8,66.9c-0.8,0-8.2,0.8-9,15c-0.8,15.3,5.7,23.5,9.6,44c3.8,18.8,14.5,18.9,14.5,18.9s5.7,36.5,10.9,49.7c5.2,13.4,14.8,28.4,14.8,28.4s3.1,58.2-2,64.5c-5.2,6.3-20.8,12.2-31.5,14.5c-18.7,4.1-47.7,6.8-68,14C67.7,434,5,458.5,5,509h504C509,458.5,446.3,434,426,426.8z"/></svg>
