<svg id="twrp-user-ii-person-ol" viewBox="0 0 512 512"><path d="M202.4,201.7"/><path d="M425.8,426.8c-20.4-7.3-49.6-9.8-68.2-13.9c-10.7-2.4-26.4-8.4-31.6-14.5c-5.2-6.3-2.1-64.5-2.1-64.5s9.6-15.2,14.8-28.4s10.9-49.6,10.9-49.6s10.7,0,14.5-18.8c4.1-20.5,10.4-29,9.6-44.3c-0.8-14.2-8.2-15-9-15c0,0,7.7-21.5,8.8-66.9C375,57,333.8,4,256.5,4S138.1,56.9,139.2,110.7c0.9,45.3,8.8,66.9,8.8,66.9c-0.8,0-8.2,0.8-9,15c-0.8,15.3,5.7,23.5,9.6,44c3.8,18.8,14.5,18.9,14.5,18.9s5.7,36.5,10.9,49.7c5.2,13.4,14.8,28.4,14.8,28.4s3.2,58.2-2.1,64.5c-5.2,6.3-20.8,12.2-31.6,14.5c-18.8,4.1-47.8,6.8-68.2,14C66.8,434,4,458.5,4,509h505C509,458.5,446.2,434,425.8,426.8z M256.5,483.8H39.8c3.2-4.7,7.4-8,12.9-12c11-8,25.4-15.5,42.8-21.5c10.7-3.8,26.4-6.3,40.1-8.4c9-1.4,17.5-2.7,25.1-4.4c5.4-1.3,32.8-7.9,45.4-23c7.1-8.5,9.2-20,8.8-51c-0.2-15.8-0.9-30.5-0.9-31.1l-0.3-6.6l-3.6-5.5c-2.4-3.6-9.2-15-12.6-24.1c-2.8-7.4-7.3-30.3-9.5-44.3c0,0,0.6,1.6-0.8-5.8c-1.4-7.4-13.3-6.8-14.8-12.6c-1.4-5.7-2.8-10.9-6.8-28.7s4.4-17.7,6.2-25.6c0.9-4.9,0-9,0-9.2c-0.5-1.6-6.5-21.1-7.4-59.5c-0.5-20.8,7.3-40.4,21.8-55.1c16.7-17,41-26,70.2-26c30,0,53.7,9,70.4,26c14.5,14.7,22.3,34.2,21.8,55.1c-0.8,38.2-6.8,57.8-7.4,59.5c0,0.2-0.9,2.7-0.6,8.2c0.3,8.5,10.7,8.7,6.8,26.5s-5.4,23-6.8,28.7c-1.4,5.7-13.4,5.2-14.8,12.6c-1.4,7.4-0.8,5.8-0.8,5.8c-2.2,14-6.6,36.9-9.5,44.3c-3.6,9.2-10.4,20.5-12.6,24.1l-3.6,5.5l-0.3,6.6c0,0.6-0.8,15.3-0.9,31.1c-0.3,30.9,1.7,42.5,8.8,51c12.6,15,40.1,21.8,45.4,23c7.6,1.7,16.1,3,25.1,4.4c13.7,2.1,29.4,4.6,40.1,8.4c17.4,6.2,31.9,13.6,42.8,21.6c5.5,3.9,9.8,7.3,12.9,12L256.5,483.8z"/></svg>
