<svg id="twrp-views-fi-f" viewBox="0 0 100 100"><path d="M95.6,46.9L73.4,24.8l-0.2,0.2c-6.1-5.7-14.3-9.2-23.4-9.2c-10.2,0-19.3,4.4-25.6,11.4L3.7,47.7l0,0c-0.5,0.6-0.9,1.4-0.9,2.3c0,1.1,0.5,2.1,1.3,2.7l22.3,22.3l0,0c6.1,5.7,14.3,9.1,23.3,9.1c10.1,0,19.3-4.4,25.5-11.4l0.1,0.1L96,52.5c0.1-0.1,0.2-0.2,0.2-0.2l0,0l0,0c0.6-0.6,0.9-1.5,0.9-2.4C97.1,48.6,96.5,47.6,95.6,46.9z M49.9,73.2c-12.8,0-23.2-10.4-23.2-23.2c0-12.8,10.4-23.2,23.2-23.2S73.1,37.2,73.1,50C73.1,62.8,62.7,73.2,49.9,73.2z"/><circle cx="50" cy="50.1" r="11.3"/></svg>
