<svg id="twrp-tax-ii-fo-ol" viewBox="0 0 512 512"><path style="fill:none;stroke:currentColor;stroke-width:32;stroke-linecap:round;stroke-linejoin:round;" d="M50.3,187.4v-77.1c0-23.7,19.2-42.9,42.9-42.9h81.3c8.5,0,16.7,2.5,23.8,7.2l29.8,19.9c7,4.7,15.3,7.2,23.8,7.2h167c23.7,0,42.9,19.2,42.9,42.9v42.9"/><path style="fill:none;stroke:currentColor;stroke-width:32;stroke-linecap:round;stroke-linejoin:round;" d="M495.9,224.4l-17.4,177.3c0,23.6-19.1,42.8-42.8,42.9H76.3c-23.6,0-42.8-19.2-42.8-42.9L16.1,224.4c-1.5-18.9,12.6-35.4,31.4-36.9c0.9-0.1,1.8-0.1,2.7-0.1h411.5c18.9,0.1,34.2,15.5,34.2,34.4C496,222.7,496,223.6,495.9,224.4z"/></svg>
