<svg id="twrp-tax-ii-iof-ol" viewBox="0 0 512 512"><path d="M485.7,73.1H209.1c-3.2,0-4.9-0.7-7-2.8l-25.7-25.7l-0.2-0.2c-5.6-5.3-10.1-7.9-19.7-7.9h-128C12.8,36.6,0,48.4,0,62.9v384c0,15.2,13.4,28.6,28.6,28.6h457.1c14.5,0,26.3-12.8,26.3-28.6V99.4C512,84.2,500.9,73.1,485.7,73.1z M28.6,54.9h128c4,0,4.3,0.2,7.1,2.8l25.6,25.6c5.5,5.5,11.9,8.1,19.9,8.1h276.6c5.1,0,8,2.9,8,8v48.4c-2.9-1-5.9-1.6-9.1-1.6H27.4c-3.2,0-6.3,0.6-9.1,1.6v-85C18.3,57.9,23.6,54.9,28.6,54.9z M493.7,446.9c0,4.9-3.1,10.3-8,10.3H28.6c-5.1,0-10.3-5.2-10.3-10.3V173.7c0-5,4.1-9.1,9.1-9.1h457.1c5,0,9.1,4.1,9.1,9.1V446.9z"/></svg>
