<svg id="twrp-tax-io-it-ol" viewBox="0 0 512 512"><path d="M470.3,41.7V6H291.7L6,327.4L184.6,506l26.2-26.7l27.4,26.7L506,202.4V41.7H470.3z M184.6,480.7L31,327.4L299.1,23.9h153.3v17.9v17.9v117.6L210.7,454l-12.7,12.7L184.6,480.7z M488.1,195l-250,285.7l-14.7-14.1l246.9-282.1v-125h17.9V195z"/><path d="M363.1,148.9c19.7,0,35.7-16,35.7-35.7s-16-35.7-35.7-35.7c-19.7,0-35.7,16-35.7,35.7S343.4,148.9,363.1,148.9z M363.1,95.3c9.9,0,17.9,8,17.9,17.9s-8,17.9-17.9,17.9s-17.9-8-17.9-17.9S353.3,95.3,363.1,95.3z"/></svg>
