<svg id="twrp-tax-io-ol" xmlns="http://www.w3.org/2000/svg" viewBox="0 0 512 512"><path style="fill:none;stroke:currentColor;stroke-width:32;stroke-linecap:round;stroke-linejoin:round;" d="M457.7,22H319.4c-4.3,0-8.4,1.7-11.5,4.7L31.5,304.3c-12.6,12.7-12.6,33.3,0,46l131.7,132.2c12.7,12.7,33.1,12.7,45.8,0L485.3,205c3-3.1,4.7-7.2,4.7-11.5v-139c0.1-17.9-14.3-32.5-32.1-32.5C457.8,22,457.8,22,457.7,22z"/><path d="M400,148.5c-19.9,0-36-16.2-36-36.2s16.1-36.2,36-36.2s36,16.2,36,36.2S419.9,148.5,400,148.5z"/></svg>
