<?xml version="1.0" encoding="utf-8"?>
<!-- Generator: Adobe Illustrator 24.3.0, SVG Export Plug-In . SVG Version: 6.00 Build 0)  -->
<svg version="1.1" id="Layer_1" xmlns="http://www.w3.org/2000/svg" xmlns:xlink="http://www.w3.org/1999/xlink" x="0px" y="0px"
	 viewBox="0 0 100 100" style="enable-background:new 0 0 100 100;" xml:space="preserve">
<g>
	<path style="fill-opacity:0.3;" d="M90,10.7v21c0,0.1-0.5,0.7-1.5,0.7h-6.1V37l-7.2-4.6h-1.6c-2-1.5-4.6-2.4-7.4-2.4H54V10.7
		c0-0.1,0.5-0.7,1.5-0.7h33C89.5,10,90,10.5,90,10.7z"/>
	<path d="M98,10.7v21c0,4.2-3.2,7.7-7.6,8.5l0,3.6c0,1.5-0.9,2.9-2.2,3.6c-0.6,0.4-3.7,0.3-4.3-0.1l-1.2-0.7l-4.7-3
		c0,0-0.1-4.3-0.2-4.9c-0.5-2.6-2-4.8-4.1-6.4h1.6l7.2,4.6v-4.6h6.1c1,0,1.5-0.5,1.5-0.7v-21c0-0.1-0.5-0.7-1.5-0.7h-33
		c-1,0-1.5,0.5-1.5,0.7V30h-8V10.7C46,5.9,50.3,2,55.5,2h33C93.7,2,98,5.9,98,10.7z"/>
</g>
<g>
	<path d="M72,46.6v10.5l-8-8v-2.5c0-1.4-1.8-2.6-3.8-2.6h-1.4l-8-8h9.4c1.1,0,2.2,0.1,3.2,0.4c1.4,0.4,2.7,0.9,3.8,1.7
		c0.6,0.4,2.7,2.5,2.7,2.6C71.3,42.4,72,44.5,72,46.6z"/>
</g>
<path style="fill-opacity:0.3;" d="M63.2,78.1c-0.7,0.7-1.8,1.1-3,1.1H32.9l-10.3,6.6l-2,1.3v-7.9h-6.9c-0.3,0-0.7,0-1-0.1
	c-1.5-0.3-2.8-1.4-2.8-2.5V46.6c0-1,0.8-1.9,2-2.3c0.5-0.2,1.1-0.3,1.8-0.3h15.4L63.2,78.1z"/>
<path d="M68.9,83.8c-2.1,2.1-5.2,3.4-8.7,3.4h-25L19.4,97.3c-0.7,0.4-3.8,0.5-4.5,0.1c-1.4-0.8-2.2-2.2-2.3-3.7l0-6.5
	C6.7,86.7,2,82.1,2,76.6V46.6c0-4.2,2.7-7.9,6.7-9.6c1.5-0.7,3.2-1,5.1-1h7.4l8,8H13.8c-0.6,0-1.2,0.1-1.8,0.3c-1.2,0.5-2,1.3-2,2.3
	v29.9c0,1.2,1.2,2.2,2.8,2.5c0.3,0.1,0.6,0.1,1,0.1h6.9v7.9l2-1.3l10.3-6.6h27.3c1.2,0,2.3-0.4,3-1.1L68.9,83.8z"/>
<path style="fill-opacity:0.3;" d="M64,46.6v2.5L58.8,44h1.4C62.2,44,64,45.2,64,46.6z"/>
<g>
	<path d="M99.1,97L97,99.1c-1.2,1.2-3.1,1.2-4.2,0L0.9,7.2C-0.3,6-0.3,4.1,0.9,3L3,0.9c1.2-1.2,3.1-1.2,4.2,0l91.9,91.9
		C100.3,94,100.3,95.8,99.1,97z"/>
</g>
</svg>
