<?xml version="1.0" encoding="utf-8"?>
<!-- Generator: Adobe Illustrator 24.3.0, SVG Export Plug-In . SVG Version: 6.00 Build 0)  -->
<svg version="1.1" id="Layer_1" xmlns="http://www.w3.org/2000/svg" xmlns:xlink="http://www.w3.org/1999/xlink" x="0px" y="0px"
	 viewBox="0 0 100 100" style="enable-background:new 0 0 100 100;" xml:space="preserve">
<path d="M81.1,11.5H28.5l4,4h48.7c4.6,0,8.4,3.1,8.4,7v40.4c0,2.4-1.5,4.6-3.8,5.8l2.9,2.9c3-2,4.9-5.2,4.9-8.7V22.5
	C93.5,16.4,88,11.5,81.1,11.5z M52.9,69.9h-7.4L24.8,83.4l0,0V69.9h-5.9c-4.6,0-8.4-3.1-8.4-7V27.5l-4-4v39.5c0,6,5.5,11,12.4,11
	h1.9l0,12.1c0,0.9,0.5,1.7,1.3,2.1c0.4,0.2,0.8,0.3,1.3,0.3c0.5,0,3.6-1.8,3.6-1.8l19.8-12.8h10.2L52.9,69.9z"/>
<g>
	<path d="M99.4,99.4C99,99.8,98.5,100,98,100s-1-0.2-1.4-0.6l-96-96c-0.8-0.8-0.8-2,0-2.8C1,0.2,1.5,0,2,0s1,0.2,1.4,0.6l96,96
		C100.2,97.3,100.2,98.6,99.4,99.4z"/>
</g>
</svg>
