<?xml version="1.0" encoding="utf-8"?>
<!-- Generator: Adobe Illustrator 24.3.0, SVG Export Plug-In . SVG Version: 6.00 Build 0)  -->
<svg version="1.1" id="Layer_1" xmlns="http://www.w3.org/2000/svg" xmlns:xlink="http://www.w3.org/1999/xlink" x="0px" y="0px"
	 viewBox="0 0 100 100" style="enable-background:new 0 0 100 100;" xml:space="preserve">
<g>
	<path style="fill-opacity:0.3;" d="M85.5,62.2c0,0.9-0.4,1.8-1,2.5L39.3,19.5h40.3c3.2,0,5.9,2.1,5.9,4.5V62.2z"/>
	<path style="fill-opacity:0.3;" d="M46.9,66.7h-1.8l-17,11v-11h-7.7c-3.2,0-5.9-2.1-5.9-4.5V34.3L46.9,66.7z"/>
	<path d="M54.9,74.7h-7.4L29.2,86.5c0,0-3.7,2-4.5,2c-0.8,0-1.5-0.2-2.2-0.6c-1.4-0.8-2.3-2.2-2.3-3.8l0-9.4
		C12.6,74.6,6.5,69,6.5,62.2V26.3l8,8v27.9c0,2.4,2.7,4.5,5.9,4.5h7.7v11l17-11h1.8L54.9,74.7z"/>
	<path d="M93.5,24v38.2c0,3.1-1.3,6-3.4,8.1l-5.7-5.6c0.6-0.7,1-1.6,1-2.5V24c0-2.4-2.7-4.5-5.9-4.5H39.3l-8-8h48.3
		C87.3,11.5,93.5,17.1,93.5,24z"/>
</g>
<g>
	<path d="M98.8,98.8C98,99.6,97,100,96,100c-1,0-2.1-0.4-2.8-1.2L1.2,6.9c-1.6-1.6-1.6-4.1,0-5.7C2,0.4,3,0,4,0c1,0,2.1,0.4,2.8,1.2
		l91.9,91.9C100.3,94.7,100.3,97.2,98.8,98.8z"/>
</g>
</svg>
