<svg id="twrp-tax-ti-fo-ol" viewBox="0 0 24 24"><path d="M23.2,7.4h-2.7c-0.5-1.4-1.7-2.3-3.2-2.3h-6.9c0-1.3-1-2.3-2.3-2.3H3.4C1.5,2.9,0,4.3,0,6.3v11.4c0,1.9,1.5,3.4,3.4,3.4h13.7c1.9,0,3.9-1.5,4.3-3.4L24,8.6C24.1,7.9,23.7,7.4,23.2,7.4z M2.3,8.6V6.3c0-0.7,0.5-1.1,1.1-1.1H8c0,1.3,1,2.3,2.3,2.3h6.9c0.7,0,1.1,0.5,1.1,1.1H5.6C4.9,8.6,4.3,9,4.1,9.7l-1.8,7.2C2.3,16.9,2.3,8.6,2.3,8.6z M19.3,17.1c-0.2,0.9-1.3,1.7-2.2,1.7H3.4c0,0-0.5-0.2-0.2-0.9l2.2-8c0-0.1,0.2-0.2,0.3-0.2h15.6C21.4,9.7,19.3,17.1,19.3,17.1z"/></svg>
