<?xml version="1.0" encoding="utf-8"?>
<!-- Generator: Adobe Illustrator 24.3.0, SVG Export Plug-In . SVG Version: 6.00 Build 0)  -->
<svg version="1.1" id="Layer_1" xmlns="http://www.w3.org/2000/svg" xmlns:xlink="http://www.w3.org/1999/xlink" x="0px" y="0px"
	 viewBox="0 0 100 100" style="enable-background:new 0 0 100 100;" xml:space="preserve">
<path d="M73.8,4C64.7,4,55.3,8.4,50,17.6C44.6,8.3,35.3,4,26.2,4C12.9,4,0,13.1,0,29.9C0,49.4,23.2,69.3,50,96
	c26.8-26.7,50-46.6,50-66.1C100,13.1,87.1,4,73.8,4z M57.1,83.3c-2.3,2.3-4.7,4.6-7.1,7V25.5l3.5-6C57.7,12.4,65.3,8,73.8,8
	C84.5,8,96,14.9,96,29.9C96,45.2,78.8,62,57.1,83.3z"/>
</svg>
