<svg id="twrp-user-goo-box-dt" xmlns="http://www.w3.org/2000/svg" viewBox="0 0 24 24"><path fill="none" d="M0,0h24v24H0V0z"/><path style="opacity:0.3;" d="M2.7,21.3h18.7V2.7H2.7V21.3z M12,4c2.2,0,4,1.8,4,4s-1.8,4-4,4s-4-1.8-4-4S9.8,4,12,4z M4,18c0-3.3,5.3-4.8,8-4.8s8,1.4,8,4.8v2H4V18z"/><path d="M12,12c2.2,0,4-1.8,4-4s-1.8-4-4-4S8,5.8,8,8S9.8,12,12,12z M12,6.7c0.7,0,1.3,0.6,1.3,1.3S12.7,9.3,12,9.3S10.7,8.7,10.7,8S11.3,6.7,12,6.7z M21.3,0H2.7C1.2,0,0,1.2,0,2.7v18.7C0,22.8,1.2,24,2.7,24h18.7c1.5,0,2.7-1.2,2.7-2.7V2.7C24,1.2,22.8,0,21.3,0z M21.3,21.3H2.7V2.7h18.7V21.3z M20,18c0-3.3-5.3-4.8-8-4.8S4,14.6,4,18v2h16V18z M7.1,17.3c0.9-0.7,3.2-1.5,4.9-1.5s4,0.7,4.9,1.5H7.1z"/></svg>
