<?xml version="1.0" encoding="utf-8"?>
<!-- Generator: Adobe Illustrator 24.3.0, SVG Export Plug-In . SVG Version: 6.00 Build 0)  -->
<svg version="1.1" id="Layer_1" xmlns="http://www.w3.org/2000/svg" xmlns:xlink="http://www.w3.org/1999/xlink" x="0px" y="0px"
	 viewBox="0 0 100 100" style="enable-background:new 0 0 100 100;" xml:space="preserve">
<g>
	<path style="fill-opacity:0.3;" d="M54.9,69.7h-9.8l-17,11v-11h-7.7c-3.2,0-5.9-2.1-5.9-4.5V29.3L54.9,69.7z"/>
	<path style="fill-opacity:0.3;" d="M85.5,27v38.2c0,1.3-0.8,2.6-2,3.4L37.3,22.5h42.3C82.8,22.5,85.5,24.6,85.5,27z"/>
	<path d="M62.9,77.7H47.5L29.2,89.5c0,0-3.7,2-4.5,2c-0.8,0-1.5-0.2-2.2-0.6c-1.4-0.8-2.3-2.2-2.3-3.8l0-9.4
		C12.6,77.6,6.5,72,6.5,65.2V27c0-1.6,0.3-3.2,1-4.6l7,7v35.9c0,2.4,2.7,4.5,5.9,4.5h7.7v11l17-11h9.8L62.9,77.7z"/>
	<path d="M93.5,27v38.2c0,3.6-1.7,6.8-4.4,9.1l-5.7-5.7c1.2-0.8,2-2.1,2-3.4V27c0-2.4-2.7-4.5-5.9-4.5H37.3l-8-8h50.3
		C87.3,14.5,93.5,20.1,93.5,27z"/>
</g>
<g>
	<path d="M99.1,97L97,99.1c-1.2,1.2-3.1,1.2-4.2,0L0.9,7.2C-0.3,6-0.3,4.1,0.9,3L3,0.9c1.2-1.2,3.1-1.2,4.2,0l91.9,91.9
		C100.3,94,100.3,95.8,99.1,97z"/>
</g>
</svg>
