<?xml version="1.0" encoding="utf-8"?>
<!-- Generator: Adobe Illustrator 24.3.0, SVG Export Plug-In . SVG Version: 6.00 Build 0)  -->
<svg version="1.1" id="Layer_1" xmlns="http://www.w3.org/2000/svg" xmlns:xlink="http://www.w3.org/1999/xlink" x="0px" y="0px"
	 viewBox="0 0 100 100" style="enable-background:new 0 0 100 100;" xml:space="preserve">
<path d="M54.9,69.7h-9.8l-17,11v-11h-7.7c-3.2,0-5.9-2.1-5.9-4.5V29.3l-7-7c-0.7,1.4-1,3-1,4.6v38.2c0,6.8,6.1,12.3,13.6,12.5l0,9.4
	c0,1.6,0.9,3,2.3,3.8c0.7,0.4,1.5,0.6,2.2,0.6c0.8,0,4.5-2,4.5-2l18.3-11.8h15.4L54.9,69.7z M79.6,14.5H29.3l8,8h42.3
	c3.2,0,5.9,2.1,5.9,4.5v38.2c0,1.3-0.8,2.6-2,3.4l5.7,5.7c2.7-2.3,4.4-5.5,4.4-9.1V27C93.5,20.1,87.3,14.5,79.6,14.5z"/>
<g>
	<path d="M99.1,97L97,99.1c-1.2,1.2-3.1,1.2-4.2,0L0.9,7.2C-0.3,6-0.3,4.1,0.9,3L3,0.9c1.2-1.2,3.1-1.2,4.2,0l91.9,91.9
		C100.3,94,100.3,95.8,99.1,97z"/>
</g>
</svg>
