<svg enable-background="new 0 0 477.863 477.863" version="1.1" viewBox="0 0 477.86 477.86" xml:space="preserve">


		<path d="m460.8 0h-187.73c-4.526 1e-3 -8.866 1.8-12.066 5.001l-256 256c-6.663 6.665-6.663 17.468 0 24.132l187.73 187.73c6.665 6.662 17.468 6.662 24.132 0l256-256c3.201-3.2 5-7.54 5.001-12.066v-187.73c0-9.426-7.641-17.067-17.067-17.067zm-17.066 197.73-238.93 238.93-163.6-163.6 238.93-238.93h163.6v163.6z"/>




		<path d="m358.4 68.267c-28.277 0-51.2 22.923-51.2 51.2s22.923 51.2 51.2 51.2 51.2-22.923 51.2-51.2-22.923-51.2-51.2-51.2zm0 68.266c-9.426 0-17.067-7.641-17.067-17.067s7.641-17.067 17.067-17.067 17.067 7.641 17.067 17.067-7.641 17.067-17.067 17.067z"/>

















</svg>
