<?xml version="1.0" encoding="UTF-8" standalone="no"?>
<!-- This file is generated dynamically. Do NOT modify it. -->
<svg xmlns="http://www.w3.org/2000/svg" xmlns:xlink="http://www.w3.org/1999/xlink" style="display:none;"><symbol id="twrp-user-fa-alt-f" viewBox="0 0 512 512"><path d="M256 288c79.5 0 144-64.5 144-144S335.5 0 256 0 112 64.5 112 144s64.5 144 144 144zm128 32h-55.1c-22.2 10.2-46.9 16-72.9 16s-50.6-5.8-72.9-16H128C57.3 320 0 377.3 0 448v16c0 26.5 21.5 48 48 48h416c26.5 0 48-21.5 48-48v-16c0-70.7-57.3-128-128-128z"></path></symbol>
<symbol id="twrp-cal-goo-c-dt" viewBox="0 0 24 24"><path d="M12,0C5.4,0,0,5.4,0,12s5.4,12,12,12s12-5.4,12-12S18.6,0,12,0z M16.3,16.6l-4.9-3c-0.4-0.2-0.6-0.6-0.6-1V6.9c0-0.5,0.4-0.9,0.9-0.9s0.9,0.4,0.9,0.9v5.3l4.6,2.8c0.4,0.3,0.6,0.8,0.3,1.3C17.3,16.7,16.7,16.8,16.3,16.6z"/></symbol>
<symbol id="twrp-views-ii-f" viewBox="0 0 512 512"><circle cx="256" cy="256" r="64"/><path d="M490.84,238.6c-26.46-40.92-60.79-75.68-99.27-100.53C349,110.55,302,96,255.66,96c-42.52,0-84.33,12.15-124.27,36.11C90.66,156.54,53.76,192.23,21.71,238.18a31.92,31.92,0,0,0-.64,35.54c26.41,41.33,60.4,76.14,98.28,100.65C162,402,207.9,416,255.66,416c46.71,0,93.81-14.43,136.2-41.72,38.46-24.77,72.72-59.66,99.08-100.92A32.2,32.2,0,0,0,490.84,238.6ZM256,352a96,96,0,1,1,96-96A96.11,96.11,0,0,1,256,352Z"/></symbol>
<symbol id="twrp-tax-im-f" viewBox="0 0 24 24"><path d="M10.605 0h-10.605v10.609l13.391 13.391 10.609-10.604-13.395-13.396zm-4.191 6.414c-.781.781-2.046.781-2.829.001-.781-.783-.781-2.048 0-2.829.782-.782 2.048-.781 2.829-.001.782.782.781 2.047 0 2.829z"/></symbol>
<symbol id="twrp-com-goo-2-sh" viewBox="0 0 24 24"><path d="M24,0H0v19.2h19.2L24,24V0z M19.2,14.4H4.8V12h14.4V14.4z M19.2,10.8H4.8V8.4h14.4V10.8z M19.2,7.2H4.8V4.8h14.4V7.2z"/></symbol>
</svg>