<?xml version="1.0" encoding="UTF-8" standalone="no"?>
<!-- This file is generated dynamically. Do NOT modify it. -->
<svg xmlns="http://www.w3.org/2000/svg" xmlns:xlink="http://www.w3.org/1999/xlink" style="display:none;">
<symbol id="twrp-user-fa-f" viewBox="0 0 448 512"><path d="M224 256c70.7 0 128-57.3 128-128S294.7 0 224 0 96 57.3 96 128s57.3 128 128 128zm89.6 32h-16.7c-22.2 10.2-46.9 16-72.9 16s-50.6-5.8-72.9-16h-16.7C60.2 288 0 348.2 0 422.4V464c0 26.5 21.5 48 48 48h352c26.5 0 48-21.5 48-48v-41.6c0-74.2-60.2-134.4-134.4-134.4z"></path></symbol>
<symbol id="twrp-cal-fa-c-ol" viewBox="0 0 512 512"><path d="M256 8C119 8 8 119 8 256s111 248 248 248 248-111 248-248S393 8 256 8zm0 448c-110.5 0-200-89.5-200-200S145.5 56 256 56s200 89.5 200 200-89.5 200-200 200zm61.8-104.4l-84.9-61.7c-3.1-2.3-4.9-5.9-4.9-9.7V116c0-6.6 5.4-12 12-12h32c6.6 0 12 5.4 12 12v141.7l66.8 48.6c5.4 3.9 6.5 11.4 2.6 16.8L334.6 349c-3.9 5.3-11.4 6.5-16.8 2.6z"></path></symbol>
<symbol id="twrp-tax-fa-f-f" viewBox="0 0 512 512"><path d="M464 128H272l-64-64H48C21.49 64 0 85.49 0 112v288c0 26.51 21.49 48 48 48h416c26.51 0 48-21.49 48-48V176c0-26.51-21.49-48-48-48z"></path></symbol>
<symbol id="twrp-com-fa-f" viewBox="0 0 512 512"><path d="M256 32C114.6 32 0 125.1 0 240c0 49.6 21.4 95 57 130.7C44.5 421.1 2.7 466 2.2 466.5c-2.2 2.3-2.8 5.7-1.5 8.7S4.8 480 8 480c66.3 0 116-31.8 140.6-51.4 32.7 12.3 69 19.4 107.4 19.4 141.4 0 256-93.1 256-208S397.4 32 256 32z"></path></symbol>
<symbol id="twrp-dcom-twrp-c2-f" viewBox="0 0 100 100"><path d="M58.5,84c-2.8,0.5-5.6,0.7-8.5,0.7c-6.5,0-12.7-1.2-18.2-3.4c-4.2,3.5-11.2,7.3-22.4,7.3c-0.5,0-1-0.3-1.2-0.8c-0.2-0.5-0.1-1.1,0.2-1.5c0.1-0.1,5.7-6.2,7.9-15.1c-6-6.3-9.7-14.3-9.7-23c0-4.6,1-9.1,2.9-13.2L58.5,84z"/><path d="M98.8,96L96,98.8c-1.6,1.6-4.1,1.6-5.7,0L1.2,9.7c-1.6-1.6-1.6-4.1,0-5.7L4,1.2c1.6-1.6,4.1-1.6,5.6,0L26,17.5c6.9-3.8,15.1-6,24-6c24,0,43.5,16.4,43.5,36.6c0,9.7-4.5,18.5-11.8,25.1l17.2,17.2C100.4,91.9,100.4,94.4,98.8,96z"/></symbol>
<symbol id="twrp-views-fa-f" viewBox="0 0 576 512"><path d="M572.52 241.4C518.29 135.59 410.93 64 288 64S57.68 135.64 3.48 241.41a32.35 32.35 0 0 0 0 29.19C57.71 376.41 165.07 448 288 448s230.32-71.64 284.52-177.41a32.35 32.35 0 0 0 0-29.19zM288 400a144 144 0 1 1 144-144 143.93 143.93 0 0 1-144 144zm0-240a95.31 95.31 0 0 0-25.31 3.79 47.85 47.85 0 0 1-66.9 66.9A95.78 95.78 0 1 0 288 160z"></path></symbol>
</svg>