<!-- This file is generated dynamically. Do NOT modify it. -->
<?xml version="1.0" encoding="UTF-8" standalone="no"?>
<svg xmlns="http://www.w3.org/2000/svg" xmlns:xlink="http://www.w3.org/1999/xlink" style="display:none;"><defs><svg id="twrp-user-oi-ol" xmlns="http://www.w3.org/2000/svg" viewBox="0 0 24 24"><path style="fill-rule:evenodd;clip-rule:evenodd;" d="M12,0.1c-3.8,0-6.9,3.1-6.9,6.9c0,2.3,1.1,4.4,3,5.7c-4.3,1.6-7.3,5.7-7.4,10.3c0,0.5,0.4,1,0.9,1c0.5,0,1-0.4,1-0.9c0.2-5.2,4.5-9.3,9.7-9.2c5,0.2,9,4.2,9.2,9.2c0,0.5,0.4,0.9,1,0.9c0.5,0,0.9-0.4,0.9-1c0,0,0,0,0,0c-0.1-4.6-3.1-8.7-7.4-10.3c3.2-2.2,4-6.5,1.8-9.6C16.4,1.3,14.3,0.1,12,0.1z M7,7.1c0-2.8,2.3-5,5-5s5,2.3,5,5s-2.3,5-5,5S7,9.9,7,7.1z"/></svg><svg id="twrp-cal-im-f" xmlns="http://www.w3.org/2000/svg" viewBox="0 0 24 24"><path d="M24 2v22h-24v-22h3v1c0 1.103.897 2 2 2s2-.897 2-2v-1h10v1c0 1.103.897 2 2 2s2-.897 2-2v-1h3zm-2 6h-20v14h20v-14zm-2-7c0-.552-.447-1-1-1s-1 .448-1 1v2c0 .552.447 1 1 1s1-.448 1-1v-2zm-14 2c0 .552-.447 1-1 1s-1-.448-1-1v-2c0-.552.447-1 1-1s1 .448 1 1v2zm6.687 13.482c0-.802-.418-1.429-1.109-1.695.528-.264.836-.807.836-1.503 0-1.346-1.312-2.149-2.581-2.149-1.477 0-2.591.925-2.659 2.763h1.645c-.014-.761.271-1.315 1.025-1.315.449 0 .933.272.933.869 0 .754-.816.862-1.567.797v1.28c1.067 0 1.704.067 1.704.985 0 .724-.548 1.048-1.091 1.048-.822 0-1.159-.614-1.188-1.452h-1.634c-.032 1.892 1.114 2.89 2.842 2.89 1.543 0 2.844-.943 2.844-2.518zm4.313 2.518v-7.718h-1.392c-.173 1.154-.995 1.491-2.171 1.459v1.346h1.852v4.913h1.711z"/></svg><svg id="twrp-views-im-f" xmlns="http://www.w3.org/2000/svg" viewBox="0 0 24 24"><path d="M15 12c0 1.657-1.343 3-3 3s-3-1.343-3-3c0-.199.02-.393.057-.581 1.474.541 2.927-.882 2.405-2.371.174-.03.354-.048.538-.048 1.657 0 3 1.344 3 3zm-2.985-7c-7.569 0-12.015 6.551-12.015 6.551s4.835 7.449 12.015 7.449c7.733 0 11.985-7.449 11.985-7.449s-4.291-6.551-11.985-6.551zm-.015 12c-2.761 0-5-2.238-5-5 0-2.761 2.239-5 5-5 2.762 0 5 2.239 5 5 0 2.762-2.238 5-5 5z"/></svg><svg id="twrp-tax-im-f" xmlns="http://www.w3.org/2000/svg" viewBox="0 0 24 24"><path d="M10.605 0h-10.605v10.609l13.391 13.391 10.609-10.604-13.395-13.396zm-4.191 6.414c-.781.781-2.046.781-2.829.001-.781-.783-.781-2.048 0-2.829.782-.782 2.048-.781 2.829-.001.782.782.781 2.047 0 2.829z"/></svg><svg id="twrp-com-ii-f" xmlns="http://www.w3.org/2000/svg" viewBox="0 0 512 512"><path d="M129.1,491.5c-10,0-18.1-8.1-18.1-18.1V401H84c-44.7,0-81-36.5-81-81.4V102.4C3,57.5,39.3,21,84,21h343.6c44.9,0,81.4,36.5,81.4,81.4v217.1c0,45-36.5,81.4-81.4,81.4H244.1l-103.4,86.3C137.4,490,133.3,491.5,129.1,491.5z"/></svg></defs></svg>