<?xml version="1.0" encoding="UTF-8" standalone="no"?>
<!-- This file is generated dynamically. Do NOT modify it. -->
<svg xmlns="http://www.w3.org/2000/svg" xmlns:xlink="http://www.w3.org/1999/xlink" style="display:none;">
<symbol id="twrp-user-fa-alt-f" viewBox="0 0 512 512"><path d="M256 288c79.5 0 144-64.5 144-144S335.5 0 256 0 112 64.5 112 144s64.5 144 144 144zm128 32h-55.1c-22.2 10.2-46.9 16-72.9 16s-50.6-5.8-72.9-16H128C57.3 320 0 377.3 0 448v16c0 26.5 21.5 48 48 48h416c26.5 0 48-21.5 48-48v-16c0-70.7-57.3-128-128-128z"></path></symbol>
<symbol id="twrp-cal-goo-c-dt" viewBox="0 0 24 24"><path style="opacity:0.3;" d="M12,2.4c-5.3,0-9.6,4.3-9.6,9.6s4.3,9.6,9.6,9.6s9.6-4.3,9.6-9.6S17.3,2.4,12,2.4z M17.1,17l-6.3-3.8V6h1.8v6.3l5.4,3.2L17.1,17z"/><path d="M12,0C5.4,0,0,5.4,0,12s5.4,12,12,12c6.6,0,12-5.4,12-12S18.6,0,12,0z M12,21.6c-5.3,0-9.6-4.3-9.6-9.6S6.7,2.4,12,2.4s9.6,4.3,9.6,9.6S17.3,21.6,12,21.6z M12.6,6h-1.8v7.2l6.3,3.8l0.9-1.5l-5.4-3.2V6z"/></symbol>
<symbol id="twrp-tax-ii-t-f" viewBox="0 0 512 512"><path d="M448,183.7V60.8c0.1-24.7-19.9-44.7-44.5-44.8c-0.1,0-0.1,0-0.2,0H280.4c-8.1,0-15.8,3.2-21.5,8.9L13.1,270.4c-17.5,17.5-17.5,45.8,0,63.3l117,116.9c17.5,17.4,45.8,17.4,63.3,0l245.7-245.5C444.8,199.5,448,191.8,448,183.7z M352,143.9c-17.7,0-32-14.3-32-32s14.3-32,32-32c17.7,0,32,14.3,32,32S369.7,143.9,352,143.9z"/><path d="M496,64c-8.8,0-16,7.2-16,16v127.3L218.7,468.4c-6.4,6.1-6.7,16.2-0.6,22.6s16.2,6.7,22.6,0.6c0.2-0.2,0.4-0.4,0.6-0.6l262-261.8c5.6-5.7,8.8-13.3,8.7-21.3V80C512,71.1,504.8,64,496,64z"/></symbol>
<symbol id="twrp-com-goo-2-sh" viewBox="0 0 24 24"><path d="M24,0H0v19.2h19.2L24,24V0z M19.2,14.4H4.8V12h14.4V14.4z M19.2,10.8H4.8V8.4h14.4V10.8z M19.2,7.2H4.8V4.8h14.4V7.2z"/></symbol>
<symbol id="twrp-dcom-twrp-c-sh" viewBox="0 0 100 100"><polygon points="53.1,78.6 40.7,78.6 21.4,91.5 21.4,78.6 6.5,78.6 6.5,32"/><polygon points="100.2,91.7 91.7,100.2 -0.2,8.3 8.3,-0.2 23,14.5 93.5,14.5 93.5,78.6 87,78.6"/></symbol>
<symbol id="twrp-views-goo-dt" viewBox="0 0 24 24"><path style="opacity:0.3;" d="M12,6c-4.1,0-7.8,2.3-9.6,6c1.8,3.7,5.5,6,9.6,6s7.8-2.3,9.6-6C19.8,8.3,16.1,6,12,6z M12,16.9c-2.7,0-4.9-2.2-4.9-4.9S9.3,7.1,12,7.1s4.9,2.2,4.9,4.9S14.7,16.9,12,16.9z"/><path d="M12,3.8C6.5,3.8,1.9,7.2,0,12c1.9,4.8,6.5,8.2,12,8.2s10.1-3.4,12-8.2C22.1,7.2,17.5,3.8,12,3.8z M12,18c-4.1,0-7.8-2.3-9.6-6C4.2,8.3,7.9,6,12,6s7.8,2.3,9.6,6C19.8,15.7,16.1,18,12,18z M12,7.1c-2.7,0-4.9,2.2-4.9,4.9s2.2,4.9,4.9,4.9s4.9-2.2,4.9-4.9S14.7,7.1,12,7.1z M12,14.7c-1.5,0-2.7-1.2-2.7-2.7s1.2-2.7,2.7-2.7s2.7,1.2,2.7,2.7S13.5,14.7,12,14.7z"/></symbol>
<symbol id="twrp-rat-ti-f" viewBox="0 0 24 24"><path d="M0.6,11.1l4.7,4.2l-1.3,5.9c-0.1,0.8,0.1,1.5,0.8,1.9c0.3,0.3,0.6,0.4,1,0.4c0.3,0,0.5,0,0.8-0.1c0,0,0.1,0,0.1-0.1l5.3-2.9l5.3,2.9c0,0,0.1,0,0.1,0.1c0.6,0.3,1.4,0.3,1.9-0.1c0.6-0.4,0.9-1.1,0.8-1.9l-1.3-5.9c0.5-0.4,1.3-1.1,2.1-1.9l2.5-2.2l0.1-0.1c0.5-0.5,0.6-1.3,0.4-1.9c-0.3-0.6-0.8-1.1-1.6-1.3h-0.1l-6.1-0.6l-2.5-5.5c0,0,0-0.1-0.1-0.1c-0.1-0.9-0.8-1.3-1.4-1.3s-1.3,0.4-1.7,1c0,0,0,0.1-0.1,0.1L7.8,7.1L1.7,7.8H1.6C1,7.9,0.3,8.4,0,9C-0.1,9.8,0,10.6,0.6,11.1z"/></symbol>
<symbol id="twrp-rat-ti-hf" viewBox="0 0 24 24"><path d="M0.6,11.1l4.7,4.2l-1.3,5.9c-0.1,0.8,0.1,1.5,0.8,1.9c0.3,0.3,0.6,0.4,1,0.4c0.3,0,0.5,0,0.8-0.1c0,0,0.1,0,0.1-0.1l5.3-2.9l5.3,2.9c0,0,0.1,0,0.1,0.1c0.6,0.3,1.4,0.3,1.9-0.1c0.6-0.4,0.9-1.1,0.8-1.9l-1.3-5.9c0.5-0.4,1.3-1.1,2.1-1.9l2.5-2.2l0.1-0.1c0.5-0.5,0.6-1.3,0.4-1.9c-0.3-0.6-0.8-1.1-1.6-1.3h-0.1l-6.1-0.6l-2.5-5.5c0,0,0-0.1-0.1-0.1c-0.1-0.9-0.8-1.3-1.4-1.3s-1.3,0.4-1.7,1c0,0,0,0.1-0.1,0.1L7.8,7.1L1.7,7.8H1.6C1,7.9,0.3,8.4,0,9C-0.1,9.8,0,10.6,0.6,11.1z M12.1,17.5V4.1l2.2,4.8c0.1,0.4,0.6,0.6,1,0.8l5.4,0.6l-4,3.6c-0.4,0.3-0.5,0.8-0.4,1.3c0,0.3,0.6,2.8,1,5.2l-4.7-2.7C12.5,17.5,12.3,17.5,12.1,17.5z"/></symbol>
<symbol id="twrp-rat-ti-ol" viewBox="0 0 24 24"><path d="M18.2,23.5c-0.3,0-0.6-0.1-0.8-0.2l-0.1-0.1l-5.3-3l-5.3,3l-0.1,0.1c-0.6,0.3-1.4,0.2-2-0.2c-0.6-0.4-0.9-1.2-0.8-1.9l1.2-6l-2.1-1.9l-2.4-2.2l-0.1-0.1C0,10.5-0.1,9.8,0.1,9.1C0.3,8.5,0.9,8,1.6,7.8l0.1,0l6-0.7l2.5-5.5l0.1-0.1c0.3-0.6,1-1,1.7-1c0.7,0,1.3,0.4,1.7,1l0.1,0.1l2.5,5.5l6,0.7l0.1,0c0.7,0.1,1.3,0.6,1.5,1.3c0.2,0.7,0,1.4-0.4,1.9l-0.1,0.1l-4.5,4.1l1.2,5.9c0.1,0.8-0.2,1.5-0.8,1.9C19,23.4,18.6,23.5,18.2,23.5z M7.8,15.1c-0.1,0.2-0.6,2.9-1.1,5.2l4.7-2.7c0.4-0.2,0.9-0.2,1.3,0l4.7,2.7l-1.1-5.3c-0.1-0.4,0.1-0.9,0.4-1.2l4-3.6l-5.3-0.6c-0.5-0.1-0.8-0.3-1-0.7L12,4L9.8,8.9c-0.2,0.4-0.6,0.7-1,0.7l-5.3,0.6l4,3.6C7.7,14.2,7.9,14.6,7.8,15.1z"/></symbol>
</svg>