<?xml version="1.0" encoding="UTF-8" standalone="no"?>
<!-- This file is generated dynamically. Do NOT modify it. -->
<svg xmlns="http://www.w3.org/2000/svg" xmlns:xlink="http://www.w3.org/1999/xlink" style="display:none;">
<symbol id="twrp-user-fa-f" viewBox="0 0 448 512"><path d="M224 256c70.7 0 128-57.3 128-128S294.7 0 224 0 96 57.3 96 128s57.3 128 128 128zm89.6 32h-16.7c-22.2 10.2-46.9 16-72.9 16s-50.6-5.8-72.9-16h-16.7C60.2 288 0 348.2 0 422.4V464c0 26.5 21.5 48 48 48h352c26.5 0 48-21.5 48-48v-41.6c0-74.2-60.2-134.4-134.4-134.4z"></path></symbol>
<symbol id="twrp-cal-fa-2-f" viewBox="0 0 448 512"><path d="M0 464c0 26.5 21.5 48 48 48h352c26.5 0 48-21.5 48-48V192H0v272zm320-196c0-6.6 5.4-12 12-12h40c6.6 0 12 5.4 12 12v40c0 6.6-5.4 12-12 12h-40c-6.6 0-12-5.4-12-12v-40zm0 128c0-6.6 5.4-12 12-12h40c6.6 0 12 5.4 12 12v40c0 6.6-5.4 12-12 12h-40c-6.6 0-12-5.4-12-12v-40zM192 268c0-6.6 5.4-12 12-12h40c6.6 0 12 5.4 12 12v40c0 6.6-5.4 12-12 12h-40c-6.6 0-12-5.4-12-12v-40zm0 128c0-6.6 5.4-12 12-12h40c6.6 0 12 5.4 12 12v40c0 6.6-5.4 12-12 12h-40c-6.6 0-12-5.4-12-12v-40zM64 268c0-6.6 5.4-12 12-12h40c6.6 0 12 5.4 12 12v40c0 6.6-5.4 12-12 12H76c-6.6 0-12-5.4-12-12v-40zm0 128c0-6.6 5.4-12 12-12h40c6.6 0 12 5.4 12 12v40c0 6.6-5.4 12-12 12H76c-6.6 0-12-5.4-12-12v-40zM400 64h-48V16c0-8.8-7.2-16-16-16h-32c-8.8 0-16 7.2-16 16v48H160V16c0-8.8-7.2-16-16-16h-32c-8.8 0-16 7.2-16 16v48H48C21.5 64 0 85.5 0 112v48h448v-48c0-26.5-21.5-48-48-48z"/></symbol>
<symbol id="twrp-tax-fa-t-f" viewBox="0 0 640 512"><path d="M497.941 225.941L286.059 14.059A48 48 0 0 0 252.118 0H48C21.49 0 0 21.49 0 48v204.118a48 48 0 0 0 14.059 33.941l211.882 211.882c18.744 18.745 49.136 18.746 67.882 0l204.118-204.118c18.745-18.745 18.745-49.137 0-67.882zM112 160c-26.51 0-48-21.49-48-48s21.49-48 48-48 48 21.49 48 48-21.49 48-48 48zm513.941 133.823L421.823 497.941c-18.745 18.745-49.137 18.745-67.882 0l-.36-.36L527.64 323.522c16.999-16.999 26.36-39.6 26.36-63.64s-9.362-46.641-26.36-63.64L331.397 0h48.721a48 48 0 0 1 33.941 14.059l211.882 211.882c18.745 18.745 18.745 49.137 0 67.882z"></path></symbol>
<symbol id="twrp-com-fa-dots-ol" viewBox="0 0 512 512"><path d="M144 208c-17.7 0-32 14.3-32 32s14.3 32 32 32 32-14.3 32-32-14.3-32-32-32zm112 0c-17.7 0-32 14.3-32 32s14.3 32 32 32 32-14.3 32-32-14.3-32-32-32zm112 0c-17.7 0-32 14.3-32 32s14.3 32 32 32 32-14.3 32-32-14.3-32-32-32zM256 32C114.6 32 0 125.1 0 240c0 47.6 19.9 91.2 52.9 126.3C38 405.7 7 439.1 6.5 439.5c-6.6 7-8.4 17.2-4.6 26S14.4 480 24 480c61.5 0 110-25.7 139.1-46.3C192 442.8 223.2 448 256 448c141.4 0 256-93.1 256-208S397.4 32 256 32zm0 368c-26.7 0-53.1-4.1-78.4-12.1l-22.7-7.2-19.5 13.8c-14.3 10.1-33.9 21.4-57.5 29 7.3-12.1 14.4-25.7 19.9-40.2l10.6-28.1-20.6-21.8C69.7 314.1 48 282.2 48 240c0-88.2 93.3-160 208-160s208 71.8 208 160-93.3 160-208 160z"></path></symbol>
<symbol id="twrp-dcom-twrp-c2-f" viewBox="0 0 100 100"><path d="M58.5,84c-2.8,0.5-5.6,0.7-8.5,0.7c-6.5,0-12.7-1.2-18.2-3.4c-4.2,3.5-11.2,7.3-22.4,7.3c-0.5,0-1-0.3-1.2-0.8c-0.2-0.5-0.1-1.1,0.2-1.5c0.1-0.1,5.7-6.2,7.9-15.1c-6-6.3-9.7-14.3-9.7-23c0-4.6,1-9.1,2.9-13.2L58.5,84z"/><path d="M98.8,96L96,98.8c-1.6,1.6-4.1,1.6-5.7,0L1.2,9.7c-1.6-1.6-1.6-4.1,0-5.7L4,1.2c1.6-1.6,4.1-1.6,5.6,0L26,17.5c6.9-3.8,15.1-6,24-6c24,0,43.5,16.4,43.5,36.6c0,9.7-4.5,18.5-11.8,25.1l17.2,17.2C100.4,91.9,100.4,94.4,98.8,96z"/></symbol>
<symbol id="twrp-views-fa-f" viewBox="0 0 576 512"><path d="M572.52 241.4C518.29 135.59 410.93 64 288 64S57.68 135.64 3.48 241.41a32.35 32.35 0 0 0 0 29.19C57.71 376.41 165.07 448 288 448s230.32-71.64 284.52-177.41a32.35 32.35 0 0 0 0-29.19zM288 400a144 144 0 1 1 144-144 143.93 143.93 0 0 1-144 144zm0-240a95.31 95.31 0 0 0-25.31 3.79 47.85 47.85 0 0 1-66.9 66.9A95.78 95.78 0 1 0 288 160z"></path></symbol>
<symbol id="twrp-rat-fa-f" viewBox="0 0 535 512"><path d="M238.8,17.8l-65.3,132.4L27.4,171.5c-26.2,3.8-36.7,36.1-17.7,54.6l105.7,103l-25,145.5c-4.5,26.3,23.2,46,46.4,33.7l130.7-68.7l130.7,68.7c23.2,12.2,50.9-7.4,46.4-33.7l-25-145.5l105.7-103c19-18.5,8.5-50.8-17.7-54.6l-146.1-21.3L296.2,17.8C284.5-5.8,250.6-6.1,238.8,17.8L238.8,17.8z"/></symbol>
<symbol id="twrp-rat-fa-hf" viewBox="0 0 536 512"><path d="M508.6,171.5l-146.4-21.3L296.8,17.8C290.9,6,279.4,0,268,0c-11.4,0-22.8,5.9-28.7,17.8l-65.4,132.4L27.5,171.5c-26.3,3.8-36.8,36.1-17.7,54.6l105.9,103L90.5,474.5c-3.6,20.8,13,37.5,31.6,37.5c4.9,0,10-1.2,14.9-3.8L268,439.6l130.9,68.7c4.9,2.5,9.9,3.7,14.8,3.7c18.6,0,35.2-16.6,31.7-37.4l-25-145.5l105.9-103C545.3,207.6,534.8,175.3,508.6,171.5L508.6,171.5z M386.8,294.7l-18.1,17.6l4.3,24.9l19.5,113.4l-102.1-53.6L268,385.3l0-317.2l51,103.3l11.2,22.6l25,3.6l114.2,16.6L386.8,294.7z"/></symbol>
<symbol id="twrp-rat-fa-ol" viewBox="0 0 535 512"><path d="M507.6,171.5l-146.1-21.3L296.2,17.8c-11.7-23.6-45.6-23.9-57.4,0l-65.3,132.4L27.4,171.5c-26.2,3.8-36.7,36.1-17.7,54.6l105.7,103l-25,145.5c-4.5,26.3,23.2,46,46.4,33.7l130.7-68.7l130.7,68.7c23.2,12.2,50.9-7.4,46.4-33.7l-25-145.5l105.7-103C544.3,207.6,533.8,175.3,507.6,171.5L507.6,171.5z M368.1,312.3l23.7,138.4l-124.3-65.3l-124.3,65.3l23.7-138.4l-100.6-98l139-20.2l62.2-126l62.2,126l139,20.2L368.1,312.3L368.1,312.3z"/></symbol>
</svg>