<svg id="twrp-cal-ii-f" xmlns="http://www.w3.org/2000/svg" viewBox="0 0 512 512"><path d="M423.8,54H407V37.7c0-9-7-16.8-16.2-17.3c-9.4-0.4-17.3,6.7-17.8,16c0,0.3,0,0.5,0,0.8V54H139V37.7c0-9-7-16.8-16.2-17.3c-9.4-0.4-17.3,6.7-17.8,16c0,0.3,0,0.5,0,0.8V54H88.2C51.1,54,21,84.1,21,121.2v302.6c0,37.1,30.1,67.2,67.2,67.2h335.6c37.1,0,67.2-30.1,67.2-67.2V121.2C491,84.1,460.9,54,423.8,54z M130,424c-13.9,0-25.2-11.3-25.2-25.2c0-13.9,11.3-25.2,25.2-25.2s25.2,11.3,25.2,25.2C155.2,412.7,143.9,424,130,424z M130,340c-13.9,0-25.2-11.3-25.2-25.2c0-13.9,11.3-25.2,25.2-25.2s25.2,11.3,25.2,25.2C155.2,328.7,143.9,340,130,340z M214,424c-13.9,0-25.2-11.3-25.2-25.2c0-13.9,11.3-25.2,25.2-25.2s25.2,11.3,25.2,25.2C239.2,412.7,227.9,424,214,424z M214,340c-13.9,0-25.2-11.3-25.2-25.2c0-13.9,11.3-25.2,25.2-25.2s25.2,11.3,25.2,25.2C239.2,328.7,227.9,340,214,340z M298,424c-13.9,0-25.2-11.3-25.2-25.2c0-13.9,11.3-25.2,25.2-25.2s25.2,11.3,25.2,25.2C323.2,412.7,311.9,424,298,424z M298,340c-13.9,0-25.2-11.3-25.2-25.2c0-13.9,11.3-25.2,25.2-25.2s25.2,11.3,25.2,25.2C323.2,328.7,311.9,340,298,340z M298,256c-13.9,0-25.2-11.3-25.2-25.2s11.3-25.2,25.2-25.2s25.2,11.3,25.2,25.2S311.9,256,298,256L298,256z M382,340c-13.9,0-25.2-11.3-25.2-25.2c0-13.9,11.3-25.2,25.2-25.2s25.2,11.3,25.2,25.2C407.2,328.7,395.9,340,382,340z M382,256c-13.9,0-25.2-11.3-25.2-25.2s11.3-25.2,25.2-25.2s25.2,11.3,25.2,25.2S395.9,256,382,256L382,256z M457,129.9v16.7c0,4.6-3.8,8.4-8.4,8.4H62.4c-4.6,0-8.4-3.8-8.4-8.4v-25.1C54.1,103,69.1,88.1,87.6,88h335.8c18.5,0.1,33.5,15,33.6,33.5V129.9z"/></svg>
