<svg id="twrp-cal-ii-ol" xmlns="http://www.w3.org/2000/svg" viewBox="0 0 512 512"><path style="fill:none;stroke:currentColor;stroke-width:32;stroke-linejoin:round;" d="M87.4,71h336.2c27.8,0,50.4,22.6,50.4,50.4v302.2c0,27.8-22.6,50.4-50.4,50.4H87.4C59.6,474,37,451.4,37,423.6V121.4C37,93.6,59.6,71,87.4,71z"/><path d="M404.5,71h-298C68.2,71,37,102.6,37,141.3V205h16.8c0-16.5,16.8-33,33.6-33h336c16.8,0,33.6,16.5,33.6,33h17v-63.7C474,102.6,442.8,71,404.5,71z"/><circle cx="298" cy="230.8" r="25.2"/><circle cx="382" cy="230.8" r="25.2"/><circle cx="298" cy="314.8" r="25.2"/><circle cx="382" cy="314.8" r="25.2"/><circle cx="130" cy="314.8" r="25.2"/><circle cx="214" cy="314.8" r="25.2"/><circle cx="130" cy="398.8" r="25.2"/><circle cx="214" cy="398.8" r="25.2"/><circle cx="298" cy="398.8" r="25.2"/><line style="fill:none;stroke:currentColor;stroke-width:32;stroke-linecap:round;stroke-linejoin:round;" x1="122" y1="38" x2="122" y2="71"/><line style="fill:none;stroke:currentColor;stroke-width:32;stroke-linecap:round;stroke-linejoin:round;" x1="390" y1="38" x2="390" y2="71"/></svg>
