<svg id="twrp-cal-ii-sh" viewBox="0 0 512 512"><path d="M277.2,206h41.6c2.3,0,4.2,1.9,4.2,4.2v41.6c0,2.3-1.9,4.2-4.2,4.2h-41.6c-2.3,0-4.2-1.9-4.2-4.2v-41.6C273,207.9,274.9,206,277.2,206z"/><path d="M361.2,206h41.6c2.3,0,4.2,1.9,4.2,4.2v41.6c0,2.3-1.9,4.2-4.2,4.2h-41.6c-2.3,0-4.2-1.9-4.2-4.2v-41.6C357,207.9,358.9,206,361.2,206z"/><path d="M277.2,290h41.6c2.3,0,4.2,1.9,4.2,4.2v41.6c0,2.3-1.9,4.2-4.2,4.2h-41.6c-2.3,0-4.2-1.9-4.2-4.2v-41.6C273,291.9,274.9,290,277.2,290z"/><path d="M361.2,290h41.6c2.3,0,4.2,1.9,4.2,4.2v41.6c0,2.3-1.9,4.2-4.2,4.2h-41.6c-2.3,0-4.2-1.9-4.2-4.2v-41.6C357,291.9,358.9,290,361.2,290z"/><path d="M109.2,290h41.6c2.3,0,4.2,1.9,4.2,4.2v41.6c0,2.3-1.9,4.2-4.2,4.2h-41.6c-2.3,0-4.2-1.9-4.2-4.2v-41.6C105,291.9,106.9,290,109.2,290z"/><path d="M193.2,290h41.6c2.3,0,4.2,1.9,4.2,4.2v41.6c0,2.3-1.9,4.2-4.2,4.2h-41.6c-2.3,0-4.2-1.9-4.2-4.2v-41.6C189,291.9,190.9,290,193.2,290z"/><path d="M109.2,374h41.6c2.3,0,4.2,1.9,4.2,4.2v41.6c0,2.3-1.9,4.2-4.2,4.2h-41.6c-2.3,0-4.2-1.9-4.2-4.2v-41.6C105,375.9,106.9,374,109.2,374z"/><path d="M193.2,374h41.6c2.3,0,4.2,1.9,4.2,4.2v41.6c0,2.3-1.9,4.2-4.2,4.2h-41.6c-2.3,0-4.2-1.9-4.2-4.2v-41.6C189,375.9,190.9,374,193.2,374z"/><path d="M277.2,374h41.6c2.3,0,4.2,1.9,4.2,4.2v41.6c0,2.3-1.9,4.2-4.2,4.2h-41.6c-2.3,0-4.2-1.9-4.2-4.2v-41.6C273,375.9,274.9,374,277.2,374z"/><path d="M457.4,55H407V21h-42v34H147V21h-42v34H54.6C36,55,21,70,21,88.6v368.8C21,476,36,491,54.6,491h402.8c18.6,0,33.6-15,33.6-33.6V88.6C491,70,476,55,457.4,55z M445,445H67V172h378V445z"/></svg>
