<?xml version="1.0" encoding="UTF-8" standalone="no"?><svg xmlns="http://www.w3.org/2000/svg" xmlns:xlink="http://www.w3.org/1999/xlink" contentScriptType="application/ecmascript" contentStyleType="text/css" height="825px" preserveAspectRatio="none" style="width:3079px;height:825px;background:#222222;" version="1.1" viewBox="0 0 3079 825" width="3079px" zoomAndPan="magnify"><defs><linearGradient id="gkvo6b8l972c60" x1="0%" x2="100%" y1="0%" y2="100%"><stop offset="0%" stop-color="#004B00"/><stop offset="100%" stop-color="#003B00"/></linearGradient><linearGradient id="gkvo6b8l972c61" x1="0%" x2="100%" y1="0%" y2="100%"><stop offset="0%" stop-color="#5D0000"/><stop offset="100%" stop-color="#4D0000"/></linearGradient></defs><g><!--MD5=[edf173e897bc9356416944c5fed9afdd]
cluster TWRP\Admin - - The backend of the website--><rect fill="#2C2C2C" height="812" style="stroke:#111111;stroke-width:1.5;" width="3066" x="7" y="7"/><text fill="#EEEEEE" font-family="sans-serif" font-size="14" font-weight="bold" lengthAdjust="spacing" textLength="343" x="1368.5" y="23.9951">TWRP\Admin -- The backend of the website</text><!--MD5=[7fbddded92a143b6ad08e96944e7313c]
cluster TWRP\Admin\Helpers--><rect fill="#2C2C2C" height="103" style="stroke:#111111;stroke-width:1.5;" width="185" x="2880" y="39.5"/><text fill="#EEEEEE" font-family="sans-serif" font-size="14" font-weight="bold" lengthAdjust="spacing" textLength="165" x="2890" y="56.4951">TWRP\Admin\Helpers</text><!--MD5=[4c54862f7c3f855ecae508bd42a8d7eb]
cluster TWRP\Admin\Widget_Control--><rect fill="#2C2C2C" height="233" style="stroke:#111111;stroke-width:1.5;" width="773" x="2099" y="38"/><text fill="#EEEEEE" font-family="sans-serif" font-size="14" font-weight="bold" lengthAdjust="spacing" textLength="224" x="2373.5" y="54.9951">TWRP\Admin\Widget_Control</text><!--MD5=[0d3367408421cacbbbf01906b0cc8e4e]
cluster TWRP\Admin\Tabs--><rect fill="#2C2C2C" height="646" style="stroke:#111111;stroke-width:1.5;" width="2076" x="15" y="165"/><text fill="#EEEEEE" font-family="sans-serif" font-size="14" font-weight="bold" lengthAdjust="spacing" textLength="142" x="982" y="181.9951">TWRP\Admin\Tabs</text><!--MD5=[6a458880608256c85dbd90a39ef2109d]
cluster TWRP\Admin\Tabs\Documentation--><rect fill="#2C2C2C" height="103" style="stroke:#111111;stroke-width:1.5;" width="415" x="23" y="435.5"/><text fill="#EEEEEE" font-family="sans-serif" font-size="14" font-weight="bold" lengthAdjust="spacing" textLength="266" x="97.5" y="452.4951">TWRP\Admin\Tabs\Documentation</text><!--MD5=[c215e39dbad3337025b8fa23567c765e]
cluster TWRP\Admin\Tabs\General_Settings--><rect fill="#2C2C2C" height="384" style="stroke:#111111;stroke-width:1.5;" width="971" x="446" y="419"/><text fill="#EEEEEE" font-family="sans-serif" font-size="14" font-weight="bold" lengthAdjust="spacing" textLength="281" x="791" y="435.9951">TWRP\Admin\Tabs\General_Settings</text><!--MD5=[ca3ca2953491e9b8ebbe5eac8e2abf95]
cluster TWRP\Admin\Tabs\Query_Options--><rect fill="#2C2C2C" height="243.5" style="stroke:#111111;stroke-width:1.5;" width="658" x="1425" y="435.5"/><text fill="#EEEEEE" font-family="sans-serif" font-size="14" font-weight="bold" lengthAdjust="spacing" textLength="263" x="1622.5" y="452.4951">TWRP\Admin\Tabs\Query_Options</text><!--MD5=[8e276117ea87ca274e65ba56c368b898]
class Settings_Menu--><rect codeLine="41" fill="url(#gkvo6b8l972c60)" height="66.5938" id="Settings_Menu" style="stroke:#111111;stroke-width:1.5;" width="147" x="692.5" y="69"/><ellipse cx="706.5" cy="94.2969" fill="#ADD1B2" rx="10" ry="10" style="stroke:#111111;stroke-width:1.0;"/><path d="M708.8906,99.875 Q708.2813,100.2031 707.6406,100.3594 Q707.0156,100.5313 706.3125,100.5313 Q704.0625,100.5313 702.8281,98.9375 Q701.5938,97.3438 701.5938,94.4688 Q701.5938,91.6094 702.8281,90.0156 Q704.0781,88.4219 706.3125,88.4219 Q707.0156,88.4219 707.6406,88.5781 Q708.2813,88.7344 708.8906,89.0625 L708.8906,90.6719 Q708.3125,90.2031 707.6406,89.9531 Q706.9844,89.7031 706.3125,89.7031 Q704.7656,89.7031 704,90.8906 Q703.2344,92.0781 703.2344,94.4688 Q703.2344,96.8594 704,98.0469 Q704.7656,99.2344 706.3125,99.2344 Q707,99.2344 707.6563,98.9844 Q708.3125,98.7344 708.8906,98.2656 L708.8906,99.875 Z " fill="#000000"/><text fill="#EEEEEE" font-family="sans-serif" font-size="12" font-style="italic" lengthAdjust="spacing" textLength="87" x="734.5" y="87.1387">«public class»</text><text fill="#EEEEEE" font-family="sans-serif" font-size="16" lengthAdjust="spacing" textLength="113" x="721.5" y="108.8203">Settings_Menu</text><line style="stroke:#111111;stroke-width:1.5;" x1="693.5" x2="838.5" y1="119.5938" y2="119.5938"/><line style="stroke:#111111;stroke-width:1.5;" x1="693.5" x2="838.5" y1="127.5938" y2="127.5938"/><!--MD5=[754c1fb5bb7687394bf4c2a3220ac8b1]
class Remember_Note--><rect codeLine="44" fill="url(#gkvo6b8l972c61)" height="64.2656" id="Remember_Note" style="stroke:#111111;stroke-width:1.5;" width="151" x="2896.5" y="70.5"/><ellipse cx="2910.5" cy="94.6328" fill="#ADD1B2" rx="10" ry="10" style="stroke:#111111;stroke-width:1.0;"/><path d="M2912.8906,100.2109 Q2912.2813,100.5391 2911.6406,100.6953 Q2911.0156,100.8672 2910.3125,100.8672 Q2908.0625,100.8672 2906.8281,99.2734 Q2905.5938,97.6797 2905.5938,94.8047 Q2905.5938,91.9453 2906.8281,90.3516 Q2908.0781,88.7578 2910.3125,88.7578 Q2911.0156,88.7578 2911.6406,88.9141 Q2912.2813,89.0703 2912.8906,89.3984 L2912.8906,91.0078 Q2912.3125,90.5391 2911.6406,90.2891 Q2910.9844,90.0391 2910.3125,90.0391 Q2908.7656,90.0391 2908,91.2266 Q2907.2344,92.4141 2907.2344,94.8047 Q2907.2344,97.1953 2908,98.3828 Q2908.7656,99.5703 2910.3125,99.5703 Q2911,99.5703 2911.6563,99.3203 Q2912.3125,99.0703 2912.8906,98.6016 L2912.8906,100.2109 Z " fill="#000000"/><text fill="#EEEEEE" font-family="sans-serif" font-size="12" font-style="italic" lengthAdjust="spacing" textLength="93" x="2937.5" y="88.6387">«private class»</text><text fill="#EEEEEE" font-family="sans-serif" font-size="14" lengthAdjust="spacing" textLength="117" x="2925.5" y="108.4639">Remember_Note</text><line style="stroke:#111111;stroke-width:1.5;" x1="2897.5" x2="3046.5" y1="118.7656" y2="118.7656"/><line style="stroke:#111111;stroke-width:1.5;" x1="2897.5" x2="3046.5" y1="126.7656" y2="126.7656"/><!--MD5=[60f3908bc5dd052ee43ffaafc4592e33]
class Widget_Control--><rect codeLine="48" fill="url(#gkvo6b8l972c60)" height="66.5938" id="Widget_Control" style="stroke:#111111;stroke-width:1.5;" width="154" x="2385" y="69"/><ellipse cx="2399" cy="94.2969" fill="#A9DCDF" rx="10" ry="10" style="stroke:#111111;stroke-width:1.0;"/><path d="M2398.8125,89.5156 L2397.1563,95.4844 L2400.4844,95.4844 L2398.8125,89.5156 Z M2397.8594,88.125 L2399.7813,88.125 L2403.3438,99.7969 L2401.7188,99.7969 L2400.8594,96.75 L2396.7656,96.75 L2395.9219,99.7969 L2394.2969,99.7969 L2397.8594,88.125 Z " fill="#000000"/><text fill="#EEEEEE" font-family="sans-serif" font-size="12" font-style="italic" lengthAdjust="spacing" textLength="87" x="2430.5" y="87.1387">«public class»</text><text fill="#EEEEEE" font-family="sans-serif" font-size="16" font-style="italic" lengthAdjust="spacing" textLength="120" x="2414" y="108.8203">Widget_Control</text><line style="stroke:#111111;stroke-width:1.5;" x1="2386" x2="2538" y1="119.5938" y2="119.5938"/><line style="stroke:#111111;stroke-width:1.5;" x1="2386" x2="2538" y1="127.5938" y2="127.5938"/><!--MD5=[5d26c2a5818dc804a1d52e682027e370]
class Select_Control--><rect codeLine="49" fill="url(#gkvo6b8l972c60)" height="66.5938" id="Select_Control" style="stroke:#111111;stroke-width:1.5;" width="145" x="2107.5" y="196"/><ellipse cx="2121.5" cy="221.2969" fill="#ADD1B2" rx="10" ry="10" style="stroke:#111111;stroke-width:1.0;"/><path d="M2123.8906,226.875 Q2123.2813,227.2031 2122.6406,227.3594 Q2122.0156,227.5313 2121.3125,227.5313 Q2119.0625,227.5313 2117.8281,225.9375 Q2116.5938,224.3438 2116.5938,221.4688 Q2116.5938,218.6094 2117.8281,217.0156 Q2119.0781,215.4219 2121.3125,215.4219 Q2122.0156,215.4219 2122.6406,215.5781 Q2123.2813,215.7344 2123.8906,216.0625 L2123.8906,217.6719 Q2123.3125,217.2031 2122.6406,216.9531 Q2121.9844,216.7031 2121.3125,216.7031 Q2119.7656,216.7031 2119,217.8906 Q2118.2344,219.0781 2118.2344,221.4688 Q2118.2344,223.8594 2119,225.0469 Q2119.7656,226.2344 2121.3125,226.2344 Q2122,226.2344 2122.6563,225.9844 Q2123.3125,225.7344 2123.8906,225.2656 L2123.8906,226.875 Z " fill="#000000"/><text fill="#EEEEEE" font-family="sans-serif" font-size="12" font-style="italic" lengthAdjust="spacing" textLength="87" x="2148.5" y="214.1387">«public class»</text><text fill="#EEEEEE" font-family="sans-serif" font-size="16" lengthAdjust="spacing" textLength="111" x="2136.5" y="235.8203">Select_Control</text><line style="stroke:#111111;stroke-width:1.5;" x1="2108.5" x2="2251.5" y1="246.5938" y2="246.5938"/><line style="stroke:#111111;stroke-width:1.5;" x1="2108.5" x2="2251.5" y1="254.5938" y2="254.5938"/><!--MD5=[7e1d84a14e08744bb11bbd42f070a8d4]
class Number_Control--><rect codeLine="50" fill="url(#gkvo6b8l972c60)" height="66.5938" id="Number_Control" style="stroke:#111111;stroke-width:1.5;" width="162" x="2288" y="196"/><ellipse cx="2302" cy="221.2969" fill="#ADD1B2" rx="10" ry="10" style="stroke:#111111;stroke-width:1.0;"/><path d="M2304.3906,226.875 Q2303.7813,227.2031 2303.1406,227.3594 Q2302.5156,227.5313 2301.8125,227.5313 Q2299.5625,227.5313 2298.3281,225.9375 Q2297.0938,224.3438 2297.0938,221.4688 Q2297.0938,218.6094 2298.3281,217.0156 Q2299.5781,215.4219 2301.8125,215.4219 Q2302.5156,215.4219 2303.1406,215.5781 Q2303.7813,215.7344 2304.3906,216.0625 L2304.3906,217.6719 Q2303.8125,217.2031 2303.1406,216.9531 Q2302.4844,216.7031 2301.8125,216.7031 Q2300.2656,216.7031 2299.5,217.8906 Q2298.7344,219.0781 2298.7344,221.4688 Q2298.7344,223.8594 2299.5,225.0469 Q2300.2656,226.2344 2301.8125,226.2344 Q2302.5,226.2344 2303.1563,225.9844 Q2303.8125,225.7344 2304.3906,225.2656 L2304.3906,226.875 Z " fill="#000000"/><text fill="#EEEEEE" font-family="sans-serif" font-size="12" font-style="italic" lengthAdjust="spacing" textLength="87" x="2337.5" y="214.1387">«public class»</text><text fill="#EEEEEE" font-family="sans-serif" font-size="16" lengthAdjust="spacing" textLength="128" x="2317" y="235.8203">Number_Control</text><line style="stroke:#111111;stroke-width:1.5;" x1="2289" x2="2449" y1="246.5938" y2="246.5938"/><line style="stroke:#111111;stroke-width:1.5;" x1="2289" x2="2449" y1="254.5938" y2="254.5938"/><!--MD5=[103b45f8ac1415515f79641623265a5f]
class Color_Control--><rect codeLine="51" fill="url(#gkvo6b8l972c60)" height="66.5938" id="Color_Control" style="stroke:#111111;stroke-width:1.5;" width="140" x="2485" y="196"/><ellipse cx="2499" cy="221.2969" fill="#ADD1B2" rx="10" ry="10" style="stroke:#111111;stroke-width:1.0;"/><path d="M2501.3906,226.875 Q2500.7813,227.2031 2500.1406,227.3594 Q2499.5156,227.5313 2498.8125,227.5313 Q2496.5625,227.5313 2495.3281,225.9375 Q2494.0938,224.3438 2494.0938,221.4688 Q2494.0938,218.6094 2495.3281,217.0156 Q2496.5781,215.4219 2498.8125,215.4219 Q2499.5156,215.4219 2500.1406,215.5781 Q2500.7813,215.7344 2501.3906,216.0625 L2501.3906,217.6719 Q2500.8125,217.2031 2500.1406,216.9531 Q2499.4844,216.7031 2498.8125,216.7031 Q2497.2656,216.7031 2496.5,217.8906 Q2495.7344,219.0781 2495.7344,221.4688 Q2495.7344,223.8594 2496.5,225.0469 Q2497.2656,226.2344 2498.8125,226.2344 Q2499.5,226.2344 2500.1563,225.9844 Q2500.8125,225.7344 2501.3906,225.2656 L2501.3906,226.875 Z " fill="#000000"/><text fill="#EEEEEE" font-family="sans-serif" font-size="12" font-style="italic" lengthAdjust="spacing" textLength="87" x="2523.5" y="214.1387">«public class»</text><text fill="#EEEEEE" font-family="sans-serif" font-size="16" lengthAdjust="spacing" textLength="106" x="2514" y="235.8203">Color_Control</text><line style="stroke:#111111;stroke-width:1.5;" x1="2486" x2="2624" y1="246.5938" y2="246.5938"/><line style="stroke:#111111;stroke-width:1.5;" x1="2486" x2="2624" y1="254.5938" y2="254.5938"/><!--MD5=[43f66ae41eba1b4d3dd3978e8768c126]
class Other_Similar_Classes--><rect codeLine="52" fill="url(#gkvo6b8l972c60)" height="66.5938" id="Other_Similar_Classes" style="stroke:#111111;stroke-width:1.5;" width="204" x="2660" y="196"/><ellipse cx="2674" cy="221.2969" fill="#ADD1B2" rx="10" ry="10" style="stroke:#111111;stroke-width:1.0;"/><path d="M2676.3906,226.875 Q2675.7813,227.2031 2675.1406,227.3594 Q2674.5156,227.5313 2673.8125,227.5313 Q2671.5625,227.5313 2670.3281,225.9375 Q2669.0938,224.3438 2669.0938,221.4688 Q2669.0938,218.6094 2670.3281,217.0156 Q2671.5781,215.4219 2673.8125,215.4219 Q2674.5156,215.4219 2675.1406,215.5781 Q2675.7813,215.7344 2676.3906,216.0625 L2676.3906,217.6719 Q2675.8125,217.2031 2675.1406,216.9531 Q2674.4844,216.7031 2673.8125,216.7031 Q2672.2656,216.7031 2671.5,217.8906 Q2670.7344,219.0781 2670.7344,221.4688 Q2670.7344,223.8594 2671.5,225.0469 Q2672.2656,226.2344 2673.8125,226.2344 Q2674.5,226.2344 2675.1563,225.9844 Q2675.8125,225.7344 2676.3906,225.2656 L2676.3906,226.875 Z " fill="#000000"/><text fill="#EEEEEE" font-family="sans-serif" font-size="12" font-style="italic" lengthAdjust="spacing" textLength="87" x="2730.5" y="214.1387">«public class»</text><text fill="#EEEEEE" font-family="sans-serif" font-size="16" lengthAdjust="spacing" textLength="170" x="2689" y="235.8203">Other_Similar_Classes</text><line style="stroke:#111111;stroke-width:1.5;" x1="2661" x2="2863" y1="246.5938" y2="246.5938"/><line style="stroke:#111111;stroke-width:1.5;" x1="2661" x2="2863" y1="254.5938" y2="254.5938"/><!--MD5=[3d9c32902900fd32431db491b51cda0d]
class Admin_Menu_Tab--><rect codeLine="56" fill="url(#gkvo6b8l972c60)" height="66.5938" id="Admin_Menu_Tab" style="stroke:#111111;stroke-width:1.5;" width="169" x="681.5" y="196"/><ellipse cx="695.5" cy="221.2969" fill="#A9DCDF" rx="10" ry="10" style="stroke:#111111;stroke-width:1.0;"/><path d="M695.3125,216.5156 L693.6563,222.4844 L696.9844,222.4844 L695.3125,216.5156 Z M694.3594,215.125 L696.2813,215.125 L699.8438,226.7969 L698.2188,226.7969 L697.3594,223.75 L693.2656,223.75 L692.4219,226.7969 L690.7969,226.7969 L694.3594,215.125 Z " fill="#000000"/><text fill="#EEEEEE" font-family="sans-serif" font-size="12" font-style="italic" lengthAdjust="spacing" textLength="87" x="734.5" y="214.1387">«public class»</text><text fill="#EEEEEE" font-family="sans-serif" font-size="16" font-style="italic" lengthAdjust="spacing" textLength="135" x="710.5" y="235.8203">Admin_Menu_Tab</text><line style="stroke:#111111;stroke-width:1.5;" x1="682.5" x2="849.5" y1="246.5938" y2="246.5938"/><line style="stroke:#111111;stroke-width:1.5;" x1="682.5" x2="849.5" y1="254.5938" y2="254.5938"/><!--MD5=[349e6a18946b157a7b3024fe5550fe62]
class Documentation_Tab--><rect codeLine="57" fill="url(#gkvo6b8l972c60)" height="66.5938" id="Documentation_Tab" style="stroke:#111111;stroke-width:1.5;" width="189" x="388.5" y="323"/><ellipse cx="402.5" cy="348.2969" fill="#ADD1B2" rx="10" ry="10" style="stroke:#111111;stroke-width:1.0;"/><path d="M404.8906,353.875 Q404.2813,354.2031 403.6406,354.3594 Q403.0156,354.5313 402.3125,354.5313 Q400.0625,354.5313 398.8281,352.9375 Q397.5938,351.3438 397.5938,348.4688 Q397.5938,345.6094 398.8281,344.0156 Q400.0781,342.4219 402.3125,342.4219 Q403.0156,342.4219 403.6406,342.5781 Q404.2813,342.7344 404.8906,343.0625 L404.8906,344.6719 Q404.3125,344.2031 403.6406,343.9531 Q402.9844,343.7031 402.3125,343.7031 Q400.7656,343.7031 400,344.8906 Q399.2344,346.0781 399.2344,348.4688 Q399.2344,350.8594 400,352.0469 Q400.7656,353.2344 402.3125,353.2344 Q403,353.2344 403.6563,352.9844 Q404.3125,352.7344 404.8906,352.2656 L404.8906,353.875 Z " fill="#000000"/><text fill="#EEEEEE" font-family="sans-serif" font-size="12" font-style="italic" lengthAdjust="spacing" textLength="87" x="451.5" y="341.1387">«public class»</text><text fill="#EEEEEE" font-family="sans-serif" font-size="16" lengthAdjust="spacing" textLength="155" x="417.5" y="362.8203">Documentation_Tab</text><line style="stroke:#111111;stroke-width:1.5;" x1="389.5" x2="576.5" y1="373.5938" y2="373.5938"/><line style="stroke:#111111;stroke-width:1.5;" x1="389.5" x2="576.5" y1="381.5938" y2="381.5938"/><!--MD5=[06646ad14c5d7cf88216c241f8b261ff]
class General_Settings_Tab--><rect codeLine="58" fill="url(#gkvo6b8l972c60)" height="66.5938" id="General_Settings_Tab" style="stroke:#111111;stroke-width:1.5;" width="200" x="666" y="323"/><ellipse cx="680" cy="348.2969" fill="#ADD1B2" rx="10" ry="10" style="stroke:#111111;stroke-width:1.0;"/><path d="M682.3906,353.875 Q681.7813,354.2031 681.1406,354.3594 Q680.5156,354.5313 679.8125,354.5313 Q677.5625,354.5313 676.3281,352.9375 Q675.0938,351.3438 675.0938,348.4688 Q675.0938,345.6094 676.3281,344.0156 Q677.5781,342.4219 679.8125,342.4219 Q680.5156,342.4219 681.1406,342.5781 Q681.7813,342.7344 682.3906,343.0625 L682.3906,344.6719 Q681.8125,344.2031 681.1406,343.9531 Q680.4844,343.7031 679.8125,343.7031 Q678.2656,343.7031 677.5,344.8906 Q676.7344,346.0781 676.7344,348.4688 Q676.7344,350.8594 677.5,352.0469 Q678.2656,353.2344 679.8125,353.2344 Q680.5,353.2344 681.1563,352.9844 Q681.8125,352.7344 682.3906,352.2656 L682.3906,353.875 Z " fill="#000000"/><text fill="#EEEEEE" font-family="sans-serif" font-size="12" font-style="italic" lengthAdjust="spacing" textLength="87" x="734.5" y="341.1387">«public class»</text><text fill="#EEEEEE" font-family="sans-serif" font-size="16" lengthAdjust="spacing" textLength="166" x="695" y="362.8203">General_Settings_Tab</text><line style="stroke:#111111;stroke-width:1.5;" x1="667" x2="865" y1="373.5938" y2="373.5938"/><line style="stroke:#111111;stroke-width:1.5;" x1="667" x2="865" y1="381.5938" y2="381.5938"/><!--MD5=[7f354880817d1341540e33fbbd728f70]
class Queries_Tab--><rect codeLine="59" fill="url(#gkvo6b8l972c60)" height="66.5938" id="Queries_Tab" style="stroke:#111111;stroke-width:1.5;" width="130" x="1427" y="323"/><ellipse cx="1441" cy="348.2969" fill="#ADD1B2" rx="10" ry="10" style="stroke:#111111;stroke-width:1.0;"/><path d="M1443.3906,353.875 Q1442.7813,354.2031 1442.1406,354.3594 Q1441.5156,354.5313 1440.8125,354.5313 Q1438.5625,354.5313 1437.3281,352.9375 Q1436.0938,351.3438 1436.0938,348.4688 Q1436.0938,345.6094 1437.3281,344.0156 Q1438.5781,342.4219 1440.8125,342.4219 Q1441.5156,342.4219 1442.1406,342.5781 Q1442.7813,342.7344 1443.3906,343.0625 L1443.3906,344.6719 Q1442.8125,344.2031 1442.1406,343.9531 Q1441.4844,343.7031 1440.8125,343.7031 Q1439.2656,343.7031 1438.5,344.8906 Q1437.7344,346.0781 1437.7344,348.4688 Q1437.7344,350.8594 1438.5,352.0469 Q1439.2656,353.2344 1440.8125,353.2344 Q1441.5,353.2344 1442.1563,352.9844 Q1442.8125,352.7344 1443.3906,352.2656 L1443.3906,353.875 Z " fill="#000000"/><text fill="#EEEEEE" font-family="sans-serif" font-size="12" font-style="italic" lengthAdjust="spacing" textLength="87" x="1460.5" y="341.1387">«public class»</text><text fill="#EEEEEE" font-family="sans-serif" font-size="16" lengthAdjust="spacing" textLength="96" x="1456" y="362.8203">Queries_Tab</text><line style="stroke:#111111;stroke-width:1.5;" x1="1428" x2="1556" y1="373.5938" y2="373.5938"/><line style="stroke:#111111;stroke-width:1.5;" x1="1428" x2="1556" y1="381.5938" y2="381.5938"/><!--MD5=[cf45b9a2cf90d6da1d94ada3b5c51c01]
class Icons_Documentation--><rect codeLine="62" fill="url(#gkvo6b8l972c61)" height="64.2656" id="Icons_Documentation" style="stroke:#111111;stroke-width:1.5;" width="185" x="209.5" y="466.5"/><ellipse cx="223.5" cy="490.6328" fill="#ADD1B2" rx="10" ry="10" style="stroke:#111111;stroke-width:1.0;"/><path d="M225.8906,496.2109 Q225.2813,496.5391 224.6406,496.6953 Q224.0156,496.8672 223.3125,496.8672 Q221.0625,496.8672 219.8281,495.2734 Q218.5938,493.6797 218.5938,490.8047 Q218.5938,487.9453 219.8281,486.3516 Q221.0781,484.7578 223.3125,484.7578 Q224.0156,484.7578 224.6406,484.9141 Q225.2813,485.0703 225.8906,485.3984 L225.8906,487.0078 Q225.3125,486.5391 224.6406,486.2891 Q223.9844,486.0391 223.3125,486.0391 Q221.7656,486.0391 221,487.2266 Q220.2344,488.4141 220.2344,490.8047 Q220.2344,493.1953 221,494.3828 Q221.7656,495.5703 223.3125,495.5703 Q224,495.5703 224.6563,495.3203 Q225.3125,495.0703 225.8906,494.6016 L225.8906,496.2109 Z " fill="#000000"/><text fill="#EEEEEE" font-family="sans-serif" font-size="12" font-style="italic" lengthAdjust="spacing" textLength="93" x="267.5" y="484.6387">«private class»</text><text fill="#EEEEEE" font-family="sans-serif" font-size="14" lengthAdjust="spacing" textLength="151" x="238.5" y="504.4639">Icons_Documentation</text><line style="stroke:#111111;stroke-width:1.5;" x1="210.5" x2="393.5" y1="514.7656" y2="514.7656"/><line style="stroke:#111111;stroke-width:1.5;" x1="210.5" x2="393.5" y1="522.7656" y2="522.7656"/><!--MD5=[311bca9c219758a644194d8bbf62a4a5]
class License_Display--><rect codeLine="63" fill="url(#gkvo6b8l972c61)" height="64.2656" id="License_Display" style="stroke:#111111;stroke-width:1.5;" width="143" x="31.5" y="466.5"/><ellipse cx="45.5" cy="490.6328" fill="#ADD1B2" rx="10" ry="10" style="stroke:#111111;stroke-width:1.0;"/><path d="M47.8906,496.2109 Q47.2813,496.5391 46.6406,496.6953 Q46.0156,496.8672 45.3125,496.8672 Q43.0625,496.8672 41.8281,495.2734 Q40.5938,493.6797 40.5938,490.8047 Q40.5938,487.9453 41.8281,486.3516 Q43.0781,484.7578 45.3125,484.7578 Q46.0156,484.7578 46.6406,484.9141 Q47.2813,485.0703 47.8906,485.3984 L47.8906,487.0078 Q47.3125,486.5391 46.6406,486.2891 Q45.9844,486.0391 45.3125,486.0391 Q43.7656,486.0391 43,487.2266 Q42.2344,488.4141 42.2344,490.8047 Q42.2344,493.1953 43,494.3828 Q43.7656,495.5703 45.3125,495.5703 Q46,495.5703 46.6563,495.3203 Q47.3125,495.0703 47.8906,494.6016 L47.8906,496.2109 Z " fill="#000000"/><text fill="#EEEEEE" font-family="sans-serif" font-size="12" font-style="italic" lengthAdjust="spacing" textLength="93" x="68.5" y="484.6387">«private class»</text><text fill="#EEEEEE" font-family="sans-serif" font-size="14" lengthAdjust="spacing" textLength="109" x="60.5" y="504.4639">License_Display</text><line style="stroke:#111111;stroke-width:1.5;" x1="32.5" x2="173.5" y1="514.7656" y2="514.7656"/><line style="stroke:#111111;stroke-width:1.5;" x1="32.5" x2="173.5" y1="522.7656" y2="522.7656"/><!--MD5=[a8be521b82384408c14ed1d12d01d74b]
class General_Settings_Factory--><rect codeLine="67" fill="url(#gkvo6b8l972c61)" height="97.3672" id="General_Settings_Factory" style="stroke:#111111;stroke-width:1.5;" width="209" x="661.5" y="450"/><ellipse cx="675.5" cy="481.1172" fill="#ADD1B2" rx="10" ry="10" style="stroke:#111111;stroke-width:1.0;"/><path d="M677.8906,486.6953 Q677.2813,487.0234 676.6406,487.1797 Q676.0156,487.3516 675.3125,487.3516 Q673.0625,487.3516 671.8281,485.7578 Q670.5938,484.1641 670.5938,481.2891 Q670.5938,478.4297 671.8281,476.8359 Q673.0781,475.2422 675.3125,475.2422 Q676.0156,475.2422 676.6406,475.3984 Q677.2813,475.5547 677.8906,475.8828 L677.8906,477.4922 Q677.3125,477.0234 676.6406,476.7734 Q675.9844,476.5234 675.3125,476.5234 Q673.7656,476.5234 673,477.7109 Q672.2344,478.8984 672.2344,481.2891 Q672.2344,483.6797 673,484.8672 Q673.7656,486.0547 675.3125,486.0547 Q676,486.0547 676.6563,485.8047 Q677.3125,485.5547 677.8906,485.0859 L677.8906,486.6953 Z " fill="#000000"/><text fill="#EEEEEE" font-family="sans-serif" font-size="12" font-style="italic" lengthAdjust="spacing" textLength="93" x="731.5" y="468.1387">«private class»</text><text fill="#EEEEEE" font-family="sans-serif" font-size="12" font-style="italic" lengthAdjust="spacing" textLength="60" x="748" y="482.1074">«Facade»</text><text fill="#EEEEEE" font-family="sans-serif" font-size="14" lengthAdjust="spacing" textLength="175" x="690.5" y="501.9326">General_Settings_Factory</text><line style="stroke:#111111;stroke-width:1.5;" x1="662.5" x2="869.5" y1="512.2344" y2="512.2344"/><line style="stroke:#111111;stroke-width:1.5;" x1="662.5" x2="869.5" y1="520.2344" y2="520.2344"/><ellipse cx="674.5" cy="533.2344" fill="#84BE84" rx="5" ry="5" style="stroke:#038048;stroke-width:1.0;"/><text fill="#EEEEEE" font-family="sans-serif" font-size="13" lengthAdjust="spacing" textLength="158" x="682.5" y="538.3013">display( $setting_name )</text><!--MD5=[9b6bb3cdfae7ec5bc2976c073d2a4cfe]
class General_Settings_Creator--><rect codeLine="71" fill="url(#gkvo6b8l972c61)" height="64.2656" id="General_Settings_Creator" style="stroke:#111111;stroke-width:1.5;" width="210" x="661" y="607"/><ellipse cx="675" cy="631.1328" fill="#B4A7E5" rx="10" ry="10" style="stroke:#111111;stroke-width:1.0;"/><path d="M672.0781,625.4609 L678.5469,625.4609 L678.5469,626.7891 L676.1094,626.7891 L676.1094,635.8047 L678.5469,635.8047 L678.5469,637.1328 L672.0781,637.1328 L672.0781,635.8047 L674.5156,635.8047 L674.5156,626.7891 L672.0781,626.7891 L672.0781,625.4609 Z " fill="#000000"/><text fill="#EEEEEE" font-family="sans-serif" font-size="12" font-style="italic" lengthAdjust="spacing" textLength="93" x="731.5" y="625.1387">«private class»</text><text fill="#EEEEEE" font-family="sans-serif" font-size="14" font-style="italic" lengthAdjust="spacing" textLength="176" x="690" y="644.9639">General_Settings_Creator</text><line style="stroke:#111111;stroke-width:1.5;" x1="662" x2="870" y1="655.2656" y2="655.2656"/><line style="stroke:#111111;stroke-width:1.5;" x1="662" x2="870" y1="663.2656" y2="663.2656"/><!--MD5=[5de17b5d815dcc8ab119b84a3bc783cb]
class General_Select_Setting--><rect codeLine="72" fill="url(#gkvo6b8l972c61)" height="64.2656" id="General_Select_Setting" style="stroke:#111111;stroke-width:1.5;" width="194" x="1215" y="731"/><ellipse cx="1229" cy="755.1328" fill="#ADD1B2" rx="10" ry="10" style="stroke:#111111;stroke-width:1.0;"/><path d="M1231.3906,760.7109 Q1230.7813,761.0391 1230.1406,761.1953 Q1229.5156,761.3672 1228.8125,761.3672 Q1226.5625,761.3672 1225.3281,759.7734 Q1224.0938,758.1797 1224.0938,755.3047 Q1224.0938,752.4453 1225.3281,750.8516 Q1226.5781,749.2578 1228.8125,749.2578 Q1229.5156,749.2578 1230.1406,749.4141 Q1230.7813,749.5703 1231.3906,749.8984 L1231.3906,751.5078 Q1230.8125,751.0391 1230.1406,750.7891 Q1229.4844,750.5391 1228.8125,750.5391 Q1227.2656,750.5391 1226.5,751.7266 Q1225.7344,752.9141 1225.7344,755.3047 Q1225.7344,757.6953 1226.5,758.8828 Q1227.2656,760.0703 1228.8125,760.0703 Q1229.5,760.0703 1230.1563,759.8203 Q1230.8125,759.5703 1231.3906,759.1016 L1231.3906,760.7109 Z " fill="#000000"/><text fill="#EEEEEE" font-family="sans-serif" font-size="12" font-style="italic" lengthAdjust="spacing" textLength="93" x="1277.5" y="749.1387">«private class»</text><text fill="#EEEEEE" font-family="sans-serif" font-size="14" lengthAdjust="spacing" textLength="160" x="1244" y="768.9639">General_Select_Setting</text><line style="stroke:#111111;stroke-width:1.5;" x1="1216" x2="1408" y1="779.2656" y2="779.2656"/><line style="stroke:#111111;stroke-width:1.5;" x1="1216" x2="1408" y1="787.2656" y2="787.2656"/><!--MD5=[38cce3347a28bcc7769ae43d9751f150]
class General_Select_With_Switch_Setting--><rect codeLine="73" fill="url(#gkvo6b8l972c61)" height="64.2656" id="General_Select_With_Switch_Setting" style="stroke:#111111;stroke-width:1.5;" width="283" x="896.5" y="731"/><ellipse cx="910.5" cy="755.1328" fill="#ADD1B2" rx="10" ry="10" style="stroke:#111111;stroke-width:1.0;"/><path d="M912.8906,760.7109 Q912.2813,761.0391 911.6406,761.1953 Q911.0156,761.3672 910.3125,761.3672 Q908.0625,761.3672 906.8281,759.7734 Q905.5938,758.1797 905.5938,755.3047 Q905.5938,752.4453 906.8281,750.8516 Q908.0781,749.2578 910.3125,749.2578 Q911.0156,749.2578 911.6406,749.4141 Q912.2813,749.5703 912.8906,749.8984 L912.8906,751.5078 Q912.3125,751.0391 911.6406,750.7891 Q910.9844,750.5391 910.3125,750.5391 Q908.7656,750.5391 908,751.7266 Q907.2344,752.9141 907.2344,755.3047 Q907.2344,757.6953 908,758.8828 Q908.7656,760.0703 910.3125,760.0703 Q911,760.0703 911.6563,759.8203 Q912.3125,759.5703 912.8906,759.1016 L912.8906,760.7109 Z " fill="#000000"/><text fill="#EEEEEE" font-family="sans-serif" font-size="12" font-style="italic" lengthAdjust="spacing" textLength="93" x="1003.5" y="749.1387">«private class»</text><text fill="#EEEEEE" font-family="sans-serif" font-size="14" lengthAdjust="spacing" textLength="249" x="925.5" y="768.9639">General_Select_With_Switch_Setting</text><line style="stroke:#111111;stroke-width:1.5;" x1="897.5" x2="1178.5" y1="779.2656" y2="779.2656"/><line style="stroke:#111111;stroke-width:1.5;" x1="897.5" x2="1178.5" y1="787.2656" y2="787.2656"/><!--MD5=[9395760248497a50bbf42efa6838fec0]
class General_Text_Setting--><rect codeLine="74" fill="url(#gkvo6b8l972c61)" height="64.2656" id="General_Text_Setting" style="stroke:#111111;stroke-width:1.5;" width="181" x="454.5" y="731"/><ellipse cx="468.5" cy="755.1328" fill="#ADD1B2" rx="10" ry="10" style="stroke:#111111;stroke-width:1.0;"/><path d="M470.8906,760.7109 Q470.2813,761.0391 469.6406,761.1953 Q469.0156,761.3672 468.3125,761.3672 Q466.0625,761.3672 464.8281,759.7734 Q463.5938,758.1797 463.5938,755.3047 Q463.5938,752.4453 464.8281,750.8516 Q466.0781,749.2578 468.3125,749.2578 Q469.0156,749.2578 469.6406,749.4141 Q470.2813,749.5703 470.8906,749.8984 L470.8906,751.5078 Q470.3125,751.0391 469.6406,750.7891 Q468.9844,750.5391 468.3125,750.5391 Q466.7656,750.5391 466,751.7266 Q465.2344,752.9141 465.2344,755.3047 Q465.2344,757.6953 466,758.8828 Q466.7656,760.0703 468.3125,760.0703 Q469,760.0703 469.6563,759.8203 Q470.3125,759.5703 470.8906,759.1016 L470.8906,760.7109 Z " fill="#000000"/><text fill="#EEEEEE" font-family="sans-serif" font-size="12" font-style="italic" lengthAdjust="spacing" textLength="93" x="510.5" y="749.1387">«private class»</text><text fill="#EEEEEE" font-family="sans-serif" font-size="14" lengthAdjust="spacing" textLength="147" x="483.5" y="768.9639">General_Text_Setting</text><line style="stroke:#111111;stroke-width:1.5;" x1="455.5" x2="634.5" y1="779.2656" y2="779.2656"/><line style="stroke:#111111;stroke-width:1.5;" x1="455.5" x2="634.5" y1="787.2656" y2="787.2656"/><!--MD5=[5ac334d1f7c8825f36594a0a03e18dc0]
class General_Radio_Setting--><rect codeLine="75" fill="url(#gkvo6b8l972c61)" height="64.2656" id="General_Radio_Setting" style="stroke:#111111;stroke-width:1.5;" width="190" x="671" y="731"/><ellipse cx="685" cy="755.1328" fill="#ADD1B2" rx="10" ry="10" style="stroke:#111111;stroke-width:1.0;"/><path d="M687.3906,760.7109 Q686.7813,761.0391 686.1406,761.1953 Q685.5156,761.3672 684.8125,761.3672 Q682.5625,761.3672 681.3281,759.7734 Q680.0938,758.1797 680.0938,755.3047 Q680.0938,752.4453 681.3281,750.8516 Q682.5781,749.2578 684.8125,749.2578 Q685.5156,749.2578 686.1406,749.4141 Q686.7813,749.5703 687.3906,749.8984 L687.3906,751.5078 Q686.8125,751.0391 686.1406,750.7891 Q685.4844,750.5391 684.8125,750.5391 Q683.2656,750.5391 682.5,751.7266 Q681.7344,752.9141 681.7344,755.3047 Q681.7344,757.6953 682.5,758.8828 Q683.2656,760.0703 684.8125,760.0703 Q685.5,760.0703 686.1563,759.8203 Q686.8125,759.5703 687.3906,759.1016 L687.3906,760.7109 Z " fill="#000000"/><text fill="#EEEEEE" font-family="sans-serif" font-size="12" font-style="italic" lengthAdjust="spacing" textLength="93" x="731.5" y="749.1387">«private class»</text><text fill="#EEEEEE" font-family="sans-serif" font-size="14" lengthAdjust="spacing" textLength="156" x="700" y="768.9639">General_Radio_Setting</text><line style="stroke:#111111;stroke-width:1.5;" x1="672" x2="860" y1="779.2656" y2="779.2656"/><line style="stroke:#111111;stroke-width:1.5;" x1="672" x2="860" y1="787.2656" y2="787.2656"/><!--MD5=[dd1e58bcfcf7b7268efe1ab8fc819155]
class Existing_Table--><rect codeLine="85" fill="url(#gkvo6b8l972c61)" height="64.2656" id="Existing_Table" style="stroke:#111111;stroke-width:1.5;" width="132" x="1894" y="466.5"/><ellipse cx="1908" cy="490.6328" fill="#ADD1B2" rx="10" ry="10" style="stroke:#111111;stroke-width:1.0;"/><path d="M1910.3906,496.2109 Q1909.7813,496.5391 1909.1406,496.6953 Q1908.5156,496.8672 1907.8125,496.8672 Q1905.5625,496.8672 1904.3281,495.2734 Q1903.0938,493.6797 1903.0938,490.8047 Q1903.0938,487.9453 1904.3281,486.3516 Q1905.5781,484.7578 1907.8125,484.7578 Q1908.5156,484.7578 1909.1406,484.9141 Q1909.7813,485.0703 1910.3906,485.3984 L1910.3906,487.0078 Q1909.8125,486.5391 1909.1406,486.2891 Q1908.4844,486.0391 1907.8125,486.0391 Q1906.2656,486.0391 1905.5,487.2266 Q1904.7344,488.4141 1904.7344,490.8047 Q1904.7344,493.1953 1905.5,494.3828 Q1906.2656,495.5703 1907.8125,495.5703 Q1908.5,495.5703 1909.1563,495.3203 Q1909.8125,495.0703 1910.3906,494.6016 L1910.3906,496.2109 Z " fill="#000000"/><text fill="#EEEEEE" font-family="sans-serif" font-size="12" font-style="italic" lengthAdjust="spacing" textLength="93" x="1925.5" y="484.6387">«private class»</text><text fill="#EEEEEE" font-family="sans-serif" font-size="14" lengthAdjust="spacing" textLength="98" x="1923" y="504.4639">Existing_Table</text><line style="stroke:#111111;stroke-width:1.5;" x1="1895" x2="2025" y1="514.7656" y2="514.7656"/><line style="stroke:#111111;stroke-width:1.5;" x1="1895" x2="2025" y1="522.7656" y2="522.7656"/><!--MD5=[e2b9269511542e3cd7f88af802e75ba3]
class Modify_Query_Settings--><rect codeLine="86" fill="url(#gkvo6b8l972c61)" height="64.2656" id="Modify_Query_Settings" style="stroke:#111111;stroke-width:1.5;" width="190" x="1669" y="466.5"/><ellipse cx="1683" cy="490.6328" fill="#ADD1B2" rx="10" ry="10" style="stroke:#111111;stroke-width:1.0;"/><path d="M1685.3906,496.2109 Q1684.7813,496.5391 1684.1406,496.6953 Q1683.5156,496.8672 1682.8125,496.8672 Q1680.5625,496.8672 1679.3281,495.2734 Q1678.0938,493.6797 1678.0938,490.8047 Q1678.0938,487.9453 1679.3281,486.3516 Q1680.5781,484.7578 1682.8125,484.7578 Q1683.5156,484.7578 1684.1406,484.9141 Q1684.7813,485.0703 1685.3906,485.3984 L1685.3906,487.0078 Q1684.8125,486.5391 1684.1406,486.2891 Q1683.4844,486.0391 1682.8125,486.0391 Q1681.2656,486.0391 1680.5,487.2266 Q1679.7344,488.4141 1679.7344,490.8047 Q1679.7344,493.1953 1680.5,494.3828 Q1681.2656,495.5703 1682.8125,495.5703 Q1683.5,495.5703 1684.1563,495.3203 Q1684.8125,495.0703 1685.3906,494.6016 L1685.3906,496.2109 Z " fill="#000000"/><text fill="#EEEEEE" font-family="sans-serif" font-size="12" font-style="italic" lengthAdjust="spacing" textLength="93" x="1729.5" y="484.6387">«private class»</text><text fill="#EEEEEE" font-family="sans-serif" font-size="14" lengthAdjust="spacing" textLength="156" x="1698" y="504.4639">Modify_Query_Settings</text><line style="stroke:#111111;stroke-width:1.5;" x1="1670" x2="1858" y1="514.7656" y2="514.7656"/><line style="stroke:#111111;stroke-width:1.5;" x1="1670" x2="1858" y1="522.7656" y2="522.7656"/><!--MD5=[5368e1cc4c16fdc7e47e78ac99419597]
class Query_Setting_Display--><rect codeLine="88" fill="url(#gkvo6b8l972c61)" height="64.2656" id="Query_Setting_Display" style="stroke:#111111;stroke-width:1.5;" width="187" x="1446.5" y="466.5"/><ellipse cx="1460.5" cy="490.6328" fill="#B4A7E5" rx="10" ry="10" style="stroke:#111111;stroke-width:1.0;"/><path d="M1457.5781,484.9609 L1464.0469,484.9609 L1464.0469,486.2891 L1461.6094,486.2891 L1461.6094,495.3047 L1464.0469,495.3047 L1464.0469,496.6328 L1457.5781,496.6328 L1457.5781,495.3047 L1460.0156,495.3047 L1460.0156,486.2891 L1457.5781,486.2891 L1457.5781,484.9609 Z " fill="#000000"/><text fill="#EEEEEE" font-family="sans-serif" font-size="12" font-style="italic" lengthAdjust="spacing" textLength="93" x="1505.5" y="484.6387">«private class»</text><text fill="#EEEEEE" font-family="sans-serif" font-size="14" font-style="italic" lengthAdjust="spacing" textLength="153" x="1475.5" y="504.4639">Query_Setting_Display</text><line style="stroke:#111111;stroke-width:1.5;" x1="1447.5" x2="1632.5" y1="514.7656" y2="514.7656"/><line style="stroke:#111111;stroke-width:1.5;" x1="1447.5" x2="1632.5" y1="522.7656" y2="522.7656"/><!--MD5=[4e9930642eb2947afcb50d185bec7661]
class Author_Display--><rect codeLine="89" fill="url(#gkvo6b8l972c61)" height="64.2656" id="Author_Display" style="stroke:#111111;stroke-width:1.5;" width="136" x="1433" y="607"/><ellipse cx="1447" cy="631.1328" fill="#ADD1B2" rx="10" ry="10" style="stroke:#111111;stroke-width:1.0;"/><path d="M1449.3906,636.7109 Q1448.7813,637.0391 1448.1406,637.1953 Q1447.5156,637.3672 1446.8125,637.3672 Q1444.5625,637.3672 1443.3281,635.7734 Q1442.0938,634.1797 1442.0938,631.3047 Q1442.0938,628.4453 1443.3281,626.8516 Q1444.5781,625.2578 1446.8125,625.2578 Q1447.5156,625.2578 1448.1406,625.4141 Q1448.7813,625.5703 1449.3906,625.8984 L1449.3906,627.5078 Q1448.8125,627.0391 1448.1406,626.7891 Q1447.4844,626.5391 1446.8125,626.5391 Q1445.2656,626.5391 1444.5,627.7266 Q1443.7344,628.9141 1443.7344,631.3047 Q1443.7344,633.6953 1444.5,634.8828 Q1445.2656,636.0703 1446.8125,636.0703 Q1447.5,636.0703 1448.1563,635.8203 Q1448.8125,635.5703 1449.3906,635.1016 L1449.3906,636.7109 Z " fill="#000000"/><text fill="#EEEEEE" font-family="sans-serif" font-size="12" font-style="italic" lengthAdjust="spacing" textLength="93" x="1466.5" y="625.1387">«private class»</text><text fill="#EEEEEE" font-family="sans-serif" font-size="14" lengthAdjust="spacing" textLength="102" x="1462" y="644.9639">Author_Display</text><line style="stroke:#111111;stroke-width:1.5;" x1="1434" x2="1568" y1="655.2656" y2="655.2656"/><line style="stroke:#111111;stroke-width:1.5;" x1="1434" x2="1568" y1="663.2656" y2="663.2656"/><!--MD5=[fba17e7b32fbe8b39a308916758e1d0d]
class Category_Display--><rect codeLine="90" fill="url(#gkvo6b8l972c61)" height="64.2656" id="Category_Display" style="stroke:#111111;stroke-width:1.5;" width="152" x="1604" y="607"/><ellipse cx="1618" cy="631.1328" fill="#ADD1B2" rx="10" ry="10" style="stroke:#111111;stroke-width:1.0;"/><path d="M1620.3906,636.7109 Q1619.7813,637.0391 1619.1406,637.1953 Q1618.5156,637.3672 1617.8125,637.3672 Q1615.5625,637.3672 1614.3281,635.7734 Q1613.0938,634.1797 1613.0938,631.3047 Q1613.0938,628.4453 1614.3281,626.8516 Q1615.5781,625.2578 1617.8125,625.2578 Q1618.5156,625.2578 1619.1406,625.4141 Q1619.7813,625.5703 1620.3906,625.8984 L1620.3906,627.5078 Q1619.8125,627.0391 1619.1406,626.7891 Q1618.4844,626.5391 1617.8125,626.5391 Q1616.2656,626.5391 1615.5,627.7266 Q1614.7344,628.9141 1614.7344,631.3047 Q1614.7344,633.6953 1615.5,634.8828 Q1616.2656,636.0703 1617.8125,636.0703 Q1618.5,636.0703 1619.1563,635.8203 Q1619.8125,635.5703 1620.3906,635.1016 L1620.3906,636.7109 Z " fill="#000000"/><text fill="#EEEEEE" font-family="sans-serif" font-size="12" font-style="italic" lengthAdjust="spacing" textLength="93" x="1645.5" y="625.1387">«private class»</text><text fill="#EEEEEE" font-family="sans-serif" font-size="14" lengthAdjust="spacing" textLength="118" x="1633" y="644.9639">Category_Display</text><line style="stroke:#111111;stroke-width:1.5;" x1="1605" x2="1755" y1="655.2656" y2="655.2656"/><line style="stroke:#111111;stroke-width:1.5;" x1="1605" x2="1755" y1="663.2656" y2="663.2656"/><!--MD5=[c35528968e066a2225c268225e2bbae4]
class All_Other_Classes_From_This_Folder--><rect codeLine="91" fill="url(#gkvo6b8l972c61)" height="64.2656" id="All_Other_Classes_From_This_Folder" style="stroke:#111111;stroke-width:1.5;" width="284" x="1791" y="607"/><ellipse cx="1805" cy="631.1328" fill="#ADD1B2" rx="10" ry="10" style="stroke:#111111;stroke-width:1.0;"/><path d="M1807.3906,636.7109 Q1806.7813,637.0391 1806.1406,637.1953 Q1805.5156,637.3672 1804.8125,637.3672 Q1802.5625,637.3672 1801.3281,635.7734 Q1800.0938,634.1797 1800.0938,631.3047 Q1800.0938,628.4453 1801.3281,626.8516 Q1802.5781,625.2578 1804.8125,625.2578 Q1805.5156,625.2578 1806.1406,625.4141 Q1806.7813,625.5703 1807.3906,625.8984 L1807.3906,627.5078 Q1806.8125,627.0391 1806.1406,626.7891 Q1805.4844,626.5391 1804.8125,626.5391 Q1803.2656,626.5391 1802.5,627.7266 Q1801.7344,628.9141 1801.7344,631.3047 Q1801.7344,633.6953 1802.5,634.8828 Q1803.2656,636.0703 1804.8125,636.0703 Q1805.5,636.0703 1806.1563,635.8203 Q1806.8125,635.5703 1807.3906,635.1016 L1807.3906,636.7109 Z " fill="#000000"/><text fill="#EEEEEE" font-family="sans-serif" font-size="12" font-style="italic" lengthAdjust="spacing" textLength="93" x="1898.5" y="625.1387">«private class»</text><text fill="#EEEEEE" font-family="sans-serif" font-size="14" lengthAdjust="spacing" textLength="250" x="1820" y="644.9639">All_Other_Classes_From_This_Folder</text><line style="stroke:#111111;stroke-width:1.5;" x1="1792" x2="2074" y1="655.2656" y2="655.2656"/><line style="stroke:#111111;stroke-width:1.5;" x1="1792" x2="2074" y1="663.2656" y2="663.2656"/><!--MD5=[b80055a172be9eda9cdda363324f0e03]
reverse link Widget_Control to Select_Control--><path d="M2378.5917,142.2155 C2329.8079,156.1584 2311.8637,147.2791 2271,165 C2253.0563,172.7814 2235.1067,184.4626 2219.9489,195.7551 " fill="none" id="Widget_Control-backto-Select_Control" style="stroke:#FFFF00;stroke-width:1.0;stroke-dasharray:7.0,7.0;"/><polygon fill="none" points="2376.4565,135.5492,2397.6389,136.1036,2380.7341,148.8797,2376.4565,135.5492" style="stroke:#FFFF00;stroke-width:1.0;"/><!--MD5=[592053b74943100c0e52cfc4d7ec180a]
reverse link Widget_Control to Number_Control--><path d="M2425.3629,152.5313 C2414.7767,166.9877 2403.4757,182.4203 2393.7934,195.6423 " fill="none" id="Widget_Control-backto-Number_Control" style="stroke:#FFFF00;stroke-width:1.0;stroke-dasharray:7.0,7.0;"/><polygon fill="none" points="2419.8579,148.2007,2437.3219,136.2002,2431.1532,156.4721,2419.8579,148.2007" style="stroke:#FFFF00;stroke-width:1.0;"/><!--MD5=[2038e17d1d3ea9321a005387ec481d65]
reverse link Widget_Control to Color_Control--><path d="M2498.6371,152.5313 C2509.2233,166.9877 2520.5243,182.4203 2530.2066,195.6423 " fill="none" id="Widget_Control-backto-Color_Control" style="stroke:#FFFF00;stroke-width:1.0;stroke-dasharray:7.0,7.0;"/><polygon fill="none" points="2492.8468,156.4721,2486.6781,136.2002,2504.1421,148.2007,2492.8468,156.4721" style="stroke:#FFFF00;stroke-width:1.0;"/><!--MD5=[770b15684bc834000dada0ff7c54273e]
reverse link Widget_Control to Other_Similar_Classes--><path d="M2558.4385,132.5222 C2586.1021,142.0118 2616.0589,153.1432 2643,165 C2663.5406,174.0399 2685.3165,185.3112 2704.5475,195.8912 " fill="none" id="Widget_Control-backto-Other_Similar_Classes" style="stroke:#FFFF00;stroke-width:1.0;stroke-dasharray:7.0,7.0;"/><polygon fill="none" points="2555.9762,139.0795,2539.2493,126.0714,2560.4373,125.8093,2555.9762,139.0795" style="stroke:#FFFF00;stroke-width:1.0;"/><!--MD5=[31fbbbe0ca4fb70ad7ab9d1ab63e96e5]
link General_Settings_Factory to General_Settings_Creator--><path codeLine="77" d="M766,547.2458 C766,565.0589 766,584.9134 766,601.5848 " fill="none" id="General_Settings_Factory-to-General_Settings_Creator" style="stroke:#FFFF00;stroke-width:1.0;"/><polygon fill="#FFFF00" points="766,606.6507,770,597.6507,766,601.6507,762,597.6507,766,606.6507" style="stroke:#FFFF00;stroke-width:1.0;"/><!--MD5=[1cd599653b14e4a70adb3a12d4da470c]
reverse link General_Settings_Creator to General_Select_Setting--><path codeLine="78" d="M891.2118,663.6226 C977.4742,681.1002 1094.5685,705.8412 1197,731 C1202.8364,732.4335 1208.8263,733.9529 1214.86,735.5203 " fill="none" id="General_Settings_Creator-backto-General_Select_Setting" style="stroke:#FFFF00;stroke-width:1.0;stroke-dasharray:7.0,7.0;"/><polygon fill="none" points="889.5809,670.4347,871.3598,659.6183,892.3491,656.7111,889.5809,670.4347" style="stroke:#FFFF00;stroke-width:1.0;"/><!--MD5=[68416cba36beb92d4f82003b68f3f172]
reverse link General_Settings_Creator to General_Text_Setting--><path codeLine="79" d="M691.2734,680.9281 C662.2242,697.2272 629.4775,715.6008 602.3443,730.8249 " fill="none" id="General_Settings_Creator-backto-General_Text_Setting" style="stroke:#FFFF00;stroke-width:1.0;stroke-dasharray:7.0,7.0;"/><polygon fill="none" points="687.9323,674.7762,708.7996,671.0943,694.7828,686.9856,687.9323,674.7762" style="stroke:#FFFF00;stroke-width:1.0;"/><!--MD5=[fec4fee6a4cb092af7768c2f619239b9]
reverse link General_Settings_Creator to General_Radio_Setting--><path codeLine="80" d="M766,691.4467 C766,704.852 766,718.8678 766,730.9057 " fill="none" id="General_Settings_Creator-backto-General_Radio_Setting" style="stroke:#FFFF00;stroke-width:1.0;stroke-dasharray:7.0,7.0;"/><polygon fill="none" points="759.0001,691.2559,766,671.2558,773.0001,691.2558,759.0001,691.2559" style="stroke:#FFFF00;stroke-width:1.0;"/><!--MD5=[98fd3bc6f86940d8c8acaaef93e2049f]
link General_Select_With_Switch_Setting to General_Select_Setting--><path codeLine="81" d="M1179.5488,763 C1184.625,763 1189.7012,763 1194.7774,763 " fill="none" id="General_Select_With_Switch_Setting-to-General_Select_Setting" style="stroke:#FFFF00;stroke-width:1.0;"/><polygon fill="none" points="1194.9899,755.9999,1214.9899,763,1194.9898,769.9999,1194.9899,755.9999" style="stroke:#FFFF00;stroke-width:1.0;"/><!--MD5=[eede1f10b82fe6f482fd6779278c4f7e]
reverse link Query_Setting_Display to Author_Display--><path codeLine="93" d="M1525.628,550.276 C1520.3607,569.2517 1514.5561,590.1632 1509.9058,606.9164 " fill="none" id="Query_Setting_Display-backto-Author_Display" style="stroke:#FFFF00;stroke-width:1.0;stroke-dasharray:7.0,7.0;"/><polygon fill="none" points="1518.9582,548.1326,1531.0526,530.7335,1532.4482,551.8772,1518.9582,548.1326" style="stroke:#FFFF00;stroke-width:1.0;"/><!--MD5=[21e56594f523eed143211c2cc08ba454]
reverse link Query_Setting_Display to Category_Display--><path codeLine="94" d="M1586.5142,545.1803 C1606.6976,565.4358 1629.8275,588.6483 1648.0306,606.9164 " fill="none" id="Query_Setting_Display-backto-Category_Display" style="stroke:#FFFF00;stroke-width:1.0;stroke-dasharray:7.0,7.0;"/><polygon fill="none" points="1581.2772,549.8418,1572.1188,530.7335,1591.1943,539.96,1581.2772,549.8418" style="stroke:#FFFF00;stroke-width:1.0;"/><!--MD5=[b4b286b3e5f16b2895e7697b7772eb9a]
reverse link Query_Setting_Display to All_Other_Classes_From_This_Folder--><path codeLine="95" d="M1629.7838,538.2389 C1637.2651,541.2878 1644.7408,544.2466 1652,547 C1709.3556,568.7547 1774.3941,590.246 1827.445,606.9796 " fill="none" id="Query_Setting_Display-backto-All_Other_Classes_From_This_Folder" style="stroke:#FFFF00;stroke-width:1.0;stroke-dasharray:7.0,7.0;"/><polygon fill="none" points="1627.0675,544.6905,1611.2953,530.5399,1632.4494,531.7663,1627.0675,544.6905" style="stroke:#FFFF00;stroke-width:1.0;"/><!--MD5=[a9471c4fe053f2fd3ffe167949f3959a]
link Documentation_Tab to TWRP\Admin\Tabs\Documentation--><path codeLine="98" d="M453.8107,390.3207 C447.6053,399.1428 441.7897,408.9974 438,419 C436.5256,422.8916 435.2869,426.9629 434.2489,431.1183 C433.9894,432.1571 433.7424,433.2012 433.5075,434.2491 C433.4487,434.5111 433.3908,434.7733 433.3335,435.0357 C433.3049,435.1669 433.2764,435.2981 433.2482,435.4294 " fill="none" id="Documentation_Tab-to-TWRP\Admin\Tabs\Documentation" style="stroke:#FFFF00;stroke-width:1.0;"/><polygon fill="#FFFF00" points="433.2482,435.4294,439.0519,427.4723,434.3,430.5413,431.2309,425.7894,433.2482,435.4294" style="stroke:#FFFF00;stroke-width:1.0;"/><!--MD5=[63c334a9f47c40fb4600b56fc83e0b11]
link General_Settings_Tab to General_Settings_Factory--><path codeLine="99" d="M766,390.152 C766,406.4197 766,426.3442 766,444.6506 " fill="none" id="General_Settings_Tab-to-General_Settings_Factory" style="stroke:#FFFF00;stroke-width:1.0;"/><polygon fill="#FFFF00" points="766,449.7667,770,440.7667,766,444.7667,762,440.7667,766,449.7667" style="stroke:#FFFF00;stroke-width:1.0;"/><!--MD5=[0587ba190964821ee5d97233706f5e4f]
link Queries_Tab to TWRP\Admin\Tabs\Query_Options--><path codeLine="100" d="M1562.4945,359.9335 C1703.3096,367.4392 2008.9474,387.222 2044,419 C2047.137,421.8439 2049.7722,425.1131 2051.9802,428.6688 C2053.0842,430.4466 2054.0814,432.296 2054.981,434.1998 C2055.0935,434.4377 2055.2044,434.6766 2055.3139,434.9162 C2055.3686,435.036 2055.4229,435.156 2055.4769,435.2762 " fill="none" id="Queries_Tab-TWRP\Admin\Tabs\Query_Options" style="stroke:#FFFF00;stroke-width:1.0;"/><polygon fill="#FFFF00" points="2055.4769,435.2762,2055.4403,425.4275,2053.4293,430.7147,2048.142,428.7037,2055.4769,435.2762" style="stroke:#FFFF00;stroke-width:1.0;"/><polygon fill="#FFFF00" points="1557.1451,359.65,1565.9208,364.1206,1562.1381,359.9146,1566.3441,356.1318,1557.1451,359.65" style="stroke:#FFFF00;stroke-width:1.0;"/><!--MD5=[44ccd6e13ff8fc4e74a95edfb4c30a9a]
link Settings_Menu to Admin_Menu_Tab--><path codeLine="103" d="M766,136.2002 C766,152.8492 766,173.0328 766,190.3627 " fill="none" id="Settings_Menu-to-Admin_Menu_Tab" style="stroke:#FFFF00;stroke-width:1.0;stroke-dasharray:7.0,7.0;"/><polygon fill="#FFFF00" points="766,195.6423,770,186.6423,766,190.6423,762,186.6423,766,195.6423" style="stroke:#FFFF00;stroke-width:1.0;"/><!--MD5=[5da8e082cafeb63da73101fc26170b8c]
reverse link Admin_Menu_Tab to Documentation_Tab--><path codeLine="104" d="M672.8249,271.3135 C635.4424,288.0894 592.9458,307.1604 557.6528,322.9986 " fill="none" id="Admin_Menu_Tab-backto-Documentation_Tab" style="stroke:#FFFF00;stroke-width:1.0;stroke-dasharray:7.0,7.0;"/><polygon fill="none" points="670.162,264.8361,691.2749,263.0339,675.894,277.6089,670.162,264.8361" style="stroke:#FFFF00;stroke-width:1.0;"/><!--MD5=[4cb7addc110cb6246d00b4fa3cd0cf28]
reverse link Admin_Menu_Tab to General_Settings_Tab--><path codeLine="105" d="M766,283.3226 C766,296.6549 766,310.57 766,322.6423 " fill="none" id="Admin_Menu_Tab-backto-General_Settings_Tab" style="stroke:#FFFF00;stroke-width:1.0;stroke-dasharray:7.0,7.0;"/><polygon fill="none" points="759.0001,283.2003,766,263.2002,773.0001,283.2002,759.0001,283.2003" style="stroke:#FFFF00;stroke-width:1.0;"/><!--MD5=[d14169ccb046c332e2a0be70346daa72]
reverse link Admin_Menu_Tab to Queries_Tab--><path codeLine="106" d="M870.4166,247.7657 C1022.6319,274.3929 1301.0065,323.0893 1426.9934,345.1283 " fill="none" id="Admin_Menu_Tab-backto-Queries_Tab" style="stroke:#FFFF00;stroke-width:1.0;stroke-dasharray:7.0,7.0;"/><polygon fill="none" points="869.1969,254.6587,850.7023,244.3171,871.6094,240.8681,869.1969,254.6587" style="stroke:#FFFF00;stroke-width:1.0;"/><!--MD5=[46f310c5a403e0d23067ce80e4d57e90]
@startuml
set namespaceSeparator \\

    skinparam {
        padding 2
        backgroundColor #222
        shadowing false

        classFontColor #eee
        classStereotypeFontColor #eee
        classBorderColor #111
        classFontSize 14
        ClassAttributeFontColor #eee
        ClassAttributeFontSize 13
        ClassAttributeIconSize 15

        PackageBackgroundColor #2c2c2c
        PackageBorderColor #111
        PackageFontColor #eee

        ArrowColor yellow

        circledCharacterFontColor black
        circledCharacterFontSize 16
        circledCharacterFontStyle plain
        circledCharacterRadius 10

        packageStyle rectangle

        <<public class>>classBackgroundColor #004b00/#003b00
        <<public class>>classFontSize 16

        <<private class>>classBackgroundColor #5d0000/#4d0000

        <<protected class>>classBackgroundColor #d16300/#c15300

        <<abstract class>>classBorderColor #755800
    }


package "TWRP\Admin - - The backend of the website" {
	class Settings_Menu <<public class>> {}

	package "TWRP\Admin\Helpers" {
		class Remember_Note <<private class>> {}
	}

	package "TWRP\Admin\Widget_Control" {
		abstract Widget_Control <<public class>> {}
		class Select_Control <<public class>> implements Widget_Control {}
		class Number_Control <<public class>> implements Widget_Control {}
		class Color_Control <<public class>> implements Widget_Control {}
		class Other_Similar_Classes <<public class>> implements Widget_Control {}
	}

	package "TWRP\Admin\Tabs" {
		abstract Admin_Menu_Tab <<public class>> {}
		class Documentation_Tab <<public class>> {}
		class General_Settings_Tab <<public class>> {}
		class Queries_Tab <<public class>> {}

		package "TWRP\Admin\Tabs\Documentation" {
			class Icons_Documentation <<private class>> {}
			class License_Display <<private class>> {}
		}

		package "TWRP\Admin\Tabs\General_Settings" {
			class General_Settings_Factory <<private class>> <<Facade>> {
				+ display( $setting_name )
			}

			interface General_Settings_Creator <<private class>>
			class General_Select_Setting <<private class>>
			class General_Select_With_Switch_Setting <<private class>>
			class General_Text_Setting <<private class>>
			class General_Radio_Setting <<private class>>

			General_Settings_Factory - -> General_Settings_Creator
			General_Settings_Creator <|.. General_Select_Setting
			General_Settings_Creator <|..  General_Text_Setting
			General_Settings_Creator <|.. General_Radio_Setting
			General_Select_Setting <|-l- General_Select_With_Switch_Setting
		}

		package "TWRP\Admin\Tabs\Query_Options" {
			class Existing_Table <<private class>> {}
			class Modify_Query_Settings <<private class>> {}

			interface Query_Setting_Display <<private class>> {}
			class Author_Display <<private class>> {}
			class Category_Display <<private class>> {}
			class All_Other_Classes_From_This_Folder <<private class>> {}

			Query_Setting_Display <|.. Author_Display
			Query_Setting_Display <|.. Category_Display
			Query_Setting_Display <|.. All_Other_Classes_From_This_Folder
		}

			Documentation_Tab - -> TWRP\Admin\Tabs\Documentation
			General_Settings_Tab - -> General_Settings_Factory
			Queries_Tab <- -> TWRP\Admin\Tabs\Query_Options
	}

	Settings_Menu ..> Admin_Menu_Tab
	Admin_Menu_Tab <|.. Documentation_Tab
	Admin_Menu_Tab <|.. General_Settings_Tab
	Admin_Menu_Tab <|.. Queries_Tab
}
@enduml

PlantUML version 1.2021.00(Sun Jan 10 10:25:05 UTC 2021)
(GPL source distribution)
Java Runtime: OpenJDK Runtime Environment
JVM: OpenJDK 64-Bit Server VM
Default Encoding: UTF-8
Language: en
Country: null
--></g></svg>