<?xml version="1.0" encoding="UTF-8" standalone="no"?><svg xmlns="http://www.w3.org/2000/svg" xmlns:xlink="http://www.w3.org/1999/xlink" contentScriptType="application/ecmascript" contentStyleType="text/css" height="822px" preserveAspectRatio="none" style="width:3148px;height:822px;background:#222222;" version="1.1" viewBox="0 0 3148 822" width="3148px" zoomAndPan="magnify"><defs><linearGradient id="gw88dh0k2tndi0" x1="0%" x2="100%" y1="0%" y2="100%"><stop offset="0%" stop-color="#5D0000"/><stop offset="100%" stop-color="#4D0000"/></linearGradient><linearGradient id="gw88dh0k2tndi1" x1="0%" x2="100%" y1="0%" y2="100%"><stop offset="0%" stop-color="#004B00"/><stop offset="100%" stop-color="#003B00"/></linearGradient></defs><g><!--MD5=[edf173e897bc9356416944c5fed9afdd]
cluster TWRP\Admin - - The backend of the website--><polygon fill="#2C2C2C" points="16,6,369,6,376,32.2969,3131,32.2969,3131,815,16,815,16,6" style="stroke: #111111; stroke-width: 1.5;"/><line style="stroke: #111111; stroke-width: 1.5;" x1="16" x2="376" y1="32.2969" y2="32.2969"/><text fill="#EEEEEE" font-family="sans-serif" font-size="14" font-weight="bold" lengthAdjust="spacingAndGlyphs" textLength="343" x="22" y="22.9951">TWRP\Admin -- The backend of the website</text><!--MD5=[7fbddded92a143b6ad08e96944e7313c]
cluster TWRP\Admin\Helpers--><polygon fill="#2C2C2C" points="2938,38.5,3113,38.5,3120,64.7969,3123,64.7969,3123,141.5,2938,141.5,2938,38.5" style="stroke: #111111; stroke-width: 1.5;"/><line style="stroke: #111111; stroke-width: 1.5;" x1="2938" x2="3120" y1="64.7969" y2="64.7969"/><text fill="#EEEEEE" font-family="sans-serif" font-size="14" font-weight="bold" lengthAdjust="spacingAndGlyphs" textLength="165" x="2944" y="55.4951">TWRP\Admin\Helpers</text><!--MD5=[4c54862f7c3f855ecae508bd42a8d7eb]
cluster TWRP\Admin\Widget_Control--><polygon fill="#2C2C2C" points="2142,37,2376,37,2383,63.2969,2930,63.2969,2930,270,2142,270,2142,37" style="stroke: #111111; stroke-width: 1.5;"/><line style="stroke: #111111; stroke-width: 1.5;" x1="2142" x2="2383" y1="63.2969" y2="63.2969"/><text fill="#EEEEEE" font-family="sans-serif" font-size="14" font-weight="bold" lengthAdjust="spacingAndGlyphs" textLength="224" x="2148" y="53.9951">TWRP\Admin\Widget_Control</text><!--MD5=[0d3367408421cacbbbf01906b0cc8e4e]
cluster TWRP\Admin\Tabs--><polygon fill="#2C2C2C" points="24,165.5,176,165.5,183,191.7969,2134,191.7969,2134,807,24,807,24,165.5" style="stroke: #111111; stroke-width: 1.5;"/><line style="stroke: #111111; stroke-width: 1.5;" x1="24" x2="183" y1="191.7969" y2="191.7969"/><text fill="#EEEEEE" font-family="sans-serif" font-size="14" font-weight="bold" lengthAdjust="spacingAndGlyphs" textLength="142" x="30" y="182.4951">TWRP\Admin\Tabs</text><!--MD5=[6a458880608256c85dbd90a39ef2109d]
cluster TWRP\Admin\Tabs\Documentation--><polygon fill="#2C2C2C" points="32,431.5,308,431.5,315,457.7969,455,457.7969,455,534.5,32,534.5,32,431.5" style="stroke: #111111; stroke-width: 1.5;"/><line style="stroke: #111111; stroke-width: 1.5;" x1="32" x2="315" y1="457.7969" y2="457.7969"/><text fill="#EEEEEE" font-family="sans-serif" font-size="14" font-weight="bold" lengthAdjust="spacingAndGlyphs" textLength="266" x="38" y="448.4951">TWRP\Admin\Tabs\Documentation</text><!--MD5=[c215e39dbad3337025b8fa23567c765e]
cluster TWRP\Admin\Tabs\General_Settings--><polygon fill="#2C2C2C" points="463,415,754,415,761,441.2969,1448,441.2969,1448,799,463,799,463,415" style="stroke: #111111; stroke-width: 1.5;"/><line style="stroke: #111111; stroke-width: 1.5;" x1="463" x2="761" y1="441.2969" y2="441.2969"/><text fill="#EEEEEE" font-family="sans-serif" font-size="14" font-weight="bold" lengthAdjust="spacingAndGlyphs" textLength="281" x="469" y="431.9951">TWRP\Admin\Tabs\General_Settings</text><!--MD5=[ca3ca2953491e9b8ebbe5eac8e2abf95]
cluster TWRP\Admin\Tabs\Query_Options--><polygon fill="#2C2C2C" points="1456,431.5,1729,431.5,1736,457.7969,2126,457.7969,2126,675,1456,675,1456,431.5" style="stroke: #111111; stroke-width: 1.5;"/><line style="stroke: #111111; stroke-width: 1.5;" x1="1456" x2="1736" y1="457.7969" y2="457.7969"/><text fill="#EEEEEE" font-family="sans-serif" font-size="14" font-weight="bold" lengthAdjust="spacingAndGlyphs" textLength="263" x="1462" y="448.4951">TWRP\Admin\Tabs\Query_Options</text><!--MD5=[8e276117ea87ca274e65ba56c368b898]
class Settings_Menu--><rect codeLine="46" fill="url(#gw88dh0k2tndi0)" height="64.2656" id="Settings_Menu" style="stroke: #111111; stroke-width: 1.5;" width="141" x="716.5" y="69.5"/><ellipse cx="732.5" cy="93.6328" fill="#ADD1B2" rx="12" ry="12" style="stroke: #111111; stroke-width: 1.0;"/><path d="M735.4375,99.6641 Q734.75,100.0234 734.0313,100.1953 Q733.3281,100.3828 732.5313,100.3828 Q730.0156,100.3828 728.6094,98.6016 Q727.2188,96.8203 727.2188,93.5859 Q727.2188,90.3672 728.625,88.5703 Q730.0313,86.7734 732.5313,86.7734 Q733.3281,86.7734 734.0313,86.9609 Q734.75,87.1328 735.4375,87.4922 L735.4375,89.3203 Q734.7813,88.7734 734.0313,88.4922 Q733.2813,88.2109 732.5313,88.2109 Q730.7969,88.2109 729.9375,89.5547 Q729.0781,90.8828 729.0781,93.5859 Q729.0781,96.2734 729.9375,97.6172 Q730.7969,98.9453 732.5313,98.9453 Q733.2969,98.9453 734.0469,98.6641 Q734.7969,98.3828 735.4375,97.8516 L735.4375,99.6641 Z "/><text fill="#EEEEEE" font-family="sans-serif" font-size="12" font-style="italic" lengthAdjust="spacingAndGlyphs" textLength="93" x="754.5" y="87.6387">«private class»</text><text fill="#EEEEEE" font-family="sans-serif" font-size="14" lengthAdjust="spacingAndGlyphs" textLength="103" x="749.5" y="107.4639">Settings_Menu</text><line style="stroke: #111111; stroke-width: 1.5;" x1="717.5" x2="856.5" y1="117.7656" y2="117.7656"/><line style="stroke: #111111; stroke-width: 1.5;" x1="717.5" x2="856.5" y1="125.7656" y2="125.7656"/><!--MD5=[754c1fb5bb7687394bf4c2a3220ac8b1]
class Remember_Note--><rect codeLine="49" fill="url(#gw88dh0k2tndi0)" height="64.2656" id="Remember_Note" style="stroke: #111111; stroke-width: 1.5;" width="155" x="2952.5" y="69.5"/><ellipse cx="2968.5" cy="93.6328" fill="#ADD1B2" rx="12" ry="12" style="stroke: #111111; stroke-width: 1.0;"/><path d="M2971.4375,99.6641 Q2970.75,100.0234 2970.0313,100.1953 Q2969.3281,100.3828 2968.5313,100.3828 Q2966.0156,100.3828 2964.6094,98.6016 Q2963.2188,96.8203 2963.2188,93.5859 Q2963.2188,90.3672 2964.625,88.5703 Q2966.0313,86.7734 2968.5313,86.7734 Q2969.3281,86.7734 2970.0313,86.9609 Q2970.75,87.1328 2971.4375,87.4922 L2971.4375,89.3203 Q2970.7813,88.7734 2970.0313,88.4922 Q2969.2813,88.2109 2968.5313,88.2109 Q2966.7969,88.2109 2965.9375,89.5547 Q2965.0781,90.8828 2965.0781,93.5859 Q2965.0781,96.2734 2965.9375,97.6172 Q2966.7969,98.9453 2968.5313,98.9453 Q2969.2969,98.9453 2970.0469,98.6641 Q2970.7969,98.3828 2971.4375,97.8516 L2971.4375,99.6641 Z "/><text fill="#EEEEEE" font-family="sans-serif" font-size="12" font-style="italic" lengthAdjust="spacingAndGlyphs" textLength="93" x="2997.5" y="87.6387">«private class»</text><text fill="#EEEEEE" font-family="sans-serif" font-size="14" lengthAdjust="spacingAndGlyphs" textLength="117" x="2985.5" y="107.4639">Remember_Note</text><line style="stroke: #111111; stroke-width: 1.5;" x1="2953.5" x2="3106.5" y1="117.7656" y2="117.7656"/><line style="stroke: #111111; stroke-width: 1.5;" x1="2953.5" x2="3106.5" y1="125.7656" y2="125.7656"/><!--MD5=[60f3908bc5dd052ee43ffaafc4592e33]
class Widget_Control--><rect codeLine="53" fill="url(#gw88dh0k2tndi1)" height="66.5938" id="Widget_Control" style="stroke: #111111; stroke-width: 1.5;" width="158" x="2433" y="68"/><ellipse cx="2449" cy="93.2969" fill="#A9DCDF" rx="12" ry="12" style="stroke: #111111; stroke-width: 1.0;"/><path d="M2448.9219,87.7344 L2447.0469,94.4531 L2450.7813,94.4531 L2448.9219,87.7344 Z M2447.8438,86.1719 L2450,86.1719 L2454.0156,99.2969 L2452.1719,99.2969 L2451.2031,95.875 L2446.6094,95.875 L2445.6563,99.2969 L2443.8281,99.2969 L2447.8438,86.1719 Z "/><text fill="#EEEEEE" font-family="sans-serif" font-size="12" font-style="italic" lengthAdjust="spacingAndGlyphs" textLength="87" x="2482.5" y="86.1387">«public class»</text><text fill="#EEEEEE" font-family="sans-serif" font-size="16" font-style="italic" lengthAdjust="spacingAndGlyphs" textLength="120" x="2466" y="107.8203">Widget_Control</text><line style="stroke: #111111; stroke-width: 1.5;" x1="2434" x2="2590" y1="118.5938" y2="118.5938"/><line style="stroke: #111111; stroke-width: 1.5;" x1="2434" x2="2590" y1="126.5938" y2="126.5938"/><!--MD5=[5d26c2a5818dc804a1d52e682027e370]
class Select_Control--><rect codeLine="54" fill="url(#gw88dh0k2tndi1)" height="66.5938" id="Select_Control" style="stroke: #111111; stroke-width: 1.5;" width="149" x="2149.5" y="195"/><ellipse cx="2165.5" cy="220.2969" fill="#ADD1B2" rx="12" ry="12" style="stroke: #111111; stroke-width: 1.0;"/><path d="M2168.4375,226.3281 Q2167.75,226.6875 2167.0313,226.8594 Q2166.3281,227.0469 2165.5313,227.0469 Q2163.0156,227.0469 2161.6094,225.2656 Q2160.2188,223.4844 2160.2188,220.25 Q2160.2188,217.0313 2161.625,215.2344 Q2163.0313,213.4375 2165.5313,213.4375 Q2166.3281,213.4375 2167.0313,213.625 Q2167.75,213.7969 2168.4375,214.1563 L2168.4375,215.9844 Q2167.7813,215.4375 2167.0313,215.1563 Q2166.2813,214.875 2165.5313,214.875 Q2163.7969,214.875 2162.9375,216.2188 Q2162.0781,217.5469 2162.0781,220.25 Q2162.0781,222.9375 2162.9375,224.2813 Q2163.7969,225.6094 2165.5313,225.6094 Q2166.2969,225.6094 2167.0469,225.3281 Q2167.7969,225.0469 2168.4375,224.5156 L2168.4375,226.3281 Z "/><text fill="#EEEEEE" font-family="sans-serif" font-size="12" font-style="italic" lengthAdjust="spacingAndGlyphs" textLength="87" x="2194.5" y="213.1387">«public class»</text><text fill="#EEEEEE" font-family="sans-serif" font-size="16" lengthAdjust="spacingAndGlyphs" textLength="111" x="2182.5" y="234.8203">Select_Control</text><line style="stroke: #111111; stroke-width: 1.5;" x1="2150.5" x2="2297.5" y1="245.5938" y2="245.5938"/><line style="stroke: #111111; stroke-width: 1.5;" x1="2150.5" x2="2297.5" y1="253.5938" y2="253.5938"/><!--MD5=[7e1d84a14e08744bb11bbd42f070a8d4]
class Number_Control--><rect codeLine="55" fill="url(#gw88dh0k2tndi1)" height="66.5938" id="Number_Control" style="stroke: #111111; stroke-width: 1.5;" width="166" x="2334" y="195"/><ellipse cx="2350" cy="220.2969" fill="#ADD1B2" rx="12" ry="12" style="stroke: #111111; stroke-width: 1.0;"/><path d="M2352.9375,226.3281 Q2352.25,226.6875 2351.5313,226.8594 Q2350.8281,227.0469 2350.0313,227.0469 Q2347.5156,227.0469 2346.1094,225.2656 Q2344.7188,223.4844 2344.7188,220.25 Q2344.7188,217.0313 2346.125,215.2344 Q2347.5313,213.4375 2350.0313,213.4375 Q2350.8281,213.4375 2351.5313,213.625 Q2352.25,213.7969 2352.9375,214.1563 L2352.9375,215.9844 Q2352.2813,215.4375 2351.5313,215.1563 Q2350.7813,214.875 2350.0313,214.875 Q2348.2969,214.875 2347.4375,216.2188 Q2346.5781,217.5469 2346.5781,220.25 Q2346.5781,222.9375 2347.4375,224.2813 Q2348.2969,225.6094 2350.0313,225.6094 Q2350.7969,225.6094 2351.5469,225.3281 Q2352.2969,225.0469 2352.9375,224.5156 L2352.9375,226.3281 Z "/><text fill="#EEEEEE" font-family="sans-serif" font-size="12" font-style="italic" lengthAdjust="spacingAndGlyphs" textLength="87" x="2387.5" y="213.1387">«public class»</text><text fill="#EEEEEE" font-family="sans-serif" font-size="16" lengthAdjust="spacingAndGlyphs" textLength="128" x="2367" y="234.8203">Number_Control</text><line style="stroke: #111111; stroke-width: 1.5;" x1="2335" x2="2499" y1="245.5938" y2="245.5938"/><line style="stroke: #111111; stroke-width: 1.5;" x1="2335" x2="2499" y1="253.5938" y2="253.5938"/><!--MD5=[103b45f8ac1415515f79641623265a5f]
class Color_Control--><rect codeLine="56" fill="url(#gw88dh0k2tndi1)" height="66.5938" id="Color_Control" style="stroke: #111111; stroke-width: 1.5;" width="144" x="2535" y="195"/><ellipse cx="2551" cy="220.2969" fill="#ADD1B2" rx="12" ry="12" style="stroke: #111111; stroke-width: 1.0;"/><path d="M2553.9375,226.3281 Q2553.25,226.6875 2552.5313,226.8594 Q2551.8281,227.0469 2551.0313,227.0469 Q2548.5156,227.0469 2547.1094,225.2656 Q2545.7188,223.4844 2545.7188,220.25 Q2545.7188,217.0313 2547.125,215.2344 Q2548.5313,213.4375 2551.0313,213.4375 Q2551.8281,213.4375 2552.5313,213.625 Q2553.25,213.7969 2553.9375,214.1563 L2553.9375,215.9844 Q2553.2813,215.4375 2552.5313,215.1563 Q2551.7813,214.875 2551.0313,214.875 Q2549.2969,214.875 2548.4375,216.2188 Q2547.5781,217.5469 2547.5781,220.25 Q2547.5781,222.9375 2548.4375,224.2813 Q2549.2969,225.6094 2551.0313,225.6094 Q2551.7969,225.6094 2552.5469,225.3281 Q2553.2969,225.0469 2553.9375,224.5156 L2553.9375,226.3281 Z "/><text fill="#EEEEEE" font-family="sans-serif" font-size="12" font-style="italic" lengthAdjust="spacingAndGlyphs" textLength="87" x="2577.5" y="213.1387">«public class»</text><text fill="#EEEEEE" font-family="sans-serif" font-size="16" lengthAdjust="spacingAndGlyphs" textLength="106" x="2568" y="234.8203">Color_Control</text><line style="stroke: #111111; stroke-width: 1.5;" x1="2536" x2="2678" y1="245.5938" y2="245.5938"/><line style="stroke: #111111; stroke-width: 1.5;" x1="2536" x2="2678" y1="253.5938" y2="253.5938"/><!--MD5=[43f66ae41eba1b4d3dd3978e8768c126]
class Other_Similar_Classes--><rect codeLine="57" fill="url(#gw88dh0k2tndi1)" height="66.5938" id="Other_Similar_Classes" style="stroke: #111111; stroke-width: 1.5;" width="208" x="2714" y="195"/><ellipse cx="2730" cy="220.2969" fill="#ADD1B2" rx="12" ry="12" style="stroke: #111111; stroke-width: 1.0;"/><path d="M2732.9375,226.3281 Q2732.25,226.6875 2731.5313,226.8594 Q2730.8281,227.0469 2730.0313,227.0469 Q2727.5156,227.0469 2726.1094,225.2656 Q2724.7188,223.4844 2724.7188,220.25 Q2724.7188,217.0313 2726.125,215.2344 Q2727.5313,213.4375 2730.0313,213.4375 Q2730.8281,213.4375 2731.5313,213.625 Q2732.25,213.7969 2732.9375,214.1563 L2732.9375,215.9844 Q2732.2813,215.4375 2731.5313,215.1563 Q2730.7813,214.875 2730.0313,214.875 Q2728.2969,214.875 2727.4375,216.2188 Q2726.5781,217.5469 2726.5781,220.25 Q2726.5781,222.9375 2727.4375,224.2813 Q2728.2969,225.6094 2730.0313,225.6094 Q2730.7969,225.6094 2731.5469,225.3281 Q2732.2969,225.0469 2732.9375,224.5156 L2732.9375,226.3281 Z "/><text fill="#EEEEEE" font-family="sans-serif" font-size="12" font-style="italic" lengthAdjust="spacingAndGlyphs" textLength="87" x="2788.5" y="213.1387">«public class»</text><text fill="#EEEEEE" font-family="sans-serif" font-size="16" lengthAdjust="spacingAndGlyphs" textLength="170" x="2747" y="234.8203">Other_Similar_Classes</text><line style="stroke: #111111; stroke-width: 1.5;" x1="2715" x2="2921" y1="245.5938" y2="245.5938"/><line style="stroke: #111111; stroke-width: 1.5;" x1="2715" x2="2921" y1="253.5938" y2="253.5938"/><!--MD5=[f2ff5728977676709ad70da68364f96a]
class Interface_Admin_Menu_Tab--><rect codeLine="61" fill="url(#gw88dh0k2tndi0)" height="64.2656" id="Interface_Admin_Menu_Tab" style="stroke: #111111; stroke-width: 1.5;" width="227" x="673.5" y="196.5"/><ellipse cx="689.5" cy="220.6328" fill="#B4A7E5" rx="12" ry="12" style="stroke: #111111; stroke-width: 1.0;"/><path d="M685.2656,214.0078 L692.5469,214.0078 L692.5469,215.5078 L689.7969,215.5078 L689.7969,225.6328 L692.5469,225.6328 L692.5469,227.1328 L685.2656,227.1328 L685.2656,225.6328 L688.0156,225.6328 L688.0156,215.5078 L685.2656,215.5078 L685.2656,214.0078 Z "/><text fill="#EEEEEE" font-family="sans-serif" font-size="12" font-style="italic" lengthAdjust="spacingAndGlyphs" textLength="93" x="754.5" y="214.6387">«private class»</text><text fill="#EEEEEE" font-family="sans-serif" font-size="14" font-style="italic" lengthAdjust="spacingAndGlyphs" textLength="189" x="706.5" y="234.4639">Interface_Admin_Menu_Tab</text><line style="stroke: #111111; stroke-width: 1.5;" x1="674.5" x2="899.5" y1="244.7656" y2="244.7656"/><line style="stroke: #111111; stroke-width: 1.5;" x1="674.5" x2="899.5" y1="252.7656" y2="252.7656"/><!--MD5=[349e6a18946b157a7b3024fe5550fe62]
class Documentation_Tab--><rect codeLine="62" fill="url(#gw88dh0k2tndi0)" height="64.2656" id="Documentation_Tab" style="stroke: #111111; stroke-width: 1.5;" width="178" x="418" y="322"/><ellipse cx="434" cy="346.1328" fill="#ADD1B2" rx="12" ry="12" style="stroke: #111111; stroke-width: 1.0;"/><path d="M436.9375,352.1641 Q436.25,352.5234 435.5313,352.6953 Q434.8281,352.8828 434.0313,352.8828 Q431.5156,352.8828 430.1094,351.1016 Q428.7188,349.3203 428.7188,346.0859 Q428.7188,342.8672 430.125,341.0703 Q431.5313,339.2734 434.0313,339.2734 Q434.8281,339.2734 435.5313,339.4609 Q436.25,339.6328 436.9375,339.9922 L436.9375,341.8203 Q436.2813,341.2734 435.5313,340.9922 Q434.7813,340.7109 434.0313,340.7109 Q432.2969,340.7109 431.4375,342.0547 Q430.5781,343.3828 430.5781,346.0859 Q430.5781,348.7734 431.4375,350.1172 Q432.2969,351.4453 434.0313,351.4453 Q434.7969,351.4453 435.5469,351.1641 Q436.2969,350.8828 436.9375,350.3516 L436.9375,352.1641 Z "/><text fill="#EEEEEE" font-family="sans-serif" font-size="12" font-style="italic" lengthAdjust="spacingAndGlyphs" textLength="93" x="474.5" y="340.1387">«private class»</text><text fill="#EEEEEE" font-family="sans-serif" font-size="14" lengthAdjust="spacingAndGlyphs" textLength="140" x="451" y="359.9639">Documentation_Tab</text><line style="stroke: #111111; stroke-width: 1.5;" x1="419" x2="595" y1="370.2656" y2="370.2656"/><line style="stroke: #111111; stroke-width: 1.5;" x1="419" x2="595" y1="378.2656" y2="378.2656"/><!--MD5=[06646ad14c5d7cf88216c241f8b261ff]
class General_Settings_Tab--><rect codeLine="63" fill="url(#gw88dh0k2tndi0)" height="64.2656" id="General_Settings_Tab" style="stroke: #111111; stroke-width: 1.5;" width="189" x="692.5" y="322"/><ellipse cx="708.5" cy="346.1328" fill="#ADD1B2" rx="12" ry="12" style="stroke: #111111; stroke-width: 1.0;"/><path d="M711.4375,352.1641 Q710.75,352.5234 710.0313,352.6953 Q709.3281,352.8828 708.5313,352.8828 Q706.0156,352.8828 704.6094,351.1016 Q703.2188,349.3203 703.2188,346.0859 Q703.2188,342.8672 704.625,341.0703 Q706.0313,339.2734 708.5313,339.2734 Q709.3281,339.2734 710.0313,339.4609 Q710.75,339.6328 711.4375,339.9922 L711.4375,341.8203 Q710.7813,341.2734 710.0313,340.9922 Q709.2813,340.7109 708.5313,340.7109 Q706.7969,340.7109 705.9375,342.0547 Q705.0781,343.3828 705.0781,346.0859 Q705.0781,348.7734 705.9375,350.1172 Q706.7969,351.4453 708.5313,351.4453 Q709.2969,351.4453 710.0469,351.1641 Q710.7969,350.8828 711.4375,350.3516 L711.4375,352.1641 Z "/><text fill="#EEEEEE" font-family="sans-serif" font-size="12" font-style="italic" lengthAdjust="spacingAndGlyphs" textLength="93" x="754.5" y="340.1387">«private class»</text><text fill="#EEEEEE" font-family="sans-serif" font-size="14" lengthAdjust="spacingAndGlyphs" textLength="151" x="725.5" y="359.9639">General_Settings_Tab</text><line style="stroke: #111111; stroke-width: 1.5;" x1="693.5" x2="880.5" y1="370.2656" y2="370.2656"/><line style="stroke: #111111; stroke-width: 1.5;" x1="693.5" x2="880.5" y1="378.2656" y2="378.2656"/><!--MD5=[7f354880817d1341540e33fbbd728f70]
class Queries_Tab--><rect codeLine="64" fill="url(#gw88dh0k2tndi0)" height="64.2656" id="Queries_Tab" style="stroke: #111111; stroke-width: 1.5;" width="127" x="1457.5" y="322"/><ellipse cx="1473.5" cy="346.1328" fill="#ADD1B2" rx="12" ry="12" style="stroke: #111111; stroke-width: 1.0;"/><path d="M1476.4375,352.1641 Q1475.75,352.5234 1475.0313,352.6953 Q1474.3281,352.8828 1473.5313,352.8828 Q1471.0156,352.8828 1469.6094,351.1016 Q1468.2188,349.3203 1468.2188,346.0859 Q1468.2188,342.8672 1469.625,341.0703 Q1471.0313,339.2734 1473.5313,339.2734 Q1474.3281,339.2734 1475.0313,339.4609 Q1475.75,339.6328 1476.4375,339.9922 L1476.4375,341.8203 Q1475.7813,341.2734 1475.0313,340.9922 Q1474.2813,340.7109 1473.5313,340.7109 Q1471.7969,340.7109 1470.9375,342.0547 Q1470.0781,343.3828 1470.0781,346.0859 Q1470.0781,348.7734 1470.9375,350.1172 Q1471.7969,351.4453 1473.5313,351.4453 Q1474.2969,351.4453 1475.0469,351.1641 Q1475.7969,350.8828 1476.4375,350.3516 L1476.4375,352.1641 Z "/><text fill="#EEEEEE" font-family="sans-serif" font-size="12" font-style="italic" lengthAdjust="spacingAndGlyphs" textLength="93" x="1488.5" y="340.1387">«private class»</text><text fill="#EEEEEE" font-family="sans-serif" font-size="14" lengthAdjust="spacingAndGlyphs" textLength="87" x="1491.5" y="359.9639">Queries_Tab</text><line style="stroke: #111111; stroke-width: 1.5;" x1="1458.5" x2="1583.5" y1="370.2656" y2="370.2656"/><line style="stroke: #111111; stroke-width: 1.5;" x1="1458.5" x2="1583.5" y1="378.2656" y2="378.2656"/><!--MD5=[cf45b9a2cf90d6da1d94ada3b5c51c01]
class Icons_Documentation--><rect codeLine="67" fill="url(#gw88dh0k2tndi0)" height="64.2656" id="Icons_Documentation" style="stroke: #111111; stroke-width: 1.5;" width="189" x="222.5" y="462.5"/><ellipse cx="238.5" cy="486.6328" fill="#ADD1B2" rx="12" ry="12" style="stroke: #111111; stroke-width: 1.0;"/><path d="M241.4375,492.6641 Q240.75,493.0234 240.0313,493.1953 Q239.3281,493.3828 238.5313,493.3828 Q236.0156,493.3828 234.6094,491.6016 Q233.2188,489.8203 233.2188,486.5859 Q233.2188,483.3672 234.625,481.5703 Q236.0313,479.7734 238.5313,479.7734 Q239.3281,479.7734 240.0313,479.9609 Q240.75,480.1328 241.4375,480.4922 L241.4375,482.3203 Q240.7813,481.7734 240.0313,481.4922 Q239.2813,481.2109 238.5313,481.2109 Q236.7969,481.2109 235.9375,482.5547 Q235.0781,483.8828 235.0781,486.5859 Q235.0781,489.2734 235.9375,490.6172 Q236.7969,491.9453 238.5313,491.9453 Q239.2969,491.9453 240.0469,491.6641 Q240.7969,491.3828 241.4375,490.8516 L241.4375,492.6641 Z "/><text fill="#EEEEEE" font-family="sans-serif" font-size="12" font-style="italic" lengthAdjust="spacingAndGlyphs" textLength="93" x="284.5" y="480.6387">«private class»</text><text fill="#EEEEEE" font-family="sans-serif" font-size="14" lengthAdjust="spacingAndGlyphs" textLength="151" x="255.5" y="500.4639">Icons_Documentation</text><line style="stroke: #111111; stroke-width: 1.5;" x1="223.5" x2="410.5" y1="510.7656" y2="510.7656"/><line style="stroke: #111111; stroke-width: 1.5;" x1="223.5" x2="410.5" y1="518.7656" y2="518.7656"/><!--MD5=[311bca9c219758a644194d8bbf62a4a5]
class License_Display--><rect codeLine="68" fill="url(#gw88dh0k2tndi0)" height="64.2656" id="License_Display" style="stroke: #111111; stroke-width: 1.5;" width="147" x="40.5" y="462.5"/><ellipse cx="56.5" cy="486.6328" fill="#ADD1B2" rx="12" ry="12" style="stroke: #111111; stroke-width: 1.0;"/><path d="M59.4375,492.6641 Q58.75,493.0234 58.0313,493.1953 Q57.3281,493.3828 56.5313,493.3828 Q54.0156,493.3828 52.6094,491.6016 Q51.2188,489.8203 51.2188,486.5859 Q51.2188,483.3672 52.625,481.5703 Q54.0313,479.7734 56.5313,479.7734 Q57.3281,479.7734 58.0313,479.9609 Q58.75,480.1328 59.4375,480.4922 L59.4375,482.3203 Q58.7813,481.7734 58.0313,481.4922 Q57.2813,481.2109 56.5313,481.2109 Q54.7969,481.2109 53.9375,482.5547 Q53.0781,483.8828 53.0781,486.5859 Q53.0781,489.2734 53.9375,490.6172 Q54.7969,491.9453 56.5313,491.9453 Q57.2969,491.9453 58.0469,491.6641 Q58.7969,491.3828 59.4375,490.8516 L59.4375,492.6641 Z "/><text fill="#EEEEEE" font-family="sans-serif" font-size="12" font-style="italic" lengthAdjust="spacingAndGlyphs" textLength="93" x="81.5" y="480.6387">«private class»</text><text fill="#EEEEEE" font-family="sans-serif" font-size="14" lengthAdjust="spacingAndGlyphs" textLength="109" x="73.5" y="500.4639">License_Display</text><line style="stroke: #111111; stroke-width: 1.5;" x1="41.5" x2="186.5" y1="510.7656" y2="510.7656"/><line style="stroke: #111111; stroke-width: 1.5;" x1="41.5" x2="186.5" y1="518.7656" y2="518.7656"/><!--MD5=[a8be521b82384408c14ed1d12d01d74b]
class General_Settings_Factory--><rect codeLine="72" fill="url(#gw88dh0k2tndi0)" height="97.3672" id="General_Settings_Factory" style="stroke: #111111; stroke-width: 1.5;" width="213" x="680.5" y="446"/><ellipse cx="696.5" cy="477.1172" fill="#ADD1B2" rx="12" ry="12" style="stroke: #111111; stroke-width: 1.0;"/><path d="M699.4375,483.1484 Q698.75,483.5078 698.0313,483.6797 Q697.3281,483.8672 696.5313,483.8672 Q694.0156,483.8672 692.6094,482.0859 Q691.2188,480.3047 691.2188,477.0703 Q691.2188,473.8516 692.625,472.0547 Q694.0313,470.2578 696.5313,470.2578 Q697.3281,470.2578 698.0313,470.4453 Q698.75,470.6172 699.4375,470.9766 L699.4375,472.8047 Q698.7813,472.2578 698.0313,471.9766 Q697.2813,471.6953 696.5313,471.6953 Q694.7969,471.6953 693.9375,473.0391 Q693.0781,474.3672 693.0781,477.0703 Q693.0781,479.7578 693.9375,481.1016 Q694.7969,482.4297 696.5313,482.4297 Q697.2969,482.4297 698.0469,482.1484 Q698.7969,481.8672 699.4375,481.3359 L699.4375,483.1484 Z "/><text fill="#EEEEEE" font-family="sans-serif" font-size="12" font-style="italic" lengthAdjust="spacingAndGlyphs" textLength="93" x="754.5" y="464.1387">«private class»</text><text fill="#EEEEEE" font-family="sans-serif" font-size="12" font-style="italic" lengthAdjust="spacingAndGlyphs" textLength="60" x="771" y="478.1074">«Facade»</text><text fill="#EEEEEE" font-family="sans-serif" font-size="14" lengthAdjust="spacingAndGlyphs" textLength="175" x="713.5" y="497.9326">General_Settings_Factory</text><line style="stroke: #111111; stroke-width: 1.5;" x1="681.5" x2="892.5" y1="508.2344" y2="508.2344"/><line style="stroke: #111111; stroke-width: 1.5;" x1="681.5" x2="892.5" y1="516.2344" y2="516.2344"/><ellipse cx="693.5" cy="529.2344" fill="#84BE84" rx="5" ry="5" style="stroke: #038048; stroke-width: 1.0;"/><text fill="#EEEEEE" font-family="sans-serif" font-size="13" lengthAdjust="spacingAndGlyphs" textLength="158" x="703.5" y="534.3013">display( $setting_name )</text><!--MD5=[9b6bb3cdfae7ec5bc2976c073d2a4cfe]
class General_Settings_Creator--><rect codeLine="76" fill="url(#gw88dh0k2tndi0)" height="64.2656" id="General_Settings_Creator" style="stroke: #111111; stroke-width: 1.5;" width="214" x="680" y="603"/><ellipse cx="696" cy="627.1328" fill="#B4A7E5" rx="12" ry="12" style="stroke: #111111; stroke-width: 1.0;"/><path d="M691.7656,620.5078 L699.0469,620.5078 L699.0469,622.0078 L696.2969,622.0078 L696.2969,632.1328 L699.0469,632.1328 L699.0469,633.6328 L691.7656,633.6328 L691.7656,632.1328 L694.5156,632.1328 L694.5156,622.0078 L691.7656,622.0078 L691.7656,620.5078 Z "/><text fill="#EEEEEE" font-family="sans-serif" font-size="12" font-style="italic" lengthAdjust="spacingAndGlyphs" textLength="93" x="754.5" y="621.1387">«private class»</text><text fill="#EEEEEE" font-family="sans-serif" font-size="14" font-style="italic" lengthAdjust="spacingAndGlyphs" textLength="176" x="713" y="640.9639">General_Settings_Creator</text><line style="stroke: #111111; stroke-width: 1.5;" x1="681" x2="893" y1="651.2656" y2="651.2656"/><line style="stroke: #111111; stroke-width: 1.5;" x1="681" x2="893" y1="659.2656" y2="659.2656"/><!--MD5=[5de17b5d815dcc8ab119b84a3bc783cb]
class General_Select_Setting--><rect codeLine="77" fill="url(#gw88dh0k2tndi0)" height="64.2656" id="General_Select_Setting" style="stroke: #111111; stroke-width: 1.5;" width="198" x="1242" y="727"/><ellipse cx="1258" cy="751.1328" fill="#ADD1B2" rx="12" ry="12" style="stroke: #111111; stroke-width: 1.0;"/><path d="M1260.9375,757.1641 Q1260.25,757.5234 1259.5313,757.6953 Q1258.8281,757.8828 1258.0313,757.8828 Q1255.5156,757.8828 1254.1094,756.1016 Q1252.7188,754.3203 1252.7188,751.0859 Q1252.7188,747.8672 1254.125,746.0703 Q1255.5313,744.2734 1258.0313,744.2734 Q1258.8281,744.2734 1259.5313,744.4609 Q1260.25,744.6328 1260.9375,744.9922 L1260.9375,746.8203 Q1260.2813,746.2734 1259.5313,745.9922 Q1258.7813,745.7109 1258.0313,745.7109 Q1256.2969,745.7109 1255.4375,747.0547 Q1254.5781,748.3828 1254.5781,751.0859 Q1254.5781,753.7734 1255.4375,755.1172 Q1256.2969,756.4453 1258.0313,756.4453 Q1258.7969,756.4453 1259.5469,756.1641 Q1260.2969,755.8828 1260.9375,755.3516 L1260.9375,757.1641 Z "/><text fill="#EEEEEE" font-family="sans-serif" font-size="12" font-style="italic" lengthAdjust="spacingAndGlyphs" textLength="93" x="1308.5" y="745.1387">«private class»</text><text fill="#EEEEEE" font-family="sans-serif" font-size="14" lengthAdjust="spacingAndGlyphs" textLength="160" x="1275" y="764.9639">General_Select_Setting</text><line style="stroke: #111111; stroke-width: 1.5;" x1="1243" x2="1439" y1="775.2656" y2="775.2656"/><line style="stroke: #111111; stroke-width: 1.5;" x1="1243" x2="1439" y1="783.2656" y2="783.2656"/><!--MD5=[38cce3347a28bcc7769ae43d9751f150]
class General_Select_With_Switch_Setting--><rect codeLine="78" fill="url(#gw88dh0k2tndi0)" height="64.2656" id="General_Select_With_Switch_Setting" style="stroke: #111111; stroke-width: 1.5;" width="287" x="919.5" y="727"/><ellipse cx="935.5" cy="751.1328" fill="#ADD1B2" rx="12" ry="12" style="stroke: #111111; stroke-width: 1.0;"/><path d="M938.4375,757.1641 Q937.75,757.5234 937.0313,757.6953 Q936.3281,757.8828 935.5313,757.8828 Q933.0156,757.8828 931.6094,756.1016 Q930.2188,754.3203 930.2188,751.0859 Q930.2188,747.8672 931.625,746.0703 Q933.0313,744.2734 935.5313,744.2734 Q936.3281,744.2734 937.0313,744.4609 Q937.75,744.6328 938.4375,744.9922 L938.4375,746.8203 Q937.7813,746.2734 937.0313,745.9922 Q936.2813,745.7109 935.5313,745.7109 Q933.7969,745.7109 932.9375,747.0547 Q932.0781,748.3828 932.0781,751.0859 Q932.0781,753.7734 932.9375,755.1172 Q933.7969,756.4453 935.5313,756.4453 Q936.2969,756.4453 937.0469,756.1641 Q937.7969,755.8828 938.4375,755.3516 L938.4375,757.1641 Z "/><text fill="#EEEEEE" font-family="sans-serif" font-size="12" font-style="italic" lengthAdjust="spacingAndGlyphs" textLength="93" x="1030.5" y="745.1387">«private class»</text><text fill="#EEEEEE" font-family="sans-serif" font-size="14" lengthAdjust="spacingAndGlyphs" textLength="249" x="952.5" y="764.9639">General_Select_With_Switch_Setting</text><line style="stroke: #111111; stroke-width: 1.5;" x1="920.5" x2="1205.5" y1="775.2656" y2="775.2656"/><line style="stroke: #111111; stroke-width: 1.5;" x1="920.5" x2="1205.5" y1="783.2656" y2="783.2656"/><!--MD5=[9395760248497a50bbf42efa6838fec0]
class General_Text_Setting--><rect codeLine="79" fill="url(#gw88dh0k2tndi0)" height="64.2656" id="General_Text_Setting" style="stroke: #111111; stroke-width: 1.5;" width="185" x="470.5" y="727"/><ellipse cx="486.5" cy="751.1328" fill="#ADD1B2" rx="12" ry="12" style="stroke: #111111; stroke-width: 1.0;"/><path d="M489.4375,757.1641 Q488.75,757.5234 488.0313,757.6953 Q487.3281,757.8828 486.5313,757.8828 Q484.0156,757.8828 482.6094,756.1016 Q481.2188,754.3203 481.2188,751.0859 Q481.2188,747.8672 482.625,746.0703 Q484.0313,744.2734 486.5313,744.2734 Q487.3281,744.2734 488.0313,744.4609 Q488.75,744.6328 489.4375,744.9922 L489.4375,746.8203 Q488.7813,746.2734 488.0313,745.9922 Q487.2813,745.7109 486.5313,745.7109 Q484.7969,745.7109 483.9375,747.0547 Q483.0781,748.3828 483.0781,751.0859 Q483.0781,753.7734 483.9375,755.1172 Q484.7969,756.4453 486.5313,756.4453 Q487.2969,756.4453 488.0469,756.1641 Q488.7969,755.8828 489.4375,755.3516 L489.4375,757.1641 Z "/><text fill="#EEEEEE" font-family="sans-serif" font-size="12" font-style="italic" lengthAdjust="spacingAndGlyphs" textLength="93" x="530.5" y="745.1387">«private class»</text><text fill="#EEEEEE" font-family="sans-serif" font-size="14" lengthAdjust="spacingAndGlyphs" textLength="147" x="503.5" y="764.9639">General_Text_Setting</text><line style="stroke: #111111; stroke-width: 1.5;" x1="471.5" x2="654.5" y1="775.2656" y2="775.2656"/><line style="stroke: #111111; stroke-width: 1.5;" x1="471.5" x2="654.5" y1="783.2656" y2="783.2656"/><!--MD5=[5ac334d1f7c8825f36594a0a03e18dc0]
class General_Radio_Setting--><rect codeLine="80" fill="url(#gw88dh0k2tndi0)" height="64.2656" id="General_Radio_Setting" style="stroke: #111111; stroke-width: 1.5;" width="194" x="690" y="727"/><ellipse cx="706" cy="751.1328" fill="#ADD1B2" rx="12" ry="12" style="stroke: #111111; stroke-width: 1.0;"/><path d="M708.9375,757.1641 Q708.25,757.5234 707.5313,757.6953 Q706.8281,757.8828 706.0313,757.8828 Q703.5156,757.8828 702.1094,756.1016 Q700.7188,754.3203 700.7188,751.0859 Q700.7188,747.8672 702.125,746.0703 Q703.5313,744.2734 706.0313,744.2734 Q706.8281,744.2734 707.5313,744.4609 Q708.25,744.6328 708.9375,744.9922 L708.9375,746.8203 Q708.2813,746.2734 707.5313,745.9922 Q706.7813,745.7109 706.0313,745.7109 Q704.2969,745.7109 703.4375,747.0547 Q702.5781,748.3828 702.5781,751.0859 Q702.5781,753.7734 703.4375,755.1172 Q704.2969,756.4453 706.0313,756.4453 Q706.7969,756.4453 707.5469,756.1641 Q708.2969,755.8828 708.9375,755.3516 L708.9375,757.1641 Z "/><text fill="#EEEEEE" font-family="sans-serif" font-size="12" font-style="italic" lengthAdjust="spacingAndGlyphs" textLength="93" x="754.5" y="745.1387">«private class»</text><text fill="#EEEEEE" font-family="sans-serif" font-size="14" lengthAdjust="spacingAndGlyphs" textLength="156" x="723" y="764.9639">General_Radio_Setting</text><line style="stroke: #111111; stroke-width: 1.5;" x1="691" x2="883" y1="775.2656" y2="775.2656"/><line style="stroke: #111111; stroke-width: 1.5;" x1="691" x2="883" y1="783.2656" y2="783.2656"/><!--MD5=[dd1e58bcfcf7b7268efe1ab8fc819155]
class Existing_Table--><rect codeLine="90" fill="url(#gw88dh0k2tndi0)" height="64.2656" id="Existing_Table" style="stroke: #111111; stroke-width: 1.5;" width="136" x="1933" y="462.5"/><ellipse cx="1949" cy="486.6328" fill="#ADD1B2" rx="12" ry="12" style="stroke: #111111; stroke-width: 1.0;"/><path d="M1951.9375,492.6641 Q1951.25,493.0234 1950.5313,493.1953 Q1949.8281,493.3828 1949.0313,493.3828 Q1946.5156,493.3828 1945.1094,491.6016 Q1943.7188,489.8203 1943.7188,486.5859 Q1943.7188,483.3672 1945.125,481.5703 Q1946.5313,479.7734 1949.0313,479.7734 Q1949.8281,479.7734 1950.5313,479.9609 Q1951.25,480.1328 1951.9375,480.4922 L1951.9375,482.3203 Q1951.2813,481.7734 1950.5313,481.4922 Q1949.7813,481.2109 1949.0313,481.2109 Q1947.2969,481.2109 1946.4375,482.5547 Q1945.5781,483.8828 1945.5781,486.5859 Q1945.5781,489.2734 1946.4375,490.6172 Q1947.2969,491.9453 1949.0313,491.9453 Q1949.7969,491.9453 1950.5469,491.6641 Q1951.2969,491.3828 1951.9375,490.8516 L1951.9375,492.6641 Z "/><text fill="#EEEEEE" font-family="sans-serif" font-size="12" font-style="italic" lengthAdjust="spacingAndGlyphs" textLength="93" x="1968.5" y="480.6387">«private class»</text><text fill="#EEEEEE" font-family="sans-serif" font-size="14" lengthAdjust="spacingAndGlyphs" textLength="98" x="1966" y="500.4639">Existing_Table</text><line style="stroke: #111111; stroke-width: 1.5;" x1="1934" x2="2068" y1="510.7656" y2="510.7656"/><line style="stroke: #111111; stroke-width: 1.5;" x1="1934" x2="2068" y1="518.7656" y2="518.7656"/><!--MD5=[e2b9269511542e3cd7f88af802e75ba3]
class Modify_Query_Settings--><rect codeLine="91" fill="url(#gw88dh0k2tndi0)" height="64.2656" id="Modify_Query_Settings" style="stroke: #111111; stroke-width: 1.5;" width="194" x="1704" y="462.5"/><ellipse cx="1720" cy="486.6328" fill="#ADD1B2" rx="12" ry="12" style="stroke: #111111; stroke-width: 1.0;"/><path d="M1722.9375,492.6641 Q1722.25,493.0234 1721.5313,493.1953 Q1720.8281,493.3828 1720.0313,493.3828 Q1717.5156,493.3828 1716.1094,491.6016 Q1714.7188,489.8203 1714.7188,486.5859 Q1714.7188,483.3672 1716.125,481.5703 Q1717.5313,479.7734 1720.0313,479.7734 Q1720.8281,479.7734 1721.5313,479.9609 Q1722.25,480.1328 1722.9375,480.4922 L1722.9375,482.3203 Q1722.2813,481.7734 1721.5313,481.4922 Q1720.7813,481.2109 1720.0313,481.2109 Q1718.2969,481.2109 1717.4375,482.5547 Q1716.5781,483.8828 1716.5781,486.5859 Q1716.5781,489.2734 1717.4375,490.6172 Q1718.2969,491.9453 1720.0313,491.9453 Q1720.7969,491.9453 1721.5469,491.6641 Q1722.2969,491.3828 1722.9375,490.8516 L1722.9375,492.6641 Z "/><text fill="#EEEEEE" font-family="sans-serif" font-size="12" font-style="italic" lengthAdjust="spacingAndGlyphs" textLength="93" x="1768.5" y="480.6387">«private class»</text><text fill="#EEEEEE" font-family="sans-serif" font-size="14" lengthAdjust="spacingAndGlyphs" textLength="156" x="1737" y="500.4639">Modify_Query_Settings</text><line style="stroke: #111111; stroke-width: 1.5;" x1="1705" x2="1897" y1="510.7656" y2="510.7656"/><line style="stroke: #111111; stroke-width: 1.5;" x1="1705" x2="1897" y1="518.7656" y2="518.7656"/><!--MD5=[5368e1cc4c16fdc7e47e78ac99419597]
class Query_Setting_Display--><rect codeLine="93" fill="url(#gw88dh0k2tndi0)" height="64.2656" id="Query_Setting_Display" style="stroke: #111111; stroke-width: 1.5;" width="191" x="1477.5" y="462.5"/><ellipse cx="1493.5" cy="486.6328" fill="#B4A7E5" rx="12" ry="12" style="stroke: #111111; stroke-width: 1.0;"/><path d="M1489.2656,480.0078 L1496.5469,480.0078 L1496.5469,481.5078 L1493.7969,481.5078 L1493.7969,491.6328 L1496.5469,491.6328 L1496.5469,493.1328 L1489.2656,493.1328 L1489.2656,491.6328 L1492.0156,491.6328 L1492.0156,481.5078 L1489.2656,481.5078 L1489.2656,480.0078 Z "/><text fill="#EEEEEE" font-family="sans-serif" font-size="12" font-style="italic" lengthAdjust="spacingAndGlyphs" textLength="93" x="1540.5" y="480.6387">«private class»</text><text fill="#EEEEEE" font-family="sans-serif" font-size="14" font-style="italic" lengthAdjust="spacingAndGlyphs" textLength="153" x="1510.5" y="500.4639">Query_Setting_Display</text><line style="stroke: #111111; stroke-width: 1.5;" x1="1478.5" x2="1667.5" y1="510.7656" y2="510.7656"/><line style="stroke: #111111; stroke-width: 1.5;" x1="1478.5" x2="1667.5" y1="518.7656" y2="518.7656"/><!--MD5=[4e9930642eb2947afcb50d185bec7661]
class Author_Display--><rect codeLine="94" fill="url(#gw88dh0k2tndi0)" height="64.2656" id="Author_Display" style="stroke: #111111; stroke-width: 1.5;" width="140" x="1464" y="603"/><ellipse cx="1480" cy="627.1328" fill="#ADD1B2" rx="12" ry="12" style="stroke: #111111; stroke-width: 1.0;"/><path d="M1482.9375,633.1641 Q1482.25,633.5234 1481.5313,633.6953 Q1480.8281,633.8828 1480.0313,633.8828 Q1477.5156,633.8828 1476.1094,632.1016 Q1474.7188,630.3203 1474.7188,627.0859 Q1474.7188,623.8672 1476.125,622.0703 Q1477.5313,620.2734 1480.0313,620.2734 Q1480.8281,620.2734 1481.5313,620.4609 Q1482.25,620.6328 1482.9375,620.9922 L1482.9375,622.8203 Q1482.2813,622.2734 1481.5313,621.9922 Q1480.7813,621.7109 1480.0313,621.7109 Q1478.2969,621.7109 1477.4375,623.0547 Q1476.5781,624.3828 1476.5781,627.0859 Q1476.5781,629.7734 1477.4375,631.1172 Q1478.2969,632.4453 1480.0313,632.4453 Q1480.7969,632.4453 1481.5469,632.1641 Q1482.2969,631.8828 1482.9375,631.3516 L1482.9375,633.1641 Z "/><text fill="#EEEEEE" font-family="sans-serif" font-size="12" font-style="italic" lengthAdjust="spacingAndGlyphs" textLength="93" x="1501.5" y="621.1387">«private class»</text><text fill="#EEEEEE" font-family="sans-serif" font-size="14" lengthAdjust="spacingAndGlyphs" textLength="102" x="1497" y="640.9639">Author_Display</text><line style="stroke: #111111; stroke-width: 1.5;" x1="1465" x2="1603" y1="651.2656" y2="651.2656"/><line style="stroke: #111111; stroke-width: 1.5;" x1="1465" x2="1603" y1="659.2656" y2="659.2656"/><!--MD5=[fba17e7b32fbe8b39a308916758e1d0d]
class Category_Display--><rect codeLine="95" fill="url(#gw88dh0k2tndi0)" height="64.2656" id="Category_Display" style="stroke: #111111; stroke-width: 1.5;" width="156" x="1639" y="603"/><ellipse cx="1655" cy="627.1328" fill="#ADD1B2" rx="12" ry="12" style="stroke: #111111; stroke-width: 1.0;"/><path d="M1657.9375,633.1641 Q1657.25,633.5234 1656.5313,633.6953 Q1655.8281,633.8828 1655.0313,633.8828 Q1652.5156,633.8828 1651.1094,632.1016 Q1649.7188,630.3203 1649.7188,627.0859 Q1649.7188,623.8672 1651.125,622.0703 Q1652.5313,620.2734 1655.0313,620.2734 Q1655.8281,620.2734 1656.5313,620.4609 Q1657.25,620.6328 1657.9375,620.9922 L1657.9375,622.8203 Q1657.2813,622.2734 1656.5313,621.9922 Q1655.7813,621.7109 1655.0313,621.7109 Q1653.2969,621.7109 1652.4375,623.0547 Q1651.5781,624.3828 1651.5781,627.0859 Q1651.5781,629.7734 1652.4375,631.1172 Q1653.2969,632.4453 1655.0313,632.4453 Q1655.7969,632.4453 1656.5469,632.1641 Q1657.2969,631.8828 1657.9375,631.3516 L1657.9375,633.1641 Z "/><text fill="#EEEEEE" font-family="sans-serif" font-size="12" font-style="italic" lengthAdjust="spacingAndGlyphs" textLength="93" x="1684.5" y="621.1387">«private class»</text><text fill="#EEEEEE" font-family="sans-serif" font-size="14" lengthAdjust="spacingAndGlyphs" textLength="118" x="1672" y="640.9639">Category_Display</text><line style="stroke: #111111; stroke-width: 1.5;" x1="1640" x2="1794" y1="651.2656" y2="651.2656"/><line style="stroke: #111111; stroke-width: 1.5;" x1="1640" x2="1794" y1="659.2656" y2="659.2656"/><!--MD5=[c35528968e066a2225c268225e2bbae4]
class All_Other_Classes_From_This_Folder--><rect codeLine="96" fill="url(#gw88dh0k2tndi0)" height="64.2656" id="All_Other_Classes_From_This_Folder" style="stroke: #111111; stroke-width: 1.5;" width="288" x="1830" y="603"/><ellipse cx="1846" cy="627.1328" fill="#ADD1B2" rx="12" ry="12" style="stroke: #111111; stroke-width: 1.0;"/><path d="M1848.9375,633.1641 Q1848.25,633.5234 1847.5313,633.6953 Q1846.8281,633.8828 1846.0313,633.8828 Q1843.5156,633.8828 1842.1094,632.1016 Q1840.7188,630.3203 1840.7188,627.0859 Q1840.7188,623.8672 1842.125,622.0703 Q1843.5313,620.2734 1846.0313,620.2734 Q1846.8281,620.2734 1847.5313,620.4609 Q1848.25,620.6328 1848.9375,620.9922 L1848.9375,622.8203 Q1848.2813,622.2734 1847.5313,621.9922 Q1846.7813,621.7109 1846.0313,621.7109 Q1844.2969,621.7109 1843.4375,623.0547 Q1842.5781,624.3828 1842.5781,627.0859 Q1842.5781,629.7734 1843.4375,631.1172 Q1844.2969,632.4453 1846.0313,632.4453 Q1846.7969,632.4453 1847.5469,632.1641 Q1848.2969,631.8828 1848.9375,631.3516 L1848.9375,633.1641 Z "/><text fill="#EEEEEE" font-family="sans-serif" font-size="12" font-style="italic" lengthAdjust="spacingAndGlyphs" textLength="93" x="1941.5" y="621.1387">«private class»</text><text fill="#EEEEEE" font-family="sans-serif" font-size="14" lengthAdjust="spacingAndGlyphs" textLength="250" x="1863" y="640.9639">All_Other_Classes_From_This_Folder</text><line style="stroke: #111111; stroke-width: 1.5;" x1="1831" x2="2117" y1="651.2656" y2="651.2656"/><line style="stroke: #111111; stroke-width: 1.5;" x1="1831" x2="2117" y1="659.2656" y2="659.2656"/><!--MD5=[b80055a172be9eda9cdda363324f0e03]
reverse link Widget_Control to Select_Control--><path d="M2426.893,141.1899 C2376.9196,155.7297 2358.886,147.6301 2317,165.5 C2299.4213,172.9996 2281.6725,183.9897 2266.46,194.6989 " fill="none" id="Widget_Control-backto-Select_Control" style="stroke: #FFFF00; stroke-width: 1.0; stroke-dasharray: 7.0,7.0;"/><polygon fill="none" points="2424.8092,134.5069,2445.9926,135.0232,2429.1108,147.8297,2424.8092,134.5069" style="stroke: #FFFF00; stroke-width: 1.0;"/><!--MD5=[592053b74943100c0e52cfc4d7ec180a]
reverse link Widget_Control to Number_Control--><path d="M2474.575,151.5313 C2463.7612,165.9877 2452.2171,181.4203 2442.3266,194.6423 " fill="none" id="Widget_Control-backto-Number_Control" style="stroke: #FFFF00; stroke-width: 1.0; stroke-dasharray: 7.0,7.0;"/><polygon fill="none" points="2469.206,147.0224,2486.7912,135.2002,2480.4166,155.4083,2469.206,147.0224" style="stroke: #FFFF00; stroke-width: 1.0;"/><!--MD5=[2038e17d1d3ea9321a005387ec481d65]
reverse link Widget_Control to Color_Control--><path d="M2549.425,151.5313 C2560.2388,165.9877 2571.7829,181.4203 2581.6734,194.6423 " fill="none" id="Widget_Control-backto-Color_Control" style="stroke: #FFFF00; stroke-width: 1.0; stroke-dasharray: 7.0,7.0;"/><polygon fill="none" points="2543.5834,155.4083,2537.2088,135.2002,2554.794,147.0224,2543.5834,155.4083" style="stroke: #FFFF00; stroke-width: 1.0;"/><!--MD5=[770b15684bc834000dada0ff7c54273e]
reverse link Widget_Control to Other_Similar_Classes--><path d="M2610.4182,132.5463 C2638.6964,142.2711 2669.3547,153.5978 2697,165.5 C2717.2306,174.21 2738.7312,184.9059 2757.9091,194.9954 " fill="none" id="Widget_Control-backto-Other_Similar_Classes" style="stroke: #FFFF00; stroke-width: 1.0; stroke-dasharray: 7.0,7.0;"/><polygon fill="none" points="2607.9944,139.1162,2591.2876,126.0822,2612.476,125.8529,2607.9944,139.1162" style="stroke: #FFFF00; stroke-width: 1.0;"/><!--MD5=[31fbbbe0ca4fb70ad7ab9d1ab63e96e5]
link General_Settings_Factory to General_Settings_Creator--><path codeLine="82" d="M787,543.2458 C787,561.0589 787,580.9134 787,597.5848 " fill="none" id="General_Settings_Factory-to-General_Settings_Creator" style="stroke: #FFFF00; stroke-width: 1.0;"/><polygon fill="#FFFF00" points="787,602.6507,791,593.6507,787,597.6507,783,593.6507,787,602.6507" style="stroke: #FFFF00; stroke-width: 1.0;"/><!--MD5=[1cd599653b14e4a70adb3a12d4da470c]
reverse link General_Settings_Creator to General_Select_Setting--><path codeLine="83" d="M914.1009,659.6812 C1001.54,677.1683 1120.1782,701.8971 1224,727 C1229.8336,728.4105 1235.8184,729.9035 1241.8484,731.4433 " fill="none" id="General_Settings_Creator-backto-General_Select_Setting" style="stroke: #FFFF00; stroke-width: 1.0; stroke-dasharray: 7.0,7.0;"/><polygon fill="none" points="912.5052,666.5009,894.2574,655.7298,915.2394,652.7705,912.5052,666.5009" style="stroke: #FFFF00; stroke-width: 1.0;"/><!--MD5=[68416cba36beb92d4f82003b68f3f172]
reverse link General_Settings_Creator to General_Text_Setting--><path codeLine="84" d="M711.259,676.9281 C681.8154,693.2272 648.6243,711.6008 621.1227,726.8249 " fill="none" id="General_Settings_Creator-backto-General_Text_Setting" style="stroke: #FFFF00; stroke-width: 1.0; stroke-dasharray: 7.0,7.0;"/><polygon fill="none" points="708.135,670.6565,729.0231,667.0943,714.9155,682.905,708.135,670.6565" style="stroke: #FFFF00; stroke-width: 1.0;"/><!--MD5=[fec4fee6a4cb092af7768c2f619239b9]
reverse link General_Settings_Creator to General_Radio_Setting--><path codeLine="85" d="M787,687.4467 C787,700.852 787,714.8678 787,726.9057 " fill="none" id="General_Settings_Creator-backto-General_Radio_Setting" style="stroke: #FFFF00; stroke-width: 1.0; stroke-dasharray: 7.0,7.0;"/><polygon fill="none" points="780.0001,687.2559,787,667.2558,794.0001,687.2558,780.0001,687.2559" style="stroke: #FFFF00; stroke-width: 1.0;"/><!--MD5=[98fd3bc6f86940d8c8acaaef93e2049f]
link General_Select_With_Switch_Setting to General_Select_Setting--><path codeLine="86" d="M1206.6152,759 C1211.6527,759 1216.6903,759 1221.7278,759 " fill="none" id="General_Select_With_Switch_Setting-to-General_Select_Setting" style="stroke: #FFFF00; stroke-width: 1.0;"/><polygon fill="none" points="1221.7863,751.9999,1241.7862,759,1221.7862,765.9999,1221.7863,751.9999" style="stroke: #FFFF00; stroke-width: 1.0;"/><!--MD5=[eede1f10b82fe6f482fd6779278c4f7e]
reverse link Query_Setting_Display to Author_Display--><path codeLine="98" d="M1558.628,546.276 C1553.3607,565.2517 1547.5561,586.1632 1542.9058,602.9164 " fill="none" id="Query_Setting_Display-backto-Author_Display" style="stroke: #FFFF00; stroke-width: 1.0; stroke-dasharray: 7.0,7.0;"/><polygon fill="none" points="1551.9582,544.1326,1564.0526,526.7335,1565.4482,547.8772,1551.9582,544.1326" style="stroke: #FFFF00; stroke-width: 1.0;"/><!--MD5=[21e56594f523eed143211c2cc08ba454]
reverse link Query_Setting_Display to Category_Display--><path codeLine="99" d="M1620.5396,540.8841 C1641.371,561.2092 1665.3026,584.5592 1684.1172,602.9164 " fill="none" id="Query_Setting_Display-backto-Category_Display" style="stroke: #FFFF00; stroke-width: 1.0; stroke-dasharray: 7.0,7.0;"/><polygon fill="none" points="1615.4631,545.7109,1606.0365,526.7335,1625.2401,535.6904,1615.4631,545.7109" style="stroke: #FFFF00; stroke-width: 1.0;"/><!--MD5=[b4b286b3e5f16b2895e7697b7772eb9a]
reverse link Query_Setting_Display to All_Other_Classes_From_This_Folder--><path codeLine="100" d="M1664.3933,534.25 C1672.0069,537.2965 1679.614,540.2517 1687,543 C1745.4789,564.76 1811.7522,586.2104 1865.8691,602.918 " fill="none" id="Query_Setting_Display-backto-All_Other_Classes_From_This_Folder" style="stroke: #FFFF00; stroke-width: 1.0; stroke-dasharray: 7.0,7.0;"/><polygon fill="none" points="1661.4391,540.6047,1645.5769,526.555,1666.7384,527.6464,1661.4391,540.6047" style="stroke: #FFFF00; stroke-width: 1.0;"/><!--MD5=[a9471c4fe053f2fd3ffe167949f3959a]
link Documentation_Tab to TWRP\Admin\Tabs\Documentation--><path codeLine="103" d="M473.5221,386.0083 C466.2512,394.7175 459.4217,404.6315 455,415 C453.3675,418.828 452.0078,422.8505 450.8793,426.9695 C450.5972,427.9992 450.3295,429.035 450.0757,430.0753 C450.0122,430.3353 449.9496,430.5957 449.8878,430.8563 C449.857,430.9866 449.8263,431.117 449.7959,431.2474 " fill="none" id="Documentation_Tab-to-TWRP\Admin\Tabs\Documentation" style="stroke: #FFFF00; stroke-width: 1.0;"/><polygon fill="#FFFF00" points="449.7959,431.2474,455.7373,423.3925,450.9326,426.3783,447.9468,421.5737,449.7959,431.2474" style="stroke: #FFFF00; stroke-width: 1.0;"/><!--MD5=[63c334a9f47c40fb4600b56fc83e0b11]
link General_Settings_Tab to General_Settings_Factory--><path codeLine="104" d="M787,386.2335 C787,402.3773 787,422.3541 787,440.7351 " fill="none" id="General_Settings_Tab-to-General_Settings_Factory" style="stroke: #FFFF00; stroke-width: 1.0;"/><polygon fill="#FFFF00" points="787,445.8727,791,436.8727,787,440.8727,783,436.8727,787,445.8727" style="stroke: #FFFF00; stroke-width: 1.0;"/><!--MD5=[0587ba190964821ee5d97233706f5e4f]
link Queries_Tab to TWRP\Admin\Tabs\Query_Options--><path codeLine="105" d="M1589.6086,356.9396 C1732.2634,363.6827 2050.6846,382.2549 2087,415 C2090.1446,417.8355 2092.7857,421.0982 2094.9981,424.649 C2096.1042,426.4244 2097.1032,428.2718 2098.0044,430.1739 C2098.117,430.4117 2098.2281,430.6503 2098.3377,430.8898 C2098.3926,431.0095 2098.447,431.1294 2098.501,431.2495 " fill="none" id="Queries_Tab-TWRP\Admin\Tabs\Query_Options" style="stroke: #FFFF00; stroke-width: 1.0;"/><polygon fill="#FFFF00" points="2098.501,431.2495,2098.4558,421.4008,2096.4494,426.6898,2091.1603,424.6834,2098.501,431.2495" style="stroke: #FFFF00; stroke-width: 1.0;"/><polygon fill="#FFFF00" points="1584.6088,356.7047,1593.4111,361.1228,1589.6033,356.9394,1593.7867,353.1316,1584.6088,356.7047" style="stroke: #FFFF00; stroke-width: 1.0;"/><!--MD5=[1573b609d1c981c07e3e2df03d1f92cd]
link Settings_Menu to Interface_Admin_Menu_Tab--><path codeLine="108" d="M787,133.5475 C787,151.1452 787,173.0546 787,191.392 " fill="none" id="Settings_Menu-to-Interface_Admin_Menu_Tab" style="stroke: #FFFF00; stroke-width: 1.0; stroke-dasharray: 7.0,7.0;"/><polygon fill="#FFFF00" points="787,196.4628,791,187.4628,787,191.4628,783,187.4628,787,196.4628" style="stroke: #FFFF00; stroke-width: 1.0;"/><!--MD5=[07b43f6ef7344a7fd4ea49a8d2413bdc]
reverse link Interface_Admin_Menu_Tab to Documentation_Tab--><path codeLine="109" d="M696.9698,268.8528 C658.6555,286.0259 614.5938,305.7749 578.5568,321.9272 " fill="none" id="Interface_Admin_Menu_Tab-backto-Documentation_Tab" style="stroke: #FFFF00; stroke-width: 1.0; stroke-dasharray: 7.0,7.0;"/><polygon fill="none" points="694.1429,262.4489,715.2566,260.6564,699.8691,275.2244,694.1429,262.4489" style="stroke: #FFFF00; stroke-width: 1.0;"/><!--MD5=[8250b25ee4fe85e58502f14c02314ce3]
reverse link Interface_Admin_Menu_Tab to General_Settings_Tab--><path codeLine="110" d="M787,280.9577 C787,294.8144 787,309.3596 787,321.7902 " fill="none" id="Interface_Admin_Menu_Tab-backto-General_Settings_Tab" style="stroke: #FFFF00; stroke-width: 1.0; stroke-dasharray: 7.0,7.0;"/><polygon fill="none" points="780.0001,280.8194,787,260.8194,794.0001,280.8193,780.0001,280.8194" style="stroke: #FFFF00; stroke-width: 1.0;"/><!--MD5=[27a870436ccca6ef44a10ed16f9c9026]
reverse link Interface_Admin_Menu_Tab to Queries_Tab--><path codeLine="111" d="M920.7163,251.3629 C1079.7101,278.5479 1338.4797,322.7925 1457.4713,343.1378 " fill="none" id="Interface_Admin_Menu_Tab-backto-Queries_Tab" style="stroke: #FFFF00; stroke-width: 1.0; stroke-dasharray: 7.0,7.0;"/><polygon fill="none" points="919.4163,258.2423,900.8822,247.9717,921.7758,244.4426,919.4163,258.2423" style="stroke: #FFFF00; stroke-width: 1.0;"/><!--MD5=[02e005bc1f463e27b5d90378b986c05f]
@startuml
set namespaceSeparator \\

    skinparam {
        padding 2
        backgroundColor #222
        shadowing false

        classFontColor #eee
        classStereotypeFontColor #eee
        classBorderColor #111
        classFontSize 14
        ClassAttributeFontColor #eee
        ClassAttributeFontSize 13
        ClassAttributeIconSize 15

        PackageBackgroundColor #2c2c2c
        PackageBorderColor #111
        PackageFontColor #eee

        ArrowColor yellow
    }

    skinparam circled {
        CharacterFontColor black
        CharacterFontSize 18
        CharacterFontStyle plain
        CharacterRadius 12
    }


    skinparam <<public class>> {
        classBackgroundColor #004b00/#003b00
        classFontSize 16
    }

    skinparam <<private class>> {
        classBackgroundColor #5d0000/#4d0000
    }

    skinparam <<protected class>> {
        classBackgroundColor #d16300/#c15300
    }


package "TWRP\Admin - - The backend of the website" {
	class Settings_Menu <<private class>> {}

	package "TWRP\Admin\Helpers" {
		class Remember_Note <<private class>> {}
	}

	package "TWRP\Admin\Widget_Control" {
		abstract Widget_Control <<public class>> {}
		class Select_Control <<public class>> implements Widget_Control {}
		class Number_Control <<public class>> implements Widget_Control {}
		class Color_Control <<public class>> implements Widget_Control {}
		class Other_Similar_Classes <<public class>> implements Widget_Control {}
	}

	package "TWRP\Admin\Tabs" {
		interface Interface_Admin_Menu_Tab <<private class>> {}
		class Documentation_Tab <<private class>> {}
		class General_Settings_Tab <<private class>> {}
		class Queries_Tab <<private class>> {}

		package "TWRP\Admin\Tabs\Documentation" {
			class Icons_Documentation <<private class>> {}
			class License_Display <<private class>> {}
		}

		package "TWRP\Admin\Tabs\General_Settings" {
			class General_Settings_Factory <<private class>> <<Facade>> {
				+ display( $setting_name )
			}

			interface General_Settings_Creator <<private class>>
			class General_Select_Setting <<private class>>
			class General_Select_With_Switch_Setting <<private class>>
			class General_Text_Setting <<private class>>
			class General_Radio_Setting <<private class>>

			General_Settings_Factory - -> General_Settings_Creator
			General_Settings_Creator <|.. General_Select_Setting
			General_Settings_Creator <|..  General_Text_Setting
			General_Settings_Creator <|.. General_Radio_Setting
			General_Select_Setting <|-l- General_Select_With_Switch_Setting
		}

		package "TWRP\Admin\Tabs\Query_Options" {
			class Existing_Table <<private class>> {}
			class Modify_Query_Settings <<private class>> {}

			interface Query_Setting_Display <<private class>> {}
			class Author_Display <<private class>> {}
			class Category_Display <<private class>> {}
			class All_Other_Classes_From_This_Folder <<private class>> {}

			Query_Setting_Display <|.. Author_Display
			Query_Setting_Display <|.. Category_Display
			Query_Setting_Display <|.. All_Other_Classes_From_This_Folder
		}

			Documentation_Tab - -> TWRP\Admin\Tabs\Documentation
			General_Settings_Tab - -> General_Settings_Factory
			Queries_Tab <- -> TWRP\Admin\Tabs\Query_Options
	}

	Settings_Menu ..> Interface_Admin_Menu_Tab
	Interface_Admin_Menu_Tab <|.. Documentation_Tab
	Interface_Admin_Menu_Tab <|.. General_Settings_Tab
	Interface_Admin_Menu_Tab <|.. Queries_Tab
}
@enduml

PlantUML version 1.2020.19(Mon Oct 12 15:10:01 UTC 2020)
(GPL source distribution)
Java Runtime: OpenJDK Runtime Environment
JVM: OpenJDK 64-Bit Server VM
Default Encoding: UTF-8
Language: en
Country: null
--></g></svg>