<?xml version="1.0" encoding="UTF-8" standalone="no"?><svg xmlns="http://www.w3.org/2000/svg" xmlns:xlink="http://www.w3.org/1999/xlink" contentScriptType="application/ecmascript" contentStyleType="text/css" height="822px" preserveAspectRatio="none" style="width:3099px;height:822px;background:#222222;" version="1.1" viewBox="0 0 3099 822" width="3099px" zoomAndPan="magnify"><defs><linearGradient id="g1sli8do21l22f0" x1="0%" x2="100%" y1="0%" y2="100%"><stop offset="0%" stop-color="#5D0000"/><stop offset="100%" stop-color="#4D0000"/></linearGradient><linearGradient id="g1sli8do21l22f1" x1="0%" x2="100%" y1="0%" y2="100%"><stop offset="0%" stop-color="#004B00"/><stop offset="100%" stop-color="#003B00"/></linearGradient></defs><g><!--MD5=[edf173e897bc9356416944c5fed9afdd]
cluster TWRP\Admin - - The backend of the website--><polygon fill="#2C2C2C" points="16,6,369,6,376,32.2969,3082,32.2969,3082,815,16,815,16,6" style="stroke: #111111; stroke-width: 1.5;"/><line style="stroke: #111111; stroke-width: 1.5;" x1="16" x2="376" y1="32.2969" y2="32.2969"/><text fill="#EEEEEE" font-family="sans-serif" font-size="14" font-weight="bold" lengthAdjust="spacingAndGlyphs" textLength="343" x="22" y="22.9951">TWRP\Admin -- The backend of the website</text><!--MD5=[7fbddded92a143b6ad08e96944e7313c]
cluster TWRP\Admin\Helpers--><polygon fill="#2C2C2C" points="2889,38.5,3064,38.5,3071,64.7969,3074,64.7969,3074,141.5,2889,141.5,2889,38.5" style="stroke: #111111; stroke-width: 1.5;"/><line style="stroke: #111111; stroke-width: 1.5;" x1="2889" x2="3071" y1="64.7969" y2="64.7969"/><text fill="#EEEEEE" font-family="sans-serif" font-size="14" font-weight="bold" lengthAdjust="spacingAndGlyphs" textLength="165" x="2895" y="55.4951">TWRP\Admin\Helpers</text><!--MD5=[4c54862f7c3f855ecae508bd42a8d7eb]
cluster TWRP\Admin\Widget_Control--><polygon fill="#2C2C2C" points="2108,37,2342,37,2349,63.2969,2881,63.2969,2881,270,2108,270,2108,37" style="stroke: #111111; stroke-width: 1.5;"/><line style="stroke: #111111; stroke-width: 1.5;" x1="2108" x2="2349" y1="63.2969" y2="63.2969"/><text fill="#EEEEEE" font-family="sans-serif" font-size="14" font-weight="bold" lengthAdjust="spacingAndGlyphs" textLength="224" x="2114" y="53.9951">TWRP\Admin\Widget_Control</text><!--MD5=[0d3367408421cacbbbf01906b0cc8e4e]
cluster TWRP\Admin\Tabs--><polygon fill="#2C2C2C" points="24,165.5,176,165.5,183,191.7969,2100,191.7969,2100,807,24,807,24,165.5" style="stroke: #111111; stroke-width: 1.5;"/><line style="stroke: #111111; stroke-width: 1.5;" x1="24" x2="183" y1="191.7969" y2="191.7969"/><text fill="#EEEEEE" font-family="sans-serif" font-size="14" font-weight="bold" lengthAdjust="spacingAndGlyphs" textLength="142" x="30" y="182.4951">TWRP\Admin\Tabs</text><!--MD5=[6a458880608256c85dbd90a39ef2109d]
cluster TWRP\Admin\Tabs\Documentation--><polygon fill="#2C2C2C" points="32,431.5,308,431.5,315,457.7969,447,457.7969,447,534.5,32,534.5,32,431.5" style="stroke: #111111; stroke-width: 1.5;"/><line style="stroke: #111111; stroke-width: 1.5;" x1="32" x2="315" y1="457.7969" y2="457.7969"/><text fill="#EEEEEE" font-family="sans-serif" font-size="14" font-weight="bold" lengthAdjust="spacingAndGlyphs" textLength="266" x="38" y="448.4951">TWRP\Admin\Tabs\Documentation</text><!--MD5=[c215e39dbad3337025b8fa23567c765e]
cluster TWRP\Admin\Tabs\General_Settings--><polygon fill="#2C2C2C" points="455,415,746,415,753,441.2969,1426,441.2969,1426,799,455,799,455,415" style="stroke: #111111; stroke-width: 1.5;"/><line style="stroke: #111111; stroke-width: 1.5;" x1="455" x2="753" y1="441.2969" y2="441.2969"/><text fill="#EEEEEE" font-family="sans-serif" font-size="14" font-weight="bold" lengthAdjust="spacingAndGlyphs" textLength="281" x="461" y="431.9951">TWRP\Admin\Tabs\General_Settings</text><!--MD5=[ca3ca2953491e9b8ebbe5eac8e2abf95]
cluster TWRP\Admin\Tabs\Query_Options--><polygon fill="#2C2C2C" points="1434,431.5,1707,431.5,1714,457.7969,2092,457.7969,2092,675,1434,675,1434,431.5" style="stroke: #111111; stroke-width: 1.5;"/><line style="stroke: #111111; stroke-width: 1.5;" x1="1434" x2="1714" y1="457.7969" y2="457.7969"/><text fill="#EEEEEE" font-family="sans-serif" font-size="14" font-weight="bold" lengthAdjust="spacingAndGlyphs" textLength="263" x="1440" y="448.4951">TWRP\Admin\Tabs\Query_Options</text><!--MD5=[8e276117ea87ca274e65ba56c368b898]
class Settings_Menu--><rect codeLine="39" fill="url(#g1sli8do21l22f0)" height="64.2656" id="Settings_Menu" style="stroke: #111111; stroke-width: 1.5;" width="137" x="706.5" y="69.5"/><ellipse cx="720.5" cy="93.6328" fill="#ADD1B2" rx="10" ry="10" style="stroke: #111111; stroke-width: 1.0;"/><path d="M722.8906,99.2109 Q722.2813,99.5391 721.6406,99.6953 Q721.0156,99.8672 720.3125,99.8672 Q718.0625,99.8672 716.8281,98.2734 Q715.5938,96.6797 715.5938,93.8047 Q715.5938,90.9453 716.8281,89.3516 Q718.0781,87.7578 720.3125,87.7578 Q721.0156,87.7578 721.6406,87.9141 Q722.2813,88.0703 722.8906,88.3984 L722.8906,90.0078 Q722.3125,89.5391 721.6406,89.2891 Q720.9844,89.0391 720.3125,89.0391 Q718.7656,89.0391 718,90.2266 Q717.2344,91.4141 717.2344,93.8047 Q717.2344,96.1953 718,97.3828 Q718.7656,98.5703 720.3125,98.5703 Q721,98.5703 721.6563,98.3203 Q722.3125,98.0703 722.8906,97.6016 L722.8906,99.2109 Z "/><text fill="#EEEEEE" font-family="sans-serif" font-size="12" font-style="italic" lengthAdjust="spacingAndGlyphs" textLength="93" x="740.5" y="87.6387">«private class»</text><text fill="#EEEEEE" font-family="sans-serif" font-size="14" lengthAdjust="spacingAndGlyphs" textLength="103" x="735.5" y="107.4639">Settings_Menu</text><line style="stroke: #111111; stroke-width: 1.5;" x1="707.5" x2="842.5" y1="117.7656" y2="117.7656"/><line style="stroke: #111111; stroke-width: 1.5;" x1="707.5" x2="842.5" y1="125.7656" y2="125.7656"/><!--MD5=[754c1fb5bb7687394bf4c2a3220ac8b1]
class Remember_Note--><rect codeLine="42" fill="url(#g1sli8do21l22f0)" height="64.2656" id="Remember_Note" style="stroke: #111111; stroke-width: 1.5;" width="151" x="2905.5" y="69.5"/><ellipse cx="2919.5" cy="93.6328" fill="#ADD1B2" rx="10" ry="10" style="stroke: #111111; stroke-width: 1.0;"/><path d="M2921.8906,99.2109 Q2921.2813,99.5391 2920.6406,99.6953 Q2920.0156,99.8672 2919.3125,99.8672 Q2917.0625,99.8672 2915.8281,98.2734 Q2914.5938,96.6797 2914.5938,93.8047 Q2914.5938,90.9453 2915.8281,89.3516 Q2917.0781,87.7578 2919.3125,87.7578 Q2920.0156,87.7578 2920.6406,87.9141 Q2921.2813,88.0703 2921.8906,88.3984 L2921.8906,90.0078 Q2921.3125,89.5391 2920.6406,89.2891 Q2919.9844,89.0391 2919.3125,89.0391 Q2917.7656,89.0391 2917,90.2266 Q2916.2344,91.4141 2916.2344,93.8047 Q2916.2344,96.1953 2917,97.3828 Q2917.7656,98.5703 2919.3125,98.5703 Q2920,98.5703 2920.6563,98.3203 Q2921.3125,98.0703 2921.8906,97.6016 L2921.8906,99.2109 Z "/><text fill="#EEEEEE" font-family="sans-serif" font-size="12" font-style="italic" lengthAdjust="spacingAndGlyphs" textLength="93" x="2946.5" y="87.6387">«private class»</text><text fill="#EEEEEE" font-family="sans-serif" font-size="14" lengthAdjust="spacingAndGlyphs" textLength="117" x="2934.5" y="107.4639">Remember_Note</text><line style="stroke: #111111; stroke-width: 1.5;" x1="2906.5" x2="3055.5" y1="117.7656" y2="117.7656"/><line style="stroke: #111111; stroke-width: 1.5;" x1="2906.5" x2="3055.5" y1="125.7656" y2="125.7656"/><!--MD5=[60f3908bc5dd052ee43ffaafc4592e33]
class Widget_Control--><rect codeLine="46" fill="url(#g1sli8do21l22f1)" height="66.5938" id="Widget_Control" style="stroke: #111111; stroke-width: 1.5;" width="154" x="2394" y="68"/><ellipse cx="2408" cy="93.2969" fill="#A9DCDF" rx="10" ry="10" style="stroke: #111111; stroke-width: 1.0;"/><path d="M2407.8125,88.5156 L2406.1563,94.4844 L2409.4844,94.4844 L2407.8125,88.5156 Z M2406.8594,87.125 L2408.7813,87.125 L2412.3438,98.7969 L2410.7188,98.7969 L2409.8594,95.75 L2405.7656,95.75 L2404.9219,98.7969 L2403.2969,98.7969 L2406.8594,87.125 Z "/><text fill="#EEEEEE" font-family="sans-serif" font-size="12" font-style="italic" lengthAdjust="spacingAndGlyphs" textLength="87" x="2439.5" y="86.1387">«public class»</text><text fill="#EEEEEE" font-family="sans-serif" font-size="16" font-style="italic" lengthAdjust="spacingAndGlyphs" textLength="120" x="2423" y="107.8203">Widget_Control</text><line style="stroke: #111111; stroke-width: 1.5;" x1="2395" x2="2547" y1="118.5938" y2="118.5938"/><line style="stroke: #111111; stroke-width: 1.5;" x1="2395" x2="2547" y1="126.5938" y2="126.5938"/><!--MD5=[5d26c2a5818dc804a1d52e682027e370]
class Select_Control--><rect codeLine="47" fill="url(#g1sli8do21l22f1)" height="66.5938" id="Select_Control" style="stroke: #111111; stroke-width: 1.5;" width="145" x="2116.5" y="195"/><ellipse cx="2130.5" cy="220.2969" fill="#ADD1B2" rx="10" ry="10" style="stroke: #111111; stroke-width: 1.0;"/><path d="M2132.8906,225.875 Q2132.2813,226.2031 2131.6406,226.3594 Q2131.0156,226.5313 2130.3125,226.5313 Q2128.0625,226.5313 2126.8281,224.9375 Q2125.5938,223.3438 2125.5938,220.4688 Q2125.5938,217.6094 2126.8281,216.0156 Q2128.0781,214.4219 2130.3125,214.4219 Q2131.0156,214.4219 2131.6406,214.5781 Q2132.2813,214.7344 2132.8906,215.0625 L2132.8906,216.6719 Q2132.3125,216.2031 2131.6406,215.9531 Q2130.9844,215.7031 2130.3125,215.7031 Q2128.7656,215.7031 2128,216.8906 Q2127.2344,218.0781 2127.2344,220.4688 Q2127.2344,222.8594 2128,224.0469 Q2128.7656,225.2344 2130.3125,225.2344 Q2131,225.2344 2131.6563,224.9844 Q2132.3125,224.7344 2132.8906,224.2656 L2132.8906,225.875 Z "/><text fill="#EEEEEE" font-family="sans-serif" font-size="12" font-style="italic" lengthAdjust="spacingAndGlyphs" textLength="87" x="2157.5" y="213.1387">«public class»</text><text fill="#EEEEEE" font-family="sans-serif" font-size="16" lengthAdjust="spacingAndGlyphs" textLength="111" x="2145.5" y="234.8203">Select_Control</text><line style="stroke: #111111; stroke-width: 1.5;" x1="2117.5" x2="2260.5" y1="245.5938" y2="245.5938"/><line style="stroke: #111111; stroke-width: 1.5;" x1="2117.5" x2="2260.5" y1="253.5938" y2="253.5938"/><!--MD5=[7e1d84a14e08744bb11bbd42f070a8d4]
class Number_Control--><rect codeLine="48" fill="url(#g1sli8do21l22f1)" height="66.5938" id="Number_Control" style="stroke: #111111; stroke-width: 1.5;" width="162" x="2297" y="195"/><ellipse cx="2311" cy="220.2969" fill="#ADD1B2" rx="10" ry="10" style="stroke: #111111; stroke-width: 1.0;"/><path d="M2313.3906,225.875 Q2312.7813,226.2031 2312.1406,226.3594 Q2311.5156,226.5313 2310.8125,226.5313 Q2308.5625,226.5313 2307.3281,224.9375 Q2306.0938,223.3438 2306.0938,220.4688 Q2306.0938,217.6094 2307.3281,216.0156 Q2308.5781,214.4219 2310.8125,214.4219 Q2311.5156,214.4219 2312.1406,214.5781 Q2312.7813,214.7344 2313.3906,215.0625 L2313.3906,216.6719 Q2312.8125,216.2031 2312.1406,215.9531 Q2311.4844,215.7031 2310.8125,215.7031 Q2309.2656,215.7031 2308.5,216.8906 Q2307.7344,218.0781 2307.7344,220.4688 Q2307.7344,222.8594 2308.5,224.0469 Q2309.2656,225.2344 2310.8125,225.2344 Q2311.5,225.2344 2312.1563,224.9844 Q2312.8125,224.7344 2313.3906,224.2656 L2313.3906,225.875 Z "/><text fill="#EEEEEE" font-family="sans-serif" font-size="12" font-style="italic" lengthAdjust="spacingAndGlyphs" textLength="87" x="2346.5" y="213.1387">«public class»</text><text fill="#EEEEEE" font-family="sans-serif" font-size="16" lengthAdjust="spacingAndGlyphs" textLength="128" x="2326" y="234.8203">Number_Control</text><line style="stroke: #111111; stroke-width: 1.5;" x1="2298" x2="2458" y1="245.5938" y2="245.5938"/><line style="stroke: #111111; stroke-width: 1.5;" x1="2298" x2="2458" y1="253.5938" y2="253.5938"/><!--MD5=[103b45f8ac1415515f79641623265a5f]
class Color_Control--><rect codeLine="49" fill="url(#g1sli8do21l22f1)" height="66.5938" id="Color_Control" style="stroke: #111111; stroke-width: 1.5;" width="140" x="2494" y="195"/><ellipse cx="2508" cy="220.2969" fill="#ADD1B2" rx="10" ry="10" style="stroke: #111111; stroke-width: 1.0;"/><path d="M2510.3906,225.875 Q2509.7813,226.2031 2509.1406,226.3594 Q2508.5156,226.5313 2507.8125,226.5313 Q2505.5625,226.5313 2504.3281,224.9375 Q2503.0938,223.3438 2503.0938,220.4688 Q2503.0938,217.6094 2504.3281,216.0156 Q2505.5781,214.4219 2507.8125,214.4219 Q2508.5156,214.4219 2509.1406,214.5781 Q2509.7813,214.7344 2510.3906,215.0625 L2510.3906,216.6719 Q2509.8125,216.2031 2509.1406,215.9531 Q2508.4844,215.7031 2507.8125,215.7031 Q2506.2656,215.7031 2505.5,216.8906 Q2504.7344,218.0781 2504.7344,220.4688 Q2504.7344,222.8594 2505.5,224.0469 Q2506.2656,225.2344 2507.8125,225.2344 Q2508.5,225.2344 2509.1563,224.9844 Q2509.8125,224.7344 2510.3906,224.2656 L2510.3906,225.875 Z "/><text fill="#EEEEEE" font-family="sans-serif" font-size="12" font-style="italic" lengthAdjust="spacingAndGlyphs" textLength="87" x="2532.5" y="213.1387">«public class»</text><text fill="#EEEEEE" font-family="sans-serif" font-size="16" lengthAdjust="spacingAndGlyphs" textLength="106" x="2523" y="234.8203">Color_Control</text><line style="stroke: #111111; stroke-width: 1.5;" x1="2495" x2="2633" y1="245.5938" y2="245.5938"/><line style="stroke: #111111; stroke-width: 1.5;" x1="2495" x2="2633" y1="253.5938" y2="253.5938"/><!--MD5=[43f66ae41eba1b4d3dd3978e8768c126]
class Other_Similar_Classes--><rect codeLine="50" fill="url(#g1sli8do21l22f1)" height="66.5938" id="Other_Similar_Classes" style="stroke: #111111; stroke-width: 1.5;" width="204" x="2669" y="195"/><ellipse cx="2683" cy="220.2969" fill="#ADD1B2" rx="10" ry="10" style="stroke: #111111; stroke-width: 1.0;"/><path d="M2685.3906,225.875 Q2684.7813,226.2031 2684.1406,226.3594 Q2683.5156,226.5313 2682.8125,226.5313 Q2680.5625,226.5313 2679.3281,224.9375 Q2678.0938,223.3438 2678.0938,220.4688 Q2678.0938,217.6094 2679.3281,216.0156 Q2680.5781,214.4219 2682.8125,214.4219 Q2683.5156,214.4219 2684.1406,214.5781 Q2684.7813,214.7344 2685.3906,215.0625 L2685.3906,216.6719 Q2684.8125,216.2031 2684.1406,215.9531 Q2683.4844,215.7031 2682.8125,215.7031 Q2681.2656,215.7031 2680.5,216.8906 Q2679.7344,218.0781 2679.7344,220.4688 Q2679.7344,222.8594 2680.5,224.0469 Q2681.2656,225.2344 2682.8125,225.2344 Q2683.5,225.2344 2684.1563,224.9844 Q2684.8125,224.7344 2685.3906,224.2656 L2685.3906,225.875 Z "/><text fill="#EEEEEE" font-family="sans-serif" font-size="12" font-style="italic" lengthAdjust="spacingAndGlyphs" textLength="87" x="2739.5" y="213.1387">«public class»</text><text fill="#EEEEEE" font-family="sans-serif" font-size="16" lengthAdjust="spacingAndGlyphs" textLength="170" x="2698" y="234.8203">Other_Similar_Classes</text><line style="stroke: #111111; stroke-width: 1.5;" x1="2670" x2="2872" y1="245.5938" y2="245.5938"/><line style="stroke: #111111; stroke-width: 1.5;" x1="2670" x2="2872" y1="253.5938" y2="253.5938"/><!--MD5=[f2ff5728977676709ad70da68364f96a]
class Interface_Admin_Menu_Tab--><rect codeLine="54" fill="url(#g1sli8do21l22f0)" height="64.2656" id="Interface_Admin_Menu_Tab" style="stroke: #111111; stroke-width: 1.5;" width="223" x="663.5" y="196.5"/><ellipse cx="677.5" cy="220.6328" fill="#B4A7E5" rx="10" ry="10" style="stroke: #111111; stroke-width: 1.0;"/><path d="M674.5781,214.9609 L681.0469,214.9609 L681.0469,216.2891 L678.6094,216.2891 L678.6094,225.3047 L681.0469,225.3047 L681.0469,226.6328 L674.5781,226.6328 L674.5781,225.3047 L677.0156,225.3047 L677.0156,216.2891 L674.5781,216.2891 L674.5781,214.9609 Z "/><text fill="#EEEEEE" font-family="sans-serif" font-size="12" font-style="italic" lengthAdjust="spacingAndGlyphs" textLength="93" x="740.5" y="214.6387">«private class»</text><text fill="#EEEEEE" font-family="sans-serif" font-size="14" font-style="italic" lengthAdjust="spacingAndGlyphs" textLength="189" x="692.5" y="234.4639">Interface_Admin_Menu_Tab</text><line style="stroke: #111111; stroke-width: 1.5;" x1="664.5" x2="885.5" y1="244.7656" y2="244.7656"/><line style="stroke: #111111; stroke-width: 1.5;" x1="664.5" x2="885.5" y1="252.7656" y2="252.7656"/><!--MD5=[349e6a18946b157a7b3024fe5550fe62]
class Documentation_Tab--><rect codeLine="55" fill="url(#g1sli8do21l22f0)" height="64.2656" id="Documentation_Tab" style="stroke: #111111; stroke-width: 1.5;" width="174" x="412" y="322"/><ellipse cx="426" cy="346.1328" fill="#ADD1B2" rx="10" ry="10" style="stroke: #111111; stroke-width: 1.0;"/><path d="M428.3906,351.7109 Q427.7813,352.0391 427.1406,352.1953 Q426.5156,352.3672 425.8125,352.3672 Q423.5625,352.3672 422.3281,350.7734 Q421.0938,349.1797 421.0938,346.3047 Q421.0938,343.4453 422.3281,341.8516 Q423.5781,340.2578 425.8125,340.2578 Q426.5156,340.2578 427.1406,340.4141 Q427.7813,340.5703 428.3906,340.8984 L428.3906,342.5078 Q427.8125,342.0391 427.1406,341.7891 Q426.4844,341.5391 425.8125,341.5391 Q424.2656,341.5391 423.5,342.7266 Q422.7344,343.9141 422.7344,346.3047 Q422.7344,348.6953 423.5,349.8828 Q424.2656,351.0703 425.8125,351.0703 Q426.5,351.0703 427.1563,350.8203 Q427.8125,350.5703 428.3906,350.1016 L428.3906,351.7109 Z "/><text fill="#EEEEEE" font-family="sans-serif" font-size="12" font-style="italic" lengthAdjust="spacingAndGlyphs" textLength="93" x="464.5" y="340.1387">«private class»</text><text fill="#EEEEEE" font-family="sans-serif" font-size="14" lengthAdjust="spacingAndGlyphs" textLength="140" x="441" y="359.9639">Documentation_Tab</text><line style="stroke: #111111; stroke-width: 1.5;" x1="413" x2="585" y1="370.2656" y2="370.2656"/><line style="stroke: #111111; stroke-width: 1.5;" x1="413" x2="585" y1="378.2656" y2="378.2656"/><!--MD5=[06646ad14c5d7cf88216c241f8b261ff]
class General_Settings_Tab--><rect codeLine="56" fill="url(#g1sli8do21l22f0)" height="64.2656" id="General_Settings_Tab" style="stroke: #111111; stroke-width: 1.5;" width="185" x="682.5" y="322"/><ellipse cx="696.5" cy="346.1328" fill="#ADD1B2" rx="10" ry="10" style="stroke: #111111; stroke-width: 1.0;"/><path d="M698.8906,351.7109 Q698.2813,352.0391 697.6406,352.1953 Q697.0156,352.3672 696.3125,352.3672 Q694.0625,352.3672 692.8281,350.7734 Q691.5938,349.1797 691.5938,346.3047 Q691.5938,343.4453 692.8281,341.8516 Q694.0781,340.2578 696.3125,340.2578 Q697.0156,340.2578 697.6406,340.4141 Q698.2813,340.5703 698.8906,340.8984 L698.8906,342.5078 Q698.3125,342.0391 697.6406,341.7891 Q696.9844,341.5391 696.3125,341.5391 Q694.7656,341.5391 694,342.7266 Q693.2344,343.9141 693.2344,346.3047 Q693.2344,348.6953 694,349.8828 Q694.7656,351.0703 696.3125,351.0703 Q697,351.0703 697.6563,350.8203 Q698.3125,350.5703 698.8906,350.1016 L698.8906,351.7109 Z "/><text fill="#EEEEEE" font-family="sans-serif" font-size="12" font-style="italic" lengthAdjust="spacingAndGlyphs" textLength="93" x="740.5" y="340.1387">«private class»</text><text fill="#EEEEEE" font-family="sans-serif" font-size="14" lengthAdjust="spacingAndGlyphs" textLength="151" x="711.5" y="359.9639">General_Settings_Tab</text><line style="stroke: #111111; stroke-width: 1.5;" x1="683.5" x2="866.5" y1="370.2656" y2="370.2656"/><line style="stroke: #111111; stroke-width: 1.5;" x1="683.5" x2="866.5" y1="378.2656" y2="378.2656"/><!--MD5=[7f354880817d1341540e33fbbd728f70]
class Queries_Tab--><rect codeLine="57" fill="url(#g1sli8do21l22f0)" height="64.2656" id="Queries_Tab" style="stroke: #111111; stroke-width: 1.5;" width="123" x="1435.5" y="322"/><ellipse cx="1449.5" cy="346.1328" fill="#ADD1B2" rx="10" ry="10" style="stroke: #111111; stroke-width: 1.0;"/><path d="M1451.8906,351.7109 Q1451.2813,352.0391 1450.6406,352.1953 Q1450.0156,352.3672 1449.3125,352.3672 Q1447.0625,352.3672 1445.8281,350.7734 Q1444.5938,349.1797 1444.5938,346.3047 Q1444.5938,343.4453 1445.8281,341.8516 Q1447.0781,340.2578 1449.3125,340.2578 Q1450.0156,340.2578 1450.6406,340.4141 Q1451.2813,340.5703 1451.8906,340.8984 L1451.8906,342.5078 Q1451.3125,342.0391 1450.6406,341.7891 Q1449.9844,341.5391 1449.3125,341.5391 Q1447.7656,341.5391 1447,342.7266 Q1446.2344,343.9141 1446.2344,346.3047 Q1446.2344,348.6953 1447,349.8828 Q1447.7656,351.0703 1449.3125,351.0703 Q1450,351.0703 1450.6563,350.8203 Q1451.3125,350.5703 1451.8906,350.1016 L1451.8906,351.7109 Z "/><text fill="#EEEEEE" font-family="sans-serif" font-size="12" font-style="italic" lengthAdjust="spacingAndGlyphs" textLength="93" x="1462.5" y="340.1387">«private class»</text><text fill="#EEEEEE" font-family="sans-serif" font-size="14" lengthAdjust="spacingAndGlyphs" textLength="87" x="1465.5" y="359.9639">Queries_Tab</text><line style="stroke: #111111; stroke-width: 1.5;" x1="1436.5" x2="1557.5" y1="370.2656" y2="370.2656"/><line style="stroke: #111111; stroke-width: 1.5;" x1="1436.5" x2="1557.5" y1="378.2656" y2="378.2656"/><!--MD5=[cf45b9a2cf90d6da1d94ada3b5c51c01]
class Icons_Documentation--><rect codeLine="60" fill="url(#g1sli8do21l22f0)" height="64.2656" id="Icons_Documentation" style="stroke: #111111; stroke-width: 1.5;" width="185" x="218.5" y="462.5"/><ellipse cx="232.5" cy="486.6328" fill="#ADD1B2" rx="10" ry="10" style="stroke: #111111; stroke-width: 1.0;"/><path d="M234.8906,492.2109 Q234.2813,492.5391 233.6406,492.6953 Q233.0156,492.8672 232.3125,492.8672 Q230.0625,492.8672 228.8281,491.2734 Q227.5938,489.6797 227.5938,486.8047 Q227.5938,483.9453 228.8281,482.3516 Q230.0781,480.7578 232.3125,480.7578 Q233.0156,480.7578 233.6406,480.9141 Q234.2813,481.0703 234.8906,481.3984 L234.8906,483.0078 Q234.3125,482.5391 233.6406,482.2891 Q232.9844,482.0391 232.3125,482.0391 Q230.7656,482.0391 230,483.2266 Q229.2344,484.4141 229.2344,486.8047 Q229.2344,489.1953 230,490.3828 Q230.7656,491.5703 232.3125,491.5703 Q233,491.5703 233.6563,491.3203 Q234.3125,491.0703 234.8906,490.6016 L234.8906,492.2109 Z "/><text fill="#EEEEEE" font-family="sans-serif" font-size="12" font-style="italic" lengthAdjust="spacingAndGlyphs" textLength="93" x="276.5" y="480.6387">«private class»</text><text fill="#EEEEEE" font-family="sans-serif" font-size="14" lengthAdjust="spacingAndGlyphs" textLength="151" x="247.5" y="500.4639">Icons_Documentation</text><line style="stroke: #111111; stroke-width: 1.5;" x1="219.5" x2="402.5" y1="510.7656" y2="510.7656"/><line style="stroke: #111111; stroke-width: 1.5;" x1="219.5" x2="402.5" y1="518.7656" y2="518.7656"/><!--MD5=[311bca9c219758a644194d8bbf62a4a5]
class License_Display--><rect codeLine="61" fill="url(#g1sli8do21l22f0)" height="64.2656" id="License_Display" style="stroke: #111111; stroke-width: 1.5;" width="143" x="40.5" y="462.5"/><ellipse cx="54.5" cy="486.6328" fill="#ADD1B2" rx="10" ry="10" style="stroke: #111111; stroke-width: 1.0;"/><path d="M56.8906,492.2109 Q56.2813,492.5391 55.6406,492.6953 Q55.0156,492.8672 54.3125,492.8672 Q52.0625,492.8672 50.8281,491.2734 Q49.5938,489.6797 49.5938,486.8047 Q49.5938,483.9453 50.8281,482.3516 Q52.0781,480.7578 54.3125,480.7578 Q55.0156,480.7578 55.6406,480.9141 Q56.2813,481.0703 56.8906,481.3984 L56.8906,483.0078 Q56.3125,482.5391 55.6406,482.2891 Q54.9844,482.0391 54.3125,482.0391 Q52.7656,482.0391 52,483.2266 Q51.2344,484.4141 51.2344,486.8047 Q51.2344,489.1953 52,490.3828 Q52.7656,491.5703 54.3125,491.5703 Q55,491.5703 55.6563,491.3203 Q56.3125,491.0703 56.8906,490.6016 L56.8906,492.2109 Z "/><text fill="#EEEEEE" font-family="sans-serif" font-size="12" font-style="italic" lengthAdjust="spacingAndGlyphs" textLength="93" x="77.5" y="480.6387">«private class»</text><text fill="#EEEEEE" font-family="sans-serif" font-size="14" lengthAdjust="spacingAndGlyphs" textLength="109" x="69.5" y="500.4639">License_Display</text><line style="stroke: #111111; stroke-width: 1.5;" x1="41.5" x2="182.5" y1="510.7656" y2="510.7656"/><line style="stroke: #111111; stroke-width: 1.5;" x1="41.5" x2="182.5" y1="518.7656" y2="518.7656"/><!--MD5=[a8be521b82384408c14ed1d12d01d74b]
class General_Settings_Factory--><rect codeLine="65" fill="url(#g1sli8do21l22f0)" height="97.3672" id="General_Settings_Factory" style="stroke: #111111; stroke-width: 1.5;" width="209" x="670.5" y="446"/><ellipse cx="684.5" cy="477.1172" fill="#ADD1B2" rx="10" ry="10" style="stroke: #111111; stroke-width: 1.0;"/><path d="M686.8906,482.6953 Q686.2813,483.0234 685.6406,483.1797 Q685.0156,483.3516 684.3125,483.3516 Q682.0625,483.3516 680.8281,481.7578 Q679.5938,480.1641 679.5938,477.2891 Q679.5938,474.4297 680.8281,472.8359 Q682.0781,471.2422 684.3125,471.2422 Q685.0156,471.2422 685.6406,471.3984 Q686.2813,471.5547 686.8906,471.8828 L686.8906,473.4922 Q686.3125,473.0234 685.6406,472.7734 Q684.9844,472.5234 684.3125,472.5234 Q682.7656,472.5234 682,473.7109 Q681.2344,474.8984 681.2344,477.2891 Q681.2344,479.6797 682,480.8672 Q682.7656,482.0547 684.3125,482.0547 Q685,482.0547 685.6563,481.8047 Q686.3125,481.5547 686.8906,481.0859 L686.8906,482.6953 Z "/><text fill="#EEEEEE" font-family="sans-serif" font-size="12" font-style="italic" lengthAdjust="spacingAndGlyphs" textLength="93" x="740.5" y="464.1387">«private class»</text><text fill="#EEEEEE" font-family="sans-serif" font-size="12" font-style="italic" lengthAdjust="spacingAndGlyphs" textLength="60" x="757" y="478.1074">«Facade»</text><text fill="#EEEEEE" font-family="sans-serif" font-size="14" lengthAdjust="spacingAndGlyphs" textLength="175" x="699.5" y="497.9326">General_Settings_Factory</text><line style="stroke: #111111; stroke-width: 1.5;" x1="671.5" x2="878.5" y1="508.2344" y2="508.2344"/><line style="stroke: #111111; stroke-width: 1.5;" x1="671.5" x2="878.5" y1="516.2344" y2="516.2344"/><ellipse cx="683.5" cy="529.2344" fill="#84BE84" rx="5" ry="5" style="stroke: #038048; stroke-width: 1.0;"/><text fill="#EEEEEE" font-family="sans-serif" font-size="13" lengthAdjust="spacingAndGlyphs" textLength="158" x="691.5" y="534.3013">display( $setting_name )</text><!--MD5=[9b6bb3cdfae7ec5bc2976c073d2a4cfe]
class General_Settings_Creator--><rect codeLine="69" fill="url(#g1sli8do21l22f0)" height="64.2656" id="General_Settings_Creator" style="stroke: #111111; stroke-width: 1.5;" width="210" x="670" y="603"/><ellipse cx="684" cy="627.1328" fill="#B4A7E5" rx="10" ry="10" style="stroke: #111111; stroke-width: 1.0;"/><path d="M681.0781,621.4609 L687.5469,621.4609 L687.5469,622.7891 L685.1094,622.7891 L685.1094,631.8047 L687.5469,631.8047 L687.5469,633.1328 L681.0781,633.1328 L681.0781,631.8047 L683.5156,631.8047 L683.5156,622.7891 L681.0781,622.7891 L681.0781,621.4609 Z "/><text fill="#EEEEEE" font-family="sans-serif" font-size="12" font-style="italic" lengthAdjust="spacingAndGlyphs" textLength="93" x="740.5" y="621.1387">«private class»</text><text fill="#EEEEEE" font-family="sans-serif" font-size="14" font-style="italic" lengthAdjust="spacingAndGlyphs" textLength="176" x="699" y="640.9639">General_Settings_Creator</text><line style="stroke: #111111; stroke-width: 1.5;" x1="671" x2="879" y1="651.2656" y2="651.2656"/><line style="stroke: #111111; stroke-width: 1.5;" x1="671" x2="879" y1="659.2656" y2="659.2656"/><!--MD5=[5de17b5d815dcc8ab119b84a3bc783cb]
class General_Select_Setting--><rect codeLine="70" fill="url(#g1sli8do21l22f0)" height="64.2656" id="General_Select_Setting" style="stroke: #111111; stroke-width: 1.5;" width="194" x="1224" y="727"/><ellipse cx="1238" cy="751.1328" fill="#ADD1B2" rx="10" ry="10" style="stroke: #111111; stroke-width: 1.0;"/><path d="M1240.3906,756.7109 Q1239.7813,757.0391 1239.1406,757.1953 Q1238.5156,757.3672 1237.8125,757.3672 Q1235.5625,757.3672 1234.3281,755.7734 Q1233.0938,754.1797 1233.0938,751.3047 Q1233.0938,748.4453 1234.3281,746.8516 Q1235.5781,745.2578 1237.8125,745.2578 Q1238.5156,745.2578 1239.1406,745.4141 Q1239.7813,745.5703 1240.3906,745.8984 L1240.3906,747.5078 Q1239.8125,747.0391 1239.1406,746.7891 Q1238.4844,746.5391 1237.8125,746.5391 Q1236.2656,746.5391 1235.5,747.7266 Q1234.7344,748.9141 1234.7344,751.3047 Q1234.7344,753.6953 1235.5,754.8828 Q1236.2656,756.0703 1237.8125,756.0703 Q1238.5,756.0703 1239.1563,755.8203 Q1239.8125,755.5703 1240.3906,755.1016 L1240.3906,756.7109 Z "/><text fill="#EEEEEE" font-family="sans-serif" font-size="12" font-style="italic" lengthAdjust="spacingAndGlyphs" textLength="93" x="1286.5" y="745.1387">«private class»</text><text fill="#EEEEEE" font-family="sans-serif" font-size="14" lengthAdjust="spacingAndGlyphs" textLength="160" x="1253" y="764.9639">General_Select_Setting</text><line style="stroke: #111111; stroke-width: 1.5;" x1="1225" x2="1417" y1="775.2656" y2="775.2656"/><line style="stroke: #111111; stroke-width: 1.5;" x1="1225" x2="1417" y1="783.2656" y2="783.2656"/><!--MD5=[38cce3347a28bcc7769ae43d9751f150]
class General_Select_With_Switch_Setting--><rect codeLine="71" fill="url(#g1sli8do21l22f0)" height="64.2656" id="General_Select_With_Switch_Setting" style="stroke: #111111; stroke-width: 1.5;" width="283" x="905.5" y="727"/><ellipse cx="919.5" cy="751.1328" fill="#ADD1B2" rx="10" ry="10" style="stroke: #111111; stroke-width: 1.0;"/><path d="M921.8906,756.7109 Q921.2813,757.0391 920.6406,757.1953 Q920.0156,757.3672 919.3125,757.3672 Q917.0625,757.3672 915.8281,755.7734 Q914.5938,754.1797 914.5938,751.3047 Q914.5938,748.4453 915.8281,746.8516 Q917.0781,745.2578 919.3125,745.2578 Q920.0156,745.2578 920.6406,745.4141 Q921.2813,745.5703 921.8906,745.8984 L921.8906,747.5078 Q921.3125,747.0391 920.6406,746.7891 Q919.9844,746.5391 919.3125,746.5391 Q917.7656,746.5391 917,747.7266 Q916.2344,748.9141 916.2344,751.3047 Q916.2344,753.6953 917,754.8828 Q917.7656,756.0703 919.3125,756.0703 Q920,756.0703 920.6563,755.8203 Q921.3125,755.5703 921.8906,755.1016 L921.8906,756.7109 Z "/><text fill="#EEEEEE" font-family="sans-serif" font-size="12" font-style="italic" lengthAdjust="spacingAndGlyphs" textLength="93" x="1012.5" y="745.1387">«private class»</text><text fill="#EEEEEE" font-family="sans-serif" font-size="14" lengthAdjust="spacingAndGlyphs" textLength="249" x="934.5" y="764.9639">General_Select_With_Switch_Setting</text><line style="stroke: #111111; stroke-width: 1.5;" x1="906.5" x2="1187.5" y1="775.2656" y2="775.2656"/><line style="stroke: #111111; stroke-width: 1.5;" x1="906.5" x2="1187.5" y1="783.2656" y2="783.2656"/><!--MD5=[9395760248497a50bbf42efa6838fec0]
class General_Text_Setting--><rect codeLine="72" fill="url(#g1sli8do21l22f0)" height="64.2656" id="General_Text_Setting" style="stroke: #111111; stroke-width: 1.5;" width="181" x="463.5" y="727"/><ellipse cx="477.5" cy="751.1328" fill="#ADD1B2" rx="10" ry="10" style="stroke: #111111; stroke-width: 1.0;"/><path d="M479.8906,756.7109 Q479.2813,757.0391 478.6406,757.1953 Q478.0156,757.3672 477.3125,757.3672 Q475.0625,757.3672 473.8281,755.7734 Q472.5938,754.1797 472.5938,751.3047 Q472.5938,748.4453 473.8281,746.8516 Q475.0781,745.2578 477.3125,745.2578 Q478.0156,745.2578 478.6406,745.4141 Q479.2813,745.5703 479.8906,745.8984 L479.8906,747.5078 Q479.3125,747.0391 478.6406,746.7891 Q477.9844,746.5391 477.3125,746.5391 Q475.7656,746.5391 475,747.7266 Q474.2344,748.9141 474.2344,751.3047 Q474.2344,753.6953 475,754.8828 Q475.7656,756.0703 477.3125,756.0703 Q478,756.0703 478.6563,755.8203 Q479.3125,755.5703 479.8906,755.1016 L479.8906,756.7109 Z "/><text fill="#EEEEEE" font-family="sans-serif" font-size="12" font-style="italic" lengthAdjust="spacingAndGlyphs" textLength="93" x="519.5" y="745.1387">«private class»</text><text fill="#EEEEEE" font-family="sans-serif" font-size="14" lengthAdjust="spacingAndGlyphs" textLength="147" x="492.5" y="764.9639">General_Text_Setting</text><line style="stroke: #111111; stroke-width: 1.5;" x1="464.5" x2="643.5" y1="775.2656" y2="775.2656"/><line style="stroke: #111111; stroke-width: 1.5;" x1="464.5" x2="643.5" y1="783.2656" y2="783.2656"/><!--MD5=[5ac334d1f7c8825f36594a0a03e18dc0]
class General_Radio_Setting--><rect codeLine="73" fill="url(#g1sli8do21l22f0)" height="64.2656" id="General_Radio_Setting" style="stroke: #111111; stroke-width: 1.5;" width="190" x="680" y="727"/><ellipse cx="694" cy="751.1328" fill="#ADD1B2" rx="10" ry="10" style="stroke: #111111; stroke-width: 1.0;"/><path d="M696.3906,756.7109 Q695.7813,757.0391 695.1406,757.1953 Q694.5156,757.3672 693.8125,757.3672 Q691.5625,757.3672 690.3281,755.7734 Q689.0938,754.1797 689.0938,751.3047 Q689.0938,748.4453 690.3281,746.8516 Q691.5781,745.2578 693.8125,745.2578 Q694.5156,745.2578 695.1406,745.4141 Q695.7813,745.5703 696.3906,745.8984 L696.3906,747.5078 Q695.8125,747.0391 695.1406,746.7891 Q694.4844,746.5391 693.8125,746.5391 Q692.2656,746.5391 691.5,747.7266 Q690.7344,748.9141 690.7344,751.3047 Q690.7344,753.6953 691.5,754.8828 Q692.2656,756.0703 693.8125,756.0703 Q694.5,756.0703 695.1563,755.8203 Q695.8125,755.5703 696.3906,755.1016 L696.3906,756.7109 Z "/><text fill="#EEEEEE" font-family="sans-serif" font-size="12" font-style="italic" lengthAdjust="spacingAndGlyphs" textLength="93" x="740.5" y="745.1387">«private class»</text><text fill="#EEEEEE" font-family="sans-serif" font-size="14" lengthAdjust="spacingAndGlyphs" textLength="156" x="709" y="764.9639">General_Radio_Setting</text><line style="stroke: #111111; stroke-width: 1.5;" x1="681" x2="869" y1="775.2656" y2="775.2656"/><line style="stroke: #111111; stroke-width: 1.5;" x1="681" x2="869" y1="783.2656" y2="783.2656"/><!--MD5=[dd1e58bcfcf7b7268efe1ab8fc819155]
class Existing_Table--><rect codeLine="83" fill="url(#g1sli8do21l22f0)" height="64.2656" id="Existing_Table" style="stroke: #111111; stroke-width: 1.5;" width="132" x="1903" y="462.5"/><ellipse cx="1917" cy="486.6328" fill="#ADD1B2" rx="10" ry="10" style="stroke: #111111; stroke-width: 1.0;"/><path d="M1919.3906,492.2109 Q1918.7813,492.5391 1918.1406,492.6953 Q1917.5156,492.8672 1916.8125,492.8672 Q1914.5625,492.8672 1913.3281,491.2734 Q1912.0938,489.6797 1912.0938,486.8047 Q1912.0938,483.9453 1913.3281,482.3516 Q1914.5781,480.7578 1916.8125,480.7578 Q1917.5156,480.7578 1918.1406,480.9141 Q1918.7813,481.0703 1919.3906,481.3984 L1919.3906,483.0078 Q1918.8125,482.5391 1918.1406,482.2891 Q1917.4844,482.0391 1916.8125,482.0391 Q1915.2656,482.0391 1914.5,483.2266 Q1913.7344,484.4141 1913.7344,486.8047 Q1913.7344,489.1953 1914.5,490.3828 Q1915.2656,491.5703 1916.8125,491.5703 Q1917.5,491.5703 1918.1563,491.3203 Q1918.8125,491.0703 1919.3906,490.6016 L1919.3906,492.2109 Z "/><text fill="#EEEEEE" font-family="sans-serif" font-size="12" font-style="italic" lengthAdjust="spacingAndGlyphs" textLength="93" x="1934.5" y="480.6387">«private class»</text><text fill="#EEEEEE" font-family="sans-serif" font-size="14" lengthAdjust="spacingAndGlyphs" textLength="98" x="1932" y="500.4639">Existing_Table</text><line style="stroke: #111111; stroke-width: 1.5;" x1="1904" x2="2034" y1="510.7656" y2="510.7656"/><line style="stroke: #111111; stroke-width: 1.5;" x1="1904" x2="2034" y1="518.7656" y2="518.7656"/><!--MD5=[e2b9269511542e3cd7f88af802e75ba3]
class Modify_Query_Settings--><rect codeLine="84" fill="url(#g1sli8do21l22f0)" height="64.2656" id="Modify_Query_Settings" style="stroke: #111111; stroke-width: 1.5;" width="190" x="1678" y="462.5"/><ellipse cx="1692" cy="486.6328" fill="#ADD1B2" rx="10" ry="10" style="stroke: #111111; stroke-width: 1.0;"/><path d="M1694.3906,492.2109 Q1693.7813,492.5391 1693.1406,492.6953 Q1692.5156,492.8672 1691.8125,492.8672 Q1689.5625,492.8672 1688.3281,491.2734 Q1687.0938,489.6797 1687.0938,486.8047 Q1687.0938,483.9453 1688.3281,482.3516 Q1689.5781,480.7578 1691.8125,480.7578 Q1692.5156,480.7578 1693.1406,480.9141 Q1693.7813,481.0703 1694.3906,481.3984 L1694.3906,483.0078 Q1693.8125,482.5391 1693.1406,482.2891 Q1692.4844,482.0391 1691.8125,482.0391 Q1690.2656,482.0391 1689.5,483.2266 Q1688.7344,484.4141 1688.7344,486.8047 Q1688.7344,489.1953 1689.5,490.3828 Q1690.2656,491.5703 1691.8125,491.5703 Q1692.5,491.5703 1693.1563,491.3203 Q1693.8125,491.0703 1694.3906,490.6016 L1694.3906,492.2109 Z "/><text fill="#EEEEEE" font-family="sans-serif" font-size="12" font-style="italic" lengthAdjust="spacingAndGlyphs" textLength="93" x="1738.5" y="480.6387">«private class»</text><text fill="#EEEEEE" font-family="sans-serif" font-size="14" lengthAdjust="spacingAndGlyphs" textLength="156" x="1707" y="500.4639">Modify_Query_Settings</text><line style="stroke: #111111; stroke-width: 1.5;" x1="1679" x2="1867" y1="510.7656" y2="510.7656"/><line style="stroke: #111111; stroke-width: 1.5;" x1="1679" x2="1867" y1="518.7656" y2="518.7656"/><!--MD5=[5368e1cc4c16fdc7e47e78ac99419597]
class Query_Setting_Display--><rect codeLine="86" fill="url(#g1sli8do21l22f0)" height="64.2656" id="Query_Setting_Display" style="stroke: #111111; stroke-width: 1.5;" width="187" x="1455.5" y="462.5"/><ellipse cx="1469.5" cy="486.6328" fill="#B4A7E5" rx="10" ry="10" style="stroke: #111111; stroke-width: 1.0;"/><path d="M1466.5781,480.9609 L1473.0469,480.9609 L1473.0469,482.2891 L1470.6094,482.2891 L1470.6094,491.3047 L1473.0469,491.3047 L1473.0469,492.6328 L1466.5781,492.6328 L1466.5781,491.3047 L1469.0156,491.3047 L1469.0156,482.2891 L1466.5781,482.2891 L1466.5781,480.9609 Z "/><text fill="#EEEEEE" font-family="sans-serif" font-size="12" font-style="italic" lengthAdjust="spacingAndGlyphs" textLength="93" x="1514.5" y="480.6387">«private class»</text><text fill="#EEEEEE" font-family="sans-serif" font-size="14" font-style="italic" lengthAdjust="spacingAndGlyphs" textLength="153" x="1484.5" y="500.4639">Query_Setting_Display</text><line style="stroke: #111111; stroke-width: 1.5;" x1="1456.5" x2="1641.5" y1="510.7656" y2="510.7656"/><line style="stroke: #111111; stroke-width: 1.5;" x1="1456.5" x2="1641.5" y1="518.7656" y2="518.7656"/><!--MD5=[4e9930642eb2947afcb50d185bec7661]
class Author_Display--><rect codeLine="87" fill="url(#g1sli8do21l22f0)" height="64.2656" id="Author_Display" style="stroke: #111111; stroke-width: 1.5;" width="136" x="1442" y="603"/><ellipse cx="1456" cy="627.1328" fill="#ADD1B2" rx="10" ry="10" style="stroke: #111111; stroke-width: 1.0;"/><path d="M1458.3906,632.7109 Q1457.7813,633.0391 1457.1406,633.1953 Q1456.5156,633.3672 1455.8125,633.3672 Q1453.5625,633.3672 1452.3281,631.7734 Q1451.0938,630.1797 1451.0938,627.3047 Q1451.0938,624.4453 1452.3281,622.8516 Q1453.5781,621.2578 1455.8125,621.2578 Q1456.5156,621.2578 1457.1406,621.4141 Q1457.7813,621.5703 1458.3906,621.8984 L1458.3906,623.5078 Q1457.8125,623.0391 1457.1406,622.7891 Q1456.4844,622.5391 1455.8125,622.5391 Q1454.2656,622.5391 1453.5,623.7266 Q1452.7344,624.9141 1452.7344,627.3047 Q1452.7344,629.6953 1453.5,630.8828 Q1454.2656,632.0703 1455.8125,632.0703 Q1456.5,632.0703 1457.1563,631.8203 Q1457.8125,631.5703 1458.3906,631.1016 L1458.3906,632.7109 Z "/><text fill="#EEEEEE" font-family="sans-serif" font-size="12" font-style="italic" lengthAdjust="spacingAndGlyphs" textLength="93" x="1475.5" y="621.1387">«private class»</text><text fill="#EEEEEE" font-family="sans-serif" font-size="14" lengthAdjust="spacingAndGlyphs" textLength="102" x="1471" y="640.9639">Author_Display</text><line style="stroke: #111111; stroke-width: 1.5;" x1="1443" x2="1577" y1="651.2656" y2="651.2656"/><line style="stroke: #111111; stroke-width: 1.5;" x1="1443" x2="1577" y1="659.2656" y2="659.2656"/><!--MD5=[fba17e7b32fbe8b39a308916758e1d0d]
class Category_Display--><rect codeLine="88" fill="url(#g1sli8do21l22f0)" height="64.2656" id="Category_Display" style="stroke: #111111; stroke-width: 1.5;" width="152" x="1613" y="603"/><ellipse cx="1627" cy="627.1328" fill="#ADD1B2" rx="10" ry="10" style="stroke: #111111; stroke-width: 1.0;"/><path d="M1629.3906,632.7109 Q1628.7813,633.0391 1628.1406,633.1953 Q1627.5156,633.3672 1626.8125,633.3672 Q1624.5625,633.3672 1623.3281,631.7734 Q1622.0938,630.1797 1622.0938,627.3047 Q1622.0938,624.4453 1623.3281,622.8516 Q1624.5781,621.2578 1626.8125,621.2578 Q1627.5156,621.2578 1628.1406,621.4141 Q1628.7813,621.5703 1629.3906,621.8984 L1629.3906,623.5078 Q1628.8125,623.0391 1628.1406,622.7891 Q1627.4844,622.5391 1626.8125,622.5391 Q1625.2656,622.5391 1624.5,623.7266 Q1623.7344,624.9141 1623.7344,627.3047 Q1623.7344,629.6953 1624.5,630.8828 Q1625.2656,632.0703 1626.8125,632.0703 Q1627.5,632.0703 1628.1563,631.8203 Q1628.8125,631.5703 1629.3906,631.1016 L1629.3906,632.7109 Z "/><text fill="#EEEEEE" font-family="sans-serif" font-size="12" font-style="italic" lengthAdjust="spacingAndGlyphs" textLength="93" x="1654.5" y="621.1387">«private class»</text><text fill="#EEEEEE" font-family="sans-serif" font-size="14" lengthAdjust="spacingAndGlyphs" textLength="118" x="1642" y="640.9639">Category_Display</text><line style="stroke: #111111; stroke-width: 1.5;" x1="1614" x2="1764" y1="651.2656" y2="651.2656"/><line style="stroke: #111111; stroke-width: 1.5;" x1="1614" x2="1764" y1="659.2656" y2="659.2656"/><!--MD5=[c35528968e066a2225c268225e2bbae4]
class All_Other_Classes_From_This_Folder--><rect codeLine="89" fill="url(#g1sli8do21l22f0)" height="64.2656" id="All_Other_Classes_From_This_Folder" style="stroke: #111111; stroke-width: 1.5;" width="284" x="1800" y="603"/><ellipse cx="1814" cy="627.1328" fill="#ADD1B2" rx="10" ry="10" style="stroke: #111111; stroke-width: 1.0;"/><path d="M1816.3906,632.7109 Q1815.7813,633.0391 1815.1406,633.1953 Q1814.5156,633.3672 1813.8125,633.3672 Q1811.5625,633.3672 1810.3281,631.7734 Q1809.0938,630.1797 1809.0938,627.3047 Q1809.0938,624.4453 1810.3281,622.8516 Q1811.5781,621.2578 1813.8125,621.2578 Q1814.5156,621.2578 1815.1406,621.4141 Q1815.7813,621.5703 1816.3906,621.8984 L1816.3906,623.5078 Q1815.8125,623.0391 1815.1406,622.7891 Q1814.4844,622.5391 1813.8125,622.5391 Q1812.2656,622.5391 1811.5,623.7266 Q1810.7344,624.9141 1810.7344,627.3047 Q1810.7344,629.6953 1811.5,630.8828 Q1812.2656,632.0703 1813.8125,632.0703 Q1814.5,632.0703 1815.1563,631.8203 Q1815.8125,631.5703 1816.3906,631.1016 L1816.3906,632.7109 Z "/><text fill="#EEEEEE" font-family="sans-serif" font-size="12" font-style="italic" lengthAdjust="spacingAndGlyphs" textLength="93" x="1907.5" y="621.1387">«private class»</text><text fill="#EEEEEE" font-family="sans-serif" font-size="14" lengthAdjust="spacingAndGlyphs" textLength="250" x="1829" y="640.9639">All_Other_Classes_From_This_Folder</text><line style="stroke: #111111; stroke-width: 1.5;" x1="1801" x2="2083" y1="651.2656" y2="651.2656"/><line style="stroke: #111111; stroke-width: 1.5;" x1="1801" x2="2083" y1="659.2656" y2="659.2656"/><!--MD5=[b80055a172be9eda9cdda363324f0e03]
reverse link Widget_Control to Select_Control--><path d="M2387.5696,141.2955 C2338.8096,155.7255 2320.9588,147.6893 2280,165.5 C2262.7311,173.0093 2245.3481,184.0016 2230.469,194.7099 " fill="none" id="Widget_Control-backto-Select_Control" style="stroke: #FFFF00; stroke-width: 1.0; stroke-dasharray: 7.0,7.0;"/><polygon fill="none" points="2385.4257,134.6318,2406.6117,135.0251,2389.8046,147.9294,2385.4257,134.6318" style="stroke: #FFFF00; stroke-width: 1.0;"/><!--MD5=[592053b74943100c0e52cfc4d7ec180a]
reverse link Widget_Control to Number_Control--><path d="M2434.3629,151.5313 C2423.7767,165.9877 2412.4757,181.4203 2402.7934,194.6423 " fill="none" id="Widget_Control-backto-Number_Control" style="stroke: #FFFF00; stroke-width: 1.0; stroke-dasharray: 7.0,7.0;"/><polygon fill="none" points="2428.8579,147.2007,2446.3219,135.2002,2440.1532,155.4721,2428.8579,147.2007" style="stroke: #FFFF00; stroke-width: 1.0;"/><!--MD5=[2038e17d1d3ea9321a005387ec481d65]
reverse link Widget_Control to Color_Control--><path d="M2507.6371,151.5313 C2518.2233,165.9877 2529.5243,181.4203 2539.2066,194.6423 " fill="none" id="Widget_Control-backto-Color_Control" style="stroke: #FFFF00; stroke-width: 1.0; stroke-dasharray: 7.0,7.0;"/><polygon fill="none" points="2501.8468,155.4721,2495.6781,135.2002,2513.1421,147.2007,2501.8468,155.4721" style="stroke: #FFFF00; stroke-width: 1.0;"/><!--MD5=[770b15684bc834000dada0ff7c54273e]
reverse link Widget_Control to Other_Similar_Classes--><path d="M2567.3308,132.6105 C2594.9924,142.3348 2624.9749,153.6451 2652,165.5 C2671.8017,174.1862 2692.83,184.8205 2711.6132,194.8609 " fill="none" id="Widget_Control-backto-Other_Similar_Classes" style="stroke: #FFFF00; stroke-width: 1.0; stroke-dasharray: 7.0,7.0;"/><polygon fill="none" points="2564.7665,139.1307,2548.1473,125.9852,2569.3368,125.8976,2564.7665,139.1307" style="stroke: #FFFF00; stroke-width: 1.0;"/><!--MD5=[31fbbbe0ca4fb70ad7ab9d1ab63e96e5]
link General_Settings_Factory to General_Settings_Creator--><path codeLine="75" d="M775,543.2458 C775,561.0589 775,580.9134 775,597.5848 " fill="none" id="General_Settings_Factory-to-General_Settings_Creator" style="stroke: #FFFF00; stroke-width: 1.0;"/><polygon fill="#FFFF00" points="775,602.6507,779,593.6507,775,597.6507,771,593.6507,775,602.6507" style="stroke: #FFFF00; stroke-width: 1.0;"/><!--MD5=[1cd599653b14e4a70adb3a12d4da470c]
reverse link General_Settings_Creator to General_Select_Setting--><path codeLine="76" d="M900.2118,659.6226 C986.4742,677.1002 1103.5685,701.8412 1206,727 C1211.8364,728.4335 1217.8263,729.9529 1223.86,731.5203 " fill="none" id="General_Settings_Creator-backto-General_Select_Setting" style="stroke: #FFFF00; stroke-width: 1.0; stroke-dasharray: 7.0,7.0;"/><polygon fill="none" points="898.5809,666.4347,880.3598,655.6183,901.3491,652.7111,898.5809,666.4347" style="stroke: #FFFF00; stroke-width: 1.0;"/><!--MD5=[68416cba36beb92d4f82003b68f3f172]
reverse link General_Settings_Creator to General_Text_Setting--><path codeLine="77" d="M700.2734,676.9281 C671.2242,693.2272 638.4775,711.6008 611.3443,726.8249 " fill="none" id="General_Settings_Creator-backto-General_Text_Setting" style="stroke: #FFFF00; stroke-width: 1.0; stroke-dasharray: 7.0,7.0;"/><polygon fill="none" points="696.9323,670.7762,717.7996,667.0943,703.7828,682.9856,696.9323,670.7762" style="stroke: #FFFF00; stroke-width: 1.0;"/><!--MD5=[fec4fee6a4cb092af7768c2f619239b9]
reverse link General_Settings_Creator to General_Radio_Setting--><path codeLine="78" d="M775,687.4467 C775,700.852 775,714.8678 775,726.9057 " fill="none" id="General_Settings_Creator-backto-General_Radio_Setting" style="stroke: #FFFF00; stroke-width: 1.0; stroke-dasharray: 7.0,7.0;"/><polygon fill="none" points="768.0001,687.2559,775,667.2558,782.0001,687.2558,768.0001,687.2559" style="stroke: #FFFF00; stroke-width: 1.0;"/><!--MD5=[98fd3bc6f86940d8c8acaaef93e2049f]
link General_Select_With_Switch_Setting to General_Select_Setting--><path codeLine="79" d="M1188.5488,759 C1193.625,759 1198.7012,759 1203.7774,759 " fill="none" id="General_Select_With_Switch_Setting-to-General_Select_Setting" style="stroke: #FFFF00; stroke-width: 1.0;"/><polygon fill="none" points="1203.9899,751.9999,1223.9899,759,1203.9898,765.9999,1203.9899,751.9999" style="stroke: #FFFF00; stroke-width: 1.0;"/><!--MD5=[eede1f10b82fe6f482fd6779278c4f7e]
reverse link Query_Setting_Display to Author_Display--><path codeLine="91" d="M1534.628,546.276 C1529.3607,565.2517 1523.5561,586.1632 1518.9058,602.9164 " fill="none" id="Query_Setting_Display-backto-Author_Display" style="stroke: #FFFF00; stroke-width: 1.0; stroke-dasharray: 7.0,7.0;"/><polygon fill="none" points="1527.9582,544.1326,1540.0526,526.7335,1541.4482,547.8772,1527.9582,544.1326" style="stroke: #FFFF00; stroke-width: 1.0;"/><!--MD5=[21e56594f523eed143211c2cc08ba454]
reverse link Query_Setting_Display to Category_Display--><path codeLine="92" d="M1595.5142,541.1803 C1615.6976,561.4358 1638.8275,584.6483 1657.0306,602.9164 " fill="none" id="Query_Setting_Display-backto-Category_Display" style="stroke: #FFFF00; stroke-width: 1.0; stroke-dasharray: 7.0,7.0;"/><polygon fill="none" points="1590.2772,545.8418,1581.1188,526.7335,1600.1943,535.96,1590.2772,545.8418" style="stroke: #FFFF00; stroke-width: 1.0;"/><!--MD5=[b4b286b3e5f16b2895e7697b7772eb9a]
reverse link Query_Setting_Display to All_Other_Classes_From_This_Folder--><path codeLine="93" d="M1638.7838,534.2389 C1646.2651,537.2878 1653.7408,540.2466 1661,543 C1718.3556,564.7547 1783.3941,586.246 1836.445,602.9796 " fill="none" id="Query_Setting_Display-backto-All_Other_Classes_From_This_Folder" style="stroke: #FFFF00; stroke-width: 1.0; stroke-dasharray: 7.0,7.0;"/><polygon fill="none" points="1636.0675,540.6905,1620.2953,526.5399,1641.4494,527.7663,1636.0675,540.6905" style="stroke: #FFFF00; stroke-width: 1.0;"/><!--MD5=[a9471c4fe053f2fd3ffe167949f3959a]
link Documentation_Tab to TWRP\Admin\Tabs\Documentation--><path codeLine="96" d="M465.5221,386.0083 C458.2512,394.7175 451.4217,404.6315 447,415 C445.3675,418.828 444.0078,422.8505 442.8793,426.9695 C442.5972,427.9992 442.3295,429.035 442.0757,430.0753 C442.0122,430.3353 441.9496,430.5957 441.8878,430.8563 C441.857,430.9866 441.8263,431.117 441.7959,431.2474 " fill="none" id="Documentation_Tab-to-TWRP\Admin\Tabs\Documentation" style="stroke: #FFFF00; stroke-width: 1.0;"/><polygon fill="#FFFF00" points="441.7959,431.2474,447.7373,423.3925,442.9326,426.3783,439.9468,421.5737,441.7959,431.2474" style="stroke: #FFFF00; stroke-width: 1.0;"/><!--MD5=[63c334a9f47c40fb4600b56fc83e0b11]
link General_Settings_Tab to General_Settings_Factory--><path codeLine="97" d="M775,386.2335 C775,402.3773 775,422.3541 775,440.7351 " fill="none" id="General_Settings_Tab-to-General_Settings_Factory" style="stroke: #FFFF00; stroke-width: 1.0;"/><polygon fill="#FFFF00" points="775,445.8727,779,436.8727,775,440.8727,771,436.8727,775,445.8727" style="stroke: #FFFF00; stroke-width: 1.0;"/><!--MD5=[0587ba190964821ee5d97233706f5e4f]
link Queries_Tab to TWRP\Admin\Tabs\Query_Options--><path codeLine="98" d="M1564.0293,357.0044 C1703.989,363.8935 2017.3181,382.7641 2053,415 C2056.1419,417.8385 2058.7809,421.1035 2060.9917,424.656 C2062.0971,426.4323 2063.0955,428.2804 2063.9961,430.1831 C2064.1087,430.4209 2064.2197,430.6596 2064.3293,430.8991 C2064.384,431.0189 2064.4384,431.1388 2064.4925,431.259 " fill="none" id="Queries_Tab-TWRP\Admin\Tabs\Query_Options" style="stroke: #FFFF00; stroke-width: 1.0;"/><polygon fill="#FFFF00" points="2064.4925,431.259,2064.4503,421.4102,2062.4422,426.6987,2057.1538,424.6906,2064.4925,431.259" style="stroke: #FFFF00; stroke-width: 1.0;"/><polygon fill="#FFFF00" points="1558.7172,356.7446,1567.5109,361.1798,1563.7112,356.989,1567.902,353.1894,1558.7172,356.7446" style="stroke: #FFFF00; stroke-width: 1.0;"/><!--MD5=[1573b609d1c981c07e3e2df03d1f92cd]
link Settings_Menu to Interface_Admin_Menu_Tab--><path codeLine="101" d="M775,133.5475 C775,151.1452 775,173.0546 775,191.392 " fill="none" id="Settings_Menu-to-Interface_Admin_Menu_Tab" style="stroke: #FFFF00; stroke-width: 1.0; stroke-dasharray: 7.0,7.0;"/><polygon fill="#FFFF00" points="775,196.4628,779,187.4628,775,191.4628,771,187.4628,775,196.4628" style="stroke: #FFFF00; stroke-width: 1.0;"/><!--MD5=[07b43f6ef7344a7fd4ea49a8d2413bdc]
reverse link Interface_Admin_Menu_Tab to Documentation_Tab--><path codeLine="102" d="M685.9984,268.9699 C648.2916,286.1156 604.976,305.8116 569.5346,321.9272 " fill="none" id="Interface_Admin_Menu_Tab-backto-Documentation_Tab" style="stroke: #FFFF00; stroke-width: 1.0; stroke-dasharray: 7.0,7.0;"/><polygon fill="none" points="683.1778,262.5628,704.2815,260.6564,688.9728,275.3072,683.1778,262.5628" style="stroke: #FFFF00; stroke-width: 1.0;"/><!--MD5=[8250b25ee4fe85e58502f14c02314ce3]
reverse link Interface_Admin_Menu_Tab to General_Settings_Tab--><path codeLine="103" d="M775,280.9577 C775,294.8144 775,309.3596 775,321.7902 " fill="none" id="Interface_Admin_Menu_Tab-backto-General_Settings_Tab" style="stroke: #FFFF00; stroke-width: 1.0; stroke-dasharray: 7.0,7.0;"/><polygon fill="none" points="768.0001,280.8194,775,260.8194,782.0001,280.8193,768.0001,280.8194" style="stroke: #FFFF00; stroke-width: 1.0;"/><!--MD5=[27a870436ccca6ef44a10ed16f9c9026]
reverse link Interface_Admin_Menu_Tab to Queries_Tab--><path codeLine="104" d="M906.655,251.3846 C1063.4466,278.6386 1318.7528,323.0166 1435.3748,343.2881 " fill="none" id="Interface_Admin_Menu_Tab-backto-Queries_Tab" style="stroke: #FFFF00; stroke-width: 1.0; stroke-dasharray: 7.0,7.0;"/><polygon fill="none" points="905.1307,258.2247,886.625,247.903,907.5284,244.4316,905.1307,258.2247" style="stroke: #FFFF00; stroke-width: 1.0;"/><!--MD5=[440d7c03789e1d2474fd6611ba5b5136]
@startuml
set namespaceSeparator \\

    skinparam {
        padding 2
        backgroundColor #222
        shadowing false

        classFontColor #eee
        classStereotypeFontColor #eee
        classBorderColor #111
        classFontSize 14
        ClassAttributeFontColor #eee
        ClassAttributeFontSize 13
        ClassAttributeIconSize 15

        PackageBackgroundColor #2c2c2c
        PackageBorderColor #111
        PackageFontColor #eee

        ArrowColor yellow

        circledCharacterFontColor black
        circledCharacterFontSize 16
        circledCharacterFontStyle plain
        circledCharacterRadius 10

        <<public class>>classBackgroundColor #004b00/#003b00
        <<public class>>classFontSize 16

        <<private class>>classBackgroundColor #5d0000/#4d0000

        <<protected class>>classBackgroundColor #d16300/#c15300

        <<abstract class>>classBorderColor #755800
    }


package "TWRP\Admin - - The backend of the website" {
	class Settings_Menu <<private class>> {}

	package "TWRP\Admin\Helpers" {
		class Remember_Note <<private class>> {}
	}

	package "TWRP\Admin\Widget_Control" {
		abstract Widget_Control <<public class>> {}
		class Select_Control <<public class>> implements Widget_Control {}
		class Number_Control <<public class>> implements Widget_Control {}
		class Color_Control <<public class>> implements Widget_Control {}
		class Other_Similar_Classes <<public class>> implements Widget_Control {}
	}

	package "TWRP\Admin\Tabs" {
		interface Interface_Admin_Menu_Tab <<private class>> {}
		class Documentation_Tab <<private class>> {}
		class General_Settings_Tab <<private class>> {}
		class Queries_Tab <<private class>> {}

		package "TWRP\Admin\Tabs\Documentation" {
			class Icons_Documentation <<private class>> {}
			class License_Display <<private class>> {}
		}

		package "TWRP\Admin\Tabs\General_Settings" {
			class General_Settings_Factory <<private class>> <<Facade>> {
				+ display( $setting_name )
			}

			interface General_Settings_Creator <<private class>>
			class General_Select_Setting <<private class>>
			class General_Select_With_Switch_Setting <<private class>>
			class General_Text_Setting <<private class>>
			class General_Radio_Setting <<private class>>

			General_Settings_Factory - -> General_Settings_Creator
			General_Settings_Creator <|.. General_Select_Setting
			General_Settings_Creator <|..  General_Text_Setting
			General_Settings_Creator <|.. General_Radio_Setting
			General_Select_Setting <|-l- General_Select_With_Switch_Setting
		}

		package "TWRP\Admin\Tabs\Query_Options" {
			class Existing_Table <<private class>> {}
			class Modify_Query_Settings <<private class>> {}

			interface Query_Setting_Display <<private class>> {}
			class Author_Display <<private class>> {}
			class Category_Display <<private class>> {}
			class All_Other_Classes_From_This_Folder <<private class>> {}

			Query_Setting_Display <|.. Author_Display
			Query_Setting_Display <|.. Category_Display
			Query_Setting_Display <|.. All_Other_Classes_From_This_Folder
		}

			Documentation_Tab - -> TWRP\Admin\Tabs\Documentation
			General_Settings_Tab - -> General_Settings_Factory
			Queries_Tab <- -> TWRP\Admin\Tabs\Query_Options
	}

	Settings_Menu ..> Interface_Admin_Menu_Tab
	Interface_Admin_Menu_Tab <|.. Documentation_Tab
	Interface_Admin_Menu_Tab <|.. General_Settings_Tab
	Interface_Admin_Menu_Tab <|.. Queries_Tab
}
@enduml

PlantUML version 1.2020.19(Mon Oct 12 15:10:01 UTC 2020)
(GPL source distribution)
Java Runtime: OpenJDK Runtime Environment
JVM: OpenJDK 64-Bit Server VM
Default Encoding: UTF-8
Language: en
Country: null
--></g></svg>