<?xml version="1.0" encoding="UTF-8" standalone="no"?><svg xmlns="http://www.w3.org/2000/svg" xmlns:xlink="http://www.w3.org/1999/xlink" contentScriptType="application/ecmascript" contentStyleType="text/css" height="816px" preserveAspectRatio="none" style="width:2159px;height:816px;background:#222222;" version="1.1" viewBox="0 0 2159 816" width="2159px" zoomAndPan="magnify"><defs/><g><!--MD5=[edf173e897bc9356416944c5fed9afdd]
cluster TWRP\Admin - - The backend of the website--><polygon fill="#444444" points="16,6,369,6,376,32.2969,2142,32.2969,2142,809,16,809,16,6" style="stroke: #111111; stroke-width: 1.5;"/><line style="stroke: #111111; stroke-width: 1.5;" x1="16" x2="376" y1="32.2969" y2="32.2969"/><text fill="#EEEEEE" font-family="sans-serif" font-size="14" font-weight="bold" lengthAdjust="spacingAndGlyphs" textLength="343" x="22" y="22.9951">TWRP\Admin -- The backend of the website</text><!--MD5=[7fbddded92a143b6ad08e96944e7313c]
cluster TWRP\Admin\Helpers--><polygon fill="#444444" points="1416,37,1591,37,1598,63.2969,1601,63.2969,1601,140,1416,140,1416,37" style="stroke: #111111; stroke-width: 1.5;"/><line style="stroke: #111111; stroke-width: 1.5;" x1="1416" x2="1598" y1="63.2969" y2="63.2969"/><text fill="#EEEEEE" font-family="sans-serif" font-size="14" font-weight="bold" lengthAdjust="spacingAndGlyphs" textLength="165" x="1422" y="53.9951">TWRP\Admin\Helpers</text><!--MD5=[0d3367408421cacbbbf01906b0cc8e4e]
cluster TWRP\Admin\Tabs--><polygon fill="#444444" points="24,161,176,161,183,187.2969,2134,187.2969,2134,801,24,801,24,161" style="stroke: #111111; stroke-width: 1.5;"/><line style="stroke: #111111; stroke-width: 1.5;" x1="24" x2="183" y1="187.2969" y2="187.2969"/><text fill="#EEEEEE" font-family="sans-serif" font-size="14" font-weight="bold" lengthAdjust="spacingAndGlyphs" textLength="142" x="30" y="177.9951">TWRP\Admin\Tabs</text><!--MD5=[6a458880608256c85dbd90a39ef2109d]
cluster TWRP\Admin\Tabs\Documentation--><polygon fill="#444444" points="32,425.5,308,425.5,315,451.7969,455,451.7969,455,528.5,32,528.5,32,425.5" style="stroke: #111111; stroke-width: 1.5;"/><line style="stroke: #111111; stroke-width: 1.5;" x1="32" x2="315" y1="451.7969" y2="451.7969"/><text fill="#EEEEEE" font-family="sans-serif" font-size="14" font-weight="bold" lengthAdjust="spacingAndGlyphs" textLength="266" x="38" y="442.4951">TWRP\Admin\Tabs\Documentation</text><!--MD5=[c215e39dbad3337025b8fa23567c765e]
cluster TWRP\Admin\Tabs\General_Settings--><polygon fill="#444444" points="463,409,754,409,761,435.2969,1448,435.2969,1448,793,463,793,463,409" style="stroke: #111111; stroke-width: 1.5;"/><line style="stroke: #111111; stroke-width: 1.5;" x1="463" x2="761" y1="435.2969" y2="435.2969"/><text fill="#EEEEEE" font-family="sans-serif" font-size="14" font-weight="bold" lengthAdjust="spacingAndGlyphs" textLength="281" x="469" y="425.9951">TWRP\Admin\Tabs\General_Settings</text><!--MD5=[ca3ca2953491e9b8ebbe5eac8e2abf95]
cluster TWRP\Admin\Tabs\Query_Options--><polygon fill="#444444" points="1456,425.5,1729,425.5,1736,451.7969,2126,451.7969,2126,669,1456,669,1456,425.5" style="stroke: #111111; stroke-width: 1.5;"/><line style="stroke: #111111; stroke-width: 1.5;" x1="1456" x2="1736" y1="451.7969" y2="451.7969"/><text fill="#EEEEEE" font-family="sans-serif" font-size="14" font-weight="bold" lengthAdjust="spacingAndGlyphs" textLength="263" x="1462" y="442.4951">TWRP\Admin\Tabs\Query_Options</text><!--MD5=[8e276117ea87ca274e65ba56c368b898]
class Settings_Menu--><rect codeLine="41" fill="#5D0000" height="64.2656" id="Settings_Menu" style="stroke: #111111; stroke-width: 1.5;" width="141" x="716.5" y="68"/><ellipse cx="732.5" cy="92.1328" fill="#ADD1B2" rx="12" ry="12" style="stroke: #111111; stroke-width: 1.0;"/><path d="M735.4375,98.1641 Q734.75,98.5234 734.0313,98.6953 Q733.3281,98.8828 732.5313,98.8828 Q730.0156,98.8828 728.6094,97.1016 Q727.2188,95.3203 727.2188,92.0859 Q727.2188,88.8672 728.625,87.0703 Q730.0313,85.2734 732.5313,85.2734 Q733.3281,85.2734 734.0313,85.4609 Q734.75,85.6328 735.4375,85.9922 L735.4375,87.8203 Q734.7813,87.2734 734.0313,86.9922 Q733.2813,86.7109 732.5313,86.7109 Q730.7969,86.7109 729.9375,88.0547 Q729.0781,89.3828 729.0781,92.0859 Q729.0781,94.7734 729.9375,96.1172 Q730.7969,97.4453 732.5313,97.4453 Q733.2969,97.4453 734.0469,97.1641 Q734.7969,96.8828 735.4375,96.3516 L735.4375,98.1641 Z "/><text fill="#EEEEEE" font-family="sans-serif" font-size="12" font-style="italic" lengthAdjust="spacingAndGlyphs" textLength="93" x="754.5" y="86.1387">«private class»</text><text fill="#EEEEEE" font-family="sans-serif" font-size="14" lengthAdjust="spacingAndGlyphs" textLength="103" x="749.5" y="105.9639">Settings_Menu</text><line style="stroke: #111111; stroke-width: 1.5;" x1="717.5" x2="856.5" y1="116.2656" y2="116.2656"/><line style="stroke: #111111; stroke-width: 1.5;" x1="717.5" x2="856.5" y1="124.2656" y2="124.2656"/><!--MD5=[754c1fb5bb7687394bf4c2a3220ac8b1]
class Remember_Note--><rect codeLine="44" fill="#5D0000" height="64.2656" id="Remember_Note" style="stroke: #111111; stroke-width: 1.5;" width="155" x="1431.5" y="68"/><ellipse cx="1447.5" cy="92.1328" fill="#ADD1B2" rx="12" ry="12" style="stroke: #111111; stroke-width: 1.0;"/><path d="M1450.4375,98.1641 Q1449.75,98.5234 1449.0313,98.6953 Q1448.3281,98.8828 1447.5313,98.8828 Q1445.0156,98.8828 1443.6094,97.1016 Q1442.2188,95.3203 1442.2188,92.0859 Q1442.2188,88.8672 1443.625,87.0703 Q1445.0313,85.2734 1447.5313,85.2734 Q1448.3281,85.2734 1449.0313,85.4609 Q1449.75,85.6328 1450.4375,85.9922 L1450.4375,87.8203 Q1449.7813,87.2734 1449.0313,86.9922 Q1448.2813,86.7109 1447.5313,86.7109 Q1445.7969,86.7109 1444.9375,88.0547 Q1444.0781,89.3828 1444.0781,92.0859 Q1444.0781,94.7734 1444.9375,96.1172 Q1445.7969,97.4453 1447.5313,97.4453 Q1448.2969,97.4453 1449.0469,97.1641 Q1449.7969,96.8828 1450.4375,96.3516 L1450.4375,98.1641 Z "/><text fill="#EEEEEE" font-family="sans-serif" font-size="12" font-style="italic" lengthAdjust="spacingAndGlyphs" textLength="93" x="1476.5" y="86.1387">«private class»</text><text fill="#EEEEEE" font-family="sans-serif" font-size="14" lengthAdjust="spacingAndGlyphs" textLength="117" x="1464.5" y="105.9639">Remember_Note</text><line style="stroke: #111111; stroke-width: 1.5;" x1="1432.5" x2="1585.5" y1="116.2656" y2="116.2656"/><line style="stroke: #111111; stroke-width: 1.5;" x1="1432.5" x2="1585.5" y1="124.2656" y2="124.2656"/><!--MD5=[f2ff5728977676709ad70da68364f96a]
class Interface_Admin_Menu_Tab--><rect codeLine="48" fill="#5D0000" height="64.2656" id="Interface_Admin_Menu_Tab" style="stroke: #111111; stroke-width: 1.5;" width="227" x="673.5" y="192"/><ellipse cx="689.5" cy="216.1328" fill="#B4A7E5" rx="12" ry="12" style="stroke: #111111; stroke-width: 1.0;"/><path d="M685.2656,209.5078 L692.5469,209.5078 L692.5469,211.0078 L689.7969,211.0078 L689.7969,221.1328 L692.5469,221.1328 L692.5469,222.6328 L685.2656,222.6328 L685.2656,221.1328 L688.0156,221.1328 L688.0156,211.0078 L685.2656,211.0078 L685.2656,209.5078 Z "/><text fill="#EEEEEE" font-family="sans-serif" font-size="12" font-style="italic" lengthAdjust="spacingAndGlyphs" textLength="93" x="754.5" y="210.1387">«private class»</text><text fill="#EEEEEE" font-family="sans-serif" font-size="14" font-style="italic" lengthAdjust="spacingAndGlyphs" textLength="189" x="706.5" y="229.9639">Interface_Admin_Menu_Tab</text><line style="stroke: #111111; stroke-width: 1.5;" x1="674.5" x2="899.5" y1="240.2656" y2="240.2656"/><line style="stroke: #111111; stroke-width: 1.5;" x1="674.5" x2="899.5" y1="248.2656" y2="248.2656"/><!--MD5=[349e6a18946b157a7b3024fe5550fe62]
class Documentation_Tab--><rect codeLine="49" fill="#5D0000" height="64.2656" id="Documentation_Tab" style="stroke: #111111; stroke-width: 1.5;" width="178" x="418" y="316"/><ellipse cx="434" cy="340.1328" fill="#ADD1B2" rx="12" ry="12" style="stroke: #111111; stroke-width: 1.0;"/><path d="M436.9375,346.1641 Q436.25,346.5234 435.5313,346.6953 Q434.8281,346.8828 434.0313,346.8828 Q431.5156,346.8828 430.1094,345.1016 Q428.7188,343.3203 428.7188,340.0859 Q428.7188,336.8672 430.125,335.0703 Q431.5313,333.2734 434.0313,333.2734 Q434.8281,333.2734 435.5313,333.4609 Q436.25,333.6328 436.9375,333.9922 L436.9375,335.8203 Q436.2813,335.2734 435.5313,334.9922 Q434.7813,334.7109 434.0313,334.7109 Q432.2969,334.7109 431.4375,336.0547 Q430.5781,337.3828 430.5781,340.0859 Q430.5781,342.7734 431.4375,344.1172 Q432.2969,345.4453 434.0313,345.4453 Q434.7969,345.4453 435.5469,345.1641 Q436.2969,344.8828 436.9375,344.3516 L436.9375,346.1641 Z "/><text fill="#EEEEEE" font-family="sans-serif" font-size="12" font-style="italic" lengthAdjust="spacingAndGlyphs" textLength="93" x="474.5" y="334.1387">«private class»</text><text fill="#EEEEEE" font-family="sans-serif" font-size="14" lengthAdjust="spacingAndGlyphs" textLength="140" x="451" y="353.9639">Documentation_Tab</text><line style="stroke: #111111; stroke-width: 1.5;" x1="419" x2="595" y1="364.2656" y2="364.2656"/><line style="stroke: #111111; stroke-width: 1.5;" x1="419" x2="595" y1="372.2656" y2="372.2656"/><!--MD5=[06646ad14c5d7cf88216c241f8b261ff]
class General_Settings_Tab--><rect codeLine="50" fill="#5D0000" height="64.2656" id="General_Settings_Tab" style="stroke: #111111; stroke-width: 1.5;" width="189" x="692.5" y="316"/><ellipse cx="708.5" cy="340.1328" fill="#ADD1B2" rx="12" ry="12" style="stroke: #111111; stroke-width: 1.0;"/><path d="M711.4375,346.1641 Q710.75,346.5234 710.0313,346.6953 Q709.3281,346.8828 708.5313,346.8828 Q706.0156,346.8828 704.6094,345.1016 Q703.2188,343.3203 703.2188,340.0859 Q703.2188,336.8672 704.625,335.0703 Q706.0313,333.2734 708.5313,333.2734 Q709.3281,333.2734 710.0313,333.4609 Q710.75,333.6328 711.4375,333.9922 L711.4375,335.8203 Q710.7813,335.2734 710.0313,334.9922 Q709.2813,334.7109 708.5313,334.7109 Q706.7969,334.7109 705.9375,336.0547 Q705.0781,337.3828 705.0781,340.0859 Q705.0781,342.7734 705.9375,344.1172 Q706.7969,345.4453 708.5313,345.4453 Q709.2969,345.4453 710.0469,345.1641 Q710.7969,344.8828 711.4375,344.3516 L711.4375,346.1641 Z "/><text fill="#EEEEEE" font-family="sans-serif" font-size="12" font-style="italic" lengthAdjust="spacingAndGlyphs" textLength="93" x="754.5" y="334.1387">«private class»</text><text fill="#EEEEEE" font-family="sans-serif" font-size="14" lengthAdjust="spacingAndGlyphs" textLength="151" x="725.5" y="353.9639">General_Settings_Tab</text><line style="stroke: #111111; stroke-width: 1.5;" x1="693.5" x2="880.5" y1="364.2656" y2="364.2656"/><line style="stroke: #111111; stroke-width: 1.5;" x1="693.5" x2="880.5" y1="372.2656" y2="372.2656"/><!--MD5=[7f354880817d1341540e33fbbd728f70]
class Queries_Tab--><rect codeLine="51" fill="#5D0000" height="64.2656" id="Queries_Tab" style="stroke: #111111; stroke-width: 1.5;" width="127" x="1457.5" y="316"/><ellipse cx="1473.5" cy="340.1328" fill="#ADD1B2" rx="12" ry="12" style="stroke: #111111; stroke-width: 1.0;"/><path d="M1476.4375,346.1641 Q1475.75,346.5234 1475.0313,346.6953 Q1474.3281,346.8828 1473.5313,346.8828 Q1471.0156,346.8828 1469.6094,345.1016 Q1468.2188,343.3203 1468.2188,340.0859 Q1468.2188,336.8672 1469.625,335.0703 Q1471.0313,333.2734 1473.5313,333.2734 Q1474.3281,333.2734 1475.0313,333.4609 Q1475.75,333.6328 1476.4375,333.9922 L1476.4375,335.8203 Q1475.7813,335.2734 1475.0313,334.9922 Q1474.2813,334.7109 1473.5313,334.7109 Q1471.7969,334.7109 1470.9375,336.0547 Q1470.0781,337.3828 1470.0781,340.0859 Q1470.0781,342.7734 1470.9375,344.1172 Q1471.7969,345.4453 1473.5313,345.4453 Q1474.2969,345.4453 1475.0469,345.1641 Q1475.7969,344.8828 1476.4375,344.3516 L1476.4375,346.1641 Z "/><text fill="#EEEEEE" font-family="sans-serif" font-size="12" font-style="italic" lengthAdjust="spacingAndGlyphs" textLength="93" x="1488.5" y="334.1387">«private class»</text><text fill="#EEEEEE" font-family="sans-serif" font-size="14" lengthAdjust="spacingAndGlyphs" textLength="87" x="1491.5" y="353.9639">Queries_Tab</text><line style="stroke: #111111; stroke-width: 1.5;" x1="1458.5" x2="1583.5" y1="364.2656" y2="364.2656"/><line style="stroke: #111111; stroke-width: 1.5;" x1="1458.5" x2="1583.5" y1="372.2656" y2="372.2656"/><!--MD5=[cf45b9a2cf90d6da1d94ada3b5c51c01]
class Icons_Documentation--><rect codeLine="54" fill="#5D0000" height="64.2656" id="Icons_Documentation" style="stroke: #111111; stroke-width: 1.5;" width="189" x="222.5" y="456.5"/><ellipse cx="238.5" cy="480.6328" fill="#ADD1B2" rx="12" ry="12" style="stroke: #111111; stroke-width: 1.0;"/><path d="M241.4375,486.6641 Q240.75,487.0234 240.0313,487.1953 Q239.3281,487.3828 238.5313,487.3828 Q236.0156,487.3828 234.6094,485.6016 Q233.2188,483.8203 233.2188,480.5859 Q233.2188,477.3672 234.625,475.5703 Q236.0313,473.7734 238.5313,473.7734 Q239.3281,473.7734 240.0313,473.9609 Q240.75,474.1328 241.4375,474.4922 L241.4375,476.3203 Q240.7813,475.7734 240.0313,475.4922 Q239.2813,475.2109 238.5313,475.2109 Q236.7969,475.2109 235.9375,476.5547 Q235.0781,477.8828 235.0781,480.5859 Q235.0781,483.2734 235.9375,484.6172 Q236.7969,485.9453 238.5313,485.9453 Q239.2969,485.9453 240.0469,485.6641 Q240.7969,485.3828 241.4375,484.8516 L241.4375,486.6641 Z "/><text fill="#EEEEEE" font-family="sans-serif" font-size="12" font-style="italic" lengthAdjust="spacingAndGlyphs" textLength="93" x="284.5" y="474.6387">«private class»</text><text fill="#EEEEEE" font-family="sans-serif" font-size="14" lengthAdjust="spacingAndGlyphs" textLength="151" x="255.5" y="494.4639">Icons_Documentation</text><line style="stroke: #111111; stroke-width: 1.5;" x1="223.5" x2="410.5" y1="504.7656" y2="504.7656"/><line style="stroke: #111111; stroke-width: 1.5;" x1="223.5" x2="410.5" y1="512.7656" y2="512.7656"/><!--MD5=[311bca9c219758a644194d8bbf62a4a5]
class License_Display--><rect codeLine="55" fill="#5D0000" height="64.2656" id="License_Display" style="stroke: #111111; stroke-width: 1.5;" width="147" x="40.5" y="456.5"/><ellipse cx="56.5" cy="480.6328" fill="#ADD1B2" rx="12" ry="12" style="stroke: #111111; stroke-width: 1.0;"/><path d="M59.4375,486.6641 Q58.75,487.0234 58.0313,487.1953 Q57.3281,487.3828 56.5313,487.3828 Q54.0156,487.3828 52.6094,485.6016 Q51.2188,483.8203 51.2188,480.5859 Q51.2188,477.3672 52.625,475.5703 Q54.0313,473.7734 56.5313,473.7734 Q57.3281,473.7734 58.0313,473.9609 Q58.75,474.1328 59.4375,474.4922 L59.4375,476.3203 Q58.7813,475.7734 58.0313,475.4922 Q57.2813,475.2109 56.5313,475.2109 Q54.7969,475.2109 53.9375,476.5547 Q53.0781,477.8828 53.0781,480.5859 Q53.0781,483.2734 53.9375,484.6172 Q54.7969,485.9453 56.5313,485.9453 Q57.2969,485.9453 58.0469,485.6641 Q58.7969,485.3828 59.4375,484.8516 L59.4375,486.6641 Z "/><text fill="#EEEEEE" font-family="sans-serif" font-size="12" font-style="italic" lengthAdjust="spacingAndGlyphs" textLength="93" x="81.5" y="474.6387">«private class»</text><text fill="#EEEEEE" font-family="sans-serif" font-size="14" lengthAdjust="spacingAndGlyphs" textLength="109" x="73.5" y="494.4639">License_Display</text><line style="stroke: #111111; stroke-width: 1.5;" x1="41.5" x2="186.5" y1="504.7656" y2="504.7656"/><line style="stroke: #111111; stroke-width: 1.5;" x1="41.5" x2="186.5" y1="512.7656" y2="512.7656"/><!--MD5=[a8be521b82384408c14ed1d12d01d74b]
class General_Settings_Factory--><rect codeLine="59" fill="#5D0000" height="97.3672" id="General_Settings_Factory" style="stroke: #111111; stroke-width: 1.5;" width="213" x="680.5" y="440"/><ellipse cx="696.5" cy="471.1172" fill="#ADD1B2" rx="12" ry="12" style="stroke: #111111; stroke-width: 1.0;"/><path d="M699.4375,477.1484 Q698.75,477.5078 698.0313,477.6797 Q697.3281,477.8672 696.5313,477.8672 Q694.0156,477.8672 692.6094,476.0859 Q691.2188,474.3047 691.2188,471.0703 Q691.2188,467.8516 692.625,466.0547 Q694.0313,464.2578 696.5313,464.2578 Q697.3281,464.2578 698.0313,464.4453 Q698.75,464.6172 699.4375,464.9766 L699.4375,466.8047 Q698.7813,466.2578 698.0313,465.9766 Q697.2813,465.6953 696.5313,465.6953 Q694.7969,465.6953 693.9375,467.0391 Q693.0781,468.3672 693.0781,471.0703 Q693.0781,473.7578 693.9375,475.1016 Q694.7969,476.4297 696.5313,476.4297 Q697.2969,476.4297 698.0469,476.1484 Q698.7969,475.8672 699.4375,475.3359 L699.4375,477.1484 Z "/><text fill="#EEEEEE" font-family="sans-serif" font-size="12" font-style="italic" lengthAdjust="spacingAndGlyphs" textLength="93" x="754.5" y="458.1387">«private class»</text><text fill="#EEEEEE" font-family="sans-serif" font-size="12" font-style="italic" lengthAdjust="spacingAndGlyphs" textLength="60" x="771" y="472.1074">«Facade»</text><text fill="#EEEEEE" font-family="sans-serif" font-size="14" lengthAdjust="spacingAndGlyphs" textLength="175" x="713.5" y="491.9326">General_Settings_Factory</text><line style="stroke: #111111; stroke-width: 1.5;" x1="681.5" x2="892.5" y1="502.2344" y2="502.2344"/><line style="stroke: #111111; stroke-width: 1.5;" x1="681.5" x2="892.5" y1="510.2344" y2="510.2344"/><ellipse cx="693.5" cy="523.2344" fill="#84BE84" rx="5" ry="5" style="stroke: #038048; stroke-width: 1.0;"/><text fill="#EEEEEE" font-family="sans-serif" font-size="13" lengthAdjust="spacingAndGlyphs" textLength="158" x="703.5" y="528.3013">display( $setting_name )</text><!--MD5=[9b6bb3cdfae7ec5bc2976c073d2a4cfe]
class General_Settings_Creator--><rect codeLine="63" fill="#5D0000" height="64.2656" id="General_Settings_Creator" style="stroke: #111111; stroke-width: 1.5;" width="214" x="680" y="597"/><ellipse cx="696" cy="621.1328" fill="#B4A7E5" rx="12" ry="12" style="stroke: #111111; stroke-width: 1.0;"/><path d="M691.7656,614.5078 L699.0469,614.5078 L699.0469,616.0078 L696.2969,616.0078 L696.2969,626.1328 L699.0469,626.1328 L699.0469,627.6328 L691.7656,627.6328 L691.7656,626.1328 L694.5156,626.1328 L694.5156,616.0078 L691.7656,616.0078 L691.7656,614.5078 Z "/><text fill="#EEEEEE" font-family="sans-serif" font-size="12" font-style="italic" lengthAdjust="spacingAndGlyphs" textLength="93" x="754.5" y="615.1387">«private class»</text><text fill="#EEEEEE" font-family="sans-serif" font-size="14" font-style="italic" lengthAdjust="spacingAndGlyphs" textLength="176" x="713" y="634.9639">General_Settings_Creator</text><line style="stroke: #111111; stroke-width: 1.5;" x1="681" x2="893" y1="645.2656" y2="645.2656"/><line style="stroke: #111111; stroke-width: 1.5;" x1="681" x2="893" y1="653.2656" y2="653.2656"/><!--MD5=[5de17b5d815dcc8ab119b84a3bc783cb]
class General_Select_Setting--><rect codeLine="64" fill="#5D0000" height="64.2656" id="General_Select_Setting" style="stroke: #111111; stroke-width: 1.5;" width="198" x="1242" y="721"/><ellipse cx="1258" cy="745.1328" fill="#ADD1B2" rx="12" ry="12" style="stroke: #111111; stroke-width: 1.0;"/><path d="M1260.9375,751.1641 Q1260.25,751.5234 1259.5313,751.6953 Q1258.8281,751.8828 1258.0313,751.8828 Q1255.5156,751.8828 1254.1094,750.1016 Q1252.7188,748.3203 1252.7188,745.0859 Q1252.7188,741.8672 1254.125,740.0703 Q1255.5313,738.2734 1258.0313,738.2734 Q1258.8281,738.2734 1259.5313,738.4609 Q1260.25,738.6328 1260.9375,738.9922 L1260.9375,740.8203 Q1260.2813,740.2734 1259.5313,739.9922 Q1258.7813,739.7109 1258.0313,739.7109 Q1256.2969,739.7109 1255.4375,741.0547 Q1254.5781,742.3828 1254.5781,745.0859 Q1254.5781,747.7734 1255.4375,749.1172 Q1256.2969,750.4453 1258.0313,750.4453 Q1258.7969,750.4453 1259.5469,750.1641 Q1260.2969,749.8828 1260.9375,749.3516 L1260.9375,751.1641 Z "/><text fill="#EEEEEE" font-family="sans-serif" font-size="12" font-style="italic" lengthAdjust="spacingAndGlyphs" textLength="93" x="1308.5" y="739.1387">«private class»</text><text fill="#EEEEEE" font-family="sans-serif" font-size="14" lengthAdjust="spacingAndGlyphs" textLength="160" x="1275" y="758.9639">General_Select_Setting</text><line style="stroke: #111111; stroke-width: 1.5;" x1="1243" x2="1439" y1="769.2656" y2="769.2656"/><line style="stroke: #111111; stroke-width: 1.5;" x1="1243" x2="1439" y1="777.2656" y2="777.2656"/><!--MD5=[38cce3347a28bcc7769ae43d9751f150]
class General_Select_With_Switch_Setting--><rect codeLine="65" fill="#5D0000" height="64.2656" id="General_Select_With_Switch_Setting" style="stroke: #111111; stroke-width: 1.5;" width="287" x="919.5" y="721"/><ellipse cx="935.5" cy="745.1328" fill="#ADD1B2" rx="12" ry="12" style="stroke: #111111; stroke-width: 1.0;"/><path d="M938.4375,751.1641 Q937.75,751.5234 937.0313,751.6953 Q936.3281,751.8828 935.5313,751.8828 Q933.0156,751.8828 931.6094,750.1016 Q930.2188,748.3203 930.2188,745.0859 Q930.2188,741.8672 931.625,740.0703 Q933.0313,738.2734 935.5313,738.2734 Q936.3281,738.2734 937.0313,738.4609 Q937.75,738.6328 938.4375,738.9922 L938.4375,740.8203 Q937.7813,740.2734 937.0313,739.9922 Q936.2813,739.7109 935.5313,739.7109 Q933.7969,739.7109 932.9375,741.0547 Q932.0781,742.3828 932.0781,745.0859 Q932.0781,747.7734 932.9375,749.1172 Q933.7969,750.4453 935.5313,750.4453 Q936.2969,750.4453 937.0469,750.1641 Q937.7969,749.8828 938.4375,749.3516 L938.4375,751.1641 Z "/><text fill="#EEEEEE" font-family="sans-serif" font-size="12" font-style="italic" lengthAdjust="spacingAndGlyphs" textLength="93" x="1030.5" y="739.1387">«private class»</text><text fill="#EEEEEE" font-family="sans-serif" font-size="14" lengthAdjust="spacingAndGlyphs" textLength="249" x="952.5" y="758.9639">General_Select_With_Switch_Setting</text><line style="stroke: #111111; stroke-width: 1.5;" x1="920.5" x2="1205.5" y1="769.2656" y2="769.2656"/><line style="stroke: #111111; stroke-width: 1.5;" x1="920.5" x2="1205.5" y1="777.2656" y2="777.2656"/><!--MD5=[9395760248497a50bbf42efa6838fec0]
class General_Text_Setting--><rect codeLine="66" fill="#5D0000" height="64.2656" id="General_Text_Setting" style="stroke: #111111; stroke-width: 1.5;" width="185" x="470.5" y="721"/><ellipse cx="486.5" cy="745.1328" fill="#ADD1B2" rx="12" ry="12" style="stroke: #111111; stroke-width: 1.0;"/><path d="M489.4375,751.1641 Q488.75,751.5234 488.0313,751.6953 Q487.3281,751.8828 486.5313,751.8828 Q484.0156,751.8828 482.6094,750.1016 Q481.2188,748.3203 481.2188,745.0859 Q481.2188,741.8672 482.625,740.0703 Q484.0313,738.2734 486.5313,738.2734 Q487.3281,738.2734 488.0313,738.4609 Q488.75,738.6328 489.4375,738.9922 L489.4375,740.8203 Q488.7813,740.2734 488.0313,739.9922 Q487.2813,739.7109 486.5313,739.7109 Q484.7969,739.7109 483.9375,741.0547 Q483.0781,742.3828 483.0781,745.0859 Q483.0781,747.7734 483.9375,749.1172 Q484.7969,750.4453 486.5313,750.4453 Q487.2969,750.4453 488.0469,750.1641 Q488.7969,749.8828 489.4375,749.3516 L489.4375,751.1641 Z "/><text fill="#EEEEEE" font-family="sans-serif" font-size="12" font-style="italic" lengthAdjust="spacingAndGlyphs" textLength="93" x="530.5" y="739.1387">«private class»</text><text fill="#EEEEEE" font-family="sans-serif" font-size="14" lengthAdjust="spacingAndGlyphs" textLength="147" x="503.5" y="758.9639">General_Text_Setting</text><line style="stroke: #111111; stroke-width: 1.5;" x1="471.5" x2="654.5" y1="769.2656" y2="769.2656"/><line style="stroke: #111111; stroke-width: 1.5;" x1="471.5" x2="654.5" y1="777.2656" y2="777.2656"/><!--MD5=[5ac334d1f7c8825f36594a0a03e18dc0]
class General_Radio_Setting--><rect codeLine="67" fill="#5D0000" height="64.2656" id="General_Radio_Setting" style="stroke: #111111; stroke-width: 1.5;" width="194" x="690" y="721"/><ellipse cx="706" cy="745.1328" fill="#ADD1B2" rx="12" ry="12" style="stroke: #111111; stroke-width: 1.0;"/><path d="M708.9375,751.1641 Q708.25,751.5234 707.5313,751.6953 Q706.8281,751.8828 706.0313,751.8828 Q703.5156,751.8828 702.1094,750.1016 Q700.7188,748.3203 700.7188,745.0859 Q700.7188,741.8672 702.125,740.0703 Q703.5313,738.2734 706.0313,738.2734 Q706.8281,738.2734 707.5313,738.4609 Q708.25,738.6328 708.9375,738.9922 L708.9375,740.8203 Q708.2813,740.2734 707.5313,739.9922 Q706.7813,739.7109 706.0313,739.7109 Q704.2969,739.7109 703.4375,741.0547 Q702.5781,742.3828 702.5781,745.0859 Q702.5781,747.7734 703.4375,749.1172 Q704.2969,750.4453 706.0313,750.4453 Q706.7969,750.4453 707.5469,750.1641 Q708.2969,749.8828 708.9375,749.3516 L708.9375,751.1641 Z "/><text fill="#EEEEEE" font-family="sans-serif" font-size="12" font-style="italic" lengthAdjust="spacingAndGlyphs" textLength="93" x="754.5" y="739.1387">«private class»</text><text fill="#EEEEEE" font-family="sans-serif" font-size="14" lengthAdjust="spacingAndGlyphs" textLength="156" x="723" y="758.9639">General_Radio_Setting</text><line style="stroke: #111111; stroke-width: 1.5;" x1="691" x2="883" y1="769.2656" y2="769.2656"/><line style="stroke: #111111; stroke-width: 1.5;" x1="691" x2="883" y1="777.2656" y2="777.2656"/><!--MD5=[dd1e58bcfcf7b7268efe1ab8fc819155]
class Existing_Table--><rect codeLine="77" fill="#5D0000" height="64.2656" id="Existing_Table" style="stroke: #111111; stroke-width: 1.5;" width="136" x="1933" y="456.5"/><ellipse cx="1949" cy="480.6328" fill="#ADD1B2" rx="12" ry="12" style="stroke: #111111; stroke-width: 1.0;"/><path d="M1951.9375,486.6641 Q1951.25,487.0234 1950.5313,487.1953 Q1949.8281,487.3828 1949.0313,487.3828 Q1946.5156,487.3828 1945.1094,485.6016 Q1943.7188,483.8203 1943.7188,480.5859 Q1943.7188,477.3672 1945.125,475.5703 Q1946.5313,473.7734 1949.0313,473.7734 Q1949.8281,473.7734 1950.5313,473.9609 Q1951.25,474.1328 1951.9375,474.4922 L1951.9375,476.3203 Q1951.2813,475.7734 1950.5313,475.4922 Q1949.7813,475.2109 1949.0313,475.2109 Q1947.2969,475.2109 1946.4375,476.5547 Q1945.5781,477.8828 1945.5781,480.5859 Q1945.5781,483.2734 1946.4375,484.6172 Q1947.2969,485.9453 1949.0313,485.9453 Q1949.7969,485.9453 1950.5469,485.6641 Q1951.2969,485.3828 1951.9375,484.8516 L1951.9375,486.6641 Z "/><text fill="#EEEEEE" font-family="sans-serif" font-size="12" font-style="italic" lengthAdjust="spacingAndGlyphs" textLength="93" x="1968.5" y="474.6387">«private class»</text><text fill="#EEEEEE" font-family="sans-serif" font-size="14" lengthAdjust="spacingAndGlyphs" textLength="98" x="1966" y="494.4639">Existing_Table</text><line style="stroke: #111111; stroke-width: 1.5;" x1="1934" x2="2068" y1="504.7656" y2="504.7656"/><line style="stroke: #111111; stroke-width: 1.5;" x1="1934" x2="2068" y1="512.7656" y2="512.7656"/><!--MD5=[e2b9269511542e3cd7f88af802e75ba3]
class Modify_Query_Settings--><rect codeLine="78" fill="#5D0000" height="64.2656" id="Modify_Query_Settings" style="stroke: #111111; stroke-width: 1.5;" width="194" x="1704" y="456.5"/><ellipse cx="1720" cy="480.6328" fill="#ADD1B2" rx="12" ry="12" style="stroke: #111111; stroke-width: 1.0;"/><path d="M1722.9375,486.6641 Q1722.25,487.0234 1721.5313,487.1953 Q1720.8281,487.3828 1720.0313,487.3828 Q1717.5156,487.3828 1716.1094,485.6016 Q1714.7188,483.8203 1714.7188,480.5859 Q1714.7188,477.3672 1716.125,475.5703 Q1717.5313,473.7734 1720.0313,473.7734 Q1720.8281,473.7734 1721.5313,473.9609 Q1722.25,474.1328 1722.9375,474.4922 L1722.9375,476.3203 Q1722.2813,475.7734 1721.5313,475.4922 Q1720.7813,475.2109 1720.0313,475.2109 Q1718.2969,475.2109 1717.4375,476.5547 Q1716.5781,477.8828 1716.5781,480.5859 Q1716.5781,483.2734 1717.4375,484.6172 Q1718.2969,485.9453 1720.0313,485.9453 Q1720.7969,485.9453 1721.5469,485.6641 Q1722.2969,485.3828 1722.9375,484.8516 L1722.9375,486.6641 Z "/><text fill="#EEEEEE" font-family="sans-serif" font-size="12" font-style="italic" lengthAdjust="spacingAndGlyphs" textLength="93" x="1768.5" y="474.6387">«private class»</text><text fill="#EEEEEE" font-family="sans-serif" font-size="14" lengthAdjust="spacingAndGlyphs" textLength="156" x="1737" y="494.4639">Modify_Query_Settings</text><line style="stroke: #111111; stroke-width: 1.5;" x1="1705" x2="1897" y1="504.7656" y2="504.7656"/><line style="stroke: #111111; stroke-width: 1.5;" x1="1705" x2="1897" y1="512.7656" y2="512.7656"/><!--MD5=[5368e1cc4c16fdc7e47e78ac99419597]
class Query_Setting_Display--><rect codeLine="80" fill="#5D0000" height="64.2656" id="Query_Setting_Display" style="stroke: #111111; stroke-width: 1.5;" width="191" x="1477.5" y="456.5"/><ellipse cx="1493.5" cy="480.6328" fill="#B4A7E5" rx="12" ry="12" style="stroke: #111111; stroke-width: 1.0;"/><path d="M1489.2656,474.0078 L1496.5469,474.0078 L1496.5469,475.5078 L1493.7969,475.5078 L1493.7969,485.6328 L1496.5469,485.6328 L1496.5469,487.1328 L1489.2656,487.1328 L1489.2656,485.6328 L1492.0156,485.6328 L1492.0156,475.5078 L1489.2656,475.5078 L1489.2656,474.0078 Z "/><text fill="#EEEEEE" font-family="sans-serif" font-size="12" font-style="italic" lengthAdjust="spacingAndGlyphs" textLength="93" x="1540.5" y="474.6387">«private class»</text><text fill="#EEEEEE" font-family="sans-serif" font-size="14" font-style="italic" lengthAdjust="spacingAndGlyphs" textLength="153" x="1510.5" y="494.4639">Query_Setting_Display</text><line style="stroke: #111111; stroke-width: 1.5;" x1="1478.5" x2="1667.5" y1="504.7656" y2="504.7656"/><line style="stroke: #111111; stroke-width: 1.5;" x1="1478.5" x2="1667.5" y1="512.7656" y2="512.7656"/><!--MD5=[4e9930642eb2947afcb50d185bec7661]
class Author_Display--><rect codeLine="81" fill="#5D0000" height="64.2656" id="Author_Display" style="stroke: #111111; stroke-width: 1.5;" width="140" x="1464" y="597"/><ellipse cx="1480" cy="621.1328" fill="#ADD1B2" rx="12" ry="12" style="stroke: #111111; stroke-width: 1.0;"/><path d="M1482.9375,627.1641 Q1482.25,627.5234 1481.5313,627.6953 Q1480.8281,627.8828 1480.0313,627.8828 Q1477.5156,627.8828 1476.1094,626.1016 Q1474.7188,624.3203 1474.7188,621.0859 Q1474.7188,617.8672 1476.125,616.0703 Q1477.5313,614.2734 1480.0313,614.2734 Q1480.8281,614.2734 1481.5313,614.4609 Q1482.25,614.6328 1482.9375,614.9922 L1482.9375,616.8203 Q1482.2813,616.2734 1481.5313,615.9922 Q1480.7813,615.7109 1480.0313,615.7109 Q1478.2969,615.7109 1477.4375,617.0547 Q1476.5781,618.3828 1476.5781,621.0859 Q1476.5781,623.7734 1477.4375,625.1172 Q1478.2969,626.4453 1480.0313,626.4453 Q1480.7969,626.4453 1481.5469,626.1641 Q1482.2969,625.8828 1482.9375,625.3516 L1482.9375,627.1641 Z "/><text fill="#EEEEEE" font-family="sans-serif" font-size="12" font-style="italic" lengthAdjust="spacingAndGlyphs" textLength="93" x="1501.5" y="615.1387">«private class»</text><text fill="#EEEEEE" font-family="sans-serif" font-size="14" lengthAdjust="spacingAndGlyphs" textLength="102" x="1497" y="634.9639">Author_Display</text><line style="stroke: #111111; stroke-width: 1.5;" x1="1465" x2="1603" y1="645.2656" y2="645.2656"/><line style="stroke: #111111; stroke-width: 1.5;" x1="1465" x2="1603" y1="653.2656" y2="653.2656"/><!--MD5=[fba17e7b32fbe8b39a308916758e1d0d]
class Category_Display--><rect codeLine="82" fill="#5D0000" height="64.2656" id="Category_Display" style="stroke: #111111; stroke-width: 1.5;" width="156" x="1639" y="597"/><ellipse cx="1655" cy="621.1328" fill="#ADD1B2" rx="12" ry="12" style="stroke: #111111; stroke-width: 1.0;"/><path d="M1657.9375,627.1641 Q1657.25,627.5234 1656.5313,627.6953 Q1655.8281,627.8828 1655.0313,627.8828 Q1652.5156,627.8828 1651.1094,626.1016 Q1649.7188,624.3203 1649.7188,621.0859 Q1649.7188,617.8672 1651.125,616.0703 Q1652.5313,614.2734 1655.0313,614.2734 Q1655.8281,614.2734 1656.5313,614.4609 Q1657.25,614.6328 1657.9375,614.9922 L1657.9375,616.8203 Q1657.2813,616.2734 1656.5313,615.9922 Q1655.7813,615.7109 1655.0313,615.7109 Q1653.2969,615.7109 1652.4375,617.0547 Q1651.5781,618.3828 1651.5781,621.0859 Q1651.5781,623.7734 1652.4375,625.1172 Q1653.2969,626.4453 1655.0313,626.4453 Q1655.7969,626.4453 1656.5469,626.1641 Q1657.2969,625.8828 1657.9375,625.3516 L1657.9375,627.1641 Z "/><text fill="#EEEEEE" font-family="sans-serif" font-size="12" font-style="italic" lengthAdjust="spacingAndGlyphs" textLength="93" x="1684.5" y="615.1387">«private class»</text><text fill="#EEEEEE" font-family="sans-serif" font-size="14" lengthAdjust="spacingAndGlyphs" textLength="118" x="1672" y="634.9639">Category_Display</text><line style="stroke: #111111; stroke-width: 1.5;" x1="1640" x2="1794" y1="645.2656" y2="645.2656"/><line style="stroke: #111111; stroke-width: 1.5;" x1="1640" x2="1794" y1="653.2656" y2="653.2656"/><!--MD5=[c35528968e066a2225c268225e2bbae4]
class All_Other_Classes_From_This_Folder--><rect codeLine="83" fill="#5D0000" height="64.2656" id="All_Other_Classes_From_This_Folder" style="stroke: #111111; stroke-width: 1.5;" width="288" x="1830" y="597"/><ellipse cx="1846" cy="621.1328" fill="#ADD1B2" rx="12" ry="12" style="stroke: #111111; stroke-width: 1.0;"/><path d="M1848.9375,627.1641 Q1848.25,627.5234 1847.5313,627.6953 Q1846.8281,627.8828 1846.0313,627.8828 Q1843.5156,627.8828 1842.1094,626.1016 Q1840.7188,624.3203 1840.7188,621.0859 Q1840.7188,617.8672 1842.125,616.0703 Q1843.5313,614.2734 1846.0313,614.2734 Q1846.8281,614.2734 1847.5313,614.4609 Q1848.25,614.6328 1848.9375,614.9922 L1848.9375,616.8203 Q1848.2813,616.2734 1847.5313,615.9922 Q1846.7813,615.7109 1846.0313,615.7109 Q1844.2969,615.7109 1843.4375,617.0547 Q1842.5781,618.3828 1842.5781,621.0859 Q1842.5781,623.7734 1843.4375,625.1172 Q1844.2969,626.4453 1846.0313,626.4453 Q1846.7969,626.4453 1847.5469,626.1641 Q1848.2969,625.8828 1848.9375,625.3516 L1848.9375,627.1641 Z "/><text fill="#EEEEEE" font-family="sans-serif" font-size="12" font-style="italic" lengthAdjust="spacingAndGlyphs" textLength="93" x="1941.5" y="615.1387">«private class»</text><text fill="#EEEEEE" font-family="sans-serif" font-size="14" lengthAdjust="spacingAndGlyphs" textLength="250" x="1863" y="634.9639">All_Other_Classes_From_This_Folder</text><line style="stroke: #111111; stroke-width: 1.5;" x1="1831" x2="2117" y1="645.2656" y2="645.2656"/><line style="stroke: #111111; stroke-width: 1.5;" x1="1831" x2="2117" y1="653.2656" y2="653.2656"/><!--MD5=[31fbbbe0ca4fb70ad7ab9d1ab63e96e5]
link General_Settings_Factory to General_Settings_Creator--><path codeLine="69" d="M787,537.2458 C787,555.0589 787,574.9134 787,591.5848 " fill="none" id="General_Settings_Factory-to-General_Settings_Creator" style="stroke: #FFFF00; stroke-width: 1.0;"/><polygon fill="#FFFF00" points="787,596.6507,791,587.6507,787,591.6507,783,587.6507,787,596.6507" style="stroke: #FFFF00; stroke-width: 1.0;"/><!--MD5=[1cd599653b14e4a70adb3a12d4da470c]
reverse link General_Settings_Creator to General_Select_Setting--><path codeLine="70" d="M914.1009,653.6812 C1001.54,671.1683 1120.1782,695.8971 1224,721 C1229.8336,722.4105 1235.8184,723.9035 1241.8484,725.4433 " fill="none" id="General_Settings_Creator-backto-General_Select_Setting" style="stroke: #FFFF00; stroke-width: 1.0; stroke-dasharray: 7.0,7.0;"/><polygon fill="none" points="912.5052,660.5009,894.2574,649.7298,915.2394,646.7705,912.5052,660.5009" style="stroke: #FFFF00; stroke-width: 1.0;"/><!--MD5=[68416cba36beb92d4f82003b68f3f172]
reverse link General_Settings_Creator to General_Text_Setting--><path codeLine="71" d="M711.259,670.9281 C681.8154,687.2272 648.6243,705.6008 621.1227,720.8249 " fill="none" id="General_Settings_Creator-backto-General_Text_Setting" style="stroke: #FFFF00; stroke-width: 1.0; stroke-dasharray: 7.0,7.0;"/><polygon fill="none" points="708.135,664.6565,729.0231,661.0943,714.9155,676.905,708.135,664.6565" style="stroke: #FFFF00; stroke-width: 1.0;"/><!--MD5=[fec4fee6a4cb092af7768c2f619239b9]
reverse link General_Settings_Creator to General_Radio_Setting--><path codeLine="72" d="M787,681.4467 C787,694.852 787,708.8678 787,720.9057 " fill="none" id="General_Settings_Creator-backto-General_Radio_Setting" style="stroke: #FFFF00; stroke-width: 1.0; stroke-dasharray: 7.0,7.0;"/><polygon fill="none" points="780.0001,681.2559,787,661.2558,794.0001,681.2558,780.0001,681.2559" style="stroke: #FFFF00; stroke-width: 1.0;"/><!--MD5=[98fd3bc6f86940d8c8acaaef93e2049f]
link General_Select_With_Switch_Setting to General_Select_Setting--><path codeLine="73" d="M1206.6152,753 C1211.6527,753 1216.6903,753 1221.7278,753 " fill="none" id="General_Select_With_Switch_Setting-to-General_Select_Setting" style="stroke: #FFFF00; stroke-width: 1.0;"/><polygon fill="none" points="1221.7863,745.9999,1241.7862,753,1221.7862,759.9999,1221.7863,745.9999" style="stroke: #FFFF00; stroke-width: 1.0;"/><!--MD5=[eede1f10b82fe6f482fd6779278c4f7e]
reverse link Query_Setting_Display to Author_Display--><path codeLine="85" d="M1558.628,540.276 C1553.3607,559.2517 1547.5561,580.1632 1542.9058,596.9164 " fill="none" id="Query_Setting_Display-backto-Author_Display" style="stroke: #FFFF00; stroke-width: 1.0; stroke-dasharray: 7.0,7.0;"/><polygon fill="none" points="1551.9582,538.1326,1564.0526,520.7335,1565.4482,541.8772,1551.9582,538.1326" style="stroke: #FFFF00; stroke-width: 1.0;"/><!--MD5=[21e56594f523eed143211c2cc08ba454]
reverse link Query_Setting_Display to Category_Display--><path codeLine="86" d="M1620.5396,534.8841 C1641.371,555.2092 1665.3026,578.5592 1684.1172,596.9164 " fill="none" id="Query_Setting_Display-backto-Category_Display" style="stroke: #FFFF00; stroke-width: 1.0; stroke-dasharray: 7.0,7.0;"/><polygon fill="none" points="1615.4631,539.7109,1606.0365,520.7335,1625.2401,529.6904,1615.4631,539.7109" style="stroke: #FFFF00; stroke-width: 1.0;"/><!--MD5=[b4b286b3e5f16b2895e7697b7772eb9a]
reverse link Query_Setting_Display to All_Other_Classes_From_This_Folder--><path codeLine="87" d="M1664.3933,528.25 C1672.0069,531.2965 1679.614,534.2517 1687,537 C1745.4789,558.76 1811.7522,580.2104 1865.8691,596.918 " fill="none" id="Query_Setting_Display-backto-All_Other_Classes_From_This_Folder" style="stroke: #FFFF00; stroke-width: 1.0; stroke-dasharray: 7.0,7.0;"/><polygon fill="none" points="1661.4391,534.6047,1645.5769,520.555,1666.7384,521.6464,1661.4391,534.6047" style="stroke: #FFFF00; stroke-width: 1.0;"/><!--MD5=[a9471c4fe053f2fd3ffe167949f3959a]
link Documentation_Tab to TWRP\Admin\Tabs\Documentation--><path codeLine="90" d="M473.5221,380.0083 C466.2512,388.7175 459.4217,398.6315 455,409 C453.3675,412.828 452.0078,416.8505 450.8793,420.9695 C450.5972,421.9992 450.3295,423.035 450.0757,424.0753 C450.0122,424.3353 449.9496,424.5957 449.8878,424.8563 C449.857,424.9866 449.8263,425.117 449.7959,425.2474 " fill="none" id="Documentation_Tab-to-TWRP\Admin\Tabs\Documentation" style="stroke: #FFFF00; stroke-width: 1.0;"/><polygon fill="#FFFF00" points="449.7959,425.2474,455.7373,417.3925,450.9326,420.3783,447.9468,415.5737,449.7959,425.2474" style="stroke: #FFFF00; stroke-width: 1.0;"/><!--MD5=[63c334a9f47c40fb4600b56fc83e0b11]
link General_Settings_Tab to General_Settings_Factory--><path codeLine="91" d="M787,380.2335 C787,396.3773 787,416.3541 787,434.7351 " fill="none" id="General_Settings_Tab-to-General_Settings_Factory" style="stroke: #FFFF00; stroke-width: 1.0;"/><polygon fill="#FFFF00" points="787,439.8727,791,430.8727,787,434.8727,783,430.8727,787,439.8727" style="stroke: #FFFF00; stroke-width: 1.0;"/><!--MD5=[0587ba190964821ee5d97233706f5e4f]
link Queries_Tab to TWRP\Admin\Tabs\Query_Options--><path codeLine="92" d="M1589.6086,350.9396 C1732.2634,357.6827 2050.6846,376.2549 2087,409 C2090.1446,411.8355 2092.7857,415.0982 2094.9981,418.649 C2096.1042,420.4244 2097.1032,422.2718 2098.0044,424.1739 C2098.117,424.4117 2098.2281,424.6503 2098.3377,424.8898 C2098.3926,425.0095 2098.447,425.1294 2098.501,425.2495 " fill="none" id="Queries_Tab-TWRP\Admin\Tabs\Query_Options" style="stroke: #FFFF00; stroke-width: 1.0;"/><polygon fill="#FFFF00" points="2098.501,425.2495,2098.4558,415.4008,2096.4494,420.6898,2091.1603,418.6834,2098.501,425.2495" style="stroke: #FFFF00; stroke-width: 1.0;"/><polygon fill="#FFFF00" points="1584.6088,350.7047,1593.4111,355.1228,1589.6033,350.9394,1593.7867,347.1316,1584.6088,350.7047" style="stroke: #FFFF00; stroke-width: 1.0;"/><!--MD5=[1573b609d1c981c07e3e2df03d1f92cd]
link Settings_Menu to Interface_Admin_Menu_Tab--><path codeLine="95" d="M787,132.2558 C787,148.9039 787,169.3018 787,186.633 " fill="none" id="Settings_Menu-to-Interface_Admin_Menu_Tab" style="stroke: #FFFF00; stroke-width: 1.0; stroke-dasharray: 7.0,7.0;"/><polygon fill="#FFFF00" points="787,191.9057,791,182.9057,787,186.9057,783,182.9057,787,191.9057" style="stroke: #FFFF00; stroke-width: 1.0;"/><!--MD5=[07b43f6ef7344a7fd4ea49a8d2413bdc]
reverse link Interface_Admin_Menu_Tab to Documentation_Tab--><path codeLine="96" d="M696.2118,264.2062 C658.4637,280.9232 615.2465,300.0622 579.6534,315.8249 " fill="none" id="Interface_Admin_Menu_Tab-backto-Documentation_Tab" style="stroke: #FFFF00; stroke-width: 1.0; stroke-dasharray: 7.0,7.0;"/><polygon fill="none" points="693.4074,257.7925,714.5289,256.0943,699.0764,270.5934,693.4074,257.7925" style="stroke: #FFFF00; stroke-width: 1.0;"/><!--MD5=[8250b25ee4fe85e58502f14c02314ce3]
reverse link Interface_Admin_Menu_Tab to General_Settings_Tab--><path codeLine="97" d="M787,276.4467 C787,289.852 787,303.8678 787,315.9057 " fill="none" id="Interface_Admin_Menu_Tab-backto-General_Settings_Tab" style="stroke: #FFFF00; stroke-width: 1.0; stroke-dasharray: 7.0,7.0;"/><polygon fill="none" points="780.0001,276.2559,787,256.2558,794.0001,276.2558,780.0001,276.2559" style="stroke: #FFFF00; stroke-width: 1.0;"/><!--MD5=[27a870436ccca6ef44a10ed16f9c9026]
reverse link Interface_Admin_Menu_Tab to Queries_Tab--><path codeLine="98" d="M920.7163,246.5897 C1079.7101,273.4497 1338.4797,317.1655 1457.4713,337.2676 " fill="none" id="Interface_Admin_Menu_Tab-backto-Queries_Tab" style="stroke: #FFFF00; stroke-width: 1.0; stroke-dasharray: 7.0,7.0;"/><polygon fill="none" points="919.4367,253.4728,900.8822,243.2389,921.7688,239.6684,919.4367,253.4728" style="stroke: #FFFF00; stroke-width: 1.0;"/><!--MD5=[9e53d4c4faabbab37da2eb23efe80aff]
@startuml

    skinparam {
        padding 2
        backgroundColor #222
        shadowing false

        classFontColor #eee
        classStereotypeFontColor #eee
        classBorderColor #111
        classFontSize 14
        ClassAttributeFontColor #eee
        ClassAttributeFontSize 13
        ClassAttributeIconSize 15

        PackageBackgroundColor #444
        PackageBorderColor #111
        PackageFontColor #eee

        ArrowColor yellow
    }

    skinparam circled {
        CharacterFontColor black
        CharacterFontSize 18
        CharacterFontStyle plain
        CharacterRadius 12
    }


    skinparam <<public class>> {
        classBackgroundColor #004b00
        classFontSize 16
    }

    skinparam <<private class>> {
        classBackgroundColor #5d0000
    }


package "TWRP\Admin - - The backend of the website" {
	class Settings_Menu <<private class>> {}

	package "TWRP\Admin\Helpers" {
		class Remember_Note <<private class>> {}
	}

	package "TWRP\Admin\Tabs" {
		interface Interface_Admin_Menu_Tab <<private class>> {}
		class Documentation_Tab <<private class>> {}
		class General_Settings_Tab <<private class>> {}
		class Queries_Tab <<private class>> {}

		package "TWRP\Admin\Tabs\Documentation" {
			class Icons_Documentation <<private class>> {}
			class License_Display <<private class>> {}
		}

		package "TWRP\Admin\Tabs\General_Settings" {
			class General_Settings_Factory <<private class>> <<Facade>> {
				+ display( $setting_name )
			}

			interface General_Settings_Creator <<private class>>
			class General_Select_Setting <<private class>>
			class General_Select_With_Switch_Setting <<private class>>
			class General_Text_Setting <<private class>>
			class General_Radio_Setting <<private class>>

			General_Settings_Factory - -> General_Settings_Creator
			General_Settings_Creator <|.. General_Select_Setting
			General_Settings_Creator <|..  General_Text_Setting
			General_Settings_Creator <|.. General_Radio_Setting
			General_Select_Setting <|-l- General_Select_With_Switch_Setting
		}

		package "TWRP\Admin\Tabs\Query_Options" {
			class Existing_Table <<private class>> {}
			class Modify_Query_Settings <<private class>> {}

			interface Query_Setting_Display <<private class>> {}
			class Author_Display <<private class>> {}
			class Category_Display <<private class>> {}
			class All_Other_Classes_From_This_Folder <<private class>> {}

			Query_Setting_Display <|.. Author_Display
			Query_Setting_Display <|.. Category_Display
			Query_Setting_Display <|.. All_Other_Classes_From_This_Folder
		}

			Documentation_Tab - -> TWRP\Admin\Tabs\Documentation
			General_Settings_Tab - -> General_Settings_Factory
			Queries_Tab <- -> TWRP\Admin\Tabs\Query_Options
	}

	Settings_Menu ..> Interface_Admin_Menu_Tab
	Interface_Admin_Menu_Tab <|.. Documentation_Tab
	Interface_Admin_Menu_Tab <|.. General_Settings_Tab
	Interface_Admin_Menu_Tab <|.. Queries_Tab
}

@enduml

PlantUML version 1.2020.19(Mon Oct 12 15:10:01 UTC 2020)
(GPL source distribution)
Java Runtime: OpenJDK Runtime Environment
JVM: OpenJDK 64-Bit Server VM
Default Encoding: UTF-8
Language: en
Country: null
--></g></svg>