<?xml version="1.0" encoding="UTF-8" standalone="no"?><svg xmlns="http://www.w3.org/2000/svg" xmlns:xlink="http://www.w3.org/1999/xlink" contentScriptType="application/ecmascript" contentStyleType="text/css" height="665px" preserveAspectRatio="none" style="width:1254px;height:665px;background:#222222;" version="1.1" viewBox="0 0 1254 665" width="1254px" zoomAndPan="magnify"><defs><linearGradient id="g6a96idgwtcau0" x1="0%" x2="100%" y1="0%" y2="100%"><stop offset="0%" stop-color="#004B00"/><stop offset="100%" stop-color="#003B00"/></linearGradient><linearGradient id="g6a96idgwtcau1" x1="0%" x2="100%" y1="0%" y2="100%"><stop offset="0%" stop-color="#5D0000"/><stop offset="100%" stop-color="#4D0000"/></linearGradient></defs><g><!--MD5=[d9303347a3bf3758bc6f80f9d9d2e3f1]
cluster TWRP\\Article_Block--><polygon fill="#2C2C2C" points="16,6,176,6,183,32.2969,1237,32.2969,1237,658,16,658,16,6" style="stroke: #111111; stroke-width: 1.5;"/><line style="stroke: #111111; stroke-width: 1.5;" x1="16" x2="183" y1="32.2969" y2="32.2969"/><text fill="#EEEEEE" font-family="sans-serif" font-size="14" font-weight="bold" lengthAdjust="spacingAndGlyphs" textLength="150" x="22" y="22.9951">TWRP\Article_Block</text><!--MD5=[228121f56243f9123e49edf304e541f7]
cluster TWRP\\Article_Block\\Blocks--><polygon fill="#2C2C2C" points="271,147,332,147,339,173.2969,843,173.2969,843,250,271,250,271,147" style="stroke: #111111; stroke-width: 1.5;"/><line style="stroke: #111111; stroke-width: 1.5;" x1="271" x2="339" y1="173.2969" y2="173.2969"/><text fill="#EEEEEE" font-family="sans-serif" font-size="14" font-weight="bold" lengthAdjust="spacingAndGlyphs" textLength="51" x="277" y="163.9951">Blocks</text><!--MD5=[a46faa1434a7f0b99e8c5e21fadd7cfc]
cluster TWRP\\Article_Block\\Settings--><polygon fill="#2C2C2C" points="24,271,99,271,106,297.2969,666,297.2969,666,519,24,519,24,271" style="stroke: #111111; stroke-width: 1.5;"/><line style="stroke: #111111; stroke-width: 1.5;" x1="24" x2="106" y1="297.2969" y2="297.2969"/><text fill="#EEEEEE" font-family="sans-serif" font-size="14" font-weight="bold" lengthAdjust="spacingAndGlyphs" textLength="65" x="30" y="287.9951">Settings</text><!--MD5=[608a6a4f87e79233e82a3e614db7cad5]
cluster TWRP\\Article_Block\\Component--><polygon fill="#2C2C2C" points="674,278,775,278,782,304.2969,1229,304.2969,1229,650,674,650,674,278" style="stroke: #111111; stroke-width: 1.5;"/><line style="stroke: #111111; stroke-width: 1.5;" x1="674" x2="782" y1="304.2969" y2="304.2969"/><text fill="#EEEEEE" font-family="sans-serif" font-size="14" font-weight="bold" lengthAdjust="spacingAndGlyphs" textLength="91" x="680" y="294.9951">Component</text><!--MD5=[d94fd687b4bd80e1753f222fbc010c59]
class TWRP\\Article_Block\\Article_Block--><rect codeLine="39" fill="url(#g6a96idgwtcau0)" height="80.5625" id="TWRP\\Article_Block\\Article_Block" style="stroke: #755800; stroke-width: 1.5;" width="133" x="500.5" y="37"/><ellipse cx="514.5" cy="69.2813" fill="#A9DCDF" rx="10" ry="10" style="stroke: #755800; stroke-width: 1.0;"/><path d="M514.3125,64.5 L512.6563,70.4688 L515.9844,70.4688 L514.3125,64.5 Z M513.3594,63.1094 L515.2813,63.1094 L518.8438,74.7813 L517.2188,74.7813 L516.3594,71.7344 L512.2656,71.7344 L511.4219,74.7813 L509.7969,74.7813 L513.3594,63.1094 Z "/><text fill="#EEEEEE" font-family="sans-serif" font-size="12" font-style="italic" lengthAdjust="spacingAndGlyphs" textLength="87" x="535.5" y="55.1387">«public class»</text><text fill="#EEEEEE" font-family="sans-serif" font-size="12" font-style="italic" lengthAdjust="spacingAndGlyphs" textLength="103" x="527.5" y="69.1074">«abstract class»</text><text fill="#EEEEEE" font-family="sans-serif" font-size="16" font-style="italic" lengthAdjust="spacingAndGlyphs" textLength="98" x="530" y="90.7891">Article_Block</text><line style="stroke: #755800; stroke-width: 1.5;" x1="501.5" x2="632.5" y1="101.5625" y2="101.5625"/><line style="stroke: #755800; stroke-width: 1.5;" x1="501.5" x2="632.5" y1="109.5625" y2="109.5625"/><!--MD5=[39d10e4b817cc424bec78d5c39c66bae]
class TWRP\\Article_Block\\Blocks\\Simple_Article--><rect codeLine="42" fill="url(#g6a96idgwtcau1)" height="64.2656" id="TWRP\\Article_Block\\Blocks\\Simple_Article" style="stroke: #111111; stroke-width: 1.5;" width="129" x="670.5" y="178"/><ellipse cx="684.5" cy="202.1328" fill="#ADD1B2" rx="10" ry="10" style="stroke: #111111; stroke-width: 1.0;"/><path d="M686.8906,207.7109 Q686.2813,208.0391 685.6406,208.1953 Q685.0156,208.3672 684.3125,208.3672 Q682.0625,208.3672 680.8281,206.7734 Q679.5938,205.1797 679.5938,202.3047 Q679.5938,199.4453 680.8281,197.8516 Q682.0781,196.2578 684.3125,196.2578 Q685.0156,196.2578 685.6406,196.4141 Q686.2813,196.5703 686.8906,196.8984 L686.8906,198.5078 Q686.3125,198.0391 685.6406,197.7891 Q684.9844,197.5391 684.3125,197.5391 Q682.7656,197.5391 682,198.7266 Q681.2344,199.9141 681.2344,202.3047 Q681.2344,204.6953 682,205.8828 Q682.7656,207.0703 684.3125,207.0703 Q685,207.0703 685.6563,206.8203 Q686.3125,206.5703 686.8906,206.1016 L686.8906,207.7109 Z "/><text fill="#EEEEEE" font-family="sans-serif" font-size="12" font-style="italic" lengthAdjust="spacingAndGlyphs" textLength="93" x="700.5" y="196.1387">«private class»</text><text fill="#EEEEEE" font-family="sans-serif" font-size="14" lengthAdjust="spacingAndGlyphs" textLength="95" x="699.5" y="215.9639">Simple_Article</text><line style="stroke: #111111; stroke-width: 1.5;" x1="671.5" x2="798.5" y1="226.2656" y2="226.2656"/><line style="stroke: #111111; stroke-width: 1.5;" x1="671.5" x2="798.5" y1="234.2656" y2="234.2656"/><!--MD5=[8e92ae7dff658799eec7643e4d7087a3]
class TWRP\\Article_Block\\Blocks\\Modern_Article--><rect codeLine="43" fill="url(#g6a96idgwtcau1)" height="64.2656" id="TWRP\\Article_Block\\Blocks\\Modern_Article" style="stroke: #111111; stroke-width: 1.5;" width="136" x="499" y="178"/><ellipse cx="513" cy="202.1328" fill="#ADD1B2" rx="10" ry="10" style="stroke: #111111; stroke-width: 1.0;"/><path d="M515.3906,207.7109 Q514.7813,208.0391 514.1406,208.1953 Q513.5156,208.3672 512.8125,208.3672 Q510.5625,208.3672 509.3281,206.7734 Q508.0938,205.1797 508.0938,202.3047 Q508.0938,199.4453 509.3281,197.8516 Q510.5781,196.2578 512.8125,196.2578 Q513.5156,196.2578 514.1406,196.4141 Q514.7813,196.5703 515.3906,196.8984 L515.3906,198.5078 Q514.8125,198.0391 514.1406,197.7891 Q513.4844,197.5391 512.8125,197.5391 Q511.2656,197.5391 510.5,198.7266 Q509.7344,199.9141 509.7344,202.3047 Q509.7344,204.6953 510.5,205.8828 Q511.2656,207.0703 512.8125,207.0703 Q513.5,207.0703 514.1563,206.8203 Q514.8125,206.5703 515.3906,206.1016 L515.3906,207.7109 Z "/><text fill="#EEEEEE" font-family="sans-serif" font-size="12" font-style="italic" lengthAdjust="spacingAndGlyphs" textLength="93" x="532.5" y="196.1387">«private class»</text><text fill="#EEEEEE" font-family="sans-serif" font-size="14" lengthAdjust="spacingAndGlyphs" textLength="102" x="528" y="215.9639">Modern_Article</text><line style="stroke: #111111; stroke-width: 1.5;" x1="500" x2="634" y1="226.2656" y2="226.2656"/><line style="stroke: #111111; stroke-width: 1.5;" x1="500" x2="634" y1="234.2656" y2="234.2656"/><!--MD5=[0bd17a0316b1ae19b01bcc8694e8a0e0]
class TWRP\\Article_Block\\Blocks\\Other_Similar_Classes--><rect codeLine="44" fill="url(#g6a96idgwtcau1)" height="64.2656" id="TWRP\\Article_Block\\Blocks\\Other_Similar_Classes" style="stroke: #111111; stroke-width: 1.5;" width="185" x="278.5" y="178"/><ellipse cx="292.5" cy="202.1328" fill="#ADD1B2" rx="10" ry="10" style="stroke: #111111; stroke-width: 1.0;"/><path d="M294.8906,207.7109 Q294.2813,208.0391 293.6406,208.1953 Q293.0156,208.3672 292.3125,208.3672 Q290.0625,208.3672 288.8281,206.7734 Q287.5938,205.1797 287.5938,202.3047 Q287.5938,199.4453 288.8281,197.8516 Q290.0781,196.2578 292.3125,196.2578 Q293.0156,196.2578 293.6406,196.4141 Q294.2813,196.5703 294.8906,196.8984 L294.8906,198.5078 Q294.3125,198.0391 293.6406,197.7891 Q292.9844,197.5391 292.3125,197.5391 Q290.7656,197.5391 290,198.7266 Q289.2344,199.9141 289.2344,202.3047 Q289.2344,204.6953 290,205.8828 Q290.7656,207.0703 292.3125,207.0703 Q293,207.0703 293.6563,206.8203 Q294.3125,206.5703 294.8906,206.1016 L294.8906,207.7109 Z "/><text fill="#EEEEEE" font-family="sans-serif" font-size="12" font-style="italic" lengthAdjust="spacingAndGlyphs" textLength="93" x="336.5" y="196.1387">«private class»</text><text fill="#EEEEEE" font-family="sans-serif" font-size="14" lengthAdjust="spacingAndGlyphs" textLength="151" x="307.5" y="215.9639">Other_Similar_Classes</text><line style="stroke: #111111; stroke-width: 1.5;" x1="279.5" x2="462.5" y1="226.2656" y2="226.2656"/><line style="stroke: #111111; stroke-width: 1.5;" x1="279.5" x2="462.5" y1="234.2656" y2="234.2656"/><!--MD5=[1449fef7dce2630ed25976b53dddf172]
class TWRP\\Article_Block\\Settings\\Artblock_Setting--><rect codeLine="48" fill="url(#g6a96idgwtcau1)" height="78.2344" id="TWRP\\Article_Block\\Settings\\Artblock_Setting" style="stroke: #755800; stroke-width: 1.5;" width="146" x="233" y="302"/><ellipse cx="247" cy="333.1172" fill="#ADD1B2" rx="10" ry="10" style="stroke: #755800; stroke-width: 1.0;"/><path d="M249.3906,338.6953 Q248.7813,339.0234 248.1406,339.1797 Q247.5156,339.3516 246.8125,339.3516 Q244.5625,339.3516 243.3281,337.7578 Q242.0938,336.1641 242.0938,333.2891 Q242.0938,330.4297 243.3281,328.8359 Q244.5781,327.2422 246.8125,327.2422 Q247.5156,327.2422 248.1406,327.3984 Q248.7813,327.5547 249.3906,327.8828 L249.3906,329.4922 Q248.8125,329.0234 248.1406,328.7734 Q247.4844,328.5234 246.8125,328.5234 Q245.2656,328.5234 244.5,329.7109 Q243.7344,330.8984 243.7344,333.2891 Q243.7344,335.6797 244.5,336.8672 Q245.2656,338.0547 246.8125,338.0547 Q247.5,338.0547 248.1563,337.8047 Q248.8125,337.5547 249.3906,337.0859 L249.3906,338.6953 Z "/><text fill="#EEEEEE" font-family="sans-serif" font-size="12" font-style="italic" lengthAdjust="spacingAndGlyphs" textLength="93" x="271.5" y="320.1387">«private class»</text><text fill="#EEEEEE" font-family="sans-serif" font-size="12" font-style="italic" lengthAdjust="spacingAndGlyphs" textLength="103" x="266.5" y="334.1074">«abstract class»</text><text fill="#EEEEEE" font-family="sans-serif" font-size="14" lengthAdjust="spacingAndGlyphs" textLength="112" x="262" y="353.9326">Artblock_Setting</text><line style="stroke: #755800; stroke-width: 1.5;" x1="234" x2="378" y1="364.2344" y2="364.2344"/><line style="stroke: #755800; stroke-width: 1.5;" x1="234" x2="378" y1="372.2344" y2="372.2344"/><!--MD5=[a2357f61b7c278c1330a1289eb679966]
class TWRP\\Article_Block\\Settings\\Display_Author_Setting--><rect codeLine="49" fill="url(#g6a96idgwtcau1)" height="64.2656" id="TWRP\\Article_Block\\Settings\\Display_Author_Setting" style="stroke: #111111; stroke-width: 1.5;" width="192" x="32" y="447"/><ellipse cx="46" cy="471.1328" fill="#ADD1B2" rx="10" ry="10" style="stroke: #111111; stroke-width: 1.0;"/><path d="M48.3906,476.7109 Q47.7813,477.0391 47.1406,477.1953 Q46.5156,477.3672 45.8125,477.3672 Q43.5625,477.3672 42.3281,475.7734 Q41.0938,474.1797 41.0938,471.3047 Q41.0938,468.4453 42.3281,466.8516 Q43.5781,465.2578 45.8125,465.2578 Q46.5156,465.2578 47.1406,465.4141 Q47.7813,465.5703 48.3906,465.8984 L48.3906,467.5078 Q47.8125,467.0391 47.1406,466.7891 Q46.4844,466.5391 45.8125,466.5391 Q44.2656,466.5391 43.5,467.7266 Q42.7344,468.9141 42.7344,471.3047 Q42.7344,473.6953 43.5,474.8828 Q44.2656,476.0703 45.8125,476.0703 Q46.5,476.0703 47.1563,475.8203 Q47.8125,475.5703 48.3906,475.1016 L48.3906,476.7109 Z "/><text fill="#EEEEEE" font-family="sans-serif" font-size="12" font-style="italic" lengthAdjust="spacingAndGlyphs" textLength="93" x="93.5" y="465.1387">«private class»</text><text fill="#EEEEEE" font-family="sans-serif" font-size="14" lengthAdjust="spacingAndGlyphs" textLength="158" x="61" y="484.9639">Display_Author_Setting</text><line style="stroke: #111111; stroke-width: 1.5;" x1="33" x2="223" y1="495.2656" y2="495.2656"/><line style="stroke: #111111; stroke-width: 1.5;" x1="33" x2="223" y1="503.2656" y2="503.2656"/><!--MD5=[1955f043063f84c728277ca9a403c924]
class TWRP\\Article_Block\\Settings\\Display_Date_Setting--><rect codeLine="50" fill="url(#g6a96idgwtcau1)" height="64.2656" id="TWRP\\Article_Block\\Settings\\Display_Date_Setting" style="stroke: #111111; stroke-width: 1.5;" width="179" x="259.5" y="447"/><ellipse cx="273.5" cy="471.1328" fill="#ADD1B2" rx="10" ry="10" style="stroke: #111111; stroke-width: 1.0;"/><path d="M275.8906,476.7109 Q275.2813,477.0391 274.6406,477.1953 Q274.0156,477.3672 273.3125,477.3672 Q271.0625,477.3672 269.8281,475.7734 Q268.5938,474.1797 268.5938,471.3047 Q268.5938,468.4453 269.8281,466.8516 Q271.0781,465.2578 273.3125,465.2578 Q274.0156,465.2578 274.6406,465.4141 Q275.2813,465.5703 275.8906,465.8984 L275.8906,467.5078 Q275.3125,467.0391 274.6406,466.7891 Q273.9844,466.5391 273.3125,466.5391 Q271.7656,466.5391 271,467.7266 Q270.2344,468.9141 270.2344,471.3047 Q270.2344,473.6953 271,474.8828 Q271.7656,476.0703 273.3125,476.0703 Q274,476.0703 274.6563,475.8203 Q275.3125,475.5703 275.8906,475.1016 L275.8906,476.7109 Z "/><text fill="#EEEEEE" font-family="sans-serif" font-size="12" font-style="italic" lengthAdjust="spacingAndGlyphs" textLength="93" x="314.5" y="465.1387">«private class»</text><text fill="#EEEEEE" font-family="sans-serif" font-size="14" lengthAdjust="spacingAndGlyphs" textLength="145" x="288.5" y="484.9639">Display_Date_Setting</text><line style="stroke: #111111; stroke-width: 1.5;" x1="260.5" x2="437.5" y1="495.2656" y2="495.2656"/><line style="stroke: #111111; stroke-width: 1.5;" x1="260.5" x2="437.5" y1="503.2656" y2="503.2656"/><!--MD5=[d972631e348991cfeb0779de7047aa1b]
class TWRP\\Article_Block\\Settings\\Other_Similar_Classes--><rect codeLine="51" fill="url(#g6a96idgwtcau1)" height="64.2656" id="TWRP\\Article_Block\\Settings\\Other_Similar_Classes" style="stroke: #111111; stroke-width: 1.5;" width="185" x="473.5" y="447"/><ellipse cx="487.5" cy="471.1328" fill="#ADD1B2" rx="10" ry="10" style="stroke: #111111; stroke-width: 1.0;"/><path d="M489.8906,476.7109 Q489.2813,477.0391 488.6406,477.1953 Q488.0156,477.3672 487.3125,477.3672 Q485.0625,477.3672 483.8281,475.7734 Q482.5938,474.1797 482.5938,471.3047 Q482.5938,468.4453 483.8281,466.8516 Q485.0781,465.2578 487.3125,465.2578 Q488.0156,465.2578 488.6406,465.4141 Q489.2813,465.5703 489.8906,465.8984 L489.8906,467.5078 Q489.3125,467.0391 488.6406,466.7891 Q487.9844,466.5391 487.3125,466.5391 Q485.7656,466.5391 485,467.7266 Q484.2344,468.9141 484.2344,471.3047 Q484.2344,473.6953 485,474.8828 Q485.7656,476.0703 487.3125,476.0703 Q488,476.0703 488.6563,475.8203 Q489.3125,475.5703 489.8906,475.1016 L489.8906,476.7109 Z "/><text fill="#EEEEEE" font-family="sans-serif" font-size="12" font-style="italic" lengthAdjust="spacingAndGlyphs" textLength="93" x="531.5" y="465.1387">«private class»</text><text fill="#EEEEEE" font-family="sans-serif" font-size="14" lengthAdjust="spacingAndGlyphs" textLength="151" x="502.5" y="484.9639">Other_Similar_Classes</text><line style="stroke: #111111; stroke-width: 1.5;" x1="474.5" x2="657.5" y1="495.2656" y2="495.2656"/><line style="stroke: #111111; stroke-width: 1.5;" x1="474.5" x2="657.5" y1="503.2656" y2="503.2656"/><!--MD5=[80188496250953477d96019e2a80968e]
class TWRP\\Article_Block\\Component\\Artblock_Component--><rect codeLine="55" fill="url(#g6a96idgwtcau1)" height="64.2656" id="TWRP\\Article_Block\\Component\\Artblock_Component" style="stroke: #111111; stroke-width: 1.5;" width="179" x="848.5" y="309"/><ellipse cx="862.5" cy="333.1328" fill="#ADD1B2" rx="10" ry="10" style="stroke: #111111; stroke-width: 1.0;"/><path d="M864.8906,338.7109 Q864.2813,339.0391 863.6406,339.1953 Q863.0156,339.3672 862.3125,339.3672 Q860.0625,339.3672 858.8281,337.7734 Q857.5938,336.1797 857.5938,333.3047 Q857.5938,330.4453 858.8281,328.8516 Q860.0781,327.2578 862.3125,327.2578 Q863.0156,327.2578 863.6406,327.4141 Q864.2813,327.5703 864.8906,327.8984 L864.8906,329.5078 Q864.3125,329.0391 863.6406,328.7891 Q862.9844,328.5391 862.3125,328.5391 Q860.7656,328.5391 860,329.7266 Q859.2344,330.9141 859.2344,333.3047 Q859.2344,335.6953 860,336.8828 Q860.7656,338.0703 862.3125,338.0703 Q863,338.0703 863.6563,337.8203 Q864.3125,337.5703 864.8906,337.1016 L864.8906,338.7109 Z "/><text fill="#EEEEEE" font-family="sans-serif" font-size="12" font-style="italic" lengthAdjust="spacingAndGlyphs" textLength="93" x="903.5" y="327.1387">«private class»</text><text fill="#EEEEEE" font-family="sans-serif" font-size="14" lengthAdjust="spacingAndGlyphs" textLength="145" x="877.5" y="346.9639">Artblock_Component</text><line style="stroke: #111111; stroke-width: 1.5;" x1="849.5" x2="1026.5" y1="357.2656" y2="357.2656"/><line style="stroke: #111111; stroke-width: 1.5;" x1="849.5" x2="1026.5" y1="365.2656" y2="365.2656"/><!--MD5=[d8f6fa7878ce8bb24cdee71dcea0e62e]
class TWRP\\Article_Block\\Component\\Component_Setting--><rect codeLine="57" fill="url(#g6a96idgwtcau1)" height="78.2344" id="TWRP\\Article_Block\\Component\\Component_Setting" style="stroke: #755800; stroke-width: 1.5;" width="172" x="852" y="440"/><ellipse cx="866" cy="471.1172" fill="#A9DCDF" rx="10" ry="10" style="stroke: #755800; stroke-width: 1.0;"/><path d="M865.8125,466.3359 L864.1563,472.3047 L867.4844,472.3047 L865.8125,466.3359 Z M864.8594,464.9453 L866.7813,464.9453 L870.3438,476.6172 L868.7188,476.6172 L867.8594,473.5703 L863.7656,473.5703 L862.9219,476.6172 L861.2969,476.6172 L864.8594,464.9453 Z "/><text fill="#EEEEEE" font-family="sans-serif" font-size="12" font-style="italic" lengthAdjust="spacingAndGlyphs" textLength="93" x="903.5" y="458.1387">«private class»</text><text fill="#EEEEEE" font-family="sans-serif" font-size="12" font-style="italic" lengthAdjust="spacingAndGlyphs" textLength="103" x="898.5" y="472.1074">«abstract class»</text><text fill="#EEEEEE" font-family="sans-serif" font-size="14" font-style="italic" lengthAdjust="spacingAndGlyphs" textLength="138" x="881" y="491.9326">Component_Setting</text><line style="stroke: #755800; stroke-width: 1.5;" x1="853" x2="1023" y1="502.2344" y2="502.2344"/><line style="stroke: #755800; stroke-width: 1.5;" x1="853" x2="1023" y1="510.2344" y2="510.2344"/><!--MD5=[dc4c407c925e0cbf4e0e40e92cc0cad5]
class TWRP\\Article_Block\\Component\\Font_Size_Setting--><rect codeLine="58" fill="url(#g6a96idgwtcau1)" height="64.2656" id="TWRP\\Article_Block\\Component\\Font_Size_Setting" style="stroke: #111111; stroke-width: 1.5;" width="157" x="682.5" y="578"/><ellipse cx="696.5" cy="602.1328" fill="#ADD1B2" rx="10" ry="10" style="stroke: #111111; stroke-width: 1.0;"/><path d="M698.8906,607.7109 Q698.2813,608.0391 697.6406,608.1953 Q697.0156,608.3672 696.3125,608.3672 Q694.0625,608.3672 692.8281,606.7734 Q691.5938,605.1797 691.5938,602.3047 Q691.5938,599.4453 692.8281,597.8516 Q694.0781,596.2578 696.3125,596.2578 Q697.0156,596.2578 697.6406,596.4141 Q698.2813,596.5703 698.8906,596.8984 L698.8906,598.5078 Q698.3125,598.0391 697.6406,597.7891 Q696.9844,597.5391 696.3125,597.5391 Q694.7656,597.5391 694,598.7266 Q693.2344,599.9141 693.2344,602.3047 Q693.2344,604.6953 694,605.8828 Q694.7656,607.0703 696.3125,607.0703 Q697,607.0703 697.6563,606.8203 Q698.3125,606.5703 698.8906,606.1016 L698.8906,607.7109 Z "/><text fill="#EEEEEE" font-family="sans-serif" font-size="12" font-style="italic" lengthAdjust="spacingAndGlyphs" textLength="93" x="726.5" y="596.1387">«private class»</text><text fill="#EEEEEE" font-family="sans-serif" font-size="14" lengthAdjust="spacingAndGlyphs" textLength="123" x="711.5" y="615.9639">Font_Size_Setting</text><line style="stroke: #111111; stroke-width: 1.5;" x1="683.5" x2="838.5" y1="626.2656" y2="626.2656"/><line style="stroke: #111111; stroke-width: 1.5;" x1="683.5" x2="838.5" y1="634.2656" y2="634.2656"/><!--MD5=[6b834a6f3ed9bb04d84dce1a1fad188e]
class TWRP\\Article_Block\\Component\\Color_Setting--><rect codeLine="59" fill="url(#g6a96idgwtcau1)" height="64.2656" id="TWRP\\Article_Block\\Component\\Color_Setting" style="stroke: #111111; stroke-width: 1.5;" width="126" x="875" y="578"/><ellipse cx="889" cy="602.1328" fill="#ADD1B2" rx="10" ry="10" style="stroke: #111111; stroke-width: 1.0;"/><path d="M891.3906,607.7109 Q890.7813,608.0391 890.1406,608.1953 Q889.5156,608.3672 888.8125,608.3672 Q886.5625,608.3672 885.3281,606.7734 Q884.0938,605.1797 884.0938,602.3047 Q884.0938,599.4453 885.3281,597.8516 Q886.5781,596.2578 888.8125,596.2578 Q889.5156,596.2578 890.1406,596.4141 Q890.7813,596.5703 891.3906,596.8984 L891.3906,598.5078 Q890.8125,598.0391 890.1406,597.7891 Q889.4844,597.5391 888.8125,597.5391 Q887.2656,597.5391 886.5,598.7266 Q885.7344,599.9141 885.7344,602.3047 Q885.7344,604.6953 886.5,605.8828 Q887.2656,607.0703 888.8125,607.0703 Q889.5,607.0703 890.1563,606.8203 Q890.8125,606.5703 891.3906,606.1016 L891.3906,607.7109 Z "/><text fill="#EEEEEE" font-family="sans-serif" font-size="12" font-style="italic" lengthAdjust="spacingAndGlyphs" textLength="93" x="903.5" y="596.1387">«private class»</text><text fill="#EEEEEE" font-family="sans-serif" font-size="14" lengthAdjust="spacingAndGlyphs" textLength="92" x="904" y="615.9639">Color_Setting</text><line style="stroke: #111111; stroke-width: 1.5;" x1="876" x2="1000" y1="626.2656" y2="626.2656"/><line style="stroke: #111111; stroke-width: 1.5;" x1="876" x2="1000" y1="634.2656" y2="634.2656"/><!--MD5=[c17fb80b2595cea248694ed3935ef49d]
class TWRP\\Article_Block\\Component\\Other_Similar_Classes--><rect codeLine="60" fill="url(#g6a96idgwtcau1)" height="64.2656" id="TWRP\\Article_Block\\Component\\Other_Similar_Classes" style="stroke: #111111; stroke-width: 1.5;" width="185" x="1036.5" y="578"/><ellipse cx="1050.5" cy="602.1328" fill="#ADD1B2" rx="10" ry="10" style="stroke: #111111; stroke-width: 1.0;"/><path d="M1052.8906,607.7109 Q1052.2813,608.0391 1051.6406,608.1953 Q1051.0156,608.3672 1050.3125,608.3672 Q1048.0625,608.3672 1046.8281,606.7734 Q1045.5938,605.1797 1045.5938,602.3047 Q1045.5938,599.4453 1046.8281,597.8516 Q1048.0781,596.2578 1050.3125,596.2578 Q1051.0156,596.2578 1051.6406,596.4141 Q1052.2813,596.5703 1052.8906,596.8984 L1052.8906,598.5078 Q1052.3125,598.0391 1051.6406,597.7891 Q1050.9844,597.5391 1050.3125,597.5391 Q1048.7656,597.5391 1048,598.7266 Q1047.2344,599.9141 1047.2344,602.3047 Q1047.2344,604.6953 1048,605.8828 Q1048.7656,607.0703 1050.3125,607.0703 Q1051,607.0703 1051.6563,606.8203 Q1052.3125,606.5703 1052.8906,606.1016 L1052.8906,607.7109 Z "/><text fill="#EEEEEE" font-family="sans-serif" font-size="12" font-style="italic" lengthAdjust="spacingAndGlyphs" textLength="93" x="1094.5" y="596.1387">«private class»</text><text fill="#EEEEEE" font-family="sans-serif" font-size="14" lengthAdjust="spacingAndGlyphs" textLength="151" x="1065.5" y="615.9639">Other_Similar_Classes</text><line style="stroke: #111111; stroke-width: 1.5;" x1="1037.5" x2="1220.5" y1="626.2656" y2="626.2656"/><line style="stroke: #111111; stroke-width: 1.5;" x1="1037.5" x2="1220.5" y1="634.2656" y2="634.2656"/><!--MD5=[2217d82b3806d72bc30712f57890b447]
reverse link TWRP\\Article_Block\\Article_Block to TWRP\\Article_Block\\Blocks\\Simple_Article--><path d="M634.6223,130.8331 C654.851,146.7873 676.3981,163.7812 694.3218,177.9175 " fill="none" id="TWRP\\Article_Block\\Article_Block-backto-TWRP\\Article_Block\\Blocks\\Simple_Article" style="stroke: #FFFF00; stroke-width: 1.0; stroke-dasharray: 7.0,7.0;"/><polygon fill="none" points="630.1452,136.2172,618.7764,118.3355,638.8149,125.2246,630.1452,136.2172" style="stroke: #FFFF00; stroke-width: 1.0;"/><!--MD5=[31f464571bd5bc657d9a170c731f9f18]
reverse link TWRP\\Article_Block\\Article_Block to TWRP\\Article_Block\\Blocks\\Modern_Article--><path d="M567,138.4781 C567,152.0998 567,166.0206 567,177.9175 " fill="none" id="TWRP\\Article_Block\\Article_Block-backto-TWRP\\Article_Block\\Blocks\\Modern_Article" style="stroke: #FFFF00; stroke-width: 1.0; stroke-dasharray: 7.0,7.0;"/><polygon fill="none" points="560.0001,138.3356,567,118.3355,574.0001,138.3355,560.0001,138.3356" style="stroke: #FFFF00; stroke-width: 1.0;"/><!--MD5=[a63e55edb08dfec05bae8182f8b8758e]
reverse link TWRP\\Article_Block\\Article_Block to TWRP\\Article_Block\\Blocks\\Other_Similar_Classes--><path d="M490.1115,129.4782 C465.9841,145.7888 440.0643,163.3111 418.5849,177.8316 " fill="none" id="TWRP\\Article_Block\\Article_Block-backto-TWRP\\Article_Block\\Blocks\\Other_Similar_Classes" style="stroke: #FFFF00; stroke-width: 1.0; stroke-dasharray: 7.0,7.0;"/><polygon fill="none" points="486.372,123.5567,506.8615,118.1548,494.2128,135.1551,486.372,123.5567" style="stroke: #FFFF00; stroke-width: 1.0;"/><!--MD5=[00a62877313f5041f68bde4dfc080631]
reverse link TWRP\\Article_Block\\Settings\\Artblock_Setting to TWRP\\Article_Block\\Settings\\Display_Author_Setting--><path d="M239.6084,392.4721 C216.0489,410.7374 190.2258,430.7575 169.3577,446.9361 " fill="none" id="TWRP\\Article_Block\\Settings\\Artblock_Setting-backto-TWRP\\Article_Block\\Settings\\Display_Author_Setting" style="stroke: #FFFF00; stroke-width: 1.0; stroke-dasharray: 7.0,7.0;"/><polygon fill="none" points="235.3733,386.8982,255.4685,380.1761,243.9513,397.9625,235.3733,386.8982" style="stroke: #FFFF00; stroke-width: 1.0;"/><!--MD5=[8a41fedce812bd9194da15a8ac793f55]
reverse link TWRP\\Article_Block\\Settings\\Artblock_Setting to TWRP\\Article_Block\\Settings\\Display_Date_Setting--><path d="M324.1715,399.318 C329.2273,415.5435 334.5347,432.5766 338.9388,446.7105 " fill="none" id="TWRP\\Article_Block\\Settings\\Artblock_Setting-backto-TWRP\\Article_Block\\Settings\\Display_Date_Setting" style="stroke: #FFFF00; stroke-width: 1.0; stroke-dasharray: 7.0,7.0;"/><polygon fill="none" points="317.4738,401.3531,318.2071,380.1761,330.8399,397.1882,317.4738,401.3531" style="stroke: #FFFF00; stroke-width: 1.0;"/><!--MD5=[c294f9f9bf0230da842407c54461f944]
reverse link TWRP\\Article_Block\\Settings\\Artblock_Setting to TWRP\\Article_Block\\Settings\\Other_Similar_Classes--><path d="M396.9386,389.2674 C432.9664,408.3899 473.4067,429.8543 505.6998,446.9945 " fill="none" id="TWRP\\Article_Block\\Settings\\Artblock_Setting-backto-TWRP\\Article_Block\\Settings\\Other_Similar_Classes" style="stroke: #FFFF00; stroke-width: 1.0; stroke-dasharray: 7.0,7.0;"/><polygon fill="none" points="393.5005,395.3675,379.1164,379.8079,400.064,383.0014,393.5005,395.3675" style="stroke: #FFFF00; stroke-width: 1.0;"/><!--MD5=[c5424ed68c0406d907fcdf5280213527]
reverse link TWRP\\Article_Block\\Component\\Component_Setting to TWRP\\Article_Block\\Component\\Font_Size_Setting--><path d="M868.6944,530.294 C846.9762,546.3679 823.6378,563.6409 804.2584,577.9839 " fill="none" id="TWRP\\Article_Block\\Component\\Component_Setting-backto-TWRP\\Article_Block\\Component\\Font_Size_Setting" style="stroke: #FFFF00; stroke-width: 1.0; stroke-dasharray: 7.0,7.0;"/><polygon fill="none" points="864.6538,524.5758,884.8942,518.3043,872.9825,535.829,864.6538,524.5758" style="stroke: #FFFF00; stroke-width: 1.0;"/><!--MD5=[4c864ce5c11d89567d9e5c6b15ed8347]
reverse link TWRP\\Article_Block\\Component\\Component_Setting to TWRP\\Article_Block\\Component\\Color_Setting--><path d="M938,538.33 C938,551.9071 938,565.841 938,577.7703 " fill="none" id="TWRP\\Article_Block\\Component\\Component_Setting-backto-TWRP\\Article_Block\\Component\\Color_Setting" style="stroke: #FFFF00; stroke-width: 1.0; stroke-dasharray: 7.0,7.0;"/><polygon fill="none" points="931.0001,538.3044,938,518.3043,945.0001,538.3043,931.0001,538.3044" style="stroke: #FFFF00; stroke-width: 1.0;"/><!--MD5=[4b2d55eac7288b701a82d2f65287332b]
reverse link TWRP\\Article_Block\\Component\\Component_Setting to TWRP\\Article_Block\\Component\\Other_Similar_Classes--><path d="M1011.8517,529.6522 C1035.5055,545.8755 1061.0297,563.3816 1082.1964,577.8991 " fill="none" id="TWRP\\Article_Block\\Component\\Component_Setting-backto-TWRP\\Article_Block\\Component\\Other_Similar_Classes" style="stroke: #FFFF00; stroke-width: 1.0; stroke-dasharray: 7.0,7.0;"/><polygon fill="none" points="1007.5817,535.2119,995.0476,518.1269,1015.5003,523.6665,1007.5817,535.2119" style="stroke: #FFFF00; stroke-width: 1.0;"/><!--MD5=[8d0de5b0b809e79ab2faccca964e0373]
link TWRP\\Article_Block\\Component\\Artblock_Component to TWRP\\Article_Block\\Component\\Component_Setting--><path codeLine="62" d="M938,373.0068 C938,391.3573 938,414.6638 938,434.7465 " fill="none" id="TWRP\\Article_Block\\Component\\Artblock_Component-to-TWRP\\Article_Block\\Component\\Component_Setting" style="stroke: #FFFF00; stroke-width: 1.0;"/><polygon fill="#FFFF00" points="938,439.7778,942,430.7778,938,434.7778,934,430.7778,938,439.7778" style="stroke: #FFFF00; stroke-width: 1.0;"/><!--MD5=[a45c4b5b963b6581de4f5bf31ff12c01]
link TWRP\\Article_Block\\Article_Block to TWRP\\Article_Block\\Settings\\Artblock_Setting--><path codeLine="65" d="M500.3622,83.2048 C420.0176,91.6249 292.1075,110.487 263,147 C228.7653,189.9447 253.7389,254.5018 277.5203,297.1832 " fill="none" id="TWRP\\Article_Block\\Article_Block-to-TWRP\\Article_Block\\Settings\\Artblock_Setting" style="stroke: #FFFF00; stroke-width: 1.0;"/><polygon fill="#FFFF00" points="280.1123,301.7595,279.1574,291.957,277.6482,297.4088,272.1964,295.8996,280.1123,301.7595" style="stroke: #FFFF00; stroke-width: 1.0;"/><!--MD5=[b4f1f4a110c84247262aa9b5877ce7b6]
link TWRP\\Article_Block\\Article_Block to TWRP\\Article_Block\\Component\\Artblock_Component--><path codeLine="66" d="M633.6457,86.919 C706.8357,98.4326 818.3381,119.7886 851,147 C899.3339,187.2682 921.8716,259.9043 931.538,303.9628 " fill="none" id="TWRP\\Article_Block\\Article_Block-to-TWRP\\Article_Block\\Component\\Artblock_Component" style="stroke: #FFFF00; stroke-width: 1.0;"/><polygon fill="#FFFF00" points="932.5991,308.926,934.6292,299.2886,931.5538,304.0365,926.8059,300.9611,932.5991,308.926" style="stroke: #FFFF00; stroke-width: 1.0;"/><!--MD5=[8d1138c7628086c37a91b87a50059d0a]
link TWRP\\Article_Block\\Blocks to TWRP\\Article_Block\\Settings--><!--MD5=[31da58b265617c5112539aa1ce9fa6ce]
link TWRP\\Article_Block\\Blocks to TWRP\\Article_Block\\Component--><!--MD5=[12c16bd520d808bb247957ff3b05f3a2]
@startuml
set namespaceSeparator \\

    skinparam {
        padding 2
        backgroundColor #222
        shadowing false

        classFontColor #eee
        classStereotypeFontColor #eee
        classBorderColor #111
        classFontSize 14
        ClassAttributeFontColor #eee
        ClassAttributeFontSize 13
        ClassAttributeIconSize 15

        PackageBackgroundColor #2c2c2c
        PackageBorderColor #111
        PackageFontColor #eee

        ArrowColor yellow

        circledCharacterFontColor black
        circledCharacterFontSize 16
        circledCharacterFontStyle plain
        circledCharacterRadius 10

        <<public class>>classBackgroundColor #004b00/#003b00
        <<public class>>classFontSize 16

        <<private class>>classBackgroundColor #5d0000/#4d0000

        <<protected class>>classBackgroundColor #d16300/#c15300

        <<abstract class>>classBorderColor #755800
    }


namespace TWRP\\Article_Block {
	abstract Article_Block <<public class>> <<abstract class>> {}

	namespace Blocks {
		class Simple_Article <<private class>> implements TWRP\\Article_Block\\Article_Block {}
		class Modern_Article <<private class>> implements TWRP\\Article_Block\\Article_Block {}
		class Other_Similar_Classes <<private class>> implements TWRP\\Article_Block\\Article_Block {}
	}

	namespace Settings {
		class Artblock_Setting <<private class>> <<abstract class>> {}
		class Display_Author_Setting <<private class>> implements Artblock_Setting {}
		class Display_Date_Setting <<private class>> implements Artblock_Setting {}
		class Other_Similar_Classes <<private class>> implements Artblock_Setting {}
	}

	namespace Component {
		class Artblock_Component <<private class>> {}

		abstract Component_Setting <<private class>> <<abstract class>> {}
		class Font_Size_Setting <<private class>> implements Component_Setting{}
		class Color_Setting <<private class>> implements Component_Setting{}
		class Other_Similar_Classes <<private class>> implements Component_Setting{}

		Artblock_Component - -> Component_Setting
	}

	Article_Block - -> TWRP\\Article_Block\\Settings\\Artblock_Setting
	Article_Block - -> TWRP\\Article_Block\\Component\\Artblock_Component

	'alignment pupose:
	TWRP\\Article_Block\\Blocks -[hidden]-> TWRP\\Article_Block\\Settings
	TWRP\\Article_Block\\Blocks -[hidden]-> TWRP\\Article_Block\\Component
}
@enduml

@startuml
set namespaceSeparator \\

    skinparam {
        padding 2
        backgroundColor #222
        shadowing false

        classFontColor #eee
        classStereotypeFontColor #eee
        classBorderColor #111
        classFontSize 14
        ClassAttributeFontColor #eee
        ClassAttributeFontSize 13
        ClassAttributeIconSize 15

        PackageBackgroundColor #2c2c2c
        PackageBorderColor #111
        PackageFontColor #eee

        ArrowColor yellow

        circledCharacterFontColor black
        circledCharacterFontSize 16
        circledCharacterFontStyle plain
        circledCharacterRadius 10

        <<public class>>classBackgroundColor #004b00/#003b00
        <<public class>>classFontSize 16

        <<private class>>classBackgroundColor #5d0000/#4d0000

        <<protected class>>classBackgroundColor #d16300/#c15300

        <<abstract class>>classBorderColor #755800
    }


namespace TWRP\\Article_Block {
	abstract Article_Block <<public class>> <<abstract class>> {}

	namespace Blocks {
		class Simple_Article <<private class>> implements TWRP\\Article_Block\\Article_Block {}
		class Modern_Article <<private class>> implements TWRP\\Article_Block\\Article_Block {}
		class Other_Similar_Classes <<private class>> implements TWRP\\Article_Block\\Article_Block {}
	}

	namespace Settings {
		class Artblock_Setting <<private class>> <<abstract class>> {}
		class Display_Author_Setting <<private class>> implements Artblock_Setting {}
		class Display_Date_Setting <<private class>> implements Artblock_Setting {}
		class Other_Similar_Classes <<private class>> implements Artblock_Setting {}
	}

	namespace Component {
		class Artblock_Component <<private class>> {}

		abstract Component_Setting <<private class>> <<abstract class>> {}
		class Font_Size_Setting <<private class>> implements Component_Setting{}
		class Color_Setting <<private class>> implements Component_Setting{}
		class Other_Similar_Classes <<private class>> implements Component_Setting{}

		Artblock_Component - -> Component_Setting
	}

	Article_Block - -> TWRP\\Article_Block\\Settings\\Artblock_Setting
	Article_Block - -> TWRP\\Article_Block\\Component\\Artblock_Component

	TWRP\\Article_Block\\Blocks -[hidden]-> TWRP\\Article_Block\\Settings
	TWRP\\Article_Block\\Blocks -[hidden]-> TWRP\\Article_Block\\Component
}
@enduml

PlantUML version 1.2020.19(Mon Oct 12 15:10:01 UTC 2020)
(GPL source distribution)
Java Runtime: OpenJDK Runtime Environment
JVM: OpenJDK 64-Bit Server VM
Default Encoding: UTF-8
Language: en
Country: null
--></g></svg>