<?xml version="1.0" encoding="UTF-8" standalone="no"?><svg xmlns="http://www.w3.org/2000/svg" xmlns:xlink="http://www.w3.org/1999/xlink" contentScriptType="application/ecmascript" contentStyleType="text/css" height="280px" preserveAspectRatio="none" style="width:1273px;height:280px;background:#222222;" version="1.1" viewBox="0 0 1273 280" width="1273px" zoomAndPan="magnify"><defs><linearGradient id="guf7yae0hpxts0" x1="0%" x2="100%" y1="0%" y2="100%"><stop offset="0%" stop-color="#004B00"/><stop offset="100%" stop-color="#003B00"/></linearGradient><linearGradient id="guf7yae0hpxts1" x1="0%" x2="100%" y1="0%" y2="100%"><stop offset="0%" stop-color="#5D0000"/><stop offset="100%" stop-color="#4D0000"/></linearGradient></defs><g><!--MD5=[d9303347a3bf3758bc6f80f9d9d2e3f1]
cluster TWRP\\Article_Block--><polygon fill="#2C2C2C" points="16,6,176,6,183,32.2969,1256,32.2969,1256,273.5,16,273.5,16,6" style="stroke: #111111; stroke-width: 1.5;"/><line style="stroke: #111111; stroke-width: 1.5;" x1="16" x2="183" y1="32.2969" y2="32.2969"/><text fill="#EEEEEE" font-family="sans-serif" font-size="14" font-weight="bold" lengthAdjust="spacingAndGlyphs" textLength="150" x="22" y="22.9951">TWRP\Article_Block</text><!--MD5=[228121f56243f9123e49edf304e541f7]
cluster TWRP\\Article_Block\\Blocks--><polygon fill="#2C2C2C" points="24,162.5,85,162.5,92,188.7969,574,188.7969,574,265.5,24,265.5,24,162.5" style="stroke: #111111; stroke-width: 1.5;"/><line style="stroke: #111111; stroke-width: 1.5;" x1="24" x2="92" y1="188.7969" y2="188.7969"/><text fill="#EEEEEE" font-family="sans-serif" font-size="14" font-weight="bold" lengthAdjust="spacingAndGlyphs" textLength="51" x="30" y="179.4951">Blocks</text><!--MD5=[c8167c532b5a71e3b7ce28f5becb9737]
cluster TWRP\\Article_Block\\Setting--><polygon fill="#2C2C2C" points="593,37,659,37,666,63.2969,1248,63.2969,1248,265.5,593,265.5,593,37" style="stroke: #111111; stroke-width: 1.5;"/><line style="stroke: #111111; stroke-width: 1.5;" x1="593" x2="666" y1="63.2969" y2="63.2969"/><text fill="#EEEEEE" font-family="sans-serif" font-size="14" font-weight="bold" lengthAdjust="spacingAndGlyphs" textLength="56" x="599" y="53.9951">Setting</text><!--MD5=[d94fd687b4bd80e1753f222fbc010c59]
class TWRP\\Article_Block\\Article_Block--><rect codeLine="46" fill="url(#guf7yae0hpxts0)" height="66.5938" id="TWRP\\Article_Block\\Article_Block" style="stroke: #111111; stroke-width: 1.5;" width="136" x="259" y="66.5"/><ellipse cx="275" cy="91.7969" fill="#A9DCDF" rx="12" ry="12" style="stroke: #111111; stroke-width: 1.0;"/><path d="M274.9219,86.2344 L273.0469,92.9531 L276.7813,92.9531 L274.9219,86.2344 Z M273.8438,84.6719 L276,84.6719 L280.0156,97.7969 L278.1719,97.7969 L277.2031,94.375 L272.6094,94.375 L271.6563,97.7969 L269.8281,97.7969 L273.8438,84.6719 Z "/><text fill="#EEEEEE" font-family="sans-serif" font-size="12" font-style="italic" lengthAdjust="spacingAndGlyphs" textLength="87" x="297.5" y="84.6387">«public class»</text><text fill="#EEEEEE" font-family="sans-serif" font-size="16" font-style="italic" lengthAdjust="spacingAndGlyphs" textLength="98" x="292" y="106.3203">Article_Block</text><line style="stroke: #111111; stroke-width: 1.5;" x1="260" x2="394" y1="117.0938" y2="117.0938"/><line style="stroke: #111111; stroke-width: 1.5;" x1="260" x2="394" y1="125.0938" y2="125.0938"/><!--MD5=[39d10e4b817cc424bec78d5c39c66bae]
class TWRP\\Article_Block\\Blocks\\Simple_Article--><rect codeLine="49" fill="url(#guf7yae0hpxts1)" height="64.2656" id="TWRP\\Article_Block\\Blocks\\Simple_Article" style="stroke: #111111; stroke-width: 1.5;" width="133" x="432.5" y="193.5"/><ellipse cx="448.5" cy="217.6328" fill="#ADD1B2" rx="12" ry="12" style="stroke: #111111; stroke-width: 1.0;"/><path d="M451.4375,223.6641 Q450.75,224.0234 450.0313,224.1953 Q449.3281,224.3828 448.5313,224.3828 Q446.0156,224.3828 444.6094,222.6016 Q443.2188,220.8203 443.2188,217.5859 Q443.2188,214.3672 444.625,212.5703 Q446.0313,210.7734 448.5313,210.7734 Q449.3281,210.7734 450.0313,210.9609 Q450.75,211.1328 451.4375,211.4922 L451.4375,213.3203 Q450.7813,212.7734 450.0313,212.4922 Q449.2813,212.2109 448.5313,212.2109 Q446.7969,212.2109 445.9375,213.5547 Q445.0781,214.8828 445.0781,217.5859 Q445.0781,220.2734 445.9375,221.6172 Q446.7969,222.9453 448.5313,222.9453 Q449.2969,222.9453 450.0469,222.6641 Q450.7969,222.3828 451.4375,221.8516 L451.4375,223.6641 Z "/><text fill="#EEEEEE" font-family="sans-serif" font-size="12" font-style="italic" lengthAdjust="spacingAndGlyphs" textLength="93" x="466.5" y="211.6387">«private class»</text><text fill="#EEEEEE" font-family="sans-serif" font-size="14" lengthAdjust="spacingAndGlyphs" textLength="95" x="465.5" y="231.4639">Simple_Article</text><line style="stroke: #111111; stroke-width: 1.5;" x1="433.5" x2="564.5" y1="241.7656" y2="241.7656"/><line style="stroke: #111111; stroke-width: 1.5;" x1="433.5" x2="564.5" y1="249.7656" y2="249.7656"/><!--MD5=[8e92ae7dff658799eec7643e4d7087a3]
class TWRP\\Article_Block\\Blocks\\Modern_Article--><rect codeLine="50" fill="url(#guf7yae0hpxts1)" height="64.2656" id="TWRP\\Article_Block\\Blocks\\Modern_Article" style="stroke: #111111; stroke-width: 1.5;" width="140" x="257" y="193.5"/><ellipse cx="273" cy="217.6328" fill="#ADD1B2" rx="12" ry="12" style="stroke: #111111; stroke-width: 1.0;"/><path d="M275.9375,223.6641 Q275.25,224.0234 274.5313,224.1953 Q273.8281,224.3828 273.0313,224.3828 Q270.5156,224.3828 269.1094,222.6016 Q267.7188,220.8203 267.7188,217.5859 Q267.7188,214.3672 269.125,212.5703 Q270.5313,210.7734 273.0313,210.7734 Q273.8281,210.7734 274.5313,210.9609 Q275.25,211.1328 275.9375,211.4922 L275.9375,213.3203 Q275.2813,212.7734 274.5313,212.4922 Q273.7813,212.2109 273.0313,212.2109 Q271.2969,212.2109 270.4375,213.5547 Q269.5781,214.8828 269.5781,217.5859 Q269.5781,220.2734 270.4375,221.6172 Q271.2969,222.9453 273.0313,222.9453 Q273.7969,222.9453 274.5469,222.6641 Q275.2969,222.3828 275.9375,221.8516 L275.9375,223.6641 Z "/><text fill="#EEEEEE" font-family="sans-serif" font-size="12" font-style="italic" lengthAdjust="spacingAndGlyphs" textLength="93" x="294.5" y="211.6387">«private class»</text><text fill="#EEEEEE" font-family="sans-serif" font-size="14" lengthAdjust="spacingAndGlyphs" textLength="102" x="290" y="231.4639">Modern_Article</text><line style="stroke: #111111; stroke-width: 1.5;" x1="258" x2="396" y1="241.7656" y2="241.7656"/><line style="stroke: #111111; stroke-width: 1.5;" x1="258" x2="396" y1="249.7656" y2="249.7656"/><!--MD5=[0bd17a0316b1ae19b01bcc8694e8a0e0]
class TWRP\\Article_Block\\Blocks\\Other_Similar_Classes--><rect codeLine="51" fill="url(#guf7yae0hpxts1)" height="64.2656" id="TWRP\\Article_Block\\Blocks\\Other_Similar_Classes" style="stroke: #111111; stroke-width: 1.5;" width="189" x="32.5" y="193.5"/><ellipse cx="48.5" cy="217.6328" fill="#ADD1B2" rx="12" ry="12" style="stroke: #111111; stroke-width: 1.0;"/><path d="M51.4375,223.6641 Q50.75,224.0234 50.0313,224.1953 Q49.3281,224.3828 48.5313,224.3828 Q46.0156,224.3828 44.6094,222.6016 Q43.2188,220.8203 43.2188,217.5859 Q43.2188,214.3672 44.625,212.5703 Q46.0313,210.7734 48.5313,210.7734 Q49.3281,210.7734 50.0313,210.9609 Q50.75,211.1328 51.4375,211.4922 L51.4375,213.3203 Q50.7813,212.7734 50.0313,212.4922 Q49.2813,212.2109 48.5313,212.2109 Q46.7969,212.2109 45.9375,213.5547 Q45.0781,214.8828 45.0781,217.5859 Q45.0781,220.2734 45.9375,221.6172 Q46.7969,222.9453 48.5313,222.9453 Q49.2969,222.9453 50.0469,222.6641 Q50.7969,222.3828 51.4375,221.8516 L51.4375,223.6641 Z "/><text fill="#EEEEEE" font-family="sans-serif" font-size="12" font-style="italic" lengthAdjust="spacingAndGlyphs" textLength="93" x="94.5" y="211.6387">«private class»</text><text fill="#EEEEEE" font-family="sans-serif" font-size="14" lengthAdjust="spacingAndGlyphs" textLength="151" x="65.5" y="231.4639">Other_Similar_Classes</text><line style="stroke: #111111; stroke-width: 1.5;" x1="33.5" x2="220.5" y1="241.7656" y2="241.7656"/><line style="stroke: #111111; stroke-width: 1.5;" x1="33.5" x2="220.5" y1="249.7656" y2="249.7656"/><!--MD5=[e97a193bfbef456308e7cfb134e1cec1]
class TWRP\\Article_Block\\Setting\\Artblock_Setting--><rect codeLine="55" fill="url(#guf7yae0hpxts1)" height="64.2656" id="TWRP\\Article_Block\\Setting\\Artblock_Setting" style="stroke: #111111; stroke-width: 1.5;" width="150" x="849" y="68"/><ellipse cx="865" cy="92.1328" fill="#ADD1B2" rx="12" ry="12" style="stroke: #111111; stroke-width: 1.0;"/><path d="M867.9375,98.1641 Q867.25,98.5234 866.5313,98.6953 Q865.8281,98.8828 865.0313,98.8828 Q862.5156,98.8828 861.1094,97.1016 Q859.7188,95.3203 859.7188,92.0859 Q859.7188,88.8672 861.125,87.0703 Q862.5313,85.2734 865.0313,85.2734 Q865.8281,85.2734 866.5313,85.4609 Q867.25,85.6328 867.9375,85.9922 L867.9375,87.8203 Q867.2813,87.2734 866.5313,86.9922 Q865.7813,86.7109 865.0313,86.7109 Q863.2969,86.7109 862.4375,88.0547 Q861.5781,89.3828 861.5781,92.0859 Q861.5781,94.7734 862.4375,96.1172 Q863.2969,97.4453 865.0313,97.4453 Q865.7969,97.4453 866.5469,97.1641 Q867.2969,96.8828 867.9375,96.3516 L867.9375,98.1641 Z "/><text fill="#EEEEEE" font-family="sans-serif" font-size="12" font-style="italic" lengthAdjust="spacingAndGlyphs" textLength="93" x="891.5" y="86.1387">«private class»</text><text fill="#EEEEEE" font-family="sans-serif" font-size="14" lengthAdjust="spacingAndGlyphs" textLength="112" x="882" y="105.9639">Artblock_Setting</text><line style="stroke: #111111; stroke-width: 1.5;" x1="850" x2="998" y1="116.2656" y2="116.2656"/><line style="stroke: #111111; stroke-width: 1.5;" x1="850" x2="998" y1="124.2656" y2="124.2656"/><!--MD5=[3c2f735b7f6ced711ae51da9165bb4c7]
class TWRP\\Article_Block\\Setting\\Display_Author_Setting--><rect codeLine="56" fill="url(#guf7yae0hpxts1)" height="64.2656" id="TWRP\\Article_Block\\Setting\\Display_Author_Setting" style="stroke: #111111; stroke-width: 1.5;" width="196" x="601" y="193.5"/><ellipse cx="617" cy="217.6328" fill="#ADD1B2" rx="12" ry="12" style="stroke: #111111; stroke-width: 1.0;"/><path d="M619.9375,223.6641 Q619.25,224.0234 618.5313,224.1953 Q617.8281,224.3828 617.0313,224.3828 Q614.5156,224.3828 613.1094,222.6016 Q611.7188,220.8203 611.7188,217.5859 Q611.7188,214.3672 613.125,212.5703 Q614.5313,210.7734 617.0313,210.7734 Q617.8281,210.7734 618.5313,210.9609 Q619.25,211.1328 619.9375,211.4922 L619.9375,213.3203 Q619.2813,212.7734 618.5313,212.4922 Q617.7813,212.2109 617.0313,212.2109 Q615.2969,212.2109 614.4375,213.5547 Q613.5781,214.8828 613.5781,217.5859 Q613.5781,220.2734 614.4375,221.6172 Q615.2969,222.9453 617.0313,222.9453 Q617.7969,222.9453 618.5469,222.6641 Q619.2969,222.3828 619.9375,221.8516 L619.9375,223.6641 Z "/><text fill="#EEEEEE" font-family="sans-serif" font-size="12" font-style="italic" lengthAdjust="spacingAndGlyphs" textLength="93" x="666.5" y="211.6387">«private class»</text><text fill="#EEEEEE" font-family="sans-serif" font-size="14" lengthAdjust="spacingAndGlyphs" textLength="158" x="634" y="231.4639">Display_Author_Setting</text><line style="stroke: #111111; stroke-width: 1.5;" x1="602" x2="796" y1="241.7656" y2="241.7656"/><line style="stroke: #111111; stroke-width: 1.5;" x1="602" x2="796" y1="249.7656" y2="249.7656"/><!--MD5=[6617e7bf7d73eb83fc84dba148dfccb9]
class TWRP\\Article_Block\\Setting\\Display_Date_Setting--><rect codeLine="57" fill="url(#guf7yae0hpxts1)" height="64.2656" id="TWRP\\Article_Block\\Setting\\Display_Date_Setting" style="stroke: #111111; stroke-width: 1.5;" width="183" x="832.5" y="193.5"/><ellipse cx="848.5" cy="217.6328" fill="#ADD1B2" rx="12" ry="12" style="stroke: #111111; stroke-width: 1.0;"/><path d="M851.4375,223.6641 Q850.75,224.0234 850.0313,224.1953 Q849.3281,224.3828 848.5313,224.3828 Q846.0156,224.3828 844.6094,222.6016 Q843.2188,220.8203 843.2188,217.5859 Q843.2188,214.3672 844.625,212.5703 Q846.0313,210.7734 848.5313,210.7734 Q849.3281,210.7734 850.0313,210.9609 Q850.75,211.1328 851.4375,211.4922 L851.4375,213.3203 Q850.7813,212.7734 850.0313,212.4922 Q849.2813,212.2109 848.5313,212.2109 Q846.7969,212.2109 845.9375,213.5547 Q845.0781,214.8828 845.0781,217.5859 Q845.0781,220.2734 845.9375,221.6172 Q846.7969,222.9453 848.5313,222.9453 Q849.2969,222.9453 850.0469,222.6641 Q850.7969,222.3828 851.4375,221.8516 L851.4375,223.6641 Z "/><text fill="#EEEEEE" font-family="sans-serif" font-size="12" font-style="italic" lengthAdjust="spacingAndGlyphs" textLength="93" x="891.5" y="211.6387">«private class»</text><text fill="#EEEEEE" font-family="sans-serif" font-size="14" lengthAdjust="spacingAndGlyphs" textLength="145" x="865.5" y="231.4639">Display_Date_Setting</text><line style="stroke: #111111; stroke-width: 1.5;" x1="833.5" x2="1014.5" y1="241.7656" y2="241.7656"/><line style="stroke: #111111; stroke-width: 1.5;" x1="833.5" x2="1014.5" y1="249.7656" y2="249.7656"/><!--MD5=[f5f8808a1430271efad24f063c9b63c7]
class TWRP\\Article_Block\\Setting\\Other_Similar_Classes--><rect codeLine="58" fill="url(#guf7yae0hpxts1)" height="64.2656" id="TWRP\\Article_Block\\Setting\\Other_Similar_Classes" style="stroke: #111111; stroke-width: 1.5;" width="189" x="1050.5" y="193.5"/><ellipse cx="1066.5" cy="217.6328" fill="#ADD1B2" rx="12" ry="12" style="stroke: #111111; stroke-width: 1.0;"/><path d="M1069.4375,223.6641 Q1068.75,224.0234 1068.0313,224.1953 Q1067.3281,224.3828 1066.5313,224.3828 Q1064.0156,224.3828 1062.6094,222.6016 Q1061.2188,220.8203 1061.2188,217.5859 Q1061.2188,214.3672 1062.625,212.5703 Q1064.0313,210.7734 1066.5313,210.7734 Q1067.3281,210.7734 1068.0313,210.9609 Q1068.75,211.1328 1069.4375,211.4922 L1069.4375,213.3203 Q1068.7813,212.7734 1068.0313,212.4922 Q1067.2813,212.2109 1066.5313,212.2109 Q1064.7969,212.2109 1063.9375,213.5547 Q1063.0781,214.8828 1063.0781,217.5859 Q1063.0781,220.2734 1063.9375,221.6172 Q1064.7969,222.9453 1066.5313,222.9453 Q1067.2969,222.9453 1068.0469,222.6641 Q1068.7969,222.3828 1069.4375,221.8516 L1069.4375,223.6641 Z "/><text fill="#EEEEEE" font-family="sans-serif" font-size="12" font-style="italic" lengthAdjust="spacingAndGlyphs" textLength="93" x="1112.5" y="211.6387">«private class»</text><text fill="#EEEEEE" font-family="sans-serif" font-size="14" lengthAdjust="spacingAndGlyphs" textLength="151" x="1083.5" y="231.4639">Other_Similar_Classes</text><line style="stroke: #111111; stroke-width: 1.5;" x1="1051.5" x2="1238.5" y1="241.7656" y2="241.7656"/><line style="stroke: #111111; stroke-width: 1.5;" x1="1051.5" x2="1238.5" y1="249.7656" y2="249.7656"/><!--MD5=[2217d82b3806d72bc30712f57890b447]
reverse link TWRP\\Article_Block\\Article_Block to TWRP\\Article_Block\\Blocks\\Simple_Article--><path d="M391.0343,145.1862 C399.1247,150.9812 407.2713,156.8586 415,162.5 C428.5461,172.3876 443.2045,183.305 456.4264,193.235 " fill="none" id="TWRP\\Article_Block\\Article_Block-backto-TWRP\\Article_Block\\Blocks\\Simple_Article" style="stroke: #FFFF00; stroke-width: 1.0; stroke-dasharray: 7.0,7.0;"/><polygon fill="none" points="386.8787,150.8204,374.6587,133.5093,395.0069,139.4216,386.8787,150.8204" style="stroke: #FFFF00; stroke-width: 1.0;"/><!--MD5=[31f464571bd5bc657d9a170c731f9f18]
reverse link TWRP\\Article_Block\\Article_Block to TWRP\\Article_Block\\Blocks\\Modern_Article--><path d="M327,153.8204 C327,167.1846 327,181.1004 327,193.0761 " fill="none" id="TWRP\\Article_Block\\Article_Block-backto-TWRP\\Article_Block\\Blocks\\Modern_Article" style="stroke: #FFFF00; stroke-width: 1.0; stroke-dasharray: 7.0,7.0;"/><polygon fill="none" points="320.0001,153.6317,327,133.6317,334.0001,153.6317,320.0001,153.6317" style="stroke: #FFFF00; stroke-width: 1.0;"/><!--MD5=[a63e55edb08dfec05bae8182f8b8758e]
reverse link TWRP\\Article_Block\\Article_Block to TWRP\\Article_Block\\Blocks\\Other_Similar_Classes--><path d="M256.1701,144.4457 C230.493,160.5582 202.0038,178.4351 178.3284,193.2914 " fill="none" id="TWRP\\Article_Block\\Article_Block-backto-TWRP\\Article_Block\\Blocks\\Other_Similar_Classes" style="stroke: #FFFF00; stroke-width: 1.0; stroke-dasharray: 7.0,7.0;"/><polygon fill="none" points="252.7421,138.3328,273.4037,133.6317,260.1834,150.1915,252.7421,138.3328" style="stroke: #FFFF00; stroke-width: 1.0;"/><!--MD5=[2d9c1ebfcca13572cb653527371d413e]
reverse link TWRP\\Article_Block\\Setting\\Artblock_Setting to TWRP\\Article_Block\\Setting\\Display_Author_Setting--><path d="M848.7018,141.9997 C818.6194,158.779 784.5379,177.7889 756.501,193.4272 " fill="none" id="TWRP\\Article_Block\\Setting\\Artblock_Setting-backto-TWRP\\Article_Block\\Setting\\Display_Author_Setting" style="stroke: #FFFF00; stroke-width: 1.0; stroke-dasharray: 7.0,7.0;"/><polygon fill="none" points="845.4725,135.7856,866.3491,132.1564,852.2923,148.0123,845.4725,135.7856" style="stroke: #FFFF00; stroke-width: 1.0;"/><!--MD5=[5abb43009f92d8208ad9a766b0553a04]
reverse link TWRP\\Article_Block\\Setting\\Artblock_Setting to TWRP\\Article_Block\\Setting\\Display_Date_Setting--><path d="M924,152.4577 C924,166.3144 924,180.8596 924,193.2902 " fill="none" id="TWRP\\Article_Block\\Setting\\Artblock_Setting-backto-TWRP\\Article_Block\\Setting\\Display_Date_Setting" style="stroke: #FFFF00; stroke-width: 1.0; stroke-dasharray: 7.0,7.0;"/><polygon fill="none" points="917.0001,152.3194,924,132.3194,931.0001,152.3193,917.0001,152.3194" style="stroke: #FFFF00; stroke-width: 1.0;"/><!--MD5=[ad5e7ea94928f750415ce493f528f7bb]
reverse link TWRP\\Article_Block\\Setting\\Artblock_Setting to TWRP\\Article_Block\\Setting\\Other_Similar_Classes--><path d="M998.376,142.2362 C1027.8214,158.9574 1061.1121,177.8623 1088.5212,193.4272 " fill="none" id="TWRP\\Article_Block\\Setting\\Artblock_Setting-backto-TWRP\\Article_Block\\Setting\\Other_Similar_Classes" style="stroke: #FFFF00; stroke-width: 1.0; stroke-dasharray: 7.0,7.0;"/><polygon fill="none" points="994.5608,148.1196,980.626,132.1564,1001.4741,135.9456,994.5608,148.1196" style="stroke: #FFFF00; stroke-width: 1.0;"/><!--MD5=[7900853bc5c9349c02755890c2aa7696]
@startuml
set namespaceSeparator \\

    skinparam {
        padding 2
        backgroundColor #222
        shadowing false

        classFontColor #eee
        classStereotypeFontColor #eee
        classBorderColor #111
        classFontSize 14
        ClassAttributeFontColor #eee
        ClassAttributeFontSize 13
        ClassAttributeIconSize 15

        PackageBackgroundColor #2c2c2c
        PackageBorderColor #111
        PackageFontColor #eee

        ArrowColor yellow
    }

    skinparam circled {
        CharacterFontColor black
        CharacterFontSize 18
        CharacterFontStyle plain
        CharacterRadius 12
    }


    skinparam <<public class>> {
        classBackgroundColor #004b00/#003b00
        classFontSize 16
    }

    skinparam <<private class>> {
        classBackgroundColor #5d0000/#4d0000
    }

    skinparam <<protected class>> {
        classBackgroundColor #d16300/#c15300
    }


namespace TWRP\\Article_Block {
	abstract Article_Block <<public class>> {}

	namespace Blocks {
		class Simple_Article <<private class>> implements TWRP\\Article_Block\\Article_Block {}
		class Modern_Article <<private class>> implements TWRP\\Article_Block\\Article_Block {}
		class Other_Similar_Classes <<private class>> implements TWRP\\Article_Block\\Article_Block {}
	}

	namespace Setting {
		class Artblock_Setting <<private class>> {}
		class Display_Author_Setting <<private class>> implements Artblock_Setting {}
		class Display_Date_Setting <<private class>> implements Artblock_Setting {}
		class Other_Similar_Classes <<private class>> implements Artblock_Setting {}
	}
}
@enduml

PlantUML version 1.2020.19(Mon Oct 12 15:10:01 UTC 2020)
(GPL source distribution)
Java Runtime: OpenJDK Runtime Environment
JVM: OpenJDK 64-Bit Server VM
Default Encoding: UTF-8
Language: en
Country: null
--></g></svg>