<?xml version="1.0" encoding="UTF-8" standalone="no"?><svg xmlns="http://www.w3.org/2000/svg" xmlns:xlink="http://www.w3.org/1999/xlink" contentScriptType="application/ecmascript" contentStyleType="text/css" height="665px" preserveAspectRatio="none" style="width:1234px;height:665px;background:#222222;" version="1.1" viewBox="0 0 1234 665" width="1234px" zoomAndPan="magnify"><defs><linearGradient id="ggo8y7kilkska0" x1="0%" x2="100%" y1="0%" y2="100%"><stop offset="0%" stop-color="#004B00"/><stop offset="100%" stop-color="#003B00"/></linearGradient><linearGradient id="ggo8y7kilkska1" x1="0%" x2="100%" y1="0%" y2="100%"><stop offset="0%" stop-color="#5D0000"/><stop offset="100%" stop-color="#4D0000"/></linearGradient></defs><g><!--MD5=[d9303347a3bf3758bc6f80f9d9d2e3f1]
cluster TWRP\\Article_Block--><rect fill="#2C2C2C" height="652" style="stroke: #111111; stroke-width: 1.5;" width="1221" x="7" y="7"/><text fill="#EEEEEE" font-family="sans-serif" font-size="14" font-weight="bold" lengthAdjust="spacingAndGlyphs" textLength="150" x="542.5" y="23.9951">TWRP\Article_Block</text><!--MD5=[228121f56243f9123e49edf304e541f7]
cluster TWRP\\Article_Block\\Blocks--><rect fill="#2C2C2C" height="103" style="stroke: #111111; stroke-width: 1.5;" width="572" x="262" y="148"/><text fill="#EEEEEE" font-family="sans-serif" font-size="14" font-weight="bold" lengthAdjust="spacingAndGlyphs" textLength="51" x="522.5" y="164.9951">Blocks</text><!--MD5=[a46faa1434a7f0b99e8c5e21fadd7cfc]
cluster TWRP\\Article_Block\\Settings--><rect fill="#2C2C2C" height="248" style="stroke: #111111; stroke-width: 1.5;" width="642" x="15" y="272"/><text fill="#EEEEEE" font-family="sans-serif" font-size="14" font-weight="bold" lengthAdjust="spacingAndGlyphs" textLength="65" x="303.5" y="288.9951">Settings</text><!--MD5=[608a6a4f87e79233e82a3e614db7cad5]
cluster TWRP\\Article_Block\\Component--><rect fill="#2C2C2C" height="372" style="stroke: #111111; stroke-width: 1.5;" width="555" x="665" y="279"/><text fill="#EEEEEE" font-family="sans-serif" font-size="14" font-weight="bold" lengthAdjust="spacingAndGlyphs" textLength="91" x="897" y="295.9951">Component</text><!--MD5=[d94fd687b4bd80e1753f222fbc010c59]
class TWRP\\Article_Block\\Article_Block--><rect codeLine="41" fill="url(#ggo8y7kilkska0)" height="80.5625" id="TWRP\\Article_Block\\Article_Block" style="stroke: #755800; stroke-width: 1.5;" width="133" x="491.5" y="38"/><ellipse cx="505.5" cy="70.2813" fill="#A9DCDF" rx="10" ry="10" style="stroke: #755800; stroke-width: 1.0;"/><path d="M505.3125,65.5 L503.6563,71.4688 L506.9844,71.4688 L505.3125,65.5 Z M504.3594,64.1094 L506.2813,64.1094 L509.8438,75.7813 L508.2188,75.7813 L507.3594,72.7344 L503.2656,72.7344 L502.4219,75.7813 L500.7969,75.7813 L504.3594,64.1094 Z "/><text fill="#EEEEEE" font-family="sans-serif" font-size="12" font-style="italic" lengthAdjust="spacingAndGlyphs" textLength="87" x="526.5" y="56.1387">«public class»</text><text fill="#EEEEEE" font-family="sans-serif" font-size="12" font-style="italic" lengthAdjust="spacingAndGlyphs" textLength="103" x="518.5" y="70.1074">«abstract class»</text><text fill="#EEEEEE" font-family="sans-serif" font-size="16" font-style="italic" lengthAdjust="spacingAndGlyphs" textLength="98" x="521" y="91.7891">Article_Block</text><line style="stroke: #755800; stroke-width: 1.5;" x1="492.5" x2="623.5" y1="102.5625" y2="102.5625"/><line style="stroke: #755800; stroke-width: 1.5;" x1="492.5" x2="623.5" y1="110.5625" y2="110.5625"/><!--MD5=[39d10e4b817cc424bec78d5c39c66bae]
class TWRP\\Article_Block\\Blocks\\Simple_Article--><rect codeLine="44" fill="url(#ggo8y7kilkska1)" height="64.2656" id="TWRP\\Article_Block\\Blocks\\Simple_Article" style="stroke: #111111; stroke-width: 1.5;" width="129" x="661.5" y="179"/><ellipse cx="675.5" cy="203.1328" fill="#ADD1B2" rx="10" ry="10" style="stroke: #111111; stroke-width: 1.0;"/><path d="M677.8906,208.7109 Q677.2813,209.0391 676.6406,209.1953 Q676.0156,209.3672 675.3125,209.3672 Q673.0625,209.3672 671.8281,207.7734 Q670.5938,206.1797 670.5938,203.3047 Q670.5938,200.4453 671.8281,198.8516 Q673.0781,197.2578 675.3125,197.2578 Q676.0156,197.2578 676.6406,197.4141 Q677.2813,197.5703 677.8906,197.8984 L677.8906,199.5078 Q677.3125,199.0391 676.6406,198.7891 Q675.9844,198.5391 675.3125,198.5391 Q673.7656,198.5391 673,199.7266 Q672.2344,200.9141 672.2344,203.3047 Q672.2344,205.6953 673,206.8828 Q673.7656,208.0703 675.3125,208.0703 Q676,208.0703 676.6563,207.8203 Q677.3125,207.5703 677.8906,207.1016 L677.8906,208.7109 Z "/><text fill="#EEEEEE" font-family="sans-serif" font-size="12" font-style="italic" lengthAdjust="spacingAndGlyphs" textLength="93" x="691.5" y="197.1387">«private class»</text><text fill="#EEEEEE" font-family="sans-serif" font-size="14" lengthAdjust="spacingAndGlyphs" textLength="95" x="690.5" y="216.9639">Simple_Article</text><line style="stroke: #111111; stroke-width: 1.5;" x1="662.5" x2="789.5" y1="227.2656" y2="227.2656"/><line style="stroke: #111111; stroke-width: 1.5;" x1="662.5" x2="789.5" y1="235.2656" y2="235.2656"/><!--MD5=[8e92ae7dff658799eec7643e4d7087a3]
class TWRP\\Article_Block\\Blocks\\Modern_Article--><rect codeLine="45" fill="url(#ggo8y7kilkska1)" height="64.2656" id="TWRP\\Article_Block\\Blocks\\Modern_Article" style="stroke: #111111; stroke-width: 1.5;" width="136" x="490" y="179"/><ellipse cx="504" cy="203.1328" fill="#ADD1B2" rx="10" ry="10" style="stroke: #111111; stroke-width: 1.0;"/><path d="M506.3906,208.7109 Q505.7813,209.0391 505.1406,209.1953 Q504.5156,209.3672 503.8125,209.3672 Q501.5625,209.3672 500.3281,207.7734 Q499.0938,206.1797 499.0938,203.3047 Q499.0938,200.4453 500.3281,198.8516 Q501.5781,197.2578 503.8125,197.2578 Q504.5156,197.2578 505.1406,197.4141 Q505.7813,197.5703 506.3906,197.8984 L506.3906,199.5078 Q505.8125,199.0391 505.1406,198.7891 Q504.4844,198.5391 503.8125,198.5391 Q502.2656,198.5391 501.5,199.7266 Q500.7344,200.9141 500.7344,203.3047 Q500.7344,205.6953 501.5,206.8828 Q502.2656,208.0703 503.8125,208.0703 Q504.5,208.0703 505.1563,207.8203 Q505.8125,207.5703 506.3906,207.1016 L506.3906,208.7109 Z "/><text fill="#EEEEEE" font-family="sans-serif" font-size="12" font-style="italic" lengthAdjust="spacingAndGlyphs" textLength="93" x="523.5" y="197.1387">«private class»</text><text fill="#EEEEEE" font-family="sans-serif" font-size="14" lengthAdjust="spacingAndGlyphs" textLength="102" x="519" y="216.9639">Modern_Article</text><line style="stroke: #111111; stroke-width: 1.5;" x1="491" x2="625" y1="227.2656" y2="227.2656"/><line style="stroke: #111111; stroke-width: 1.5;" x1="491" x2="625" y1="235.2656" y2="235.2656"/><!--MD5=[0bd17a0316b1ae19b01bcc8694e8a0e0]
class TWRP\\Article_Block\\Blocks\\Other_Similar_Classes--><rect codeLine="46" fill="url(#ggo8y7kilkska1)" height="64.2656" id="TWRP\\Article_Block\\Blocks\\Other_Similar_Classes" style="stroke: #111111; stroke-width: 1.5;" width="185" x="269.5" y="179"/><ellipse cx="283.5" cy="203.1328" fill="#ADD1B2" rx="10" ry="10" style="stroke: #111111; stroke-width: 1.0;"/><path d="M285.8906,208.7109 Q285.2813,209.0391 284.6406,209.1953 Q284.0156,209.3672 283.3125,209.3672 Q281.0625,209.3672 279.8281,207.7734 Q278.5938,206.1797 278.5938,203.3047 Q278.5938,200.4453 279.8281,198.8516 Q281.0781,197.2578 283.3125,197.2578 Q284.0156,197.2578 284.6406,197.4141 Q285.2813,197.5703 285.8906,197.8984 L285.8906,199.5078 Q285.3125,199.0391 284.6406,198.7891 Q283.9844,198.5391 283.3125,198.5391 Q281.7656,198.5391 281,199.7266 Q280.2344,200.9141 280.2344,203.3047 Q280.2344,205.6953 281,206.8828 Q281.7656,208.0703 283.3125,208.0703 Q284,208.0703 284.6563,207.8203 Q285.3125,207.5703 285.8906,207.1016 L285.8906,208.7109 Z "/><text fill="#EEEEEE" font-family="sans-serif" font-size="12" font-style="italic" lengthAdjust="spacingAndGlyphs" textLength="93" x="327.5" y="197.1387">«private class»</text><text fill="#EEEEEE" font-family="sans-serif" font-size="14" lengthAdjust="spacingAndGlyphs" textLength="151" x="298.5" y="216.9639">Other_Similar_Classes</text><line style="stroke: #111111; stroke-width: 1.5;" x1="270.5" x2="453.5" y1="227.2656" y2="227.2656"/><line style="stroke: #111111; stroke-width: 1.5;" x1="270.5" x2="453.5" y1="235.2656" y2="235.2656"/><!--MD5=[1449fef7dce2630ed25976b53dddf172]
class TWRP\\Article_Block\\Settings\\Artblock_Setting--><rect codeLine="50" fill="url(#ggo8y7kilkska1)" height="78.2344" id="TWRP\\Article_Block\\Settings\\Artblock_Setting" style="stroke: #755800; stroke-width: 1.5;" width="146" x="224" y="303"/><ellipse cx="238" cy="334.1172" fill="#ADD1B2" rx="10" ry="10" style="stroke: #755800; stroke-width: 1.0;"/><path d="M240.3906,339.6953 Q239.7813,340.0234 239.1406,340.1797 Q238.5156,340.3516 237.8125,340.3516 Q235.5625,340.3516 234.3281,338.7578 Q233.0938,337.1641 233.0938,334.2891 Q233.0938,331.4297 234.3281,329.8359 Q235.5781,328.2422 237.8125,328.2422 Q238.5156,328.2422 239.1406,328.3984 Q239.7813,328.5547 240.3906,328.8828 L240.3906,330.4922 Q239.8125,330.0234 239.1406,329.7734 Q238.4844,329.5234 237.8125,329.5234 Q236.2656,329.5234 235.5,330.7109 Q234.7344,331.8984 234.7344,334.2891 Q234.7344,336.6797 235.5,337.8672 Q236.2656,339.0547 237.8125,339.0547 Q238.5,339.0547 239.1563,338.8047 Q239.8125,338.5547 240.3906,338.0859 L240.3906,339.6953 Z "/><text fill="#EEEEEE" font-family="sans-serif" font-size="12" font-style="italic" lengthAdjust="spacingAndGlyphs" textLength="93" x="262.5" y="321.1387">«private class»</text><text fill="#EEEEEE" font-family="sans-serif" font-size="12" font-style="italic" lengthAdjust="spacingAndGlyphs" textLength="103" x="257.5" y="335.1074">«abstract class»</text><text fill="#EEEEEE" font-family="sans-serif" font-size="14" lengthAdjust="spacingAndGlyphs" textLength="112" x="253" y="354.9326">Artblock_Setting</text><line style="stroke: #755800; stroke-width: 1.5;" x1="225" x2="369" y1="365.2344" y2="365.2344"/><line style="stroke: #755800; stroke-width: 1.5;" x1="225" x2="369" y1="373.2344" y2="373.2344"/><!--MD5=[a2357f61b7c278c1330a1289eb679966]
class TWRP\\Article_Block\\Settings\\Display_Author_Setting--><rect codeLine="51" fill="url(#ggo8y7kilkska1)" height="64.2656" id="TWRP\\Article_Block\\Settings\\Display_Author_Setting" style="stroke: #111111; stroke-width: 1.5;" width="192" x="23" y="448"/><ellipse cx="37" cy="472.1328" fill="#ADD1B2" rx="10" ry="10" style="stroke: #111111; stroke-width: 1.0;"/><path d="M39.3906,477.7109 Q38.7813,478.0391 38.1406,478.1953 Q37.5156,478.3672 36.8125,478.3672 Q34.5625,478.3672 33.3281,476.7734 Q32.0938,475.1797 32.0938,472.3047 Q32.0938,469.4453 33.3281,467.8516 Q34.5781,466.2578 36.8125,466.2578 Q37.5156,466.2578 38.1406,466.4141 Q38.7813,466.5703 39.3906,466.8984 L39.3906,468.5078 Q38.8125,468.0391 38.1406,467.7891 Q37.4844,467.5391 36.8125,467.5391 Q35.2656,467.5391 34.5,468.7266 Q33.7344,469.9141 33.7344,472.3047 Q33.7344,474.6953 34.5,475.8828 Q35.2656,477.0703 36.8125,477.0703 Q37.5,477.0703 38.1563,476.8203 Q38.8125,476.5703 39.3906,476.1016 L39.3906,477.7109 Z "/><text fill="#EEEEEE" font-family="sans-serif" font-size="12" font-style="italic" lengthAdjust="spacingAndGlyphs" textLength="93" x="84.5" y="466.1387">«private class»</text><text fill="#EEEEEE" font-family="sans-serif" font-size="14" lengthAdjust="spacingAndGlyphs" textLength="158" x="52" y="485.9639">Display_Author_Setting</text><line style="stroke: #111111; stroke-width: 1.5;" x1="24" x2="214" y1="496.2656" y2="496.2656"/><line style="stroke: #111111; stroke-width: 1.5;" x1="24" x2="214" y1="504.2656" y2="504.2656"/><!--MD5=[1955f043063f84c728277ca9a403c924]
class TWRP\\Article_Block\\Settings\\Display_Date_Setting--><rect codeLine="52" fill="url(#ggo8y7kilkska1)" height="64.2656" id="TWRP\\Article_Block\\Settings\\Display_Date_Setting" style="stroke: #111111; stroke-width: 1.5;" width="179" x="250.5" y="448"/><ellipse cx="264.5" cy="472.1328" fill="#ADD1B2" rx="10" ry="10" style="stroke: #111111; stroke-width: 1.0;"/><path d="M266.8906,477.7109 Q266.2813,478.0391 265.6406,478.1953 Q265.0156,478.3672 264.3125,478.3672 Q262.0625,478.3672 260.8281,476.7734 Q259.5938,475.1797 259.5938,472.3047 Q259.5938,469.4453 260.8281,467.8516 Q262.0781,466.2578 264.3125,466.2578 Q265.0156,466.2578 265.6406,466.4141 Q266.2813,466.5703 266.8906,466.8984 L266.8906,468.5078 Q266.3125,468.0391 265.6406,467.7891 Q264.9844,467.5391 264.3125,467.5391 Q262.7656,467.5391 262,468.7266 Q261.2344,469.9141 261.2344,472.3047 Q261.2344,474.6953 262,475.8828 Q262.7656,477.0703 264.3125,477.0703 Q265,477.0703 265.6563,476.8203 Q266.3125,476.5703 266.8906,476.1016 L266.8906,477.7109 Z "/><text fill="#EEEEEE" font-family="sans-serif" font-size="12" font-style="italic" lengthAdjust="spacingAndGlyphs" textLength="93" x="305.5" y="466.1387">«private class»</text><text fill="#EEEEEE" font-family="sans-serif" font-size="14" lengthAdjust="spacingAndGlyphs" textLength="145" x="279.5" y="485.9639">Display_Date_Setting</text><line style="stroke: #111111; stroke-width: 1.5;" x1="251.5" x2="428.5" y1="496.2656" y2="496.2656"/><line style="stroke: #111111; stroke-width: 1.5;" x1="251.5" x2="428.5" y1="504.2656" y2="504.2656"/><!--MD5=[d972631e348991cfeb0779de7047aa1b]
class TWRP\\Article_Block\\Settings\\Other_Similar_Classes--><rect codeLine="53" fill="url(#ggo8y7kilkska1)" height="64.2656" id="TWRP\\Article_Block\\Settings\\Other_Similar_Classes" style="stroke: #111111; stroke-width: 1.5;" width="185" x="464.5" y="448"/><ellipse cx="478.5" cy="472.1328" fill="#ADD1B2" rx="10" ry="10" style="stroke: #111111; stroke-width: 1.0;"/><path d="M480.8906,477.7109 Q480.2813,478.0391 479.6406,478.1953 Q479.0156,478.3672 478.3125,478.3672 Q476.0625,478.3672 474.8281,476.7734 Q473.5938,475.1797 473.5938,472.3047 Q473.5938,469.4453 474.8281,467.8516 Q476.0781,466.2578 478.3125,466.2578 Q479.0156,466.2578 479.6406,466.4141 Q480.2813,466.5703 480.8906,466.8984 L480.8906,468.5078 Q480.3125,468.0391 479.6406,467.7891 Q478.9844,467.5391 478.3125,467.5391 Q476.7656,467.5391 476,468.7266 Q475.2344,469.9141 475.2344,472.3047 Q475.2344,474.6953 476,475.8828 Q476.7656,477.0703 478.3125,477.0703 Q479,477.0703 479.6563,476.8203 Q480.3125,476.5703 480.8906,476.1016 L480.8906,477.7109 Z "/><text fill="#EEEEEE" font-family="sans-serif" font-size="12" font-style="italic" lengthAdjust="spacingAndGlyphs" textLength="93" x="522.5" y="466.1387">«private class»</text><text fill="#EEEEEE" font-family="sans-serif" font-size="14" lengthAdjust="spacingAndGlyphs" textLength="151" x="493.5" y="485.9639">Other_Similar_Classes</text><line style="stroke: #111111; stroke-width: 1.5;" x1="465.5" x2="648.5" y1="496.2656" y2="496.2656"/><line style="stroke: #111111; stroke-width: 1.5;" x1="465.5" x2="648.5" y1="504.2656" y2="504.2656"/><!--MD5=[80188496250953477d96019e2a80968e]
class TWRP\\Article_Block\\Component\\Artblock_Component--><rect codeLine="57" fill="url(#ggo8y7kilkska1)" height="64.2656" id="TWRP\\Article_Block\\Component\\Artblock_Component" style="stroke: #111111; stroke-width: 1.5;" width="179" x="839.5" y="310"/><ellipse cx="853.5" cy="334.1328" fill="#ADD1B2" rx="10" ry="10" style="stroke: #111111; stroke-width: 1.0;"/><path d="M855.8906,339.7109 Q855.2813,340.0391 854.6406,340.1953 Q854.0156,340.3672 853.3125,340.3672 Q851.0625,340.3672 849.8281,338.7734 Q848.5938,337.1797 848.5938,334.3047 Q848.5938,331.4453 849.8281,329.8516 Q851.0781,328.2578 853.3125,328.2578 Q854.0156,328.2578 854.6406,328.4141 Q855.2813,328.5703 855.8906,328.8984 L855.8906,330.5078 Q855.3125,330.0391 854.6406,329.7891 Q853.9844,329.5391 853.3125,329.5391 Q851.7656,329.5391 851,330.7266 Q850.2344,331.9141 850.2344,334.3047 Q850.2344,336.6953 851,337.8828 Q851.7656,339.0703 853.3125,339.0703 Q854,339.0703 854.6563,338.8203 Q855.3125,338.5703 855.8906,338.1016 L855.8906,339.7109 Z "/><text fill="#EEEEEE" font-family="sans-serif" font-size="12" font-style="italic" lengthAdjust="spacingAndGlyphs" textLength="93" x="894.5" y="328.1387">«private class»</text><text fill="#EEEEEE" font-family="sans-serif" font-size="14" lengthAdjust="spacingAndGlyphs" textLength="145" x="868.5" y="347.9639">Artblock_Component</text><line style="stroke: #111111; stroke-width: 1.5;" x1="840.5" x2="1017.5" y1="358.2656" y2="358.2656"/><line style="stroke: #111111; stroke-width: 1.5;" x1="840.5" x2="1017.5" y1="366.2656" y2="366.2656"/><!--MD5=[d8f6fa7878ce8bb24cdee71dcea0e62e]
class TWRP\\Article_Block\\Component\\Component_Setting--><rect codeLine="59" fill="url(#ggo8y7kilkska1)" height="78.2344" id="TWRP\\Article_Block\\Component\\Component_Setting" style="stroke: #755800; stroke-width: 1.5;" width="172" x="843" y="441"/><ellipse cx="857" cy="472.1172" fill="#A9DCDF" rx="10" ry="10" style="stroke: #755800; stroke-width: 1.0;"/><path d="M856.8125,467.3359 L855.1563,473.3047 L858.4844,473.3047 L856.8125,467.3359 Z M855.8594,465.9453 L857.7813,465.9453 L861.3438,477.6172 L859.7188,477.6172 L858.8594,474.5703 L854.7656,474.5703 L853.9219,477.6172 L852.2969,477.6172 L855.8594,465.9453 Z "/><text fill="#EEEEEE" font-family="sans-serif" font-size="12" font-style="italic" lengthAdjust="spacingAndGlyphs" textLength="93" x="894.5" y="459.1387">«private class»</text><text fill="#EEEEEE" font-family="sans-serif" font-size="12" font-style="italic" lengthAdjust="spacingAndGlyphs" textLength="103" x="889.5" y="473.1074">«abstract class»</text><text fill="#EEEEEE" font-family="sans-serif" font-size="14" font-style="italic" lengthAdjust="spacingAndGlyphs" textLength="138" x="872" y="492.9326">Component_Setting</text><line style="stroke: #755800; stroke-width: 1.5;" x1="844" x2="1014" y1="503.2344" y2="503.2344"/><line style="stroke: #755800; stroke-width: 1.5;" x1="844" x2="1014" y1="511.2344" y2="511.2344"/><!--MD5=[dc4c407c925e0cbf4e0e40e92cc0cad5]
class TWRP\\Article_Block\\Component\\Font_Size_Setting--><rect codeLine="60" fill="url(#ggo8y7kilkska1)" height="64.2656" id="TWRP\\Article_Block\\Component\\Font_Size_Setting" style="stroke: #111111; stroke-width: 1.5;" width="157" x="673.5" y="579"/><ellipse cx="687.5" cy="603.1328" fill="#ADD1B2" rx="10" ry="10" style="stroke: #111111; stroke-width: 1.0;"/><path d="M689.8906,608.7109 Q689.2813,609.0391 688.6406,609.1953 Q688.0156,609.3672 687.3125,609.3672 Q685.0625,609.3672 683.8281,607.7734 Q682.5938,606.1797 682.5938,603.3047 Q682.5938,600.4453 683.8281,598.8516 Q685.0781,597.2578 687.3125,597.2578 Q688.0156,597.2578 688.6406,597.4141 Q689.2813,597.5703 689.8906,597.8984 L689.8906,599.5078 Q689.3125,599.0391 688.6406,598.7891 Q687.9844,598.5391 687.3125,598.5391 Q685.7656,598.5391 685,599.7266 Q684.2344,600.9141 684.2344,603.3047 Q684.2344,605.6953 685,606.8828 Q685.7656,608.0703 687.3125,608.0703 Q688,608.0703 688.6563,607.8203 Q689.3125,607.5703 689.8906,607.1016 L689.8906,608.7109 Z "/><text fill="#EEEEEE" font-family="sans-serif" font-size="12" font-style="italic" lengthAdjust="spacingAndGlyphs" textLength="93" x="717.5" y="597.1387">«private class»</text><text fill="#EEEEEE" font-family="sans-serif" font-size="14" lengthAdjust="spacingAndGlyphs" textLength="123" x="702.5" y="616.9639">Font_Size_Setting</text><line style="stroke: #111111; stroke-width: 1.5;" x1="674.5" x2="829.5" y1="627.2656" y2="627.2656"/><line style="stroke: #111111; stroke-width: 1.5;" x1="674.5" x2="829.5" y1="635.2656" y2="635.2656"/><!--MD5=[6b834a6f3ed9bb04d84dce1a1fad188e]
class TWRP\\Article_Block\\Component\\Color_Setting--><rect codeLine="61" fill="url(#ggo8y7kilkska1)" height="64.2656" id="TWRP\\Article_Block\\Component\\Color_Setting" style="stroke: #111111; stroke-width: 1.5;" width="126" x="866" y="579"/><ellipse cx="880" cy="603.1328" fill="#ADD1B2" rx="10" ry="10" style="stroke: #111111; stroke-width: 1.0;"/><path d="M882.3906,608.7109 Q881.7813,609.0391 881.1406,609.1953 Q880.5156,609.3672 879.8125,609.3672 Q877.5625,609.3672 876.3281,607.7734 Q875.0938,606.1797 875.0938,603.3047 Q875.0938,600.4453 876.3281,598.8516 Q877.5781,597.2578 879.8125,597.2578 Q880.5156,597.2578 881.1406,597.4141 Q881.7813,597.5703 882.3906,597.8984 L882.3906,599.5078 Q881.8125,599.0391 881.1406,598.7891 Q880.4844,598.5391 879.8125,598.5391 Q878.2656,598.5391 877.5,599.7266 Q876.7344,600.9141 876.7344,603.3047 Q876.7344,605.6953 877.5,606.8828 Q878.2656,608.0703 879.8125,608.0703 Q880.5,608.0703 881.1563,607.8203 Q881.8125,607.5703 882.3906,607.1016 L882.3906,608.7109 Z "/><text fill="#EEEEEE" font-family="sans-serif" font-size="12" font-style="italic" lengthAdjust="spacingAndGlyphs" textLength="93" x="894.5" y="597.1387">«private class»</text><text fill="#EEEEEE" font-family="sans-serif" font-size="14" lengthAdjust="spacingAndGlyphs" textLength="92" x="895" y="616.9639">Color_Setting</text><line style="stroke: #111111; stroke-width: 1.5;" x1="867" x2="991" y1="627.2656" y2="627.2656"/><line style="stroke: #111111; stroke-width: 1.5;" x1="867" x2="991" y1="635.2656" y2="635.2656"/><!--MD5=[c17fb80b2595cea248694ed3935ef49d]
class TWRP\\Article_Block\\Component\\Other_Similar_Classes--><rect codeLine="62" fill="url(#ggo8y7kilkska1)" height="64.2656" id="TWRP\\Article_Block\\Component\\Other_Similar_Classes" style="stroke: #111111; stroke-width: 1.5;" width="185" x="1027.5" y="579"/><ellipse cx="1041.5" cy="603.1328" fill="#ADD1B2" rx="10" ry="10" style="stroke: #111111; stroke-width: 1.0;"/><path d="M1043.8906,608.7109 Q1043.2813,609.0391 1042.6406,609.1953 Q1042.0156,609.3672 1041.3125,609.3672 Q1039.0625,609.3672 1037.8281,607.7734 Q1036.5938,606.1797 1036.5938,603.3047 Q1036.5938,600.4453 1037.8281,598.8516 Q1039.0781,597.2578 1041.3125,597.2578 Q1042.0156,597.2578 1042.6406,597.4141 Q1043.2813,597.5703 1043.8906,597.8984 L1043.8906,599.5078 Q1043.3125,599.0391 1042.6406,598.7891 Q1041.9844,598.5391 1041.3125,598.5391 Q1039.7656,598.5391 1039,599.7266 Q1038.2344,600.9141 1038.2344,603.3047 Q1038.2344,605.6953 1039,606.8828 Q1039.7656,608.0703 1041.3125,608.0703 Q1042,608.0703 1042.6563,607.8203 Q1043.3125,607.5703 1043.8906,607.1016 L1043.8906,608.7109 Z "/><text fill="#EEEEEE" font-family="sans-serif" font-size="12" font-style="italic" lengthAdjust="spacingAndGlyphs" textLength="93" x="1085.5" y="597.1387">«private class»</text><text fill="#EEEEEE" font-family="sans-serif" font-size="14" lengthAdjust="spacingAndGlyphs" textLength="151" x="1056.5" y="616.9639">Other_Similar_Classes</text><line style="stroke: #111111; stroke-width: 1.5;" x1="1028.5" x2="1211.5" y1="627.2656" y2="627.2656"/><line style="stroke: #111111; stroke-width: 1.5;" x1="1028.5" x2="1211.5" y1="635.2656" y2="635.2656"/><!--MD5=[2217d82b3806d72bc30712f57890b447]
reverse link TWRP\\Article_Block\\Article_Block to TWRP\\Article_Block\\Blocks\\Simple_Article--><path d="M625.6223,131.8331 C645.851,147.7873 667.3981,164.7812 685.3218,178.9175 " fill="none" id="TWRP\\Article_Block\\Article_Block-backto-TWRP\\Article_Block\\Blocks\\Simple_Article" style="stroke: #FFFF00; stroke-width: 1.0; stroke-dasharray: 7.0,7.0;"/><polygon fill="none" points="621.1452,137.2172,609.7764,119.3355,629.8149,126.2246,621.1452,137.2172" style="stroke: #FFFF00; stroke-width: 1.0;"/><!--MD5=[31f464571bd5bc657d9a170c731f9f18]
reverse link TWRP\\Article_Block\\Article_Block to TWRP\\Article_Block\\Blocks\\Modern_Article--><path d="M558,139.4781 C558,153.0998 558,167.0206 558,178.9175 " fill="none" id="TWRP\\Article_Block\\Article_Block-backto-TWRP\\Article_Block\\Blocks\\Modern_Article" style="stroke: #FFFF00; stroke-width: 1.0; stroke-dasharray: 7.0,7.0;"/><polygon fill="none" points="551.0001,139.3356,558,119.3355,565.0001,139.3355,551.0001,139.3356" style="stroke: #FFFF00; stroke-width: 1.0;"/><!--MD5=[a63e55edb08dfec05bae8182f8b8758e]
reverse link TWRP\\Article_Block\\Article_Block to TWRP\\Article_Block\\Blocks\\Other_Similar_Classes--><path d="M481.1115,130.4782 C456.9841,146.7888 431.0643,164.3111 409.5849,178.8316 " fill="none" id="TWRP\\Article_Block\\Article_Block-backto-TWRP\\Article_Block\\Blocks\\Other_Similar_Classes" style="stroke: #FFFF00; stroke-width: 1.0; stroke-dasharray: 7.0,7.0;"/><polygon fill="none" points="477.372,124.5567,497.8615,119.1548,485.2128,136.1551,477.372,124.5567" style="stroke: #FFFF00; stroke-width: 1.0;"/><!--MD5=[00a62877313f5041f68bde4dfc080631]
reverse link TWRP\\Article_Block\\Settings\\Artblock_Setting to TWRP\\Article_Block\\Settings\\Display_Author_Setting--><path d="M230.6084,393.4721 C207.0489,411.7374 181.2258,431.7575 160.3577,447.9361 " fill="none" id="TWRP\\Article_Block\\Settings\\Artblock_Setting-backto-TWRP\\Article_Block\\Settings\\Display_Author_Setting" style="stroke: #FFFF00; stroke-width: 1.0; stroke-dasharray: 7.0,7.0;"/><polygon fill="none" points="226.3733,387.8982,246.4685,381.1761,234.9513,398.9625,226.3733,387.8982" style="stroke: #FFFF00; stroke-width: 1.0;"/><!--MD5=[8a41fedce812bd9194da15a8ac793f55]
reverse link TWRP\\Article_Block\\Settings\\Artblock_Setting to TWRP\\Article_Block\\Settings\\Display_Date_Setting--><path d="M315.1715,400.318 C320.2273,416.5435 325.5347,433.5766 329.9388,447.7105 " fill="none" id="TWRP\\Article_Block\\Settings\\Artblock_Setting-backto-TWRP\\Article_Block\\Settings\\Display_Date_Setting" style="stroke: #FFFF00; stroke-width: 1.0; stroke-dasharray: 7.0,7.0;"/><polygon fill="none" points="308.4738,402.3531,309.2071,381.1761,321.8399,398.1882,308.4738,402.3531" style="stroke: #FFFF00; stroke-width: 1.0;"/><!--MD5=[c294f9f9bf0230da842407c54461f944]
reverse link TWRP\\Article_Block\\Settings\\Artblock_Setting to TWRP\\Article_Block\\Settings\\Other_Similar_Classes--><path d="M387.9386,390.2674 C423.9664,409.3899 464.4067,430.8543 496.6998,447.9945 " fill="none" id="TWRP\\Article_Block\\Settings\\Artblock_Setting-backto-TWRP\\Article_Block\\Settings\\Other_Similar_Classes" style="stroke: #FFFF00; stroke-width: 1.0; stroke-dasharray: 7.0,7.0;"/><polygon fill="none" points="384.5005,396.3675,370.1164,380.8079,391.064,384.0014,384.5005,396.3675" style="stroke: #FFFF00; stroke-width: 1.0;"/><!--MD5=[c5424ed68c0406d907fcdf5280213527]
reverse link TWRP\\Article_Block\\Component\\Component_Setting to TWRP\\Article_Block\\Component\\Font_Size_Setting--><path d="M859.6944,531.294 C837.9762,547.3679 814.6378,564.6409 795.2584,578.9839 " fill="none" id="TWRP\\Article_Block\\Component\\Component_Setting-backto-TWRP\\Article_Block\\Component\\Font_Size_Setting" style="stroke: #FFFF00; stroke-width: 1.0; stroke-dasharray: 7.0,7.0;"/><polygon fill="none" points="855.6538,525.5758,875.8942,519.3043,863.9825,536.829,855.6538,525.5758" style="stroke: #FFFF00; stroke-width: 1.0;"/><!--MD5=[4c864ce5c11d89567d9e5c6b15ed8347]
reverse link TWRP\\Article_Block\\Component\\Component_Setting to TWRP\\Article_Block\\Component\\Color_Setting--><path d="M929,539.33 C929,552.9071 929,566.841 929,578.7703 " fill="none" id="TWRP\\Article_Block\\Component\\Component_Setting-backto-TWRP\\Article_Block\\Component\\Color_Setting" style="stroke: #FFFF00; stroke-width: 1.0; stroke-dasharray: 7.0,7.0;"/><polygon fill="none" points="922.0001,539.3044,929,519.3043,936.0001,539.3043,922.0001,539.3044" style="stroke: #FFFF00; stroke-width: 1.0;"/><!--MD5=[4b2d55eac7288b701a82d2f65287332b]
reverse link TWRP\\Article_Block\\Component\\Component_Setting to TWRP\\Article_Block\\Component\\Other_Similar_Classes--><path d="M1002.8517,530.6522 C1026.5055,546.8755 1052.0297,564.3816 1073.1964,578.8991 " fill="none" id="TWRP\\Article_Block\\Component\\Component_Setting-backto-TWRP\\Article_Block\\Component\\Other_Similar_Classes" style="stroke: #FFFF00; stroke-width: 1.0; stroke-dasharray: 7.0,7.0;"/><polygon fill="none" points="998.5817,536.2119,986.0476,519.1269,1006.5003,524.6665,998.5817,536.2119" style="stroke: #FFFF00; stroke-width: 1.0;"/><!--MD5=[8d0de5b0b809e79ab2faccca964e0373]
link TWRP\\Article_Block\\Component\\Artblock_Component to TWRP\\Article_Block\\Component\\Component_Setting--><path codeLine="64" d="M929,374.0068 C929,392.3573 929,415.6638 929,435.7465 " fill="none" id="TWRP\\Article_Block\\Component\\Artblock_Component-to-TWRP\\Article_Block\\Component\\Component_Setting" style="stroke: #FFFF00; stroke-width: 1.0;"/><polygon fill="#FFFF00" points="929,440.7778,933,431.7778,929,435.7778,925,431.7778,929,440.7778" style="stroke: #FFFF00; stroke-width: 1.0;"/><!--MD5=[a45c4b5b963b6581de4f5bf31ff12c01]
link TWRP\\Article_Block\\Article_Block to TWRP\\Article_Block\\Settings\\Artblock_Setting--><path codeLine="67" d="M491.3622,84.2048 C411.0176,92.6249 283.1075,111.487 254,148 C219.7653,190.9447 244.7389,255.5018 268.5203,298.1832 " fill="none" id="TWRP\\Article_Block\\Article_Block-to-TWRP\\Article_Block\\Settings\\Artblock_Setting" style="stroke: #FFFF00; stroke-width: 1.0;"/><polygon fill="#FFFF00" points="271.1123,302.7595,270.1574,292.957,268.6482,298.4088,263.1964,296.8996,271.1123,302.7595" style="stroke: #FFFF00; stroke-width: 1.0;"/><!--MD5=[b4f1f4a110c84247262aa9b5877ce7b6]
link TWRP\\Article_Block\\Article_Block to TWRP\\Article_Block\\Component\\Artblock_Component--><path codeLine="68" d="M624.6457,87.919 C697.8357,99.4326 809.3381,120.7886 842,148 C890.3339,188.2682 912.8716,260.9043 922.538,304.9628 " fill="none" id="TWRP\\Article_Block\\Article_Block-to-TWRP\\Article_Block\\Component\\Artblock_Component" style="stroke: #FFFF00; stroke-width: 1.0;"/><polygon fill="#FFFF00" points="923.5991,309.926,925.6292,300.2886,922.5538,305.0365,917.8059,301.9611,923.5991,309.926" style="stroke: #FFFF00; stroke-width: 1.0;"/><!--MD5=[8d1138c7628086c37a91b87a50059d0a]
link TWRP\\Article_Block\\Blocks to TWRP\\Article_Block\\Settings--><!--MD5=[31da58b265617c5112539aa1ce9fa6ce]
link TWRP\\Article_Block\\Blocks to TWRP\\Article_Block\\Component--><!--MD5=[8cf393c3e1f16f3a1d8bf53915196914]
@startuml
set namespaceSeparator \\

    skinparam {
        padding 2
        backgroundColor #222
        shadowing false

        classFontColor #eee
        classStereotypeFontColor #eee
        classBorderColor #111
        classFontSize 14
        ClassAttributeFontColor #eee
        ClassAttributeFontSize 13
        ClassAttributeIconSize 15

        PackageBackgroundColor #2c2c2c
        PackageBorderColor #111
        PackageFontColor #eee

        ArrowColor yellow

        circledCharacterFontColor black
        circledCharacterFontSize 16
        circledCharacterFontStyle plain
        circledCharacterRadius 10

        packageStyle rectangle

        <<public class>>classBackgroundColor #004b00/#003b00
        <<public class>>classFontSize 16

        <<private class>>classBackgroundColor #5d0000/#4d0000

        <<protected class>>classBackgroundColor #d16300/#c15300

        <<abstract class>>classBorderColor #755800
    }


namespace TWRP\\Article_Block {
	abstract Article_Block <<public class>> <<abstract class>> {}

	namespace Blocks {
		class Simple_Article <<private class>> implements TWRP\\Article_Block\\Article_Block {}
		class Modern_Article <<private class>> implements TWRP\\Article_Block\\Article_Block {}
		class Other_Similar_Classes <<private class>> implements TWRP\\Article_Block\\Article_Block {}
	}

	namespace Settings {
		class Artblock_Setting <<private class>> <<abstract class>> {}
		class Display_Author_Setting <<private class>> implements Artblock_Setting {}
		class Display_Date_Setting <<private class>> implements Artblock_Setting {}
		class Other_Similar_Classes <<private class>> implements Artblock_Setting {}
	}

	namespace Component {
		class Artblock_Component <<private class>> {}

		abstract Component_Setting <<private class>> <<abstract class>> {}
		class Font_Size_Setting <<private class>> implements Component_Setting{}
		class Color_Setting <<private class>> implements Component_Setting{}
		class Other_Similar_Classes <<private class>> implements Component_Setting{}

		Artblock_Component - -> Component_Setting
	}

	Article_Block - -> TWRP\\Article_Block\\Settings\\Artblock_Setting
	Article_Block - -> TWRP\\Article_Block\\Component\\Artblock_Component

	'alignment pupose:
	TWRP\\Article_Block\\Blocks -[hidden]-> TWRP\\Article_Block\\Settings
	TWRP\\Article_Block\\Blocks -[hidden]-> TWRP\\Article_Block\\Component
}
@enduml

@startuml
set namespaceSeparator \\

    skinparam {
        padding 2
        backgroundColor #222
        shadowing false

        classFontColor #eee
        classStereotypeFontColor #eee
        classBorderColor #111
        classFontSize 14
        ClassAttributeFontColor #eee
        ClassAttributeFontSize 13
        ClassAttributeIconSize 15

        PackageBackgroundColor #2c2c2c
        PackageBorderColor #111
        PackageFontColor #eee

        ArrowColor yellow

        circledCharacterFontColor black
        circledCharacterFontSize 16
        circledCharacterFontStyle plain
        circledCharacterRadius 10

        packageStyle rectangle

        <<public class>>classBackgroundColor #004b00/#003b00
        <<public class>>classFontSize 16

        <<private class>>classBackgroundColor #5d0000/#4d0000

        <<protected class>>classBackgroundColor #d16300/#c15300

        <<abstract class>>classBorderColor #755800
    }


namespace TWRP\\Article_Block {
	abstract Article_Block <<public class>> <<abstract class>> {}

	namespace Blocks {
		class Simple_Article <<private class>> implements TWRP\\Article_Block\\Article_Block {}
		class Modern_Article <<private class>> implements TWRP\\Article_Block\\Article_Block {}
		class Other_Similar_Classes <<private class>> implements TWRP\\Article_Block\\Article_Block {}
	}

	namespace Settings {
		class Artblock_Setting <<private class>> <<abstract class>> {}
		class Display_Author_Setting <<private class>> implements Artblock_Setting {}
		class Display_Date_Setting <<private class>> implements Artblock_Setting {}
		class Other_Similar_Classes <<private class>> implements Artblock_Setting {}
	}

	namespace Component {
		class Artblock_Component <<private class>> {}

		abstract Component_Setting <<private class>> <<abstract class>> {}
		class Font_Size_Setting <<private class>> implements Component_Setting{}
		class Color_Setting <<private class>> implements Component_Setting{}
		class Other_Similar_Classes <<private class>> implements Component_Setting{}

		Artblock_Component - -> Component_Setting
	}

	Article_Block - -> TWRP\\Article_Block\\Settings\\Artblock_Setting
	Article_Block - -> TWRP\\Article_Block\\Component\\Artblock_Component

	TWRP\\Article_Block\\Blocks -[hidden]-> TWRP\\Article_Block\\Settings
	TWRP\\Article_Block\\Blocks -[hidden]-> TWRP\\Article_Block\\Component
}
@enduml

PlantUML version 1.2020.19(Mon Oct 12 15:10:01 UTC 2020)
(GPL source distribution)
Java Runtime: OpenJDK Runtime Environment
JVM: OpenJDK 64-Bit Server VM
Default Encoding: UTF-8
Language: en
Country: null
--></g></svg>