<?xml version="1.0" encoding="UTF-8" standalone="no"?><svg xmlns="http://www.w3.org/2000/svg" xmlns:xlink="http://www.w3.org/1999/xlink" contentScriptType="application/ecmascript" contentStyleType="text/css" height="116px" preserveAspectRatio="none" style="width:342px;height:116px;background:#222222;" version="1.1" viewBox="0 0 342 116" width="342px" zoomAndPan="magnify"><defs><linearGradient id="g1ehu79i4jy1k50" x1="0%" x2="100%" y1="0%" y2="100%"><stop offset="0%" stop-color="#5D0000"/><stop offset="100%" stop-color="#4D0000"/></linearGradient></defs><g><!--MD5=[e8ec1e4442ec1031720e9f70ad1b8736]
cluster TWRP\\CSS--><polygon fill="#2C2C2C" points="16,6,107,6,114,32.2969,325,32.2969,325,109,16,109,16,6" style="stroke: #111111; stroke-width: 1.5;"/><line style="stroke: #111111; stroke-width: 1.5;" x1="16" x2="114" y1="32.2969" y2="32.2969"/><text fill="#EEEEEE" font-family="sans-serif" font-size="14" font-weight="bold" lengthAdjust="spacingAndGlyphs" textLength="81" x="22" y="22.9951">TWRP\CSS</text><!--MD5=[6890d8cd9120dfa6c7220646e81c2374]
class TWRP\\CSS\\Generate_CSS--><rect codeLine="39" fill="url(#g1ehu79i4jy1k50)" height="64.2656" id="TWRP\\CSS\\Generate_CSS" style="stroke: #111111; stroke-width: 1.5;" width="134" x="183" y="37"/><ellipse cx="197" cy="61.1328" fill="#ADD1B2" rx="10" ry="10" style="stroke: #111111; stroke-width: 1.0;"/><path d="M199.3906,66.7109 Q198.7813,67.0391 198.1406,67.1953 Q197.5156,67.3672 196.8125,67.3672 Q194.5625,67.3672 193.3281,65.7734 Q192.0938,64.1797 192.0938,61.3047 Q192.0938,58.4453 193.3281,56.8516 Q194.5781,55.2578 196.8125,55.2578 Q197.5156,55.2578 198.1406,55.4141 Q198.7813,55.5703 199.3906,55.8984 L199.3906,57.5078 Q198.8125,57.0391 198.1406,56.7891 Q197.4844,56.5391 196.8125,56.5391 Q195.2656,56.5391 194.5,57.7266 Q193.7344,58.9141 193.7344,61.3047 Q193.7344,63.6953 194.5,64.8828 Q195.2656,66.0703 196.8125,66.0703 Q197.5,66.0703 198.1563,65.8203 Q198.8125,65.5703 199.3906,65.1016 L199.3906,66.7109 Z "/><text fill="#EEEEEE" font-family="sans-serif" font-size="12" font-style="italic" lengthAdjust="spacingAndGlyphs" textLength="93" x="215.5" y="55.1387">«private class»</text><text fill="#EEEEEE" font-family="sans-serif" font-size="14" lengthAdjust="spacingAndGlyphs" textLength="100" x="212" y="74.9639">Generate_CSS</text><line style="stroke: #111111; stroke-width: 1.5;" x1="184" x2="316" y1="85.2656" y2="85.2656"/><line style="stroke: #111111; stroke-width: 1.5;" x1="184" x2="316" y1="93.2656" y2="93.2656"/><!--MD5=[99977f9f32a90d95c90a77d0a0c6fdc9]
class TWRP\\CSS\\Icons_CSS--><rect codeLine="40" fill="url(#g1ehu79i4jy1k50)" height="64.2656" id="TWRP\\CSS\\Icons_CSS" style="stroke: #111111; stroke-width: 1.5;" width="123" x="24.5" y="37"/><ellipse cx="38.5" cy="61.1328" fill="#ADD1B2" rx="10" ry="10" style="stroke: #111111; stroke-width: 1.0;"/><path d="M40.8906,66.7109 Q40.2813,67.0391 39.6406,67.1953 Q39.0156,67.3672 38.3125,67.3672 Q36.0625,67.3672 34.8281,65.7734 Q33.5938,64.1797 33.5938,61.3047 Q33.5938,58.4453 34.8281,56.8516 Q36.0781,55.2578 38.3125,55.2578 Q39.0156,55.2578 39.6406,55.4141 Q40.2813,55.5703 40.8906,55.8984 L40.8906,57.5078 Q40.3125,57.0391 39.6406,56.7891 Q38.9844,56.5391 38.3125,56.5391 Q36.7656,56.5391 36,57.7266 Q35.2344,58.9141 35.2344,61.3047 Q35.2344,63.6953 36,64.8828 Q36.7656,66.0703 38.3125,66.0703 Q39,66.0703 39.6563,65.8203 Q40.3125,65.5703 40.8906,65.1016 L40.8906,66.7109 Z "/><text fill="#EEEEEE" font-family="sans-serif" font-size="12" font-style="italic" lengthAdjust="spacingAndGlyphs" textLength="93" x="51.5" y="55.1387">«private class»</text><text fill="#EEEEEE" font-family="sans-serif" font-size="14" lengthAdjust="spacingAndGlyphs" textLength="72" x="62" y="74.9639">Icons_CSS</text><line style="stroke: #111111; stroke-width: 1.5;" x1="25.5" x2="146.5" y1="85.2656" y2="85.2656"/><line style="stroke: #111111; stroke-width: 1.5;" x1="25.5" x2="146.5" y1="93.2656" y2="93.2656"/><!--MD5=[9d757582daac0015ad976c77c4b5cbd0]
@startuml
set namespaceSeparator \\

    skinparam {
        padding 2
        backgroundColor #222
        shadowing false

        classFontColor #eee
        classStereotypeFontColor #eee
        classBorderColor #111
        classFontSize 14
        ClassAttributeFontColor #eee
        ClassAttributeFontSize 13
        ClassAttributeIconSize 15

        PackageBackgroundColor #2c2c2c
        PackageBorderColor #111
        PackageFontColor #eee

        ArrowColor yellow

        circledCharacterFontColor black
        circledCharacterFontSize 16
        circledCharacterFontStyle plain
        circledCharacterRadius 10

        <<public class>>classBackgroundColor #004b00/#003b00
        <<public class>>classFontSize 16

        <<private class>>classBackgroundColor #5d0000/#4d0000

        <<protected class>>classBackgroundColor #d16300/#c15300

        <<abstract class>>classBorderColor #755800
    }


namespace TWRP\\CSS {
	class Generate_CSS <<private class>> {}
	class Icons_CSS <<private class>> {}
}
@enduml

PlantUML version 1.2020.19(Mon Oct 12 15:10:01 UTC 2020)
(GPL source distribution)
Java Runtime: OpenJDK Runtime Environment
JVM: OpenJDK 64-Bit Server VM
Default Encoding: UTF-8
Language: en
Country: null
--></g></svg>