<?xml version="1.0" encoding="UTF-8" standalone="no"?><svg xmlns="http://www.w3.org/2000/svg" xmlns:xlink="http://www.w3.org/1999/xlink" contentScriptType="application/ecmascript" contentStyleType="text/css" height="116px" preserveAspectRatio="none" style="width:350px;height:116px;background:#222222;" version="1.1" viewBox="0 0 350 116" width="350px" zoomAndPan="magnify"><defs><linearGradient id="g1cyosieltvy9m0" x1="0%" x2="100%" y1="0%" y2="100%"><stop offset="0%" stop-color="#5D0000"/><stop offset="100%" stop-color="#4D0000"/></linearGradient></defs><g><!--MD5=[e8ec1e4442ec1031720e9f70ad1b8736]
cluster TWRP\\CSS--><polygon fill="#2C2C2C" points="16,6,107,6,114,32.2969,333,32.2969,333,109,16,109,16,6" style="stroke: #111111; stroke-width: 1.5;"/><line style="stroke: #111111; stroke-width: 1.5;" x1="16" x2="114" y1="32.2969" y2="32.2969"/><text fill="#EEEEEE" font-family="sans-serif" font-size="14" font-weight="bold" lengthAdjust="spacingAndGlyphs" textLength="81" x="22" y="22.9951">TWRP\CSS</text><!--MD5=[6890d8cd9120dfa6c7220646e81c2374]
class TWRP\\CSS\\Generate_CSS--><rect codeLine="46" fill="url(#g1cyosieltvy9m0)" height="64.2656" id="TWRP\\CSS\\Generate_CSS" style="stroke: #111111; stroke-width: 1.5;" width="138" x="187" y="37"/><ellipse cx="203" cy="61.1328" fill="#ADD1B2" rx="12" ry="12" style="stroke: #111111; stroke-width: 1.0;"/><path d="M205.9375,67.1641 Q205.25,67.5234 204.5313,67.6953 Q203.8281,67.8828 203.0313,67.8828 Q200.5156,67.8828 199.1094,66.1016 Q197.7188,64.3203 197.7188,61.0859 Q197.7188,57.8672 199.125,56.0703 Q200.5313,54.2734 203.0313,54.2734 Q203.8281,54.2734 204.5313,54.4609 Q205.25,54.6328 205.9375,54.9922 L205.9375,56.8203 Q205.2813,56.2734 204.5313,55.9922 Q203.7813,55.7109 203.0313,55.7109 Q201.2969,55.7109 200.4375,57.0547 Q199.5781,58.3828 199.5781,61.0859 Q199.5781,63.7734 200.4375,65.1172 Q201.2969,66.4453 203.0313,66.4453 Q203.7969,66.4453 204.5469,66.1641 Q205.2969,65.8828 205.9375,65.3516 L205.9375,67.1641 Z "/><text fill="#EEEEEE" font-family="sans-serif" font-size="12" font-style="italic" lengthAdjust="spacingAndGlyphs" textLength="93" x="223.5" y="55.1387">«private class»</text><text fill="#EEEEEE" font-family="sans-serif" font-size="14" lengthAdjust="spacingAndGlyphs" textLength="100" x="220" y="74.9639">Generate_CSS</text><line style="stroke: #111111; stroke-width: 1.5;" x1="188" x2="324" y1="85.2656" y2="85.2656"/><line style="stroke: #111111; stroke-width: 1.5;" x1="188" x2="324" y1="93.2656" y2="93.2656"/><!--MD5=[99977f9f32a90d95c90a77d0a0c6fdc9]
class TWRP\\CSS\\Icons_CSS--><rect codeLine="47" fill="url(#g1cyosieltvy9m0)" height="64.2656" id="TWRP\\CSS\\Icons_CSS" style="stroke: #111111; stroke-width: 1.5;" width="127" x="24.5" y="37"/><ellipse cx="40.5" cy="61.1328" fill="#ADD1B2" rx="12" ry="12" style="stroke: #111111; stroke-width: 1.0;"/><path d="M43.4375,67.1641 Q42.75,67.5234 42.0313,67.6953 Q41.3281,67.8828 40.5313,67.8828 Q38.0156,67.8828 36.6094,66.1016 Q35.2188,64.3203 35.2188,61.0859 Q35.2188,57.8672 36.625,56.0703 Q38.0313,54.2734 40.5313,54.2734 Q41.3281,54.2734 42.0313,54.4609 Q42.75,54.6328 43.4375,54.9922 L43.4375,56.8203 Q42.7813,56.2734 42.0313,55.9922 Q41.2813,55.7109 40.5313,55.7109 Q38.7969,55.7109 37.9375,57.0547 Q37.0781,58.3828 37.0781,61.0859 Q37.0781,63.7734 37.9375,65.1172 Q38.7969,66.4453 40.5313,66.4453 Q41.2969,66.4453 42.0469,66.1641 Q42.7969,65.8828 43.4375,65.3516 L43.4375,67.1641 Z "/><text fill="#EEEEEE" font-family="sans-serif" font-size="12" font-style="italic" lengthAdjust="spacingAndGlyphs" textLength="93" x="55.5" y="55.1387">«private class»</text><text fill="#EEEEEE" font-family="sans-serif" font-size="14" lengthAdjust="spacingAndGlyphs" textLength="72" x="66" y="74.9639">Icons_CSS</text><line style="stroke: #111111; stroke-width: 1.5;" x1="25.5" x2="150.5" y1="85.2656" y2="85.2656"/><line style="stroke: #111111; stroke-width: 1.5;" x1="25.5" x2="150.5" y1="93.2656" y2="93.2656"/><!--MD5=[6bcc72fd32302c014159623e6d7a2869]
@startuml
set namespaceSeparator \\

    skinparam {
        padding 2
        backgroundColor #222
        shadowing false

        classFontColor #eee
        classStereotypeFontColor #eee
        classBorderColor #111
        classFontSize 14
        ClassAttributeFontColor #eee
        ClassAttributeFontSize 13
        ClassAttributeIconSize 15

        PackageBackgroundColor #2c2c2c
        PackageBorderColor #111
        PackageFontColor #eee

        ArrowColor yellow
    }

    skinparam circled {
        CharacterFontColor black
        CharacterFontSize 18
        CharacterFontStyle plain
        CharacterRadius 12
    }


    skinparam <<public class>> {
        classBackgroundColor #004b00/#003b00
        classFontSize 16
    }

    skinparam <<private class>> {
        classBackgroundColor #5d0000/#4d0000
    }

    skinparam <<protected class>> {
        classBackgroundColor #d16300/#c15300
    }


namespace TWRP\\CSS {
	class Generate_CSS <<private class>> {}
	class Icons_CSS <<private class>> {}
}
@enduml

PlantUML version 1.2020.19(Mon Oct 12 15:10:01 UTC 2020)
(GPL source distribution)
Java Runtime: OpenJDK Runtime Environment
JVM: OpenJDK 64-Bit Server VM
Default Encoding: UTF-8
Language: en
Country: null
--></g></svg>