<?xml version="1.0" encoding="UTF-8" standalone="no"?><svg xmlns="http://www.w3.org/2000/svg" xmlns:xlink="http://www.w3.org/1999/xlink" contentScriptType="application/ecmascript" contentStyleType="text/css" height="313px" preserveAspectRatio="none" style="width:688px;height:313px;background:#222222;" version="1.1" viewBox="0 0 688 313" width="688px" zoomAndPan="magnify"><defs><linearGradient id="g16b8fbh6ubh6p0" x1="0%" x2="100%" y1="0%" y2="100%"><stop offset="0%" stop-color="#5D0000"/><stop offset="100%" stop-color="#4D0000"/></linearGradient></defs><g><!--MD5=[e8ec1e4442ec1031720e9f70ad1b8736]
cluster TWRP\\CSS--><rect fill="#2C2C2C" height="300" style="stroke: #111111; stroke-width: 1.5;" width="675" x="7" y="7"/><text fill="#EEEEEE" font-family="sans-serif" font-size="14" font-weight="bold" lengthAdjust="spacingAndGlyphs" textLength="81" x="304" y="23.9951">TWRP\CSS</text><!--MD5=[9ddc36424a0ba039cba3877491ee3114]
class TWRP\\CSS\\General_CSS--><rect codeLine="41" fill="url(#g16b8fbh6ubh6p0)" height="234.1328" id="TWRP\\CSS\\General_CSS" style="stroke: #111111; stroke-width: 1.5;" width="306" x="15" y="51.5"/><ellipse cx="107.5" cy="89.6016" fill="#ADD1B2" rx="10" ry="10" style="stroke: #111111; stroke-width: 1.0;"/><path d="M109.8906,95.1797 Q109.2813,95.5078 108.6406,95.6641 Q108.0156,95.8359 107.3125,95.8359 Q105.0625,95.8359 103.8281,94.2422 Q102.5938,92.6484 102.5938,89.7734 Q102.5938,86.9141 103.8281,85.3203 Q105.0781,83.7266 107.3125,83.7266 Q108.0156,83.7266 108.6406,83.8828 Q109.2813,84.0391 109.8906,84.3672 L109.8906,85.9766 Q109.3125,85.5078 108.6406,85.2578 Q107.9844,85.0078 107.3125,85.0078 Q105.7656,85.0078 105,86.1953 Q104.2344,87.3828 104.2344,89.7734 Q104.2344,92.1641 105,93.3516 Q105.7656,94.5391 107.3125,94.5391 Q108,94.5391 108.6563,94.2891 Q109.3125,94.0391 109.8906,93.5703 L109.8906,95.1797 Z "/><text fill="#EEEEEE" font-family="sans-serif" font-size="12" font-style="italic" lengthAdjust="spacingAndGlyphs" textLength="93" x="136.5" y="69.6387">«private class»</text><text fill="#EEEEEE" font-family="sans-serif" font-size="12" font-style="italic" lengthAdjust="spacingAndGlyphs" textLength="113" x="126.5" y="83.6074">«static collection»</text><text fill="#EEEEEE" font-family="sans-serif" font-size="12" font-style="italic" lengthAdjust="spacingAndGlyphs" textLength="66" x="150" y="97.5762">«auto-init»</text><text fill="#EEEEEE" font-family="sans-serif" font-size="14" lengthAdjust="spacingAndGlyphs" textLength="89" x="138.5" y="117.4014">General_CSS</text><line style="stroke: #111111; stroke-width: 1.5;" x1="16" x2="320" y1="127.7031" y2="127.7031"/><ellipse cx="28" cy="140.7031" fill="#84BE84" rx="5" ry="5" style="stroke: #038048; stroke-width: 1.0;"/><text fill="#EEEEEE" font-family="sans-serif" font-size="13" lengthAdjust="spacingAndGlyphs" textLength="188" x="36" y="145.77">void after_setup_theme_init()</text><line style="stroke: #111111; stroke-width: 1.0; stroke-dasharray: 1.0,2.0;" x1="16" x2="320" y1="154.8359" y2="154.8359"/><ellipse cx="28" cy="167.8359" fill="#84BE84" rx="5" ry="5" style="stroke: #038048; stroke-width: 1.0;"/><text fill="#EEEEEE" font-family="sans-serif" font-size="13" lengthAdjust="spacingAndGlyphs" textLength="218" x="36" y="172.9028">void include_the_frontend_styles()</text><ellipse cx="28" cy="186.9688" fill="#84BE84" rx="5" ry="5" style="stroke: #038048; stroke-width: 1.0;"/><text fill="#EEEEEE" font-family="sans-serif" font-size="13" lengthAdjust="spacingAndGlyphs" textLength="223" x="36" y="192.0356">void include_the_frontend_scripts()</text><ellipse cx="28" cy="206.1016" fill="#84BE84" rx="5" ry="5" style="stroke: #038048; stroke-width: 1.0;"/><text fill="#EEEEEE" font-family="sans-serif" font-size="13" lengthAdjust="spacingAndGlyphs" textLength="218" x="36" y="211.1685">void include_the_backend_styles()</text><ellipse cx="28" cy="225.2344" fill="#84BE84" rx="5" ry="5" style="stroke: #038048; stroke-width: 1.0;"/><text fill="#EEEEEE" font-family="sans-serif" font-size="13" lengthAdjust="spacingAndGlyphs" textLength="223" x="36" y="230.3013">void include_the_backend_scripts()</text><ellipse cx="28" cy="244.3672" fill="#84BE84" rx="5" ry="5" style="stroke: #038048; stroke-width: 1.0;"/><text fill="#EEEEEE" font-family="sans-serif" font-size="13" lengthAdjust="spacingAndGlyphs" textLength="277" x="36" y="249.4341">void generate_color_variables_inline_style()</text><line style="stroke: #111111; stroke-width: 1.0; stroke-dasharray: 1.0,2.0;" x1="16" x2="320" y1="258.5" y2="258.5"/><rect fill="#F24D5C" height="10" style="stroke: #C82930; stroke-width: 1.0;" width="10" x="23" y="266.5"/><text fill="#EEEEEE" font-family="sans-serif" font-size="13" lengthAdjust="spacingAndGlyphs" textLength="180" x="36" y="276.5669">void get_pickr_translations()</text><!--MD5=[99977f9f32a90d95c90a77d0a0c6fdc9]
class TWRP\\CSS\\Icons_CSS--><rect codeLine="53" fill="url(#g16b8fbh6ubh6p0)" height="261.2656" id="TWRP\\CSS\\Icons_CSS" style="stroke: #111111; stroke-width: 1.5;" width="317" x="356.5" y="38"/><ellipse cx="454.5" cy="76.1016" fill="#ADD1B2" rx="10" ry="10" style="stroke: #111111; stroke-width: 1.0;"/><path d="M456.8906,81.6797 Q456.2813,82.0078 455.6406,82.1641 Q455.0156,82.3359 454.3125,82.3359 Q452.0625,82.3359 450.8281,80.7422 Q449.5938,79.1484 449.5938,76.2734 Q449.5938,73.4141 450.8281,71.8203 Q452.0781,70.2266 454.3125,70.2266 Q455.0156,70.2266 455.6406,70.3828 Q456.2813,70.5391 456.8906,70.8672 L456.8906,72.4766 Q456.3125,72.0078 455.6406,71.7578 Q454.9844,71.5078 454.3125,71.5078 Q452.7656,71.5078 452,72.6953 Q451.2344,73.8828 451.2344,76.2734 Q451.2344,78.6641 452,79.8516 Q452.7656,81.0391 454.3125,81.0391 Q455,81.0391 455.6563,80.7891 Q456.3125,80.5391 456.8906,80.0703 L456.8906,81.6797 Z "/><text fill="#EEEEEE" font-family="sans-serif" font-size="12" font-style="italic" lengthAdjust="spacingAndGlyphs" textLength="93" x="483.5" y="56.1387">«private class»</text><text fill="#EEEEEE" font-family="sans-serif" font-size="12" font-style="italic" lengthAdjust="spacingAndGlyphs" textLength="113" x="473.5" y="70.1074">«static collection»</text><text fill="#EEEEEE" font-family="sans-serif" font-size="12" font-style="italic" lengthAdjust="spacingAndGlyphs" textLength="66" x="497" y="84.0762">«auto-init»</text><text fill="#EEEEEE" font-family="sans-serif" font-size="14" lengthAdjust="spacingAndGlyphs" textLength="72" x="494" y="103.9014">Icons_CSS</text><line style="stroke: #111111; stroke-width: 1.5;" x1="357.5" x2="672.5" y1="114.2031" y2="114.2031"/><ellipse cx="369.5" cy="127.2031" fill="#84BE84" rx="5" ry="5" style="stroke: #038048; stroke-width: 1.0;"/><text fill="#EEEEEE" font-family="sans-serif" font-size="13" lengthAdjust="spacingAndGlyphs" textLength="188" x="377.5" y="132.27">void after_setup_theme_init()</text><line style="stroke: #111111; stroke-width: 1.0; stroke-dasharray: 1.0,2.0;" x1="357.5" x2="672.5" y1="141.3359" y2="141.3359"/><ellipse cx="369.5" cy="154.3359" fill="#84BE84" rx="5" ry="5" style="stroke: #038048; stroke-width: 1.0;"/><text fill="#EEEEEE" font-family="sans-serif" font-size="13" lengthAdjust="spacingAndGlyphs" textLength="220" x="377.5" y="159.4028">void include_needed_icons_inline()</text><ellipse cx="369.5" cy="173.4688" fill="#84BE84" rx="5" ry="5" style="stroke: #038048; stroke-width: 1.0;"/><text fill="#EEEEEE" font-family="sans-serif" font-size="13" lengthAdjust="spacingAndGlyphs" textLength="205" x="377.5" y="178.5356">void include_needed_icons_file()</text><ellipse cx="369.5" cy="192.6016" fill="#84BE84" rx="5" ry="5" style="stroke: #038048; stroke-width: 1.0;"/><text fill="#EEEEEE" font-family="sans-serif" font-size="13" lengthAdjust="spacingAndGlyphs" textLength="171" x="377.5" y="197.6685">void include_all_icons_file()</text><line style="stroke: #111111; stroke-width: 1.0; stroke-dasharray: 1.0,2.0;" x1="357.5" x2="672.5" y1="206.7344" y2="206.7344"/><ellipse cx="369.5" cy="219.7344" fill="#84BE84" rx="5" ry="5" style="stroke: #038048; stroke-width: 1.0;"/><text fill="#EEEEEE" font-family="sans-serif" font-size="13" lengthAdjust="spacingAndGlyphs" textLength="288" x="377.5" y="224.8013">write_needed_icons_on_settings_submitted()</text><rect fill="#F24D5C" height="10" style="stroke: #C82930; stroke-width: 1.0;" width="10" x="364.5" y="233.8672"/><text fill="#EEEEEE" font-family="sans-serif" font-size="13" lengthAdjust="spacingAndGlyphs" textLength="180" x="377.5" y="243.9341">write_needed_icons_to_file()</text><rect fill="#F24D5C" height="10" style="stroke: #C82930; stroke-width: 1.0;" width="10" x="364.5" y="253"/><text fill="#EEEEEE" font-family="sans-serif" font-size="13" lengthAdjust="spacingAndGlyphs" textLength="287" x="377.5" y="263.0669">write_needed_icons_to_option_in_database()</text><line style="stroke: #111111; stroke-width: 1.0; stroke-dasharray: 1.0,2.0;" x1="357.5" x2="672.5" y1="272.1328" y2="272.1328"/><ellipse cx="369.5" cy="285.1328" fill="#84BE84" rx="5" ry="5" style="stroke: #038048; stroke-width: 1.0;"/><text fill="#EEEEEE" font-family="sans-serif" font-size="13" lengthAdjust="spacingAndGlyphs" textLength="167" x="377.5" y="290.1997">array get_all_used_icons()</text><!--MD5=[4f1e9556863085a17d86130965a3508b]
link TWRP\\CSS\\General_CSS to TWRP\\CSS\\Icons_CSS--><path codeLine="67" d="M321.168,168.5 C331.1618,168.5 341.1557,168.5 351.1496,168.5 " fill="none" id="TWRP\\CSS\\General_CSS-to-TWRP\\CSS\\Icons_CSS" style="stroke: #FFFF00; stroke-width: 1.0;"/><polygon fill="#FFFF00" points="356.3757,168.5,347.3757,164.5,351.3757,168.5,347.3757,172.5,356.3757,168.5" style="stroke: #FFFF00; stroke-width: 1.0;"/><!--MD5=[7a145e493e431d3a4919c1bb70bbf575]
@startuml
set namespaceSeparator \\

    skinparam {
        padding 2
        backgroundColor #222
        shadowing false

        classFontColor #eee
        classStereotypeFontColor #eee
        classBorderColor #111
        classFontSize 14
        ClassAttributeFontColor #eee
        ClassAttributeFontSize 13
        ClassAttributeIconSize 15

        PackageBackgroundColor #2c2c2c
        PackageBorderColor #111
        PackageFontColor #eee

        ArrowColor yellow

        circledCharacterFontColor black
        circledCharacterFontSize 16
        circledCharacterFontStyle plain
        circledCharacterRadius 10

        packageStyle rectangle

        <<public class>>classBackgroundColor #004b00/#003b00
        <<public class>>classFontSize 16

        <<private class>>classBackgroundColor #5d0000/#4d0000

        <<protected class>>classBackgroundColor #d16300/#c15300

        <<abstract class>>classBorderColor #755800
    }


namespace TWRP\\CSS {
	class General_CSS <<private class>> <<static collection>> <<auto-init>> {
		+ void after_setup_theme_init()
		..
		+ void include_the_frontend_styles()
		+ void include_the_frontend_scripts()
		+ void include_the_backend_styles()
		+ void include_the_backend_scripts()
		+ void generate_color_variables_inline_style()
		..
		- void get_pickr_translations()
	}

	class Icons_CSS <<private class>> <<static collection>> <<auto-init>> {
		+ void after_setup_theme_init()
		..
		+ void include_needed_icons_inline()
		+ void include_needed_icons_file()
		+ void include_all_icons_file()
		..
		+ write_needed_icons_on_settings_submitted()
		- write_needed_icons_to_file()
		- write_needed_icons_to_option_in_database()
		..
		+ array get_all_used_icons()
	}

	General_CSS -> Icons_CSS
}
@enduml

PlantUML version 1.2020.19(Mon Oct 12 15:10:01 UTC 2020)
(GPL source distribution)
Java Runtime: OpenJDK Runtime Environment
JVM: OpenJDK 64-Bit Server VM
Default Encoding: UTF-8
Language: en
Country: null
--></g></svg>