<?xml version="1.0" encoding="UTF-8" standalone="no"?><svg xmlns="http://www.w3.org/2000/svg" xmlns:xlink="http://www.w3.org/1999/xlink" contentScriptType="application/ecmascript" contentStyleType="text/css" height="116px" preserveAspectRatio="none" style="width:322px;height:116px;background:#222222;" version="1.1" viewBox="0 0 322 116" width="322px" zoomAndPan="magnify"><defs><linearGradient id="g1mewucei7yv8v0" x1="0%" x2="100%" y1="0%" y2="100%"><stop offset="0%" stop-color="#5D0000"/><stop offset="100%" stop-color="#4D0000"/></linearGradient></defs><g><!--MD5=[e8ec1e4442ec1031720e9f70ad1b8736]
cluster TWRP\\CSS--><rect fill="#2C2C2C" height="103" style="stroke: #111111; stroke-width: 1.5;" width="309" x="7" y="7"/><text fill="#EEEEEE" font-family="sans-serif" font-size="14" font-weight="bold" lengthAdjust="spacingAndGlyphs" textLength="81" x="121" y="23.9951">TWRP\CSS</text><!--MD5=[6890d8cd9120dfa6c7220646e81c2374]
class TWRP\\CSS\\Generate_CSS--><rect codeLine="41" fill="url(#g1mewucei7yv8v0)" height="64.2656" id="TWRP\\CSS\\Generate_CSS" style="stroke: #111111; stroke-width: 1.5;" width="134" x="174" y="38"/><ellipse cx="188" cy="62.1328" fill="#ADD1B2" rx="10" ry="10" style="stroke: #111111; stroke-width: 1.0;"/><path d="M190.3906,67.7109 Q189.7813,68.0391 189.1406,68.1953 Q188.5156,68.3672 187.8125,68.3672 Q185.5625,68.3672 184.3281,66.7734 Q183.0938,65.1797 183.0938,62.3047 Q183.0938,59.4453 184.3281,57.8516 Q185.5781,56.2578 187.8125,56.2578 Q188.5156,56.2578 189.1406,56.4141 Q189.7813,56.5703 190.3906,56.8984 L190.3906,58.5078 Q189.8125,58.0391 189.1406,57.7891 Q188.4844,57.5391 187.8125,57.5391 Q186.2656,57.5391 185.5,58.7266 Q184.7344,59.9141 184.7344,62.3047 Q184.7344,64.6953 185.5,65.8828 Q186.2656,67.0703 187.8125,67.0703 Q188.5,67.0703 189.1563,66.8203 Q189.8125,66.5703 190.3906,66.1016 L190.3906,67.7109 Z "/><text fill="#EEEEEE" font-family="sans-serif" font-size="12" font-style="italic" lengthAdjust="spacingAndGlyphs" textLength="93" x="206.5" y="56.1387">«private class»</text><text fill="#EEEEEE" font-family="sans-serif" font-size="14" lengthAdjust="spacingAndGlyphs" textLength="100" x="203" y="75.9639">Generate_CSS</text><line style="stroke: #111111; stroke-width: 1.5;" x1="175" x2="307" y1="86.2656" y2="86.2656"/><line style="stroke: #111111; stroke-width: 1.5;" x1="175" x2="307" y1="94.2656" y2="94.2656"/><!--MD5=[99977f9f32a90d95c90a77d0a0c6fdc9]
class TWRP\\CSS\\Icons_CSS--><rect codeLine="42" fill="url(#g1mewucei7yv8v0)" height="64.2656" id="TWRP\\CSS\\Icons_CSS" style="stroke: #111111; stroke-width: 1.5;" width="123" x="15.5" y="38"/><ellipse cx="29.5" cy="62.1328" fill="#ADD1B2" rx="10" ry="10" style="stroke: #111111; stroke-width: 1.0;"/><path d="M31.8906,67.7109 Q31.2813,68.0391 30.6406,68.1953 Q30.0156,68.3672 29.3125,68.3672 Q27.0625,68.3672 25.8281,66.7734 Q24.5938,65.1797 24.5938,62.3047 Q24.5938,59.4453 25.8281,57.8516 Q27.0781,56.2578 29.3125,56.2578 Q30.0156,56.2578 30.6406,56.4141 Q31.2813,56.5703 31.8906,56.8984 L31.8906,58.5078 Q31.3125,58.0391 30.6406,57.7891 Q29.9844,57.5391 29.3125,57.5391 Q27.7656,57.5391 27,58.7266 Q26.2344,59.9141 26.2344,62.3047 Q26.2344,64.6953 27,65.8828 Q27.7656,67.0703 29.3125,67.0703 Q30,67.0703 30.6563,66.8203 Q31.3125,66.5703 31.8906,66.1016 L31.8906,67.7109 Z "/><text fill="#EEEEEE" font-family="sans-serif" font-size="12" font-style="italic" lengthAdjust="spacingAndGlyphs" textLength="93" x="42.5" y="56.1387">«private class»</text><text fill="#EEEEEE" font-family="sans-serif" font-size="14" lengthAdjust="spacingAndGlyphs" textLength="72" x="53" y="75.9639">Icons_CSS</text><line style="stroke: #111111; stroke-width: 1.5;" x1="16.5" x2="137.5" y1="86.2656" y2="86.2656"/><line style="stroke: #111111; stroke-width: 1.5;" x1="16.5" x2="137.5" y1="94.2656" y2="94.2656"/><!--MD5=[7be57927b4a619023c398dd303a454f9]
@startuml
set namespaceSeparator \\

    skinparam {
        padding 2
        backgroundColor #222
        shadowing false

        classFontColor #eee
        classStereotypeFontColor #eee
        classBorderColor #111
        classFontSize 14
        ClassAttributeFontColor #eee
        ClassAttributeFontSize 13
        ClassAttributeIconSize 15

        PackageBackgroundColor #2c2c2c
        PackageBorderColor #111
        PackageFontColor #eee

        ArrowColor yellow

        circledCharacterFontColor black
        circledCharacterFontSize 16
        circledCharacterFontStyle plain
        circledCharacterRadius 10

        packageStyle rectangle

        <<public class>>classBackgroundColor #004b00/#003b00
        <<public class>>classFontSize 16

        <<private class>>classBackgroundColor #5d0000/#4d0000

        <<protected class>>classBackgroundColor #d16300/#c15300

        <<abstract class>>classBorderColor #755800
    }


namespace TWRP\\CSS {
	class Generate_CSS <<private class>> {}
	class Icons_CSS <<private class>> {}
}
@enduml

PlantUML version 1.2020.19(Mon Oct 12 15:10:01 UTC 2020)
(GPL source distribution)
Java Runtime: OpenJDK Runtime Environment
JVM: OpenJDK 64-Bit Server VM
Default Encoding: UTF-8
Language: en
Country: null
--></g></svg>