<?xml version="1.0" encoding="UTF-8" standalone="no"?><svg xmlns="http://www.w3.org/2000/svg" xmlns:xlink="http://www.w3.org/1999/xlink" contentScriptType="application/ecmascript" contentStyleType="text/css" height="250px" preserveAspectRatio="none" style="width:494px;height:250px;background:#222222;" version="1.1" viewBox="0 0 494 250" width="494px" zoomAndPan="magnify"><defs><linearGradient id="ggl5cjyuacm760" x1="0%" x2="100%" y1="0%" y2="100%"><stop offset="0%" stop-color="#5D0000"/><stop offset="100%" stop-color="#4D0000"/></linearGradient></defs><g><!--MD5=[e8ec1e4442ec1031720e9f70ad1b8736]
cluster TWRP\\CSS--><rect fill="#2C2C2C" height="237" style="stroke: #111111; stroke-width: 1.5;" width="481" x="7" y="7"/><text fill="#EEEEEE" font-family="sans-serif" font-size="14" font-weight="bold" lengthAdjust="spacingAndGlyphs" textLength="81" x="207" y="23.9951">TWRP\CSS</text><!--MD5=[9ddc36424a0ba039cba3877491ee3114]
class TWRP\\CSS\\General_CSS--><rect codeLine="41" fill="url(#ggl5cjyuacm760)" height="198.1953" id="TWRP\\CSS\\General_CSS" style="stroke: #111111; stroke-width: 1.5;" width="306" x="174" y="38"/><ellipse cx="276.5" cy="62.1328" fill="#ADD1B2" rx="10" ry="10" style="stroke: #111111; stroke-width: 1.0;"/><path d="M278.8906,67.7109 Q278.2813,68.0391 277.6406,68.1953 Q277.0156,68.3672 276.3125,68.3672 Q274.0625,68.3672 272.8281,66.7734 Q271.5938,65.1797 271.5938,62.3047 Q271.5938,59.4453 272.8281,57.8516 Q274.0781,56.2578 276.3125,56.2578 Q277.0156,56.2578 277.6406,56.4141 Q278.2813,56.5703 278.8906,56.8984 L278.8906,58.5078 Q278.3125,58.0391 277.6406,57.7891 Q276.9844,57.5391 276.3125,57.5391 Q274.7656,57.5391 274,58.7266 Q273.2344,59.9141 273.2344,62.3047 Q273.2344,64.6953 274,65.8828 Q274.7656,67.0703 276.3125,67.0703 Q277,67.0703 277.6563,66.8203 Q278.3125,66.5703 278.8906,66.1016 L278.8906,67.7109 Z "/><text fill="#EEEEEE" font-family="sans-serif" font-size="12" font-style="italic" lengthAdjust="spacingAndGlyphs" textLength="93" x="295.5" y="56.1387">«private class»</text><text fill="#EEEEEE" font-family="sans-serif" font-size="14" lengthAdjust="spacingAndGlyphs" textLength="89" x="297.5" y="75.9639">General_CSS</text><line style="stroke: #111111; stroke-width: 1.5;" x1="175" x2="479" y1="86.2656" y2="86.2656"/><line style="stroke: #111111; stroke-width: 1.5;" x1="175" x2="479" y1="94.2656" y2="94.2656"/><ellipse cx="187" cy="107.2656" fill="#84BE84" rx="5" ry="5" style="stroke: #038048; stroke-width: 1.0;"/><text fill="#EEEEEE" font-family="sans-serif" font-size="13" lengthAdjust="spacingAndGlyphs" textLength="188" x="195" y="112.3325">void after_setup_theme_init()</text><ellipse cx="187" cy="126.3984" fill="#84BE84" rx="5" ry="5" style="stroke: #038048; stroke-width: 1.0;"/><text fill="#EEEEEE" font-family="sans-serif" font-size="13" lengthAdjust="spacingAndGlyphs" textLength="218" x="195" y="131.4653">void include_the_frontend_styles()</text><ellipse cx="187" cy="145.5313" fill="#84BE84" rx="5" ry="5" style="stroke: #038048; stroke-width: 1.0;"/><text fill="#EEEEEE" font-family="sans-serif" font-size="13" lengthAdjust="spacingAndGlyphs" textLength="223" x="195" y="150.5981">void include_the_frontend_scripts()</text><ellipse cx="187" cy="164.6641" fill="#84BE84" rx="5" ry="5" style="stroke: #038048; stroke-width: 1.0;"/><text fill="#EEEEEE" font-family="sans-serif" font-size="13" lengthAdjust="spacingAndGlyphs" textLength="218" x="195" y="169.731">void include_the_backend_styles()</text><ellipse cx="187" cy="183.7969" fill="#84BE84" rx="5" ry="5" style="stroke: #038048; stroke-width: 1.0;"/><text fill="#EEEEEE" font-family="sans-serif" font-size="13" lengthAdjust="spacingAndGlyphs" textLength="223" x="195" y="188.8638">void include_the_backend_scripts()</text><ellipse cx="187" cy="202.9297" fill="#84BE84" rx="5" ry="5" style="stroke: #038048; stroke-width: 1.0;"/><text fill="#EEEEEE" font-family="sans-serif" font-size="13" lengthAdjust="spacingAndGlyphs" textLength="277" x="195" y="207.9966">void generate_color_variables_inline_style()</text><rect fill="#F24D5C" height="10" style="stroke: #C82930; stroke-width: 1.0;" width="10" x="182" y="217.0625"/><text fill="#EEEEEE" font-family="sans-serif" font-size="13" lengthAdjust="spacingAndGlyphs" textLength="180" x="195" y="227.1294">void get_pickr_translations()</text><!--MD5=[99977f9f32a90d95c90a77d0a0c6fdc9]
class TWRP\\CSS\\Icons_CSS--><rect codeLine="50" fill="url(#ggl5cjyuacm760)" height="64.2656" id="TWRP\\CSS\\Icons_CSS" style="stroke: #111111; stroke-width: 1.5;" width="123" x="15.5" y="105"/><ellipse cx="29.5" cy="129.1328" fill="#ADD1B2" rx="10" ry="10" style="stroke: #111111; stroke-width: 1.0;"/><path d="M31.8906,134.7109 Q31.2813,135.0391 30.6406,135.1953 Q30.0156,135.3672 29.3125,135.3672 Q27.0625,135.3672 25.8281,133.7734 Q24.5938,132.1797 24.5938,129.3047 Q24.5938,126.4453 25.8281,124.8516 Q27.0781,123.2578 29.3125,123.2578 Q30.0156,123.2578 30.6406,123.4141 Q31.2813,123.5703 31.8906,123.8984 L31.8906,125.5078 Q31.3125,125.0391 30.6406,124.7891 Q29.9844,124.5391 29.3125,124.5391 Q27.7656,124.5391 27,125.7266 Q26.2344,126.9141 26.2344,129.3047 Q26.2344,131.6953 27,132.8828 Q27.7656,134.0703 29.3125,134.0703 Q30,134.0703 30.6563,133.8203 Q31.3125,133.5703 31.8906,133.1016 L31.8906,134.7109 Z "/><text fill="#EEEEEE" font-family="sans-serif" font-size="12" font-style="italic" lengthAdjust="spacingAndGlyphs" textLength="93" x="42.5" y="123.1387">«private class»</text><text fill="#EEEEEE" font-family="sans-serif" font-size="14" lengthAdjust="spacingAndGlyphs" textLength="72" x="53" y="142.9639">Icons_CSS</text><line style="stroke: #111111; stroke-width: 1.5;" x1="16.5" x2="137.5" y1="153.2656" y2="153.2656"/><line style="stroke: #111111; stroke-width: 1.5;" x1="16.5" x2="137.5" y1="161.2656" y2="161.2656"/><!--MD5=[d1ad8f1944c91b012d2cfdf08fdf7d37]
@startuml
set namespaceSeparator \\

    skinparam {
        padding 2
        backgroundColor #222
        shadowing false

        classFontColor #eee
        classStereotypeFontColor #eee
        classBorderColor #111
        classFontSize 14
        ClassAttributeFontColor #eee
        ClassAttributeFontSize 13
        ClassAttributeIconSize 15

        PackageBackgroundColor #2c2c2c
        PackageBorderColor #111
        PackageFontColor #eee

        ArrowColor yellow

        circledCharacterFontColor black
        circledCharacterFontSize 16
        circledCharacterFontStyle plain
        circledCharacterRadius 10

        packageStyle rectangle

        <<public class>>classBackgroundColor #004b00/#003b00
        <<public class>>classFontSize 16

        <<private class>>classBackgroundColor #5d0000/#4d0000

        <<protected class>>classBackgroundColor #d16300/#c15300

        <<abstract class>>classBorderColor #755800
    }


namespace TWRP\\CSS {
	class General_CSS <<private class>> {
		+ void after_setup_theme_init()
		+ void include_the_frontend_styles()
		+ void include_the_frontend_scripts()
		+ void include_the_backend_styles()
		+ void include_the_backend_scripts()
		+ void generate_color_variables_inline_style()
		- void get_pickr_translations()
	}
	class Icons_CSS <<private class>> {}
}
@enduml

PlantUML version 1.2020.19(Mon Oct 12 15:10:01 UTC 2020)
(GPL source distribution)
Java Runtime: OpenJDK Runtime Environment
JVM: OpenJDK 64-Bit Server VM
Default Encoding: UTF-8
Language: en
Country: null
--></g></svg>