<?xml version="1.0" encoding="UTF-8" standalone="no"?><svg xmlns="http://www.w3.org/2000/svg" xmlns:xlink="http://www.w3.org/1999/xlink" contentScriptType="application/ecmascript" contentStyleType="text/css" height="389px" preserveAspectRatio="none" style="width:726px;height:389px;background:#222222;" version="1.1" viewBox="0 0 726 389" width="726px" zoomAndPan="magnify"><defs><linearGradient id="gkstf6lui9obx0" x1="0%" x2="100%" y1="0%" y2="100%"><stop offset="0%" stop-color="#004B00"/><stop offset="100%" stop-color="#003B00"/></linearGradient><linearGradient id="gkstf6lui9obx1" x1="0%" x2="100%" y1="0%" y2="100%"><stop offset="0%" stop-color="#5D0000"/><stop offset="100%" stop-color="#4D0000"/></linearGradient></defs><g><!--MD5=[208446ed48ff3b8b222434ebe5a8bbf9]
cluster TWRP\\Database--><polygon fill="#2C2C2C" points="16,6,149,6,156,32.2969,709,32.2969,709,382,16,382,16,6" style="stroke: #111111; stroke-width: 1.5;"/><line style="stroke: #111111; stroke-width: 1.5;" x1="16" x2="156" y1="32.2969" y2="32.2969"/><text fill="#EEEEEE" font-family="sans-serif" font-size="14" font-weight="bold" lengthAdjust="spacingAndGlyphs" textLength="123" x="22" y="22.9951">TWRP\Database</text><!--MD5=[c525a579bcf727484c3ef1d8ee8897d6]
cluster TWRP\\Database\\Settings--><polygon fill="#2C2C2C" points="24,133,99,133,106,159.2969,547,159.2969,547,374,24,374,24,133" style="stroke: #111111; stroke-width: 1.5;"/><line style="stroke: #111111; stroke-width: 1.5;" x1="24" x2="106" y1="159.2969" y2="159.2969"/><text fill="#EEEEEE" font-family="sans-serif" font-size="14" font-weight="bold" lengthAdjust="spacingAndGlyphs" textLength="65" x="30" y="149.9951">Settings</text><!--MD5=[ec4761abb968f357dc378c4bc3e66f1f]
class TWRP\\Database\\Query_Options--><rect codeLine="39" fill="url(#gkstf6lui9obx0)" height="66.5938" id="TWRP\\Database\\Query_Options" style="stroke: #111111; stroke-width: 1.5;" width="151" x="330.5" y="37"/><ellipse cx="344.5" cy="62.2969" fill="#ADD1B2" rx="10" ry="10" style="stroke: #111111; stroke-width: 1.0;"/><path d="M346.8906,67.875 Q346.2813,68.2031 345.6406,68.3594 Q345.0156,68.5313 344.3125,68.5313 Q342.0625,68.5313 340.8281,66.9375 Q339.5938,65.3438 339.5938,62.4688 Q339.5938,59.6094 340.8281,58.0156 Q342.0781,56.4219 344.3125,56.4219 Q345.0156,56.4219 345.6406,56.5781 Q346.2813,56.7344 346.8906,57.0625 L346.8906,58.6719 Q346.3125,58.2031 345.6406,57.9531 Q344.9844,57.7031 344.3125,57.7031 Q342.7656,57.7031 342,58.8906 Q341.2344,60.0781 341.2344,62.4688 Q341.2344,64.8594 342,66.0469 Q342.7656,67.2344 344.3125,67.2344 Q345,67.2344 345.6563,66.9844 Q346.3125,66.7344 346.8906,66.2656 L346.8906,67.875 Z "/><text fill="#EEEEEE" font-family="sans-serif" font-size="12" font-style="italic" lengthAdjust="spacingAndGlyphs" textLength="87" x="374.5" y="55.1387">«public class»</text><text fill="#EEEEEE" font-family="sans-serif" font-size="16" lengthAdjust="spacingAndGlyphs" textLength="117" x="359.5" y="76.8203">Query_Options</text><line style="stroke: #111111; stroke-width: 1.5;" x1="331.5" x2="480.5" y1="87.5938" y2="87.5938"/><line style="stroke: #111111; stroke-width: 1.5;" x1="331.5" x2="480.5" y1="95.5938" y2="95.5938"/><!--MD5=[883d11e6edbbd8d93124b74558c38c1e]
class TWRP\\Database\\Inline_Icons_Option--><rect codeLine="40" fill="url(#gkstf6lui9obx0)" height="66.5938" id="TWRP\\Database\\Inline_Icons_Option" style="stroke: #111111; stroke-width: 1.5;" width="185" x="516.5" y="37"/><ellipse cx="530.5" cy="62.2969" fill="#ADD1B2" rx="10" ry="10" style="stroke: #111111; stroke-width: 1.0;"/><path d="M532.8906,67.875 Q532.2813,68.2031 531.6406,68.3594 Q531.0156,68.5313 530.3125,68.5313 Q528.0625,68.5313 526.8281,66.9375 Q525.5938,65.3438 525.5938,62.4688 Q525.5938,59.6094 526.8281,58.0156 Q528.0781,56.4219 530.3125,56.4219 Q531.0156,56.4219 531.6406,56.5781 Q532.2813,56.7344 532.8906,57.0625 L532.8906,58.6719 Q532.3125,58.2031 531.6406,57.9531 Q530.9844,57.7031 530.3125,57.7031 Q528.7656,57.7031 528,58.8906 Q527.2344,60.0781 527.2344,62.4688 Q527.2344,64.8594 528,66.0469 Q528.7656,67.2344 530.3125,67.2344 Q531,67.2344 531.6563,66.9844 Q532.3125,66.7344 532.8906,66.2656 L532.8906,67.875 Z "/><text fill="#EEEEEE" font-family="sans-serif" font-size="12" font-style="italic" lengthAdjust="spacingAndGlyphs" textLength="87" x="577.5" y="55.1387">«public class»</text><text fill="#EEEEEE" font-family="sans-serif" font-size="16" lengthAdjust="spacingAndGlyphs" textLength="151" x="545.5" y="76.8203">Inline_Icons_Option</text><line style="stroke: #111111; stroke-width: 1.5;" x1="517.5" x2="700.5" y1="87.5938" y2="87.5938"/><line style="stroke: #111111; stroke-width: 1.5;" x1="517.5" x2="700.5" y1="95.5938" y2="95.5938"/><!--MD5=[e0df434e339c97a5e1f3e848788f6ce6]
class TWRP\\Database\\General_Options--><rect codeLine="41" fill="url(#gkstf6lui9obx0)" height="66.5938" id="TWRP\\Database\\General_Options" style="stroke: #111111; stroke-width: 1.5;" width="162" x="133" y="37"/><ellipse cx="147" cy="62.2969" fill="#ADD1B2" rx="10" ry="10" style="stroke: #111111; stroke-width: 1.0;"/><path d="M149.3906,67.875 Q148.7813,68.2031 148.1406,68.3594 Q147.5156,68.5313 146.8125,68.5313 Q144.5625,68.5313 143.3281,66.9375 Q142.0938,65.3438 142.0938,62.4688 Q142.0938,59.6094 143.3281,58.0156 Q144.5781,56.4219 146.8125,56.4219 Q147.5156,56.4219 148.1406,56.5781 Q148.7813,56.7344 149.3906,57.0625 L149.3906,58.6719 Q148.8125,58.2031 148.1406,57.9531 Q147.4844,57.7031 146.8125,57.7031 Q145.2656,57.7031 144.5,58.8906 Q143.7344,60.0781 143.7344,62.4688 Q143.7344,64.8594 144.5,66.0469 Q145.2656,67.2344 146.8125,67.2344 Q147.5,67.2344 148.1563,66.9844 Q148.8125,66.7344 149.3906,66.2656 L149.3906,67.875 Z "/><text fill="#EEEEEE" font-family="sans-serif" font-size="12" font-style="italic" lengthAdjust="spacingAndGlyphs" textLength="87" x="182.5" y="55.1387">«public class»</text><text fill="#EEEEEE" font-family="sans-serif" font-size="16" lengthAdjust="spacingAndGlyphs" textLength="128" x="162" y="76.8203">General_Options</text><line style="stroke: #111111; stroke-width: 1.5;" x1="134" x2="294" y1="87.5938" y2="87.5938"/><line style="stroke: #111111; stroke-width: 1.5;" x1="134" x2="294" y1="95.5938" y2="95.5938"/><!--MD5=[6c3c191129bb881ce4bc77bf6e71f3e4]
class TWRP\\Database\\Aside_Options--><rect codeLine="42" fill="url(#gkstf6lui9obx0)" height="66.5938" id="TWRP\\Database\\Aside_Options" style="stroke: #111111; stroke-width: 1.5;" width="145" x="555.5" y="169.5"/><ellipse cx="569.5" cy="194.7969" fill="#ADD1B2" rx="10" ry="10" style="stroke: #111111; stroke-width: 1.0;"/><path d="M571.8906,200.375 Q571.2813,200.7031 570.6406,200.8594 Q570.0156,201.0313 569.3125,201.0313 Q567.0625,201.0313 565.8281,199.4375 Q564.5938,197.8438 564.5938,194.9688 Q564.5938,192.1094 565.8281,190.5156 Q567.0781,188.9219 569.3125,188.9219 Q570.0156,188.9219 570.6406,189.0781 Q571.2813,189.2344 571.8906,189.5625 L571.8906,191.1719 Q571.3125,190.7031 570.6406,190.4531 Q569.9844,190.2031 569.3125,190.2031 Q567.7656,190.2031 567,191.3906 Q566.2344,192.5781 566.2344,194.9688 Q566.2344,197.3594 567,198.5469 Q567.7656,199.7344 569.3125,199.7344 Q570,199.7344 570.6563,199.4844 Q571.3125,199.2344 571.8906,198.7656 L571.8906,200.375 Z "/><text fill="#EEEEEE" font-family="sans-serif" font-size="12" font-style="italic" lengthAdjust="spacingAndGlyphs" textLength="87" x="596.5" y="187.6387">«public class»</text><text fill="#EEEEEE" font-family="sans-serif" font-size="16" lengthAdjust="spacingAndGlyphs" textLength="111" x="584.5" y="209.3203">Aside_Options</text><line style="stroke: #111111; stroke-width: 1.5;" x1="556.5" x2="699.5" y1="220.0938" y2="220.0938"/><line style="stroke: #111111; stroke-width: 1.5;" x1="556.5" x2="699.5" y1="228.0938" y2="228.0938"/><!--MD5=[b79175677072c04af37ff4919d542f11]
class TWRP\\Database\\Settings\\General_Option_Setting--><rect codeLine="45" fill="url(#gkstf6lui9obx1)" height="78.2344" id="TWRP\\Database\\Settings\\General_Option_Setting" style="stroke: #755800; stroke-width: 1.5;" width="197" x="135.5" y="164"/><ellipse cx="149.5" cy="195.1172" fill="#A9DCDF" rx="10" ry="10" style="stroke: #755800; stroke-width: 1.0;"/><path d="M149.3125,190.3359 L147.6563,196.3047 L150.9844,196.3047 L149.3125,190.3359 Z M148.3594,188.9453 L150.2813,188.9453 L153.8438,200.6172 L152.2188,200.6172 L151.3594,197.5703 L147.2656,197.5703 L146.4219,200.6172 L144.7969,200.6172 L148.3594,188.9453 Z "/><text fill="#EEEEEE" font-family="sans-serif" font-size="12" font-style="italic" lengthAdjust="spacingAndGlyphs" textLength="93" x="199.5" y="182.1387">«private class»</text><text fill="#EEEEEE" font-family="sans-serif" font-size="12" font-style="italic" lengthAdjust="spacingAndGlyphs" textLength="103" x="194.5" y="196.1074">«abstract class»</text><text fill="#EEEEEE" font-family="sans-serif" font-size="14" font-style="italic" lengthAdjust="spacingAndGlyphs" textLength="163" x="164.5" y="215.9326">General_Option_Setting</text><line style="stroke: #755800; stroke-width: 1.5;" x1="136.5" x2="331.5" y1="226.2344" y2="226.2344"/><line style="stroke: #755800; stroke-width: 1.5;" x1="136.5" x2="331.5" y1="234.2344" y2="234.2344"/><!--MD5=[d80241d1633b5e61f5ea5ee8fa964939]
class TWRP\\Database\\Settings\\Accent_Color--><rect codeLine="46" fill="url(#gkstf6lui9obx1)" height="64.2656" id="TWRP\\Database\\Settings\\Accent_Color" style="stroke: #111111; stroke-width: 1.5;" width="125" x="32.5" y="302"/><ellipse cx="46.5" cy="326.1328" fill="#ADD1B2" rx="10" ry="10" style="stroke: #111111; stroke-width: 1.0;"/><path d="M48.8906,331.7109 Q48.2813,332.0391 47.6406,332.1953 Q47.0156,332.3672 46.3125,332.3672 Q44.0625,332.3672 42.8281,330.7734 Q41.5938,329.1797 41.5938,326.3047 Q41.5938,323.4453 42.8281,321.8516 Q44.0781,320.2578 46.3125,320.2578 Q47.0156,320.2578 47.6406,320.4141 Q48.2813,320.5703 48.8906,320.8984 L48.8906,322.5078 Q48.3125,322.0391 47.6406,321.7891 Q46.9844,321.5391 46.3125,321.5391 Q44.7656,321.5391 44,322.7266 Q43.2344,323.9141 43.2344,326.3047 Q43.2344,328.6953 44,329.8828 Q44.7656,331.0703 46.3125,331.0703 Q47,331.0703 47.6563,330.8203 Q48.3125,330.5703 48.8906,330.1016 L48.8906,331.7109 Z "/><text fill="#EEEEEE" font-family="sans-serif" font-size="12" font-style="italic" lengthAdjust="spacingAndGlyphs" textLength="93" x="60.5" y="320.1387">«private class»</text><text fill="#EEEEEE" font-family="sans-serif" font-size="14" lengthAdjust="spacingAndGlyphs" textLength="91" x="61.5" y="339.9639">Accent_Color</text><line style="stroke: #111111; stroke-width: 1.5;" x1="33.5" x2="156.5" y1="350.2656" y2="350.2656"/><line style="stroke: #111111; stroke-width: 1.5;" x1="33.5" x2="156.5" y1="358.2656" y2="358.2656"/><!--MD5=[417e70bc30e231184b3cf1b5fb97d9b4]
class TWRP\\Database\\Settings\\Author_Icon--><rect codeLine="47" fill="url(#gkstf6lui9obx1)" height="64.2656" id="TWRP\\Database\\Settings\\Author_Icon" style="stroke: #111111; stroke-width: 1.5;" width="123" x="192.5" y="302"/><ellipse cx="206.5" cy="326.1328" fill="#ADD1B2" rx="10" ry="10" style="stroke: #111111; stroke-width: 1.0;"/><path d="M208.8906,331.7109 Q208.2813,332.0391 207.6406,332.1953 Q207.0156,332.3672 206.3125,332.3672 Q204.0625,332.3672 202.8281,330.7734 Q201.5938,329.1797 201.5938,326.3047 Q201.5938,323.4453 202.8281,321.8516 Q204.0781,320.2578 206.3125,320.2578 Q207.0156,320.2578 207.6406,320.4141 Q208.2813,320.5703 208.8906,320.8984 L208.8906,322.5078 Q208.3125,322.0391 207.6406,321.7891 Q206.9844,321.5391 206.3125,321.5391 Q204.7656,321.5391 204,322.7266 Q203.2344,323.9141 203.2344,326.3047 Q203.2344,328.6953 204,329.8828 Q204.7656,331.0703 206.3125,331.0703 Q207,331.0703 207.6563,330.8203 Q208.3125,330.5703 208.8906,330.1016 L208.8906,331.7109 Z "/><text fill="#EEEEEE" font-family="sans-serif" font-size="12" font-style="italic" lengthAdjust="spacingAndGlyphs" textLength="93" x="219.5" y="320.1387">«private class»</text><text fill="#EEEEEE" font-family="sans-serif" font-size="14" lengthAdjust="spacingAndGlyphs" textLength="82" x="225" y="339.9639">Author_Icon</text><line style="stroke: #111111; stroke-width: 1.5;" x1="193.5" x2="314.5" y1="350.2656" y2="350.2656"/><line style="stroke: #111111; stroke-width: 1.5;" x1="193.5" x2="314.5" y1="358.2656" y2="358.2656"/><!--MD5=[e779540efb0c5cd5b6d0f2de0a26aa41]
class TWRP\\Database\\Settings\\Other_Similar_Settings--><rect codeLine="48" fill="url(#gkstf6lui9obx1)" height="64.2656" id="TWRP\\Database\\Settings\\Other_Similar_Settings" style="stroke: #111111; stroke-width: 1.5;" width="188" x="351" y="302"/><ellipse cx="365" cy="326.1328" fill="#ADD1B2" rx="10" ry="10" style="stroke: #111111; stroke-width: 1.0;"/><path d="M367.3906,331.7109 Q366.7813,332.0391 366.1406,332.1953 Q365.5156,332.3672 364.8125,332.3672 Q362.5625,332.3672 361.3281,330.7734 Q360.0938,329.1797 360.0938,326.3047 Q360.0938,323.4453 361.3281,321.8516 Q362.5781,320.2578 364.8125,320.2578 Q365.5156,320.2578 366.1406,320.4141 Q366.7813,320.5703 367.3906,320.8984 L367.3906,322.5078 Q366.8125,322.0391 366.1406,321.7891 Q365.4844,321.5391 364.8125,321.5391 Q363.2656,321.5391 362.5,322.7266 Q361.7344,323.9141 361.7344,326.3047 Q361.7344,328.6953 362.5,329.8828 Q363.2656,331.0703 364.8125,331.0703 Q365.5,331.0703 366.1563,330.8203 Q366.8125,330.5703 367.3906,330.1016 L367.3906,331.7109 Z "/><text fill="#EEEEEE" font-family="sans-serif" font-size="12" font-style="italic" lengthAdjust="spacingAndGlyphs" textLength="93" x="410.5" y="320.1387">«private class»</text><text fill="#EEEEEE" font-family="sans-serif" font-size="14" lengthAdjust="spacingAndGlyphs" textLength="154" x="380" y="339.9639">Other_Similar_Settings</text><line style="stroke: #111111; stroke-width: 1.5;" x1="352" x2="538" y1="350.2656" y2="350.2656"/><line style="stroke: #111111; stroke-width: 1.5;" x1="352" x2="538" y1="358.2656" y2="358.2656"/><!--MD5=[b6cd0d262a9c008ede21841e73922793]
reverse link TWRP\\Database\\Settings\\General_Option_Setting to TWRP\\Database\\Settings\\Accent_Color--><path d="M177.6212,256.134 C161.2127,271.5981 143.7916,288.0165 129.198,301.7703 " fill="none" id="TWRP\\Database\\Settings\\General_Option_Setting-backto-TWRP\\Database\\Settings\\Accent_Color" style="stroke: #FFFF00; stroke-width: 1.0; stroke-dasharray: 7.0,7.0;"/><polygon fill="none" points="172.9396,250.9273,192.2954,242.3043,182.5416,261.1156,172.9396,250.9273" style="stroke: #FFFF00; stroke-width: 1.0;"/><!--MD5=[7b4e272d151fa0269ddd2e81a4b4dca2]
reverse link TWRP\\Database\\Settings\\General_Option_Setting to TWRP\\Database\\Settings\\Author_Icon--><path d="M243.058,262.33 C245.1309,275.9071 247.2582,289.841 249.0794,301.7703 " fill="none" id="TWRP\\Database\\Settings\\General_Option_Setting-backto-TWRP\\Database\\Settings\\Author_Icon" style="stroke: #FFFF00; stroke-width: 1.0; stroke-dasharray: 7.0,7.0;"/><polygon fill="none" points="236.0994,263.1317,240.0007,242.3043,249.939,261.0187,236.0994,263.1317" style="stroke: #FFFF00; stroke-width: 1.0;"/><!--MD5=[d3877425354de83233aa505ebe920f29]
reverse link TWRP\\Database\\Settings\\General_Option_Setting to TWRP\\Database\\Settings\\Other_Similar_Settings--><path d="M314.065,252.7086 C340.6187,269.1945 369.4584,287.0997 393.2955,301.8991 " fill="none" id="TWRP\\Database\\Settings\\General_Option_Setting-backto-TWRP\\Database\\Settings\\Other_Similar_Settings" style="stroke: #FFFF00; stroke-width: 1.0; stroke-dasharray: 7.0,7.0;"/><polygon fill="none" points="310.3205,258.6232,297.0212,242.1269,317.705,246.7291,310.3205,258.6232" style="stroke: #FFFF00; stroke-width: 1.0;"/><!--MD5=[2b6ec84c66f9e0d63575f17bc3cb4d29]
link TWRP\\Database\\General_Options to TWRP\\Database\\Settings\\General_Option_Setting--><path codeLine="51" d="M219.0986,104.2782 C221.5738,120.6766 224.5813,140.6013 227.2445,158.2448 " fill="none" id="TWRP\\Database\\General_Options-to-TWRP\\Database\\Settings\\General_Option_Setting" style="stroke: #FFFF00; stroke-width: 1.0;"/><polygon fill="#FFFF00" points="228.059,163.6408,230.6706,154.1445,227.3126,158.6968,222.7603,155.3388,228.059,163.6408" style="stroke: #FFFF00; stroke-width: 1.0;"/><!--MD5=[a09627e06ec86fe30ec26f7845a36b60]
link TWRP\\Database\\Query_Options to TWRP\\Database\\Inline_Icons_Option--><!--MD5=[9b650868dee79c2b8cf04047a40fe3bc]
link TWRP\\Database\\Query_Options to TWRP\\Database\\Aside_Options--><!--MD5=[50f885f9320b694e1fa17f4a2002f355]
@startuml
set namespaceSeparator \\

    skinparam {
        padding 2
        backgroundColor #222
        shadowing false

        classFontColor #eee
        classStereotypeFontColor #eee
        classBorderColor #111
        classFontSize 14
        ClassAttributeFontColor #eee
        ClassAttributeFontSize 13
        ClassAttributeIconSize 15

        PackageBackgroundColor #2c2c2c
        PackageBorderColor #111
        PackageFontColor #eee

        ArrowColor yellow

        circledCharacterFontColor black
        circledCharacterFontSize 16
        circledCharacterFontStyle plain
        circledCharacterRadius 10

        <<public class>>classBackgroundColor #004b00/#003b00
        <<public class>>classFontSize 16

        <<private class>>classBackgroundColor #5d0000/#4d0000

        <<protected class>>classBackgroundColor #d16300/#c15300

        <<abstract class>>classBorderColor #755800
    }


namespace TWRP\\Database {
	class Query_Options <<public class>> {}
	class Inline_Icons_Option <<public class>> {}
	class General_Options <<public class>> {}
	class Aside_Options <<public class>> {}

	namespace Settings {
		abstract General_Option_Setting <<private class>> <<abstract class>> {}
		class Accent_Color <<private class>> implements General_Option_Setting {}
		class Author_Icon <<private class>> implements General_Option_Setting {}
		class Other_Similar_Settings <<private class>> implements General_Option_Setting {}
	}

	General_Options - -> TWRP\\Database\\Settings\\General_Option_Setting
}
@enduml

PlantUML version 1.2020.19(Mon Oct 12 15:10:01 UTC 2020)
(GPL source distribution)
Java Runtime: OpenJDK Runtime Environment
JVM: OpenJDK 64-Bit Server VM
Default Encoding: UTF-8
Language: en
Country: null
--></g></svg>