<?xml version="1.0" encoding="UTF-8" standalone="no"?><svg xmlns="http://www.w3.org/2000/svg" xmlns:xlink="http://www.w3.org/1999/xlink" contentScriptType="application/ecmascript" contentStyleType="text/css" height="389px" preserveAspectRatio="none" style="width:706px;height:389px;background:#222222;" version="1.1" viewBox="0 0 706 389" width="706px" zoomAndPan="magnify"><defs><linearGradient id="g13n8cx1myh7890" x1="0%" x2="100%" y1="0%" y2="100%"><stop offset="0%" stop-color="#004B00"/><stop offset="100%" stop-color="#003B00"/></linearGradient><linearGradient id="g13n8cx1myh7891" x1="0%" x2="100%" y1="0%" y2="100%"><stop offset="0%" stop-color="#5D0000"/><stop offset="100%" stop-color="#4D0000"/></linearGradient></defs><g><!--MD5=[208446ed48ff3b8b222434ebe5a8bbf9]
cluster TWRP\\Database--><rect fill="#2C2C2C" height="376" style="stroke:#111111;stroke-width:1.5;" width="693" x="7" y="7"/><text fill="#EEEEEE" font-family="sans-serif" font-size="14" font-weight="bold" lengthAdjust="spacing" textLength="123" x="292" y="23.9951">TWRP\Database</text><!--MD5=[c525a579bcf727484c3ef1d8ee8897d6]
cluster TWRP\\Database\\Settings--><rect fill="#2C2C2C" height="241" style="stroke:#111111;stroke-width:1.5;" width="523" x="15" y="134"/><text fill="#EEEEEE" font-family="sans-serif" font-size="14" font-weight="bold" lengthAdjust="spacing" textLength="65" x="244" y="150.9951">Settings</text><!--MD5=[ec4761abb968f357dc378c4bc3e66f1f]
class TWRP\\Database\\Query_Options--><rect codeLine="41" fill="url(#g13n8cx1myh7890)" height="66.5938" id="TWRP\\Database\\Query_Options" style="stroke:#111111;stroke-width:1.5;" width="151" x="321.5" y="38"/><ellipse cx="335.5" cy="63.2969" fill="#ADD1B2" rx="10" ry="10" style="stroke:#111111;stroke-width:1.0;"/><path d="M337.8906,68.875 Q337.2813,69.2031 336.6406,69.3594 Q336.0156,69.5313 335.3125,69.5313 Q333.0625,69.5313 331.8281,67.9375 Q330.5938,66.3438 330.5938,63.4688 Q330.5938,60.6094 331.8281,59.0156 Q333.0781,57.4219 335.3125,57.4219 Q336.0156,57.4219 336.6406,57.5781 Q337.2813,57.7344 337.8906,58.0625 L337.8906,59.6719 Q337.3125,59.2031 336.6406,58.9531 Q335.9844,58.7031 335.3125,58.7031 Q333.7656,58.7031 333,59.8906 Q332.2344,61.0781 332.2344,63.4688 Q332.2344,65.8594 333,67.0469 Q333.7656,68.2344 335.3125,68.2344 Q336,68.2344 336.6563,67.9844 Q337.3125,67.7344 337.8906,67.2656 L337.8906,68.875 Z " fill="#000000"/><text fill="#EEEEEE" font-family="sans-serif" font-size="12" font-style="italic" lengthAdjust="spacing" textLength="87" x="365.5" y="56.1387">«public class»</text><text fill="#EEEEEE" font-family="sans-serif" font-size="16" lengthAdjust="spacing" textLength="117" x="350.5" y="77.8203">Query_Options</text><line style="stroke:#111111;stroke-width:1.5;" x1="322.5" x2="471.5" y1="88.5938" y2="88.5938"/><line style="stroke:#111111;stroke-width:1.5;" x1="322.5" x2="471.5" y1="96.5938" y2="96.5938"/><!--MD5=[883d11e6edbbd8d93124b74558c38c1e]
class TWRP\\Database\\Inline_Icons_Option--><rect codeLine="42" fill="url(#g13n8cx1myh7890)" height="66.5938" id="TWRP\\Database\\Inline_Icons_Option" style="stroke:#111111;stroke-width:1.5;" width="185" x="507.5" y="38"/><ellipse cx="521.5" cy="63.2969" fill="#ADD1B2" rx="10" ry="10" style="stroke:#111111;stroke-width:1.0;"/><path d="M523.8906,68.875 Q523.2813,69.2031 522.6406,69.3594 Q522.0156,69.5313 521.3125,69.5313 Q519.0625,69.5313 517.8281,67.9375 Q516.5938,66.3438 516.5938,63.4688 Q516.5938,60.6094 517.8281,59.0156 Q519.0781,57.4219 521.3125,57.4219 Q522.0156,57.4219 522.6406,57.5781 Q523.2813,57.7344 523.8906,58.0625 L523.8906,59.6719 Q523.3125,59.2031 522.6406,58.9531 Q521.9844,58.7031 521.3125,58.7031 Q519.7656,58.7031 519,59.8906 Q518.2344,61.0781 518.2344,63.4688 Q518.2344,65.8594 519,67.0469 Q519.7656,68.2344 521.3125,68.2344 Q522,68.2344 522.6563,67.9844 Q523.3125,67.7344 523.8906,67.2656 L523.8906,68.875 Z " fill="#000000"/><text fill="#EEEEEE" font-family="sans-serif" font-size="12" font-style="italic" lengthAdjust="spacing" textLength="87" x="568.5" y="56.1387">«public class»</text><text fill="#EEEEEE" font-family="sans-serif" font-size="16" lengthAdjust="spacing" textLength="151" x="536.5" y="77.8203">Inline_Icons_Option</text><line style="stroke:#111111;stroke-width:1.5;" x1="508.5" x2="691.5" y1="88.5938" y2="88.5938"/><line style="stroke:#111111;stroke-width:1.5;" x1="508.5" x2="691.5" y1="96.5938" y2="96.5938"/><!--MD5=[e0df434e339c97a5e1f3e848788f6ce6]
class TWRP\\Database\\General_Options--><rect codeLine="43" fill="url(#g13n8cx1myh7890)" height="66.5938" id="TWRP\\Database\\General_Options" style="stroke:#111111;stroke-width:1.5;" width="162" x="124" y="38"/><ellipse cx="138" cy="63.2969" fill="#ADD1B2" rx="10" ry="10" style="stroke:#111111;stroke-width:1.0;"/><path d="M140.3906,68.875 Q139.7813,69.2031 139.1406,69.3594 Q138.5156,69.5313 137.8125,69.5313 Q135.5625,69.5313 134.3281,67.9375 Q133.0938,66.3438 133.0938,63.4688 Q133.0938,60.6094 134.3281,59.0156 Q135.5781,57.4219 137.8125,57.4219 Q138.5156,57.4219 139.1406,57.5781 Q139.7813,57.7344 140.3906,58.0625 L140.3906,59.6719 Q139.8125,59.2031 139.1406,58.9531 Q138.4844,58.7031 137.8125,58.7031 Q136.2656,58.7031 135.5,59.8906 Q134.7344,61.0781 134.7344,63.4688 Q134.7344,65.8594 135.5,67.0469 Q136.2656,68.2344 137.8125,68.2344 Q138.5,68.2344 139.1563,67.9844 Q139.8125,67.7344 140.3906,67.2656 L140.3906,68.875 Z " fill="#000000"/><text fill="#EEEEEE" font-family="sans-serif" font-size="12" font-style="italic" lengthAdjust="spacing" textLength="87" x="173.5" y="56.1387">«public class»</text><text fill="#EEEEEE" font-family="sans-serif" font-size="16" lengthAdjust="spacing" textLength="128" x="153" y="77.8203">General_Options</text><line style="stroke:#111111;stroke-width:1.5;" x1="125" x2="285" y1="88.5938" y2="88.5938"/><line style="stroke:#111111;stroke-width:1.5;" x1="125" x2="285" y1="96.5938" y2="96.5938"/><!--MD5=[6c3c191129bb881ce4bc77bf6e71f3e4]
class TWRP\\Database\\Aside_Options--><rect codeLine="44" fill="url(#g13n8cx1myh7890)" height="66.5938" id="TWRP\\Database\\Aside_Options" style="stroke:#111111;stroke-width:1.5;" width="145" x="546.5" y="170.5"/><ellipse cx="560.5" cy="195.7969" fill="#ADD1B2" rx="10" ry="10" style="stroke:#111111;stroke-width:1.0;"/><path d="M562.8906,201.375 Q562.2813,201.7031 561.6406,201.8594 Q561.0156,202.0313 560.3125,202.0313 Q558.0625,202.0313 556.8281,200.4375 Q555.5938,198.8438 555.5938,195.9688 Q555.5938,193.1094 556.8281,191.5156 Q558.0781,189.9219 560.3125,189.9219 Q561.0156,189.9219 561.6406,190.0781 Q562.2813,190.2344 562.8906,190.5625 L562.8906,192.1719 Q562.3125,191.7031 561.6406,191.4531 Q560.9844,191.2031 560.3125,191.2031 Q558.7656,191.2031 558,192.3906 Q557.2344,193.5781 557.2344,195.9688 Q557.2344,198.3594 558,199.5469 Q558.7656,200.7344 560.3125,200.7344 Q561,200.7344 561.6563,200.4844 Q562.3125,200.2344 562.8906,199.7656 L562.8906,201.375 Z " fill="#000000"/><text fill="#EEEEEE" font-family="sans-serif" font-size="12" font-style="italic" lengthAdjust="spacing" textLength="87" x="587.5" y="188.6387">«public class»</text><text fill="#EEEEEE" font-family="sans-serif" font-size="16" lengthAdjust="spacing" textLength="111" x="575.5" y="210.3203">Aside_Options</text><line style="stroke:#111111;stroke-width:1.5;" x1="547.5" x2="690.5" y1="221.0938" y2="221.0938"/><line style="stroke:#111111;stroke-width:1.5;" x1="547.5" x2="690.5" y1="229.0938" y2="229.0938"/><!--MD5=[b79175677072c04af37ff4919d542f11]
class TWRP\\Database\\Settings\\General_Option_Setting--><rect codeLine="47" fill="url(#g13n8cx1myh7891)" height="78.2344" id="TWRP\\Database\\Settings\\General_Option_Setting" style="stroke:#755800;stroke-width:1.5;" width="197" x="126.5" y="165"/><ellipse cx="140.5" cy="196.1172" fill="#A9DCDF" rx="10" ry="10" style="stroke:#755800;stroke-width:1.0;"/><path d="M140.3125,191.3359 L138.6563,197.3047 L141.9844,197.3047 L140.3125,191.3359 Z M139.3594,189.9453 L141.2813,189.9453 L144.8438,201.6172 L143.2188,201.6172 L142.3594,198.5703 L138.2656,198.5703 L137.4219,201.6172 L135.7969,201.6172 L139.3594,189.9453 Z " fill="#000000"/><text fill="#EEEEEE" font-family="sans-serif" font-size="12" font-style="italic" lengthAdjust="spacing" textLength="93" x="190.5" y="183.1387">«private class»</text><text fill="#EEEEEE" font-family="sans-serif" font-size="12" font-style="italic" lengthAdjust="spacing" textLength="103" x="185.5" y="197.1074">«abstract class»</text><text fill="#EEEEEE" font-family="sans-serif" font-size="14" font-style="italic" lengthAdjust="spacing" textLength="163" x="155.5" y="216.9326">General_Option_Setting</text><line style="stroke:#755800;stroke-width:1.5;" x1="127.5" x2="322.5" y1="227.2344" y2="227.2344"/><line style="stroke:#755800;stroke-width:1.5;" x1="127.5" x2="322.5" y1="235.2344" y2="235.2344"/><!--MD5=[d80241d1633b5e61f5ea5ee8fa964939]
class TWRP\\Database\\Settings\\Accent_Color--><rect codeLine="48" fill="url(#g13n8cx1myh7891)" height="64.2656" id="TWRP\\Database\\Settings\\Accent_Color" style="stroke:#111111;stroke-width:1.5;" width="125" x="23.5" y="303"/><ellipse cx="37.5" cy="327.1328" fill="#ADD1B2" rx="10" ry="10" style="stroke:#111111;stroke-width:1.0;"/><path d="M39.8906,332.7109 Q39.2813,333.0391 38.6406,333.1953 Q38.0156,333.3672 37.3125,333.3672 Q35.0625,333.3672 33.8281,331.7734 Q32.5938,330.1797 32.5938,327.3047 Q32.5938,324.4453 33.8281,322.8516 Q35.0781,321.2578 37.3125,321.2578 Q38.0156,321.2578 38.6406,321.4141 Q39.2813,321.5703 39.8906,321.8984 L39.8906,323.5078 Q39.3125,323.0391 38.6406,322.7891 Q37.9844,322.5391 37.3125,322.5391 Q35.7656,322.5391 35,323.7266 Q34.2344,324.9141 34.2344,327.3047 Q34.2344,329.6953 35,330.8828 Q35.7656,332.0703 37.3125,332.0703 Q38,332.0703 38.6563,331.8203 Q39.3125,331.5703 39.8906,331.1016 L39.8906,332.7109 Z " fill="#000000"/><text fill="#EEEEEE" font-family="sans-serif" font-size="12" font-style="italic" lengthAdjust="spacing" textLength="93" x="51.5" y="321.1387">«private class»</text><text fill="#EEEEEE" font-family="sans-serif" font-size="14" lengthAdjust="spacing" textLength="91" x="52.5" y="340.9639">Accent_Color</text><line style="stroke:#111111;stroke-width:1.5;" x1="24.5" x2="147.5" y1="351.2656" y2="351.2656"/><line style="stroke:#111111;stroke-width:1.5;" x1="24.5" x2="147.5" y1="359.2656" y2="359.2656"/><!--MD5=[417e70bc30e231184b3cf1b5fb97d9b4]
class TWRP\\Database\\Settings\\Author_Icon--><rect codeLine="49" fill="url(#g13n8cx1myh7891)" height="64.2656" id="TWRP\\Database\\Settings\\Author_Icon" style="stroke:#111111;stroke-width:1.5;" width="123" x="183.5" y="303"/><ellipse cx="197.5" cy="327.1328" fill="#ADD1B2" rx="10" ry="10" style="stroke:#111111;stroke-width:1.0;"/><path d="M199.8906,332.7109 Q199.2813,333.0391 198.6406,333.1953 Q198.0156,333.3672 197.3125,333.3672 Q195.0625,333.3672 193.8281,331.7734 Q192.5938,330.1797 192.5938,327.3047 Q192.5938,324.4453 193.8281,322.8516 Q195.0781,321.2578 197.3125,321.2578 Q198.0156,321.2578 198.6406,321.4141 Q199.2813,321.5703 199.8906,321.8984 L199.8906,323.5078 Q199.3125,323.0391 198.6406,322.7891 Q197.9844,322.5391 197.3125,322.5391 Q195.7656,322.5391 195,323.7266 Q194.2344,324.9141 194.2344,327.3047 Q194.2344,329.6953 195,330.8828 Q195.7656,332.0703 197.3125,332.0703 Q198,332.0703 198.6563,331.8203 Q199.3125,331.5703 199.8906,331.1016 L199.8906,332.7109 Z " fill="#000000"/><text fill="#EEEEEE" font-family="sans-serif" font-size="12" font-style="italic" lengthAdjust="spacing" textLength="93" x="210.5" y="321.1387">«private class»</text><text fill="#EEEEEE" font-family="sans-serif" font-size="14" lengthAdjust="spacing" textLength="82" x="216" y="340.9639">Author_Icon</text><line style="stroke:#111111;stroke-width:1.5;" x1="184.5" x2="305.5" y1="351.2656" y2="351.2656"/><line style="stroke:#111111;stroke-width:1.5;" x1="184.5" x2="305.5" y1="359.2656" y2="359.2656"/><!--MD5=[e779540efb0c5cd5b6d0f2de0a26aa41]
class TWRP\\Database\\Settings\\Other_Similar_Settings--><rect codeLine="50" fill="url(#g13n8cx1myh7891)" height="64.2656" id="TWRP\\Database\\Settings\\Other_Similar_Settings" style="stroke:#111111;stroke-width:1.5;" width="188" x="342" y="303"/><ellipse cx="356" cy="327.1328" fill="#ADD1B2" rx="10" ry="10" style="stroke:#111111;stroke-width:1.0;"/><path d="M358.3906,332.7109 Q357.7813,333.0391 357.1406,333.1953 Q356.5156,333.3672 355.8125,333.3672 Q353.5625,333.3672 352.3281,331.7734 Q351.0938,330.1797 351.0938,327.3047 Q351.0938,324.4453 352.3281,322.8516 Q353.5781,321.2578 355.8125,321.2578 Q356.5156,321.2578 357.1406,321.4141 Q357.7813,321.5703 358.3906,321.8984 L358.3906,323.5078 Q357.8125,323.0391 357.1406,322.7891 Q356.4844,322.5391 355.8125,322.5391 Q354.2656,322.5391 353.5,323.7266 Q352.7344,324.9141 352.7344,327.3047 Q352.7344,329.6953 353.5,330.8828 Q354.2656,332.0703 355.8125,332.0703 Q356.5,332.0703 357.1563,331.8203 Q357.8125,331.5703 358.3906,331.1016 L358.3906,332.7109 Z " fill="#000000"/><text fill="#EEEEEE" font-family="sans-serif" font-size="12" font-style="italic" lengthAdjust="spacing" textLength="93" x="401.5" y="321.1387">«private class»</text><text fill="#EEEEEE" font-family="sans-serif" font-size="14" lengthAdjust="spacing" textLength="154" x="371" y="340.9639">Other_Similar_Settings</text><line style="stroke:#111111;stroke-width:1.5;" x1="343" x2="529" y1="351.2656" y2="351.2656"/><line style="stroke:#111111;stroke-width:1.5;" x1="343" x2="529" y1="359.2656" y2="359.2656"/><!--MD5=[b6cd0d262a9c008ede21841e73922793]
reverse link TWRP\\Database\\Settings\\General_Option_Setting to TWRP\\Database\\Settings\\Accent_Color--><path d="M168.6212,257.134 C152.2127,272.5981 134.7916,289.0165 120.198,302.7703 " fill="none" id="TWRP\\Database\\Settings\\General_Option_Setting-backto-TWRP\\Database\\Settings\\Accent_Color" style="stroke:#FFFF00;stroke-width:1.0;stroke-dasharray:7.0,7.0;"/><polygon fill="none" points="163.9396,251.9273,183.2954,243.3043,173.5416,262.1156,163.9396,251.9273" style="stroke:#FFFF00;stroke-width:1.0;"/><!--MD5=[7b4e272d151fa0269ddd2e81a4b4dca2]
reverse link TWRP\\Database\\Settings\\General_Option_Setting to TWRP\\Database\\Settings\\Author_Icon--><path d="M234.058,263.33 C236.1309,276.9071 238.2582,290.841 240.0794,302.7703 " fill="none" id="TWRP\\Database\\Settings\\General_Option_Setting-backto-TWRP\\Database\\Settings\\Author_Icon" style="stroke:#FFFF00;stroke-width:1.0;stroke-dasharray:7.0,7.0;"/><polygon fill="none" points="227.0994,264.1317,231.0007,243.3043,240.939,262.0187,227.0994,264.1317" style="stroke:#FFFF00;stroke-width:1.0;"/><!--MD5=[d3877425354de83233aa505ebe920f29]
reverse link TWRP\\Database\\Settings\\General_Option_Setting to TWRP\\Database\\Settings\\Other_Similar_Settings--><path d="M305.065,253.7086 C331.6187,270.1945 360.4584,288.0997 384.2955,302.8991 " fill="none" id="TWRP\\Database\\Settings\\General_Option_Setting-backto-TWRP\\Database\\Settings\\Other_Similar_Settings" style="stroke:#FFFF00;stroke-width:1.0;stroke-dasharray:7.0,7.0;"/><polygon fill="none" points="301.3205,259.6232,288.0212,243.1269,308.705,247.7291,301.3205,259.6232" style="stroke:#FFFF00;stroke-width:1.0;"/><!--MD5=[2b6ec84c66f9e0d63575f17bc3cb4d29]
link TWRP\\Database\\General_Options to TWRP\\Database\\Settings\\General_Option_Setting--><path codeLine="53" d="M210.0986,105.2782 C212.5738,121.6766 215.5813,141.6013 218.2445,159.2448 " fill="none" id="TWRP\\Database\\General_Options-to-TWRP\\Database\\Settings\\General_Option_Setting" style="stroke:#FFFF00;stroke-width:1.0;"/><polygon fill="#FFFF00" points="219.059,164.6408,221.6706,155.1445,218.3126,159.6968,213.7603,156.3388,219.059,164.6408" style="stroke:#FFFF00;stroke-width:1.0;"/><!--MD5=[a09627e06ec86fe30ec26f7845a36b60]
link TWRP\\Database\\Query_Options to TWRP\\Database\\Inline_Icons_Option--><!--MD5=[9b650868dee79c2b8cf04047a40fe3bc]
link TWRP\\Database\\Query_Options to TWRP\\Database\\Aside_Options--><!--MD5=[fab04215f899941cc4918dae11eb9d51]
@startuml
set namespaceSeparator \\

    skinparam {
        padding 2
        backgroundColor #222
        shadowing false

        classFontColor #eee
        classStereotypeFontColor #eee
        classBorderColor #111
        classFontSize 14
        ClassAttributeFontColor #eee
        ClassAttributeFontSize 13
        ClassAttributeIconSize 15

        PackageBackgroundColor #2c2c2c
        PackageBorderColor #111
        PackageFontColor #eee

        ArrowColor yellow

        circledCharacterFontColor black
        circledCharacterFontSize 16
        circledCharacterFontStyle plain
        circledCharacterRadius 10

        packageStyle rectangle

        <<public class>>classBackgroundColor #004b00/#003b00
        <<public class>>classFontSize 16

        <<private class>>classBackgroundColor #5d0000/#4d0000

        <<protected class>>classBackgroundColor #d16300/#c15300

        <<abstract class>>classBorderColor #755800
    }


namespace TWRP\\Database {
	class Query_Options <<public class>> {}
	class Inline_Icons_Option <<public class>> {}
	class General_Options <<public class>> {}
	class Aside_Options <<public class>> {}

	namespace Settings {
		abstract General_Option_Setting <<private class>> <<abstract class>> {}
		class Accent_Color <<private class>> implements General_Option_Setting {}
		class Author_Icon <<private class>> implements General_Option_Setting {}
		class Other_Similar_Settings <<private class>> implements General_Option_Setting {}
	}

	General_Options - -> TWRP\\Database\\Settings\\General_Option_Setting
}
@enduml

PlantUML version 1.2021.00(Sun Jan 10 10:25:05 UTC 2021)
(GPL source distribution)
Java Runtime: OpenJDK Runtime Environment
JVM: OpenJDK 64-Bit Server VM
Default Encoding: UTF-8
Language: en
Country: null
--></g></svg>