<?xml version="1.0" encoding="UTF-8" standalone="no"?><svg xmlns="http://www.w3.org/2000/svg" xmlns:xlink="http://www.w3.org/1999/xlink" contentScriptType="application/ecmascript" contentStyleType="text/css" height="312px" preserveAspectRatio="none" style="width:925px;height:312px;background:#222222;" version="1.1" viewBox="0 0 925 312" width="925px" zoomAndPan="magnify"><defs><filter height="300%" id="fe7cv15o87wfp" width="300%" x="-1" y="-1"><feGaussianBlur result="blurOut" stdDeviation="2.0"/><feColorMatrix in="blurOut" result="blurOut2" type="matrix" values="0 0 0 0 0 0 0 0 0 0 0 0 0 0 0 0 0 0 .4 0"/><feOffset dx="4.0" dy="4.0" in="blurOut2" result="blurOut3"/><feBlend in="SourceGraphic" in2="blurOut3" mode="normal"/></filter></defs><g><!--MD5=[3fef733905f528c0fe78424703a98fc1]
cluster General Settings Creator--><polygon fill="#DDDDDD" filter="url(#fe7cv15o87wfp)" points="16,6,219,6,226,28.2969,908,28.2969,908,305,16,305,16,6" style="stroke: #000000; stroke-width: 1.5;"/><line style="stroke: #000000; stroke-width: 1.5;" x1="16" x2="226" y1="28.2969" y2="28.2969"/><text fill="#000000" font-family="sans-serif" font-size="14" font-weight="bold" lengthAdjust="spacingAndGlyphs" textLength="197" x="20" y="20.9951">General Settings Creator</text><!--MD5=[a8be521b82384408c14ed1d12d01d74b]
class General_Settings_Factory--><rect codeLine="7" fill="#FEFECE" filter="url(#fe7cv15o87wfp)" height="48" id="General_Settings_Factory" style="stroke: #A80036; stroke-width: 1.5;" width="191" x="214.5" y="33"/><ellipse cx="229.5" cy="49" fill="#ADD1B2" rx="11" ry="11" style="stroke: #A80036; stroke-width: 1.0;"/><path d="M232.4688,54.6406 Q231.8906,54.9375 231.25,55.0781 Q230.6094,55.2344 229.9063,55.2344 Q227.4063,55.2344 226.0781,53.5938 Q224.7656,51.9375 224.7656,48.8125 Q224.7656,45.6875 226.0781,44.0313 Q227.4063,42.375 229.9063,42.375 Q230.6094,42.375 231.25,42.5313 Q231.9063,42.6875 232.4688,42.9844 L232.4688,45.7031 Q231.8438,45.125 231.25,44.8594 Q230.6563,44.5781 230.0313,44.5781 Q228.6875,44.5781 228,45.6563 Q227.3125,46.7188 227.3125,48.8125 Q227.3125,50.9063 228,51.9844 Q228.6875,53.0469 230.0313,53.0469 Q230.6563,53.0469 231.25,52.7813 Q231.8438,52.5 232.4688,51.9219 L232.4688,54.6406 Z "/><text fill="#000000" font-family="sans-serif" font-size="12" lengthAdjust="spacingAndGlyphs" textLength="159" x="243.5" y="53.1543">General_Settings_Factory</text><line style="stroke: #A80036; stroke-width: 1.5;" x1="215.5" x2="404.5" y1="65" y2="65"/><line style="stroke: #A80036; stroke-width: 1.5;" x1="215.5" x2="404.5" y1="73" y2="73"/><!--MD5=[9b6bb3cdfae7ec5bc2976c073d2a4cfe]
class General_Settings_Creator--><rect codeLine="9" fill="#FEFECE" filter="url(#fe7cv15o87wfp)" height="48" id="General_Settings_Creator" style="stroke: #A80036; stroke-width: 1.5;" width="192" x="214" y="141"/><ellipse cx="229" cy="157" fill="#B4A7E5" rx="11" ry="11" style="stroke: #A80036; stroke-width: 1.0;"/><path d="M224.9219,152.7656 L224.9219,150.6094 L232.3125,150.6094 L232.3125,152.7656 L229.8438,152.7656 L229.8438,160.8438 L232.3125,160.8438 L232.3125,163 L224.9219,163 L224.9219,160.8438 L227.3906,160.8438 L227.3906,152.7656 L224.9219,152.7656 Z "/><text fill="#000000" font-family="sans-serif" font-size="12" font-style="italic" lengthAdjust="spacingAndGlyphs" textLength="160" x="243" y="161.1543">General_Settings_Creator</text><line style="stroke: #A80036; stroke-width: 1.5;" x1="215" x2="405" y1="173" y2="173"/><line style="stroke: #A80036; stroke-width: 1.5;" x1="215" x2="405" y1="181" y2="181"/><!--MD5=[5de17b5d815dcc8ab119b84a3bc783cb]
class General_Select_Setting--><rect codeLine="10" fill="#FEFECE" filter="url(#fe7cv15o87wfp)" height="48" id="General_Select_Setting" style="stroke: #A80036; stroke-width: 1.5;" width="177" x="723.5" y="249"/><ellipse cx="738.5" cy="265" fill="#ADD1B2" rx="11" ry="11" style="stroke: #A80036; stroke-width: 1.0;"/><path d="M741.4688,270.6406 Q740.8906,270.9375 740.25,271.0781 Q739.6094,271.2344 738.9063,271.2344 Q736.4063,271.2344 735.0781,269.5938 Q733.7656,267.9375 733.7656,264.8125 Q733.7656,261.6875 735.0781,260.0313 Q736.4063,258.375 738.9063,258.375 Q739.6094,258.375 740.25,258.5313 Q740.9063,258.6875 741.4688,258.9844 L741.4688,261.7031 Q740.8438,261.125 740.25,260.8594 Q739.6563,260.5781 739.0313,260.5781 Q737.6875,260.5781 737,261.6563 Q736.3125,262.7188 736.3125,264.8125 Q736.3125,266.9063 737,267.9844 Q737.6875,269.0469 739.0313,269.0469 Q739.6563,269.0469 740.25,268.7813 Q740.8438,268.5 741.4688,267.9219 L741.4688,270.6406 Z "/><text fill="#000000" font-family="sans-serif" font-size="12" lengthAdjust="spacingAndGlyphs" textLength="145" x="752.5" y="269.1543">General_Select_Setting</text><line style="stroke: #A80036; stroke-width: 1.5;" x1="724.5" x2="899.5" y1="281" y2="281"/><line style="stroke: #A80036; stroke-width: 1.5;" x1="724.5" x2="899.5" y1="289" y2="289"/><!--MD5=[38cce3347a28bcc7769ae43d9751f150]
class General_Select_With_Switch_Setting--><rect codeLine="11" fill="#FEFECE" filter="url(#fe7cv15o87wfp)" height="48" id="General_Select_With_Switch_Setting" style="stroke: #A80036; stroke-width: 1.5;" width="256" x="432" y="249"/><ellipse cx="447" cy="265" fill="#ADD1B2" rx="11" ry="11" style="stroke: #A80036; stroke-width: 1.0;"/><path d="M449.9688,270.6406 Q449.3906,270.9375 448.75,271.0781 Q448.1094,271.2344 447.4063,271.2344 Q444.9063,271.2344 443.5781,269.5938 Q442.2656,267.9375 442.2656,264.8125 Q442.2656,261.6875 443.5781,260.0313 Q444.9063,258.375 447.4063,258.375 Q448.1094,258.375 448.75,258.5313 Q449.4063,258.6875 449.9688,258.9844 L449.9688,261.7031 Q449.3438,261.125 448.75,260.8594 Q448.1563,260.5781 447.5313,260.5781 Q446.1875,260.5781 445.5,261.6563 Q444.8125,262.7188 444.8125,264.8125 Q444.8125,266.9063 445.5,267.9844 Q446.1875,269.0469 447.5313,269.0469 Q448.1563,269.0469 448.75,268.7813 Q449.3438,268.5 449.9688,267.9219 L449.9688,270.6406 Z "/><text fill="#000000" font-family="sans-serif" font-size="12" lengthAdjust="spacingAndGlyphs" textLength="224" x="461" y="269.1543">General_Select_With_Switch_Setting</text><line style="stroke: #A80036; stroke-width: 1.5;" x1="433" x2="687" y1="281" y2="281"/><line style="stroke: #A80036; stroke-width: 1.5;" x1="433" x2="687" y1="289" y2="289"/><!--MD5=[9395760248497a50bbf42efa6838fec0]
class General_Text_Setting--><rect codeLine="12" fill="#FEFECE" filter="url(#fe7cv15o87wfp)" height="48" id="General_Text_Setting" style="stroke: #A80036; stroke-width: 1.5;" width="164" x="24" y="249"/><ellipse cx="39" cy="265" fill="#ADD1B2" rx="11" ry="11" style="stroke: #A80036; stroke-width: 1.0;"/><path d="M41.9688,270.6406 Q41.3906,270.9375 40.75,271.0781 Q40.1094,271.2344 39.4063,271.2344 Q36.9063,271.2344 35.5781,269.5938 Q34.2656,267.9375 34.2656,264.8125 Q34.2656,261.6875 35.5781,260.0313 Q36.9063,258.375 39.4063,258.375 Q40.1094,258.375 40.75,258.5313 Q41.4063,258.6875 41.9688,258.9844 L41.9688,261.7031 Q41.3438,261.125 40.75,260.8594 Q40.1563,260.5781 39.5313,260.5781 Q38.1875,260.5781 37.5,261.6563 Q36.8125,262.7188 36.8125,264.8125 Q36.8125,266.9063 37.5,267.9844 Q38.1875,269.0469 39.5313,269.0469 Q40.1563,269.0469 40.75,268.7813 Q41.3438,268.5 41.9688,267.9219 L41.9688,270.6406 Z "/><text fill="#000000" font-family="sans-serif" font-size="12" lengthAdjust="spacingAndGlyphs" textLength="132" x="53" y="269.1543">General_Text_Setting</text><line style="stroke: #A80036; stroke-width: 1.5;" x1="25" x2="187" y1="281" y2="281"/><line style="stroke: #A80036; stroke-width: 1.5;" x1="25" x2="187" y1="289" y2="289"/><!--MD5=[5ac334d1f7c8825f36594a0a03e18dc0]
class General_Radio_Setting--><rect codeLine="13" fill="#FEFECE" filter="url(#fe7cv15o87wfp)" height="48" id="General_Radio_Setting" style="stroke: #A80036; stroke-width: 1.5;" width="173" x="223.5" y="249"/><ellipse cx="238.5" cy="265" fill="#ADD1B2" rx="11" ry="11" style="stroke: #A80036; stroke-width: 1.0;"/><path d="M241.4688,270.6406 Q240.8906,270.9375 240.25,271.0781 Q239.6094,271.2344 238.9063,271.2344 Q236.4063,271.2344 235.0781,269.5938 Q233.7656,267.9375 233.7656,264.8125 Q233.7656,261.6875 235.0781,260.0313 Q236.4063,258.375 238.9063,258.375 Q239.6094,258.375 240.25,258.5313 Q240.9063,258.6875 241.4688,258.9844 L241.4688,261.7031 Q240.8438,261.125 240.25,260.8594 Q239.6563,260.5781 239.0313,260.5781 Q237.6875,260.5781 237,261.6563 Q236.3125,262.7188 236.3125,264.8125 Q236.3125,266.9063 237,267.9844 Q237.6875,269.0469 239.0313,269.0469 Q239.6563,269.0469 240.25,268.7813 Q240.8438,268.5 241.4688,267.9219 L241.4688,270.6406 Z "/><text fill="#000000" font-family="sans-serif" font-size="12" lengthAdjust="spacingAndGlyphs" textLength="141" x="252.5" y="269.1543">General_Radio_Setting</text><line style="stroke: #A80036; stroke-width: 1.5;" x1="224.5" x2="395.5" y1="281" y2="281"/><line style="stroke: #A80036; stroke-width: 1.5;" x1="224.5" x2="395.5" y1="289" y2="289"/><!--MD5=[31fbbbe0ca4fb70ad7ab9d1ab63e96e5]
link General_Settings_Factory to General_Settings_Creator--><path codeLine="15" d="M310,81.2373 C310,97.3565 310,118.6212 310,135.6911 " fill="none" id="General_Settings_Factory-to-General_Settings_Creator" style="stroke: #A80036; stroke-width: 1.0;"/><polygon fill="#A80036" points="310,140.8436,314,131.8436,310,135.8436,306,131.8436,310,140.8436" style="stroke: #A80036; stroke-width: 1.0;"/><!--MD5=[1cd599653b14e4a70adb3a12d4da470c]
reverse link General_Settings_Creator to General_Select_Setting--><path codeLine="16" d="M425.8157,189.1328 C504.819,205.7014 611.8041,228.3468 706,249 C711.6214,250.2325 717.4079,251.512 723.2404,252.8098 " fill="none" id="General_Settings_Creator-backto-General_Select_Setting" style="stroke: #A80036; stroke-width: 1.0; stroke-dasharray: 7.0,7.0;"/><polygon fill="none" points="424.2423,195.9552,406.1027,185.0029,427.1131,182.2527,424.2423,195.9552" style="stroke: #A80036; stroke-width: 1.0;"/><!--MD5=[68416cba36beb92d4f82003b68f3f172]
reverse link General_Settings_Creator to General_Text_Setting--><path codeLine="17" d="M246.5871,198.5716 C215.7534,214.8952 179.4021,234.1401 151.3885,248.9708 " fill="none" id="General_Settings_Creator-backto-General_Text_Setting" style="stroke: #A80036; stroke-width: 1.0; stroke-dasharray: 7.0,7.0;"/><polygon fill="none" points="243.5213,192.2742,264.4723,189.1029,250.0718,204.6472,243.5213,192.2742" style="stroke: #A80036; stroke-width: 1.0;"/><!--MD5=[fec4fee6a4cb092af7768c2f619239b9]
reverse link General_Settings_Creator to General_Radio_Setting--><path codeLine="18" d="M310,209.2911 C310,222.8171 310,237.1835 310,248.8436 " fill="none" id="General_Settings_Creator-backto-General_Radio_Setting" style="stroke: #A80036; stroke-width: 1.0; stroke-dasharray: 7.0,7.0;"/><polygon fill="none" points="303.0001,209.2373,310,189.2373,317.0001,209.2373,303.0001,209.2373" style="stroke: #A80036; stroke-width: 1.0;"/><!--MD5=[98fd3bc6f86940d8c8acaaef93e2049f]
link General_Select_With_Switch_Setting to General_Select_Setting--><path codeLine="19" d="M688.4609,273 C693.347,273 698.2331,273 703.1191,273 " fill="none" id="General_Select_With_Switch_Setting-to-General_Select_Setting" style="stroke: #A80036; stroke-width: 1.0;"/><polygon fill="none" points="703.2063,265.9999,723.2063,273,703.2063,279.9999,703.2063,265.9999" style="stroke: #A80036; stroke-width: 1.0;"/><!--MD5=[40eb74c23a9441cbc77e48d96e97d311]
@startuml

    skinparam backgroundColor #222


package "General Settings Creator" #DDDDDD {

class General_Settings_Factory

interface General_Settings_Creator
class General_Select_Setting
class General_Select_With_Switch_Setting
class General_Text_Setting
class General_Radio_Setting

General_Settings_Factory - -> General_Settings_Creator
General_Settings_Creator <|.. General_Select_Setting
General_Settings_Creator <|..  General_Text_Setting
General_Settings_Creator <|.. General_Radio_Setting
General_Select_Setting <|-l- General_Select_With_Switch_Setting

}
@enduml

PlantUML version 1.2020.19(Mon Oct 12 15:10:01 UTC 2020)
(GPL source distribution)
Java Runtime: OpenJDK Runtime Environment
JVM: OpenJDK 64-Bit Server VM
Default Encoding: UTF-8
Language: en
Country: null
--></g></svg>