<?xml version="1.0" encoding="UTF-8" standalone="no"?><svg xmlns="http://www.w3.org/2000/svg" xmlns:xlink="http://www.w3.org/1999/xlink" contentScriptType="application/ecmascript" contentStyleType="text/css" height="1085px" preserveAspectRatio="none" style="width:791px;height:1085px;background:#222222;" version="1.1" viewBox="0 0 791 1085" width="791px" zoomAndPan="magnify"><defs/><g><!--MD5=[d1106f2dd0f85b5e3de7c96203d41272]
cluster TWRP\Icons--><polygon fill="#444444" points="16,6,118,6,125,32.2969,774,32.2969,774,1078,16,1078,16,6" style="stroke: #111111; stroke-width: 1.5;"/><line style="stroke: #111111; stroke-width: 1.5;" x1="16" x2="125" y1="32.2969" y2="32.2969"/><text fill="#EEEEEE" font-family="sans-serif" font-size="14" font-weight="bold" lengthAdjust="spacingAndGlyphs" textLength="92" x="22" y="22.9951">TWRP\Icons</text><!--MD5=[4add89f23865d9608ef05f08bfd846b0]
cluster Definitions--><polygon fill="#444444" points="24,642,118,642,125,668.2969,766,668.2969,766,1070,24,1070,24,642" style="stroke: #111111; stroke-width: 1.5;"/><line style="stroke: #111111; stroke-width: 1.5;" x1="24" x2="125" y1="668.2969" y2="668.2969"/><text fill="#EEEEEE" font-family="sans-serif" font-size="14" font-weight="bold" lengthAdjust="spacingAndGlyphs" textLength="84" x="30" y="658.9951">Definitions</text><!--MD5=[8c5ea7d80c044f674c553439e68002b3]
class Icon_Factory--><rect codeLine="41" fill="#004B00" height="66.5938" id="Icon_Factory" style="stroke: #111111; stroke-width: 1.5;" width="139" x="380.5" y="37"/><ellipse cx="396.5" cy="62.2969" fill="#ADD1B2" rx="12" ry="12" style="stroke: #111111; stroke-width: 1.0;"/><path d="M399.4375,68.3281 Q398.75,68.6875 398.0313,68.8594 Q397.3281,69.0469 396.5313,69.0469 Q394.0156,69.0469 392.6094,67.2656 Q391.2188,65.4844 391.2188,62.25 Q391.2188,59.0313 392.625,57.2344 Q394.0313,55.4375 396.5313,55.4375 Q397.3281,55.4375 398.0313,55.625 Q398.75,55.7969 399.4375,56.1563 L399.4375,57.9844 Q398.7813,57.4375 398.0313,57.1563 Q397.2813,56.875 396.5313,56.875 Q394.7969,56.875 393.9375,58.2188 Q393.0781,59.5469 393.0781,62.25 Q393.0781,64.9375 393.9375,66.2813 Q394.7969,67.6094 396.5313,67.6094 Q397.2969,67.6094 398.0469,67.3281 Q398.7969,67.0469 399.4375,66.5156 L399.4375,68.3281 Z "/><text fill="#EEEEEE" font-family="sans-serif" font-size="12" font-style="italic" lengthAdjust="spacingAndGlyphs" textLength="87" x="420.5" y="55.1387">«public class»</text><text fill="#EEEEEE" font-family="sans-serif" font-size="16" lengthAdjust="spacingAndGlyphs" textLength="101" x="413.5" y="76.8203">Icon_Factory</text><line style="stroke: #111111; stroke-width: 1.5;" x1="381.5" x2="518.5" y1="87.5938" y2="87.5938"/><line style="stroke: #111111; stroke-width: 1.5;" x1="381.5" x2="518.5" y1="95.5938" y2="95.5938"/><!--MD5=[b4803fc849817a442dd66b19f993bafc]
class Icon--><rect codeLine="42" fill="#004B00" height="66.5938" id="Icon" style="stroke: #111111; stroke-width: 1.5;" width="121" x="396.5" y="247"/><ellipse cx="412.5" cy="272.2969" fill="#ADD1B2" rx="12" ry="12" style="stroke: #111111; stroke-width: 1.0;"/><path d="M415.4375,278.3281 Q414.75,278.6875 414.0313,278.8594 Q413.3281,279.0469 412.5313,279.0469 Q410.0156,279.0469 408.6094,277.2656 Q407.2188,275.4844 407.2188,272.25 Q407.2188,269.0313 408.625,267.2344 Q410.0313,265.4375 412.5313,265.4375 Q413.3281,265.4375 414.0313,265.625 Q414.75,265.7969 415.4375,266.1563 L415.4375,267.9844 Q414.7813,267.4375 414.0313,267.1563 Q413.2813,266.875 412.5313,266.875 Q410.7969,266.875 409.9375,268.2188 Q409.0781,269.5469 409.0781,272.25 Q409.0781,274.9375 409.9375,276.2813 Q410.7969,277.6094 412.5313,277.6094 Q413.2969,277.6094 414.0469,277.3281 Q414.7969,277.0469 415.4375,276.5156 L415.4375,278.3281 Z "/><text fill="#EEEEEE" font-family="sans-serif" font-size="12" font-style="italic" lengthAdjust="spacingAndGlyphs" textLength="87" x="427.5" y="265.1387">«public class»</text><text fill="#EEEEEE" font-family="sans-serif" font-size="16" lengthAdjust="spacingAndGlyphs" textLength="34" x="454" y="286.8203">Icon</text><line style="stroke: #111111; stroke-width: 1.5;" x1="397.5" x2="516.5" y1="297.5938" y2="297.5938"/><line style="stroke: #111111; stroke-width: 1.5;" x1="397.5" x2="516.5" y1="305.5938" y2="305.5938"/><!--MD5=[ee06e294b7c1b05a77a41ae434f7c065]
class Rating_Icon_Pack--><rect codeLine="43" fill="#004B00" height="66.5938" id="Rating_Icon_Pack" style="stroke: #111111; stroke-width: 1.5;" width="174" x="77" y="247"/><ellipse cx="93" cy="272.2969" fill="#ADD1B2" rx="12" ry="12" style="stroke: #111111; stroke-width: 1.0;"/><path d="M95.9375,278.3281 Q95.25,278.6875 94.5313,278.8594 Q93.8281,279.0469 93.0313,279.0469 Q90.5156,279.0469 89.1094,277.2656 Q87.7188,275.4844 87.7188,272.25 Q87.7188,269.0313 89.125,267.2344 Q90.5313,265.4375 93.0313,265.4375 Q93.8281,265.4375 94.5313,265.625 Q95.25,265.7969 95.9375,266.1563 L95.9375,267.9844 Q95.2813,267.4375 94.5313,267.1563 Q93.7813,266.875 93.0313,266.875 Q91.2969,266.875 90.4375,268.2188 Q89.5781,269.5469 89.5781,272.25 Q89.5781,274.9375 90.4375,276.2813 Q91.2969,277.6094 93.0313,277.6094 Q93.7969,277.6094 94.5469,277.3281 Q95.2969,277.0469 95.9375,276.5156 L95.9375,278.3281 Z "/><text fill="#EEEEEE" font-family="sans-serif" font-size="12" font-style="italic" lengthAdjust="spacingAndGlyphs" textLength="87" x="134.5" y="265.1387">«public class»</text><text fill="#EEEEEE" font-family="sans-serif" font-size="16" lengthAdjust="spacingAndGlyphs" textLength="136" x="110" y="286.8203">Rating_Icon_Pack</text><line style="stroke: #111111; stroke-width: 1.5;" x1="78" x2="250" y1="297.5938" y2="297.5938"/><line style="stroke: #111111; stroke-width: 1.5;" x1="78" x2="250" y1="305.5938" y2="305.5938"/><!--MD5=[ca946bbd4a118ab358d7d98c9f0b6b7d]
class Create_And_Enqueue_Icons--><rect codeLine="44" fill="#FEFECE" height="50" id="Create_And_Enqueue_Icons" style="stroke: #111111; stroke-width: 1.5;" width="232" x="95" y="45.5"/><ellipse cx="111" cy="62.5" fill="#ADD1B2" rx="12" ry="12" style="stroke: #111111; stroke-width: 1.0;"/><path d="M113.9375,68.5313 Q113.25,68.8906 112.5313,69.0625 Q111.8281,69.25 111.0313,69.25 Q108.5156,69.25 107.1094,67.4688 Q105.7188,65.6875 105.7188,62.4531 Q105.7188,59.2344 107.125,57.4375 Q108.5313,55.6406 111.0313,55.6406 Q111.8281,55.6406 112.5313,55.8281 Q113.25,56 113.9375,56.3594 L113.9375,58.1875 Q113.2813,57.6406 112.5313,57.3594 Q111.7813,57.0781 111.0313,57.0781 Q109.2969,57.0781 108.4375,58.4219 Q107.5781,59.75 107.5781,62.4531 Q107.5781,65.1406 108.4375,66.4844 Q109.2969,67.8125 111.0313,67.8125 Q111.7969,67.8125 112.5469,67.5313 Q113.2969,67.25 113.9375,66.7188 L113.9375,68.5313 Z "/><text fill="#EEEEEE" font-family="sans-serif" font-size="14" lengthAdjust="spacingAndGlyphs" textLength="194" x="128" y="67.3467">Create_And_Enqueue_Icons</text><line style="stroke: #111111; stroke-width: 1.5;" x1="96" x2="326" y1="79.5" y2="79.5"/><line style="stroke: #111111; stroke-width: 1.5;" x1="96" x2="326" y1="87.5" y2="87.5"/><!--MD5=[1787b35f73f7c04ad31c8b86f85aaa6f]
class Icon_Categories--><rect codeLine="46" fill="#5D0000" height="64.2656" id="Icon_Categories" style="stroke: #111111; stroke-width: 1.5;" width="149" x="382.5" y="457"/><ellipse cx="398.5" cy="481.1328" fill="#ADD1B2" rx="12" ry="12" style="stroke: #111111; stroke-width: 1.0;"/><path d="M401.4375,487.1641 Q400.75,487.5234 400.0313,487.6953 Q399.3281,487.8828 398.5313,487.8828 Q396.0156,487.8828 394.6094,486.1016 Q393.2188,484.3203 393.2188,481.0859 Q393.2188,477.8672 394.625,476.0703 Q396.0313,474.2734 398.5313,474.2734 Q399.3281,474.2734 400.0313,474.4609 Q400.75,474.6328 401.4375,474.9922 L401.4375,476.8203 Q400.7813,476.2734 400.0313,475.9922 Q399.2813,475.7109 398.5313,475.7109 Q396.7969,475.7109 395.9375,477.0547 Q395.0781,478.3828 395.0781,481.0859 Q395.0781,483.7734 395.9375,485.1172 Q396.7969,486.4453 398.5313,486.4453 Q399.2969,486.4453 400.0469,486.1641 Q400.7969,485.8828 401.4375,485.3516 L401.4375,487.1641 Z "/><text fill="#EEEEEE" font-family="sans-serif" font-size="12" font-style="italic" lengthAdjust="spacingAndGlyphs" textLength="93" x="424.5" y="475.1387">«private class»</text><text fill="#EEEEEE" font-family="sans-serif" font-size="14" lengthAdjust="spacingAndGlyphs" textLength="111" x="415.5" y="494.9639">Icon_Categories</text><line style="stroke: #111111; stroke-width: 1.5;" x1="383.5" x2="530.5" y1="505.2656" y2="505.2656"/><line style="stroke: #111111; stroke-width: 1.5;" x1="383.5" x2="530.5" y1="513.2656" y2="513.2656"/><!--MD5=[bd0e7ccddb1ff1701639919f455d884e]
class Icon_Definitions--><rect codeLine="49" fill="#5D0000" height="64.2656" id="Icon_Definitions" style="stroke: #111111; stroke-width: 1.5;" width="147" x="293.5" y="673"/><ellipse cx="309.5" cy="697.1328" fill="#B4A7E5" rx="12" ry="12" style="stroke: #111111; stroke-width: 1.0;"/><path d="M305.2656,690.5078 L312.5469,690.5078 L312.5469,692.0078 L309.7969,692.0078 L309.7969,702.1328 L312.5469,702.1328 L312.5469,703.6328 L305.2656,703.6328 L305.2656,702.1328 L308.0156,702.1328 L308.0156,692.0078 L305.2656,692.0078 L305.2656,690.5078 Z "/><text fill="#EEEEEE" font-family="sans-serif" font-size="12" font-style="italic" lengthAdjust="spacingAndGlyphs" textLength="93" x="334.5" y="691.1387">«private class»</text><text fill="#EEEEEE" font-family="sans-serif" font-size="14" font-style="italic" lengthAdjust="spacingAndGlyphs" textLength="109" x="326.5" y="710.9639">Icon_Definitions</text><line style="stroke: #111111; stroke-width: 1.5;" x1="294.5" x2="439.5" y1="721.2656" y2="721.2656"/><line style="stroke: #111111; stroke-width: 1.5;" x1="294.5" x2="439.5" y1="729.2656" y2="729.2656"/><!--MD5=[4802fc99fd1613e585344c104135e2f7]
class User_Icons--><rect codeLine="50" fill="#5D0000" height="64.2656" id="User_Icons" style="stroke: #111111; stroke-width: 1.5;" width="127" x="32.5" y="991"/><ellipse cx="48.5" cy="1015.1328" fill="#ADD1B2" rx="12" ry="12" style="stroke: #111111; stroke-width: 1.0;"/><path d="M51.4375,1021.1641 Q50.75,1021.5234 50.0313,1021.6953 Q49.3281,1021.8828 48.5313,1021.8828 Q46.0156,1021.8828 44.6094,1020.1016 Q43.2188,1018.3203 43.2188,1015.0859 Q43.2188,1011.8672 44.625,1010.0703 Q46.0313,1008.2734 48.5313,1008.2734 Q49.3281,1008.2734 50.0313,1008.4609 Q50.75,1008.6328 51.4375,1008.9922 L51.4375,1010.8203 Q50.7813,1010.2734 50.0313,1009.9922 Q49.2813,1009.7109 48.5313,1009.7109 Q46.7969,1009.7109 45.9375,1011.0547 Q45.0781,1012.3828 45.0781,1015.0859 Q45.0781,1017.7734 45.9375,1019.1172 Q46.7969,1020.4453 48.5313,1020.4453 Q49.2969,1020.4453 50.0469,1020.1641 Q50.7969,1019.8828 51.4375,1019.3516 L51.4375,1021.1641 Z "/><text fill="#EEEEEE" font-family="sans-serif" font-size="12" font-style="italic" lengthAdjust="spacingAndGlyphs" textLength="93" x="63.5" y="1009.1387">«private class»</text><text fill="#EEEEEE" font-family="sans-serif" font-size="14" lengthAdjust="spacingAndGlyphs" textLength="76" x="72" y="1028.9639">User_Icons</text><line style="stroke: #111111; stroke-width: 1.5;" x1="33.5" x2="158.5" y1="1039.2656" y2="1039.2656"/><line style="stroke: #111111; stroke-width: 1.5;" x1="33.5" x2="158.5" y1="1047.2656" y2="1047.2656"/><!--MD5=[290c6aae418ee2226c50491efc9bf53c]
class Date_Icons--><rect codeLine="51" fill="#5D0000" height="64.2656" id="Date_Icons" style="stroke: #111111; stroke-width: 1.5;" width="127" x="194.5" y="991"/><ellipse cx="210.5" cy="1015.1328" fill="#ADD1B2" rx="12" ry="12" style="stroke: #111111; stroke-width: 1.0;"/><path d="M213.4375,1021.1641 Q212.75,1021.5234 212.0313,1021.6953 Q211.3281,1021.8828 210.5313,1021.8828 Q208.0156,1021.8828 206.6094,1020.1016 Q205.2188,1018.3203 205.2188,1015.0859 Q205.2188,1011.8672 206.625,1010.0703 Q208.0313,1008.2734 210.5313,1008.2734 Q211.3281,1008.2734 212.0313,1008.4609 Q212.75,1008.6328 213.4375,1008.9922 L213.4375,1010.8203 Q212.7813,1010.2734 212.0313,1009.9922 Q211.2813,1009.7109 210.5313,1009.7109 Q208.7969,1009.7109 207.9375,1011.0547 Q207.0781,1012.3828 207.0781,1015.0859 Q207.0781,1017.7734 207.9375,1019.1172 Q208.7969,1020.4453 210.5313,1020.4453 Q211.2969,1020.4453 212.0469,1020.1641 Q212.7969,1019.8828 213.4375,1019.3516 L213.4375,1021.1641 Z "/><text fill="#EEEEEE" font-family="sans-serif" font-size="12" font-style="italic" lengthAdjust="spacingAndGlyphs" textLength="93" x="225.5" y="1009.1387">«private class»</text><text fill="#EEEEEE" font-family="sans-serif" font-size="14" lengthAdjust="spacingAndGlyphs" textLength="77" x="233.5" y="1028.9639">Date_Icons</text><line style="stroke: #111111; stroke-width: 1.5;" x1="195.5" x2="320.5" y1="1039.2656" y2="1039.2656"/><line style="stroke: #111111; stroke-width: 1.5;" x1="195.5" x2="320.5" y1="1047.2656" y2="1047.2656"/><!--MD5=[a2c6df38fdbc68924a11f0e9b3f1dd97]
class Other_Category_With_Icons--><rect codeLine="52" fill="#5D0000" height="78.2344" id="Other_Category_With_Icons" style="stroke: #111111; stroke-width: 1.5;" width="239" x="356.5" y="984"/><ellipse cx="372.5" cy="1015.1172" fill="#ADD1B2" rx="12" ry="12" style="stroke: #111111; stroke-width: 1.0;"/><path d="M375.4375,1021.1484 Q374.75,1021.5078 374.0313,1021.6797 Q373.3281,1021.8672 372.5313,1021.8672 Q370.0156,1021.8672 368.6094,1020.0859 Q367.2188,1018.3047 367.2188,1015.0703 Q367.2188,1011.8516 368.625,1010.0547 Q370.0313,1008.2578 372.5313,1008.2578 Q373.3281,1008.2578 374.0313,1008.4453 Q374.75,1008.6172 375.4375,1008.9766 L375.4375,1010.8047 Q374.7813,1010.2578 374.0313,1009.9766 Q373.2813,1009.6953 372.5313,1009.6953 Q370.7969,1009.6953 369.9375,1011.0391 Q369.0781,1012.3672 369.0781,1015.0703 Q369.0781,1017.7578 369.9375,1019.1016 Q370.7969,1020.4297 372.5313,1020.4297 Q373.2969,1020.4297 374.0469,1020.1484 Q374.7969,1019.8672 375.4375,1019.3359 L375.4375,1021.1484 Z "/><text fill="#EEEEEE" font-family="sans-serif" font-size="12" font-style="italic" lengthAdjust="spacingAndGlyphs" textLength="205" x="387.5" y="1002.1387">«more identical siblings classes»</text><text fill="#EEEEEE" font-family="sans-serif" font-size="12" font-style="italic" lengthAdjust="spacingAndGlyphs" textLength="93" x="443.5" y="1016.1074">«private class»</text><text fill="#EEEEEE" font-family="sans-serif" font-size="14" lengthAdjust="spacingAndGlyphs" textLength="189" x="395.5" y="1035.9326">Other_Category_With_Icons</text><line style="stroke: #111111; stroke-width: 1.5;" x1="357.5" x2="594.5" y1="1046.2344" y2="1046.2344"/><line style="stroke: #111111; stroke-width: 1.5;" x1="357.5" x2="594.5" y1="1054.2344" y2="1054.2344"/><!--MD5=[ea163c575ebd65fe5e60f6c83f9285c1]
class Rating_Icons--><rect codeLine="53" fill="#5D0000" height="64.2656" id="Rating_Icons" style="stroke: #111111; stroke-width: 1.5;" width="127" x="630.5" y="991"/><ellipse cx="646.5" cy="1015.1328" fill="#ADD1B2" rx="12" ry="12" style="stroke: #111111; stroke-width: 1.0;"/><path d="M649.4375,1021.1641 Q648.75,1021.5234 648.0313,1021.6953 Q647.3281,1021.8828 646.5313,1021.8828 Q644.0156,1021.8828 642.6094,1020.1016 Q641.2188,1018.3203 641.2188,1015.0859 Q641.2188,1011.8672 642.625,1010.0703 Q644.0313,1008.2734 646.5313,1008.2734 Q647.3281,1008.2734 648.0313,1008.4609 Q648.75,1008.6328 649.4375,1008.9922 L649.4375,1010.8203 Q648.7813,1010.2734 648.0313,1009.9922 Q647.2813,1009.7109 646.5313,1009.7109 Q644.7969,1009.7109 643.9375,1011.0547 Q643.0781,1012.3828 643.0781,1015.0859 Q643.0781,1017.7734 643.9375,1019.1172 Q644.7969,1020.4453 646.5313,1020.4453 Q647.2969,1020.4453 648.0469,1020.1641 Q648.7969,1019.8828 649.4375,1019.3516 L649.4375,1021.1641 Z "/><text fill="#EEEEEE" font-family="sans-serif" font-size="12" font-style="italic" lengthAdjust="spacingAndGlyphs" textLength="93" x="661.5" y="1009.1387">«private class»</text><text fill="#EEEEEE" font-family="sans-serif" font-size="14" lengthAdjust="spacingAndGlyphs" textLength="88" x="664" y="1028.9639">Rating_Icons</text><line style="stroke: #111111; stroke-width: 1.5;" x1="631.5" x2="756.5" y1="1039.2656" y2="1039.2656"/><line style="stroke: #111111; stroke-width: 1.5;" x1="631.5" x2="756.5" y1="1047.2656" y2="1047.2656"/><!--MD5=[852f239426205e2fe98725de62ab607a]
link Icon_Factory to Icon--><path codeLine="56" d="M451.1247,104.2401 C452.3748,141.7445 454.3905,202.2148 455.7054,241.6615 " fill="none" id="Icon_Factory-to-Icon" style="stroke: #FFFF00; stroke-width: 1.0; stroke-dasharray: 7.0,7.0;"/><polygon fill="#FFFF00" points="455.8781,246.8436,459.5758,237.7152,455.7114,241.8464,451.5802,237.982,455.8781,246.8436" style="stroke: #FFFF00; stroke-width: 1.0;"/><text fill="#000000" font-family="sans-serif" font-size="13" lengthAdjust="spacingAndGlyphs" textLength="111" x="456" y="180.0669">Create Icon by Id.</text><!--MD5=[206c5cbf3f2cd48a375cdfeb5f25e543]
link Icon_Factory to Rating_Icon_Pack--><path codeLine="57" d="M404.3662,104.0073 C352.4149,142.1534 267.8128,204.2738 214.0802,243.7278 " fill="none" id="Icon_Factory-to-Rating_Icon_Pack" style="stroke: #FFFF00; stroke-width: 1.0; stroke-dasharray: 7.0,7.0;"/><polygon fill="#FFFF00" points="209.9446,246.7644,219.5664,244.6617,213.9748,243.8051,214.8314,238.2134,209.9446,246.7644" style="stroke: #FFFF00; stroke-width: 1.0;"/><text fill="#000000" font-family="sans-serif" font-size="13" lengthAdjust="spacingAndGlyphs" textLength="115" x="324" y="180.0669">Create Pack by Id.</text><!--MD5=[4b0451d5fb719b69396037109cb32057]
link Rating_Icon_Pack to Icon--><path codeLine="59" d="M251.1164,280.5 C295.9265,280.5 349.6591,280.5 390.9938,280.5 " fill="none" id="Rating_Icon_Pack-to-Icon" style="stroke: #FFFF00; stroke-width: 1.0;"/><polygon fill="#FFFF00" points="396.2277,280.5,387.2277,276.5,391.2277,280.5,387.2277,284.5,396.2277,280.5" style="stroke: #FFFF00; stroke-width: 1.0;"/><text fill="#000000" font-family="sans-serif" font-size="13" lengthAdjust="spacingAndGlyphs" textLength="105" x="271.25" y="271.5669">Contains 3 Icons</text><!--MD5=[9f8c26779a7ee847c9078092d8cc0688]
link Icon to Icon_Categories--><path codeLine="61" d="M457,314.4632 C457,352.1212 457,412.6831 457,451.6515 " fill="none" id="Icon-to-Icon_Categories" style="stroke: #FFFF00; stroke-width: 1.0;"/><polygon fill="#FFFF00" points="457,456.7657,461,447.7657,457,451.7657,453,447.7657,457,456.7657" style="stroke: #FFFF00; stroke-width: 1.0;"/><!--MD5=[0a8883a8e023ec720deed5d924956a82]
link Icon_Factory to Definitions--><path codeLine="63" d="M519.7841,89.3758 C560.1363,104.9888 603,131.8474 603,175.5 C603,175.5 603,175.5 603,592.5 C603,606.155 599.423,619.6901 593.9736,632.387 C592.6113,635.5613 591.1319,638.6831 589.5622,641.7414 " fill="none" id="Icon_Factory-to-Definitions" style="stroke: #FFFF00; stroke-width: 1.0;"/><polygon fill="#FFFF00" points="589.5622,641.7414,597.2306,635.5611,591.8454,637.2931,590.1133,631.908,589.5622,641.7414" style="stroke: #FFFF00; stroke-width: 1.0;"/><text fill="#000000" font-family="sans-serif" font-size="13" lengthAdjust="spacingAndGlyphs" textLength="104" x="606" y="390.0669">Know everything</text><!--MD5=[bff2eb5c504dfa2d5137e4630c784274]
link Icon_Categories to Definitions--><path codeLine="64" d="M462.2156,521.1428 C466.5564,544.3701 473.7011,576.2348 484,603 C488.3529,614.3124 493.7415,625.9252 499.4413,637.0761 C500.1538,638.4699 500.8711,639.8566 501.5919,641.2345 C501.682,641.4068 501.7721,641.5789 501.8623,641.7508 " fill="none" id="Icon_Categories-to-Definitions" style="stroke: #FFFF00; stroke-width: 1.0;"/><polygon fill="#FFFF00" points="501.8623,641.7508,501.224,631.9227,499.5398,637.323,494.1395,635.6387,501.8623,641.7508" style="stroke: #FFFF00; stroke-width: 1.0;"/><text fill="#000000" font-family="sans-serif" font-size="13" lengthAdjust="spacingAndGlyphs" textLength="104" x="487" y="597.0669">Know everything</text><!--MD5=[4eca24cfd6544a772d78d1bd23c0bb04]
reverse link Icon_Definitions to User_Icons--><path codeLine="65" d="M273.7275,717.1229 C227.3185,728.9545 181,752.3285 181,798.5 C181,798.5 181,798.5 181,922.5 C181,949.6934 162.6332,973.3215 142.975,990.8229 " fill="none" id="Icon_Definitions-backto-User_Icons" style="stroke: #FFFF00; stroke-width: 1.0; stroke-dasharray: 7.0,7.0;"/><polygon fill="none" points="272.4449,710.2372,293.4879,712.7261,275.4857,723.903,272.4449,710.2372" style="stroke: #FFFF00; stroke-width: 1.0;"/><!--MD5=[0440e9bbbb6ad593105f59796744e7ec]
reverse link Icon_Definitions to Date_Icons--><path codeLine="66" d="M318.5794,753.3799 C309.609,766.88 303,782.3174 303,798.5 C303,798.5 303,798.5 303,922.5 C303,946.7788 291.9251,971.7024 280.7637,990.6558 " fill="none" id="Icon_Definitions-backto-Date_Icons" style="stroke: #FFFF00; stroke-width: 1.0; stroke-dasharray: 7.0,7.0;"/><polygon fill="none" points="313.1344,748.9778,330.8852,737.4058,324.2251,757.5216,313.1344,748.9778" style="stroke: #FFFF00; stroke-width: 1.0;"/><!--MD5=[5e13c5da7c9222b475bdc334ebe5d7f9]
reverse link Icon_Definitions to Other_Category_With_Icons--><path codeLine="67" d="M414.4371,753.1451 C423.3826,766.7255 430,782.26 430,798.5 C430,798.5 430,798.5 430,922.5 C430,943.9914 438.8047,965.9141 448.71,983.7772 " fill="none" id="Icon_Definitions-backto-Other_Category_With_Icons" style="stroke: #FFFF00; stroke-width: 1.0; stroke-dasharray: 7.0,7.0;"/><polygon fill="none" points="408.7485,757.2294,402.1839,737.0823,419.8796,748.7383,408.7485,757.2294" style="stroke: #FFFF00; stroke-width: 1.0;"/><!--MD5=[9db86a6e200078877e3a61b379d1a9f9]
reverse link Icon_Definitions to Rating_Icons--><path codeLine="68" d="M460.4896,727.0602 C542.2436,747.7055 648,778.3133 648,798.5 C648,798.5 648,798.5 648,922.5 C648,946.8697 659.321,971.794 670.7305,990.7251 " fill="none" id="Icon_Definitions-backto-Rating_Icons" style="stroke: #FFFF00; stroke-width: 1.0; stroke-dasharray: 7.0,7.0;"/><polygon fill="none" points="458.5473,733.7904,440.8294,722.1681,461.9279,720.2047,458.5473,733.7904" style="stroke: #FFFF00; stroke-width: 1.0;"/><!--MD5=[5de881b301daa39983100adb975b93aa]
@startuml

    skinparam {
        padding 2
        backgroundColor #222
        shadowing false

        classFontColor #eee
        classStereotypeFontColor #eee
        classBorderColor #111
        classFontSize 14
        ClassAttributeFontColor #eee
        ClassAttributeFontSize 13
        ClassAttributeIconSize 15

        PackageBackgroundColor #444
        PackageBorderColor #111
        PackageFontColor #eee

        ArrowColor yellow
    }

    skinparam circled {
        CharacterFontColor black
        CharacterFontSize 18
        CharacterFontStyle plain
        CharacterRadius 12
    }


    skinparam <<public class>> {
        classBackgroundColor #004b00
        classFontSize 16
    }

    skinparam <<private class>> {
        classBackgroundColor #5d0000
    }


package "TWRP\Icons" {
	class Icon_Factory <<public class>> {}
	class Icon <<public class>> {}
	class Rating_Icon_Pack <<public class>> {}
	class Create_And_Enqueue_Icons {}

	class Icon_Categories <<private class>> {}

	package "Definitions" {
		interface Icon_Definitions <<private class>> {}
		class User_Icons <<private class>> {}
		class Date_Icons <<private class>> {}
		class Other_Category_With_Icons <<more identical siblings classes>> <<private class>> {}
		class Rating_Icons <<private class>> {}
	}

	Icon_Factory ..> Icon : Create Icon by Id.
	Icon_Factory ..> Rating_Icon_Pack : Create Pack by Id.

	Rating_Icon_Pack -r-> Icon : Contains 3 Icons

	Icon - -> Icon_Categories

	Icon_Factory - -> Definitions : Know everything
	Icon_Categories - -> Definitions : Know everything
	Icon_Definitions <|.. User_Icons
	Icon_Definitions <|.. Date_Icons
	Icon_Definitions <|.. Other_Category_With_Icons
	Icon_Definitions <|.. Rating_Icons

}

@enduml

PlantUML version 1.2020.19(Mon Oct 12 15:10:01 UTC 2020)
(GPL source distribution)
Java Runtime: OpenJDK Runtime Environment
JVM: OpenJDK 64-Bit Server VM
Default Encoding: UTF-8
Language: en
Country: null
--></g></svg>