<?xml version="1.0" encoding="UTF-8" standalone="no"?><svg xmlns="http://www.w3.org/2000/svg" xmlns:xlink="http://www.w3.org/1999/xlink" contentScriptType="application/ecmascript" contentStyleType="text/css" height="1267px" preserveAspectRatio="none" style="width:947px;height:1267px;background:#222222;" version="1.1" viewBox="0 0 947 1267" width="947px" zoomAndPan="magnify"><defs><linearGradient id="g2rsognm6cd8f0" x1="0%" x2="100%" y1="0%" y2="100%"><stop offset="0%" stop-color="#004B00"/><stop offset="100%" stop-color="#003B00"/></linearGradient><linearGradient id="g2rsognm6cd8f1" x1="0%" x2="100%" y1="0%" y2="100%"><stop offset="0%" stop-color="#5D0000"/><stop offset="100%" stop-color="#4D0000"/></linearGradient></defs><g><!--MD5=[d1106f2dd0f85b5e3de7c96203d41272]
cluster TWRP\Icons--><polygon fill="#2C2C2C" points="16,6,118,6,125,32.2969,930,32.2969,930,1260,16,1260,16,6" style="stroke: #111111; stroke-width: 1.5;"/><line style="stroke: #111111; stroke-width: 1.5;" x1="16" x2="125" y1="32.2969" y2="32.2969"/><text fill="#EEEEEE" font-family="sans-serif" font-size="14" font-weight="bold" lengthAdjust="spacingAndGlyphs" textLength="92" x="22" y="22.9951">TWRP\Icons</text><!--MD5=[4add89f23865d9608ef05f08bfd846b0]
cluster Definitions--><polygon fill="#2C2C2C" points="180,824,274,824,281,850.2969,922,850.2969,922,1252,180,1252,180,824" style="stroke: #111111; stroke-width: 1.5;"/><line style="stroke: #111111; stroke-width: 1.5;" x1="180" x2="281" y1="850.2969" y2="850.2969"/><text fill="#EEEEEE" font-family="sans-serif" font-size="14" font-weight="bold" lengthAdjust="spacingAndGlyphs" textLength="84" x="186" y="840.9951">Definitions</text><!--MD5=[8c5ea7d80c044f674c553439e68002b3]
class Icon_Factory--><rect codeLine="46" fill="url(#g2rsognm6cd8f0)" height="260.7578" id="Icon_Factory" style="stroke: #111111; stroke-width: 1.5;" width="365" x="414.5" y="37"/><ellipse cx="536" cy="69.2813" fill="#ADD1B2" rx="12" ry="12" style="stroke: #111111; stroke-width: 1.0;"/><path d="M538.9375,75.3125 Q538.25,75.6719 537.5313,75.8438 Q536.8281,76.0313 536.0313,76.0313 Q533.5156,76.0313 532.1094,74.25 Q530.7188,72.4688 530.7188,69.2344 Q530.7188,66.0156 532.125,64.2188 Q533.5313,62.4219 536.0313,62.4219 Q536.8281,62.4219 537.5313,62.6094 Q538.25,62.7813 538.9375,63.1406 L538.9375,64.9688 Q538.2813,64.4219 537.5313,64.1406 Q536.7813,63.8594 536.0313,63.8594 Q534.2969,63.8594 533.4375,65.2031 Q532.5781,66.5313 532.5781,69.2344 Q532.5781,71.9219 533.4375,73.2656 Q534.2969,74.5938 536.0313,74.5938 Q536.7969,74.5938 537.5469,74.3125 Q538.2969,74.0313 538.9375,73.5 L538.9375,75.3125 Z "/><text fill="#EEEEEE" font-family="sans-serif" font-size="12" font-style="italic" lengthAdjust="spacingAndGlyphs" textLength="87" x="571" y="55.1387">«public class»</text><text fill="#EEEEEE" font-family="sans-serif" font-size="12" font-style="italic" lengthAdjust="spacingAndGlyphs" textLength="113" x="558" y="69.1074">«static collection»</text><text fill="#EEEEEE" font-family="sans-serif" font-size="16" lengthAdjust="spacingAndGlyphs" textLength="101" x="564" y="90.7891">Icon_Factory</text><line style="stroke: #111111; stroke-width: 1.5;" x1="415.5" x2="778.5" y1="101.5625" y2="101.5625"/><ellipse cx="427.5" cy="114.5625" fill="#84BE84" rx="5" ry="5" style="stroke: #038048; stroke-width: 1.0;"/><text fill="#EEEEEE" font-family="sans-serif" font-size="13" lengthAdjust="spacingAndGlyphs" textLength="154" x="437.5" y="119.6294">Icon get_icon( $icon_id )</text><ellipse cx="427.5" cy="133.6953" fill="#84BE84" rx="5" ry="5" style="stroke: #038048; stroke-width: 1.0;"/><text fill="#EEEEEE" font-family="sans-serif" font-size="13" lengthAdjust="spacingAndGlyphs" textLength="334" x="437.5" y="138.7622">Rating_Icon_Pack get_rating_pack( $rating_pack_id )</text><line style="stroke: #111111; stroke-width: 1.0;" x1="415.5" x2="778.5" y1="147.8281" y2="147.8281"/><ellipse cx="427.5" cy="160.8281" fill="#84BE84" rx="5" ry="5" style="stroke: #038048; stroke-width: 1.0;"/><text fill="#EEEEEE" font-family="sans-serif" font-size="13" lengthAdjust="spacingAndGlyphs" textLength="231" x="437.5" y="165.895">array&lt;string,Icon&gt; get_user_icons()</text><ellipse cx="427.5" cy="179.9609" fill="#84BE84" rx="5" ry="5" style="stroke: #038048; stroke-width: 1.0;"/><text fill="#EEEEEE" font-family="sans-serif" font-size="13" lengthAdjust="spacingAndGlyphs" textLength="259" x="437.5" y="185.0278">array&lt;string,Icon&gt; get_category_icons()</text><ellipse cx="427.5" cy="199.0938" fill="#84BE84" rx="5" ry="5" style="stroke: #038048; stroke-width: 1.0;"/><text fill="#EEEEEE" font-family="sans-serif" font-size="13" lengthAdjust="spacingAndGlyphs" textLength="265" x="437.5" y="204.1606">array&lt;string,Icon&gt; get_comment_icons()</text><line style="stroke: #111111; stroke-width: 1.0; stroke-dasharray: 1.0,2.0;" x1="415.5" x2="499.5" y1="222.793" y2="222.793"/><text fill="#EEEEEE" font-family="sans-serif" font-size="13" lengthAdjust="spacingAndGlyphs" textLength="191" x="501.5" y="226.7935">Other category retriever Icons</text><line style="stroke: #111111; stroke-width: 1.0; stroke-dasharray: 1.0,2.0;" x1="694.5" x2="778.5" y1="222.793" y2="222.793"/><line style="stroke: #111111; stroke-width: 1.0;" x1="415.5" x2="778.5" y1="241.9258" y2="241.9258"/><ellipse cx="427.5" cy="254.9258" fill="#84BE84" rx="5" ry="5" style="stroke: #038048; stroke-width: 1.0;"/><text fill="#EEEEEE" font-family="sans-serif" font-size="13" lengthAdjust="spacingAndGlyphs" textLength="313" x="437.5" y="259.9927">get_compatible_disabled_comment_icon( $icon )</text><line style="stroke: #111111; stroke-width: 1.0; stroke-dasharray: 1.0,2.0;" x1="415.5" x2="504.5" y1="278.625" y2="278.625"/><text fill="#EEEEEE" font-family="sans-serif" font-size="13" lengthAdjust="spacingAndGlyphs" textLength="181" x="506.5" y="282.6255">Other unimportant functions</text><line style="stroke: #111111; stroke-width: 1.0; stroke-dasharray: 1.0,2.0;" x1="689.5" x2="778.5" y1="278.625" y2="278.625"/><!--MD5=[b4803fc849817a442dd66b19f993bafc]
class Icon--><rect codeLine="59" fill="url(#g2rsognm6cd8f0)" height="262.3242" id="Icon" style="stroke: #111111; stroke-width: 1.5;" width="255" x="469.5" y="441"/><ellipse cx="541" cy="473.2813" fill="#ADD1B2" rx="12" ry="12" style="stroke: #111111; stroke-width: 1.0;"/><path d="M543.9375,479.3125 Q543.25,479.6719 542.5313,479.8438 Q541.8281,480.0313 541.0313,480.0313 Q538.5156,480.0313 537.1094,478.25 Q535.7188,476.4688 535.7188,473.2344 Q535.7188,470.0156 537.125,468.2188 Q538.5313,466.4219 541.0313,466.4219 Q541.8281,466.4219 542.5313,466.6094 Q543.25,466.7813 543.9375,467.1406 L543.9375,468.9688 Q543.2813,468.4219 542.5313,468.1406 Q541.7813,467.8594 541.0313,467.8594 Q539.2969,467.8594 538.4375,469.2031 Q537.5781,470.5313 537.5781,473.2344 Q537.5781,475.9219 538.4375,477.2656 Q539.2969,478.5938 541.0313,478.5938 Q541.7969,478.5938 542.5469,478.3125 Q543.2969,478.0313 543.9375,477.5 L543.9375,479.3125 Z "/><text fill="#EEEEEE" font-family="sans-serif" font-size="12" font-style="italic" lengthAdjust="spacingAndGlyphs" textLength="87" x="571" y="459.1387">«public class»</text><text fill="#EEEEEE" font-family="sans-serif" font-size="12" font-style="italic" lengthAdjust="spacingAndGlyphs" textLength="103" x="563" y="473.1074">«get via factory»</text><text fill="#EEEEEE" font-family="sans-serif" font-size="16" lengthAdjust="spacingAndGlyphs" textLength="34" x="597.5" y="494.7891">Icon</text><line style="stroke: #111111; stroke-width: 1.5;" x1="470.5" x2="723.5" y1="505.5625" y2="505.5625"/><ellipse cx="482.5" cy="518.5625" fill="#84BE84" rx="5" ry="5" style="stroke: #038048; stroke-width: 1.0;"/><text fill="#EEEEEE" font-family="sans-serif" font-size="13" lengthAdjust="spacingAndGlyphs" textLength="221" x="492.5" y="523.6294">__construct( $icon_id, $icon_args )</text><ellipse cx="482.5" cy="537.6953" fill="#84BE84" rx="5" ry="5" style="stroke: #038048; stroke-width: 1.0;"/><text fill="#EEEEEE" font-family="sans-serif" font-size="13" lengthAdjust="spacingAndGlyphs" textLength="201" x="492.5" y="542.7622">void display( $additional_class )</text><ellipse cx="482.5" cy="556.8281" fill="#84BE84" rx="5" ry="5" style="stroke: #038048; stroke-width: 1.0;"/><text fill="#EEEEEE" font-family="sans-serif" font-size="13" lengthAdjust="spacingAndGlyphs" textLength="224" x="492.5" y="561.895">string get_html( $additional_class )</text><line style="stroke: #111111; stroke-width: 1.0;" x1="470.5" x2="723.5" y1="570.9609" y2="570.9609"/><ellipse cx="482.5" cy="583.9609" fill="#84BE84" rx="5" ry="5" style="stroke: #038048; stroke-width: 1.0;"/><text fill="#EEEEEE" font-family="sans-serif" font-size="13" lengthAdjust="spacingAndGlyphs" textLength="158" x="492.5" y="589.0278">get_icon_svg_definition()</text><ellipse cx="482.5" cy="603.0938" fill="#84BE84" rx="5" ry="5" style="stroke: #038048; stroke-width: 1.0;"/><text fill="#EEEEEE" font-family="sans-serif" font-size="13" lengthAdjust="spacingAndGlyphs" textLength="49" x="492.5" y="608.1606">get_id()</text><ellipse cx="482.5" cy="622.2266" fill="#84BE84" rx="5" ry="5" style="stroke: #038048; stroke-width: 1.0;"/><text fill="#EEEEEE" font-family="sans-serif" font-size="13" lengthAdjust="spacingAndGlyphs" textLength="75" x="492.5" y="627.2935">get_brand()</text><ellipse cx="482.5" cy="641.3594" fill="#84BE84" rx="5" ry="5" style="stroke: #038048; stroke-width: 1.0;"/><text fill="#EEEEEE" font-family="sans-serif" font-size="13" lengthAdjust="spacingAndGlyphs" textLength="108" x="492.5" y="646.4263">get_description()</text><ellipse cx="482.5" cy="660.4922" fill="#84BE84" rx="5" ry="5" style="stroke: #038048; stroke-width: 1.0;"/><text fill="#EEEEEE" font-family="sans-serif" font-size="13" lengthAdjust="spacingAndGlyphs" textLength="125" x="492.5" y="665.5591">get_icon_file_path()</text><line style="stroke: #111111; stroke-width: 1.0; stroke-dasharray: 1.0,2.0;" x1="470.5" x2="504.5" y1="684.1914" y2="684.1914"/><text fill="#EEEEEE" font-family="sans-serif" font-size="13" lengthAdjust="spacingAndGlyphs" textLength="181" x="506.5" y="688.1919">Other unimportant functions</text><line style="stroke: #111111; stroke-width: 1.0; stroke-dasharray: 1.0,2.0;" x1="689.5" x2="723.5" y1="684.1914" y2="684.1914"/><!--MD5=[ee06e294b7c1b05a77a41ae434f7c065]
class Rating_Icon_Pack--><rect codeLine="72" fill="url(#g2rsognm6cd8f0)" height="243.1914" id="Rating_Icon_Pack" style="stroke: #111111; stroke-width: 1.5;" width="299" x="24.5" y="450.5"/><ellipse cx="99.5" cy="482.7813" fill="#ADD1B2" rx="12" ry="12" style="stroke: #111111; stroke-width: 1.0;"/><path d="M102.4375,488.8125 Q101.75,489.1719 101.0313,489.3438 Q100.3281,489.5313 99.5313,489.5313 Q97.0156,489.5313 95.6094,487.75 Q94.2188,485.9688 94.2188,482.7344 Q94.2188,479.5156 95.625,477.7188 Q97.0313,475.9219 99.5313,475.9219 Q100.3281,475.9219 101.0313,476.1094 Q101.75,476.2813 102.4375,476.6406 L102.4375,478.4688 Q101.7813,477.9219 101.0313,477.6406 Q100.2813,477.3594 99.5313,477.3594 Q97.7969,477.3594 96.9375,478.7031 Q96.0781,480.0313 96.0781,482.7344 Q96.0781,485.4219 96.9375,486.7656 Q97.7969,488.0938 99.5313,488.0938 Q100.2969,488.0938 101.0469,487.8125 Q101.7969,487.5313 102.4375,487 L102.4375,488.8125 Z "/><text fill="#EEEEEE" font-family="sans-serif" font-size="12" font-style="italic" lengthAdjust="spacingAndGlyphs" textLength="87" x="148" y="468.6387">«public class»</text><text fill="#EEEEEE" font-family="sans-serif" font-size="12" font-style="italic" lengthAdjust="spacingAndGlyphs" textLength="103" x="140" y="482.6074">«get via factory»</text><text fill="#EEEEEE" font-family="sans-serif" font-size="16" lengthAdjust="spacingAndGlyphs" textLength="136" x="123.5" y="504.2891">Rating_Icon_Pack</text><line style="stroke: #111111; stroke-width: 1.5;" x1="25.5" x2="322.5" y1="515.0625" y2="515.0625"/><ellipse cx="37.5" cy="528.0625" fill="#84BE84" rx="5" ry="5" style="stroke: #038048; stroke-width: 1.0;"/><text fill="#EEEEEE" font-family="sans-serif" font-size="13" lengthAdjust="spacingAndGlyphs" textLength="268" x="47.5" y="533.1294">__construct( $rating_pack_id, $pack_attr )</text><ellipse cx="37.5" cy="547.1953" fill="#84BE84" rx="5" ry="5" style="stroke: #038048; stroke-width: 1.0;"/><text fill="#EEEEEE" font-family="sans-serif" font-size="13" lengthAdjust="spacingAndGlyphs" textLength="142" x="47.5" y="552.2622">Icon get_empty_icon()</text><ellipse cx="37.5" cy="566.3281" fill="#84BE84" rx="5" ry="5" style="stroke: #038048; stroke-width: 1.0;"/><text fill="#EEEEEE" font-family="sans-serif" font-size="13" lengthAdjust="spacingAndGlyphs" textLength="160" x="47.5" y="571.395">Icon get_half_filled_icon()</text><ellipse cx="37.5" cy="585.4609" fill="#84BE84" rx="5" ry="5" style="stroke: #038048; stroke-width: 1.0;"/><text fill="#EEEEEE" font-family="sans-serif" font-size="13" lengthAdjust="spacingAndGlyphs" textLength="130" x="47.5" y="590.5278">Icon get_filled_icon()</text><line style="stroke: #111111; stroke-width: 1.0;" x1="25.5" x2="322.5" y1="599.5938" y2="599.5938"/><ellipse cx="37.5" cy="612.5938" fill="#84BE84" rx="5" ry="5" style="stroke: #038048; stroke-width: 1.0;"/><text fill="#EEEEEE" font-family="sans-serif" font-size="13" lengthAdjust="spacingAndGlyphs" textLength="49" x="47.5" y="617.6606">get_id()</text><ellipse cx="37.5" cy="631.7266" fill="#84BE84" rx="5" ry="5" style="stroke: #038048; stroke-width: 1.0;"/><text fill="#EEEEEE" font-family="sans-serif" font-size="13" lengthAdjust="spacingAndGlyphs" textLength="75" x="47.5" y="636.7935">get_brand()</text><ellipse cx="37.5" cy="650.8594" fill="#84BE84" rx="5" ry="5" style="stroke: #038048; stroke-width: 1.0;"/><text fill="#EEEEEE" font-family="sans-serif" font-size="13" lengthAdjust="spacingAndGlyphs" textLength="108" x="47.5" y="655.9263">get_description()</text><line style="stroke: #111111; stroke-width: 1.0; stroke-dasharray: 1.0,2.0;" x1="25.5" x2="81.5" y1="674.5586" y2="674.5586"/><text fill="#EEEEEE" font-family="sans-serif" font-size="13" lengthAdjust="spacingAndGlyphs" textLength="181" x="83.5" y="678.5591">Other unimportant functions</text><line style="stroke: #111111; stroke-width: 1.0; stroke-dasharray: 1.0,2.0;" x1="266.5" x2="322.5" y1="674.5586" y2="674.5586"/><!--MD5=[1787b35f73f7c04ad31c8b86f85aaa6f]
class Icon_Categories--><rect codeLine="84" fill="url(#g2rsognm6cd8f1)" height="64.2656" id="Icon_Categories" style="stroke: #111111; stroke-width: 1.5;" width="149" x="23.5" y="855"/><ellipse cx="39.5" cy="879.1328" fill="#ADD1B2" rx="12" ry="12" style="stroke: #111111; stroke-width: 1.0;"/><path d="M42.4375,885.1641 Q41.75,885.5234 41.0313,885.6953 Q40.3281,885.8828 39.5313,885.8828 Q37.0156,885.8828 35.6094,884.1016 Q34.2188,882.3203 34.2188,879.0859 Q34.2188,875.8672 35.625,874.0703 Q37.0313,872.2734 39.5313,872.2734 Q40.3281,872.2734 41.0313,872.4609 Q41.75,872.6328 42.4375,872.9922 L42.4375,874.8203 Q41.7813,874.2734 41.0313,873.9922 Q40.2813,873.7109 39.5313,873.7109 Q37.7969,873.7109 36.9375,875.0547 Q36.0781,876.3828 36.0781,879.0859 Q36.0781,881.7734 36.9375,883.1172 Q37.7969,884.4453 39.5313,884.4453 Q40.2969,884.4453 41.0469,884.1641 Q41.7969,883.8828 42.4375,883.3516 L42.4375,885.1641 Z "/><text fill="#EEEEEE" font-family="sans-serif" font-size="12" font-style="italic" lengthAdjust="spacingAndGlyphs" textLength="93" x="65.5" y="873.1387">«private class»</text><text fill="#EEEEEE" font-family="sans-serif" font-size="14" lengthAdjust="spacingAndGlyphs" textLength="111" x="56.5" y="892.9639">Icon_Categories</text><line style="stroke: #111111; stroke-width: 1.5;" x1="24.5" x2="171.5" y1="903.2656" y2="903.2656"/><line style="stroke: #111111; stroke-width: 1.5;" x1="24.5" x2="171.5" y1="911.2656" y2="911.2656"/><!--MD5=[bd0e7ccddb1ff1701639919f455d884e]
class Icon_Definitions--><rect codeLine="87" fill="url(#g2rsognm6cd8f1)" height="64.2656" id="Icon_Definitions" style="stroke: #111111; stroke-width: 1.5;" width="147" x="449.5" y="855"/><ellipse cx="465.5" cy="879.1328" fill="#B4A7E5" rx="12" ry="12" style="stroke: #111111; stroke-width: 1.0;"/><path d="M461.2656,872.5078 L468.5469,872.5078 L468.5469,874.0078 L465.7969,874.0078 L465.7969,884.1328 L468.5469,884.1328 L468.5469,885.6328 L461.2656,885.6328 L461.2656,884.1328 L464.0156,884.1328 L464.0156,874.0078 L461.2656,874.0078 L461.2656,872.5078 Z "/><text fill="#EEEEEE" font-family="sans-serif" font-size="12" font-style="italic" lengthAdjust="spacingAndGlyphs" textLength="93" x="490.5" y="873.1387">«private class»</text><text fill="#EEEEEE" font-family="sans-serif" font-size="14" font-style="italic" lengthAdjust="spacingAndGlyphs" textLength="109" x="482.5" y="892.9639">Icon_Definitions</text><line style="stroke: #111111; stroke-width: 1.5;" x1="450.5" x2="595.5" y1="903.2656" y2="903.2656"/><line style="stroke: #111111; stroke-width: 1.5;" x1="450.5" x2="595.5" y1="911.2656" y2="911.2656"/><!--MD5=[4802fc99fd1613e585344c104135e2f7]
class User_Icons--><rect codeLine="88" fill="url(#g2rsognm6cd8f1)" height="64.2656" id="User_Icons" style="stroke: #111111; stroke-width: 1.5;" width="127" x="188.5" y="1173"/><ellipse cx="204.5" cy="1197.1328" fill="#ADD1B2" rx="12" ry="12" style="stroke: #111111; stroke-width: 1.0;"/><path d="M207.4375,1203.1641 Q206.75,1203.5234 206.0313,1203.6953 Q205.3281,1203.8828 204.5313,1203.8828 Q202.0156,1203.8828 200.6094,1202.1016 Q199.2188,1200.3203 199.2188,1197.0859 Q199.2188,1193.8672 200.625,1192.0703 Q202.0313,1190.2734 204.5313,1190.2734 Q205.3281,1190.2734 206.0313,1190.4609 Q206.75,1190.6328 207.4375,1190.9922 L207.4375,1192.8203 Q206.7813,1192.2734 206.0313,1191.9922 Q205.2813,1191.7109 204.5313,1191.7109 Q202.7969,1191.7109 201.9375,1193.0547 Q201.0781,1194.3828 201.0781,1197.0859 Q201.0781,1199.7734 201.9375,1201.1172 Q202.7969,1202.4453 204.5313,1202.4453 Q205.2969,1202.4453 206.0469,1202.1641 Q206.7969,1201.8828 207.4375,1201.3516 L207.4375,1203.1641 Z "/><text fill="#EEEEEE" font-family="sans-serif" font-size="12" font-style="italic" lengthAdjust="spacingAndGlyphs" textLength="93" x="219.5" y="1191.1387">«private class»</text><text fill="#EEEEEE" font-family="sans-serif" font-size="14" lengthAdjust="spacingAndGlyphs" textLength="76" x="228" y="1210.9639">User_Icons</text><line style="stroke: #111111; stroke-width: 1.5;" x1="189.5" x2="314.5" y1="1221.2656" y2="1221.2656"/><line style="stroke: #111111; stroke-width: 1.5;" x1="189.5" x2="314.5" y1="1229.2656" y2="1229.2656"/><!--MD5=[290c6aae418ee2226c50491efc9bf53c]
class Date_Icons--><rect codeLine="89" fill="url(#g2rsognm6cd8f1)" height="64.2656" id="Date_Icons" style="stroke: #111111; stroke-width: 1.5;" width="127" x="350.5" y="1173"/><ellipse cx="366.5" cy="1197.1328" fill="#ADD1B2" rx="12" ry="12" style="stroke: #111111; stroke-width: 1.0;"/><path d="M369.4375,1203.1641 Q368.75,1203.5234 368.0313,1203.6953 Q367.3281,1203.8828 366.5313,1203.8828 Q364.0156,1203.8828 362.6094,1202.1016 Q361.2188,1200.3203 361.2188,1197.0859 Q361.2188,1193.8672 362.625,1192.0703 Q364.0313,1190.2734 366.5313,1190.2734 Q367.3281,1190.2734 368.0313,1190.4609 Q368.75,1190.6328 369.4375,1190.9922 L369.4375,1192.8203 Q368.7813,1192.2734 368.0313,1191.9922 Q367.2813,1191.7109 366.5313,1191.7109 Q364.7969,1191.7109 363.9375,1193.0547 Q363.0781,1194.3828 363.0781,1197.0859 Q363.0781,1199.7734 363.9375,1201.1172 Q364.7969,1202.4453 366.5313,1202.4453 Q367.2969,1202.4453 368.0469,1202.1641 Q368.7969,1201.8828 369.4375,1201.3516 L369.4375,1203.1641 Z "/><text fill="#EEEEEE" font-family="sans-serif" font-size="12" font-style="italic" lengthAdjust="spacingAndGlyphs" textLength="93" x="381.5" y="1191.1387">«private class»</text><text fill="#EEEEEE" font-family="sans-serif" font-size="14" lengthAdjust="spacingAndGlyphs" textLength="77" x="389.5" y="1210.9639">Date_Icons</text><line style="stroke: #111111; stroke-width: 1.5;" x1="351.5" x2="476.5" y1="1221.2656" y2="1221.2656"/><line style="stroke: #111111; stroke-width: 1.5;" x1="351.5" x2="476.5" y1="1229.2656" y2="1229.2656"/><!--MD5=[a2c6df38fdbc68924a11f0e9b3f1dd97]
class Other_Category_With_Icons--><rect codeLine="90" fill="url(#g2rsognm6cd8f1)" height="78.2344" id="Other_Category_With_Icons" style="stroke: #111111; stroke-width: 1.5;" width="239" x="512.5" y="1166"/><ellipse cx="528.5" cy="1197.1172" fill="#ADD1B2" rx="12" ry="12" style="stroke: #111111; stroke-width: 1.0;"/><path d="M531.4375,1203.1484 Q530.75,1203.5078 530.0313,1203.6797 Q529.3281,1203.8672 528.5313,1203.8672 Q526.0156,1203.8672 524.6094,1202.0859 Q523.2188,1200.3047 523.2188,1197.0703 Q523.2188,1193.8516 524.625,1192.0547 Q526.0313,1190.2578 528.5313,1190.2578 Q529.3281,1190.2578 530.0313,1190.4453 Q530.75,1190.6172 531.4375,1190.9766 L531.4375,1192.8047 Q530.7813,1192.2578 530.0313,1191.9766 Q529.2813,1191.6953 528.5313,1191.6953 Q526.7969,1191.6953 525.9375,1193.0391 Q525.0781,1194.3672 525.0781,1197.0703 Q525.0781,1199.7578 525.9375,1201.1016 Q526.7969,1202.4297 528.5313,1202.4297 Q529.2969,1202.4297 530.0469,1202.1484 Q530.7969,1201.8672 531.4375,1201.3359 L531.4375,1203.1484 Z "/><text fill="#EEEEEE" font-family="sans-serif" font-size="12" font-style="italic" lengthAdjust="spacingAndGlyphs" textLength="205" x="543.5" y="1184.1387">«more identical siblings classes»</text><text fill="#EEEEEE" font-family="sans-serif" font-size="12" font-style="italic" lengthAdjust="spacingAndGlyphs" textLength="93" x="599.5" y="1198.1074">«private class»</text><text fill="#EEEEEE" font-family="sans-serif" font-size="14" lengthAdjust="spacingAndGlyphs" textLength="189" x="551.5" y="1217.9326">Other_Category_With_Icons</text><line style="stroke: #111111; stroke-width: 1.5;" x1="513.5" x2="750.5" y1="1228.2344" y2="1228.2344"/><line style="stroke: #111111; stroke-width: 1.5;" x1="513.5" x2="750.5" y1="1236.2344" y2="1236.2344"/><!--MD5=[ea163c575ebd65fe5e60f6c83f9285c1]
class Rating_Icons--><rect codeLine="91" fill="url(#g2rsognm6cd8f1)" height="64.2656" id="Rating_Icons" style="stroke: #111111; stroke-width: 1.5;" width="127" x="786.5" y="1173"/><ellipse cx="802.5" cy="1197.1328" fill="#ADD1B2" rx="12" ry="12" style="stroke: #111111; stroke-width: 1.0;"/><path d="M805.4375,1203.1641 Q804.75,1203.5234 804.0313,1203.6953 Q803.3281,1203.8828 802.5313,1203.8828 Q800.0156,1203.8828 798.6094,1202.1016 Q797.2188,1200.3203 797.2188,1197.0859 Q797.2188,1193.8672 798.625,1192.0703 Q800.0313,1190.2734 802.5313,1190.2734 Q803.3281,1190.2734 804.0313,1190.4609 Q804.75,1190.6328 805.4375,1190.9922 L805.4375,1192.8203 Q804.7813,1192.2734 804.0313,1191.9922 Q803.2813,1191.7109 802.5313,1191.7109 Q800.7969,1191.7109 799.9375,1193.0547 Q799.0781,1194.3828 799.0781,1197.0859 Q799.0781,1199.7734 799.9375,1201.1172 Q800.7969,1202.4453 802.5313,1202.4453 Q803.2969,1202.4453 804.0469,1202.1641 Q804.7969,1201.8828 805.4375,1201.3516 L805.4375,1203.1641 Z "/><text fill="#EEEEEE" font-family="sans-serif" font-size="12" font-style="italic" lengthAdjust="spacingAndGlyphs" textLength="93" x="817.5" y="1191.1387">«private class»</text><text fill="#EEEEEE" font-family="sans-serif" font-size="14" lengthAdjust="spacingAndGlyphs" textLength="88" x="820" y="1210.9639">Rating_Icons</text><line style="stroke: #111111; stroke-width: 1.5;" x1="787.5" x2="912.5" y1="1221.2656" y2="1221.2656"/><line style="stroke: #111111; stroke-width: 1.5;" x1="787.5" x2="912.5" y1="1229.2656" y2="1229.2656"/><!--MD5=[852f239426205e2fe98725de62ab607a]
link Icon_Factory to Icon--><path codeLine="94" d="M597,298.2709 C597,342.2776 597,391.4655 597,435.8743 " fill="none" id="Icon_Factory-to-Icon" style="stroke: #FFFF00; stroke-width: 1.0; stroke-dasharray: 7.0,7.0;"/><polygon fill="#FFFF00" points="597,440.9869,601,431.9869,597,435.9869,593,431.9869,597,440.9869" style="stroke: #FFFF00; stroke-width: 1.0;"/><text fill="#000000" font-family="sans-serif" font-size="13" lengthAdjust="spacingAndGlyphs" textLength="111" x="600" y="374.0669">Create Icon by Id.</text><!--MD5=[206c5cbf3f2cd48a375cdfeb5f25e543]
link Icon_Factory to Rating_Icon_Pack--><path codeLine="95" d="M460.2482,298.2709 C410.493,345.8501 354.404,399.4861 305.1456,446.59 " fill="none" id="Icon_Factory-to-Rating_Icon_Pack" style="stroke: #FFFF00; stroke-width: 1.0; stroke-dasharray: 7.0,7.0;"/><polygon fill="#FFFF00" points="301.3099,450.258,310.579,446.9287,304.9235,446.8023,305.0499,441.1469,301.3099,450.258" style="stroke: #FFFF00; stroke-width: 1.0;"/><text fill="#000000" font-family="sans-serif" font-size="13" lengthAdjust="spacingAndGlyphs" textLength="115" x="399" y="374.0669">Create Pack by Id.</text><!--MD5=[4b0451d5fb719b69396037109cb32057]
link Rating_Icon_Pack to Icon--><path codeLine="97" d="M323.7293,572 C369.4981,572 419.4975,572 464.0698,572 " fill="none" id="Rating_Icon_Pack-to-Icon" style="stroke: #FFFF00; stroke-width: 1.0;"/><polygon fill="#FFFF00" points="469.1984,572,460.1984,568,464.1984,572,460.1984,576,469.1984,572" style="stroke: #FFFF00; stroke-width: 1.0;"/><text fill="#000000" font-family="sans-serif" font-size="13" lengthAdjust="spacingAndGlyphs" textLength="105" x="344" y="563.0669">Contains 3 Icons</text><!--MD5=[9f8c26779a7ee847c9078092d8cc0688]
link Icon to Icon_Categories--><path codeLine="99" d="M469.2846,642.7316 C384.5986,691.0531 272.001,758.0524 177,824 C164.7003,832.5382 151.8206,842.386 140.1149,851.7211 " fill="none" id="Icon-to-Icon_Categories" style="stroke: #FFFF00; stroke-width: 1.0;"/><polygon fill="#FFFF00" points="136.1927,854.8647,145.7171,852.3574,140.0942,851.7377,140.7139,846.1149,136.1927,854.8647" style="stroke: #FFFF00; stroke-width: 1.0;"/><!--MD5=[0a8883a8e023ec720deed5d924956a82]
link Icon_Factory to Definitions--><path codeLine="101" d="M773.054,298.0138 C786.5133,319.5651 795,343.4732 795,369.5 C795,369.5 795,369.5 795,774.5 C795,789.1809 790.401,803.253 783.3947,816.1728 C782.5189,817.7877 781.6055,819.3847 780.6588,820.9626 C780.1854,821.7516 779.7037,822.5358 779.2142,823.3151 C779.0918,823.5099 778.9689,823.7044 778.8456,823.8986 " fill="none" id="Icon_Factory-to-Definitions" style="stroke: #FFFF00; stroke-width: 1.0;"/><polygon fill="#FFFF00" points="778.8456,823.8986,787.0472,818.4458,781.5262,819.6779,780.2941,814.1568,778.8456,823.8986" style="stroke: #FFFF00; stroke-width: 1.0;"/><text fill="#000000" font-family="sans-serif" font-size="13" lengthAdjust="spacingAndGlyphs" textLength="104" x="798" y="576.5669">Know everything</text><!--MD5=[ac839ca4fee5e69e62fb1a8ba0decb6f]
link Icon to Definitions--><path codeLine="102" d="M645.644,703.2461 C655.6747,730.2839 666.1743,758.567 676,785 C679.9506,795.6279 684.1368,806.877 688.231,817.8723 C688.7428,819.2467 689.2532,820.6171 689.7614,821.9819 C689.8885,822.3231 690.0155,822.6639 690.1423,823.0044 C690.2057,823.1746 690.269,823.3447 690.3323,823.5148 " fill="none" id="Icon-to-Definitions" style="stroke: #FFFF00; stroke-width: 1.0;"/><polygon fill="#FFFF00" points="690.3323,823.5148,690.9396,813.6847,688.5872,818.8292,683.4427,816.4768,690.3323,823.5148" style="stroke: #FFFF00; stroke-width: 1.0;"/><text fill="#000000" font-family="sans-serif" font-size="13" lengthAdjust="spacingAndGlyphs" textLength="104" x="679" y="779.0669">Know everything</text><!--MD5=[4eca24cfd6544a772d78d1bd23c0bb04]
reverse link Icon_Definitions to User_Icons--><path codeLine="103" d="M434.0071,927.5267 C386.2105,949.9845 337,974.5511 337,980.5 C337,980.5 337,980.5 337,1104.5 C337,1131.6934 318.6332,1155.3215 298.975,1172.8229 " fill="none" id="Icon_Definitions-backto-User_Icons" style="stroke: #FFFF00; stroke-width: 1.0; stroke-dasharray: 7.0,7.0;"/><polygon fill="none" points="431.0663,921.1744,452.1508,919.0661,436.983,933.8627,431.0663,921.1744" style="stroke: #FFFF00; stroke-width: 1.0;"/><!--MD5=[0440e9bbbb6ad593105f59796744e7ec]
reverse link Icon_Definitions to Date_Icons--><path codeLine="104" d="M474.5794,935.3799 C465.609,948.88 459,964.3174 459,980.5 C459,980.5 459,980.5 459,1104.5 C459,1128.7788 447.9251,1153.7024 436.7637,1172.6558 " fill="none" id="Icon_Definitions-backto-Date_Icons" style="stroke: #FFFF00; stroke-width: 1.0; stroke-dasharray: 7.0,7.0;"/><polygon fill="none" points="469.1344,930.9778,486.8852,919.4058,480.2251,939.5216,469.1344,930.9778" style="stroke: #FFFF00; stroke-width: 1.0;"/><!--MD5=[5e13c5da7c9222b475bdc334ebe5d7f9]
reverse link Icon_Definitions to Other_Category_With_Icons--><path codeLine="105" d="M570.4371,935.1451 C579.3826,948.7255 586,964.26 586,980.5 C586,980.5 586,980.5 586,1104.5 C586,1125.9914 594.8047,1147.9141 604.71,1165.7772 " fill="none" id="Icon_Definitions-backto-Other_Category_With_Icons" style="stroke: #FFFF00; stroke-width: 1.0; stroke-dasharray: 7.0,7.0;"/><polygon fill="none" points="564.7485,939.2294,558.1839,919.0823,575.8796,930.7383,564.7485,939.2294" style="stroke: #FFFF00; stroke-width: 1.0;"/><!--MD5=[9db86a6e200078877e3a61b379d1a9f9]
reverse link Icon_Definitions to Rating_Icons--><path codeLine="106" d="M616.4896,909.0602 C698.2436,929.7055 804,960.3133 804,980.5 C804,980.5 804,980.5 804,1104.5 C804,1128.8697 815.321,1153.794 826.7305,1172.7251 " fill="none" id="Icon_Definitions-backto-Rating_Icons" style="stroke: #FFFF00; stroke-width: 1.0; stroke-dasharray: 7.0,7.0;"/><polygon fill="none" points="614.5473,915.7904,596.8294,904.1681,617.9279,902.2047,614.5473,915.7904" style="stroke: #FFFF00; stroke-width: 1.0;"/><!--MD5=[57bb889bea4cf0bad264e6bba5901cb6]
@startuml
set namespaceSeparator \\

    skinparam {
        padding 2
        backgroundColor #222
        shadowing false

        classFontColor #eee
        classStereotypeFontColor #eee
        classBorderColor #111
        classFontSize 14
        ClassAttributeFontColor #eee
        ClassAttributeFontSize 13
        ClassAttributeIconSize 15

        PackageBackgroundColor #2c2c2c
        PackageBorderColor #111
        PackageFontColor #eee

        ArrowColor yellow
    }

    skinparam circled {
        CharacterFontColor black
        CharacterFontSize 18
        CharacterFontStyle plain
        CharacterRadius 12
    }


    skinparam <<public class>> {
        classBackgroundColor #004b00/#003b00
        classFontSize 16
    }

    skinparam <<private class>> {
        classBackgroundColor #5d0000/#4d0000
    }

    skinparam <<protected class>> {
        classBackgroundColor #d16300/#c15300
    }


package "TWRP\Icons" {
	class Icon_Factory <<public class>> <<static collection>> {
		+ Icon get_icon( $icon_id )
		+ Rating_Icon_Pack get_rating_pack( $rating_pack_id )
		- -
		+ array<string,Icon> get_user_icons()
		+ array<string,Icon> get_category_icons()
		+ array<string,Icon> get_comment_icons()
		.. Other category retriever Icons ..
		- -
		+ get_compatible_disabled_comment_icon( $icon )
		.. Other unimportant functions ..
	}

	class Icon <<public class>> <<get via factory>> {
		+ __construct( $icon_id, $icon_args )
		+ void display( $additional_class )
		+ string get_html( $additional_class )
		- -
		+ get_icon_svg_definition()
		+ get_id()
		+ get_brand()
		+ get_description()
		+ get_icon_file_path()
		.. Other unimportant functions ..
	}

	class Rating_Icon_Pack <<public class>> <<get via factory>> {
		+ __construct( $rating_pack_id, $pack_attr )
		+ Icon get_empty_icon()
		+ Icon get_half_filled_icon()
		+ Icon get_filled_icon()
		- -
		+ get_id()
		+ get_brand()
		+ get_description()
		.. Other unimportant functions ..
	}

	class Icon_Categories <<private class>> {}

	package "Definitions" {
		interface Icon_Definitions <<private class>> {}
		class User_Icons <<private class>> {}
		class Date_Icons <<private class>> {}
		class Other_Category_With_Icons <<more identical siblings classes>> <<private class>> {}
		class Rating_Icons <<private class>> {}
	}

	Icon_Factory ..> Icon : Create Icon by Id.
	Icon_Factory ..> Rating_Icon_Pack : Create Pack by Id.

	Rating_Icon_Pack -r-> Icon : Contains 3 Icons

	Icon - -> Icon_Categories

	Icon_Factory - -> Definitions : Know everything
	Icon - -> Definitions : Know everything
	Icon_Definitions <|.. User_Icons
	Icon_Definitions <|.. Date_Icons
	Icon_Definitions <|.. Other_Category_With_Icons
	Icon_Definitions <|.. Rating_Icons

}
@enduml

PlantUML version 1.2020.19(Mon Oct 12 15:10:01 UTC 2020)
(GPL source distribution)
Java Runtime: OpenJDK Runtime Environment
JVM: OpenJDK 64-Bit Server VM
Default Encoding: UTF-8
Language: en
Country: null
--></g></svg>