<?xml version="1.0" encoding="UTF-8" standalone="no"?><svg xmlns="http://www.w3.org/2000/svg" xmlns:xlink="http://www.w3.org/1999/xlink" contentScriptType="application/ecmascript" contentStyleType="text/css" height="1267px" preserveAspectRatio="none" style="width:909px;height:1267px;background:#222222;" version="1.1" viewBox="0 0 909 1267" width="909px" zoomAndPan="magnify"><defs><linearGradient id="g15muo24fhwjqy0" x1="0%" x2="100%" y1="0%" y2="100%"><stop offset="0%" stop-color="#004B00"/><stop offset="100%" stop-color="#003B00"/></linearGradient><linearGradient id="g15muo24fhwjqy1" x1="0%" x2="100%" y1="0%" y2="100%"><stop offset="0%" stop-color="#5D0000"/><stop offset="100%" stop-color="#4D0000"/></linearGradient></defs><g><!--MD5=[f97c26a901f126bfc605e0e1953d776c]
cluster TWRP\\Icons--><rect fill="#2C2C2C" height="1254" style="stroke:#111111;stroke-width:1.5;" width="896" x="7" y="7"/><text fill="#EEEEEE" font-family="sans-serif" font-size="14" font-weight="bold" lengthAdjust="spacing" textLength="92" x="409" y="23.9951">TWRP\Icons</text><!--MD5=[6757342adb7def2cc0386d8c774cd882]
cluster TWRP\\Icons\\Definitions--><rect fill="#2C2C2C" height="428" style="stroke:#111111;stroke-width:1.5;" width="726" x="169" y="825"/><text fill="#EEEEEE" font-family="sans-serif" font-size="14" font-weight="bold" lengthAdjust="spacing" textLength="84" x="490" y="841.9951">Definitions</text><!--MD5=[0f9ae3ce63f9c381da277cd8ca019797]
class TWRP\\Icons\\Icon_Factory--><rect codeLine="41" fill="url(#g15muo24fhwjqy0)" height="260.7578" id="TWRP\\Icons\\Icon_Factory" style="stroke:#111111;stroke-width:1.5;" width="363" x="403.5" y="38"/><ellipse cx="524.5" cy="70.2813" fill="#ADD1B2" rx="10" ry="10" style="stroke:#111111;stroke-width:1.0;"/><path d="M526.8906,75.8594 Q526.2813,76.1875 525.6406,76.3438 Q525.0156,76.5156 524.3125,76.5156 Q522.0625,76.5156 520.8281,74.9219 Q519.5938,73.3281 519.5938,70.4531 Q519.5938,67.5938 520.8281,66 Q522.0781,64.4063 524.3125,64.4063 Q525.0156,64.4063 525.6406,64.5625 Q526.2813,64.7188 526.8906,65.0469 L526.8906,66.6563 Q526.3125,66.1875 525.6406,65.9375 Q524.9844,65.6875 524.3125,65.6875 Q522.7656,65.6875 522,66.875 Q521.2344,68.0625 521.2344,70.4531 Q521.2344,72.8438 522,74.0313 Q522.7656,75.2188 524.3125,75.2188 Q525,75.2188 525.6563,74.9688 Q526.3125,74.7188 526.8906,74.25 L526.8906,75.8594 Z " fill="#000000"/><text fill="#EEEEEE" font-family="sans-serif" font-size="12" font-style="italic" lengthAdjust="spacing" textLength="87" x="556.5" y="56.1387">«public class»</text><text fill="#EEEEEE" font-family="sans-serif" font-size="12" font-style="italic" lengthAdjust="spacing" textLength="113" x="543.5" y="70.1074">«static collection»</text><text fill="#EEEEEE" font-family="sans-serif" font-size="16" lengthAdjust="spacing" textLength="101" x="549.5" y="91.7891">Icon_Factory</text><line style="stroke:#111111;stroke-width:1.5;" x1="404.5" x2="765.5" y1="102.5625" y2="102.5625"/><ellipse cx="416.5" cy="115.5625" fill="#84BE84" rx="5" ry="5" style="stroke:#038048;stroke-width:1.0;"/><text fill="#EEEEEE" font-family="sans-serif" font-size="13" lengthAdjust="spacing" textLength="154" x="424.5" y="120.6294">Icon get_icon( $icon_id )</text><ellipse cx="416.5" cy="134.6953" fill="#84BE84" rx="5" ry="5" style="stroke:#038048;stroke-width:1.0;"/><text fill="#EEEEEE" font-family="sans-serif" font-size="13" lengthAdjust="spacing" textLength="334" x="424.5" y="139.7622">Rating_Icon_Pack get_rating_pack( $rating_pack_id )</text><line style="stroke:#111111;stroke-width:1.0;" x1="404.5" x2="765.5" y1="148.8281" y2="148.8281"/><ellipse cx="416.5" cy="161.8281" fill="#84BE84" rx="5" ry="5" style="stroke:#038048;stroke-width:1.0;"/><text fill="#EEEEEE" font-family="sans-serif" font-size="13" lengthAdjust="spacing" textLength="231" x="424.5" y="166.895">array&lt;string,Icon&gt; get_user_icons()</text><ellipse cx="416.5" cy="180.9609" fill="#84BE84" rx="5" ry="5" style="stroke:#038048;stroke-width:1.0;"/><text fill="#EEEEEE" font-family="sans-serif" font-size="13" lengthAdjust="spacing" textLength="259" x="424.5" y="186.0278">array&lt;string,Icon&gt; get_category_icons()</text><ellipse cx="416.5" cy="200.0938" fill="#84BE84" rx="5" ry="5" style="stroke:#038048;stroke-width:1.0;"/><text fill="#EEEEEE" font-family="sans-serif" font-size="13" lengthAdjust="spacing" textLength="265" x="424.5" y="205.1606">array&lt;string,Icon&gt; get_comment_icons()</text><line style="stroke:#111111;stroke-width:1.0;stroke-dasharray:1.0,2.0;" x1="404.5" x2="487.5" y1="223.793" y2="223.793"/><text fill="#EEEEEE" font-family="sans-serif" font-size="13" lengthAdjust="spacing" textLength="191" x="489.5" y="227.7935">Other category retriever Icons</text><line style="stroke:#111111;stroke-width:1.0;stroke-dasharray:1.0,2.0;" x1="682.5" x2="765.5" y1="223.793" y2="223.793"/><line style="stroke:#111111;stroke-width:1.0;" x1="404.5" x2="765.5" y1="242.9258" y2="242.9258"/><ellipse cx="416.5" cy="255.9258" fill="#84BE84" rx="5" ry="5" style="stroke:#038048;stroke-width:1.0;"/><text fill="#EEEEEE" font-family="sans-serif" font-size="13" lengthAdjust="spacing" textLength="313" x="424.5" y="260.9927">get_compatible_disabled_comment_icon( $icon )</text><line style="stroke:#111111;stroke-width:1.0;stroke-dasharray:1.0,2.0;" x1="404.5" x2="492.5" y1="279.625" y2="279.625"/><text fill="#EEEEEE" font-family="sans-serif" font-size="13" lengthAdjust="spacing" textLength="181" x="494.5" y="283.6255">Other unimportant functions</text><line style="stroke:#111111;stroke-width:1.0;stroke-dasharray:1.0,2.0;" x1="677.5" x2="765.5" y1="279.625" y2="279.625"/><!--MD5=[288fd9b4394cce107d368572bff42c7b]
class TWRP\\Icons\\Icon--><rect codeLine="54" fill="url(#g15muo24fhwjqy0)" height="262.3242" id="TWRP\\Icons\\Icon" style="stroke:#111111;stroke-width:1.5;" width="253" x="458.5" y="442"/><ellipse cx="529.5" cy="474.2813" fill="#ADD1B2" rx="10" ry="10" style="stroke:#111111;stroke-width:1.0;"/><path d="M531.8906,479.8594 Q531.2813,480.1875 530.6406,480.3438 Q530.0156,480.5156 529.3125,480.5156 Q527.0625,480.5156 525.8281,478.9219 Q524.5938,477.3281 524.5938,474.4531 Q524.5938,471.5938 525.8281,470 Q527.0781,468.4063 529.3125,468.4063 Q530.0156,468.4063 530.6406,468.5625 Q531.2813,468.7188 531.8906,469.0469 L531.8906,470.6563 Q531.3125,470.1875 530.6406,469.9375 Q529.9844,469.6875 529.3125,469.6875 Q527.7656,469.6875 527,470.875 Q526.2344,472.0625 526.2344,474.4531 Q526.2344,476.8438 527,478.0313 Q527.7656,479.2188 529.3125,479.2188 Q530,479.2188 530.6563,478.9688 Q531.3125,478.7188 531.8906,478.25 L531.8906,479.8594 Z " fill="#000000"/><text fill="#EEEEEE" font-family="sans-serif" font-size="12" font-style="italic" lengthAdjust="spacing" textLength="87" x="556.5" y="460.1387">«public class»</text><text fill="#EEEEEE" font-family="sans-serif" font-size="12" font-style="italic" lengthAdjust="spacing" textLength="103" x="548.5" y="474.1074">«get via factory»</text><text fill="#EEEEEE" font-family="sans-serif" font-size="16" lengthAdjust="spacing" textLength="34" x="583" y="495.7891">Icon</text><line style="stroke:#111111;stroke-width:1.5;" x1="459.5" x2="710.5" y1="506.5625" y2="506.5625"/><ellipse cx="471.5" cy="519.5625" fill="#84BE84" rx="5" ry="5" style="stroke:#038048;stroke-width:1.0;"/><text fill="#EEEEEE" font-family="sans-serif" font-size="13" lengthAdjust="spacing" textLength="221" x="479.5" y="524.6294">__construct( $icon_id, $icon_args )</text><ellipse cx="471.5" cy="538.6953" fill="#84BE84" rx="5" ry="5" style="stroke:#038048;stroke-width:1.0;"/><text fill="#EEEEEE" font-family="sans-serif" font-size="13" lengthAdjust="spacing" textLength="201" x="479.5" y="543.7622">void display( $additional_class )</text><ellipse cx="471.5" cy="557.8281" fill="#84BE84" rx="5" ry="5" style="stroke:#038048;stroke-width:1.0;"/><text fill="#EEEEEE" font-family="sans-serif" font-size="13" lengthAdjust="spacing" textLength="224" x="479.5" y="562.895">string get_html( $additional_class )</text><line style="stroke:#111111;stroke-width:1.0;" x1="459.5" x2="710.5" y1="571.9609" y2="571.9609"/><ellipse cx="471.5" cy="584.9609" fill="#84BE84" rx="5" ry="5" style="stroke:#038048;stroke-width:1.0;"/><text fill="#EEEEEE" font-family="sans-serif" font-size="13" lengthAdjust="spacing" textLength="158" x="479.5" y="590.0278">get_icon_svg_definition()</text><ellipse cx="471.5" cy="604.0938" fill="#84BE84" rx="5" ry="5" style="stroke:#038048;stroke-width:1.0;"/><text fill="#EEEEEE" font-family="sans-serif" font-size="13" lengthAdjust="spacing" textLength="49" x="479.5" y="609.1606">get_id()</text><ellipse cx="471.5" cy="623.2266" fill="#84BE84" rx="5" ry="5" style="stroke:#038048;stroke-width:1.0;"/><text fill="#EEEEEE" font-family="sans-serif" font-size="13" lengthAdjust="spacing" textLength="75" x="479.5" y="628.2935">get_brand()</text><ellipse cx="471.5" cy="642.3594" fill="#84BE84" rx="5" ry="5" style="stroke:#038048;stroke-width:1.0;"/><text fill="#EEEEEE" font-family="sans-serif" font-size="13" lengthAdjust="spacing" textLength="108" x="479.5" y="647.4263">get_description()</text><ellipse cx="471.5" cy="661.4922" fill="#84BE84" rx="5" ry="5" style="stroke:#038048;stroke-width:1.0;"/><text fill="#EEEEEE" font-family="sans-serif" font-size="13" lengthAdjust="spacing" textLength="125" x="479.5" y="666.5591">get_icon_file_path()</text><line style="stroke:#111111;stroke-width:1.0;stroke-dasharray:1.0,2.0;" x1="459.5" x2="492.5" y1="685.1914" y2="685.1914"/><text fill="#EEEEEE" font-family="sans-serif" font-size="13" lengthAdjust="spacing" textLength="181" x="494.5" y="689.1919">Other unimportant functions</text><line style="stroke:#111111;stroke-width:1.0;stroke-dasharray:1.0,2.0;" x1="677.5" x2="710.5" y1="685.1914" y2="685.1914"/><!--MD5=[eb57f083d948c010d32af74530e5af00]
class TWRP\\Icons\\Rating_Icon_Pack--><rect codeLine="67" fill="url(#g15muo24fhwjqy0)" height="243.1914" id="TWRP\\Icons\\Rating_Icon_Pack" style="stroke:#111111;stroke-width:1.5;" width="297" x="15.5" y="451.5"/><ellipse cx="90" cy="483.7813" fill="#ADD1B2" rx="10" ry="10" style="stroke:#111111;stroke-width:1.0;"/><path d="M92.3906,489.3594 Q91.7813,489.6875 91.1406,489.8438 Q90.5156,490.0156 89.8125,490.0156 Q87.5625,490.0156 86.3281,488.4219 Q85.0938,486.8281 85.0938,483.9531 Q85.0938,481.0938 86.3281,479.5 Q87.5781,477.9063 89.8125,477.9063 Q90.5156,477.9063 91.1406,478.0625 Q91.7813,478.2188 92.3906,478.5469 L92.3906,480.1563 Q91.8125,479.6875 91.1406,479.4375 Q90.4844,479.1875 89.8125,479.1875 Q88.2656,479.1875 87.5,480.375 Q86.7344,481.5625 86.7344,483.9531 Q86.7344,486.3438 87.5,487.5313 Q88.2656,488.7188 89.8125,488.7188 Q90.5,488.7188 91.1563,488.4688 Q91.8125,488.2188 92.3906,487.75 L92.3906,489.3594 Z " fill="#000000"/><text fill="#EEEEEE" font-family="sans-serif" font-size="12" font-style="italic" lengthAdjust="spacing" textLength="87" x="135.5" y="469.6387">«public class»</text><text fill="#EEEEEE" font-family="sans-serif" font-size="12" font-style="italic" lengthAdjust="spacing" textLength="103" x="127.5" y="483.6074">«get via factory»</text><text fill="#EEEEEE" font-family="sans-serif" font-size="16" lengthAdjust="spacing" textLength="136" x="111" y="505.2891">Rating_Icon_Pack</text><line style="stroke:#111111;stroke-width:1.5;" x1="16.5" x2="311.5" y1="516.0625" y2="516.0625"/><ellipse cx="28.5" cy="529.0625" fill="#84BE84" rx="5" ry="5" style="stroke:#038048;stroke-width:1.0;"/><text fill="#EEEEEE" font-family="sans-serif" font-size="13" lengthAdjust="spacing" textLength="268" x="36.5" y="534.1294">__construct( $rating_pack_id, $pack_attr )</text><ellipse cx="28.5" cy="548.1953" fill="#84BE84" rx="5" ry="5" style="stroke:#038048;stroke-width:1.0;"/><text fill="#EEEEEE" font-family="sans-serif" font-size="13" lengthAdjust="spacing" textLength="142" x="36.5" y="553.2622">Icon get_empty_icon()</text><ellipse cx="28.5" cy="567.3281" fill="#84BE84" rx="5" ry="5" style="stroke:#038048;stroke-width:1.0;"/><text fill="#EEEEEE" font-family="sans-serif" font-size="13" lengthAdjust="spacing" textLength="160" x="36.5" y="572.395">Icon get_half_filled_icon()</text><ellipse cx="28.5" cy="586.4609" fill="#84BE84" rx="5" ry="5" style="stroke:#038048;stroke-width:1.0;"/><text fill="#EEEEEE" font-family="sans-serif" font-size="13" lengthAdjust="spacing" textLength="130" x="36.5" y="591.5278">Icon get_filled_icon()</text><line style="stroke:#111111;stroke-width:1.0;" x1="16.5" x2="311.5" y1="600.5938" y2="600.5938"/><ellipse cx="28.5" cy="613.5938" fill="#84BE84" rx="5" ry="5" style="stroke:#038048;stroke-width:1.0;"/><text fill="#EEEEEE" font-family="sans-serif" font-size="13" lengthAdjust="spacing" textLength="49" x="36.5" y="618.6606">get_id()</text><ellipse cx="28.5" cy="632.7266" fill="#84BE84" rx="5" ry="5" style="stroke:#038048;stroke-width:1.0;"/><text fill="#EEEEEE" font-family="sans-serif" font-size="13" lengthAdjust="spacing" textLength="75" x="36.5" y="637.7935">get_brand()</text><ellipse cx="28.5" cy="651.8594" fill="#84BE84" rx="5" ry="5" style="stroke:#038048;stroke-width:1.0;"/><text fill="#EEEEEE" font-family="sans-serif" font-size="13" lengthAdjust="spacing" textLength="108" x="36.5" y="656.9263">get_description()</text><line style="stroke:#111111;stroke-width:1.0;stroke-dasharray:1.0,2.0;" x1="16.5" x2="71.5" y1="675.5586" y2="675.5586"/><text fill="#EEEEEE" font-family="sans-serif" font-size="13" lengthAdjust="spacing" textLength="181" x="73.5" y="679.5591">Other unimportant functions</text><line style="stroke:#111111;stroke-width:1.0;stroke-dasharray:1.0,2.0;" x1="256.5" x2="311.5" y1="675.5586" y2="675.5586"/><!--MD5=[6f18ab5b0d2c52f6b5a69b5919bec104]
class TWRP\\Icons\\Icon_Categories--><rect codeLine="79" fill="url(#g15muo24fhwjqy1)" height="64.2656" id="TWRP\\Icons\\Icon_Categories" style="stroke:#111111;stroke-width:1.5;" width="145" x="15.5" y="856"/><ellipse cx="29.5" cy="880.1328" fill="#ADD1B2" rx="10" ry="10" style="stroke:#111111;stroke-width:1.0;"/><path d="M31.8906,885.7109 Q31.2813,886.0391 30.6406,886.1953 Q30.0156,886.3672 29.3125,886.3672 Q27.0625,886.3672 25.8281,884.7734 Q24.5938,883.1797 24.5938,880.3047 Q24.5938,877.4453 25.8281,875.8516 Q27.0781,874.2578 29.3125,874.2578 Q30.0156,874.2578 30.6406,874.4141 Q31.2813,874.5703 31.8906,874.8984 L31.8906,876.5078 Q31.3125,876.0391 30.6406,875.7891 Q29.9844,875.5391 29.3125,875.5391 Q27.7656,875.5391 27,876.7266 Q26.2344,877.9141 26.2344,880.3047 Q26.2344,882.6953 27,883.8828 Q27.7656,885.0703 29.3125,885.0703 Q30,885.0703 30.6563,884.8203 Q31.3125,884.5703 31.8906,884.1016 L31.8906,885.7109 Z " fill="#000000"/><text fill="#EEEEEE" font-family="sans-serif" font-size="12" font-style="italic" lengthAdjust="spacing" textLength="93" x="53.5" y="874.1387">«private class»</text><text fill="#EEEEEE" font-family="sans-serif" font-size="14" lengthAdjust="spacing" textLength="111" x="44.5" y="893.9639">Icon_Categories</text><line style="stroke:#111111;stroke-width:1.5;" x1="16.5" x2="159.5" y1="904.2656" y2="904.2656"/><line style="stroke:#111111;stroke-width:1.5;" x1="16.5" x2="159.5" y1="912.2656" y2="912.2656"/><!--MD5=[09c6e1d98a366c8663af78b1e5c587c9]
class TWRP\\Icons\\Definitions\\Icon_Definitions--><rect codeLine="82" fill="url(#g15muo24fhwjqy1)" height="64.2656" id="TWRP\\Icons\\Definitions\\Icon_Definitions" style="stroke:#111111;stroke-width:1.5;" width="143" x="432.5" y="856"/><ellipse cx="446.5" cy="880.1328" fill="#B4A7E5" rx="10" ry="10" style="stroke:#111111;stroke-width:1.0;"/><path d="M443.5781,874.4609 L450.0469,874.4609 L450.0469,875.7891 L447.6094,875.7891 L447.6094,884.8047 L450.0469,884.8047 L450.0469,886.1328 L443.5781,886.1328 L443.5781,884.8047 L446.0156,884.8047 L446.0156,875.7891 L443.5781,875.7891 L443.5781,874.4609 Z " fill="#000000"/><text fill="#EEEEEE" font-family="sans-serif" font-size="12" font-style="italic" lengthAdjust="spacing" textLength="93" x="469.5" y="874.1387">«private class»</text><text fill="#EEEEEE" font-family="sans-serif" font-size="14" font-style="italic" lengthAdjust="spacing" textLength="109" x="461.5" y="893.9639">Icon_Definitions</text><line style="stroke:#111111;stroke-width:1.5;" x1="433.5" x2="574.5" y1="904.2656" y2="904.2656"/><line style="stroke:#111111;stroke-width:1.5;" x1="433.5" x2="574.5" y1="912.2656" y2="912.2656"/><!--MD5=[6615ca8a2820f155e644121417102410]
class TWRP\\Icons\\Definitions\\User_Icons--><rect codeLine="83" fill="url(#g15muo24fhwjqy1)" height="64.2656" id="TWRP\\Icons\\Definitions\\User_Icons" style="stroke:#111111;stroke-width:1.5;" width="123" x="177.5" y="1174"/><ellipse cx="191.5" cy="1198.1328" fill="#ADD1B2" rx="10" ry="10" style="stroke:#111111;stroke-width:1.0;"/><path d="M193.8906,1203.7109 Q193.2813,1204.0391 192.6406,1204.1953 Q192.0156,1204.3672 191.3125,1204.3672 Q189.0625,1204.3672 187.8281,1202.7734 Q186.5938,1201.1797 186.5938,1198.3047 Q186.5938,1195.4453 187.8281,1193.8516 Q189.0781,1192.2578 191.3125,1192.2578 Q192.0156,1192.2578 192.6406,1192.4141 Q193.2813,1192.5703 193.8906,1192.8984 L193.8906,1194.5078 Q193.3125,1194.0391 192.6406,1193.7891 Q191.9844,1193.5391 191.3125,1193.5391 Q189.7656,1193.5391 189,1194.7266 Q188.2344,1195.9141 188.2344,1198.3047 Q188.2344,1200.6953 189,1201.8828 Q189.7656,1203.0703 191.3125,1203.0703 Q192,1203.0703 192.6563,1202.8203 Q193.3125,1202.5703 193.8906,1202.1016 L193.8906,1203.7109 Z " fill="#000000"/><text fill="#EEEEEE" font-family="sans-serif" font-size="12" font-style="italic" lengthAdjust="spacing" textLength="93" x="204.5" y="1192.1387">«private class»</text><text fill="#EEEEEE" font-family="sans-serif" font-size="14" lengthAdjust="spacing" textLength="76" x="213" y="1211.9639">User_Icons</text><line style="stroke:#111111;stroke-width:1.5;" x1="178.5" x2="299.5" y1="1222.2656" y2="1222.2656"/><line style="stroke:#111111;stroke-width:1.5;" x1="178.5" x2="299.5" y1="1230.2656" y2="1230.2656"/><!--MD5=[15517826e6d8eecab4a26697cb8220b2]
class TWRP\\Icons\\Definitions\\Date_Icons--><rect codeLine="84" fill="url(#g15muo24fhwjqy1)" height="64.2656" id="TWRP\\Icons\\Definitions\\Date_Icons" style="stroke:#111111;stroke-width:1.5;" width="123" x="335.5" y="1174"/><ellipse cx="349.5" cy="1198.1328" fill="#ADD1B2" rx="10" ry="10" style="stroke:#111111;stroke-width:1.0;"/><path d="M351.8906,1203.7109 Q351.2813,1204.0391 350.6406,1204.1953 Q350.0156,1204.3672 349.3125,1204.3672 Q347.0625,1204.3672 345.8281,1202.7734 Q344.5938,1201.1797 344.5938,1198.3047 Q344.5938,1195.4453 345.8281,1193.8516 Q347.0781,1192.2578 349.3125,1192.2578 Q350.0156,1192.2578 350.6406,1192.4141 Q351.2813,1192.5703 351.8906,1192.8984 L351.8906,1194.5078 Q351.3125,1194.0391 350.6406,1193.7891 Q349.9844,1193.5391 349.3125,1193.5391 Q347.7656,1193.5391 347,1194.7266 Q346.2344,1195.9141 346.2344,1198.3047 Q346.2344,1200.6953 347,1201.8828 Q347.7656,1203.0703 349.3125,1203.0703 Q350,1203.0703 350.6563,1202.8203 Q351.3125,1202.5703 351.8906,1202.1016 L351.8906,1203.7109 Z " fill="#000000"/><text fill="#EEEEEE" font-family="sans-serif" font-size="12" font-style="italic" lengthAdjust="spacing" textLength="93" x="362.5" y="1192.1387">«private class»</text><text fill="#EEEEEE" font-family="sans-serif" font-size="14" lengthAdjust="spacing" textLength="77" x="370.5" y="1211.9639">Date_Icons</text><line style="stroke:#111111;stroke-width:1.5;" x1="336.5" x2="457.5" y1="1222.2656" y2="1222.2656"/><line style="stroke:#111111;stroke-width:1.5;" x1="336.5" x2="457.5" y1="1230.2656" y2="1230.2656"/><!--MD5=[f18e5433a2e1013949d5a281b07d8bd2]
class TWRP\\Icons\\Definitions\\Other_Category_With_Icons--><rect codeLine="85" fill="url(#g15muo24fhwjqy1)" height="78.2344" id="TWRP\\Icons\\Definitions\\Other_Category_With_Icons" style="stroke:#111111;stroke-width:1.5;" width="235" x="493.5" y="1167"/><ellipse cx="507.5" cy="1198.1172" fill="#ADD1B2" rx="10" ry="10" style="stroke:#111111;stroke-width:1.0;"/><path d="M509.8906,1203.6953 Q509.2813,1204.0234 508.6406,1204.1797 Q508.0156,1204.3516 507.3125,1204.3516 Q505.0625,1204.3516 503.8281,1202.7578 Q502.5938,1201.1641 502.5938,1198.2891 Q502.5938,1195.4297 503.8281,1193.8359 Q505.0781,1192.2422 507.3125,1192.2422 Q508.0156,1192.2422 508.6406,1192.3984 Q509.2813,1192.5547 509.8906,1192.8828 L509.8906,1194.4922 Q509.3125,1194.0234 508.6406,1193.7734 Q507.9844,1193.5234 507.3125,1193.5234 Q505.7656,1193.5234 505,1194.7109 Q504.2344,1195.8984 504.2344,1198.2891 Q504.2344,1200.6797 505,1201.8672 Q505.7656,1203.0547 507.3125,1203.0547 Q508,1203.0547 508.6563,1202.8047 Q509.3125,1202.5547 509.8906,1202.0859 L509.8906,1203.6953 Z " fill="#000000"/><text fill="#EEEEEE" font-family="sans-serif" font-size="12" font-style="italic" lengthAdjust="spacing" textLength="205" x="520.5" y="1185.1387">«more identical siblings classes»</text><text fill="#EEEEEE" font-family="sans-serif" font-size="12" font-style="italic" lengthAdjust="spacing" textLength="93" x="576.5" y="1199.1074">«private class»</text><text fill="#EEEEEE" font-family="sans-serif" font-size="14" lengthAdjust="spacing" textLength="189" x="528.5" y="1218.9326">Other_Category_With_Icons</text><line style="stroke:#111111;stroke-width:1.5;" x1="494.5" x2="727.5" y1="1229.2344" y2="1229.2344"/><line style="stroke:#111111;stroke-width:1.5;" x1="494.5" x2="727.5" y1="1237.2344" y2="1237.2344"/><!--MD5=[a3ae3969f8489d7e47e8c9c29beae3c9]
class TWRP\\Icons\\Definitions\\Rating_Icons--><rect codeLine="86" fill="url(#g15muo24fhwjqy1)" height="64.2656" id="TWRP\\Icons\\Definitions\\Rating_Icons" style="stroke:#111111;stroke-width:1.5;" width="123" x="763.5" y="1174"/><ellipse cx="777.5" cy="1198.1328" fill="#ADD1B2" rx="10" ry="10" style="stroke:#111111;stroke-width:1.0;"/><path d="M779.8906,1203.7109 Q779.2813,1204.0391 778.6406,1204.1953 Q778.0156,1204.3672 777.3125,1204.3672 Q775.0625,1204.3672 773.8281,1202.7734 Q772.5938,1201.1797 772.5938,1198.3047 Q772.5938,1195.4453 773.8281,1193.8516 Q775.0781,1192.2578 777.3125,1192.2578 Q778.0156,1192.2578 778.6406,1192.4141 Q779.2813,1192.5703 779.8906,1192.8984 L779.8906,1194.5078 Q779.3125,1194.0391 778.6406,1193.7891 Q777.9844,1193.5391 777.3125,1193.5391 Q775.7656,1193.5391 775,1194.7266 Q774.2344,1195.9141 774.2344,1198.3047 Q774.2344,1200.6953 775,1201.8828 Q775.7656,1203.0703 777.3125,1203.0703 Q778,1203.0703 778.6563,1202.8203 Q779.3125,1202.5703 779.8906,1202.1016 L779.8906,1203.7109 Z " fill="#000000"/><text fill="#EEEEEE" font-family="sans-serif" font-size="12" font-style="italic" lengthAdjust="spacing" textLength="93" x="790.5" y="1192.1387">«private class»</text><text fill="#EEEEEE" font-family="sans-serif" font-size="14" lengthAdjust="spacing" textLength="88" x="793" y="1211.9639">Rating_Icons</text><line style="stroke:#111111;stroke-width:1.5;" x1="764.5" x2="885.5" y1="1222.2656" y2="1222.2656"/><line style="stroke:#111111;stroke-width:1.5;" x1="764.5" x2="885.5" y1="1230.2656" y2="1230.2656"/><!--MD5=[53715920828b94812adf8bd634476118]
reverse link TWRP\\Icons\\Definitions\\Icon_Definitions to TWRP\\Icons\\Definitions\\User_Icons--><path codeLine="88" d="M416.1317,928.7294 C369.2037,951.1669 321,975.6405 321,981.5 C321,981.5 321,981.5 321,1105.5 C321,1132.5226 302.9824,1156.294 283.8387,1173.9247 " fill="none" id="TWRP\\Icons\\Definitions\\Icon_Definitions-backto-TWRP\\Icons\\Definitions\\User_Icons" style="stroke:#FFFF00;stroke-width:1.0;stroke-dasharray:7.0,7.0;"/><polygon fill="none" points="413.2236,922.3613,434.2935,920.1117,419.2252,935.0096,413.2236,922.3613" style="stroke:#FFFF00;stroke-width:1.0;"/><!--MD5=[a33157e7214590f4184420092df68aba]
reverse link TWRP\\Icons\\Definitions\\Icon_Definitions to TWRP\\Icons\\Definitions\\Date_Icons--><path codeLine="89" d="M456.5629,936.1451 C447.6174,949.7255 441,965.26 441,981.5 C441,981.5 441,981.5 441,1105.5 C441,1129.6895 430.1712,1154.6124 419.2578,1173.5878 " fill="none" id="TWRP\\Icons\\Definitions\\Icon_Definitions-backto-TWRP\\Icons\\Definitions\\Date_Icons" style="stroke:#FFFF00;stroke-width:1.0;stroke-dasharray:7.0,7.0;"/><polygon fill="none" points="451.1204,931.7383,468.8161,920.0823,462.2515,940.2294,451.1204,931.7383" style="stroke:#FFFF00;stroke-width:1.0;"/><!--MD5=[a8f9c0de5716a46ec3fc4e27c1902ea7]
reverse link TWRP\\Icons\\Definitions\\Icon_Definitions to TWRP\\Icons\\Definitions\\Other_Category_With_Icons--><path codeLine="90" d="M550.6841,936.2548 C559.4876,949.8337 566,965.34 566,981.5 C566,981.5 566,981.5 566,1105.5 C566,1126.9112 574.6133,1148.8239 584.3032,1166.7011 " fill="none" id="TWRP\\Icons\\Definitions\\Icon_Definitions-backto-TWRP\\Icons\\Definitions\\Other_Category_With_Icons" style="stroke:#FFFF00;stroke-width:1.0;stroke-dasharray:7.0,7.0;"/><polygon fill="none" points="545.0284,940.3806,538.6254,920.1815,556.2272,931.9789,545.0284,940.3806" style="stroke:#FFFF00;stroke-width:1.0;"/><!--MD5=[3746dc27a2e4cad0d836f5ccab805b3e]
reverse link TWRP\\Icons\\Definitions\\Icon_Definitions to TWRP\\Icons\\Definitions\\Rating_Icons--><path codeLine="91" d="M595.3732,910.088 C675.7343,930.8398 780,961.599 780,981.5 C780,981.5 780,981.5 780,1105.5 C780,1129.7788 791.0749,1154.7024 802.2363,1173.6558 " fill="none" id="TWRP\\Icons\\Definitions\\Icon_Definitions-backto-TWRP\\Icons\\Definitions\\Rating_Icons" style="stroke:#FFFF00;stroke-width:1.0;stroke-dasharray:7.0,7.0;"/><polygon fill="none" points="593.451,916.822,575.7953,905.1056,596.9039,903.2545,593.451,916.822" style="stroke:#FFFF00;stroke-width:1.0;"/><!--MD5=[b81864a2052d005ff04cdc57bf5eaa4b]
link TWRP\\Icons\\Icon_Factory to TWRP\\Icons\\Icon--><path codeLine="94" d="M585,299.2709 C585,343.2776 585,392.4655 585,436.8743 " fill="none" id="TWRP\\Icons\\Icon_Factory-to-TWRP\\Icons\\Icon" style="stroke:#FFFF00;stroke-width:1.0;stroke-dasharray:7.0,7.0;"/><polygon fill="#FFFF00" points="585,441.9869,589,432.9869,585,436.9869,581,432.9869,585,441.9869" style="stroke:#FFFF00;stroke-width:1.0;"/><text fill="#000000" font-family="sans-serif" font-size="13" lengthAdjust="spacing" textLength="111" x="588" y="375.0669">Create Icon by Id.</text><!--MD5=[b3e408dcf6224e52da1a705892581895]
link TWRP\\Icons\\Icon_Factory to TWRP\\Icons\\Rating_Icon_Pack--><path codeLine="95" d="M448.8948,299.2709 C399.3748,346.8501 343.551,400.4861 294.5256,447.59 " fill="none" id="TWRP\\Icons\\Icon_Factory-to-TWRP\\Icons\\Rating_Icon_Pack" style="stroke:#FFFF00;stroke-width:1.0;stroke-dasharray:7.0,7.0;"/><polygon fill="#FFFF00" points="290.708,451.258,299.9691,447.9067,294.3134,447.7937,294.4263,442.138,290.708,451.258" style="stroke:#FFFF00;stroke-width:1.0;"/><text fill="#000000" font-family="sans-serif" font-size="13" lengthAdjust="spacing" textLength="115" x="388" y="375.0669">Create Pack by Id.</text><!--MD5=[5d4d37f6760e2bbd565f08808afc6069]
link TWRP\\Icons\\Rating_Icon_Pack to TWRP\\Icons\\Icon--><path codeLine="97" d="M312.725,573 C358.5242,573 408.604,573 453.184,573 " fill="none" id="TWRP\\Icons\\Rating_Icon_Pack-to-TWRP\\Icons\\Icon" style="stroke:#FFFF00;stroke-width:1.0;"/><polygon fill="#FFFF00" points="458.3132,573,449.3132,569,453.3132,573,449.3132,577,458.3132,573" style="stroke:#FFFF00;stroke-width:1.0;"/><text fill="#000000" font-family="sans-serif" font-size="13" lengthAdjust="spacing" textLength="105" x="333" y="564.0669">Contains 3 Icons</text><!--MD5=[405d7190d2a8458c70e88af171c3a080]
link TWRP\\Icons\\Icon to TWRP\\Icons\\Icon_Categories--><path codeLine="99" d="M458.4114,642.545 C373.4521,690.7575 260.1075,758.0914 165,825 C153.0474,833.4087 140.5847,843.1409 129.2545,852.4032 " fill="none" id="TWRP\\Icons\\Icon-to-TWRP\\Icons\\Icon_Categories" style="stroke:#FFFF00;stroke-width:1.0;"/><polygon fill="#FFFF00" points="125.1346,855.791,134.6267,853.1641,128.9965,852.6152,129.5454,846.9851,125.1346,855.791" style="stroke:#FFFF00;stroke-width:1.0;"/><!--MD5=[0846807649e5a241fa067ee2736da819]
link TWRP\\Icons\\Icon_Factory to TWRP\\Icons\\Definitions--><path codeLine="101" d="M760.1649,299.1352 C773.5562,320.6671 782,344.5376 782,370.5 C782,370.5 782,370.5 782,775.5 C782,790.4324 777.1739,804.6361 769.8216,817.6105 C768.9025,819.2323 767.944,820.8349 766.9505,822.4173 C766.4538,823.2085 765.9483,823.9947 765.4346,824.7757 " fill="none" id="TWRP\\Icons\\Icon_Factory-to-TWRP\\Icons\\Definitions" style="stroke:#FFFF00;stroke-width:1.0;"/><polygon fill="#FFFF00" points="765.4346,824.7757,773.7222,819.4544,768.1822,820.5982,767.0383,815.0583,765.4346,824.7757" style="stroke:#FFFF00;stroke-width:1.0;"/><text fill="#000000" font-family="sans-serif" font-size="13" lengthAdjust="spacing" textLength="104" x="785" y="577.5669">Know everything</text><!--MD5=[b6a5b1e35f1705f7fe2d9c74be0589d1]
link TWRP\\Icons\\Icon to TWRP\\Icons\\Definitions--><path codeLine="102" d="M631.6871,704.3074 C646.3326,745.4979 661.8525,789.1474 674.0871,823.5574 C674.1827,823.8262 674.2781,824.0945 674.3733,824.3622 " fill="none" id="TWRP\\Icons\\Icon-to-TWRP\\Icons\\Definitions" style="stroke:#FFFF00;stroke-width:1.0;"/><polygon fill="#FFFF00" points="674.3733,824.3622,675.127,814.5422,672.6982,819.6511,667.5893,817.2223,674.3733,824.3622" style="stroke:#FFFF00;stroke-width:1.0;"/><text fill="#000000" font-family="sans-serif" font-size="13" lengthAdjust="spacing" textLength="104" x="663" y="780.0669">Know everything</text><!--MD5=[4f360ee68fda74f460e74c1e7219e667]
@startuml
set namespaceSeparator \\

    skinparam {
        padding 2
        backgroundColor #222
        shadowing false

        classFontColor #eee
        classStereotypeFontColor #eee
        classBorderColor #111
        classFontSize 14
        ClassAttributeFontColor #eee
        ClassAttributeFontSize 13
        ClassAttributeIconSize 15

        PackageBackgroundColor #2c2c2c
        PackageBorderColor #111
        PackageFontColor #eee

        ArrowColor yellow

        circledCharacterFontColor black
        circledCharacterFontSize 16
        circledCharacterFontStyle plain
        circledCharacterRadius 10

        packageStyle rectangle

        <<public class>>classBackgroundColor #004b00/#003b00
        <<public class>>classFontSize 16

        <<private class>>classBackgroundColor #5d0000/#4d0000

        <<protected class>>classBackgroundColor #d16300/#c15300

        <<abstract class>>classBorderColor #755800
    }


namespace TWRP\\Icons {
	class Icon_Factory <<public class>> <<static collection>> {
		+ Icon get_icon( $icon_id )
		+ Rating_Icon_Pack get_rating_pack( $rating_pack_id )
		- -
		+ array<string,Icon> get_user_icons()
		+ array<string,Icon> get_category_icons()
		+ array<string,Icon> get_comment_icons()
		.. Other category retriever Icons ..
		- -
		+ get_compatible_disabled_comment_icon( $icon )
		.. Other unimportant functions ..
	}

	class Icon <<public class>> <<get via factory>> {
		+ __construct( $icon_id, $icon_args )
		+ void display( $additional_class )
		+ string get_html( $additional_class )
		- -
		+ get_icon_svg_definition()
		+ get_id()
		+ get_brand()
		+ get_description()
		+ get_icon_file_path()
		.. Other unimportant functions ..
	}

	class Rating_Icon_Pack <<public class>> <<get via factory>> {
		+ __construct( $rating_pack_id, $pack_attr )
		+ Icon get_empty_icon()
		+ Icon get_half_filled_icon()
		+ Icon get_filled_icon()
		- -
		+ get_id()
		+ get_brand()
		+ get_description()
		.. Other unimportant functions ..
	}

	class Icon_Categories <<private class>> {}

	namespace Definitions {
		interface Icon_Definitions <<private class>> {}
		class User_Icons <<private class>> {}
		class Date_Icons <<private class>> {}
		class Other_Category_With_Icons <<more identical siblings classes>> <<private class>> {}
		class Rating_Icons <<private class>> {}

		Icon_Definitions <|.. User_Icons
		Icon_Definitions <|.. Date_Icons
		Icon_Definitions <|.. Other_Category_With_Icons
		Icon_Definitions <|.. Rating_Icons
	}

	Icon_Factory ..> Icon : Create Icon by Id.
	Icon_Factory ..> Rating_Icon_Pack : Create Pack by Id.

	Rating_Icon_Pack -r-> Icon : Contains 3 Icons

	Icon - -> Icon_Categories

	Icon_Factory - -> TWRP\\Icons\\Definitions : Know everything
	Icon - -> TWRP\\Icons\\Definitions : Know everything
}
@enduml

PlantUML version 1.2021.00(Sun Jan 10 10:25:05 UTC 2021)
(GPL source distribution)
Java Runtime: OpenJDK Runtime Environment
JVM: OpenJDK 64-Bit Server VM
Default Encoding: UTF-8
Language: en
Country: null
--></g></svg>