<?xml version="1.0" encoding="UTF-8" standalone="no"?><svg xmlns="http://www.w3.org/2000/svg" xmlns:xlink="http://www.w3.org/1999/xlink" contentScriptType="application/ecmascript" contentStyleType="text/css" height="1267px" preserveAspectRatio="none" style="width:929px;height:1267px;background:#222222;" version="1.1" viewBox="0 0 929 1267" width="929px" zoomAndPan="magnify"><defs><linearGradient id="g7ouidpo6df4w0" x1="0%" x2="100%" y1="0%" y2="100%"><stop offset="0%" stop-color="#004B00"/><stop offset="100%" stop-color="#003B00"/></linearGradient><linearGradient id="g7ouidpo6df4w1" x1="0%" x2="100%" y1="0%" y2="100%"><stop offset="0%" stop-color="#5D0000"/><stop offset="100%" stop-color="#4D0000"/></linearGradient></defs><g><!--MD5=[d1106f2dd0f85b5e3de7c96203d41272]
cluster TWRP\Icons--><polygon fill="#2C2C2C" points="16,6,118,6,125,32.2969,912,32.2969,912,1260,16,1260,16,6" style="stroke: #111111; stroke-width: 1.5;"/><line style="stroke: #111111; stroke-width: 1.5;" x1="16" x2="125" y1="32.2969" y2="32.2969"/><text fill="#EEEEEE" font-family="sans-serif" font-size="14" font-weight="bold" lengthAdjust="spacingAndGlyphs" textLength="92" x="22" y="22.9951">TWRP\Icons</text><!--MD5=[4add89f23865d9608ef05f08bfd846b0]
cluster Definitions--><polygon fill="#2C2C2C" points="178,824,272,824,279,850.2969,904,850.2969,904,1252,178,1252,178,824" style="stroke: #111111; stroke-width: 1.5;"/><line style="stroke: #111111; stroke-width: 1.5;" x1="178" x2="279" y1="850.2969" y2="850.2969"/><text fill="#EEEEEE" font-family="sans-serif" font-size="14" font-weight="bold" lengthAdjust="spacingAndGlyphs" textLength="84" x="184" y="840.9951">Definitions</text><!--MD5=[8c5ea7d80c044f674c553439e68002b3]
class Icon_Factory--><rect codeLine="39" fill="url(#g7ouidpo6df4w0)" height="260.7578" id="Icon_Factory" style="stroke: #111111; stroke-width: 1.5;" width="363" x="412.5" y="37"/><ellipse cx="533.5" cy="69.2813" fill="#ADD1B2" rx="10" ry="10" style="stroke: #111111; stroke-width: 1.0;"/><path d="M535.8906,74.8594 Q535.2813,75.1875 534.6406,75.3438 Q534.0156,75.5156 533.3125,75.5156 Q531.0625,75.5156 529.8281,73.9219 Q528.5938,72.3281 528.5938,69.4531 Q528.5938,66.5938 529.8281,65 Q531.0781,63.4063 533.3125,63.4063 Q534.0156,63.4063 534.6406,63.5625 Q535.2813,63.7188 535.8906,64.0469 L535.8906,65.6563 Q535.3125,65.1875 534.6406,64.9375 Q533.9844,64.6875 533.3125,64.6875 Q531.7656,64.6875 531,65.875 Q530.2344,67.0625 530.2344,69.4531 Q530.2344,71.8438 531,73.0313 Q531.7656,74.2188 533.3125,74.2188 Q534,74.2188 534.6563,73.9688 Q535.3125,73.7188 535.8906,73.25 L535.8906,74.8594 Z "/><text fill="#EEEEEE" font-family="sans-serif" font-size="12" font-style="italic" lengthAdjust="spacingAndGlyphs" textLength="87" x="565.5" y="55.1387">«public class»</text><text fill="#EEEEEE" font-family="sans-serif" font-size="12" font-style="italic" lengthAdjust="spacingAndGlyphs" textLength="113" x="552.5" y="69.1074">«static collection»</text><text fill="#EEEEEE" font-family="sans-serif" font-size="16" lengthAdjust="spacingAndGlyphs" textLength="101" x="558.5" y="90.7891">Icon_Factory</text><line style="stroke: #111111; stroke-width: 1.5;" x1="413.5" x2="774.5" y1="101.5625" y2="101.5625"/><ellipse cx="425.5" cy="114.5625" fill="#84BE84" rx="5" ry="5" style="stroke: #038048; stroke-width: 1.0;"/><text fill="#EEEEEE" font-family="sans-serif" font-size="13" lengthAdjust="spacingAndGlyphs" textLength="154" x="433.5" y="119.6294">Icon get_icon( $icon_id )</text><ellipse cx="425.5" cy="133.6953" fill="#84BE84" rx="5" ry="5" style="stroke: #038048; stroke-width: 1.0;"/><text fill="#EEEEEE" font-family="sans-serif" font-size="13" lengthAdjust="spacingAndGlyphs" textLength="334" x="433.5" y="138.7622">Rating_Icon_Pack get_rating_pack( $rating_pack_id )</text><line style="stroke: #111111; stroke-width: 1.0;" x1="413.5" x2="774.5" y1="147.8281" y2="147.8281"/><ellipse cx="425.5" cy="160.8281" fill="#84BE84" rx="5" ry="5" style="stroke: #038048; stroke-width: 1.0;"/><text fill="#EEEEEE" font-family="sans-serif" font-size="13" lengthAdjust="spacingAndGlyphs" textLength="231" x="433.5" y="165.895">array&lt;string,Icon&gt; get_user_icons()</text><ellipse cx="425.5" cy="179.9609" fill="#84BE84" rx="5" ry="5" style="stroke: #038048; stroke-width: 1.0;"/><text fill="#EEEEEE" font-family="sans-serif" font-size="13" lengthAdjust="spacingAndGlyphs" textLength="259" x="433.5" y="185.0278">array&lt;string,Icon&gt; get_category_icons()</text><ellipse cx="425.5" cy="199.0938" fill="#84BE84" rx="5" ry="5" style="stroke: #038048; stroke-width: 1.0;"/><text fill="#EEEEEE" font-family="sans-serif" font-size="13" lengthAdjust="spacingAndGlyphs" textLength="265" x="433.5" y="204.1606">array&lt;string,Icon&gt; get_comment_icons()</text><line style="stroke: #111111; stroke-width: 1.0; stroke-dasharray: 1.0,2.0;" x1="413.5" x2="496.5" y1="222.793" y2="222.793"/><text fill="#EEEEEE" font-family="sans-serif" font-size="13" lengthAdjust="spacingAndGlyphs" textLength="191" x="498.5" y="226.7935">Other category retriever Icons</text><line style="stroke: #111111; stroke-width: 1.0; stroke-dasharray: 1.0,2.0;" x1="691.5" x2="774.5" y1="222.793" y2="222.793"/><line style="stroke: #111111; stroke-width: 1.0;" x1="413.5" x2="774.5" y1="241.9258" y2="241.9258"/><ellipse cx="425.5" cy="254.9258" fill="#84BE84" rx="5" ry="5" style="stroke: #038048; stroke-width: 1.0;"/><text fill="#EEEEEE" font-family="sans-serif" font-size="13" lengthAdjust="spacingAndGlyphs" textLength="313" x="433.5" y="259.9927">get_compatible_disabled_comment_icon( $icon )</text><line style="stroke: #111111; stroke-width: 1.0; stroke-dasharray: 1.0,2.0;" x1="413.5" x2="501.5" y1="278.625" y2="278.625"/><text fill="#EEEEEE" font-family="sans-serif" font-size="13" lengthAdjust="spacingAndGlyphs" textLength="181" x="503.5" y="282.6255">Other unimportant functions</text><line style="stroke: #111111; stroke-width: 1.0; stroke-dasharray: 1.0,2.0;" x1="686.5" x2="774.5" y1="278.625" y2="278.625"/><!--MD5=[b4803fc849817a442dd66b19f993bafc]
class Icon--><rect codeLine="52" fill="url(#g7ouidpo6df4w0)" height="262.3242" id="Icon" style="stroke: #111111; stroke-width: 1.5;" width="253" x="467.5" y="441"/><ellipse cx="538.5" cy="473.2813" fill="#ADD1B2" rx="10" ry="10" style="stroke: #111111; stroke-width: 1.0;"/><path d="M540.8906,478.8594 Q540.2813,479.1875 539.6406,479.3438 Q539.0156,479.5156 538.3125,479.5156 Q536.0625,479.5156 534.8281,477.9219 Q533.5938,476.3281 533.5938,473.4531 Q533.5938,470.5938 534.8281,469 Q536.0781,467.4063 538.3125,467.4063 Q539.0156,467.4063 539.6406,467.5625 Q540.2813,467.7188 540.8906,468.0469 L540.8906,469.6563 Q540.3125,469.1875 539.6406,468.9375 Q538.9844,468.6875 538.3125,468.6875 Q536.7656,468.6875 536,469.875 Q535.2344,471.0625 535.2344,473.4531 Q535.2344,475.8438 536,477.0313 Q536.7656,478.2188 538.3125,478.2188 Q539,478.2188 539.6563,477.9688 Q540.3125,477.7188 540.8906,477.25 L540.8906,478.8594 Z "/><text fill="#EEEEEE" font-family="sans-serif" font-size="12" font-style="italic" lengthAdjust="spacingAndGlyphs" textLength="87" x="565.5" y="459.1387">«public class»</text><text fill="#EEEEEE" font-family="sans-serif" font-size="12" font-style="italic" lengthAdjust="spacingAndGlyphs" textLength="103" x="557.5" y="473.1074">«get via factory»</text><text fill="#EEEEEE" font-family="sans-serif" font-size="16" lengthAdjust="spacingAndGlyphs" textLength="34" x="592" y="494.7891">Icon</text><line style="stroke: #111111; stroke-width: 1.5;" x1="468.5" x2="719.5" y1="505.5625" y2="505.5625"/><ellipse cx="480.5" cy="518.5625" fill="#84BE84" rx="5" ry="5" style="stroke: #038048; stroke-width: 1.0;"/><text fill="#EEEEEE" font-family="sans-serif" font-size="13" lengthAdjust="spacingAndGlyphs" textLength="221" x="488.5" y="523.6294">__construct( $icon_id, $icon_args )</text><ellipse cx="480.5" cy="537.6953" fill="#84BE84" rx="5" ry="5" style="stroke: #038048; stroke-width: 1.0;"/><text fill="#EEEEEE" font-family="sans-serif" font-size="13" lengthAdjust="spacingAndGlyphs" textLength="201" x="488.5" y="542.7622">void display( $additional_class )</text><ellipse cx="480.5" cy="556.8281" fill="#84BE84" rx="5" ry="5" style="stroke: #038048; stroke-width: 1.0;"/><text fill="#EEEEEE" font-family="sans-serif" font-size="13" lengthAdjust="spacingAndGlyphs" textLength="224" x="488.5" y="561.895">string get_html( $additional_class )</text><line style="stroke: #111111; stroke-width: 1.0;" x1="468.5" x2="719.5" y1="570.9609" y2="570.9609"/><ellipse cx="480.5" cy="583.9609" fill="#84BE84" rx="5" ry="5" style="stroke: #038048; stroke-width: 1.0;"/><text fill="#EEEEEE" font-family="sans-serif" font-size="13" lengthAdjust="spacingAndGlyphs" textLength="158" x="488.5" y="589.0278">get_icon_svg_definition()</text><ellipse cx="480.5" cy="603.0938" fill="#84BE84" rx="5" ry="5" style="stroke: #038048; stroke-width: 1.0;"/><text fill="#EEEEEE" font-family="sans-serif" font-size="13" lengthAdjust="spacingAndGlyphs" textLength="49" x="488.5" y="608.1606">get_id()</text><ellipse cx="480.5" cy="622.2266" fill="#84BE84" rx="5" ry="5" style="stroke: #038048; stroke-width: 1.0;"/><text fill="#EEEEEE" font-family="sans-serif" font-size="13" lengthAdjust="spacingAndGlyphs" textLength="75" x="488.5" y="627.2935">get_brand()</text><ellipse cx="480.5" cy="641.3594" fill="#84BE84" rx="5" ry="5" style="stroke: #038048; stroke-width: 1.0;"/><text fill="#EEEEEE" font-family="sans-serif" font-size="13" lengthAdjust="spacingAndGlyphs" textLength="108" x="488.5" y="646.4263">get_description()</text><ellipse cx="480.5" cy="660.4922" fill="#84BE84" rx="5" ry="5" style="stroke: #038048; stroke-width: 1.0;"/><text fill="#EEEEEE" font-family="sans-serif" font-size="13" lengthAdjust="spacingAndGlyphs" textLength="125" x="488.5" y="665.5591">get_icon_file_path()</text><line style="stroke: #111111; stroke-width: 1.0; stroke-dasharray: 1.0,2.0;" x1="468.5" x2="501.5" y1="684.1914" y2="684.1914"/><text fill="#EEEEEE" font-family="sans-serif" font-size="13" lengthAdjust="spacingAndGlyphs" textLength="181" x="503.5" y="688.1919">Other unimportant functions</text><line style="stroke: #111111; stroke-width: 1.0; stroke-dasharray: 1.0,2.0;" x1="686.5" x2="719.5" y1="684.1914" y2="684.1914"/><!--MD5=[ee06e294b7c1b05a77a41ae434f7c065]
class Rating_Icon_Pack--><rect codeLine="65" fill="url(#g7ouidpo6df4w0)" height="243.1914" id="Rating_Icon_Pack" style="stroke: #111111; stroke-width: 1.5;" width="297" x="24.5" y="450.5"/><ellipse cx="99" cy="482.7813" fill="#ADD1B2" rx="10" ry="10" style="stroke: #111111; stroke-width: 1.0;"/><path d="M101.3906,488.3594 Q100.7813,488.6875 100.1406,488.8438 Q99.5156,489.0156 98.8125,489.0156 Q96.5625,489.0156 95.3281,487.4219 Q94.0938,485.8281 94.0938,482.9531 Q94.0938,480.0938 95.3281,478.5 Q96.5781,476.9063 98.8125,476.9063 Q99.5156,476.9063 100.1406,477.0625 Q100.7813,477.2188 101.3906,477.5469 L101.3906,479.1563 Q100.8125,478.6875 100.1406,478.4375 Q99.4844,478.1875 98.8125,478.1875 Q97.2656,478.1875 96.5,479.375 Q95.7344,480.5625 95.7344,482.9531 Q95.7344,485.3438 96.5,486.5313 Q97.2656,487.7188 98.8125,487.7188 Q99.5,487.7188 100.1563,487.4688 Q100.8125,487.2188 101.3906,486.75 L101.3906,488.3594 Z "/><text fill="#EEEEEE" font-family="sans-serif" font-size="12" font-style="italic" lengthAdjust="spacingAndGlyphs" textLength="87" x="144.5" y="468.6387">«public class»</text><text fill="#EEEEEE" font-family="sans-serif" font-size="12" font-style="italic" lengthAdjust="spacingAndGlyphs" textLength="103" x="136.5" y="482.6074">«get via factory»</text><text fill="#EEEEEE" font-family="sans-serif" font-size="16" lengthAdjust="spacingAndGlyphs" textLength="136" x="120" y="504.2891">Rating_Icon_Pack</text><line style="stroke: #111111; stroke-width: 1.5;" x1="25.5" x2="320.5" y1="515.0625" y2="515.0625"/><ellipse cx="37.5" cy="528.0625" fill="#84BE84" rx="5" ry="5" style="stroke: #038048; stroke-width: 1.0;"/><text fill="#EEEEEE" font-family="sans-serif" font-size="13" lengthAdjust="spacingAndGlyphs" textLength="268" x="45.5" y="533.1294">__construct( $rating_pack_id, $pack_attr )</text><ellipse cx="37.5" cy="547.1953" fill="#84BE84" rx="5" ry="5" style="stroke: #038048; stroke-width: 1.0;"/><text fill="#EEEEEE" font-family="sans-serif" font-size="13" lengthAdjust="spacingAndGlyphs" textLength="142" x="45.5" y="552.2622">Icon get_empty_icon()</text><ellipse cx="37.5" cy="566.3281" fill="#84BE84" rx="5" ry="5" style="stroke: #038048; stroke-width: 1.0;"/><text fill="#EEEEEE" font-family="sans-serif" font-size="13" lengthAdjust="spacingAndGlyphs" textLength="160" x="45.5" y="571.395">Icon get_half_filled_icon()</text><ellipse cx="37.5" cy="585.4609" fill="#84BE84" rx="5" ry="5" style="stroke: #038048; stroke-width: 1.0;"/><text fill="#EEEEEE" font-family="sans-serif" font-size="13" lengthAdjust="spacingAndGlyphs" textLength="130" x="45.5" y="590.5278">Icon get_filled_icon()</text><line style="stroke: #111111; stroke-width: 1.0;" x1="25.5" x2="320.5" y1="599.5938" y2="599.5938"/><ellipse cx="37.5" cy="612.5938" fill="#84BE84" rx="5" ry="5" style="stroke: #038048; stroke-width: 1.0;"/><text fill="#EEEEEE" font-family="sans-serif" font-size="13" lengthAdjust="spacingAndGlyphs" textLength="49" x="45.5" y="617.6606">get_id()</text><ellipse cx="37.5" cy="631.7266" fill="#84BE84" rx="5" ry="5" style="stroke: #038048; stroke-width: 1.0;"/><text fill="#EEEEEE" font-family="sans-serif" font-size="13" lengthAdjust="spacingAndGlyphs" textLength="75" x="45.5" y="636.7935">get_brand()</text><ellipse cx="37.5" cy="650.8594" fill="#84BE84" rx="5" ry="5" style="stroke: #038048; stroke-width: 1.0;"/><text fill="#EEEEEE" font-family="sans-serif" font-size="13" lengthAdjust="spacingAndGlyphs" textLength="108" x="45.5" y="655.9263">get_description()</text><line style="stroke: #111111; stroke-width: 1.0; stroke-dasharray: 1.0,2.0;" x1="25.5" x2="80.5" y1="674.5586" y2="674.5586"/><text fill="#EEEEEE" font-family="sans-serif" font-size="13" lengthAdjust="spacingAndGlyphs" textLength="181" x="82.5" y="678.5591">Other unimportant functions</text><line style="stroke: #111111; stroke-width: 1.0; stroke-dasharray: 1.0,2.0;" x1="265.5" x2="320.5" y1="674.5586" y2="674.5586"/><!--MD5=[1787b35f73f7c04ad31c8b86f85aaa6f]
class Icon_Categories--><rect codeLine="77" fill="url(#g7ouidpo6df4w1)" height="64.2656" id="Icon_Categories" style="stroke: #111111; stroke-width: 1.5;" width="145" x="24.5" y="855"/><ellipse cx="38.5" cy="879.1328" fill="#ADD1B2" rx="10" ry="10" style="stroke: #111111; stroke-width: 1.0;"/><path d="M40.8906,884.7109 Q40.2813,885.0391 39.6406,885.1953 Q39.0156,885.3672 38.3125,885.3672 Q36.0625,885.3672 34.8281,883.7734 Q33.5938,882.1797 33.5938,879.3047 Q33.5938,876.4453 34.8281,874.8516 Q36.0781,873.2578 38.3125,873.2578 Q39.0156,873.2578 39.6406,873.4141 Q40.2813,873.5703 40.8906,873.8984 L40.8906,875.5078 Q40.3125,875.0391 39.6406,874.7891 Q38.9844,874.5391 38.3125,874.5391 Q36.7656,874.5391 36,875.7266 Q35.2344,876.9141 35.2344,879.3047 Q35.2344,881.6953 36,882.8828 Q36.7656,884.0703 38.3125,884.0703 Q39,884.0703 39.6563,883.8203 Q40.3125,883.5703 40.8906,883.1016 L40.8906,884.7109 Z "/><text fill="#EEEEEE" font-family="sans-serif" font-size="12" font-style="italic" lengthAdjust="spacingAndGlyphs" textLength="93" x="62.5" y="873.1387">«private class»</text><text fill="#EEEEEE" font-family="sans-serif" font-size="14" lengthAdjust="spacingAndGlyphs" textLength="111" x="53.5" y="892.9639">Icon_Categories</text><line style="stroke: #111111; stroke-width: 1.5;" x1="25.5" x2="168.5" y1="903.2656" y2="903.2656"/><line style="stroke: #111111; stroke-width: 1.5;" x1="25.5" x2="168.5" y1="911.2656" y2="911.2656"/><!--MD5=[bd0e7ccddb1ff1701639919f455d884e]
class Icon_Definitions--><rect codeLine="80" fill="url(#g7ouidpo6df4w1)" height="64.2656" id="Icon_Definitions" style="stroke: #111111; stroke-width: 1.5;" width="143" x="441.5" y="855"/><ellipse cx="455.5" cy="879.1328" fill="#B4A7E5" rx="10" ry="10" style="stroke: #111111; stroke-width: 1.0;"/><path d="M452.5781,873.4609 L459.0469,873.4609 L459.0469,874.7891 L456.6094,874.7891 L456.6094,883.8047 L459.0469,883.8047 L459.0469,885.1328 L452.5781,885.1328 L452.5781,883.8047 L455.0156,883.8047 L455.0156,874.7891 L452.5781,874.7891 L452.5781,873.4609 Z "/><text fill="#EEEEEE" font-family="sans-serif" font-size="12" font-style="italic" lengthAdjust="spacingAndGlyphs" textLength="93" x="478.5" y="873.1387">«private class»</text><text fill="#EEEEEE" font-family="sans-serif" font-size="14" font-style="italic" lengthAdjust="spacingAndGlyphs" textLength="109" x="470.5" y="892.9639">Icon_Definitions</text><line style="stroke: #111111; stroke-width: 1.5;" x1="442.5" x2="583.5" y1="903.2656" y2="903.2656"/><line style="stroke: #111111; stroke-width: 1.5;" x1="442.5" x2="583.5" y1="911.2656" y2="911.2656"/><!--MD5=[4802fc99fd1613e585344c104135e2f7]
class User_Icons--><rect codeLine="81" fill="url(#g7ouidpo6df4w1)" height="64.2656" id="User_Icons" style="stroke: #111111; stroke-width: 1.5;" width="123" x="186.5" y="1173"/><ellipse cx="200.5" cy="1197.1328" fill="#ADD1B2" rx="10" ry="10" style="stroke: #111111; stroke-width: 1.0;"/><path d="M202.8906,1202.7109 Q202.2813,1203.0391 201.6406,1203.1953 Q201.0156,1203.3672 200.3125,1203.3672 Q198.0625,1203.3672 196.8281,1201.7734 Q195.5938,1200.1797 195.5938,1197.3047 Q195.5938,1194.4453 196.8281,1192.8516 Q198.0781,1191.2578 200.3125,1191.2578 Q201.0156,1191.2578 201.6406,1191.4141 Q202.2813,1191.5703 202.8906,1191.8984 L202.8906,1193.5078 Q202.3125,1193.0391 201.6406,1192.7891 Q200.9844,1192.5391 200.3125,1192.5391 Q198.7656,1192.5391 198,1193.7266 Q197.2344,1194.9141 197.2344,1197.3047 Q197.2344,1199.6953 198,1200.8828 Q198.7656,1202.0703 200.3125,1202.0703 Q201,1202.0703 201.6563,1201.8203 Q202.3125,1201.5703 202.8906,1201.1016 L202.8906,1202.7109 Z "/><text fill="#EEEEEE" font-family="sans-serif" font-size="12" font-style="italic" lengthAdjust="spacingAndGlyphs" textLength="93" x="213.5" y="1191.1387">«private class»</text><text fill="#EEEEEE" font-family="sans-serif" font-size="14" lengthAdjust="spacingAndGlyphs" textLength="76" x="222" y="1210.9639">User_Icons</text><line style="stroke: #111111; stroke-width: 1.5;" x1="187.5" x2="308.5" y1="1221.2656" y2="1221.2656"/><line style="stroke: #111111; stroke-width: 1.5;" x1="187.5" x2="308.5" y1="1229.2656" y2="1229.2656"/><!--MD5=[290c6aae418ee2226c50491efc9bf53c]
class Date_Icons--><rect codeLine="82" fill="url(#g7ouidpo6df4w1)" height="64.2656" id="Date_Icons" style="stroke: #111111; stroke-width: 1.5;" width="123" x="344.5" y="1173"/><ellipse cx="358.5" cy="1197.1328" fill="#ADD1B2" rx="10" ry="10" style="stroke: #111111; stroke-width: 1.0;"/><path d="M360.8906,1202.7109 Q360.2813,1203.0391 359.6406,1203.1953 Q359.0156,1203.3672 358.3125,1203.3672 Q356.0625,1203.3672 354.8281,1201.7734 Q353.5938,1200.1797 353.5938,1197.3047 Q353.5938,1194.4453 354.8281,1192.8516 Q356.0781,1191.2578 358.3125,1191.2578 Q359.0156,1191.2578 359.6406,1191.4141 Q360.2813,1191.5703 360.8906,1191.8984 L360.8906,1193.5078 Q360.3125,1193.0391 359.6406,1192.7891 Q358.9844,1192.5391 358.3125,1192.5391 Q356.7656,1192.5391 356,1193.7266 Q355.2344,1194.9141 355.2344,1197.3047 Q355.2344,1199.6953 356,1200.8828 Q356.7656,1202.0703 358.3125,1202.0703 Q359,1202.0703 359.6563,1201.8203 Q360.3125,1201.5703 360.8906,1201.1016 L360.8906,1202.7109 Z "/><text fill="#EEEEEE" font-family="sans-serif" font-size="12" font-style="italic" lengthAdjust="spacingAndGlyphs" textLength="93" x="371.5" y="1191.1387">«private class»</text><text fill="#EEEEEE" font-family="sans-serif" font-size="14" lengthAdjust="spacingAndGlyphs" textLength="77" x="379.5" y="1210.9639">Date_Icons</text><line style="stroke: #111111; stroke-width: 1.5;" x1="345.5" x2="466.5" y1="1221.2656" y2="1221.2656"/><line style="stroke: #111111; stroke-width: 1.5;" x1="345.5" x2="466.5" y1="1229.2656" y2="1229.2656"/><!--MD5=[a2c6df38fdbc68924a11f0e9b3f1dd97]
class Other_Category_With_Icons--><rect codeLine="83" fill="url(#g7ouidpo6df4w1)" height="78.2344" id="Other_Category_With_Icons" style="stroke: #111111; stroke-width: 1.5;" width="235" x="502.5" y="1166"/><ellipse cx="516.5" cy="1197.1172" fill="#ADD1B2" rx="10" ry="10" style="stroke: #111111; stroke-width: 1.0;"/><path d="M518.8906,1202.6953 Q518.2813,1203.0234 517.6406,1203.1797 Q517.0156,1203.3516 516.3125,1203.3516 Q514.0625,1203.3516 512.8281,1201.7578 Q511.5938,1200.1641 511.5938,1197.2891 Q511.5938,1194.4297 512.8281,1192.8359 Q514.0781,1191.2422 516.3125,1191.2422 Q517.0156,1191.2422 517.6406,1191.3984 Q518.2813,1191.5547 518.8906,1191.8828 L518.8906,1193.4922 Q518.3125,1193.0234 517.6406,1192.7734 Q516.9844,1192.5234 516.3125,1192.5234 Q514.7656,1192.5234 514,1193.7109 Q513.2344,1194.8984 513.2344,1197.2891 Q513.2344,1199.6797 514,1200.8672 Q514.7656,1202.0547 516.3125,1202.0547 Q517,1202.0547 517.6563,1201.8047 Q518.3125,1201.5547 518.8906,1201.0859 L518.8906,1202.6953 Z "/><text fill="#EEEEEE" font-family="sans-serif" font-size="12" font-style="italic" lengthAdjust="spacingAndGlyphs" textLength="205" x="529.5" y="1184.1387">«more identical siblings classes»</text><text fill="#EEEEEE" font-family="sans-serif" font-size="12" font-style="italic" lengthAdjust="spacingAndGlyphs" textLength="93" x="585.5" y="1198.1074">«private class»</text><text fill="#EEEEEE" font-family="sans-serif" font-size="14" lengthAdjust="spacingAndGlyphs" textLength="189" x="537.5" y="1217.9326">Other_Category_With_Icons</text><line style="stroke: #111111; stroke-width: 1.5;" x1="503.5" x2="736.5" y1="1228.2344" y2="1228.2344"/><line style="stroke: #111111; stroke-width: 1.5;" x1="503.5" x2="736.5" y1="1236.2344" y2="1236.2344"/><!--MD5=[ea163c575ebd65fe5e60f6c83f9285c1]
class Rating_Icons--><rect codeLine="84" fill="url(#g7ouidpo6df4w1)" height="64.2656" id="Rating_Icons" style="stroke: #111111; stroke-width: 1.5;" width="123" x="772.5" y="1173"/><ellipse cx="786.5" cy="1197.1328" fill="#ADD1B2" rx="10" ry="10" style="stroke: #111111; stroke-width: 1.0;"/><path d="M788.8906,1202.7109 Q788.2813,1203.0391 787.6406,1203.1953 Q787.0156,1203.3672 786.3125,1203.3672 Q784.0625,1203.3672 782.8281,1201.7734 Q781.5938,1200.1797 781.5938,1197.3047 Q781.5938,1194.4453 782.8281,1192.8516 Q784.0781,1191.2578 786.3125,1191.2578 Q787.0156,1191.2578 787.6406,1191.4141 Q788.2813,1191.5703 788.8906,1191.8984 L788.8906,1193.5078 Q788.3125,1193.0391 787.6406,1192.7891 Q786.9844,1192.5391 786.3125,1192.5391 Q784.7656,1192.5391 784,1193.7266 Q783.2344,1194.9141 783.2344,1197.3047 Q783.2344,1199.6953 784,1200.8828 Q784.7656,1202.0703 786.3125,1202.0703 Q787,1202.0703 787.6563,1201.8203 Q788.3125,1201.5703 788.8906,1201.1016 L788.8906,1202.7109 Z "/><text fill="#EEEEEE" font-family="sans-serif" font-size="12" font-style="italic" lengthAdjust="spacingAndGlyphs" textLength="93" x="799.5" y="1191.1387">«private class»</text><text fill="#EEEEEE" font-family="sans-serif" font-size="14" lengthAdjust="spacingAndGlyphs" textLength="88" x="802" y="1210.9639">Rating_Icons</text><line style="stroke: #111111; stroke-width: 1.5;" x1="773.5" x2="894.5" y1="1221.2656" y2="1221.2656"/><line style="stroke: #111111; stroke-width: 1.5;" x1="773.5" x2="894.5" y1="1229.2656" y2="1229.2656"/><!--MD5=[852f239426205e2fe98725de62ab607a]
link Icon_Factory to Icon--><path codeLine="87" d="M594,298.2709 C594,342.2776 594,391.4655 594,435.8743 " fill="none" id="Icon_Factory-to-Icon" style="stroke: #FFFF00; stroke-width: 1.0; stroke-dasharray: 7.0,7.0;"/><polygon fill="#FFFF00" points="594,440.9869,598,431.9869,594,435.9869,590,431.9869,594,440.9869" style="stroke: #FFFF00; stroke-width: 1.0;"/><text fill="#000000" font-family="sans-serif" font-size="13" lengthAdjust="spacingAndGlyphs" textLength="111" x="597" y="374.0669">Create Icon by Id.</text><!--MD5=[206c5cbf3f2cd48a375cdfeb5f25e543]
link Icon_Factory to Rating_Icon_Pack--><path codeLine="88" d="M457.8948,298.2709 C408.3748,345.8501 352.551,399.4861 303.5256,446.59 " fill="none" id="Icon_Factory-to-Rating_Icon_Pack" style="stroke: #FFFF00; stroke-width: 1.0; stroke-dasharray: 7.0,7.0;"/><polygon fill="#FFFF00" points="299.708,450.258,308.9691,446.9067,303.3134,446.7937,303.4263,441.138,299.708,450.258" style="stroke: #FFFF00; stroke-width: 1.0;"/><text fill="#000000" font-family="sans-serif" font-size="13" lengthAdjust="spacingAndGlyphs" textLength="115" x="397" y="374.0669">Create Pack by Id.</text><!--MD5=[4b0451d5fb719b69396037109cb32057]
link Rating_Icon_Pack to Icon--><path codeLine="90" d="M321.725,572 C367.5242,572 417.604,572 462.184,572 " fill="none" id="Rating_Icon_Pack-to-Icon" style="stroke: #FFFF00; stroke-width: 1.0;"/><polygon fill="#FFFF00" points="467.3132,572,458.3132,568,462.3132,572,458.3132,576,467.3132,572" style="stroke: #FFFF00; stroke-width: 1.0;"/><text fill="#000000" font-family="sans-serif" font-size="13" lengthAdjust="spacingAndGlyphs" textLength="105" x="342" y="563.0669">Contains 3 Icons</text><!--MD5=[9f8c26779a7ee847c9078092d8cc0688]
link Icon to Icon_Categories--><path codeLine="92" d="M467.4114,641.545 C382.4521,689.7575 269.1075,757.0914 174,824 C162.0474,832.4087 149.5847,842.1409 138.2545,851.4032 " fill="none" id="Icon-to-Icon_Categories" style="stroke: #FFFF00; stroke-width: 1.0;"/><polygon fill="#FFFF00" points="134.1346,854.791,143.6267,852.1641,137.9965,851.6152,138.5454,845.9851,134.1346,854.791" style="stroke: #FFFF00; stroke-width: 1.0;"/><!--MD5=[0a8883a8e023ec720deed5d924956a82]
link Icon_Factory to Definitions--><path codeLine="94" d="M769.1649,298.1352 C782.5562,319.6671 791,343.5376 791,369.5 C791,369.5 791,369.5 791,774.5 C791,789.4324 786.1739,803.6361 778.8216,816.6105 C777.9025,818.2323 776.944,819.8349 775.9505,821.4173 C775.4538,822.2085 774.9483,822.9947 774.4346,823.7757 " fill="none" id="Icon_Factory-to-Definitions" style="stroke: #FFFF00; stroke-width: 1.0;"/><polygon fill="#FFFF00" points="774.4346,823.7757,782.7222,818.4544,777.1822,819.5982,776.0383,814.0583,774.4346,823.7757" style="stroke: #FFFF00; stroke-width: 1.0;"/><text fill="#000000" font-family="sans-serif" font-size="13" lengthAdjust="spacingAndGlyphs" textLength="104" x="794" y="576.5669">Know everything</text><!--MD5=[ac839ca4fee5e69e62fb1a8ba0decb6f]
link Icon to Definitions--><path codeLine="95" d="M640.6871,703.3074 C655.3326,744.4979 670.8525,788.1474 683.0871,822.5574 C683.1827,822.8262 683.2781,823.0945 683.3733,823.3622 " fill="none" id="Icon-to-Definitions" style="stroke: #FFFF00; stroke-width: 1.0;"/><polygon fill="#FFFF00" points="683.3733,823.3622,684.127,813.5422,681.6982,818.6511,676.5893,816.2223,683.3733,823.3622" style="stroke: #FFFF00; stroke-width: 1.0;"/><text fill="#000000" font-family="sans-serif" font-size="13" lengthAdjust="spacingAndGlyphs" textLength="104" x="672" y="779.0669">Know everything</text><!--MD5=[4eca24cfd6544a772d78d1bd23c0bb04]
reverse link Icon_Definitions to User_Icons--><path codeLine="96" d="M425.1317,927.7294 C378.2037,950.1669 330,974.6405 330,980.5 C330,980.5 330,980.5 330,1104.5 C330,1131.5226 311.9824,1155.294 292.8387,1172.9247 " fill="none" id="Icon_Definitions-backto-User_Icons" style="stroke: #FFFF00; stroke-width: 1.0; stroke-dasharray: 7.0,7.0;"/><polygon fill="none" points="422.2236,921.3613,443.2935,919.1117,428.2252,934.0096,422.2236,921.3613" style="stroke: #FFFF00; stroke-width: 1.0;"/><!--MD5=[0440e9bbbb6ad593105f59796744e7ec]
reverse link Icon_Definitions to Date_Icons--><path codeLine="97" d="M465.5629,935.1451 C456.6174,948.7255 450,964.26 450,980.5 C450,980.5 450,980.5 450,1104.5 C450,1128.6895 439.1712,1153.6124 428.2578,1172.5878 " fill="none" id="Icon_Definitions-backto-Date_Icons" style="stroke: #FFFF00; stroke-width: 1.0; stroke-dasharray: 7.0,7.0;"/><polygon fill="none" points="460.1204,930.7383,477.8161,919.0823,471.2515,939.2294,460.1204,930.7383" style="stroke: #FFFF00; stroke-width: 1.0;"/><!--MD5=[5e13c5da7c9222b475bdc334ebe5d7f9]
reverse link Icon_Definitions to Other_Category_With_Icons--><path codeLine="98" d="M559.6841,935.2548 C568.4876,948.8337 575,964.34 575,980.5 C575,980.5 575,980.5 575,1104.5 C575,1125.9112 583.6133,1147.8239 593.3032,1165.7011 " fill="none" id="Icon_Definitions-backto-Other_Category_With_Icons" style="stroke: #FFFF00; stroke-width: 1.0; stroke-dasharray: 7.0,7.0;"/><polygon fill="none" points="554.0284,939.3806,547.6254,919.1815,565.2272,930.9789,554.0284,939.3806" style="stroke: #FFFF00; stroke-width: 1.0;"/><!--MD5=[9db86a6e200078877e3a61b379d1a9f9]
reverse link Icon_Definitions to Rating_Icons--><path codeLine="99" d="M604.3732,909.088 C684.7343,929.8398 789,960.599 789,980.5 C789,980.5 789,980.5 789,1104.5 C789,1128.7788 800.0749,1153.7024 811.2363,1172.6558 " fill="none" id="Icon_Definitions-backto-Rating_Icons" style="stroke: #FFFF00; stroke-width: 1.0; stroke-dasharray: 7.0,7.0;"/><polygon fill="none" points="602.451,915.822,584.7953,904.1056,605.9039,902.2545,602.451,915.822" style="stroke: #FFFF00; stroke-width: 1.0;"/><!--MD5=[45b32fd661949952d9f1332ae52a658e]
@startuml
set namespaceSeparator \\

    skinparam {
        padding 2
        backgroundColor #222
        shadowing false

        classFontColor #eee
        classStereotypeFontColor #eee
        classBorderColor #111
        classFontSize 14
        ClassAttributeFontColor #eee
        ClassAttributeFontSize 13
        ClassAttributeIconSize 15

        PackageBackgroundColor #2c2c2c
        PackageBorderColor #111
        PackageFontColor #eee

        ArrowColor yellow

        circledCharacterFontColor black
        circledCharacterFontSize 16
        circledCharacterFontStyle plain
        circledCharacterRadius 10

        <<public class>>classBackgroundColor #004b00/#003b00
        <<public class>>classFontSize 16

        <<private class>>classBackgroundColor #5d0000/#4d0000

        <<protected class>>classBackgroundColor #d16300/#c15300

        <<abstract class>>classBorderColor #755800
    }


package "TWRP\Icons" {
	class Icon_Factory <<public class>> <<static collection>> {
		+ Icon get_icon( $icon_id )
		+ Rating_Icon_Pack get_rating_pack( $rating_pack_id )
		- -
		+ array<string,Icon> get_user_icons()
		+ array<string,Icon> get_category_icons()
		+ array<string,Icon> get_comment_icons()
		.. Other category retriever Icons ..
		- -
		+ get_compatible_disabled_comment_icon( $icon )
		.. Other unimportant functions ..
	}

	class Icon <<public class>> <<get via factory>> {
		+ __construct( $icon_id, $icon_args )
		+ void display( $additional_class )
		+ string get_html( $additional_class )
		- -
		+ get_icon_svg_definition()
		+ get_id()
		+ get_brand()
		+ get_description()
		+ get_icon_file_path()
		.. Other unimportant functions ..
	}

	class Rating_Icon_Pack <<public class>> <<get via factory>> {
		+ __construct( $rating_pack_id, $pack_attr )
		+ Icon get_empty_icon()
		+ Icon get_half_filled_icon()
		+ Icon get_filled_icon()
		- -
		+ get_id()
		+ get_brand()
		+ get_description()
		.. Other unimportant functions ..
	}

	class Icon_Categories <<private class>> {}

	package "Definitions" {
		interface Icon_Definitions <<private class>> {}
		class User_Icons <<private class>> {}
		class Date_Icons <<private class>> {}
		class Other_Category_With_Icons <<more identical siblings classes>> <<private class>> {}
		class Rating_Icons <<private class>> {}
	}

	Icon_Factory ..> Icon : Create Icon by Id.
	Icon_Factory ..> Rating_Icon_Pack : Create Pack by Id.

	Rating_Icon_Pack -r-> Icon : Contains 3 Icons

	Icon - -> Icon_Categories

	Icon_Factory - -> Definitions : Know everything
	Icon - -> Definitions : Know everything
	Icon_Definitions <|.. User_Icons
	Icon_Definitions <|.. Date_Icons
	Icon_Definitions <|.. Other_Category_With_Icons
	Icon_Definitions <|.. Rating_Icons

}
@enduml

PlantUML version 1.2020.19(Mon Oct 12 15:10:01 UTC 2020)
(GPL source distribution)
Java Runtime: OpenJDK Runtime Environment
JVM: OpenJDK 64-Bit Server VM
Default Encoding: UTF-8
Language: en
Country: null
--></g></svg>