<?xml version="1.0" encoding="UTF-8" standalone="no"?><svg xmlns="http://www.w3.org/2000/svg" xmlns:xlink="http://www.w3.org/1999/xlink" contentScriptType="application/ecmascript" contentStyleType="text/css" height="406px" preserveAspectRatio="none" style="width:807px;height:406px;background:#222222;" version="1.1" viewBox="0 0 807 406" width="807px" zoomAndPan="magnify"><defs><linearGradient id="grbk2oa26x84t0" x1="0%" x2="100%" y1="0%" y2="100%"><stop offset="0%" stop-color="#004B00"/><stop offset="100%" stop-color="#003B00"/></linearGradient><linearGradient id="grbk2oa26x84t1" x1="0%" x2="100%" y1="0%" y2="100%"><stop offset="0%" stop-color="#5D0000"/><stop offset="100%" stop-color="#4D0000"/></linearGradient></defs><g><!--MD5=[d3c4809ed6aff9ff0091e3061e507141]
cluster TWRP\\Plugins--><rect fill="#2C2C2C" height="393" style="stroke: #111111; stroke-width: 1.5;" width="794" x="7" y="7"/><text fill="#EEEEEE" font-family="sans-serif" font-size="14" font-weight="bold" lengthAdjust="spacingAndGlyphs" textLength="107" x="350.5" y="23.9951">TWRP\Plugins</text><!--MD5=[af140bc6c38d7db74dbf430b8e70c477]
cluster TWRP\\Plugins\\Known_Plugins--><rect fill="#2C2C2C" height="354" style="stroke: #111111; stroke-width: 1.5;" width="648" x="145" y="38"/><text fill="#EEEEEE" font-family="sans-serif" font-size="14" font-weight="bold" lengthAdjust="spacingAndGlyphs" textLength="119" x="409.5" y="54.9951">Known_Plugins</text><!--MD5=[63509df6aa706a58df975a56d70f3f03]
class TWRP\\Plugins\\Post_Views--><rect codeLine="41" fill="url(#grbk2oa26x84t0)" height="66.5938" id="TWRP\\Plugins\\Post_Views" style="stroke: #111111; stroke-width: 1.5;" width="122" x="15" y="69"/><ellipse cx="29" cy="94.2969" fill="#ADD1B2" rx="10" ry="10" style="stroke: #111111; stroke-width: 1.0;"/><path d="M31.3906,99.875 Q30.7813,100.2031 30.1406,100.3594 Q29.5156,100.5313 28.8125,100.5313 Q26.5625,100.5313 25.3281,98.9375 Q24.0938,97.3438 24.0938,94.4688 Q24.0938,91.6094 25.3281,90.0156 Q26.5781,88.4219 28.8125,88.4219 Q29.5156,88.4219 30.1406,88.5781 Q30.7813,88.7344 31.3906,89.0625 L31.3906,90.6719 Q30.8125,90.2031 30.1406,89.9531 Q29.4844,89.7031 28.8125,89.7031 Q27.2656,89.7031 26.5,90.8906 Q25.7344,92.0781 25.7344,94.4688 Q25.7344,96.8594 26.5,98.0469 Q27.2656,99.2344 28.8125,99.2344 Q29.5,99.2344 30.1563,98.9844 Q30.8125,98.7344 31.3906,98.2656 L31.3906,99.875 Z "/><text fill="#EEEEEE" font-family="sans-serif" font-size="12" font-style="italic" lengthAdjust="spacingAndGlyphs" textLength="87" x="44.5" y="87.1387">«public class»</text><text fill="#EEEEEE" font-family="sans-serif" font-size="16" lengthAdjust="spacingAndGlyphs" textLength="88" x="44" y="108.8203">Post_Views</text><line style="stroke: #111111; stroke-width: 1.5;" x1="16" x2="136" y1="119.5938" y2="119.5938"/><line style="stroke: #111111; stroke-width: 1.5;" x1="16" x2="136" y1="127.5938" y2="127.5938"/><!--MD5=[bf9db3e98594b672d7ef4e8c3c01603c]
class TWRP\\Plugins\\Known_Plugins\\Known_Plugin--><rect codeLine="44" fill="url(#grbk2oa26x84t0)" height="66.5938" id="TWRP\\Plugins\\Known_Plugins\\Known_Plugin" style="stroke: #111111; stroke-width: 1.5;" width="141" x="290.5" y="69"/><ellipse cx="304.5" cy="94.2969" fill="#ADD1B2" rx="10" ry="10" style="stroke: #111111; stroke-width: 1.0;"/><path d="M306.8906,99.875 Q306.2813,100.2031 305.6406,100.3594 Q305.0156,100.5313 304.3125,100.5313 Q302.0625,100.5313 300.8281,98.9375 Q299.5938,97.3438 299.5938,94.4688 Q299.5938,91.6094 300.8281,90.0156 Q302.0781,88.4219 304.3125,88.4219 Q305.0156,88.4219 305.6406,88.5781 Q306.2813,88.7344 306.8906,89.0625 L306.8906,90.6719 Q306.3125,90.2031 305.6406,89.9531 Q304.9844,89.7031 304.3125,89.7031 Q302.7656,89.7031 302,90.8906 Q301.2344,92.0781 301.2344,94.4688 Q301.2344,96.8594 302,98.0469 Q302.7656,99.2344 304.3125,99.2344 Q305,99.2344 305.6563,98.9844 Q306.3125,98.7344 306.8906,98.2656 L306.8906,99.875 Z "/><text fill="#EEEEEE" font-family="sans-serif" font-size="12" font-style="italic" lengthAdjust="spacingAndGlyphs" textLength="87" x="329.5" y="87.1387">«public class»</text><text fill="#EEEEEE" font-family="sans-serif" font-size="16" lengthAdjust="spacingAndGlyphs" textLength="107" x="319.5" y="108.8203">Known_Plugin</text><line style="stroke: #111111; stroke-width: 1.5;" x1="291.5" x2="430.5" y1="119.5938" y2="119.5938"/><line style="stroke: #111111; stroke-width: 1.5;" x1="291.5" x2="430.5" y1="127.5938" y2="127.5938"/><!--MD5=[07c1903a90c30d9ff24af981cad2142e]
class TWRP\\Plugins\\Known_Plugins\\Post_Views_Plugin--><rect codeLine="47" fill="url(#grbk2oa26x84t1)" height="64.2656" id="TWRP\\Plugins\\Known_Plugins\\Post_Views_Plugin" style="stroke: #111111; stroke-width: 1.5;" width="161" x="280.5" y="196"/><ellipse cx="294.5" cy="220.1328" fill="#A9DCDF" rx="10" ry="10" style="stroke: #111111; stroke-width: 1.0;"/><path d="M294.3125,215.3516 L292.6563,221.3203 L295.9844,221.3203 L294.3125,215.3516 Z M293.3594,213.9609 L295.2813,213.9609 L298.8438,225.6328 L297.2188,225.6328 L296.3594,222.5859 L292.2656,222.5859 L291.4219,225.6328 L289.7969,225.6328 L293.3594,213.9609 Z "/><text fill="#EEEEEE" font-family="sans-serif" font-size="12" font-style="italic" lengthAdjust="spacingAndGlyphs" textLength="93" x="326.5" y="214.1387">«private class»</text><text fill="#EEEEEE" font-family="sans-serif" font-size="14" font-style="italic" lengthAdjust="spacingAndGlyphs" textLength="127" x="309.5" y="233.9639">Post_Views_Plugin</text><line style="stroke: #111111; stroke-width: 1.5;" x1="281.5" x2="440.5" y1="244.2656" y2="244.2656"/><line style="stroke: #111111; stroke-width: 1.5;" x1="281.5" x2="440.5" y1="252.2656" y2="252.2656"/><!--MD5=[67c85884a2b4ce47de3c73144a1de1be]
class TWRP\\Plugins\\Known_Plugins\\DFactory_Views_Plugin--><rect codeLine="49" fill="url(#grbk2oa26x84t1)" height="64.2656" id="TWRP\\Plugins\\Known_Plugins\\DFactory_Views_Plugin" style="stroke: #111111; stroke-width: 1.5;" width="191" x="153.5" y="320"/><ellipse cx="167.5" cy="344.1328" fill="#ADD1B2" rx="10" ry="10" style="stroke: #111111; stroke-width: 1.0;"/><path d="M169.8906,349.7109 Q169.2813,350.0391 168.6406,350.1953 Q168.0156,350.3672 167.3125,350.3672 Q165.0625,350.3672 163.8281,348.7734 Q162.5938,347.1797 162.5938,344.3047 Q162.5938,341.4453 163.8281,339.8516 Q165.0781,338.2578 167.3125,338.2578 Q168.0156,338.2578 168.6406,338.4141 Q169.2813,338.5703 169.8906,338.8984 L169.8906,340.5078 Q169.3125,340.0391 168.6406,339.7891 Q167.9844,339.5391 167.3125,339.5391 Q165.7656,339.5391 165,340.7266 Q164.2344,341.9141 164.2344,344.3047 Q164.2344,346.6953 165,347.8828 Q165.7656,349.0703 167.3125,349.0703 Q168,349.0703 168.6563,348.8203 Q169.3125,348.5703 169.8906,348.1016 L169.8906,349.7109 Z "/><text fill="#EEEEEE" font-family="sans-serif" font-size="12" font-style="italic" lengthAdjust="spacingAndGlyphs" textLength="93" x="214.5" y="338.1387">«private class»</text><text fill="#EEEEEE" font-family="sans-serif" font-size="14" lengthAdjust="spacingAndGlyphs" textLength="157" x="182.5" y="357.9639">DFactory_Views_Plugin</text><line style="stroke: #111111; stroke-width: 1.5;" x1="154.5" x2="343.5" y1="368.2656" y2="368.2656"/><line style="stroke: #111111; stroke-width: 1.5;" x1="154.5" x2="343.5" y1="376.2656" y2="376.2656"/><!--MD5=[880b9e74a21e41dc1e1d84fe4f06c392]
class TWRP\\Plugins\\Known_Plugins\\GamerZ_Views_Plugin--><rect codeLine="50" fill="url(#grbk2oa26x84t1)" height="64.2656" id="TWRP\\Plugins\\Known_Plugins\\GamerZ_Views_Plugin" style="stroke: #111111; stroke-width: 1.5;" width="186" x="380" y="320"/><ellipse cx="394" cy="344.1328" fill="#ADD1B2" rx="10" ry="10" style="stroke: #111111; stroke-width: 1.0;"/><path d="M396.3906,349.7109 Q395.7813,350.0391 395.1406,350.1953 Q394.5156,350.3672 393.8125,350.3672 Q391.5625,350.3672 390.3281,348.7734 Q389.0938,347.1797 389.0938,344.3047 Q389.0938,341.4453 390.3281,339.8516 Q391.5781,338.2578 393.8125,338.2578 Q394.5156,338.2578 395.1406,338.4141 Q395.7813,338.5703 396.3906,338.8984 L396.3906,340.5078 Q395.8125,340.0391 395.1406,339.7891 Q394.4844,339.5391 393.8125,339.5391 Q392.2656,339.5391 391.5,340.7266 Q390.7344,341.9141 390.7344,344.3047 Q390.7344,346.6953 391.5,347.8828 Q392.2656,349.0703 393.8125,349.0703 Q394.5,349.0703 395.1563,348.8203 Q395.8125,348.5703 396.3906,348.1016 L396.3906,349.7109 Z "/><text fill="#EEEEEE" font-family="sans-serif" font-size="12" font-style="italic" lengthAdjust="spacingAndGlyphs" textLength="93" x="438.5" y="338.1387">«private class»</text><text fill="#EEEEEE" font-family="sans-serif" font-size="14" lengthAdjust="spacingAndGlyphs" textLength="152" x="409" y="357.9639">GamerZ_Views_Plugin</text><line style="stroke: #111111; stroke-width: 1.5;" x1="381" x2="565" y1="368.2656" y2="368.2656"/><line style="stroke: #111111; stroke-width: 1.5;" x1="381" x2="565" y1="376.2656" y2="376.2656"/><!--MD5=[fdc5f53fc8d720cf6f74a50f15ee4e4c]
class TWRP\\Plugins\\Known_Plugins\\Other_Similar_Classes--><rect codeLine="51" fill="url(#grbk2oa26x84t1)" height="64.2656" id="TWRP\\Plugins\\Known_Plugins\\Other_Similar_Classes" style="stroke: #111111; stroke-width: 1.5;" width="185" x="600.5" y="320"/><ellipse cx="614.5" cy="344.1328" fill="#ADD1B2" rx="10" ry="10" style="stroke: #111111; stroke-width: 1.0;"/><path d="M616.8906,349.7109 Q616.2813,350.0391 615.6406,350.1953 Q615.0156,350.3672 614.3125,350.3672 Q612.0625,350.3672 610.8281,348.7734 Q609.5938,347.1797 609.5938,344.3047 Q609.5938,341.4453 610.8281,339.8516 Q612.0781,338.2578 614.3125,338.2578 Q615.0156,338.2578 615.6406,338.4141 Q616.2813,338.5703 616.8906,338.8984 L616.8906,340.5078 Q616.3125,340.0391 615.6406,339.7891 Q614.9844,339.5391 614.3125,339.5391 Q612.7656,339.5391 612,340.7266 Q611.2344,341.9141 611.2344,344.3047 Q611.2344,346.6953 612,347.8828 Q612.7656,349.0703 614.3125,349.0703 Q615,349.0703 615.6563,348.8203 Q616.3125,348.5703 616.8906,348.1016 L616.8906,349.7109 Z "/><text fill="#EEEEEE" font-family="sans-serif" font-size="12" font-style="italic" lengthAdjust="spacingAndGlyphs" textLength="93" x="658.5" y="338.1387">«private class»</text><text fill="#EEEEEE" font-family="sans-serif" font-size="14" lengthAdjust="spacingAndGlyphs" textLength="151" x="629.5" y="357.9639">Other_Similar_Classes</text><line style="stroke: #111111; stroke-width: 1.5;" x1="601.5" x2="784.5" y1="368.2656" y2="368.2656"/><line style="stroke: #111111; stroke-width: 1.5;" x1="601.5" x2="784.5" y1="376.2656" y2="376.2656"/><!--MD5=[61f4122f2dc47d9c120aa6db022858e8]
reverse link TWRP\\Plugins\\Known_Plugins\\Known_Plugin to TWRP\\Plugins\\Known_Plugins\\Post_Views_Plugin--><path d="M361,156.3204 C361,169.6846 361,183.6004 361,195.5761 " fill="none" id="TWRP\\Plugins\\Known_Plugins\\Known_Plugin-backto-TWRP\\Plugins\\Known_Plugins\\Post_Views_Plugin" style="stroke: #FFFF00; stroke-width: 1.0; stroke-dasharray: 7.0,7.0;"/><polygon fill="none" points="354.0001,156.1317,361,136.1317,368.0001,156.1317,354.0001,156.1317" style="stroke: #FFFF00; stroke-width: 1.0;"/><!--MD5=[7ff30ed1847ebd842386fc9a9fbb3ad4]
reverse link TWRP\\Plugins\\Known_Plugins\\Post_Views_Plugin to TWRP\\Plugins\\Known_Plugins\\DFactory_Views_Plugin--><path d="M318.3518,275.2176 C304.867,290.1473 290.2852,306.2914 277.9884,319.9057 " fill="none" id="TWRP\\Plugins\\Known_Plugins\\Post_Views_Plugin-backto-TWRP\\Plugins\\Known_Plugins\\DFactory_Views_Plugin" style="stroke: #FFFF00; stroke-width: 1.0; stroke-dasharray: 7.0,7.0;"/><polygon fill="none" points="313.2652,270.4059,331.8657,260.2558,323.6547,279.7899,313.2652,270.4059" style="stroke: #FFFF00; stroke-width: 1.0;"/><!--MD5=[bdffff467cc8cba2d288216e9b0c78a9]
reverse link TWRP\\Plugins\\Known_Plugins\\Post_Views_Plugin to TWRP\\Plugins\\Known_Plugins\\GamerZ_Views_Plugin--><path d="M403.6482,275.2176 C417.133,290.1473 431.7148,306.2914 444.0116,319.9057 " fill="none" id="TWRP\\Plugins\\Known_Plugins\\Post_Views_Plugin-backto-TWRP\\Plugins\\Known_Plugins\\GamerZ_Views_Plugin" style="stroke: #FFFF00; stroke-width: 1.0; stroke-dasharray: 7.0,7.0;"/><polygon fill="none" points="398.3453,279.7899,390.1343,260.2558,408.7348,270.4059,398.3453,279.7899" style="stroke: #FFFF00; stroke-width: 1.0;"/><!--MD5=[971e9e74a774229155a6b1c30e14df02]
reverse link TWRP\\Plugins\\Known_Plugins\\Post_Views_Plugin to TWRP\\Plugins\\Known_Plugins\\Other_Similar_Classes--><path d="M460.5668,265.1876 C507.2658,282.6294 562.3651,303.2087 607.194,319.952 " fill="none" id="TWRP\\Plugins\\Known_Plugins\\Post_Views_Plugin-backto-TWRP\\Plugins\\Known_Plugins\\Other_Similar_Classes" style="stroke: #FFFF00; stroke-width: 1.0; stroke-dasharray: 7.0,7.0;"/><polygon fill="none" points="458.0784,271.7306,441.7918,258.1753,462.9769,258.6155,458.0784,271.7306" style="stroke: #FFFF00; stroke-width: 1.0;"/><!--MD5=[f56839285a812310ea807faa37113af4]
link TWRP\\Plugins\\Post_Views to TWRP\\Plugins\\Known_Plugins\\Post_Views_Plugin--><path codeLine="54" d="M137.1721,134.1993 C138.4571,134.8094 139.7341,135.4103 141,136 C184.8142,156.4121 234.4236,177.3415 275.429,194.0706 " fill="none" id="TWRP\\Plugins\\Post_Views-to-TWRP\\Plugins\\Known_Plugins\\Post_Views_Plugin" style="stroke: #FFFF00; stroke-width: 1.0;"/><polygon fill="#FFFF00" points="280.386,196.0896,273.5598,188.99,275.7554,194.2034,270.542,196.399,280.386,196.0896" style="stroke: #FFFF00; stroke-width: 1.0;"/><!--MD5=[8f5e4f4b722a4ec44bf191257062473a]
@startuml
set namespaceSeparator \\

    skinparam {
        padding 2
        backgroundColor #222
        shadowing false

        classFontColor #eee
        classStereotypeFontColor #eee
        classBorderColor #111
        classFontSize 14
        ClassAttributeFontColor #eee
        ClassAttributeFontSize 13
        ClassAttributeIconSize 15

        PackageBackgroundColor #2c2c2c
        PackageBorderColor #111
        PackageFontColor #eee

        ArrowColor yellow

        circledCharacterFontColor black
        circledCharacterFontSize 16
        circledCharacterFontStyle plain
        circledCharacterRadius 10

        packageStyle rectangle

        <<public class>>classBackgroundColor #004b00/#003b00
        <<public class>>classFontSize 16

        <<private class>>classBackgroundColor #5d0000/#4d0000

        <<protected class>>classBackgroundColor #d16300/#c15300

        <<abstract class>>classBorderColor #755800
    }


namespace TWRP\\Plugins {
	class Post_Views <<public class>> {}

	namespace Known_Plugins {
		class Known_Plugin <<public class>> {}


			abstract Post_Views_Plugin <<private class>> implements Known_Plugin {}

			class DFactory_Views_Plugin <<private class>> implements Post_Views_Plugin {}
			class GamerZ_Views_Plugin <<private class>> implements Post_Views_Plugin {}
			class Other_Similar_Classes <<private class>> implements Post_Views_Plugin {}
	}

	Post_Views - -> TWRP\\Plugins\\Known_Plugins\\Post_Views_Plugin
}
@enduml

PlantUML version 1.2020.19(Mon Oct 12 15:10:01 UTC 2020)
(GPL source distribution)
Java Runtime: OpenJDK Runtime Environment
JVM: OpenJDK 64-Bit Server VM
Default Encoding: UTF-8
Language: en
Country: null
--></g></svg>