<?xml version="1.0" encoding="UTF-8" standalone="no"?><svg xmlns="http://www.w3.org/2000/svg" xmlns:xlink="http://www.w3.org/1999/xlink" contentScriptType="application/ecmascript" contentStyleType="text/css" height="413px" preserveAspectRatio="none" style="width:804px;height:413px;background:#222222;" version="1.1" viewBox="0 0 804 413" width="804px" zoomAndPan="magnify"><defs><linearGradient id="gxbvtemh9nqia0" x1="0%" x2="100%" y1="0%" y2="100%"><stop offset="0%" stop-color="#004B00"/><stop offset="100%" stop-color="#003B00"/></linearGradient><linearGradient id="gxbvtemh9nqia1" x1="0%" x2="100%" y1="0%" y2="100%"><stop offset="0%" stop-color="#D16300"/><stop offset="100%" stop-color="#C15300"/></linearGradient></defs><g><!--MD5=[1af112bba1ee5b5fadb30a42fcfd4309]
cluster TWRP\\Query_Generator--><polygon fill="#2C2C2C" points="16,6,212,6,219,32.2969,787,32.2969,787,406,16,406,16,6" style="stroke: #111111; stroke-width: 1.5;"/><line style="stroke: #111111; stroke-width: 1.5;" x1="16" x2="219" y1="32.2969" y2="32.2969"/><text fill="#EEEEEE" font-family="sans-serif" font-size="14" font-weight="bold" lengthAdjust="spacingAndGlyphs" textLength="186" x="22" y="22.9951">TWRP\Query_Generator</text><!--MD5=[262cad39a9065d1580a8652604ed4777]
cluster TWRP\\Query_Generator\\Query_Setting--><polygon fill="#2C2C2C" points="30,171,151,171,158,197.2969,779,197.2969,779,398,30,398,30,171" style="stroke: #111111; stroke-width: 1.5;"/><line style="stroke: #111111; stroke-width: 1.5;" x1="30" x2="158" y1="197.2969" y2="197.2969"/><text fill="#EEEEEE" font-family="sans-serif" font-size="14" font-weight="bold" lengthAdjust="spacingAndGlyphs" textLength="111" x="36" y="187.9951">Query_Setting</text><!--MD5=[c0412d7897d8670324314061118630de]
class TWRP\\Query_Generator\\Query_Generator--><rect codeLine="46" fill="url(#gxbvtemh9nqia0)" height="104.8594" id="TWRP\\Query_Generator\\Query_Generator" style="stroke: #111111; stroke-width: 1.5;" width="325" x="454.5" y="37"/><ellipse cx="543" cy="62.2969" fill="#ADD1B2" rx="12" ry="12" style="stroke: #111111; stroke-width: 1.0;"/><path d="M545.9375,68.3281 Q545.25,68.6875 544.5313,68.8594 Q543.8281,69.0469 543.0313,69.0469 Q540.5156,69.0469 539.1094,67.2656 Q537.7188,65.4844 537.7188,62.25 Q537.7188,59.0313 539.125,57.2344 Q540.5313,55.4375 543.0313,55.4375 Q543.8281,55.4375 544.5313,55.625 Q545.25,55.7969 545.9375,56.1563 L545.9375,57.9844 Q545.2813,57.4375 544.5313,57.1563 Q543.7813,56.875 543.0313,56.875 Q541.2969,56.875 540.4375,58.2188 Q539.5781,59.5469 539.5781,62.25 Q539.5781,64.9375 540.4375,66.2813 Q541.2969,67.6094 543.0313,67.6094 Q543.7969,67.6094 544.5469,67.3281 Q545.2969,67.0469 545.9375,66.5156 L545.9375,68.3281 Z "/><text fill="#EEEEEE" font-family="sans-serif" font-size="12" font-style="italic" lengthAdjust="spacingAndGlyphs" textLength="87" x="591" y="55.1387">«public class»</text><text fill="#EEEEEE" font-family="sans-serif" font-size="16" lengthAdjust="spacingAndGlyphs" textLength="135" x="567" y="76.8203">Query_Generator</text><line style="stroke: #111111; stroke-width: 1.5;" x1="455.5" x2="778.5" y1="87.5938" y2="87.5938"/><line style="stroke: #111111; stroke-width: 1.5;" x1="455.5" x2="778.5" y1="95.5938" y2="95.5938"/><ellipse cx="467.5" cy="108.5938" fill="#84BE84" rx="5" ry="5" style="stroke: #038048; stroke-width: 1.0;"/><text fill="#EEEEEE" font-family="sans-serif" font-size="13" lengthAdjust="spacingAndGlyphs" textLength="294" x="477.5" y="113.6606">WP_Post[] get_posts_by_query_id( $query_id )</text><ellipse cx="467.5" cy="127.7266" fill="#84BE84" rx="5" ry="5" style="stroke: #038048; stroke-width: 1.0;"/><text fill="#EEEEEE" font-family="sans-serif" font-size="13" lengthAdjust="spacingAndGlyphs" textLength="282" x="477.5" y="132.7935">array get_wp_query_arguments( $query_id )</text><path d="M24.5,52 L24.5,126.5313 L419.5,126.5313 L419.5,62 L409.5,52 L24.5,52 " fill="#FBFB77" style="stroke: #A80036; stroke-width: 1.0;"/><path d="M409.5,52 L409.5,62 L419.5,62 L409.5,52 " fill="#FBFB77" style="stroke: #A80036; stroke-width: 1.0;"/><text fill="#000000" font-family="sans-serif" font-size="13" lengthAdjust="spacingAndGlyphs" textLength="229" x="32.5" y="71.0669">These classes can be known only by</text><text fill="#000000" font-family="sans-serif" font-size="13" lengthAdjust="spacingAndGlyphs" textLength="370" x="32.5" y="86.1997">TWRP\Admin\Tabs\Query_Options\Query_Settings_Display,</text><text fill="#000000" font-family="sans-serif" font-size="13" lengthAdjust="spacingAndGlyphs" textLength="315" x="32.5" y="101.3325">where for each class exists a class that is used to</text><text fill="#000000" font-family="sans-serif" font-size="13" lengthAdjust="spacingAndGlyphs" textLength="238" x="32.5" y="116.4653">display the setting in the admin area.</text><!--MD5=[6e4d54913f860a388212ab4e36e85c98]
class TWRP\\Query_Generator\\Query_Setting\\Query_Setting--><rect codeLine="51" fill="url(#gxbvtemh9nqia1)" height="64.2656" id="TWRP\\Query_Generator\\Query_Setting\\Query_Setting" style="stroke: #111111; stroke-width: 1.5;" width="146" x="400" y="202"/><ellipse cx="416" cy="226.1328" fill="#A9DCDF" rx="12" ry="12" style="stroke: #111111; stroke-width: 1.0;"/><path d="M415.9219,220.5703 L414.0469,227.2891 L417.7813,227.2891 L415.9219,220.5703 Z M414.8438,219.0078 L417,219.0078 L421.0156,232.1328 L419.1719,232.1328 L418.2031,228.7109 L413.6094,228.7109 L412.6563,232.1328 L410.8281,232.1328 L414.8438,219.0078 Z "/><text fill="#EEEEEE" font-family="sans-serif" font-size="12" font-style="italic" lengthAdjust="spacingAndGlyphs" textLength="112" x="431" y="220.1387">«protected class»</text><text fill="#EEEEEE" font-family="sans-serif" font-size="14" font-style="italic" lengthAdjust="spacingAndGlyphs" textLength="97" x="438.5" y="239.9639">Query_Setting</text><line style="stroke: #111111; stroke-width: 1.5;" x1="401" x2="545" y1="250.2656" y2="250.2656"/><line style="stroke: #111111; stroke-width: 1.5;" x1="401" x2="545" y1="258.2656" y2="258.2656"/><!--MD5=[3d645e514e42de9202f15205d3e69e2f]
class TWRP\\Query_Generator\\Query_Setting\\Query_Name--><rect codeLine="53" fill="url(#gxbvtemh9nqia1)" height="64.2656" id="TWRP\\Query_Generator\\Query_Setting\\Query_Name" style="stroke: #111111; stroke-width: 1.5;" width="146" x="38" y="326"/><ellipse cx="54" cy="350.1328" fill="#ADD1B2" rx="12" ry="12" style="stroke: #111111; stroke-width: 1.0;"/><path d="M56.9375,356.1641 Q56.25,356.5234 55.5313,356.6953 Q54.8281,356.8828 54.0313,356.8828 Q51.5156,356.8828 50.1094,355.1016 Q48.7188,353.3203 48.7188,350.0859 Q48.7188,346.8672 50.125,345.0703 Q51.5313,343.2734 54.0313,343.2734 Q54.8281,343.2734 55.5313,343.4609 Q56.25,343.6328 56.9375,343.9922 L56.9375,345.8203 Q56.2813,345.2734 55.5313,344.9922 Q54.7813,344.7109 54.0313,344.7109 Q52.2969,344.7109 51.4375,346.0547 Q50.5781,347.3828 50.5781,350.0859 Q50.5781,352.7734 51.4375,354.1172 Q52.2969,355.4453 54.0313,355.4453 Q54.7969,355.4453 55.5469,355.1641 Q56.2969,354.8828 56.9375,354.3516 L56.9375,356.1641 Z "/><text fill="#EEEEEE" font-family="sans-serif" font-size="12" font-style="italic" lengthAdjust="spacingAndGlyphs" textLength="112" x="69" y="344.1387">«protected class»</text><text fill="#EEEEEE" font-family="sans-serif" font-size="14" lengthAdjust="spacingAndGlyphs" textLength="88" x="81" y="363.9639">Query_Name</text><line style="stroke: #111111; stroke-width: 1.5;" x1="39" x2="183" y1="374.2656" y2="374.2656"/><line style="stroke: #111111; stroke-width: 1.5;" x1="39" x2="183" y1="382.2656" y2="382.2656"/><!--MD5=[10f01bdef1f0f40439cfc1853321fd9a]
class TWRP\\Query_Generator\\Query_Setting\\Post_Order--><rect codeLine="54" fill="url(#gxbvtemh9nqia1)" height="64.2656" id="TWRP\\Query_Generator\\Query_Setting\\Post_Order" style="stroke: #111111; stroke-width: 1.5;" width="146" x="219" y="326"/><ellipse cx="235" cy="350.1328" fill="#ADD1B2" rx="12" ry="12" style="stroke: #111111; stroke-width: 1.0;"/><path d="M237.9375,356.1641 Q237.25,356.5234 236.5313,356.6953 Q235.8281,356.8828 235.0313,356.8828 Q232.5156,356.8828 231.1094,355.1016 Q229.7188,353.3203 229.7188,350.0859 Q229.7188,346.8672 231.125,345.0703 Q232.5313,343.2734 235.0313,343.2734 Q235.8281,343.2734 236.5313,343.4609 Q237.25,343.6328 237.9375,343.9922 L237.9375,345.8203 Q237.2813,345.2734 236.5313,344.9922 Q235.7813,344.7109 235.0313,344.7109 Q233.2969,344.7109 232.4375,346.0547 Q231.5781,347.3828 231.5781,350.0859 Q231.5781,352.7734 232.4375,354.1172 Q233.2969,355.4453 235.0313,355.4453 Q235.7969,355.4453 236.5469,355.1641 Q237.2969,354.8828 237.9375,354.3516 L237.9375,356.1641 Z "/><text fill="#EEEEEE" font-family="sans-serif" font-size="12" font-style="italic" lengthAdjust="spacingAndGlyphs" textLength="112" x="250" y="344.1387">«protected class»</text><text fill="#EEEEEE" font-family="sans-serif" font-size="14" lengthAdjust="spacingAndGlyphs" textLength="77" x="267.5" y="363.9639">Post_Order</text><line style="stroke: #111111; stroke-width: 1.5;" x1="220" x2="364" y1="374.2656" y2="374.2656"/><line style="stroke: #111111; stroke-width: 1.5;" x1="220" x2="364" y1="382.2656" y2="382.2656"/><!--MD5=[3816bab1eaf9d01d54adc6bcfbe2fa26]
class TWRP\\Query_Generator\\Query_Setting\\Post_Date--><rect codeLine="55" fill="url(#gxbvtemh9nqia1)" height="64.2656" id="TWRP\\Query_Generator\\Query_Setting\\Post_Date" style="stroke: #111111; stroke-width: 1.5;" width="146" x="400" y="326"/><ellipse cx="416" cy="350.1328" fill="#ADD1B2" rx="12" ry="12" style="stroke: #111111; stroke-width: 1.0;"/><path d="M418.9375,356.1641 Q418.25,356.5234 417.5313,356.6953 Q416.8281,356.8828 416.0313,356.8828 Q413.5156,356.8828 412.1094,355.1016 Q410.7188,353.3203 410.7188,350.0859 Q410.7188,346.8672 412.125,345.0703 Q413.5313,343.2734 416.0313,343.2734 Q416.8281,343.2734 417.5313,343.4609 Q418.25,343.6328 418.9375,343.9922 L418.9375,345.8203 Q418.2813,345.2734 417.5313,344.9922 Q416.7813,344.7109 416.0313,344.7109 Q414.2969,344.7109 413.4375,346.0547 Q412.5781,347.3828 412.5781,350.0859 Q412.5781,352.7734 413.4375,354.1172 Q414.2969,355.4453 416.0313,355.4453 Q416.7969,355.4453 417.5469,355.1641 Q418.2969,354.8828 418.9375,354.3516 L418.9375,356.1641 Z "/><text fill="#EEEEEE" font-family="sans-serif" font-size="12" font-style="italic" lengthAdjust="spacingAndGlyphs" textLength="112" x="431" y="344.1387">«protected class»</text><text fill="#EEEEEE" font-family="sans-serif" font-size="14" lengthAdjust="spacingAndGlyphs" textLength="71" x="451.5" y="363.9639">Post_Date</text><line style="stroke: #111111; stroke-width: 1.5;" x1="401" x2="545" y1="374.2656" y2="374.2656"/><line style="stroke: #111111; stroke-width: 1.5;" x1="401" x2="545" y1="382.2656" y2="382.2656"/><!--MD5=[1ad11960be4c58ff493986fa1536a9df]
class TWRP\\Query_Generator\\Query_Setting\\Other_Similar_Classes--><rect codeLine="56" fill="url(#gxbvtemh9nqia1)" height="64.2656" id="TWRP\\Query_Generator\\Query_Setting\\Other_Similar_Classes" style="stroke: #111111; stroke-width: 1.5;" width="189" x="581.5" y="326"/><ellipse cx="597.5" cy="350.1328" fill="#ADD1B2" rx="12" ry="12" style="stroke: #111111; stroke-width: 1.0;"/><path d="M600.4375,356.1641 Q599.75,356.5234 599.0313,356.6953 Q598.3281,356.8828 597.5313,356.8828 Q595.0156,356.8828 593.6094,355.1016 Q592.2188,353.3203 592.2188,350.0859 Q592.2188,346.8672 593.625,345.0703 Q595.0313,343.2734 597.5313,343.2734 Q598.3281,343.2734 599.0313,343.4609 Q599.75,343.6328 600.4375,343.9922 L600.4375,345.8203 Q599.7813,345.2734 599.0313,344.9922 Q598.2813,344.7109 597.5313,344.7109 Q595.7969,344.7109 594.9375,346.0547 Q594.0781,347.3828 594.0781,350.0859 Q594.0781,352.7734 594.9375,354.1172 Q595.7969,355.4453 597.5313,355.4453 Q598.2969,355.4453 599.0469,355.1641 Q599.7969,354.8828 600.4375,354.3516 L600.4375,356.1641 Z "/><text fill="#EEEEEE" font-family="sans-serif" font-size="12" font-style="italic" lengthAdjust="spacingAndGlyphs" textLength="112" x="634" y="344.1387">«protected class»</text><text fill="#EEEEEE" font-family="sans-serif" font-size="14" lengthAdjust="spacingAndGlyphs" textLength="151" x="614.5" y="363.9639">Other_Similar_Classes</text><line style="stroke: #111111; stroke-width: 1.5;" x1="582.5" x2="769.5" y1="374.2656" y2="374.2656"/><line style="stroke: #111111; stroke-width: 1.5;" x1="582.5" x2="769.5" y1="382.2656" y2="382.2656"/><!--MD5=[83aa3f1103c2d9db99cf150354ec67e9]
reverse link TWRP\\Query_Generator\\Query_Setting\\Query_Setting to TWRP\\Query_Generator\\Query_Setting\\Query_Name--><path d="M380.8918,264.9926 C328.4169,282.7187 261.4696,305.45 202,326 C196.3017,327.9691 190.4065,330.0171 184.4825,332.0831 " fill="none" id="TWRP\\Query_Generator\\Query_Setting\\Query_Setting-backto-TWRP\\Query_Generator\\Query_Setting\\Query_Name" style="stroke: #FFFF00; stroke-width: 1.0; stroke-dasharray: 7.0,7.0;"/><polygon fill="none" points="378.7003,258.3444,399.8886,258.5805,383.1776,271.6091,378.7003,258.3444" style="stroke: #FFFF00; stroke-width: 1.0;"/><!--MD5=[937d3ecedb508183f1418bd02c716cc8]
reverse link TWRP\\Query_Generator\\Query_Setting\\Query_Setting to TWRP\\Query_Generator\\Query_Setting\\Post_Order--><path d="M409.2031,277.7062 C386.0288,293.5825 360.2887,311.2166 338.8474,325.9057 " fill="none" id="TWRP\\Query_Generator\\Query_Setting\\Query_Setting-backto-TWRP\\Query_Generator\\Query_Setting\\Post_Order" style="stroke: #FFFF00; stroke-width: 1.0; stroke-dasharray: 7.0,7.0;"/><polygon fill="none" points="405.4612,271.7846,425.9169,266.2558,413.3737,283.3342,405.4612,271.7846" style="stroke: #FFFF00; stroke-width: 1.0;"/><!--MD5=[375e5f1255ec5c3b536ca639a5c7a226]
reverse link TWRP\\Query_Generator\\Query_Setting\\Query_Setting to TWRP\\Query_Generator\\Query_Setting\\Post_Date--><path d="M473,286.4467 C473,299.852 473,313.8678 473,325.9057 " fill="none" id="TWRP\\Query_Generator\\Query_Setting\\Query_Setting-backto-TWRP\\Query_Generator\\Query_Setting\\Post_Date" style="stroke: #FFFF00; stroke-width: 1.0; stroke-dasharray: 7.0,7.0;"/><polygon fill="none" points="466.0001,286.2559,473,266.2558,480.0001,286.2558,466.0001,286.2559" style="stroke: #FFFF00; stroke-width: 1.0;"/><!--MD5=[1c3875c8a606418b26d2b07a756ec26c]
reverse link TWRP\\Query_Generator\\Query_Setting\\Query_Setting to TWRP\\Query_Generator\\Query_Setting\\Other_Similar_Classes--><path d="M542.7751,276.6212 C569.1738,292.7466 598.7557,310.8163 623.3263,325.8249 " fill="none" id="TWRP\\Query_Generator\\Query_Setting\\Query_Setting-backto-TWRP\\Query_Generator\\Query_Setting\\Other_Similar_Classes" style="stroke: #FFFF00; stroke-width: 1.0; stroke-dasharray: 7.0,7.0;"/><polygon fill="none" points="538.9603,282.4937,525.5415,266.0943,546.2582,270.5463,538.9603,282.4937" style="stroke: #FFFF00; stroke-width: 1.0;"/><!--MD5=[85eb388810eae637775dc3db3d4ce481]
link TWRP\\Query_Generator\\NoteQuerySettings to TWRP\\Query_Generator\\Query_Setting--><path codeLine="60" d="M222,127.0885 C222,137.2904 222,148.7007 222,160.1643 C222,163.0301 222,165.8994 222,168.7539 C222,169.4675 222,170.1802 222,170.8917 " fill="none" id="TWRP\\Query_Generator\\NoteQuerySettings-to-TWRP\\Query_Generator\\Query_Setting" style="stroke: #FFFF00; stroke-width: 1.0;"/><polygon fill="#FFFF00" points="222,170.8917,226,161.8917,222,165.8917,218,161.8917,222,170.8917" style="stroke: #FFFF00; stroke-width: 1.0;"/><!--MD5=[41bc136a0f8519c43cbaedc37a84bf89]
link TWRP\\Query_Generator\\Query_Generator to TWRP\\Query_Generator\\Query_Setting\\Query_Setting--><path codeLine="62" d="M564.6053,142.0766 C546.0644,160.6819 525.6458,181.1714 508.8005,198.0752 " fill="none" id="TWRP\\Query_Generator\\Query_Generator-to-TWRP\\Query_Generator\\Query_Setting\\Query_Setting" style="stroke: #FFFF00; stroke-width: 1.0;"/><polygon fill="#FFFF00" points="505.0421,201.8467,514.2283,198.2952,508.5715,198.305,508.5617,192.6482,505.0421,201.8467" style="stroke: #FFFF00; stroke-width: 1.0;"/><!--MD5=[0af9255feb76263e194a1c31627ac27d]
@startuml
set namespaceSeparator \\

    skinparam {
        padding 2
        backgroundColor #222
        shadowing false

        classFontColor #eee
        classStereotypeFontColor #eee
        classBorderColor #111
        classFontSize 14
        ClassAttributeFontColor #eee
        ClassAttributeFontSize 13
        ClassAttributeIconSize 15

        PackageBackgroundColor #2c2c2c
        PackageBorderColor #111
        PackageFontColor #eee

        ArrowColor yellow
    }

    skinparam circled {
        CharacterFontColor black
        CharacterFontSize 18
        CharacterFontStyle plain
        CharacterRadius 12
    }


    skinparam <<public class>> {
        classBackgroundColor #004b00/#003b00
        classFontSize 16
    }

    skinparam <<private class>> {
        classBackgroundColor #5d0000/#4d0000
    }

    skinparam <<protected class>> {
        classBackgroundColor #d16300/#c15300
    }


namespace TWRP\\Query_Generator {
	class Query_Generator <<public class>> {
		+ WP_Post[] get_posts_by_query_id( $query_id )
		+ array get_wp_query_arguments( $query_id )
	}
	namespace Query_Setting {
		abstract Query_Setting <<protected class>> {}

		class Query_Name <<protected class>> implements Query_Setting {}
		class Post_Order <<protected class>> implements Query_Setting {}
		class Post_Date <<protected class>> implements Query_Setting {}
		class Other_Similar_Classes <<protected class>> implements Query_Setting {}
	}

	note "These classes can be known only by\nTWRP\\Admin\\Tabs\\Query_Options\\Query_Settings_Display,\nwhere for each class exists a class that is used to\ndisplay the setting in the admin area." as NoteQuerySettings
	NoteQuerySettings - -> TWRP\\Query_Generator\\Query_Setting

	Query_Generator - -> TWRP\\Query_Generator\\Query_Setting\\Query_Setting
}
@enduml

PlantUML version 1.2020.19(Mon Oct 12 15:10:01 UTC 2020)
(GPL source distribution)
Java Runtime: OpenJDK Runtime Environment
JVM: OpenJDK 64-Bit Server VM
Default Encoding: UTF-8
Language: en
Country: null
--></g></svg>