<?xml version="1.0" encoding="UTF-8" standalone="no"?><svg xmlns="http://www.w3.org/2000/svg" xmlns:xlink="http://www.w3.org/1999/xlink" contentScriptType="application/ecmascript" contentStyleType="text/css" height="413px" preserveAspectRatio="none" style="width:803px;height:413px;background:#222222;" version="1.1" viewBox="0 0 803 413" width="803px" zoomAndPan="magnify"><defs><linearGradient id="g1k7ormwga6zz0" x1="0%" x2="100%" y1="0%" y2="100%"><stop offset="0%" stop-color="#004B00"/><stop offset="100%" stop-color="#003B00"/></linearGradient><linearGradient id="g1k7ormwga6zz1" x1="0%" x2="100%" y1="0%" y2="100%"><stop offset="0%" stop-color="#D16300"/><stop offset="100%" stop-color="#C15300"/></linearGradient></defs><g><!--MD5=[1af112bba1ee5b5fadb30a42fcfd4309]
cluster TWRP\\Query_Generator--><polygon fill="#2C2C2C" points="16,6,212,6,219,32.2969,786,32.2969,786,406,16,406,16,6" style="stroke: #111111; stroke-width: 1.5;"/><line style="stroke: #111111; stroke-width: 1.5;" x1="16" x2="219" y1="32.2969" y2="32.2969"/><text fill="#EEEEEE" font-family="sans-serif" font-size="14" font-weight="bold" lengthAdjust="spacingAndGlyphs" textLength="186" x="22" y="22.9951">TWRP\Query_Generator</text><!--MD5=[262cad39a9065d1580a8652604ed4777]
cluster TWRP\\Query_Generator\\Query_Setting--><polygon fill="#2C2C2C" points="46,171,167,171,174,197.2969,778,197.2969,778,398,46,398,46,171" style="stroke: #111111; stroke-width: 1.5;"/><line style="stroke: #111111; stroke-width: 1.5;" x1="46" x2="174" y1="197.2969" y2="197.2969"/><text fill="#EEEEEE" font-family="sans-serif" font-size="14" font-weight="bold" lengthAdjust="spacingAndGlyphs" textLength="111" x="52" y="187.9951">Query_Setting</text><!--MD5=[c0412d7897d8670324314061118630de]
class TWRP\\Query_Generator\\Query_Generator--><rect codeLine="39" fill="url(#g1k7ormwga6zz0)" height="104.8594" id="TWRP\\Query_Generator\\Query_Generator" style="stroke: #111111; stroke-width: 1.5;" width="323" x="454.5" y="37"/><ellipse cx="542.5" cy="62.2969" fill="#ADD1B2" rx="10" ry="10" style="stroke: #111111; stroke-width: 1.0;"/><path d="M544.8906,67.875 Q544.2813,68.2031 543.6406,68.3594 Q543.0156,68.5313 542.3125,68.5313 Q540.0625,68.5313 538.8281,66.9375 Q537.5938,65.3438 537.5938,62.4688 Q537.5938,59.6094 538.8281,58.0156 Q540.0781,56.4219 542.3125,56.4219 Q543.0156,56.4219 543.6406,56.5781 Q544.2813,56.7344 544.8906,57.0625 L544.8906,58.6719 Q544.3125,58.2031 543.6406,57.9531 Q542.9844,57.7031 542.3125,57.7031 Q540.7656,57.7031 540,58.8906 Q539.2344,60.0781 539.2344,62.4688 Q539.2344,64.8594 540,66.0469 Q540.7656,67.2344 542.3125,67.2344 Q543,67.2344 543.6563,66.9844 Q544.3125,66.7344 544.8906,66.2656 L544.8906,67.875 Z "/><text fill="#EEEEEE" font-family="sans-serif" font-size="12" font-style="italic" lengthAdjust="spacingAndGlyphs" textLength="87" x="587.5" y="55.1387">«public class»</text><text fill="#EEEEEE" font-family="sans-serif" font-size="16" lengthAdjust="spacingAndGlyphs" textLength="135" x="563.5" y="76.8203">Query_Generator</text><line style="stroke: #111111; stroke-width: 1.5;" x1="455.5" x2="776.5" y1="87.5938" y2="87.5938"/><line style="stroke: #111111; stroke-width: 1.5;" x1="455.5" x2="776.5" y1="95.5938" y2="95.5938"/><ellipse cx="467.5" cy="108.5938" fill="#84BE84" rx="5" ry="5" style="stroke: #038048; stroke-width: 1.0;"/><text fill="#EEEEEE" font-family="sans-serif" font-size="13" lengthAdjust="spacingAndGlyphs" textLength="294" x="475.5" y="113.6606">WP_Post[] get_posts_by_query_id( $query_id )</text><ellipse cx="467.5" cy="127.7266" fill="#84BE84" rx="5" ry="5" style="stroke: #038048; stroke-width: 1.0;"/><text fill="#EEEEEE" font-family="sans-serif" font-size="13" lengthAdjust="spacingAndGlyphs" textLength="282" x="475.5" y="132.7935">array get_wp_query_arguments( $query_id )</text><path d="M24.5,52 L24.5,126.5313 L419.5,126.5313 L419.5,62 L409.5,52 L24.5,52 " fill="#FBFB77" style="stroke: #A80036; stroke-width: 1.0;"/><path d="M409.5,52 L409.5,62 L419.5,62 L409.5,52 " fill="#FBFB77" style="stroke: #A80036; stroke-width: 1.0;"/><text fill="#000000" font-family="sans-serif" font-size="13" lengthAdjust="spacingAndGlyphs" textLength="229" x="32.5" y="71.0669">These classes can be known only by</text><text fill="#000000" font-family="sans-serif" font-size="13" lengthAdjust="spacingAndGlyphs" textLength="370" x="32.5" y="86.1997">TWRP\Admin\Tabs\Query_Options\Query_Settings_Display,</text><text fill="#000000" font-family="sans-serif" font-size="13" lengthAdjust="spacingAndGlyphs" textLength="315" x="32.5" y="101.3325">where for each class exists a class that is used to</text><text fill="#000000" font-family="sans-serif" font-size="13" lengthAdjust="spacingAndGlyphs" textLength="238" x="32.5" y="116.4653">display the setting in the admin area.</text><!--MD5=[6e4d54913f860a388212ab4e36e85c98]
class TWRP\\Query_Generator\\Query_Setting\\Query_Setting--><rect codeLine="44" fill="url(#g1k7ormwga6zz1)" height="64.2656" id="TWRP\\Query_Generator\\Query_Setting\\Query_Setting" style="stroke: #111111; stroke-width: 1.5;" width="142" x="408" y="202"/><ellipse cx="422" cy="226.1328" fill="#A9DCDF" rx="10" ry="10" style="stroke: #111111; stroke-width: 1.0;"/><path d="M421.8125,221.3516 L420.1563,227.3203 L423.4844,227.3203 L421.8125,221.3516 Z M420.8594,219.9609 L422.7813,219.9609 L426.3438,231.6328 L424.7188,231.6328 L423.8594,228.5859 L419.7656,228.5859 L418.9219,231.6328 L417.2969,231.6328 L420.8594,219.9609 Z "/><text fill="#EEEEEE" font-family="sans-serif" font-size="12" font-style="italic" lengthAdjust="spacingAndGlyphs" textLength="112" x="435" y="220.1387">«protected class»</text><text fill="#EEEEEE" font-family="sans-serif" font-size="14" font-style="italic" lengthAdjust="spacingAndGlyphs" textLength="97" x="442.5" y="239.9639">Query_Setting</text><line style="stroke: #111111; stroke-width: 1.5;" x1="409" x2="549" y1="250.2656" y2="250.2656"/><line style="stroke: #111111; stroke-width: 1.5;" x1="409" x2="549" y1="258.2656" y2="258.2656"/><!--MD5=[3d645e514e42de9202f15205d3e69e2f]
class TWRP\\Query_Generator\\Query_Setting\\Query_Name--><rect codeLine="46" fill="url(#g1k7ormwga6zz1)" height="64.2656" id="TWRP\\Query_Generator\\Query_Setting\\Query_Name" style="stroke: #111111; stroke-width: 1.5;" width="142" x="54" y="326"/><ellipse cx="68" cy="350.1328" fill="#ADD1B2" rx="10" ry="10" style="stroke: #111111; stroke-width: 1.0;"/><path d="M70.3906,355.7109 Q69.7813,356.0391 69.1406,356.1953 Q68.5156,356.3672 67.8125,356.3672 Q65.5625,356.3672 64.3281,354.7734 Q63.0938,353.1797 63.0938,350.3047 Q63.0938,347.4453 64.3281,345.8516 Q65.5781,344.2578 67.8125,344.2578 Q68.5156,344.2578 69.1406,344.4141 Q69.7813,344.5703 70.3906,344.8984 L70.3906,346.5078 Q69.8125,346.0391 69.1406,345.7891 Q68.4844,345.5391 67.8125,345.5391 Q66.2656,345.5391 65.5,346.7266 Q64.7344,347.9141 64.7344,350.3047 Q64.7344,352.6953 65.5,353.8828 Q66.2656,355.0703 67.8125,355.0703 Q68.5,355.0703 69.1563,354.8203 Q69.8125,354.5703 70.3906,354.1016 L70.3906,355.7109 Z "/><text fill="#EEEEEE" font-family="sans-serif" font-size="12" font-style="italic" lengthAdjust="spacingAndGlyphs" textLength="112" x="81" y="344.1387">«protected class»</text><text fill="#EEEEEE" font-family="sans-serif" font-size="14" lengthAdjust="spacingAndGlyphs" textLength="88" x="93" y="363.9639">Query_Name</text><line style="stroke: #111111; stroke-width: 1.5;" x1="55" x2="195" y1="374.2656" y2="374.2656"/><line style="stroke: #111111; stroke-width: 1.5;" x1="55" x2="195" y1="382.2656" y2="382.2656"/><!--MD5=[10f01bdef1f0f40439cfc1853321fd9a]
class TWRP\\Query_Generator\\Query_Setting\\Post_Order--><rect codeLine="47" fill="url(#g1k7ormwga6zz1)" height="64.2656" id="TWRP\\Query_Generator\\Query_Setting\\Post_Order" style="stroke: #111111; stroke-width: 1.5;" width="142" x="231" y="326"/><ellipse cx="245" cy="350.1328" fill="#ADD1B2" rx="10" ry="10" style="stroke: #111111; stroke-width: 1.0;"/><path d="M247.3906,355.7109 Q246.7813,356.0391 246.1406,356.1953 Q245.5156,356.3672 244.8125,356.3672 Q242.5625,356.3672 241.3281,354.7734 Q240.0938,353.1797 240.0938,350.3047 Q240.0938,347.4453 241.3281,345.8516 Q242.5781,344.2578 244.8125,344.2578 Q245.5156,344.2578 246.1406,344.4141 Q246.7813,344.5703 247.3906,344.8984 L247.3906,346.5078 Q246.8125,346.0391 246.1406,345.7891 Q245.4844,345.5391 244.8125,345.5391 Q243.2656,345.5391 242.5,346.7266 Q241.7344,347.9141 241.7344,350.3047 Q241.7344,352.6953 242.5,353.8828 Q243.2656,355.0703 244.8125,355.0703 Q245.5,355.0703 246.1563,354.8203 Q246.8125,354.5703 247.3906,354.1016 L247.3906,355.7109 Z "/><text fill="#EEEEEE" font-family="sans-serif" font-size="12" font-style="italic" lengthAdjust="spacingAndGlyphs" textLength="112" x="258" y="344.1387">«protected class»</text><text fill="#EEEEEE" font-family="sans-serif" font-size="14" lengthAdjust="spacingAndGlyphs" textLength="77" x="275.5" y="363.9639">Post_Order</text><line style="stroke: #111111; stroke-width: 1.5;" x1="232" x2="372" y1="374.2656" y2="374.2656"/><line style="stroke: #111111; stroke-width: 1.5;" x1="232" x2="372" y1="382.2656" y2="382.2656"/><!--MD5=[3816bab1eaf9d01d54adc6bcfbe2fa26]
class TWRP\\Query_Generator\\Query_Setting\\Post_Date--><rect codeLine="48" fill="url(#g1k7ormwga6zz1)" height="64.2656" id="TWRP\\Query_Generator\\Query_Setting\\Post_Date" style="stroke: #111111; stroke-width: 1.5;" width="142" x="408" y="326"/><ellipse cx="422" cy="350.1328" fill="#ADD1B2" rx="10" ry="10" style="stroke: #111111; stroke-width: 1.0;"/><path d="M424.3906,355.7109 Q423.7813,356.0391 423.1406,356.1953 Q422.5156,356.3672 421.8125,356.3672 Q419.5625,356.3672 418.3281,354.7734 Q417.0938,353.1797 417.0938,350.3047 Q417.0938,347.4453 418.3281,345.8516 Q419.5781,344.2578 421.8125,344.2578 Q422.5156,344.2578 423.1406,344.4141 Q423.7813,344.5703 424.3906,344.8984 L424.3906,346.5078 Q423.8125,346.0391 423.1406,345.7891 Q422.4844,345.5391 421.8125,345.5391 Q420.2656,345.5391 419.5,346.7266 Q418.7344,347.9141 418.7344,350.3047 Q418.7344,352.6953 419.5,353.8828 Q420.2656,355.0703 421.8125,355.0703 Q422.5,355.0703 423.1563,354.8203 Q423.8125,354.5703 424.3906,354.1016 L424.3906,355.7109 Z "/><text fill="#EEEEEE" font-family="sans-serif" font-size="12" font-style="italic" lengthAdjust="spacingAndGlyphs" textLength="112" x="435" y="344.1387">«protected class»</text><text fill="#EEEEEE" font-family="sans-serif" font-size="14" lengthAdjust="spacingAndGlyphs" textLength="71" x="455.5" y="363.9639">Post_Date</text><line style="stroke: #111111; stroke-width: 1.5;" x1="409" x2="549" y1="374.2656" y2="374.2656"/><line style="stroke: #111111; stroke-width: 1.5;" x1="409" x2="549" y1="382.2656" y2="382.2656"/><!--MD5=[1ad11960be4c58ff493986fa1536a9df]
class TWRP\\Query_Generator\\Query_Setting\\Other_Similar_Classes--><rect codeLine="49" fill="url(#g1k7ormwga6zz1)" height="64.2656" id="TWRP\\Query_Generator\\Query_Setting\\Other_Similar_Classes" style="stroke: #111111; stroke-width: 1.5;" width="185" x="585.5" y="326"/><ellipse cx="599.5" cy="350.1328" fill="#ADD1B2" rx="10" ry="10" style="stroke: #111111; stroke-width: 1.0;"/><path d="M601.8906,355.7109 Q601.2813,356.0391 600.6406,356.1953 Q600.0156,356.3672 599.3125,356.3672 Q597.0625,356.3672 595.8281,354.7734 Q594.5938,353.1797 594.5938,350.3047 Q594.5938,347.4453 595.8281,345.8516 Q597.0781,344.2578 599.3125,344.2578 Q600.0156,344.2578 600.6406,344.4141 Q601.2813,344.5703 601.8906,344.8984 L601.8906,346.5078 Q601.3125,346.0391 600.6406,345.7891 Q599.9844,345.5391 599.3125,345.5391 Q597.7656,345.5391 597,346.7266 Q596.2344,347.9141 596.2344,350.3047 Q596.2344,352.6953 597,353.8828 Q597.7656,355.0703 599.3125,355.0703 Q600,355.0703 600.6563,354.8203 Q601.3125,354.5703 601.8906,354.1016 L601.8906,355.7109 Z "/><text fill="#EEEEEE" font-family="sans-serif" font-size="12" font-style="italic" lengthAdjust="spacingAndGlyphs" textLength="112" x="634" y="344.1387">«protected class»</text><text fill="#EEEEEE" font-family="sans-serif" font-size="14" lengthAdjust="spacingAndGlyphs" textLength="151" x="614.5" y="363.9639">Other_Similar_Classes</text><line style="stroke: #111111; stroke-width: 1.5;" x1="586.5" x2="769.5" y1="374.2656" y2="374.2656"/><line style="stroke: #111111; stroke-width: 1.5;" x1="586.5" x2="769.5" y1="382.2656" y2="382.2656"/><!--MD5=[83aa3f1103c2d9db99cf150354ec67e9]
reverse link TWRP\\Query_Generator\\Query_Setting\\Query_Setting to TWRP\\Query_Generator\\Query_Setting\\Query_Name--><path d="M388.8593,265.0188 C337.5556,282.7422 272.123,305.4623 214,326 C208.2718,328.0241 202.3402,330.1315 196.3837,332.2559 " fill="none" id="TWRP\\Query_Generator\\Query_Setting\\Query_Setting-backto-TWRP\\Query_Generator\\Query_Setting\\Query_Name" style="stroke: #FFFF00; stroke-width: 1.0; stroke-dasharray: 7.0,7.0;"/><polygon fill="none" points="386.596,258.3948,407.7855,258.4858,391.1641,271.6286,386.596,258.3948" style="stroke: #FFFF00; stroke-width: 1.0;"/><!--MD5=[937d3ecedb508183f1418bd02c716cc8]
reverse link TWRP\\Query_Generator\\Query_Setting\\Query_Setting to TWRP\\Query_Generator\\Query_Setting\\Post_Order--><path d="M416.2811,277.9386 C393.7054,293.7544 368.6773,311.2882 347.8121,325.9057 " fill="none" id="TWRP\\Query_Generator\\Query_Setting\\Query_Setting-backto-TWRP\\Query_Generator\\Query_Setting\\Post_Order" style="stroke: #FFFF00; stroke-width: 1.0; stroke-dasharray: 7.0,7.0;"/><polygon fill="none" points="412.5607,271.9982,432.9574,266.2558,420.5935,283.4644,412.5607,271.9982" style="stroke: #FFFF00; stroke-width: 1.0;"/><!--MD5=[375e5f1255ec5c3b536ca639a5c7a226]
reverse link TWRP\\Query_Generator\\Query_Setting\\Query_Setting to TWRP\\Query_Generator\\Query_Setting\\Post_Date--><path d="M479,286.4467 C479,299.852 479,313.8678 479,325.9057 " fill="none" id="TWRP\\Query_Generator\\Query_Setting\\Query_Setting-backto-TWRP\\Query_Generator\\Query_Setting\\Post_Date" style="stroke: #FFFF00; stroke-width: 1.0; stroke-dasharray: 7.0,7.0;"/><polygon fill="none" points="472.0001,286.2559,479,266.2558,486.0001,286.2558,472.0001,286.2559" style="stroke: #FFFF00; stroke-width: 1.0;"/><!--MD5=[1c3875c8a606418b26d2b07a756ec26c]
reverse link TWRP\\Query_Generator\\Query_Setting\\Query_Setting to TWRP\\Query_Generator\\Query_Setting\\Other_Similar_Classes--><path d="M547.7719,276.8528 C573.5561,292.9194 602.393,310.8881 626.3642,325.8249 " fill="none" id="TWRP\\Query_Generator\\Query_Setting\\Query_Setting-backto-TWRP\\Query_Generator\\Query_Setting\\Other_Similar_Classes" style="stroke: #FFFF00; stroke-width: 1.0; stroke-dasharray: 7.0,7.0;"/><polygon fill="none" points="543.7786,282.6124,530.5062,266.0943,551.1825,270.7303,543.7786,282.6124" style="stroke: #FFFF00; stroke-width: 1.0;"/><!--MD5=[85eb388810eae637775dc3db3d4ce481]
link TWRP\\Query_Generator\\NoteQuerySettings to TWRP\\Query_Generator\\Query_Setting--><path codeLine="53" d="M222,127.0885 C222,137.2904 222,148.7007 222,160.1643 C222,163.0301 222,165.8994 222,168.7539 C222,169.4675 222,170.1802 222,170.8917 " fill="none" id="TWRP\\Query_Generator\\NoteQuerySettings-to-TWRP\\Query_Generator\\Query_Setting" style="stroke: #FFFF00; stroke-width: 1.0;"/><polygon fill="#FFFF00" points="222,170.8917,226,161.8917,222,165.8917,218,161.8917,222,170.8917" style="stroke: #FFFF00; stroke-width: 1.0;"/><!--MD5=[41bc136a0f8519c43cbaedc37a84bf89]
link TWRP\\Query_Generator\\Query_Generator to TWRP\\Query_Generator\\Query_Setting\\Query_Setting--><path codeLine="55" d="M566.1523,142.0766 C548.5126,160.6819 529.0866,181.1714 513.0602,198.0752 " fill="none" id="TWRP\\Query_Generator\\Query_Generator-to-TWRP\\Query_Generator\\Query_Setting\\Query_Setting" style="stroke: #FFFF00; stroke-width: 1.0;"/><polygon fill="#FFFF00" points="509.4845,201.8467,518.5795,198.0676,512.9246,198.2183,512.774,192.5634,509.4845,201.8467" style="stroke: #FFFF00; stroke-width: 1.0;"/><!--MD5=[877841d9c3d8b5aef4082268c9250dd7]
@startuml
set namespaceSeparator \\

    skinparam {
        padding 2
        backgroundColor #222
        shadowing false

        classFontColor #eee
        classStereotypeFontColor #eee
        classBorderColor #111
        classFontSize 14
        ClassAttributeFontColor #eee
        ClassAttributeFontSize 13
        ClassAttributeIconSize 15

        PackageBackgroundColor #2c2c2c
        PackageBorderColor #111
        PackageFontColor #eee

        ArrowColor yellow

        circledCharacterFontColor black
        circledCharacterFontSize 16
        circledCharacterFontStyle plain
        circledCharacterRadius 10

        <<public class>>classBackgroundColor #004b00/#003b00
        <<public class>>classFontSize 16

        <<private class>>classBackgroundColor #5d0000/#4d0000

        <<protected class>>classBackgroundColor #d16300/#c15300

        <<abstract class>>classBorderColor #755800
    }


namespace TWRP\\Query_Generator {
	class Query_Generator <<public class>> {
		+ WP_Post[] get_posts_by_query_id( $query_id )
		+ array get_wp_query_arguments( $query_id )
	}
	namespace Query_Setting {
		abstract Query_Setting <<protected class>> {}

		class Query_Name <<protected class>> implements Query_Setting {}
		class Post_Order <<protected class>> implements Query_Setting {}
		class Post_Date <<protected class>> implements Query_Setting {}
		class Other_Similar_Classes <<protected class>> implements Query_Setting {}
	}

	note "These classes can be known only by\nTWRP\\Admin\\Tabs\\Query_Options\\Query_Settings_Display,\nwhere for each class exists a class that is used to\ndisplay the setting in the admin area." as NoteQuerySettings
	NoteQuerySettings - -> TWRP\\Query_Generator\\Query_Setting

	Query_Generator - -> TWRP\\Query_Generator\\Query_Setting\\Query_Setting
}
@enduml

PlantUML version 1.2020.19(Mon Oct 12 15:10:01 UTC 2020)
(GPL source distribution)
Java Runtime: OpenJDK Runtime Environment
JVM: OpenJDK 64-Bit Server VM
Default Encoding: UTF-8
Language: en
Country: null
--></g></svg>