<?xml version="1.0" encoding="UTF-8" standalone="no"?><svg xmlns="http://www.w3.org/2000/svg" xmlns:xlink="http://www.w3.org/1999/xlink" contentScriptType="application/ecmascript" contentStyleType="text/css" height="413px" preserveAspectRatio="none" style="width:783px;height:413px;background:#222222;" version="1.1" viewBox="0 0 783 413" width="783px" zoomAndPan="magnify"><defs><linearGradient id="gqgzj0uhv8u0z0" x1="0%" x2="100%" y1="0%" y2="100%"><stop offset="0%" stop-color="#004B00"/><stop offset="100%" stop-color="#003B00"/></linearGradient><linearGradient id="gqgzj0uhv8u0z1" x1="0%" x2="100%" y1="0%" y2="100%"><stop offset="0%" stop-color="#D16300"/><stop offset="100%" stop-color="#C15300"/></linearGradient></defs><g><!--MD5=[1af112bba1ee5b5fadb30a42fcfd4309]
cluster TWRP\\Query_Generator--><rect fill="#2C2C2C" height="400" style="stroke:#111111;stroke-width:1.5;" width="770" x="7" y="7"/><text fill="#EEEEEE" font-family="sans-serif" font-size="14" font-weight="bold" lengthAdjust="spacing" textLength="186" x="299" y="23.9951">TWRP\Query_Generator</text><!--MD5=[262cad39a9065d1580a8652604ed4777]
cluster TWRP\\Query_Generator\\Query_Setting--><rect fill="#2C2C2C" height="227" style="stroke:#111111;stroke-width:1.5;" width="732" x="37" y="172"/><text fill="#EEEEEE" font-family="sans-serif" font-size="14" font-weight="bold" lengthAdjust="spacing" textLength="111" x="347.5" y="188.9951">Query_Setting</text><!--MD5=[c0412d7897d8670324314061118630de]
class TWRP\\Query_Generator\\Query_Generator--><rect codeLine="41" fill="url(#gqgzj0uhv8u0z0)" height="104.8594" id="TWRP\\Query_Generator\\Query_Generator" style="stroke:#111111;stroke-width:1.5;" width="323" x="445.5" y="38"/><ellipse cx="533.5" cy="63.2969" fill="#ADD1B2" rx="10" ry="10" style="stroke:#111111;stroke-width:1.0;"/><path d="M535.8906,68.875 Q535.2813,69.2031 534.6406,69.3594 Q534.0156,69.5313 533.3125,69.5313 Q531.0625,69.5313 529.8281,67.9375 Q528.5938,66.3438 528.5938,63.4688 Q528.5938,60.6094 529.8281,59.0156 Q531.0781,57.4219 533.3125,57.4219 Q534.0156,57.4219 534.6406,57.5781 Q535.2813,57.7344 535.8906,58.0625 L535.8906,59.6719 Q535.3125,59.2031 534.6406,58.9531 Q533.9844,58.7031 533.3125,58.7031 Q531.7656,58.7031 531,59.8906 Q530.2344,61.0781 530.2344,63.4688 Q530.2344,65.8594 531,67.0469 Q531.7656,68.2344 533.3125,68.2344 Q534,68.2344 534.6563,67.9844 Q535.3125,67.7344 535.8906,67.2656 L535.8906,68.875 Z " fill="#000000"/><text fill="#EEEEEE" font-family="sans-serif" font-size="12" font-style="italic" lengthAdjust="spacing" textLength="87" x="578.5" y="56.1387">«public class»</text><text fill="#EEEEEE" font-family="sans-serif" font-size="16" lengthAdjust="spacing" textLength="135" x="554.5" y="77.8203">Query_Generator</text><line style="stroke:#111111;stroke-width:1.5;" x1="446.5" x2="767.5" y1="88.5938" y2="88.5938"/><line style="stroke:#111111;stroke-width:1.5;" x1="446.5" x2="767.5" y1="96.5938" y2="96.5938"/><ellipse cx="458.5" cy="109.5938" fill="#84BE84" rx="5" ry="5" style="stroke:#038048;stroke-width:1.0;"/><text fill="#EEEEEE" font-family="sans-serif" font-size="13" lengthAdjust="spacing" textLength="294" x="466.5" y="114.6606">WP_Post[] get_posts_by_query_id( $query_id )</text><ellipse cx="458.5" cy="128.7266" fill="#84BE84" rx="5" ry="5" style="stroke:#038048;stroke-width:1.0;"/><text fill="#EEEEEE" font-family="sans-serif" font-size="13" lengthAdjust="spacing" textLength="282" x="466.5" y="133.7935">array get_wp_query_arguments( $query_id )</text><path d="M15.5,53 L15.5,127.5313 L410.5,127.5313 L410.5,63 L400.5,53 L15.5,53 " fill="#FBFB77" style="stroke:#A80036;stroke-width:1.0;"/><path d="M400.5,53 L400.5,63 L410.5,63 L400.5,53 " fill="#FBFB77" style="stroke:#A80036;stroke-width:1.0;"/><text fill="#000000" font-family="sans-serif" font-size="13" lengthAdjust="spacing" textLength="229" x="23.5" y="72.0669">These classes can be known only by</text><text fill="#000000" font-family="sans-serif" font-size="13" lengthAdjust="spacing" textLength="370" x="23.5" y="87.1997">TWRP\Admin\Tabs\Query_Options\Query_Settings_Display,</text><text fill="#000000" font-family="sans-serif" font-size="13" lengthAdjust="spacing" textLength="315" x="23.5" y="102.3325">where for each class exists a class that is used to</text><text fill="#000000" font-family="sans-serif" font-size="13" lengthAdjust="spacing" textLength="238" x="23.5" y="117.4653">display the setting in the admin area.</text><!--MD5=[6e4d54913f860a388212ab4e36e85c98]
class TWRP\\Query_Generator\\Query_Setting\\Query_Setting--><rect codeLine="46" fill="url(#gqgzj0uhv8u0z1)" height="64.2656" id="TWRP\\Query_Generator\\Query_Setting\\Query_Setting" style="stroke:#111111;stroke-width:1.5;" width="142" x="399" y="203"/><ellipse cx="413" cy="227.1328" fill="#A9DCDF" rx="10" ry="10" style="stroke:#111111;stroke-width:1.0;"/><path d="M412.8125,222.3516 L411.1563,228.3203 L414.4844,228.3203 L412.8125,222.3516 Z M411.8594,220.9609 L413.7813,220.9609 L417.3438,232.6328 L415.7188,232.6328 L414.8594,229.5859 L410.7656,229.5859 L409.9219,232.6328 L408.2969,232.6328 L411.8594,220.9609 Z " fill="#000000"/><text fill="#EEEEEE" font-family="sans-serif" font-size="12" font-style="italic" lengthAdjust="spacing" textLength="112" x="426" y="221.1387">«protected class»</text><text fill="#EEEEEE" font-family="sans-serif" font-size="14" font-style="italic" lengthAdjust="spacing" textLength="97" x="433.5" y="240.9639">Query_Setting</text><line style="stroke:#111111;stroke-width:1.5;" x1="400" x2="540" y1="251.2656" y2="251.2656"/><line style="stroke:#111111;stroke-width:1.5;" x1="400" x2="540" y1="259.2656" y2="259.2656"/><!--MD5=[3d645e514e42de9202f15205d3e69e2f]
class TWRP\\Query_Generator\\Query_Setting\\Query_Name--><rect codeLine="48" fill="url(#gqgzj0uhv8u0z1)" height="64.2656" id="TWRP\\Query_Generator\\Query_Setting\\Query_Name" style="stroke:#111111;stroke-width:1.5;" width="142" x="45" y="327"/><ellipse cx="59" cy="351.1328" fill="#ADD1B2" rx="10" ry="10" style="stroke:#111111;stroke-width:1.0;"/><path d="M61.3906,356.7109 Q60.7813,357.0391 60.1406,357.1953 Q59.5156,357.3672 58.8125,357.3672 Q56.5625,357.3672 55.3281,355.7734 Q54.0938,354.1797 54.0938,351.3047 Q54.0938,348.4453 55.3281,346.8516 Q56.5781,345.2578 58.8125,345.2578 Q59.5156,345.2578 60.1406,345.4141 Q60.7813,345.5703 61.3906,345.8984 L61.3906,347.5078 Q60.8125,347.0391 60.1406,346.7891 Q59.4844,346.5391 58.8125,346.5391 Q57.2656,346.5391 56.5,347.7266 Q55.7344,348.9141 55.7344,351.3047 Q55.7344,353.6953 56.5,354.8828 Q57.2656,356.0703 58.8125,356.0703 Q59.5,356.0703 60.1563,355.8203 Q60.8125,355.5703 61.3906,355.1016 L61.3906,356.7109 Z " fill="#000000"/><text fill="#EEEEEE" font-family="sans-serif" font-size="12" font-style="italic" lengthAdjust="spacing" textLength="112" x="72" y="345.1387">«protected class»</text><text fill="#EEEEEE" font-family="sans-serif" font-size="14" lengthAdjust="spacing" textLength="88" x="84" y="364.9639">Query_Name</text><line style="stroke:#111111;stroke-width:1.5;" x1="46" x2="186" y1="375.2656" y2="375.2656"/><line style="stroke:#111111;stroke-width:1.5;" x1="46" x2="186" y1="383.2656" y2="383.2656"/><!--MD5=[10f01bdef1f0f40439cfc1853321fd9a]
class TWRP\\Query_Generator\\Query_Setting\\Post_Order--><rect codeLine="49" fill="url(#gqgzj0uhv8u0z1)" height="64.2656" id="TWRP\\Query_Generator\\Query_Setting\\Post_Order" style="stroke:#111111;stroke-width:1.5;" width="142" x="222" y="327"/><ellipse cx="236" cy="351.1328" fill="#ADD1B2" rx="10" ry="10" style="stroke:#111111;stroke-width:1.0;"/><path d="M238.3906,356.7109 Q237.7813,357.0391 237.1406,357.1953 Q236.5156,357.3672 235.8125,357.3672 Q233.5625,357.3672 232.3281,355.7734 Q231.0938,354.1797 231.0938,351.3047 Q231.0938,348.4453 232.3281,346.8516 Q233.5781,345.2578 235.8125,345.2578 Q236.5156,345.2578 237.1406,345.4141 Q237.7813,345.5703 238.3906,345.8984 L238.3906,347.5078 Q237.8125,347.0391 237.1406,346.7891 Q236.4844,346.5391 235.8125,346.5391 Q234.2656,346.5391 233.5,347.7266 Q232.7344,348.9141 232.7344,351.3047 Q232.7344,353.6953 233.5,354.8828 Q234.2656,356.0703 235.8125,356.0703 Q236.5,356.0703 237.1563,355.8203 Q237.8125,355.5703 238.3906,355.1016 L238.3906,356.7109 Z " fill="#000000"/><text fill="#EEEEEE" font-family="sans-serif" font-size="12" font-style="italic" lengthAdjust="spacing" textLength="112" x="249" y="345.1387">«protected class»</text><text fill="#EEEEEE" font-family="sans-serif" font-size="14" lengthAdjust="spacing" textLength="77" x="266.5" y="364.9639">Post_Order</text><line style="stroke:#111111;stroke-width:1.5;" x1="223" x2="363" y1="375.2656" y2="375.2656"/><line style="stroke:#111111;stroke-width:1.5;" x1="223" x2="363" y1="383.2656" y2="383.2656"/><!--MD5=[3816bab1eaf9d01d54adc6bcfbe2fa26]
class TWRP\\Query_Generator\\Query_Setting\\Post_Date--><rect codeLine="50" fill="url(#gqgzj0uhv8u0z1)" height="64.2656" id="TWRP\\Query_Generator\\Query_Setting\\Post_Date" style="stroke:#111111;stroke-width:1.5;" width="142" x="399" y="327"/><ellipse cx="413" cy="351.1328" fill="#ADD1B2" rx="10" ry="10" style="stroke:#111111;stroke-width:1.0;"/><path d="M415.3906,356.7109 Q414.7813,357.0391 414.1406,357.1953 Q413.5156,357.3672 412.8125,357.3672 Q410.5625,357.3672 409.3281,355.7734 Q408.0938,354.1797 408.0938,351.3047 Q408.0938,348.4453 409.3281,346.8516 Q410.5781,345.2578 412.8125,345.2578 Q413.5156,345.2578 414.1406,345.4141 Q414.7813,345.5703 415.3906,345.8984 L415.3906,347.5078 Q414.8125,347.0391 414.1406,346.7891 Q413.4844,346.5391 412.8125,346.5391 Q411.2656,346.5391 410.5,347.7266 Q409.7344,348.9141 409.7344,351.3047 Q409.7344,353.6953 410.5,354.8828 Q411.2656,356.0703 412.8125,356.0703 Q413.5,356.0703 414.1563,355.8203 Q414.8125,355.5703 415.3906,355.1016 L415.3906,356.7109 Z " fill="#000000"/><text fill="#EEEEEE" font-family="sans-serif" font-size="12" font-style="italic" lengthAdjust="spacing" textLength="112" x="426" y="345.1387">«protected class»</text><text fill="#EEEEEE" font-family="sans-serif" font-size="14" lengthAdjust="spacing" textLength="71" x="446.5" y="364.9639">Post_Date</text><line style="stroke:#111111;stroke-width:1.5;" x1="400" x2="540" y1="375.2656" y2="375.2656"/><line style="stroke:#111111;stroke-width:1.5;" x1="400" x2="540" y1="383.2656" y2="383.2656"/><!--MD5=[1ad11960be4c58ff493986fa1536a9df]
class TWRP\\Query_Generator\\Query_Setting\\Other_Similar_Classes--><rect codeLine="51" fill="url(#gqgzj0uhv8u0z1)" height="64.2656" id="TWRP\\Query_Generator\\Query_Setting\\Other_Similar_Classes" style="stroke:#111111;stroke-width:1.5;" width="185" x="576.5" y="327"/><ellipse cx="590.5" cy="351.1328" fill="#ADD1B2" rx="10" ry="10" style="stroke:#111111;stroke-width:1.0;"/><path d="M592.8906,356.7109 Q592.2813,357.0391 591.6406,357.1953 Q591.0156,357.3672 590.3125,357.3672 Q588.0625,357.3672 586.8281,355.7734 Q585.5938,354.1797 585.5938,351.3047 Q585.5938,348.4453 586.8281,346.8516 Q588.0781,345.2578 590.3125,345.2578 Q591.0156,345.2578 591.6406,345.4141 Q592.2813,345.5703 592.8906,345.8984 L592.8906,347.5078 Q592.3125,347.0391 591.6406,346.7891 Q590.9844,346.5391 590.3125,346.5391 Q588.7656,346.5391 588,347.7266 Q587.2344,348.9141 587.2344,351.3047 Q587.2344,353.6953 588,354.8828 Q588.7656,356.0703 590.3125,356.0703 Q591,356.0703 591.6563,355.8203 Q592.3125,355.5703 592.8906,355.1016 L592.8906,356.7109 Z " fill="#000000"/><text fill="#EEEEEE" font-family="sans-serif" font-size="12" font-style="italic" lengthAdjust="spacing" textLength="112" x="625" y="345.1387">«protected class»</text><text fill="#EEEEEE" font-family="sans-serif" font-size="14" lengthAdjust="spacing" textLength="151" x="605.5" y="364.9639">Other_Similar_Classes</text><line style="stroke:#111111;stroke-width:1.5;" x1="577.5" x2="760.5" y1="375.2656" y2="375.2656"/><line style="stroke:#111111;stroke-width:1.5;" x1="577.5" x2="760.5" y1="383.2656" y2="383.2656"/><!--MD5=[83aa3f1103c2d9db99cf150354ec67e9]
reverse link TWRP\\Query_Generator\\Query_Setting\\Query_Setting to TWRP\\Query_Generator\\Query_Setting\\Query_Name--><path d="M379.8593,266.0188 C328.5556,283.7422 263.123,306.4623 205,327 C199.2718,329.0241 193.3402,331.1315 187.3837,333.2559 " fill="none" id="TWRP\\Query_Generator\\Query_Setting\\Query_Setting-backto-TWRP\\Query_Generator\\Query_Setting\\Query_Name" style="stroke:#FFFF00;stroke-width:1.0;stroke-dasharray:7.0,7.0;"/><polygon fill="none" points="377.596,259.3948,398.7855,259.4858,382.1641,272.6286,377.596,259.3948" style="stroke:#FFFF00;stroke-width:1.0;"/><!--MD5=[937d3ecedb508183f1418bd02c716cc8]
reverse link TWRP\\Query_Generator\\Query_Setting\\Query_Setting to TWRP\\Query_Generator\\Query_Setting\\Post_Order--><path d="M407.2811,278.9386 C384.7054,294.7544 359.6773,312.2882 338.8121,326.9057 " fill="none" id="TWRP\\Query_Generator\\Query_Setting\\Query_Setting-backto-TWRP\\Query_Generator\\Query_Setting\\Post_Order" style="stroke:#FFFF00;stroke-width:1.0;stroke-dasharray:7.0,7.0;"/><polygon fill="none" points="403.5607,272.9982,423.9574,267.2558,411.5935,284.4644,403.5607,272.9982" style="stroke:#FFFF00;stroke-width:1.0;"/><!--MD5=[375e5f1255ec5c3b536ca639a5c7a226]
reverse link TWRP\\Query_Generator\\Query_Setting\\Query_Setting to TWRP\\Query_Generator\\Query_Setting\\Post_Date--><path d="M470,287.4467 C470,300.852 470,314.8678 470,326.9057 " fill="none" id="TWRP\\Query_Generator\\Query_Setting\\Query_Setting-backto-TWRP\\Query_Generator\\Query_Setting\\Post_Date" style="stroke:#FFFF00;stroke-width:1.0;stroke-dasharray:7.0,7.0;"/><polygon fill="none" points="463.0001,287.2559,470,267.2558,477.0001,287.2558,463.0001,287.2559" style="stroke:#FFFF00;stroke-width:1.0;"/><!--MD5=[1c3875c8a606418b26d2b07a756ec26c]
reverse link TWRP\\Query_Generator\\Query_Setting\\Query_Setting to TWRP\\Query_Generator\\Query_Setting\\Other_Similar_Classes--><path d="M538.7719,277.8528 C564.5561,293.9194 593.393,311.8881 617.3642,326.8249 " fill="none" id="TWRP\\Query_Generator\\Query_Setting\\Query_Setting-backto-TWRP\\Query_Generator\\Query_Setting\\Other_Similar_Classes" style="stroke:#FFFF00;stroke-width:1.0;stroke-dasharray:7.0,7.0;"/><polygon fill="none" points="534.7786,283.6124,521.5062,267.0943,542.1825,271.7303,534.7786,283.6124" style="stroke:#FFFF00;stroke-width:1.0;"/><!--MD5=[85eb388810eae637775dc3db3d4ce481]
link TWRP\\Query_Generator\\NoteQuerySettings to TWRP\\Query_Generator\\Query_Setting--><path codeLine="55" d="M213,128.0885 C213,138.2904 213,149.7007 213,161.1643 C213,164.0301 213,166.8994 213,169.7539 C213,170.4675 213,171.1802 213,171.8917 " fill="none" id="TWRP\\Query_Generator\\NoteQuerySettings-to-TWRP\\Query_Generator\\Query_Setting" style="stroke:#FFFF00;stroke-width:1.0;"/><polygon fill="#FFFF00" points="213,171.8917,217,162.8917,213,166.8917,209,162.8917,213,171.8917" style="stroke:#FFFF00;stroke-width:1.0;"/><!--MD5=[41bc136a0f8519c43cbaedc37a84bf89]
link TWRP\\Query_Generator\\Query_Generator to TWRP\\Query_Generator\\Query_Setting\\Query_Setting--><path codeLine="57" d="M557.1523,143.0766 C539.5126,161.6819 520.0866,182.1714 504.0602,199.0752 " fill="none" id="TWRP\\Query_Generator\\Query_Generator-to-TWRP\\Query_Generator\\Query_Setting\\Query_Setting" style="stroke:#FFFF00;stroke-width:1.0;"/><polygon fill="#FFFF00" points="500.4845,202.8467,509.5795,199.0676,503.9246,199.2183,503.774,193.5634,500.4845,202.8467" style="stroke:#FFFF00;stroke-width:1.0;"/><!--MD5=[a2054084c822165300bf160d6f9398b6]
@startuml
set namespaceSeparator \\

    skinparam {
        padding 2
        backgroundColor #222
        shadowing false

        classFontColor #eee
        classStereotypeFontColor #eee
        classBorderColor #111
        classFontSize 14
        ClassAttributeFontColor #eee
        ClassAttributeFontSize 13
        ClassAttributeIconSize 15

        PackageBackgroundColor #2c2c2c
        PackageBorderColor #111
        PackageFontColor #eee

        ArrowColor yellow

        circledCharacterFontColor black
        circledCharacterFontSize 16
        circledCharacterFontStyle plain
        circledCharacterRadius 10

        packageStyle rectangle

        <<public class>>classBackgroundColor #004b00/#003b00
        <<public class>>classFontSize 16

        <<private class>>classBackgroundColor #5d0000/#4d0000

        <<protected class>>classBackgroundColor #d16300/#c15300

        <<abstract class>>classBorderColor #755800
    }


namespace TWRP\\Query_Generator {
	class Query_Generator <<public class>> {
		+ WP_Post[] get_posts_by_query_id( $query_id )
		+ array get_wp_query_arguments( $query_id )
	}
	namespace Query_Setting {
		abstract Query_Setting <<protected class>> {}

		class Query_Name <<protected class>> implements Query_Setting {}
		class Post_Order <<protected class>> implements Query_Setting {}
		class Post_Date <<protected class>> implements Query_Setting {}
		class Other_Similar_Classes <<protected class>> implements Query_Setting {}
	}

	note "These classes can be known only by\nTWRP\\Admin\\Tabs\\Query_Options\\Query_Settings_Display,\nwhere for each class exists a class that is used to\ndisplay the setting in the admin area." as NoteQuerySettings
	NoteQuerySettings - -> TWRP\\Query_Generator\\Query_Setting

	Query_Generator - -> TWRP\\Query_Generator\\Query_Setting\\Query_Setting
}
@enduml

PlantUML version 1.2021.00(Sun Jan 10 10:25:05 UTC 2021)
(GPL source distribution)
Java Runtime: OpenJDK Runtime Environment
JVM: OpenJDK 64-Bit Server VM
Default Encoding: UTF-8
Language: en
Country: null
--></g></svg>