<?xml version="1.0" encoding="UTF-8" standalone="no"?><svg xmlns="http://www.w3.org/2000/svg" xmlns:xlink="http://www.w3.org/1999/xlink" contentScriptType="application/ecmascript" contentStyleType="text/css" height="389px" preserveAspectRatio="none" style="width:327px;height:389px;background:#222222;" version="1.1" viewBox="0 0 327 389" width="327px" zoomAndPan="magnify"><defs><linearGradient id="g12adohmjguhhh0" x1="0%" x2="100%" y1="0%" y2="100%"><stop offset="0%" stop-color="#004B00"/><stop offset="100%" stop-color="#003B00"/></linearGradient><linearGradient id="g12adohmjguhhh1" x1="0%" x2="100%" y1="0%" y2="100%"><stop offset="0%" stop-color="#5D0000"/><stop offset="100%" stop-color="#4D0000"/></linearGradient></defs><g><!--MD5=[68d01054bf49bbcb3d86b897ee38cd88]
cluster TWRP\\Tabs_Creator--><rect fill="#2C2C2C" height="376" style="stroke: #111111; stroke-width: 1.5;" width="314" x="7" y="7"/><text fill="#EEEEEE" font-family="sans-serif" font-size="14" font-weight="bold" lengthAdjust="spacingAndGlyphs" textLength="155" x="86.5" y="23.9951">TWRP\Tabs_Creator</text><!--MD5=[05134a96b0599e1d21c4a8be69aab532]
cluster TWRP\\Tabs_Creator\\Tabs_Styles--><rect fill="#2C2C2C" height="241" style="stroke: #111111; stroke-width: 1.5;" width="298" x="15" y="134"/><text fill="#EEEEEE" font-family="sans-serif" font-size="14" font-weight="bold" lengthAdjust="spacingAndGlyphs" textLength="93" x="117.5" y="150.9951">Tabs_Styles</text><!--MD5=[5498fdc113b7c1f4140678c95937c907]
class TWRP\\Tabs_Creator\\Tabs_Creator--><rect codeLine="41" fill="url(#g12adohmjguhhh0)" height="66.5938" id="TWRP\\Tabs_Creator\\Tabs_Creator" style="stroke: #111111; stroke-width: 1.5;" width="138" x="95" y="38"/><ellipse cx="109" cy="63.2969" fill="#ADD1B2" rx="10" ry="10" style="stroke: #111111; stroke-width: 1.0;"/><path d="M111.3906,68.875 Q110.7813,69.2031 110.1406,69.3594 Q109.5156,69.5313 108.8125,69.5313 Q106.5625,69.5313 105.3281,67.9375 Q104.0938,66.3438 104.0938,63.4688 Q104.0938,60.6094 105.3281,59.0156 Q106.5781,57.4219 108.8125,57.4219 Q109.5156,57.4219 110.1406,57.5781 Q110.7813,57.7344 111.3906,58.0625 L111.3906,59.6719 Q110.8125,59.2031 110.1406,58.9531 Q109.4844,58.7031 108.8125,58.7031 Q107.2656,58.7031 106.5,59.8906 Q105.7344,61.0781 105.7344,63.4688 Q105.7344,65.8594 106.5,67.0469 Q107.2656,68.2344 108.8125,68.2344 Q109.5,68.2344 110.1563,67.9844 Q110.8125,67.7344 111.3906,67.2656 L111.3906,68.875 Z "/><text fill="#EEEEEE" font-family="sans-serif" font-size="12" font-style="italic" lengthAdjust="spacingAndGlyphs" textLength="87" x="132.5" y="56.1387">«public class»</text><text fill="#EEEEEE" font-family="sans-serif" font-size="16" lengthAdjust="spacingAndGlyphs" textLength="104" x="124" y="77.8203">Tabs_Creator</text><line style="stroke: #111111; stroke-width: 1.5;" x1="96" x2="232" y1="88.5938" y2="88.5938"/><line style="stroke: #111111; stroke-width: 1.5;" x1="96" x2="232" y1="96.5938" y2="96.5938"/><!--MD5=[e9ee49ac303b6506eadcf7fa6cbe2136]
class TWRP\\Tabs_Creator\\Tabs_Styles\\Tab_Style--><rect codeLine="44" fill="url(#g12adohmjguhhh1)" height="78.2344" id="TWRP\\Tabs_Creator\\Tabs_Styles\\Tab_Style" style="stroke: #111111; stroke-width: 1.5;" width="123" x="102.5" y="165"/><ellipse cx="116.5" cy="196.1172" fill="#A9DCDF" rx="10" ry="10" style="stroke: #111111; stroke-width: 1.0;"/><path d="M116.3125,191.3359 L114.6563,197.3047 L117.9844,197.3047 L116.3125,191.3359 Z M115.3594,189.9453 L117.2813,189.9453 L120.8438,201.6172 L119.2188,201.6172 L118.3594,198.5703 L114.2656,198.5703 L113.4219,201.6172 L111.7969,201.6172 L115.3594,189.9453 Z "/><text fill="#EEEEEE" font-family="sans-serif" font-size="12" font-style="italic" lengthAdjust="spacingAndGlyphs" textLength="93" x="129.5" y="183.1387">«private class»</text><text fill="#EEEEEE" font-family="sans-serif" font-size="12" font-style="italic" lengthAdjust="spacingAndGlyphs" textLength="67" x="142.5" y="197.1074">«abstract»</text><text fill="#EEEEEE" font-family="sans-serif" font-size="14" font-style="italic" lengthAdjust="spacingAndGlyphs" textLength="66" x="143" y="216.9326">Tab_Style</text><line style="stroke: #111111; stroke-width: 1.5;" x1="103.5" x2="224.5" y1="227.2344" y2="227.2344"/><line style="stroke: #111111; stroke-width: 1.5;" x1="103.5" x2="224.5" y1="235.2344" y2="235.2344"/><!--MD5=[c6cf8b30074a225e677b1d2098af751a]
class TWRP\\Tabs_Creator\\Tabs_Styles\\Button_Tabs--><rect codeLine="46" fill="url(#g12adohmjguhhh1)" height="64.2656" id="TWRP\\Tabs_Creator\\Tabs_Styles\\Button_Tabs" style="stroke: #111111; stroke-width: 1.5;" width="123" x="23.5" y="303"/><ellipse cx="37.5" cy="327.1328" fill="#ADD1B2" rx="10" ry="10" style="stroke: #111111; stroke-width: 1.0;"/><path d="M39.8906,332.7109 Q39.2813,333.0391 38.6406,333.1953 Q38.0156,333.3672 37.3125,333.3672 Q35.0625,333.3672 33.8281,331.7734 Q32.5938,330.1797 32.5938,327.3047 Q32.5938,324.4453 33.8281,322.8516 Q35.0781,321.2578 37.3125,321.2578 Q38.0156,321.2578 38.6406,321.4141 Q39.2813,321.5703 39.8906,321.8984 L39.8906,323.5078 Q39.3125,323.0391 38.6406,322.7891 Q37.9844,322.5391 37.3125,322.5391 Q35.7656,322.5391 35,323.7266 Q34.2344,324.9141 34.2344,327.3047 Q34.2344,329.6953 35,330.8828 Q35.7656,332.0703 37.3125,332.0703 Q38,332.0703 38.6563,331.8203 Q39.3125,331.5703 39.8906,331.1016 L39.8906,332.7109 Z "/><text fill="#EEEEEE" font-family="sans-serif" font-size="12" font-style="italic" lengthAdjust="spacingAndGlyphs" textLength="93" x="50.5" y="321.1387">«private class»</text><text fill="#EEEEEE" font-family="sans-serif" font-size="14" lengthAdjust="spacingAndGlyphs" textLength="88" x="53" y="340.9639">Button_Tabs</text><line style="stroke: #111111; stroke-width: 1.5;" x1="24.5" x2="145.5" y1="351.2656" y2="351.2656"/><line style="stroke: #111111; stroke-width: 1.5;" x1="24.5" x2="145.5" y1="359.2656" y2="359.2656"/><!--MD5=[15828ffcf0a785d81f24dcc1353148e1]
class TWRP\\Tabs_Creator\\Tabs_Styles\\Simple_Tabs--><rect codeLine="47" fill="url(#g12adohmjguhhh1)" height="64.2656" id="TWRP\\Tabs_Creator\\Tabs_Styles\\Simple_Tabs" style="stroke: #111111; stroke-width: 1.5;" width="123" x="181.5" y="303"/><ellipse cx="195.5" cy="327.1328" fill="#ADD1B2" rx="10" ry="10" style="stroke: #111111; stroke-width: 1.0;"/><path d="M197.8906,332.7109 Q197.2813,333.0391 196.6406,333.1953 Q196.0156,333.3672 195.3125,333.3672 Q193.0625,333.3672 191.8281,331.7734 Q190.5938,330.1797 190.5938,327.3047 Q190.5938,324.4453 191.8281,322.8516 Q193.0781,321.2578 195.3125,321.2578 Q196.0156,321.2578 196.6406,321.4141 Q197.2813,321.5703 197.8906,321.8984 L197.8906,323.5078 Q197.3125,323.0391 196.6406,322.7891 Q195.9844,322.5391 195.3125,322.5391 Q193.7656,322.5391 193,323.7266 Q192.2344,324.9141 192.2344,327.3047 Q192.2344,329.6953 193,330.8828 Q193.7656,332.0703 195.3125,332.0703 Q196,332.0703 196.6563,331.8203 Q197.3125,331.5703 197.8906,331.1016 L197.8906,332.7109 Z "/><text fill="#EEEEEE" font-family="sans-serif" font-size="12" font-style="italic" lengthAdjust="spacingAndGlyphs" textLength="93" x="208.5" y="321.1387">«private class»</text><text fill="#EEEEEE" font-family="sans-serif" font-size="14" lengthAdjust="spacingAndGlyphs" textLength="87" x="211.5" y="340.9639">Simple_Tabs</text><line style="stroke: #111111; stroke-width: 1.5;" x1="182.5" x2="303.5" y1="351.2656" y2="351.2656"/><line style="stroke: #111111; stroke-width: 1.5;" x1="182.5" x2="303.5" y1="359.2656" y2="359.2656"/><!--MD5=[1c59f6a31e3733fbcae8ce541f57932e]
reverse link TWRP\\Tabs_Creator\\Tabs_Styles\\Tab_Style to TWRP\\Tabs_Creator\\Tabs_Styles\\Button_Tabs--><path d="M129.951,260.461 C121.2254,274.93 112.138,289.9989 104.4362,302.7703 " fill="none" id="TWRP\\Tabs_Creator\\Tabs_Styles\\Tab_Style-backto-TWRP\\Tabs_Creator\\Tabs_Styles\\Button_Tabs" style="stroke: #FFFF00; stroke-width: 1.0; stroke-dasharray: 7.0,7.0;"/><polygon fill="none" points="123.9746,256.8161,140.2974,243.3043,135.9634,264.046,123.9746,256.8161" style="stroke: #FFFF00; stroke-width: 1.0;"/><!--MD5=[18865dce0da5a8184a7647e359cdc528]
reverse link TWRP\\Tabs_Creator\\Tabs_Styles\\Tab_Style to TWRP\\Tabs_Creator\\Tabs_Styles\\Simple_Tabs--><path d="M198.049,260.461 C206.7746,274.93 215.862,289.9989 223.5638,302.7703 " fill="none" id="TWRP\\Tabs_Creator\\Tabs_Styles\\Tab_Style-backto-TWRP\\Tabs_Creator\\Tabs_Styles\\Simple_Tabs" style="stroke: #FFFF00; stroke-width: 1.0; stroke-dasharray: 7.0,7.0;"/><polygon fill="none" points="192.0366,264.046,187.7026,243.3043,204.0254,256.8161,192.0366,264.046" style="stroke: #FFFF00; stroke-width: 1.0;"/><!--MD5=[db98fc0791c1bafba1559f6854a1e48b]
link TWRP\\Tabs_Creator\\Tabs_Creator to TWRP\\Tabs_Creator\\Tabs_Styles\\Tab_Style--><path codeLine="50" d="M164,105.2782 C164,121.6766 164,141.6013 164,159.2448 " fill="none" id="TWRP\\Tabs_Creator\\Tabs_Creator-to-TWRP\\Tabs_Creator\\Tabs_Styles\\Tab_Style" style="stroke: #FFFF00; stroke-width: 1.0;"/><polygon fill="#FFFF00" points="164,164.6408,168,155.6408,164,159.6408,160,155.6408,164,164.6408" style="stroke: #FFFF00; stroke-width: 1.0;"/><!--MD5=[0cd4b4bc901fbd65470a6465b22b90c3]
@startuml
set namespaceSeparator \\

    skinparam {
        padding 2
        backgroundColor #222
        shadowing false

        classFontColor #eee
        classStereotypeFontColor #eee
        classBorderColor #111
        classFontSize 14
        ClassAttributeFontColor #eee
        ClassAttributeFontSize 13
        ClassAttributeIconSize 15

        PackageBackgroundColor #2c2c2c
        PackageBorderColor #111
        PackageFontColor #eee

        ArrowColor yellow

        circledCharacterFontColor black
        circledCharacterFontSize 16
        circledCharacterFontStyle plain
        circledCharacterRadius 10

        packageStyle rectangle

        <<public class>>classBackgroundColor #004b00/#003b00
        <<public class>>classFontSize 16

        <<private class>>classBackgroundColor #5d0000/#4d0000

        <<protected class>>classBackgroundColor #d16300/#c15300

        <<abstract class>>classBorderColor #755800
    }


namespace TWRP\\Tabs_Creator {
	class Tabs_Creator <<public class>> {}

	namespace TWRP\\Tabs_Creator\\Tabs_Styles {
		abstract Tab_Style <<private class>> <<abstract>> {}

		class Button_Tabs <<private class>> implements Tab_Style {}
		class Simple_Tabs <<private class>> implements Tab_Style {}
	}

	Tabs_Creator - -> TWRP\\Tabs_Creator\\Tabs_Styles\\Tab_Style
}
@enduml

PlantUML version 1.2020.19(Mon Oct 12 15:10:01 UTC 2020)
(GPL source distribution)
Java Runtime: OpenJDK Runtime Environment
JVM: OpenJDK 64-Bit Server VM
Default Encoding: UTF-8
Language: en
Country: null
--></g></svg>