<?xml version="1.0" encoding="UTF-8" standalone="no"?><svg xmlns="http://www.w3.org/2000/svg" xmlns:xlink="http://www.w3.org/1999/xlink" contentScriptType="application/ecmascript" contentStyleType="text/css" height="389px" preserveAspectRatio="none" style="width:355px;height:389px;background:#222222;" version="1.1" viewBox="0 0 355 389" width="355px" zoomAndPan="magnify"><defs><linearGradient id="g1einjhdrk6wr40" x1="0%" x2="100%" y1="0%" y2="100%"><stop offset="0%" stop-color="#004B00"/><stop offset="100%" stop-color="#003B00"/></linearGradient><linearGradient id="g1einjhdrk6wr41" x1="0%" x2="100%" y1="0%" y2="100%"><stop offset="0%" stop-color="#5D0000"/><stop offset="100%" stop-color="#4D0000"/></linearGradient></defs><g><!--MD5=[68d01054bf49bbcb3d86b897ee38cd88]
cluster TWRP\\Tabs_Creator--><polygon fill="#2C2C2C" points="16,6,181,6,188,32.2969,338,32.2969,338,382,16,382,16,6" style="stroke: #111111; stroke-width: 1.5;"/><line style="stroke: #111111; stroke-width: 1.5;" x1="16" x2="188" y1="32.2969" y2="32.2969"/><text fill="#EEEEEE" font-family="sans-serif" font-size="14" font-weight="bold" lengthAdjust="spacingAndGlyphs" textLength="155" x="22" y="22.9951">TWRP\Tabs_Creator</text><!--MD5=[05134a96b0599e1d21c4a8be69aab532]
cluster TWRP\\Tabs_Creator\\Tabs_Styles--><polygon fill="#2C2C2C" points="24,133,127,133,134,159.2969,330,159.2969,330,374,24,374,24,133" style="stroke: #111111; stroke-width: 1.5;"/><line style="stroke: #111111; stroke-width: 1.5;" x1="24" x2="134" y1="159.2969" y2="159.2969"/><text fill="#EEEEEE" font-family="sans-serif" font-size="14" font-weight="bold" lengthAdjust="spacingAndGlyphs" textLength="93" x="30" y="149.9951">Tabs_Styles</text><!--MD5=[5498fdc113b7c1f4140678c95937c907]
class TWRP\\Tabs_Creator\\Tabs_Creator--><rect codeLine="46" fill="url(#g1einjhdrk6wr40)" height="66.5938" id="TWRP\\Tabs_Creator\\Tabs_Creator" style="stroke: #111111; stroke-width: 1.5;" width="142" x="106" y="37"/><ellipse cx="122" cy="62.2969" fill="#ADD1B2" rx="12" ry="12" style="stroke: #111111; stroke-width: 1.0;"/><path d="M124.9375,68.3281 Q124.25,68.6875 123.5313,68.8594 Q122.8281,69.0469 122.0313,69.0469 Q119.5156,69.0469 118.1094,67.2656 Q116.7188,65.4844 116.7188,62.25 Q116.7188,59.0313 118.125,57.2344 Q119.5313,55.4375 122.0313,55.4375 Q122.8281,55.4375 123.5313,55.625 Q124.25,55.7969 124.9375,56.1563 L124.9375,57.9844 Q124.2813,57.4375 123.5313,57.1563 Q122.7813,56.875 122.0313,56.875 Q120.2969,56.875 119.4375,58.2188 Q118.5781,59.5469 118.5781,62.25 Q118.5781,64.9375 119.4375,66.2813 Q120.2969,67.6094 122.0313,67.6094 Q122.7969,67.6094 123.5469,67.3281 Q124.2969,67.0469 124.9375,66.5156 L124.9375,68.3281 Z "/><text fill="#EEEEEE" font-family="sans-serif" font-size="12" font-style="italic" lengthAdjust="spacingAndGlyphs" textLength="87" x="147.5" y="55.1387">«public class»</text><text fill="#EEEEEE" font-family="sans-serif" font-size="16" lengthAdjust="spacingAndGlyphs" textLength="104" x="139" y="76.8203">Tabs_Creator</text><line style="stroke: #111111; stroke-width: 1.5;" x1="107" x2="247" y1="87.5938" y2="87.5938"/><line style="stroke: #111111; stroke-width: 1.5;" x1="107" x2="247" y1="95.5938" y2="95.5938"/><!--MD5=[e9ee49ac303b6506eadcf7fa6cbe2136]
class TWRP\\Tabs_Creator\\Tabs_Styles\\Tab_Style--><rect codeLine="49" fill="url(#g1einjhdrk6wr41)" height="78.2344" id="TWRP\\Tabs_Creator\\Tabs_Styles\\Tab_Style" style="stroke: #111111; stroke-width: 1.5;" width="127" x="113.5" y="164"/><ellipse cx="129.5" cy="195.1172" fill="#A9DCDF" rx="12" ry="12" style="stroke: #111111; stroke-width: 1.0;"/><path d="M129.4219,189.5547 L127.5469,196.2734 L131.2813,196.2734 L129.4219,189.5547 Z M128.3438,187.9922 L130.5,187.9922 L134.5156,201.1172 L132.6719,201.1172 L131.7031,197.6953 L127.1094,197.6953 L126.1563,201.1172 L124.3281,201.1172 L128.3438,187.9922 Z "/><text fill="#EEEEEE" font-family="sans-serif" font-size="12" font-style="italic" lengthAdjust="spacingAndGlyphs" textLength="93" x="144.5" y="182.1387">«private class»</text><text fill="#EEEEEE" font-family="sans-serif" font-size="12" font-style="italic" lengthAdjust="spacingAndGlyphs" textLength="67" x="157.5" y="196.1074">«abstract»</text><text fill="#EEEEEE" font-family="sans-serif" font-size="14" font-style="italic" lengthAdjust="spacingAndGlyphs" textLength="66" x="158" y="215.9326">Tab_Style</text><line style="stroke: #111111; stroke-width: 1.5;" x1="114.5" x2="239.5" y1="226.2344" y2="226.2344"/><line style="stroke: #111111; stroke-width: 1.5;" x1="114.5" x2="239.5" y1="234.2344" y2="234.2344"/><!--MD5=[c6cf8b30074a225e677b1d2098af751a]
class TWRP\\Tabs_Creator\\Tabs_Styles\\Button_Tabs--><rect codeLine="51" fill="url(#g1einjhdrk6wr41)" height="64.2656" id="TWRP\\Tabs_Creator\\Tabs_Styles\\Button_Tabs" style="stroke: #111111; stroke-width: 1.5;" width="127" x="32.5" y="302"/><ellipse cx="48.5" cy="326.1328" fill="#ADD1B2" rx="12" ry="12" style="stroke: #111111; stroke-width: 1.0;"/><path d="M51.4375,332.1641 Q50.75,332.5234 50.0313,332.6953 Q49.3281,332.8828 48.5313,332.8828 Q46.0156,332.8828 44.6094,331.1016 Q43.2188,329.3203 43.2188,326.0859 Q43.2188,322.8672 44.625,321.0703 Q46.0313,319.2734 48.5313,319.2734 Q49.3281,319.2734 50.0313,319.4609 Q50.75,319.6328 51.4375,319.9922 L51.4375,321.8203 Q50.7813,321.2734 50.0313,320.9922 Q49.2813,320.7109 48.5313,320.7109 Q46.7969,320.7109 45.9375,322.0547 Q45.0781,323.3828 45.0781,326.0859 Q45.0781,328.7734 45.9375,330.1172 Q46.7969,331.4453 48.5313,331.4453 Q49.2969,331.4453 50.0469,331.1641 Q50.7969,330.8828 51.4375,330.3516 L51.4375,332.1641 Z "/><text fill="#EEEEEE" font-family="sans-serif" font-size="12" font-style="italic" lengthAdjust="spacingAndGlyphs" textLength="93" x="63.5" y="320.1387">«private class»</text><text fill="#EEEEEE" font-family="sans-serif" font-size="14" lengthAdjust="spacingAndGlyphs" textLength="88" x="66" y="339.9639">Button_Tabs</text><line style="stroke: #111111; stroke-width: 1.5;" x1="33.5" x2="158.5" y1="350.2656" y2="350.2656"/><line style="stroke: #111111; stroke-width: 1.5;" x1="33.5" x2="158.5" y1="358.2656" y2="358.2656"/><!--MD5=[15828ffcf0a785d81f24dcc1353148e1]
class TWRP\\Tabs_Creator\\Tabs_Styles\\Simple_Tabs--><rect codeLine="52" fill="url(#g1einjhdrk6wr41)" height="64.2656" id="TWRP\\Tabs_Creator\\Tabs_Styles\\Simple_Tabs" style="stroke: #111111; stroke-width: 1.5;" width="127" x="194.5" y="302"/><ellipse cx="210.5" cy="326.1328" fill="#ADD1B2" rx="12" ry="12" style="stroke: #111111; stroke-width: 1.0;"/><path d="M213.4375,332.1641 Q212.75,332.5234 212.0313,332.6953 Q211.3281,332.8828 210.5313,332.8828 Q208.0156,332.8828 206.6094,331.1016 Q205.2188,329.3203 205.2188,326.0859 Q205.2188,322.8672 206.625,321.0703 Q208.0313,319.2734 210.5313,319.2734 Q211.3281,319.2734 212.0313,319.4609 Q212.75,319.6328 213.4375,319.9922 L213.4375,321.8203 Q212.7813,321.2734 212.0313,320.9922 Q211.2813,320.7109 210.5313,320.7109 Q208.7969,320.7109 207.9375,322.0547 Q207.0781,323.3828 207.0781,326.0859 Q207.0781,328.7734 207.9375,330.1172 Q208.7969,331.4453 210.5313,331.4453 Q211.2969,331.4453 212.0469,331.1641 Q212.7969,330.8828 213.4375,330.3516 L213.4375,332.1641 Z "/><text fill="#EEEEEE" font-family="sans-serif" font-size="12" font-style="italic" lengthAdjust="spacingAndGlyphs" textLength="93" x="225.5" y="320.1387">«private class»</text><text fill="#EEEEEE" font-family="sans-serif" font-size="14" lengthAdjust="spacingAndGlyphs" textLength="87" x="228.5" y="339.9639">Simple_Tabs</text><line style="stroke: #111111; stroke-width: 1.5;" x1="195.5" x2="320.5" y1="350.2656" y2="350.2656"/><line style="stroke: #111111; stroke-width: 1.5;" x1="195.5" x2="320.5" y1="358.2656" y2="358.2656"/><!--MD5=[1c59f6a31e3733fbcae8ce541f57932e]
reverse link TWRP\\Tabs_Creator\\Tabs_Styles\\Tab_Style to TWRP\\Tabs_Creator\\Tabs_Styles\\Button_Tabs--><path d="M142.089,259.461 C133.1425,273.93 123.8251,288.9989 115.9283,301.7703 " fill="none" id="TWRP\\Tabs_Creator\\Tabs_Styles\\Tab_Style-backto-TWRP\\Tabs_Creator\\Tabs_Styles\\Button_Tabs" style="stroke: #FFFF00; stroke-width: 1.0; stroke-dasharray: 7.0,7.0;"/><polygon fill="none" points="136.2253,255.6338,152.6973,242.3043,148.1329,262.9965,136.2253,255.6338" style="stroke: #FFFF00; stroke-width: 1.0;"/><!--MD5=[18865dce0da5a8184a7647e359cdc528]
reverse link TWRP\\Tabs_Creator\\Tabs_Styles\\Tab_Style to TWRP\\Tabs_Creator\\Tabs_Styles\\Simple_Tabs--><path d="M211.911,259.461 C220.8575,273.93 230.1749,288.9989 238.0717,301.7703 " fill="none" id="TWRP\\Tabs_Creator\\Tabs_Styles\\Tab_Style-backto-TWRP\\Tabs_Creator\\Tabs_Styles\\Simple_Tabs" style="stroke: #FFFF00; stroke-width: 1.0; stroke-dasharray: 7.0,7.0;"/><polygon fill="none" points="205.8671,262.9965,201.3027,242.3043,217.7747,255.6338,205.8671,262.9965" style="stroke: #FFFF00; stroke-width: 1.0;"/><!--MD5=[db98fc0791c1bafba1559f6854a1e48b]
link TWRP\\Tabs_Creator\\Tabs_Creator to TWRP\\Tabs_Creator\\Tabs_Styles\\Tab_Style--><path codeLine="55" d="M177,104.2782 C177,120.6766 177,140.6013 177,158.2448 " fill="none" id="TWRP\\Tabs_Creator\\Tabs_Creator-to-TWRP\\Tabs_Creator\\Tabs_Styles\\Tab_Style" style="stroke: #FFFF00; stroke-width: 1.0;"/><polygon fill="#FFFF00" points="177,163.6408,181,154.6408,177,158.6408,173,154.6408,177,163.6408" style="stroke: #FFFF00; stroke-width: 1.0;"/><!--MD5=[44e1aa3d542546248f9f2eadc76c0d39]
@startuml
set namespaceSeparator \\

    skinparam {
        padding 2
        backgroundColor #222
        shadowing false

        classFontColor #eee
        classStereotypeFontColor #eee
        classBorderColor #111
        classFontSize 14
        ClassAttributeFontColor #eee
        ClassAttributeFontSize 13
        ClassAttributeIconSize 15

        PackageBackgroundColor #2c2c2c
        PackageBorderColor #111
        PackageFontColor #eee

        ArrowColor yellow
    }

    skinparam circled {
        CharacterFontColor black
        CharacterFontSize 18
        CharacterFontStyle plain
        CharacterRadius 12
    }


    skinparam <<public class>> {
        classBackgroundColor #004b00/#003b00
        classFontSize 16
    }

    skinparam <<private class>> {
        classBackgroundColor #5d0000/#4d0000
    }

    skinparam <<protected class>> {
        classBackgroundColor #d16300/#c15300
    }


namespace TWRP\\Tabs_Creator {
	class Tabs_Creator <<public class>> {}

	namespace TWRP\\Tabs_Creator\\Tabs_Styles {
		abstract Tab_Style <<private class>> <<abstract>> {}

		class Button_Tabs <<private class>> implements Tab_Style {}
		class Simple_Tabs <<private class>> implements Tab_Style {}
	}

	Tabs_Creator - -> TWRP\\Tabs_Creator\\Tabs_Styles\\Tab_Style
}
@enduml

PlantUML version 1.2020.19(Mon Oct 12 15:10:01 UTC 2020)
(GPL source distribution)
Java Runtime: OpenJDK Runtime Environment
JVM: OpenJDK 64-Bit Server VM
Default Encoding: UTF-8
Language: en
Country: null
--></g></svg>