<?xml version="1.0" encoding="UTF-8" standalone="no"?><svg xmlns="http://www.w3.org/2000/svg" xmlns:xlink="http://www.w3.org/1999/xlink" contentScriptType="application/ecmascript" contentStyleType="text/css" height="389px" preserveAspectRatio="none" style="width:347px;height:389px;background:#222222;" version="1.1" viewBox="0 0 347 389" width="347px" zoomAndPan="magnify"><defs><linearGradient id="g5vqpboa3tp4h0" x1="0%" x2="100%" y1="0%" y2="100%"><stop offset="0%" stop-color="#004B00"/><stop offset="100%" stop-color="#003B00"/></linearGradient><linearGradient id="g5vqpboa3tp4h1" x1="0%" x2="100%" y1="0%" y2="100%"><stop offset="0%" stop-color="#5D0000"/><stop offset="100%" stop-color="#4D0000"/></linearGradient></defs><g><!--MD5=[68d01054bf49bbcb3d86b897ee38cd88]
cluster TWRP\\Tabs_Creator--><polygon fill="#2C2C2C" points="16,6,181,6,188,32.2969,330,32.2969,330,382,16,382,16,6" style="stroke: #111111; stroke-width: 1.5;"/><line style="stroke: #111111; stroke-width: 1.5;" x1="16" x2="188" y1="32.2969" y2="32.2969"/><text fill="#EEEEEE" font-family="sans-serif" font-size="14" font-weight="bold" lengthAdjust="spacingAndGlyphs" textLength="155" x="22" y="22.9951">TWRP\Tabs_Creator</text><!--MD5=[05134a96b0599e1d21c4a8be69aab532]
cluster TWRP\\Tabs_Creator\\Tabs_Styles--><polygon fill="#2C2C2C" points="24,133,127,133,134,159.2969,322,159.2969,322,374,24,374,24,133" style="stroke: #111111; stroke-width: 1.5;"/><line style="stroke: #111111; stroke-width: 1.5;" x1="24" x2="134" y1="159.2969" y2="159.2969"/><text fill="#EEEEEE" font-family="sans-serif" font-size="14" font-weight="bold" lengthAdjust="spacingAndGlyphs" textLength="93" x="30" y="149.9951">Tabs_Styles</text><!--MD5=[5498fdc113b7c1f4140678c95937c907]
class TWRP\\Tabs_Creator\\Tabs_Creator--><rect codeLine="39" fill="url(#g5vqpboa3tp4h0)" height="66.5938" id="TWRP\\Tabs_Creator\\Tabs_Creator" style="stroke: #111111; stroke-width: 1.5;" width="138" x="104" y="37"/><ellipse cx="118" cy="62.2969" fill="#ADD1B2" rx="10" ry="10" style="stroke: #111111; stroke-width: 1.0;"/><path d="M120.3906,67.875 Q119.7813,68.2031 119.1406,68.3594 Q118.5156,68.5313 117.8125,68.5313 Q115.5625,68.5313 114.3281,66.9375 Q113.0938,65.3438 113.0938,62.4688 Q113.0938,59.6094 114.3281,58.0156 Q115.5781,56.4219 117.8125,56.4219 Q118.5156,56.4219 119.1406,56.5781 Q119.7813,56.7344 120.3906,57.0625 L120.3906,58.6719 Q119.8125,58.2031 119.1406,57.9531 Q118.4844,57.7031 117.8125,57.7031 Q116.2656,57.7031 115.5,58.8906 Q114.7344,60.0781 114.7344,62.4688 Q114.7344,64.8594 115.5,66.0469 Q116.2656,67.2344 117.8125,67.2344 Q118.5,67.2344 119.1563,66.9844 Q119.8125,66.7344 120.3906,66.2656 L120.3906,67.875 Z "/><text fill="#EEEEEE" font-family="sans-serif" font-size="12" font-style="italic" lengthAdjust="spacingAndGlyphs" textLength="87" x="141.5" y="55.1387">«public class»</text><text fill="#EEEEEE" font-family="sans-serif" font-size="16" lengthAdjust="spacingAndGlyphs" textLength="104" x="133" y="76.8203">Tabs_Creator</text><line style="stroke: #111111; stroke-width: 1.5;" x1="105" x2="241" y1="87.5938" y2="87.5938"/><line style="stroke: #111111; stroke-width: 1.5;" x1="105" x2="241" y1="95.5938" y2="95.5938"/><!--MD5=[e9ee49ac303b6506eadcf7fa6cbe2136]
class TWRP\\Tabs_Creator\\Tabs_Styles\\Tab_Style--><rect codeLine="42" fill="url(#g5vqpboa3tp4h1)" height="78.2344" id="TWRP\\Tabs_Creator\\Tabs_Styles\\Tab_Style" style="stroke: #111111; stroke-width: 1.5;" width="123" x="111.5" y="164"/><ellipse cx="125.5" cy="195.1172" fill="#A9DCDF" rx="10" ry="10" style="stroke: #111111; stroke-width: 1.0;"/><path d="M125.3125,190.3359 L123.6563,196.3047 L126.9844,196.3047 L125.3125,190.3359 Z M124.3594,188.9453 L126.2813,188.9453 L129.8438,200.6172 L128.2188,200.6172 L127.3594,197.5703 L123.2656,197.5703 L122.4219,200.6172 L120.7969,200.6172 L124.3594,188.9453 Z "/><text fill="#EEEEEE" font-family="sans-serif" font-size="12" font-style="italic" lengthAdjust="spacingAndGlyphs" textLength="93" x="138.5" y="182.1387">«private class»</text><text fill="#EEEEEE" font-family="sans-serif" font-size="12" font-style="italic" lengthAdjust="spacingAndGlyphs" textLength="67" x="151.5" y="196.1074">«abstract»</text><text fill="#EEEEEE" font-family="sans-serif" font-size="14" font-style="italic" lengthAdjust="spacingAndGlyphs" textLength="66" x="152" y="215.9326">Tab_Style</text><line style="stroke: #111111; stroke-width: 1.5;" x1="112.5" x2="233.5" y1="226.2344" y2="226.2344"/><line style="stroke: #111111; stroke-width: 1.5;" x1="112.5" x2="233.5" y1="234.2344" y2="234.2344"/><!--MD5=[c6cf8b30074a225e677b1d2098af751a]
class TWRP\\Tabs_Creator\\Tabs_Styles\\Button_Tabs--><rect codeLine="44" fill="url(#g5vqpboa3tp4h1)" height="64.2656" id="TWRP\\Tabs_Creator\\Tabs_Styles\\Button_Tabs" style="stroke: #111111; stroke-width: 1.5;" width="123" x="32.5" y="302"/><ellipse cx="46.5" cy="326.1328" fill="#ADD1B2" rx="10" ry="10" style="stroke: #111111; stroke-width: 1.0;"/><path d="M48.8906,331.7109 Q48.2813,332.0391 47.6406,332.1953 Q47.0156,332.3672 46.3125,332.3672 Q44.0625,332.3672 42.8281,330.7734 Q41.5938,329.1797 41.5938,326.3047 Q41.5938,323.4453 42.8281,321.8516 Q44.0781,320.2578 46.3125,320.2578 Q47.0156,320.2578 47.6406,320.4141 Q48.2813,320.5703 48.8906,320.8984 L48.8906,322.5078 Q48.3125,322.0391 47.6406,321.7891 Q46.9844,321.5391 46.3125,321.5391 Q44.7656,321.5391 44,322.7266 Q43.2344,323.9141 43.2344,326.3047 Q43.2344,328.6953 44,329.8828 Q44.7656,331.0703 46.3125,331.0703 Q47,331.0703 47.6563,330.8203 Q48.3125,330.5703 48.8906,330.1016 L48.8906,331.7109 Z "/><text fill="#EEEEEE" font-family="sans-serif" font-size="12" font-style="italic" lengthAdjust="spacingAndGlyphs" textLength="93" x="59.5" y="320.1387">«private class»</text><text fill="#EEEEEE" font-family="sans-serif" font-size="14" lengthAdjust="spacingAndGlyphs" textLength="88" x="62" y="339.9639">Button_Tabs</text><line style="stroke: #111111; stroke-width: 1.5;" x1="33.5" x2="154.5" y1="350.2656" y2="350.2656"/><line style="stroke: #111111; stroke-width: 1.5;" x1="33.5" x2="154.5" y1="358.2656" y2="358.2656"/><!--MD5=[15828ffcf0a785d81f24dcc1353148e1]
class TWRP\\Tabs_Creator\\Tabs_Styles\\Simple_Tabs--><rect codeLine="45" fill="url(#g5vqpboa3tp4h1)" height="64.2656" id="TWRP\\Tabs_Creator\\Tabs_Styles\\Simple_Tabs" style="stroke: #111111; stroke-width: 1.5;" width="123" x="190.5" y="302"/><ellipse cx="204.5" cy="326.1328" fill="#ADD1B2" rx="10" ry="10" style="stroke: #111111; stroke-width: 1.0;"/><path d="M206.8906,331.7109 Q206.2813,332.0391 205.6406,332.1953 Q205.0156,332.3672 204.3125,332.3672 Q202.0625,332.3672 200.8281,330.7734 Q199.5938,329.1797 199.5938,326.3047 Q199.5938,323.4453 200.8281,321.8516 Q202.0781,320.2578 204.3125,320.2578 Q205.0156,320.2578 205.6406,320.4141 Q206.2813,320.5703 206.8906,320.8984 L206.8906,322.5078 Q206.3125,322.0391 205.6406,321.7891 Q204.9844,321.5391 204.3125,321.5391 Q202.7656,321.5391 202,322.7266 Q201.2344,323.9141 201.2344,326.3047 Q201.2344,328.6953 202,329.8828 Q202.7656,331.0703 204.3125,331.0703 Q205,331.0703 205.6563,330.8203 Q206.3125,330.5703 206.8906,330.1016 L206.8906,331.7109 Z "/><text fill="#EEEEEE" font-family="sans-serif" font-size="12" font-style="italic" lengthAdjust="spacingAndGlyphs" textLength="93" x="217.5" y="320.1387">«private class»</text><text fill="#EEEEEE" font-family="sans-serif" font-size="14" lengthAdjust="spacingAndGlyphs" textLength="87" x="220.5" y="339.9639">Simple_Tabs</text><line style="stroke: #111111; stroke-width: 1.5;" x1="191.5" x2="312.5" y1="350.2656" y2="350.2656"/><line style="stroke: #111111; stroke-width: 1.5;" x1="191.5" x2="312.5" y1="358.2656" y2="358.2656"/><!--MD5=[1c59f6a31e3733fbcae8ce541f57932e]
reverse link TWRP\\Tabs_Creator\\Tabs_Styles\\Tab_Style to TWRP\\Tabs_Creator\\Tabs_Styles\\Button_Tabs--><path d="M138.951,259.461 C130.2254,273.93 121.138,288.9989 113.4362,301.7703 " fill="none" id="TWRP\\Tabs_Creator\\Tabs_Styles\\Tab_Style-backto-TWRP\\Tabs_Creator\\Tabs_Styles\\Button_Tabs" style="stroke: #FFFF00; stroke-width: 1.0; stroke-dasharray: 7.0,7.0;"/><polygon fill="none" points="132.9746,255.8161,149.2974,242.3043,144.9634,263.046,132.9746,255.8161" style="stroke: #FFFF00; stroke-width: 1.0;"/><!--MD5=[18865dce0da5a8184a7647e359cdc528]
reverse link TWRP\\Tabs_Creator\\Tabs_Styles\\Tab_Style to TWRP\\Tabs_Creator\\Tabs_Styles\\Simple_Tabs--><path d="M207.049,259.461 C215.7746,273.93 224.862,288.9989 232.5638,301.7703 " fill="none" id="TWRP\\Tabs_Creator\\Tabs_Styles\\Tab_Style-backto-TWRP\\Tabs_Creator\\Tabs_Styles\\Simple_Tabs" style="stroke: #FFFF00; stroke-width: 1.0; stroke-dasharray: 7.0,7.0;"/><polygon fill="none" points="201.0366,263.046,196.7026,242.3043,213.0254,255.8161,201.0366,263.046" style="stroke: #FFFF00; stroke-width: 1.0;"/><!--MD5=[db98fc0791c1bafba1559f6854a1e48b]
link TWRP\\Tabs_Creator\\Tabs_Creator to TWRP\\Tabs_Creator\\Tabs_Styles\\Tab_Style--><path codeLine="48" d="M173,104.2782 C173,120.6766 173,140.6013 173,158.2448 " fill="none" id="TWRP\\Tabs_Creator\\Tabs_Creator-to-TWRP\\Tabs_Creator\\Tabs_Styles\\Tab_Style" style="stroke: #FFFF00; stroke-width: 1.0;"/><polygon fill="#FFFF00" points="173,163.6408,177,154.6408,173,158.6408,169,154.6408,173,163.6408" style="stroke: #FFFF00; stroke-width: 1.0;"/><!--MD5=[c20f81df8633170b384c58a4ee9324f5]
@startuml
set namespaceSeparator \\

    skinparam {
        padding 2
        backgroundColor #222
        shadowing false

        classFontColor #eee
        classStereotypeFontColor #eee
        classBorderColor #111
        classFontSize 14
        ClassAttributeFontColor #eee
        ClassAttributeFontSize 13
        ClassAttributeIconSize 15

        PackageBackgroundColor #2c2c2c
        PackageBorderColor #111
        PackageFontColor #eee

        ArrowColor yellow

        circledCharacterFontColor black
        circledCharacterFontSize 16
        circledCharacterFontStyle plain
        circledCharacterRadius 10

        <<public class>>classBackgroundColor #004b00/#003b00
        <<public class>>classFontSize 16

        <<private class>>classBackgroundColor #5d0000/#4d0000

        <<protected class>>classBackgroundColor #d16300/#c15300

        <<abstract class>>classBorderColor #755800
    }


namespace TWRP\\Tabs_Creator {
	class Tabs_Creator <<public class>> {}

	namespace TWRP\\Tabs_Creator\\Tabs_Styles {
		abstract Tab_Style <<private class>> <<abstract>> {}

		class Button_Tabs <<private class>> implements Tab_Style {}
		class Simple_Tabs <<private class>> implements Tab_Style {}
	}

	Tabs_Creator - -> TWRP\\Tabs_Creator\\Tabs_Styles\\Tab_Style
}
@enduml

PlantUML version 1.2020.19(Mon Oct 12 15:10:01 UTC 2020)
(GPL source distribution)
Java Runtime: OpenJDK Runtime Environment
JVM: OpenJDK 64-Bit Server VM
Default Encoding: UTF-8
Language: en
Country: null
--></g></svg>