<?xml version="1.0" encoding="UTF-8" standalone="no"?><svg xmlns="http://www.w3.org/2000/svg" xmlns:xlink="http://www.w3.org/1999/xlink" contentScriptType="application/ecmascript" contentStyleType="text/css" height="133px" preserveAspectRatio="none" style="width:193px;height:133px;background:#222222;" version="1.1" viewBox="0 0 193 133" width="193px" zoomAndPan="magnify"><defs><linearGradient id="grn69by1lp7740" x1="0%" x2="100%" y1="0%" y2="100%"><stop offset="0%" stop-color="#004B00"/><stop offset="100%" stop-color="#003B00"/></linearGradient></defs><g><!--MD5=[672d8e582a2b94ba125c359a6adf8752]
cluster TWRP--><rect fill="#2C2C2C" height="120" style="stroke:#111111;stroke-width:1.5;" width="180" x="7" y="7"/><text fill="#EEEEEE" font-family="sans-serif" font-size="14" font-weight="bold" lengthAdjust="spacing" textLength="45" x="74.5" y="23.9951">TWRP</text><!--MD5=[a254715cad2586f771f66a234bca545c]
class TWRP\\TWRP_Widget--><rect codeLine="40" fill="url(#grn69by1lp7740)" height="80.5625" id="TWRP\\TWRP_Widget" style="stroke:#111111;stroke-width:1.5;" width="164" x="15" y="38"/><ellipse cx="29" cy="70.2813" fill="#ADD1B2" rx="10" ry="10" style="stroke:#111111;stroke-width:1.0;"/><path d="M31.3906,75.8594 Q30.7813,76.1875 30.1406,76.3438 Q29.5156,76.5156 28.8125,76.5156 Q26.5625,76.5156 25.3281,74.9219 Q24.0938,73.3281 24.0938,70.4531 Q24.0938,67.5938 25.3281,66 Q26.5781,64.4063 28.8125,64.4063 Q29.5156,64.4063 30.1406,64.5625 Q30.7813,64.7188 31.3906,65.0469 L31.3906,66.6563 Q30.8125,66.1875 30.1406,65.9375 Q29.4844,65.6875 28.8125,65.6875 Q27.2656,65.6875 26.5,66.875 Q25.7344,68.0625 25.7344,70.4531 Q25.7344,72.8438 26.5,74.0313 Q27.2656,75.2188 28.8125,75.2188 Q29.5,75.2188 30.1563,74.9688 Q30.8125,74.7188 31.3906,74.25 L31.3906,75.8594 Z " fill="#000000"/><text fill="#EEEEEE" font-family="sans-serif" font-size="12" font-style="italic" lengthAdjust="spacing" textLength="87" x="65.5" y="56.1387">«public class»</text><text fill="#EEEEEE" font-family="sans-serif" font-size="12" font-style="italic" lengthAdjust="spacing" textLength="134" x="42" y="70.1074">«extends WP Widget»</text><text fill="#EEEEEE" font-family="sans-serif" font-size="16" lengthAdjust="spacing" textLength="110" x="54" y="91.7891">TWRP_Widget</text><line style="stroke:#111111;stroke-width:1.5;" x1="16" x2="178" y1="102.5625" y2="102.5625"/><line style="stroke:#111111;stroke-width:1.5;" x1="16" x2="178" y1="110.5625" y2="110.5625"/><!--MD5=[d6898e235e35a5f8d950849b0474d379]
@startuml
set namespaceSeparator \\

    skinparam {
        padding 2
        backgroundColor #222
        shadowing false

        classFontColor #eee
        classStereotypeFontColor #eee
        classBorderColor #111
        classFontSize 14
        ClassAttributeFontColor #eee
        ClassAttributeFontSize 13
        ClassAttributeIconSize 15

        PackageBackgroundColor #2c2c2c
        PackageBorderColor #111
        PackageFontColor #eee

        ArrowColor yellow

        circledCharacterFontColor black
        circledCharacterFontSize 16
        circledCharacterFontStyle plain
        circledCharacterRadius 10

        packageStyle rectangle

        <<public class>>classBackgroundColor #004b00/#003b00
        <<public class>>classFontSize 16

        <<private class>>classBackgroundColor #5d0000/#4d0000

        <<protected class>>classBackgroundColor #d16300/#c15300

        <<abstract class>>classBorderColor #755800
    }


class TWRP\\TWRP_Widget <<public class>> <<extends WP Widget>> {}
@enduml

PlantUML version 1.2021.00(Sun Jan 10 10:25:05 UTC 2021)
(GPL source distribution)
Java Runtime: OpenJDK Runtime Environment
JVM: OpenJDK 64-Bit Server VM
Default Encoding: UTF-8
Language: en
Country: null
--></g></svg>