<?xml version="1.0" encoding="UTF-8" standalone="no"?><svg xmlns="http://www.w3.org/2000/svg" xmlns:xlink="http://www.w3.org/1999/xlink" contentScriptType="application/ecmascript" contentStyleType="text/css" height="133px" preserveAspectRatio="none" style="width:217px;height:133px;background:#222222;" version="1.1" viewBox="0 0 217 133" width="217px" zoomAndPan="magnify"><defs><linearGradient id="gcx9rpxrz97dz0" x1="0%" x2="100%" y1="0%" y2="100%"><stop offset="0%" stop-color="#004B00"/><stop offset="100%" stop-color="#003B00"/></linearGradient></defs><g><!--MD5=[e029a7f4940a71380768eb309faced44]
cluster TWRP\\TWRP_Widget--><polygon fill="#2C2C2C" points="16,6,183,6,190,32.2969,200,32.2969,200,126,16,126,16,6" style="stroke: #111111; stroke-width: 1.5;"/><line style="stroke: #111111; stroke-width: 1.5;" x1="16" x2="190" y1="32.2969" y2="32.2969"/><text fill="#EEEEEE" font-family="sans-serif" font-size="14" font-weight="bold" lengthAdjust="spacingAndGlyphs" textLength="157" x="22" y="22.9951">TWRP\TWRP_Widget</text><!--MD5=[0b2382feb71772daef8e2b0be37c4105]
class TWRP\\TWRP_Widget\\TWRP_Widget--><rect codeLine="46" fill="url(#gcx9rpxrz97dz0)" height="80.5625" id="TWRP\\TWRP_Widget\\TWRP_Widget" style="stroke: #111111; stroke-width: 1.5;" width="168" x="24" y="37"/><ellipse cx="40" cy="69.2813" fill="#ADD1B2" rx="12" ry="12" style="stroke: #111111; stroke-width: 1.0;"/><path d="M42.9375,75.3125 Q42.25,75.6719 41.5313,75.8438 Q40.8281,76.0313 40.0313,76.0313 Q37.5156,76.0313 36.1094,74.25 Q34.7188,72.4688 34.7188,69.2344 Q34.7188,66.0156 36.125,64.2188 Q37.5313,62.4219 40.0313,62.4219 Q40.8281,62.4219 41.5313,62.6094 Q42.25,62.7813 42.9375,63.1406 L42.9375,64.9688 Q42.2813,64.4219 41.5313,64.1406 Q40.7813,63.8594 40.0313,63.8594 Q38.2969,63.8594 37.4375,65.2031 Q36.5781,66.5313 36.5781,69.2344 Q36.5781,71.9219 37.4375,73.2656 Q38.2969,74.5938 40.0313,74.5938 Q40.7969,74.5938 41.5469,74.3125 Q42.2969,74.0313 42.9375,73.5 L42.9375,75.3125 Z "/><text fill="#EEEEEE" font-family="sans-serif" font-size="12" font-style="italic" lengthAdjust="spacingAndGlyphs" textLength="87" x="78.5" y="55.1387">«public class»</text><text fill="#EEEEEE" font-family="sans-serif" font-size="12" font-style="italic" lengthAdjust="spacingAndGlyphs" textLength="134" x="55" y="69.1074">«extends WP Widget»</text><text fill="#EEEEEE" font-family="sans-serif" font-size="16" lengthAdjust="spacingAndGlyphs" textLength="110" x="67" y="90.7891">TWRP_Widget</text><line style="stroke: #111111; stroke-width: 1.5;" x1="25" x2="191" y1="101.5625" y2="101.5625"/><line style="stroke: #111111; stroke-width: 1.5;" x1="25" x2="191" y1="109.5625" y2="109.5625"/><!--MD5=[8f79172fadadad3ec523bec6a5a5df5a]
@startuml
set namespaceSeparator \\

    skinparam {
        padding 2
        backgroundColor #222
        shadowing false

        classFontColor #eee
        classStereotypeFontColor #eee
        classBorderColor #111
        classFontSize 14
        ClassAttributeFontColor #eee
        ClassAttributeFontSize 13
        ClassAttributeIconSize 15

        PackageBackgroundColor #2c2c2c
        PackageBorderColor #111
        PackageFontColor #eee

        ArrowColor yellow
    }

    skinparam circled {
        CharacterFontColor black
        CharacterFontSize 18
        CharacterFontStyle plain
        CharacterRadius 12
    }


    skinparam <<public class>> {
        classBackgroundColor #004b00/#003b00
        classFontSize 16
    }

    skinparam <<private class>> {
        classBackgroundColor #5d0000/#4d0000
    }

    skinparam <<protected class>> {
        classBackgroundColor #d16300/#c15300
    }


namespace TWRP\\TWRP_Widget {
	class TWRP_Widget <<public class>> <<extends WP Widget>> {}
}
@enduml

PlantUML version 1.2020.19(Mon Oct 12 15:10:01 UTC 2020)
(GPL source distribution)
Java Runtime: OpenJDK Runtime Environment
JVM: OpenJDK 64-Bit Server VM
Default Encoding: UTF-8
Language: en
Country: null
--></g></svg>