<?xml version="1.0" encoding="UTF-8" standalone="no"?><svg xmlns="http://www.w3.org/2000/svg" xmlns:xlink="http://www.w3.org/1999/xlink" contentScriptType="application/ecmascript" contentStyleType="text/css" height="133px" preserveAspectRatio="none" style="width:213px;height:133px;background:#222222;" version="1.1" viewBox="0 0 213 133" width="213px" zoomAndPan="magnify"><defs><linearGradient id="g15vkzbvgqphy20" x1="0%" x2="100%" y1="0%" y2="100%"><stop offset="0%" stop-color="#004B00"/><stop offset="100%" stop-color="#003B00"/></linearGradient></defs><g><!--MD5=[e029a7f4940a71380768eb309faced44]
cluster TWRP\\TWRP_Widget--><polygon fill="#2C2C2C" points="16,6,183,6,190,32.2969,196,32.2969,196,126,16,126,16,6" style="stroke: #111111; stroke-width: 1.5;"/><line style="stroke: #111111; stroke-width: 1.5;" x1="16" x2="190" y1="32.2969" y2="32.2969"/><text fill="#EEEEEE" font-family="sans-serif" font-size="14" font-weight="bold" lengthAdjust="spacingAndGlyphs" textLength="157" x="22" y="22.9951">TWRP\TWRP_Widget</text><!--MD5=[0b2382feb71772daef8e2b0be37c4105]
class TWRP\\TWRP_Widget\\TWRP_Widget--><rect codeLine="39" fill="url(#g15vkzbvgqphy20)" height="80.5625" id="TWRP\\TWRP_Widget\\TWRP_Widget" style="stroke: #111111; stroke-width: 1.5;" width="164" x="24" y="37"/><ellipse cx="38" cy="69.2813" fill="#ADD1B2" rx="10" ry="10" style="stroke: #111111; stroke-width: 1.0;"/><path d="M40.3906,74.8594 Q39.7813,75.1875 39.1406,75.3438 Q38.5156,75.5156 37.8125,75.5156 Q35.5625,75.5156 34.3281,73.9219 Q33.0938,72.3281 33.0938,69.4531 Q33.0938,66.5938 34.3281,65 Q35.5781,63.4063 37.8125,63.4063 Q38.5156,63.4063 39.1406,63.5625 Q39.7813,63.7188 40.3906,64.0469 L40.3906,65.6563 Q39.8125,65.1875 39.1406,64.9375 Q38.4844,64.6875 37.8125,64.6875 Q36.2656,64.6875 35.5,65.875 Q34.7344,67.0625 34.7344,69.4531 Q34.7344,71.8438 35.5,73.0313 Q36.2656,74.2188 37.8125,74.2188 Q38.5,74.2188 39.1563,73.9688 Q39.8125,73.7188 40.3906,73.25 L40.3906,74.8594 Z "/><text fill="#EEEEEE" font-family="sans-serif" font-size="12" font-style="italic" lengthAdjust="spacingAndGlyphs" textLength="87" x="74.5" y="55.1387">«public class»</text><text fill="#EEEEEE" font-family="sans-serif" font-size="12" font-style="italic" lengthAdjust="spacingAndGlyphs" textLength="134" x="51" y="69.1074">«extends WP Widget»</text><text fill="#EEEEEE" font-family="sans-serif" font-size="16" lengthAdjust="spacingAndGlyphs" textLength="110" x="63" y="90.7891">TWRP_Widget</text><line style="stroke: #111111; stroke-width: 1.5;" x1="25" x2="187" y1="101.5625" y2="101.5625"/><line style="stroke: #111111; stroke-width: 1.5;" x1="25" x2="187" y1="109.5625" y2="109.5625"/><!--MD5=[97ae46285684969e6b7dc9c6752d6275]
@startuml
set namespaceSeparator \\

    skinparam {
        padding 2
        backgroundColor #222
        shadowing false

        classFontColor #eee
        classStereotypeFontColor #eee
        classBorderColor #111
        classFontSize 14
        ClassAttributeFontColor #eee
        ClassAttributeFontSize 13
        ClassAttributeIconSize 15

        PackageBackgroundColor #2c2c2c
        PackageBorderColor #111
        PackageFontColor #eee

        ArrowColor yellow

        circledCharacterFontColor black
        circledCharacterFontSize 16
        circledCharacterFontStyle plain
        circledCharacterRadius 10

        <<public class>>classBackgroundColor #004b00/#003b00
        <<public class>>classFontSize 16

        <<private class>>classBackgroundColor #5d0000/#4d0000

        <<protected class>>classBackgroundColor #d16300/#c15300

        <<abstract class>>classBorderColor #755800
    }


namespace TWRP\\TWRP_Widget {
	class TWRP_Widget <<public class>> <<extends WP Widget>> {}
}
@enduml

PlantUML version 1.2020.19(Mon Oct 12 15:10:01 UTC 2020)
(GPL source distribution)
Java Runtime: OpenJDK Runtime Environment
JVM: OpenJDK 64-Bit Server VM
Default Encoding: UTF-8
Language: en
Country: null
--></g></svg>