<?xml version="1.0" encoding="UTF-8" standalone="no"?><svg xmlns="http://www.w3.org/2000/svg" xmlns:xlink="http://www.w3.org/1999/xlink" contentScriptType="application/ecmascript" contentStyleType="text/css" height="446px" preserveAspectRatio="none" style="width:1575px;height:446px;background:#222222;" version="1.1" viewBox="0 0 1575 446" width="1575px" zoomAndPan="magnify"><defs><linearGradient id="g19ft0h5d7zr4w0" x1="0%" x2="100%" y1="0%" y2="100%"><stop offset="0%" stop-color="#004B00"/><stop offset="100%" stop-color="#003B00"/></linearGradient></defs><g><!--MD5=[e382d429ac185ec2f47689011222b437]
cluster TWRP\\Utils--><polygon fill="#2C2C2C" points="16,6,110,6,117,32.2969,1174,32.2969,1174,439,16,439,16,6" style="stroke: #111111; stroke-width: 1.5;"/><line style="stroke: #111111; stroke-width: 1.5;" x1="16" x2="117" y1="32.2969" y2="32.2969"/><text fill="#EEEEEE" font-family="sans-serif" font-size="14" font-weight="bold" lengthAdjust="spacingAndGlyphs" textLength="84" x="22" y="22.9951">TWRP\Utils</text><!--MD5=[3aa6a5b0bc81a6fdac74d8174448fa02]
cluster TWRP\\Utils\\Helper_Trait--><polygon fill="#2C2C2C" points="602,37,707,37,714,63.2969,1139,63.2969,1139,298,602,298,602,37" style="stroke: #111111; stroke-width: 1.5;"/><line style="stroke: #111111; stroke-width: 1.5;" x1="602" x2="714" y1="63.2969" y2="63.2969"/><text fill="#EEEEEE" font-family="sans-serif" font-size="14" font-weight="bold" lengthAdjust="spacingAndGlyphs" textLength="95" x="608" y="53.9951">Helper_Trait</text><!--MD5=[66d9474a82314855f959381a555d14b1]
class TWRP\\Utils\\Class_Retriever_Utils--><rect codeLine="39" fill="url(#g19ft0h5d7zr4w0)" height="80.5625" id="TWRP\\Utils\\Class_Retriever_Utils" style="stroke: #111111; stroke-width: 1.5;" width="194" x="24" y="68"/><ellipse cx="38" cy="100.2813" fill="#ADD1B2" rx="10" ry="10" style="stroke: #111111; stroke-width: 1.0;"/><path d="M40.3906,105.8594 Q39.7813,106.1875 39.1406,106.3438 Q38.5156,106.5156 37.8125,106.5156 Q35.5625,106.5156 34.3281,104.9219 Q33.0938,103.3281 33.0938,100.4531 Q33.0938,97.5938 34.3281,96 Q35.5781,94.4063 37.8125,94.4063 Q38.5156,94.4063 39.1406,94.5625 Q39.7813,94.7188 40.3906,95.0469 L40.3906,96.6563 Q39.8125,96.1875 39.1406,95.9375 Q38.4844,95.6875 37.8125,95.6875 Q36.2656,95.6875 35.5,96.875 Q34.7344,98.0625 34.7344,100.4531 Q34.7344,102.8438 35.5,104.0313 Q36.2656,105.2188 37.8125,105.2188 Q38.5,105.2188 39.1563,104.9688 Q39.8125,104.7188 40.3906,104.25 L40.3906,105.8594 Z "/><text fill="#EEEEEE" font-family="sans-serif" font-size="12" font-style="italic" lengthAdjust="spacingAndGlyphs" textLength="87" x="89.5" y="86.1387">«public class»</text><text fill="#EEEEEE" font-family="sans-serif" font-size="12" font-style="italic" lengthAdjust="spacingAndGlyphs" textLength="113" x="76.5" y="100.1074">«static collection»</text><text fill="#EEEEEE" font-family="sans-serif" font-size="16" lengthAdjust="spacingAndGlyphs" textLength="160" x="53" y="121.7891">Class_Retriever_Utils</text><line style="stroke: #111111; stroke-width: 1.5;" x1="25" x2="217" y1="132.5625" y2="132.5625"/><line style="stroke: #111111; stroke-width: 1.5;" x1="25" x2="217" y1="140.5625" y2="140.5625"/><!--MD5=[243643627653d9f00fb521443e3da6fe]
class TWRP\\Utils\\Color_Utils--><rect codeLine="40" fill="url(#g19ft0h5d7zr4w0)" height="80.5625" id="TWRP\\Utils\\Color_Utils" style="stroke: #111111; stroke-width: 1.5;" width="143" x="253.5" y="68"/><ellipse cx="267.5" cy="100.2813" fill="#ADD1B2" rx="10" ry="10" style="stroke: #111111; stroke-width: 1.0;"/><path d="M269.8906,105.8594 Q269.2813,106.1875 268.6406,106.3438 Q268.0156,106.5156 267.3125,106.5156 Q265.0625,106.5156 263.8281,104.9219 Q262.5938,103.3281 262.5938,100.4531 Q262.5938,97.5938 263.8281,96 Q265.0781,94.4063 267.3125,94.4063 Q268.0156,94.4063 268.6406,94.5625 Q269.2813,94.7188 269.8906,95.0469 L269.8906,96.6563 Q269.3125,96.1875 268.6406,95.9375 Q267.9844,95.6875 267.3125,95.6875 Q265.7656,95.6875 265,96.875 Q264.2344,98.0625 264.2344,100.4531 Q264.2344,102.8438 265,104.0313 Q265.7656,105.2188 267.3125,105.2188 Q268,105.2188 268.6563,104.9688 Q269.3125,104.7188 269.8906,104.25 L269.8906,105.8594 Z "/><text fill="#EEEEEE" font-family="sans-serif" font-size="12" font-style="italic" lengthAdjust="spacingAndGlyphs" textLength="87" x="293.5" y="86.1387">«public class»</text><text fill="#EEEEEE" font-family="sans-serif" font-size="12" font-style="italic" lengthAdjust="spacingAndGlyphs" textLength="113" x="280.5" y="100.1074">«static collection»</text><text fill="#EEEEEE" font-family="sans-serif" font-size="16" lengthAdjust="spacingAndGlyphs" textLength="82" x="296" y="121.7891">Color_Utils</text><line style="stroke: #111111; stroke-width: 1.5;" x1="254.5" x2="395.5" y1="132.5625" y2="132.5625"/><line style="stroke: #111111; stroke-width: 1.5;" x1="254.5" x2="395.5" y1="140.5625" y2="140.5625"/><!--MD5=[31a7c035d40df4bd96a38a38835ef09d]
class TWRP\\Utils\\Date_Utils--><rect codeLine="41" fill="url(#g19ft0h5d7zr4w0)" height="80.5625" id="TWRP\\Utils\\Date_Utils" style="stroke: #111111; stroke-width: 1.5;" width="143" x="431.5" y="68"/><ellipse cx="445.5" cy="100.2813" fill="#ADD1B2" rx="10" ry="10" style="stroke: #111111; stroke-width: 1.0;"/><path d="M447.8906,105.8594 Q447.2813,106.1875 446.6406,106.3438 Q446.0156,106.5156 445.3125,106.5156 Q443.0625,106.5156 441.8281,104.9219 Q440.5938,103.3281 440.5938,100.4531 Q440.5938,97.5938 441.8281,96 Q443.0781,94.4063 445.3125,94.4063 Q446.0156,94.4063 446.6406,94.5625 Q447.2813,94.7188 447.8906,95.0469 L447.8906,96.6563 Q447.3125,96.1875 446.6406,95.9375 Q445.9844,95.6875 445.3125,95.6875 Q443.7656,95.6875 443,96.875 Q442.2344,98.0625 442.2344,100.4531 Q442.2344,102.8438 443,104.0313 Q443.7656,105.2188 445.3125,105.2188 Q446,105.2188 446.6563,104.9688 Q447.3125,104.7188 447.8906,104.25 L447.8906,105.8594 Z "/><text fill="#EEEEEE" font-family="sans-serif" font-size="12" font-style="italic" lengthAdjust="spacingAndGlyphs" textLength="87" x="471.5" y="86.1387">«public class»</text><text fill="#EEEEEE" font-family="sans-serif" font-size="12" font-style="italic" lengthAdjust="spacingAndGlyphs" textLength="113" x="458.5" y="100.1074">«static collection»</text><text fill="#EEEEEE" font-family="sans-serif" font-size="16" lengthAdjust="spacingAndGlyphs" textLength="77" x="476.5" y="121.7891">Date_Utils</text><line style="stroke: #111111; stroke-width: 1.5;" x1="432.5" x2="573.5" y1="132.5625" y2="132.5625"/><line style="stroke: #111111; stroke-width: 1.5;" x1="432.5" x2="573.5" y1="140.5625" y2="140.5625"/><!--MD5=[31298f49c598f0682e11c637ba1f9ee5]
class TWRP\\Utils\\Directory_Utils--><rect codeLine="42" fill="url(#g19ft0h5d7zr4w0)" height="80.5625" id="TWRP\\Utils\\Directory_Utils" style="stroke: #111111; stroke-width: 1.5;" width="147" x="47.5" y="209"/><ellipse cx="61.5" cy="241.2813" fill="#ADD1B2" rx="10" ry="10" style="stroke: #111111; stroke-width: 1.0;"/><path d="M63.8906,246.8594 Q63.2813,247.1875 62.6406,247.3438 Q62.0156,247.5156 61.3125,247.5156 Q59.0625,247.5156 57.8281,245.9219 Q56.5938,244.3281 56.5938,241.4531 Q56.5938,238.5938 57.8281,237 Q59.0781,235.4063 61.3125,235.4063 Q62.0156,235.4063 62.6406,235.5625 Q63.2813,235.7188 63.8906,236.0469 L63.8906,237.6563 Q63.3125,237.1875 62.6406,236.9375 Q61.9844,236.6875 61.3125,236.6875 Q59.7656,236.6875 59,237.875 Q58.2344,239.0625 58.2344,241.4531 Q58.2344,243.8438 59,245.0313 Q59.7656,246.2188 61.3125,246.2188 Q62,246.2188 62.6563,245.9688 Q63.3125,245.7188 63.8906,245.25 L63.8906,246.8594 Z "/><text fill="#EEEEEE" font-family="sans-serif" font-size="12" font-style="italic" lengthAdjust="spacingAndGlyphs" textLength="87" x="89.5" y="227.1387">«public class»</text><text fill="#EEEEEE" font-family="sans-serif" font-size="12" font-style="italic" lengthAdjust="spacingAndGlyphs" textLength="113" x="76.5" y="241.1074">«static collection»</text><text fill="#EEEEEE" font-family="sans-serif" font-size="16" lengthAdjust="spacingAndGlyphs" textLength="113" x="76.5" y="262.7891">Directory_Utils</text><line style="stroke: #111111; stroke-width: 1.5;" x1="48.5" x2="193.5" y1="273.5625" y2="273.5625"/><line style="stroke: #111111; stroke-width: 1.5;" x1="48.5" x2="193.5" y1="281.5625" y2="281.5625"/><!--MD5=[d249ff578723dfb1fb66a4140a852441]
class TWRP\\Utils\\Filesystem_Utils--><rect codeLine="43" fill="url(#g19ft0h5d7zr4w0)" height="80.5625" id="TWRP\\Utils\\Filesystem_Utils" style="stroke: #111111; stroke-width: 1.5;" width="156" x="230" y="209"/><ellipse cx="244" cy="241.2813" fill="#ADD1B2" rx="10" ry="10" style="stroke: #111111; stroke-width: 1.0;"/><path d="M246.3906,246.8594 Q245.7813,247.1875 245.1406,247.3438 Q244.5156,247.5156 243.8125,247.5156 Q241.5625,247.5156 240.3281,245.9219 Q239.0938,244.3281 239.0938,241.4531 Q239.0938,238.5938 240.3281,237 Q241.5781,235.4063 243.8125,235.4063 Q244.5156,235.4063 245.1406,235.5625 Q245.7813,235.7188 246.3906,236.0469 L246.3906,237.6563 Q245.8125,237.1875 245.1406,236.9375 Q244.4844,236.6875 243.8125,236.6875 Q242.2656,236.6875 241.5,237.875 Q240.7344,239.0625 240.7344,241.4531 Q240.7344,243.8438 241.5,245.0313 Q242.2656,246.2188 243.8125,246.2188 Q244.5,246.2188 245.1563,245.9688 Q245.8125,245.7188 246.3906,245.25 L246.3906,246.8594 Z "/><text fill="#EEEEEE" font-family="sans-serif" font-size="12" font-style="italic" lengthAdjust="spacingAndGlyphs" textLength="87" x="276.5" y="227.1387">«public class»</text><text fill="#EEEEEE" font-family="sans-serif" font-size="12" font-style="italic" lengthAdjust="spacingAndGlyphs" textLength="113" x="263.5" y="241.1074">«static collection»</text><text fill="#EEEEEE" font-family="sans-serif" font-size="16" lengthAdjust="spacingAndGlyphs" textLength="122" x="259" y="262.7891">Filesystem_Utils</text><line style="stroke: #111111; stroke-width: 1.5;" x1="231" x2="385" y1="273.5625" y2="273.5625"/><line style="stroke: #111111; stroke-width: 1.5;" x1="231" x2="385" y1="281.5625" y2="281.5625"/><!--MD5=[e7b81e81c11d10e18688738ef685d2d1]
class TWRP\\Utils\\Simple_Utils--><rect codeLine="44" fill="url(#g19ft0h5d7zr4w0)" height="80.5625" id="TWRP\\Utils\\Simple_Utils" style="stroke: #111111; stroke-width: 1.5;" width="143" x="421.5" y="209"/><ellipse cx="435.5" cy="241.2813" fill="#ADD1B2" rx="10" ry="10" style="stroke: #111111; stroke-width: 1.0;"/><path d="M437.8906,246.8594 Q437.2813,247.1875 436.6406,247.3438 Q436.0156,247.5156 435.3125,247.5156 Q433.0625,247.5156 431.8281,245.9219 Q430.5938,244.3281 430.5938,241.4531 Q430.5938,238.5938 431.8281,237 Q433.0781,235.4063 435.3125,235.4063 Q436.0156,235.4063 436.6406,235.5625 Q437.2813,235.7188 437.8906,236.0469 L437.8906,237.6563 Q437.3125,237.1875 436.6406,236.9375 Q435.9844,236.6875 435.3125,236.6875 Q433.7656,236.6875 433,237.875 Q432.2344,239.0625 432.2344,241.4531 Q432.2344,243.8438 433,245.0313 Q433.7656,246.2188 435.3125,246.2188 Q436,246.2188 436.6563,245.9688 Q437.3125,245.7188 437.8906,245.25 L437.8906,246.8594 Z "/><text fill="#EEEEEE" font-family="sans-serif" font-size="12" font-style="italic" lengthAdjust="spacingAndGlyphs" textLength="87" x="461.5" y="227.1387">«public class»</text><text fill="#EEEEEE" font-family="sans-serif" font-size="12" font-style="italic" lengthAdjust="spacingAndGlyphs" textLength="113" x="448.5" y="241.1074">«static collection»</text><text fill="#EEEEEE" font-family="sans-serif" font-size="16" lengthAdjust="spacingAndGlyphs" textLength="91" x="459.5" y="262.7891">Simple_Utils</text><line style="stroke: #111111; stroke-width: 1.5;" x1="422.5" x2="563.5" y1="273.5625" y2="273.5625"/><line style="stroke: #111111; stroke-width: 1.5;" x1="422.5" x2="563.5" y1="281.5625" y2="281.5625"/><!--MD5=[87e36d28a3267eec0ae766d6d2867cd3]
class TWRP\\Utils\\Widget_Utils--><rect codeLine="45" fill="url(#g19ft0h5d7zr4w0)" height="80.5625" id="TWRP\\Utils\\Widget_Utils" style="stroke: #111111; stroke-width: 1.5;" width="143" x="49.5" y="350"/><ellipse cx="63.5" cy="382.2813" fill="#ADD1B2" rx="10" ry="10" style="stroke: #111111; stroke-width: 1.0;"/><path d="M65.8906,387.8594 Q65.2813,388.1875 64.6406,388.3438 Q64.0156,388.5156 63.3125,388.5156 Q61.0625,388.5156 59.8281,386.9219 Q58.5938,385.3281 58.5938,382.4531 Q58.5938,379.5938 59.8281,378 Q61.0781,376.4063 63.3125,376.4063 Q64.0156,376.4063 64.6406,376.5625 Q65.2813,376.7188 65.8906,377.0469 L65.8906,378.6563 Q65.3125,378.1875 64.6406,377.9375 Q63.9844,377.6875 63.3125,377.6875 Q61.7656,377.6875 61,378.875 Q60.2344,380.0625 60.2344,382.4531 Q60.2344,384.8438 61,386.0313 Q61.7656,387.2188 63.3125,387.2188 Q64,387.2188 64.6563,386.9688 Q65.3125,386.7188 65.8906,386.25 L65.8906,387.8594 Z "/><text fill="#EEEEEE" font-family="sans-serif" font-size="12" font-style="italic" lengthAdjust="spacingAndGlyphs" textLength="87" x="89.5" y="368.1387">«public class»</text><text fill="#EEEEEE" font-family="sans-serif" font-size="12" font-style="italic" lengthAdjust="spacingAndGlyphs" textLength="113" x="76.5" y="382.1074">«static collection»</text><text fill="#EEEEEE" font-family="sans-serif" font-size="16" lengthAdjust="spacingAndGlyphs" textLength="96" x="85" y="403.7891">Widget_Utils</text><line style="stroke: #111111; stroke-width: 1.5;" x1="50.5" x2="191.5" y1="414.5625" y2="414.5625"/><line style="stroke: #111111; stroke-width: 1.5;" x1="50.5" x2="191.5" y1="422.5625" y2="422.5625"/><!--MD5=[4194741537ad4fc42df8684e19fa30c1]
class TWRP\\Utils\\Helper_Trait\\After_Setup_Theme_Init_Trait--><rect codeLine="48" fill="url(#g19ft0h5d7zr4w0)" height="80.5625" id="TWRP\\Utils\\Helper_Trait\\After_Setup_Theme_Init_Trait" style="stroke: #111111; stroke-width: 1.5;" width="260" x="610" y="68"/><ellipse cx="624" cy="100.2813" fill="#A9DCDF" rx="10" ry="10" style="stroke: #111111; stroke-width: 1.0;"/><path d="M623.8125,95.5 L622.1563,101.4688 L625.4844,101.4688 L623.8125,95.5 Z M622.8594,94.1094 L624.7813,94.1094 L628.3438,105.7813 L626.7188,105.7813 L625.8594,102.7344 L621.7656,102.7344 L620.9219,105.7813 L619.2969,105.7813 L622.8594,94.1094 Z "/><text fill="#EEEEEE" font-family="sans-serif" font-size="12" font-style="italic" lengthAdjust="spacingAndGlyphs" textLength="87" x="708.5" y="86.1387">«public class»</text><text fill="#EEEEEE" font-family="sans-serif" font-size="12" font-style="italic" lengthAdjust="spacingAndGlyphs" textLength="67" x="718.5" y="100.1074">«abstract»</text><text fill="#EEEEEE" font-family="sans-serif" font-size="16" font-style="italic" lengthAdjust="spacingAndGlyphs" textLength="226" x="639" y="121.7891">After_Setup_Theme_Init_Trait</text><line style="stroke: #111111; stroke-width: 1.5;" x1="611" x2="869" y1="132.5625" y2="132.5625"/><line style="stroke: #111111; stroke-width: 1.5;" x1="611" x2="869" y1="140.5625" y2="140.5625"/><!--MD5=[758c6ef18952c0eef767cebff7332821]
class TWRP\\Utils\\Helper_Trait\\BEM_Class_Naming_Trait--><rect codeLine="49" fill="url(#g19ft0h5d7zr4w0)" height="80.5625" id="TWRP\\Utils\\Helper_Trait\\BEM_Class_Naming_Trait" style="stroke: #111111; stroke-width: 1.5;" width="226" x="905" y="68"/><ellipse cx="919" cy="100.2813" fill="#A9DCDF" rx="10" ry="10" style="stroke: #111111; stroke-width: 1.0;"/><path d="M918.8125,95.5 L917.1563,101.4688 L920.4844,101.4688 L918.8125,95.5 Z M917.8594,94.1094 L919.7813,94.1094 L923.3438,105.7813 L921.7188,105.7813 L920.8594,102.7344 L916.7656,102.7344 L915.9219,105.7813 L914.2969,105.7813 L917.8594,94.1094 Z "/><text fill="#EEEEEE" font-family="sans-serif" font-size="12" font-style="italic" lengthAdjust="spacingAndGlyphs" textLength="87" x="986.5" y="86.1387">«public class»</text><text fill="#EEEEEE" font-family="sans-serif" font-size="12" font-style="italic" lengthAdjust="spacingAndGlyphs" textLength="67" x="996.5" y="100.1074">«abstract»</text><text fill="#EEEEEE" font-family="sans-serif" font-size="16" font-style="italic" lengthAdjust="spacingAndGlyphs" textLength="192" x="934" y="121.7891">BEM_Class_Naming_Trait</text><line style="stroke: #111111; stroke-width: 1.5;" x1="906" x2="1130" y1="132.5625" y2="132.5625"/><line style="stroke: #111111; stroke-width: 1.5;" x1="906" x2="1130" y1="140.5625" y2="140.5625"/><!--MD5=[539a997e5898fa303743fd652c46bbd9]
class TWRP\\Utils\\Helper_Trait\\Class_Children_Order_Trait--><rect codeLine="50" fill="url(#g19ft0h5d7zr4w0)" height="80.5625" id="TWRP\\Utils\\Helper_Trait\\Class_Children_Order_Trait" style="stroke: #111111; stroke-width: 1.5;" width="242" x="619" y="209"/><ellipse cx="633" cy="241.2813" fill="#A9DCDF" rx="10" ry="10" style="stroke: #111111; stroke-width: 1.0;"/><path d="M632.8125,236.5 L631.1563,242.4688 L634.4844,242.4688 L632.8125,236.5 Z M631.8594,235.1094 L633.7813,235.1094 L637.3438,246.7813 L635.7188,246.7813 L634.8594,243.7344 L630.7656,243.7344 L629.9219,246.7813 L628.2969,246.7813 L631.8594,235.1094 Z "/><text fill="#EEEEEE" font-family="sans-serif" font-size="12" font-style="italic" lengthAdjust="spacingAndGlyphs" textLength="87" x="708.5" y="227.1387">«public class»</text><text fill="#EEEEEE" font-family="sans-serif" font-size="12" font-style="italic" lengthAdjust="spacingAndGlyphs" textLength="67" x="718.5" y="241.1074">«abstract»</text><text fill="#EEEEEE" font-family="sans-serif" font-size="16" font-style="italic" lengthAdjust="spacingAndGlyphs" textLength="208" x="648" y="262.7891">Class_Children_Order_Trait</text><line style="stroke: #111111; stroke-width: 1.5;" x1="620" x2="860" y1="273.5625" y2="273.5625"/><line style="stroke: #111111; stroke-width: 1.5;" x1="620" x2="860" y1="281.5625" y2="281.5625"/><path d="M1182,235 L1182,264.1328 L1568,264.1328 L1568,245 L1558,235 L1182,235 " fill="#FBFB77" style="stroke: #A80036; stroke-width: 1.0;"/><path d="M1558,235 L1558,245 L1568,245 L1558,235 " fill="#FBFB77" style="stroke: #A80036; stroke-width: 1.0;"/><text fill="#000000" font-family="sans-serif" font-size="13" lengthAdjust="spacingAndGlyphs" textLength="361" x="1190" y="254.0669">All other packages can reference these utils at any time.</text><!--MD5=[133466724e00e8e897948d3ebd841424]
reverse link TWRP\\Utils to NoteUtils--><path codeLine="55" d="M1174.079,113.9504 C1174.2098,114.0387 1174.342,114.1279 1174.4757,114.2181 C1174.743,114.3984 1175.016,114.5826 1175.2947,114.7706 C1179.753,117.7784 1185.6479,121.7553 1192.6092,126.4517 C1206.5319,135.8445 1224.7204,148.1152 1244.214,161.2664 C1283.2013,187.5688 1327.409,217.3931 1353.1512,234.7599 " fill="none" id="TWRP\\Utils-backto-NoteUtils" style="stroke: #FFFF00; stroke-width: 1.0; stroke-dasharray: 7.0,7.0;"/><polygon fill="#FFFF00" points="1174.079,113.9504,1179.3028,122.2998,1178.2239,116.7468,1183.7769,115.6679,1174.079,113.9504" style="stroke: #FFFF00; stroke-width: 1.0;"/><!--MD5=[866706a4a2c60b5cf1b4edef39abc0c2]
link TWRP\\Utils\\Class_Retriever_Utils to TWRP\\Utils\\Color_Utils--><!--MD5=[1206e0b0b56b5824f9ba41c208727485]
link TWRP\\Utils\\Color_Utils to TWRP\\Utils\\Date_Utils--><!--MD5=[5be85f7ad250361c79c58ef298875bcb]
link TWRP\\Utils\\Class_Retriever_Utils to TWRP\\Utils\\Directory_Utils--><!--MD5=[ba4d78a70ad2be2ca176b135b10443d6]
link TWRP\\Utils\\Directory_Utils to TWRP\\Utils\\Filesystem_Utils--><!--MD5=[ff850c9784bd3dbfa91fa640dd7385f5]
link TWRP\\Utils\\Filesystem_Utils to TWRP\\Utils\\Simple_Utils--><!--MD5=[f0c3176f9f19751e97f08987ba06c114]
link TWRP\\Utils\\Directory_Utils to TWRP\\Utils\\Widget_Utils--><!--MD5=[5dd7f10f57910197ce97bd5e4ea5a4a2]
link TWRP\\Utils\\Helper_Trait\\After_Setup_Theme_Init_Trait to TWRP\\Utils\\Helper_Trait\\BEM_Class_Naming_Trait--><!--MD5=[99027af30f5bdf8f9c0fa49c0ef26520]
link TWRP\\Utils\\Helper_Trait\\After_Setup_Theme_Init_Trait to TWRP\\Utils\\Helper_Trait\\Class_Children_Order_Trait--><!--MD5=[e27005942dea08175fc185a90a240e04]
@startuml
set namespaceSeparator \\

    skinparam {
        padding 2
        backgroundColor #222
        shadowing false

        classFontColor #eee
        classStereotypeFontColor #eee
        classBorderColor #111
        classFontSize 14
        ClassAttributeFontColor #eee
        ClassAttributeFontSize 13
        ClassAttributeIconSize 15

        PackageBackgroundColor #2c2c2c
        PackageBorderColor #111
        PackageFontColor #eee

        ArrowColor yellow

        circledCharacterFontColor black
        circledCharacterFontSize 16
        circledCharacterFontStyle plain
        circledCharacterRadius 10

        <<public class>>classBackgroundColor #004b00/#003b00
        <<public class>>classFontSize 16

        <<private class>>classBackgroundColor #5d0000/#4d0000

        <<protected class>>classBackgroundColor #d16300/#c15300

        <<abstract class>>classBorderColor #755800
    }


namespace TWRP\\Utils {
	class Class_Retriever_Utils <<public class>> <<static collection>> {}
	class Color_Utils <<public class>> <<static collection>> {}
	class Date_Utils <<public class>> <<static collection>> {}
	class Directory_Utils <<public class>> <<static collection>> {}
	class Filesystem_Utils <<public class>> <<static collection>> {}
	class Simple_Utils <<public class>> <<static collection>> {}
	class Widget_Utils <<public class>> <<static collection>> {}

	namespace Helper_Trait {
		abstract After_Setup_Theme_Init_Trait <<public class>> <<abstract>> {}
		abstract BEM_Class_Naming_Trait <<public class>> <<abstract>> {}
		abstract Class_Children_Order_Trait <<public class>> <<abstract>> {}
	}
}

note "All other packages can reference these utils at any time." as NoteUtils
TWRP\\Utils <.up. NoteUtils
@enduml

PlantUML version 1.2020.19(Mon Oct 12 15:10:01 UTC 2020)
(GPL source distribution)
Java Runtime: OpenJDK Runtime Environment
JVM: OpenJDK 64-Bit Server VM
Default Encoding: UTF-8
Language: en
Country: null
--></g></svg>