<?xml version="1.0" encoding="UTF-8" standalone="no"?><svg xmlns="http://www.w3.org/2000/svg" xmlns:xlink="http://www.w3.org/1999/xlink" contentScriptType="application/ecmascript" contentStyleType="text/css" height="446px" preserveAspectRatio="none" style="width:1809px;height:446px;background:#222222;" version="1.1" viewBox="0 0 1809 446" width="1809px" zoomAndPan="magnify"><defs><linearGradient id="g7jaumj586xsc0" x1="0%" x2="100%" y1="0%" y2="100%"><stop offset="0%" stop-color="#004B00"/><stop offset="100%" stop-color="#003B00"/></linearGradient></defs><g><!--MD5=[e382d429ac185ec2f47689011222b437]
cluster TWRP\\Utils--><rect fill="#2C2C2C" height="433" style="stroke:#111111;stroke-width:1.5;" width="1401" x="7" y="7"/><text fill="#EEEEEE" font-family="sans-serif" font-size="14" font-weight="bold" lengthAdjust="spacing" textLength="84" x="665.5" y="23.9951">TWRP\Utils</text><!--MD5=[3aa6a5b0bc81a6fdac74d8174448fa02]
cluster TWRP\\Utils\\Helper_Trait--><rect fill="#2C2C2C" height="120" style="stroke:#111111;stroke-width:1.5;" width="537" x="863" y="38"/><text fill="#EEEEEE" font-family="sans-serif" font-size="14" font-weight="bold" lengthAdjust="spacing" textLength="95" x="1084" y="54.9951">Helper_Trait</text><!--MD5=[a38d6b31298b3a26a68db5113d25c67f]
cluster TWRP\\Utils\\Helper_Interfaces--><rect fill="#2C2C2C" height="120" style="stroke:#111111;stroke-width:1.5;" width="216" x="628" y="38"/><text fill="#EEEEEE" font-family="sans-serif" font-size="14" font-weight="bold" lengthAdjust="spacing" textLength="139" x="666.5" y="54.9951">Helper_Interfaces</text><!--MD5=[66d9474a82314855f959381a555d14b1]
class TWRP\\Utils\\Class_Retriever_Utils--><rect codeLine="41" fill="url(#g7jaumj586xsc0)" height="80.5625" id="TWRP\\Utils\\Class_Retriever_Utils" style="stroke:#111111;stroke-width:1.5;" width="194" x="15" y="69"/><ellipse cx="29" cy="101.2813" fill="#ADD1B2" rx="10" ry="10" style="stroke:#111111;stroke-width:1.0;"/><path d="M31.3906,106.8594 Q30.7813,107.1875 30.1406,107.3438 Q29.5156,107.5156 28.8125,107.5156 Q26.5625,107.5156 25.3281,105.9219 Q24.0938,104.3281 24.0938,101.4531 Q24.0938,98.5938 25.3281,97 Q26.5781,95.4063 28.8125,95.4063 Q29.5156,95.4063 30.1406,95.5625 Q30.7813,95.7188 31.3906,96.0469 L31.3906,97.6563 Q30.8125,97.1875 30.1406,96.9375 Q29.4844,96.6875 28.8125,96.6875 Q27.2656,96.6875 26.5,97.875 Q25.7344,99.0625 25.7344,101.4531 Q25.7344,103.8438 26.5,105.0313 Q27.2656,106.2188 28.8125,106.2188 Q29.5,106.2188 30.1563,105.9688 Q30.8125,105.7188 31.3906,105.25 L31.3906,106.8594 Z " fill="#000000"/><text fill="#EEEEEE" font-family="sans-serif" font-size="12" font-style="italic" lengthAdjust="spacing" textLength="87" x="80.5" y="87.1387">«public class»</text><text fill="#EEEEEE" font-family="sans-serif" font-size="12" font-style="italic" lengthAdjust="spacing" textLength="113" x="67.5" y="101.1074">«static collection»</text><text fill="#EEEEEE" font-family="sans-serif" font-size="16" lengthAdjust="spacing" textLength="160" x="44" y="122.7891">Class_Retriever_Utils</text><line style="stroke:#111111;stroke-width:1.5;" x1="16" x2="208" y1="133.5625" y2="133.5625"/><line style="stroke:#111111;stroke-width:1.5;" x1="16" x2="208" y1="141.5625" y2="141.5625"/><!--MD5=[243643627653d9f00fb521443e3da6fe]
class TWRP\\Utils\\Color_Utils--><rect codeLine="42" fill="url(#g7jaumj586xsc0)" height="80.5625" id="TWRP\\Utils\\Color_Utils" style="stroke:#111111;stroke-width:1.5;" width="143" x="279.5" y="69"/><ellipse cx="293.5" cy="101.2813" fill="#ADD1B2" rx="10" ry="10" style="stroke:#111111;stroke-width:1.0;"/><path d="M295.8906,106.8594 Q295.2813,107.1875 294.6406,107.3438 Q294.0156,107.5156 293.3125,107.5156 Q291.0625,107.5156 289.8281,105.9219 Q288.5938,104.3281 288.5938,101.4531 Q288.5938,98.5938 289.8281,97 Q291.0781,95.4063 293.3125,95.4063 Q294.0156,95.4063 294.6406,95.5625 Q295.2813,95.7188 295.8906,96.0469 L295.8906,97.6563 Q295.3125,97.1875 294.6406,96.9375 Q293.9844,96.6875 293.3125,96.6875 Q291.7656,96.6875 291,97.875 Q290.2344,99.0625 290.2344,101.4531 Q290.2344,103.8438 291,105.0313 Q291.7656,106.2188 293.3125,106.2188 Q294,106.2188 294.6563,105.9688 Q295.3125,105.7188 295.8906,105.25 L295.8906,106.8594 Z " fill="#000000"/><text fill="#EEEEEE" font-family="sans-serif" font-size="12" font-style="italic" lengthAdjust="spacing" textLength="87" x="319.5" y="87.1387">«public class»</text><text fill="#EEEEEE" font-family="sans-serif" font-size="12" font-style="italic" lengthAdjust="spacing" textLength="113" x="306.5" y="101.1074">«static collection»</text><text fill="#EEEEEE" font-family="sans-serif" font-size="16" lengthAdjust="spacing" textLength="82" x="322" y="122.7891">Color_Utils</text><line style="stroke:#111111;stroke-width:1.5;" x1="280.5" x2="421.5" y1="133.5625" y2="133.5625"/><line style="stroke:#111111;stroke-width:1.5;" x1="280.5" x2="421.5" y1="141.5625" y2="141.5625"/><!--MD5=[31a7c035d40df4bd96a38a38835ef09d]
class TWRP\\Utils\\Date_Utils--><rect codeLine="43" fill="url(#g7jaumj586xsc0)" height="80.5625" id="TWRP\\Utils\\Date_Utils" style="stroke:#111111;stroke-width:1.5;" width="143" x="457.5" y="69"/><ellipse cx="471.5" cy="101.2813" fill="#ADD1B2" rx="10" ry="10" style="stroke:#111111;stroke-width:1.0;"/><path d="M473.8906,106.8594 Q473.2813,107.1875 472.6406,107.3438 Q472.0156,107.5156 471.3125,107.5156 Q469.0625,107.5156 467.8281,105.9219 Q466.5938,104.3281 466.5938,101.4531 Q466.5938,98.5938 467.8281,97 Q469.0781,95.4063 471.3125,95.4063 Q472.0156,95.4063 472.6406,95.5625 Q473.2813,95.7188 473.8906,96.0469 L473.8906,97.6563 Q473.3125,97.1875 472.6406,96.9375 Q471.9844,96.6875 471.3125,96.6875 Q469.7656,96.6875 469,97.875 Q468.2344,99.0625 468.2344,101.4531 Q468.2344,103.8438 469,105.0313 Q469.7656,106.2188 471.3125,106.2188 Q472,106.2188 472.6563,105.9688 Q473.3125,105.7188 473.8906,105.25 L473.8906,106.8594 Z " fill="#000000"/><text fill="#EEEEEE" font-family="sans-serif" font-size="12" font-style="italic" lengthAdjust="spacing" textLength="87" x="497.5" y="87.1387">«public class»</text><text fill="#EEEEEE" font-family="sans-serif" font-size="12" font-style="italic" lengthAdjust="spacing" textLength="113" x="484.5" y="101.1074">«static collection»</text><text fill="#EEEEEE" font-family="sans-serif" font-size="16" lengthAdjust="spacing" textLength="77" x="502.5" y="122.7891">Date_Utils</text><line style="stroke:#111111;stroke-width:1.5;" x1="458.5" x2="599.5" y1="133.5625" y2="133.5625"/><line style="stroke:#111111;stroke-width:1.5;" x1="458.5" x2="599.5" y1="141.5625" y2="141.5625"/><!--MD5=[31298f49c598f0682e11c637ba1f9ee5]
class TWRP\\Utils\\Directory_Utils--><rect codeLine="44" fill="url(#g7jaumj586xsc0)" height="80.5625" id="TWRP\\Utils\\Directory_Utils" style="stroke:#111111;stroke-width:1.5;" width="147" x="38.5" y="210"/><ellipse cx="52.5" cy="242.2813" fill="#ADD1B2" rx="10" ry="10" style="stroke:#111111;stroke-width:1.0;"/><path d="M54.8906,247.8594 Q54.2813,248.1875 53.6406,248.3438 Q53.0156,248.5156 52.3125,248.5156 Q50.0625,248.5156 48.8281,246.9219 Q47.5938,245.3281 47.5938,242.4531 Q47.5938,239.5938 48.8281,238 Q50.0781,236.4063 52.3125,236.4063 Q53.0156,236.4063 53.6406,236.5625 Q54.2813,236.7188 54.8906,237.0469 L54.8906,238.6563 Q54.3125,238.1875 53.6406,237.9375 Q52.9844,237.6875 52.3125,237.6875 Q50.7656,237.6875 50,238.875 Q49.2344,240.0625 49.2344,242.4531 Q49.2344,244.8438 50,246.0313 Q50.7656,247.2188 52.3125,247.2188 Q53,247.2188 53.6563,246.9688 Q54.3125,246.7188 54.8906,246.25 L54.8906,247.8594 Z " fill="#000000"/><text fill="#EEEEEE" font-family="sans-serif" font-size="12" font-style="italic" lengthAdjust="spacing" textLength="87" x="80.5" y="228.1387">«public class»</text><text fill="#EEEEEE" font-family="sans-serif" font-size="12" font-style="italic" lengthAdjust="spacing" textLength="113" x="67.5" y="242.1074">«static collection»</text><text fill="#EEEEEE" font-family="sans-serif" font-size="16" lengthAdjust="spacing" textLength="113" x="67.5" y="263.7891">Directory_Utils</text><line style="stroke:#111111;stroke-width:1.5;" x1="39.5" x2="184.5" y1="274.5625" y2="274.5625"/><line style="stroke:#111111;stroke-width:1.5;" x1="39.5" x2="184.5" y1="282.5625" y2="282.5625"/><!--MD5=[d249ff578723dfb1fb66a4140a852441]
class TWRP\\Utils\\Filesystem_Utils--><rect codeLine="45" fill="url(#g7jaumj586xsc0)" height="80.5625" id="TWRP\\Utils\\Filesystem_Utils" style="stroke:#111111;stroke-width:1.5;" width="156" x="221" y="210"/><ellipse cx="235" cy="242.2813" fill="#ADD1B2" rx="10" ry="10" style="stroke:#111111;stroke-width:1.0;"/><path d="M237.3906,247.8594 Q236.7813,248.1875 236.1406,248.3438 Q235.5156,248.5156 234.8125,248.5156 Q232.5625,248.5156 231.3281,246.9219 Q230.0938,245.3281 230.0938,242.4531 Q230.0938,239.5938 231.3281,238 Q232.5781,236.4063 234.8125,236.4063 Q235.5156,236.4063 236.1406,236.5625 Q236.7813,236.7188 237.3906,237.0469 L237.3906,238.6563 Q236.8125,238.1875 236.1406,237.9375 Q235.4844,237.6875 234.8125,237.6875 Q233.2656,237.6875 232.5,238.875 Q231.7344,240.0625 231.7344,242.4531 Q231.7344,244.8438 232.5,246.0313 Q233.2656,247.2188 234.8125,247.2188 Q235.5,247.2188 236.1563,246.9688 Q236.8125,246.7188 237.3906,246.25 L237.3906,247.8594 Z " fill="#000000"/><text fill="#EEEEEE" font-family="sans-serif" font-size="12" font-style="italic" lengthAdjust="spacing" textLength="87" x="267.5" y="228.1387">«public class»</text><text fill="#EEEEEE" font-family="sans-serif" font-size="12" font-style="italic" lengthAdjust="spacing" textLength="113" x="254.5" y="242.1074">«static collection»</text><text fill="#EEEEEE" font-family="sans-serif" font-size="16" lengthAdjust="spacing" textLength="122" x="250" y="263.7891">Filesystem_Utils</text><line style="stroke:#111111;stroke-width:1.5;" x1="222" x2="376" y1="274.5625" y2="274.5625"/><line style="stroke:#111111;stroke-width:1.5;" x1="222" x2="376" y1="282.5625" y2="282.5625"/><!--MD5=[e7b81e81c11d10e18688738ef685d2d1]
class TWRP\\Utils\\Simple_Utils--><rect codeLine="46" fill="url(#g7jaumj586xsc0)" height="80.5625" id="TWRP\\Utils\\Simple_Utils" style="stroke:#111111;stroke-width:1.5;" width="143" x="412.5" y="210"/><ellipse cx="426.5" cy="242.2813" fill="#ADD1B2" rx="10" ry="10" style="stroke:#111111;stroke-width:1.0;"/><path d="M428.8906,247.8594 Q428.2813,248.1875 427.6406,248.3438 Q427.0156,248.5156 426.3125,248.5156 Q424.0625,248.5156 422.8281,246.9219 Q421.5938,245.3281 421.5938,242.4531 Q421.5938,239.5938 422.8281,238 Q424.0781,236.4063 426.3125,236.4063 Q427.0156,236.4063 427.6406,236.5625 Q428.2813,236.7188 428.8906,237.0469 L428.8906,238.6563 Q428.3125,238.1875 427.6406,237.9375 Q426.9844,237.6875 426.3125,237.6875 Q424.7656,237.6875 424,238.875 Q423.2344,240.0625 423.2344,242.4531 Q423.2344,244.8438 424,246.0313 Q424.7656,247.2188 426.3125,247.2188 Q427,247.2188 427.6563,246.9688 Q428.3125,246.7188 428.8906,246.25 L428.8906,247.8594 Z " fill="#000000"/><text fill="#EEEEEE" font-family="sans-serif" font-size="12" font-style="italic" lengthAdjust="spacing" textLength="87" x="452.5" y="228.1387">«public class»</text><text fill="#EEEEEE" font-family="sans-serif" font-size="12" font-style="italic" lengthAdjust="spacing" textLength="113" x="439.5" y="242.1074">«static collection»</text><text fill="#EEEEEE" font-family="sans-serif" font-size="16" lengthAdjust="spacing" textLength="91" x="450.5" y="263.7891">Simple_Utils</text><line style="stroke:#111111;stroke-width:1.5;" x1="413.5" x2="554.5" y1="274.5625" y2="274.5625"/><line style="stroke:#111111;stroke-width:1.5;" x1="413.5" x2="554.5" y1="282.5625" y2="282.5625"/><!--MD5=[87e36d28a3267eec0ae766d6d2867cd3]
class TWRP\\Utils\\Widget_Utils--><rect codeLine="47" fill="url(#g7jaumj586xsc0)" height="80.5625" id="TWRP\\Utils\\Widget_Utils" style="stroke:#111111;stroke-width:1.5;" width="143" x="40.5" y="351"/><ellipse cx="54.5" cy="383.2813" fill="#ADD1B2" rx="10" ry="10" style="stroke:#111111;stroke-width:1.0;"/><path d="M56.8906,388.8594 Q56.2813,389.1875 55.6406,389.3438 Q55.0156,389.5156 54.3125,389.5156 Q52.0625,389.5156 50.8281,387.9219 Q49.5938,386.3281 49.5938,383.4531 Q49.5938,380.5938 50.8281,379 Q52.0781,377.4063 54.3125,377.4063 Q55.0156,377.4063 55.6406,377.5625 Q56.2813,377.7188 56.8906,378.0469 L56.8906,379.6563 Q56.3125,379.1875 55.6406,378.9375 Q54.9844,378.6875 54.3125,378.6875 Q52.7656,378.6875 52,379.875 Q51.2344,381.0625 51.2344,383.4531 Q51.2344,385.8438 52,387.0313 Q52.7656,388.2188 54.3125,388.2188 Q55,388.2188 55.6563,387.9688 Q56.3125,387.7188 56.8906,387.25 L56.8906,388.8594 Z " fill="#000000"/><text fill="#EEEEEE" font-family="sans-serif" font-size="12" font-style="italic" lengthAdjust="spacing" textLength="87" x="80.5" y="369.1387">«public class»</text><text fill="#EEEEEE" font-family="sans-serif" font-size="12" font-style="italic" lengthAdjust="spacing" textLength="113" x="67.5" y="383.1074">«static collection»</text><text fill="#EEEEEE" font-family="sans-serif" font-size="16" lengthAdjust="spacing" textLength="96" x="76" y="404.7891">Widget_Utils</text><line style="stroke:#111111;stroke-width:1.5;" x1="41.5" x2="182.5" y1="415.5625" y2="415.5625"/><line style="stroke:#111111;stroke-width:1.5;" x1="41.5" x2="182.5" y1="423.5625" y2="423.5625"/><!--MD5=[4194741537ad4fc42df8684e19fa30c1]
class TWRP\\Utils\\Helper_Trait\\After_Setup_Theme_Init_Trait--><rect codeLine="50" fill="url(#g7jaumj586xsc0)" height="80.5625" id="TWRP\\Utils\\Helper_Trait\\After_Setup_Theme_Init_Trait" style="stroke:#111111;stroke-width:1.5;" width="260" x="1132" y="69"/><ellipse cx="1146" cy="101.2813" fill="#A9DCDF" rx="10" ry="10" style="stroke:#111111;stroke-width:1.0;"/><path d="M1145.8125,96.5 L1144.1563,102.4688 L1147.4844,102.4688 L1145.8125,96.5 Z M1144.8594,95.1094 L1146.7813,95.1094 L1150.3438,106.7813 L1148.7188,106.7813 L1147.8594,103.7344 L1143.7656,103.7344 L1142.9219,106.7813 L1141.2969,106.7813 L1144.8594,95.1094 Z " fill="#000000"/><text fill="#EEEEEE" font-family="sans-serif" font-size="12" font-style="italic" lengthAdjust="spacing" textLength="87" x="1230.5" y="87.1387">«public class»</text><text fill="#EEEEEE" font-family="sans-serif" font-size="12" font-style="italic" lengthAdjust="spacing" textLength="67" x="1240.5" y="101.1074">«abstract»</text><text fill="#EEEEEE" font-family="sans-serif" font-size="16" font-style="italic" lengthAdjust="spacing" textLength="226" x="1161" y="122.7891">After_Setup_Theme_Init_Trait</text><line style="stroke:#111111;stroke-width:1.5;" x1="1133" x2="1391" y1="133.5625" y2="133.5625"/><line style="stroke:#111111;stroke-width:1.5;" x1="1133" x2="1391" y1="141.5625" y2="141.5625"/><!--MD5=[758c6ef18952c0eef767cebff7332821]
class TWRP\\Utils\\Helper_Trait\\BEM_Class_Naming_Trait--><rect codeLine="51" fill="url(#g7jaumj586xsc0)" height="80.5625" id="TWRP\\Utils\\Helper_Trait\\BEM_Class_Naming_Trait" style="stroke:#111111;stroke-width:1.5;" width="226" x="871" y="69"/><ellipse cx="885" cy="101.2813" fill="#A9DCDF" rx="10" ry="10" style="stroke:#111111;stroke-width:1.0;"/><path d="M884.8125,96.5 L883.1563,102.4688 L886.4844,102.4688 L884.8125,96.5 Z M883.8594,95.1094 L885.7813,95.1094 L889.3438,106.7813 L887.7188,106.7813 L886.8594,103.7344 L882.7656,103.7344 L881.9219,106.7813 L880.2969,106.7813 L883.8594,95.1094 Z " fill="#000000"/><text fill="#EEEEEE" font-family="sans-serif" font-size="12" font-style="italic" lengthAdjust="spacing" textLength="87" x="952.5" y="87.1387">«public class»</text><text fill="#EEEEEE" font-family="sans-serif" font-size="12" font-style="italic" lengthAdjust="spacing" textLength="67" x="962.5" y="101.1074">«abstract»</text><text fill="#EEEEEE" font-family="sans-serif" font-size="16" font-style="italic" lengthAdjust="spacing" textLength="192" x="900" y="122.7891">BEM_Class_Naming_Trait</text><line style="stroke:#111111;stroke-width:1.5;" x1="872" x2="1096" y1="133.5625" y2="133.5625"/><line style="stroke:#111111;stroke-width:1.5;" x1="872" x2="1096" y1="141.5625" y2="141.5625"/><!--MD5=[6d5dd0c0c6070c8e9ea929d8c80e5f54]
class TWRP\\Utils\\Helper_Interfaces\\Class_Children_Order--><rect codeLine="55" fill="url(#g7jaumj586xsc0)" height="80.5625" id="TWRP\\Utils\\Helper_Interfaces\\Class_Children_Order" style="stroke:#111111;stroke-width:1.5;" width="200" x="636" y="69"/><ellipse cx="650" cy="101.2813" fill="#A9DCDF" rx="10" ry="10" style="stroke:#111111;stroke-width:1.0;"/><path d="M649.8125,96.5 L648.1563,102.4688 L651.4844,102.4688 L649.8125,96.5 Z M648.8594,95.1094 L650.7813,95.1094 L654.3438,106.7813 L652.7188,106.7813 L651.8594,103.7344 L647.7656,103.7344 L646.9219,106.7813 L645.2969,106.7813 L648.8594,95.1094 Z " fill="#000000"/><text fill="#EEEEEE" font-family="sans-serif" font-size="12" font-style="italic" lengthAdjust="spacing" textLength="87" x="704.5" y="87.1387">«public class»</text><text fill="#EEEEEE" font-family="sans-serif" font-size="12" font-style="italic" lengthAdjust="spacing" textLength="70" x="713" y="101.1074">«interface»</text><text fill="#EEEEEE" font-family="sans-serif" font-size="16" font-style="italic" lengthAdjust="spacing" textLength="166" x="665" y="122.7891">Class_Children_Order</text><line style="stroke:#111111;stroke-width:1.5;" x1="637" x2="835" y1="133.5625" y2="133.5625"/><line style="stroke:#111111;stroke-width:1.5;" x1="637" x2="835" y1="141.5625" y2="141.5625"/><path d="M1416,236 L1416,265.1328 L1802,265.1328 L1802,246 L1792,236 L1416,236 " fill="#FBFB77" style="stroke:#A80036;stroke-width:1.0;"/><path d="M1792,236 L1792,246 L1802,246 L1792,236 " fill="#FBFB77" style="stroke:#A80036;stroke-width:1.0;"/><text fill="#000000" font-family="sans-serif" font-size="13" lengthAdjust="spacing" textLength="361" x="1424" y="255.0669">All other packages can reference these utils at any time.</text><!--MD5=[133466724e00e8e897948d3ebd841424]
reverse link TWRP\\Utils to NoteUtils--><path codeLine="60" d="M1408.8808,209.6393 C1409.9684,209.7562 1411.0084,209.8764 1412,210 C1458.949,215.8504 1511.3886,226.8539 1550.3536,235.9164 " fill="none" id="TWRP\\Utils-backto-NoteUtils" style="stroke:#FFFF00;stroke-width:1.0;stroke-dasharray:7.0,7.0;"/><polygon fill="#FFFF00" points="1408.8808,209.6393,1417.4016,214.5784,1413.8521,210.1738,1418.2568,206.6243,1408.8808,209.6393" style="stroke:#FFFF00;stroke-width:1.0;"/><!--MD5=[866706a4a2c60b5cf1b4edef39abc0c2]
link TWRP\\Utils\\Class_Retriever_Utils to TWRP\\Utils\\Color_Utils--><!--MD5=[1206e0b0b56b5824f9ba41c208727485]
link TWRP\\Utils\\Color_Utils to TWRP\\Utils\\Date_Utils--><!--MD5=[5be85f7ad250361c79c58ef298875bcb]
link TWRP\\Utils\\Class_Retriever_Utils to TWRP\\Utils\\Directory_Utils--><!--MD5=[ba4d78a70ad2be2ca176b135b10443d6]
link TWRP\\Utils\\Directory_Utils to TWRP\\Utils\\Filesystem_Utils--><!--MD5=[ff850c9784bd3dbfa91fa640dd7385f5]
link TWRP\\Utils\\Filesystem_Utils to TWRP\\Utils\\Simple_Utils--><!--MD5=[f0c3176f9f19751e97f08987ba06c114]
link TWRP\\Utils\\Directory_Utils to TWRP\\Utils\\Widget_Utils--><!--MD5=[60bd6ea470e4dbefd716cb5c3a44cc8c]
@startuml
set namespaceSeparator \\

    skinparam {
        padding 2
        backgroundColor #222
        shadowing false

        classFontColor #eee
        classStereotypeFontColor #eee
        classBorderColor #111
        classFontSize 14
        ClassAttributeFontColor #eee
        ClassAttributeFontSize 13
        ClassAttributeIconSize 15

        PackageBackgroundColor #2c2c2c
        PackageBorderColor #111
        PackageFontColor #eee

        ArrowColor yellow

        circledCharacterFontColor black
        circledCharacterFontSize 16
        circledCharacterFontStyle plain
        circledCharacterRadius 10

        packageStyle rectangle

        <<public class>>classBackgroundColor #004b00/#003b00
        <<public class>>classFontSize 16

        <<private class>>classBackgroundColor #5d0000/#4d0000

        <<protected class>>classBackgroundColor #d16300/#c15300

        <<abstract class>>classBorderColor #755800
    }


namespace TWRP\\Utils {
	class Class_Retriever_Utils <<public class>> <<static collection>> {}
	class Color_Utils <<public class>> <<static collection>> {}
	class Date_Utils <<public class>> <<static collection>> {}
	class Directory_Utils <<public class>> <<static collection>> {}
	class Filesystem_Utils <<public class>> <<static collection>> {}
	class Simple_Utils <<public class>> <<static collection>> {}
	class Widget_Utils <<public class>> <<static collection>> {}

	namespace Helper_Trait {
		abstract After_Setup_Theme_Init_Trait <<public class>> <<abstract>> {}
		abstract BEM_Class_Naming_Trait <<public class>> <<abstract>> {}
	}

	namespace Helper_Interfaces {
		abstract Class_Children_Order <<public class>> <<interface>> {}
	}
}

note "All other packages can reference these utils at any time." as NoteUtils
TWRP\\Utils <.down. NoteUtils
@enduml

PlantUML version 1.2021.00(Sun Jan 10 10:25:05 UTC 2021)
(GPL source distribution)
Java Runtime: OpenJDK Runtime Environment
JVM: OpenJDK 64-Bit Server VM
Default Encoding: UTF-8
Language: en
Country: null
--></g></svg>