<?xml version="1.0" encoding="UTF-8" standalone="no"?><svg xmlns="http://www.w3.org/2000/svg" xmlns:xlink="http://www.w3.org/1999/xlink" contentScriptType="application/ecmascript" contentStyleType="text/css" height="482px" preserveAspectRatio="none" style="width:1363px;height:482px;background:#222222;" version="1.1" viewBox="0 0 1363 482" width="1363px" zoomAndPan="magnify"><defs><linearGradient id="gp2e22t1k3fql0" x1="0%" x2="100%" y1="0%" y2="100%"><stop offset="0%" stop-color="#004B00"/><stop offset="100%" stop-color="#003B00"/></linearGradient></defs><g><!--MD5=[e382d429ac185ec2f47689011222b437]
cluster TWRP\\Utils--><rect fill="#2C2C2C" height="433" style="stroke: #111111; stroke-width: 1.5;" width="1166" x="191" y="43"/><text fill="#EEEEEE" font-family="sans-serif" font-size="14" font-weight="bold" lengthAdjust="spacingAndGlyphs" textLength="84" x="732" y="59.9951">TWRP\Utils</text><!--MD5=[3aa6a5b0bc81a6fdac74d8174448fa02]
cluster TWRP\\Utils\\Helper_Trait--><rect fill="#2C2C2C" height="261" style="stroke: #111111; stroke-width: 1.5;" width="537" x="812" y="74"/><text fill="#EEEEEE" font-family="sans-serif" font-size="14" font-weight="bold" lengthAdjust="spacingAndGlyphs" textLength="95" x="1033" y="90.9951">Helper_Trait</text><!--MD5=[66d9474a82314855f959381a555d14b1]
class TWRP\\Utils\\Class_Retriever_Utils--><rect codeLine="41" fill="url(#gp2e22t1k3fql0)" height="80.5625" id="TWRP\\Utils\\Class_Retriever_Utils" style="stroke: #111111; stroke-width: 1.5;" width="194" x="234" y="105"/><ellipse cx="248" cy="137.2813" fill="#ADD1B2" rx="10" ry="10" style="stroke: #111111; stroke-width: 1.0;"/><path d="M250.3906,142.8594 Q249.7813,143.1875 249.1406,143.3438 Q248.5156,143.5156 247.8125,143.5156 Q245.5625,143.5156 244.3281,141.9219 Q243.0938,140.3281 243.0938,137.4531 Q243.0938,134.5938 244.3281,133 Q245.5781,131.4063 247.8125,131.4063 Q248.5156,131.4063 249.1406,131.5625 Q249.7813,131.7188 250.3906,132.0469 L250.3906,133.6563 Q249.8125,133.1875 249.1406,132.9375 Q248.4844,132.6875 247.8125,132.6875 Q246.2656,132.6875 245.5,133.875 Q244.7344,135.0625 244.7344,137.4531 Q244.7344,139.8438 245.5,141.0313 Q246.2656,142.2188 247.8125,142.2188 Q248.5,142.2188 249.1563,141.9688 Q249.8125,141.7188 250.3906,141.25 L250.3906,142.8594 Z "/><text fill="#EEEEEE" font-family="sans-serif" font-size="12" font-style="italic" lengthAdjust="spacingAndGlyphs" textLength="87" x="299.5" y="123.1387">«public class»</text><text fill="#EEEEEE" font-family="sans-serif" font-size="12" font-style="italic" lengthAdjust="spacingAndGlyphs" textLength="113" x="286.5" y="137.1074">«static collection»</text><text fill="#EEEEEE" font-family="sans-serif" font-size="16" lengthAdjust="spacingAndGlyphs" textLength="160" x="263" y="158.7891">Class_Retriever_Utils</text><line style="stroke: #111111; stroke-width: 1.5;" x1="235" x2="427" y1="169.5625" y2="169.5625"/><line style="stroke: #111111; stroke-width: 1.5;" x1="235" x2="427" y1="177.5625" y2="177.5625"/><!--MD5=[243643627653d9f00fb521443e3da6fe]
class TWRP\\Utils\\Color_Utils--><rect codeLine="42" fill="url(#gp2e22t1k3fql0)" height="80.5625" id="TWRP\\Utils\\Color_Utils" style="stroke: #111111; stroke-width: 1.5;" width="143" x="463.5" y="105"/><ellipse cx="477.5" cy="137.2813" fill="#ADD1B2" rx="10" ry="10" style="stroke: #111111; stroke-width: 1.0;"/><path d="M479.8906,142.8594 Q479.2813,143.1875 478.6406,143.3438 Q478.0156,143.5156 477.3125,143.5156 Q475.0625,143.5156 473.8281,141.9219 Q472.5938,140.3281 472.5938,137.4531 Q472.5938,134.5938 473.8281,133 Q475.0781,131.4063 477.3125,131.4063 Q478.0156,131.4063 478.6406,131.5625 Q479.2813,131.7188 479.8906,132.0469 L479.8906,133.6563 Q479.3125,133.1875 478.6406,132.9375 Q477.9844,132.6875 477.3125,132.6875 Q475.7656,132.6875 475,133.875 Q474.2344,135.0625 474.2344,137.4531 Q474.2344,139.8438 475,141.0313 Q475.7656,142.2188 477.3125,142.2188 Q478,142.2188 478.6563,141.9688 Q479.3125,141.7188 479.8906,141.25 L479.8906,142.8594 Z "/><text fill="#EEEEEE" font-family="sans-serif" font-size="12" font-style="italic" lengthAdjust="spacingAndGlyphs" textLength="87" x="503.5" y="123.1387">«public class»</text><text fill="#EEEEEE" font-family="sans-serif" font-size="12" font-style="italic" lengthAdjust="spacingAndGlyphs" textLength="113" x="490.5" y="137.1074">«static collection»</text><text fill="#EEEEEE" font-family="sans-serif" font-size="16" lengthAdjust="spacingAndGlyphs" textLength="82" x="506" y="158.7891">Color_Utils</text><line style="stroke: #111111; stroke-width: 1.5;" x1="464.5" x2="605.5" y1="169.5625" y2="169.5625"/><line style="stroke: #111111; stroke-width: 1.5;" x1="464.5" x2="605.5" y1="177.5625" y2="177.5625"/><!--MD5=[31a7c035d40df4bd96a38a38835ef09d]
class TWRP\\Utils\\Date_Utils--><rect codeLine="43" fill="url(#gp2e22t1k3fql0)" height="80.5625" id="TWRP\\Utils\\Date_Utils" style="stroke: #111111; stroke-width: 1.5;" width="143" x="641.5" y="105"/><ellipse cx="655.5" cy="137.2813" fill="#ADD1B2" rx="10" ry="10" style="stroke: #111111; stroke-width: 1.0;"/><path d="M657.8906,142.8594 Q657.2813,143.1875 656.6406,143.3438 Q656.0156,143.5156 655.3125,143.5156 Q653.0625,143.5156 651.8281,141.9219 Q650.5938,140.3281 650.5938,137.4531 Q650.5938,134.5938 651.8281,133 Q653.0781,131.4063 655.3125,131.4063 Q656.0156,131.4063 656.6406,131.5625 Q657.2813,131.7188 657.8906,132.0469 L657.8906,133.6563 Q657.3125,133.1875 656.6406,132.9375 Q655.9844,132.6875 655.3125,132.6875 Q653.7656,132.6875 653,133.875 Q652.2344,135.0625 652.2344,137.4531 Q652.2344,139.8438 653,141.0313 Q653.7656,142.2188 655.3125,142.2188 Q656,142.2188 656.6563,141.9688 Q657.3125,141.7188 657.8906,141.25 L657.8906,142.8594 Z "/><text fill="#EEEEEE" font-family="sans-serif" font-size="12" font-style="italic" lengthAdjust="spacingAndGlyphs" textLength="87" x="681.5" y="123.1387">«public class»</text><text fill="#EEEEEE" font-family="sans-serif" font-size="12" font-style="italic" lengthAdjust="spacingAndGlyphs" textLength="113" x="668.5" y="137.1074">«static collection»</text><text fill="#EEEEEE" font-family="sans-serif" font-size="16" lengthAdjust="spacingAndGlyphs" textLength="77" x="686.5" y="158.7891">Date_Utils</text><line style="stroke: #111111; stroke-width: 1.5;" x1="642.5" x2="783.5" y1="169.5625" y2="169.5625"/><line style="stroke: #111111; stroke-width: 1.5;" x1="642.5" x2="783.5" y1="177.5625" y2="177.5625"/><!--MD5=[31298f49c598f0682e11c637ba1f9ee5]
class TWRP\\Utils\\Directory_Utils--><rect codeLine="44" fill="url(#gp2e22t1k3fql0)" height="80.5625" id="TWRP\\Utils\\Directory_Utils" style="stroke: #111111; stroke-width: 1.5;" width="147" x="257.5" y="246"/><ellipse cx="271.5" cy="278.2813" fill="#ADD1B2" rx="10" ry="10" style="stroke: #111111; stroke-width: 1.0;"/><path d="M273.8906,283.8594 Q273.2813,284.1875 272.6406,284.3438 Q272.0156,284.5156 271.3125,284.5156 Q269.0625,284.5156 267.8281,282.9219 Q266.5938,281.3281 266.5938,278.4531 Q266.5938,275.5938 267.8281,274 Q269.0781,272.4063 271.3125,272.4063 Q272.0156,272.4063 272.6406,272.5625 Q273.2813,272.7188 273.8906,273.0469 L273.8906,274.6563 Q273.3125,274.1875 272.6406,273.9375 Q271.9844,273.6875 271.3125,273.6875 Q269.7656,273.6875 269,274.875 Q268.2344,276.0625 268.2344,278.4531 Q268.2344,280.8438 269,282.0313 Q269.7656,283.2188 271.3125,283.2188 Q272,283.2188 272.6563,282.9688 Q273.3125,282.7188 273.8906,282.25 L273.8906,283.8594 Z "/><text fill="#EEEEEE" font-family="sans-serif" font-size="12" font-style="italic" lengthAdjust="spacingAndGlyphs" textLength="87" x="299.5" y="264.1387">«public class»</text><text fill="#EEEEEE" font-family="sans-serif" font-size="12" font-style="italic" lengthAdjust="spacingAndGlyphs" textLength="113" x="286.5" y="278.1074">«static collection»</text><text fill="#EEEEEE" font-family="sans-serif" font-size="16" lengthAdjust="spacingAndGlyphs" textLength="113" x="286.5" y="299.7891">Directory_Utils</text><line style="stroke: #111111; stroke-width: 1.5;" x1="258.5" x2="403.5" y1="310.5625" y2="310.5625"/><line style="stroke: #111111; stroke-width: 1.5;" x1="258.5" x2="403.5" y1="318.5625" y2="318.5625"/><!--MD5=[d249ff578723dfb1fb66a4140a852441]
class TWRP\\Utils\\Filesystem_Utils--><rect codeLine="45" fill="url(#gp2e22t1k3fql0)" height="80.5625" id="TWRP\\Utils\\Filesystem_Utils" style="stroke: #111111; stroke-width: 1.5;" width="156" x="440" y="246"/><ellipse cx="454" cy="278.2813" fill="#ADD1B2" rx="10" ry="10" style="stroke: #111111; stroke-width: 1.0;"/><path d="M456.3906,283.8594 Q455.7813,284.1875 455.1406,284.3438 Q454.5156,284.5156 453.8125,284.5156 Q451.5625,284.5156 450.3281,282.9219 Q449.0938,281.3281 449.0938,278.4531 Q449.0938,275.5938 450.3281,274 Q451.5781,272.4063 453.8125,272.4063 Q454.5156,272.4063 455.1406,272.5625 Q455.7813,272.7188 456.3906,273.0469 L456.3906,274.6563 Q455.8125,274.1875 455.1406,273.9375 Q454.4844,273.6875 453.8125,273.6875 Q452.2656,273.6875 451.5,274.875 Q450.7344,276.0625 450.7344,278.4531 Q450.7344,280.8438 451.5,282.0313 Q452.2656,283.2188 453.8125,283.2188 Q454.5,283.2188 455.1563,282.9688 Q455.8125,282.7188 456.3906,282.25 L456.3906,283.8594 Z "/><text fill="#EEEEEE" font-family="sans-serif" font-size="12" font-style="italic" lengthAdjust="spacingAndGlyphs" textLength="87" x="486.5" y="264.1387">«public class»</text><text fill="#EEEEEE" font-family="sans-serif" font-size="12" font-style="italic" lengthAdjust="spacingAndGlyphs" textLength="113" x="473.5" y="278.1074">«static collection»</text><text fill="#EEEEEE" font-family="sans-serif" font-size="16" lengthAdjust="spacingAndGlyphs" textLength="122" x="469" y="299.7891">Filesystem_Utils</text><line style="stroke: #111111; stroke-width: 1.5;" x1="441" x2="595" y1="310.5625" y2="310.5625"/><line style="stroke: #111111; stroke-width: 1.5;" x1="441" x2="595" y1="318.5625" y2="318.5625"/><!--MD5=[e7b81e81c11d10e18688738ef685d2d1]
class TWRP\\Utils\\Simple_Utils--><rect codeLine="46" fill="url(#gp2e22t1k3fql0)" height="80.5625" id="TWRP\\Utils\\Simple_Utils" style="stroke: #111111; stroke-width: 1.5;" width="143" x="631.5" y="246"/><ellipse cx="645.5" cy="278.2813" fill="#ADD1B2" rx="10" ry="10" style="stroke: #111111; stroke-width: 1.0;"/><path d="M647.8906,283.8594 Q647.2813,284.1875 646.6406,284.3438 Q646.0156,284.5156 645.3125,284.5156 Q643.0625,284.5156 641.8281,282.9219 Q640.5938,281.3281 640.5938,278.4531 Q640.5938,275.5938 641.8281,274 Q643.0781,272.4063 645.3125,272.4063 Q646.0156,272.4063 646.6406,272.5625 Q647.2813,272.7188 647.8906,273.0469 L647.8906,274.6563 Q647.3125,274.1875 646.6406,273.9375 Q645.9844,273.6875 645.3125,273.6875 Q643.7656,273.6875 643,274.875 Q642.2344,276.0625 642.2344,278.4531 Q642.2344,280.8438 643,282.0313 Q643.7656,283.2188 645.3125,283.2188 Q646,283.2188 646.6563,282.9688 Q647.3125,282.7188 647.8906,282.25 L647.8906,283.8594 Z "/><text fill="#EEEEEE" font-family="sans-serif" font-size="12" font-style="italic" lengthAdjust="spacingAndGlyphs" textLength="87" x="671.5" y="264.1387">«public class»</text><text fill="#EEEEEE" font-family="sans-serif" font-size="12" font-style="italic" lengthAdjust="spacingAndGlyphs" textLength="113" x="658.5" y="278.1074">«static collection»</text><text fill="#EEEEEE" font-family="sans-serif" font-size="16" lengthAdjust="spacingAndGlyphs" textLength="91" x="669.5" y="299.7891">Simple_Utils</text><line style="stroke: #111111; stroke-width: 1.5;" x1="632.5" x2="773.5" y1="310.5625" y2="310.5625"/><line style="stroke: #111111; stroke-width: 1.5;" x1="632.5" x2="773.5" y1="318.5625" y2="318.5625"/><!--MD5=[87e36d28a3267eec0ae766d6d2867cd3]
class TWRP\\Utils\\Widget_Utils--><rect codeLine="47" fill="url(#gp2e22t1k3fql0)" height="80.5625" id="TWRP\\Utils\\Widget_Utils" style="stroke: #111111; stroke-width: 1.5;" width="143" x="259.5" y="387"/><ellipse cx="273.5" cy="419.2813" fill="#ADD1B2" rx="10" ry="10" style="stroke: #111111; stroke-width: 1.0;"/><path d="M275.8906,424.8594 Q275.2813,425.1875 274.6406,425.3438 Q274.0156,425.5156 273.3125,425.5156 Q271.0625,425.5156 269.8281,423.9219 Q268.5938,422.3281 268.5938,419.4531 Q268.5938,416.5938 269.8281,415 Q271.0781,413.4063 273.3125,413.4063 Q274.0156,413.4063 274.6406,413.5625 Q275.2813,413.7188 275.8906,414.0469 L275.8906,415.6563 Q275.3125,415.1875 274.6406,414.9375 Q273.9844,414.6875 273.3125,414.6875 Q271.7656,414.6875 271,415.875 Q270.2344,417.0625 270.2344,419.4531 Q270.2344,421.8438 271,423.0313 Q271.7656,424.2188 273.3125,424.2188 Q274,424.2188 274.6563,423.9688 Q275.3125,423.7188 275.8906,423.25 L275.8906,424.8594 Z "/><text fill="#EEEEEE" font-family="sans-serif" font-size="12" font-style="italic" lengthAdjust="spacingAndGlyphs" textLength="87" x="299.5" y="405.1387">«public class»</text><text fill="#EEEEEE" font-family="sans-serif" font-size="12" font-style="italic" lengthAdjust="spacingAndGlyphs" textLength="113" x="286.5" y="419.1074">«static collection»</text><text fill="#EEEEEE" font-family="sans-serif" font-size="16" lengthAdjust="spacingAndGlyphs" textLength="96" x="295" y="440.7891">Widget_Utils</text><line style="stroke: #111111; stroke-width: 1.5;" x1="260.5" x2="401.5" y1="451.5625" y2="451.5625"/><line style="stroke: #111111; stroke-width: 1.5;" x1="260.5" x2="401.5" y1="459.5625" y2="459.5625"/><!--MD5=[4194741537ad4fc42df8684e19fa30c1]
class TWRP\\Utils\\Helper_Trait\\After_Setup_Theme_Init_Trait--><rect codeLine="50" fill="url(#gp2e22t1k3fql0)" height="80.5625" id="TWRP\\Utils\\Helper_Trait\\After_Setup_Theme_Init_Trait" style="stroke: #111111; stroke-width: 1.5;" width="260" x="820" y="105"/><ellipse cx="834" cy="137.2813" fill="#A9DCDF" rx="10" ry="10" style="stroke: #111111; stroke-width: 1.0;"/><path d="M833.8125,132.5 L832.1563,138.4688 L835.4844,138.4688 L833.8125,132.5 Z M832.8594,131.1094 L834.7813,131.1094 L838.3438,142.7813 L836.7188,142.7813 L835.8594,139.7344 L831.7656,139.7344 L830.9219,142.7813 L829.2969,142.7813 L832.8594,131.1094 Z "/><text fill="#EEEEEE" font-family="sans-serif" font-size="12" font-style="italic" lengthAdjust="spacingAndGlyphs" textLength="87" x="918.5" y="123.1387">«public class»</text><text fill="#EEEEEE" font-family="sans-serif" font-size="12" font-style="italic" lengthAdjust="spacingAndGlyphs" textLength="67" x="928.5" y="137.1074">«abstract»</text><text fill="#EEEEEE" font-family="sans-serif" font-size="16" font-style="italic" lengthAdjust="spacingAndGlyphs" textLength="226" x="849" y="158.7891">After_Setup_Theme_Init_Trait</text><line style="stroke: #111111; stroke-width: 1.5;" x1="821" x2="1079" y1="169.5625" y2="169.5625"/><line style="stroke: #111111; stroke-width: 1.5;" x1="821" x2="1079" y1="177.5625" y2="177.5625"/><!--MD5=[758c6ef18952c0eef767cebff7332821]
class TWRP\\Utils\\Helper_Trait\\BEM_Class_Naming_Trait--><rect codeLine="51" fill="url(#gp2e22t1k3fql0)" height="80.5625" id="TWRP\\Utils\\Helper_Trait\\BEM_Class_Naming_Trait" style="stroke: #111111; stroke-width: 1.5;" width="226" x="1115" y="105"/><ellipse cx="1129" cy="137.2813" fill="#A9DCDF" rx="10" ry="10" style="stroke: #111111; stroke-width: 1.0;"/><path d="M1128.8125,132.5 L1127.1563,138.4688 L1130.4844,138.4688 L1128.8125,132.5 Z M1127.8594,131.1094 L1129.7813,131.1094 L1133.3438,142.7813 L1131.7188,142.7813 L1130.8594,139.7344 L1126.7656,139.7344 L1125.9219,142.7813 L1124.2969,142.7813 L1127.8594,131.1094 Z "/><text fill="#EEEEEE" font-family="sans-serif" font-size="12" font-style="italic" lengthAdjust="spacingAndGlyphs" textLength="87" x="1196.5" y="123.1387">«public class»</text><text fill="#EEEEEE" font-family="sans-serif" font-size="12" font-style="italic" lengthAdjust="spacingAndGlyphs" textLength="67" x="1206.5" y="137.1074">«abstract»</text><text fill="#EEEEEE" font-family="sans-serif" font-size="16" font-style="italic" lengthAdjust="spacingAndGlyphs" textLength="192" x="1144" y="158.7891">BEM_Class_Naming_Trait</text><line style="stroke: #111111; stroke-width: 1.5;" x1="1116" x2="1340" y1="169.5625" y2="169.5625"/><line style="stroke: #111111; stroke-width: 1.5;" x1="1116" x2="1340" y1="177.5625" y2="177.5625"/><!--MD5=[539a997e5898fa303743fd652c46bbd9]
class TWRP\\Utils\\Helper_Trait\\Class_Children_Order_Trait--><rect codeLine="52" fill="url(#gp2e22t1k3fql0)" height="80.5625" id="TWRP\\Utils\\Helper_Trait\\Class_Children_Order_Trait" style="stroke: #111111; stroke-width: 1.5;" width="242" x="829" y="246"/><ellipse cx="843" cy="278.2813" fill="#A9DCDF" rx="10" ry="10" style="stroke: #111111; stroke-width: 1.0;"/><path d="M842.8125,273.5 L841.1563,279.4688 L844.4844,279.4688 L842.8125,273.5 Z M841.8594,272.1094 L843.7813,272.1094 L847.3438,283.7813 L845.7188,283.7813 L844.8594,280.7344 L840.7656,280.7344 L839.9219,283.7813 L838.2969,283.7813 L841.8594,272.1094 Z "/><text fill="#EEEEEE" font-family="sans-serif" font-size="12" font-style="italic" lengthAdjust="spacingAndGlyphs" textLength="87" x="918.5" y="264.1387">«public class»</text><text fill="#EEEEEE" font-family="sans-serif" font-size="12" font-style="italic" lengthAdjust="spacingAndGlyphs" textLength="67" x="928.5" y="278.1074">«abstract»</text><text fill="#EEEEEE" font-family="sans-serif" font-size="16" font-style="italic" lengthAdjust="spacingAndGlyphs" textLength="208" x="858" y="299.7891">Class_Children_Order_Trait</text><line style="stroke: #111111; stroke-width: 1.5;" x1="830" x2="1070" y1="310.5625" y2="310.5625"/><line style="stroke: #111111; stroke-width: 1.5;" x1="830" x2="1070" y1="318.5625" y2="318.5625"/><path d="M6,6 L6,35.1328 L392,35.1328 L392,16 L382,6 L6,6 " fill="#FBFB77" style="stroke: #A80036; stroke-width: 1.0;"/><path d="M382,6 L382,16 L392,16 L382,6 " fill="#FBFB77" style="stroke: #A80036; stroke-width: 1.0;"/><text fill="#000000" font-family="sans-serif" font-size="13" lengthAdjust="spacingAndGlyphs" textLength="361" x="14" y="25.0669">All other packages can reference these utils at any time.</text><!--MD5=[caff1ac912eb67bc040340a997662d7e]
link NoteUtils to TWRP\\Utils--><path codeLine="57" d="M199,35.33 C199,37.3024 199,39.4308 199,41.6896 C199,41.972 199,42.2563 199,42.5427 C199,42.6859 199,42.8296 199,42.9738 " fill="none" id="NoteUtils-to-TWRP\\Utils" style="stroke: #FFFF00; stroke-width: 1.0; stroke-dasharray: 7.0,7.0;"/><polygon fill="#FFFF00" points="199,42.9738,203,33.9738,199,37.9738,195,33.9738,199,42.9738" style="stroke: #FFFF00; stroke-width: 1.0;"/><!--MD5=[866706a4a2c60b5cf1b4edef39abc0c2]
link TWRP\\Utils\\Class_Retriever_Utils to TWRP\\Utils\\Color_Utils--><!--MD5=[1206e0b0b56b5824f9ba41c208727485]
link TWRP\\Utils\\Color_Utils to TWRP\\Utils\\Date_Utils--><!--MD5=[5be85f7ad250361c79c58ef298875bcb]
link TWRP\\Utils\\Class_Retriever_Utils to TWRP\\Utils\\Directory_Utils--><!--MD5=[ba4d78a70ad2be2ca176b135b10443d6]
link TWRP\\Utils\\Directory_Utils to TWRP\\Utils\\Filesystem_Utils--><!--MD5=[ff850c9784bd3dbfa91fa640dd7385f5]
link TWRP\\Utils\\Filesystem_Utils to TWRP\\Utils\\Simple_Utils--><!--MD5=[f0c3176f9f19751e97f08987ba06c114]
link TWRP\\Utils\\Directory_Utils to TWRP\\Utils\\Widget_Utils--><!--MD5=[5dd7f10f57910197ce97bd5e4ea5a4a2]
link TWRP\\Utils\\Helper_Trait\\After_Setup_Theme_Init_Trait to TWRP\\Utils\\Helper_Trait\\BEM_Class_Naming_Trait--><!--MD5=[99027af30f5bdf8f9c0fa49c0ef26520]
link TWRP\\Utils\\Helper_Trait\\After_Setup_Theme_Init_Trait to TWRP\\Utils\\Helper_Trait\\Class_Children_Order_Trait--><!--MD5=[c84295c65d1ebe6c434a3a3235b7bf74]
@startuml
set namespaceSeparator \\

    skinparam {
        padding 2
        backgroundColor #222
        shadowing false

        classFontColor #eee
        classStereotypeFontColor #eee
        classBorderColor #111
        classFontSize 14
        ClassAttributeFontColor #eee
        ClassAttributeFontSize 13
        ClassAttributeIconSize 15

        PackageBackgroundColor #2c2c2c
        PackageBorderColor #111
        PackageFontColor #eee

        ArrowColor yellow

        circledCharacterFontColor black
        circledCharacterFontSize 16
        circledCharacterFontStyle plain
        circledCharacterRadius 10

        packageStyle rectangle

        <<public class>>classBackgroundColor #004b00/#003b00
        <<public class>>classFontSize 16

        <<private class>>classBackgroundColor #5d0000/#4d0000

        <<protected class>>classBackgroundColor #d16300/#c15300

        <<abstract class>>classBorderColor #755800
    }


namespace TWRP\\Utils {
	class Class_Retriever_Utils <<public class>> <<static collection>> {}
	class Color_Utils <<public class>> <<static collection>> {}
	class Date_Utils <<public class>> <<static collection>> {}
	class Directory_Utils <<public class>> <<static collection>> {}
	class Filesystem_Utils <<public class>> <<static collection>> {}
	class Simple_Utils <<public class>> <<static collection>> {}
	class Widget_Utils <<public class>> <<static collection>> {}

	namespace Helper_Trait {
		abstract After_Setup_Theme_Init_Trait <<public class>> <<abstract>> {}
		abstract BEM_Class_Naming_Trait <<public class>> <<abstract>> {}
		abstract Class_Children_Order_Trait <<public class>> <<abstract>> {}
	}
}

note "All other packages can reference these utils at any time." as NoteUtils
TWRP\\Utils <.down. NoteUtils
@enduml

PlantUML version 1.2020.19(Mon Oct 12 15:10:01 UTC 2020)
(GPL source distribution)
Java Runtime: OpenJDK Runtime Environment
JVM: OpenJDK 64-Bit Server VM
Default Encoding: UTF-8
Language: en
Country: null
--></g></svg>