<?xml version="1.0" encoding="UTF-8" standalone="no"?><svg xmlns="http://www.w3.org/2000/svg" xmlns:xlink="http://www.w3.org/1999/xlink" contentScriptType="application/ecmascript" contentStyleType="text/css" height="446px" preserveAspectRatio="none" style="width:1595px;height:446px;background:#222222;" version="1.1" viewBox="0 0 1595 446" width="1595px" zoomAndPan="magnify"><defs><linearGradient id="glpxef9urkzjz0" x1="0%" x2="100%" y1="0%" y2="100%"><stop offset="0%" stop-color="#004B00"/><stop offset="100%" stop-color="#003B00"/></linearGradient></defs><g><!--MD5=[e382d429ac185ec2f47689011222b437]
cluster TWRP\\Utils--><polygon fill="#2C2C2C" points="16,6,110,6,117,32.2969,1194,32.2969,1194,439,16,439,16,6" style="stroke: #111111; stroke-width: 1.5;"/><line style="stroke: #111111; stroke-width: 1.5;" x1="16" x2="117" y1="32.2969" y2="32.2969"/><text fill="#EEEEEE" font-family="sans-serif" font-size="14" font-weight="bold" lengthAdjust="spacingAndGlyphs" textLength="84" x="22" y="22.9951">TWRP\Utils</text><!--MD5=[3aa6a5b0bc81a6fdac74d8174448fa02]
cluster TWRP\\Utils\\Helper_Trait--><polygon fill="#2C2C2C" points="614,37,719,37,726,63.2969,1159,63.2969,1159,298,614,298,614,37" style="stroke: #111111; stroke-width: 1.5;"/><line style="stroke: #111111; stroke-width: 1.5;" x1="614" x2="726" y1="63.2969" y2="63.2969"/><text fill="#EEEEEE" font-family="sans-serif" font-size="14" font-weight="bold" lengthAdjust="spacingAndGlyphs" textLength="95" x="620" y="53.9951">Helper_Trait</text><!--MD5=[66d9474a82314855f959381a555d14b1]
class TWRP\\Utils\\Class_Retriever_Utils--><rect codeLine="46" fill="url(#glpxef9urkzjz0)" height="80.5625" id="TWRP\\Utils\\Class_Retriever_Utils" style="stroke: #111111; stroke-width: 1.5;" width="198" x="24" y="68"/><ellipse cx="40" cy="100.2813" fill="#ADD1B2" rx="12" ry="12" style="stroke: #111111; stroke-width: 1.0;"/><path d="M42.9375,106.3125 Q42.25,106.6719 41.5313,106.8438 Q40.8281,107.0313 40.0313,107.0313 Q37.5156,107.0313 36.1094,105.25 Q34.7188,103.4688 34.7188,100.2344 Q34.7188,97.0156 36.125,95.2188 Q37.5313,93.4219 40.0313,93.4219 Q40.8281,93.4219 41.5313,93.6094 Q42.25,93.7813 42.9375,94.1406 L42.9375,95.9688 Q42.2813,95.4219 41.5313,95.1406 Q40.7813,94.8594 40.0313,94.8594 Q38.2969,94.8594 37.4375,96.2031 Q36.5781,97.5313 36.5781,100.2344 Q36.5781,102.9219 37.4375,104.2656 Q38.2969,105.5938 40.0313,105.5938 Q40.7969,105.5938 41.5469,105.3125 Q42.2969,105.0313 42.9375,104.5 L42.9375,106.3125 Z "/><text fill="#EEEEEE" font-family="sans-serif" font-size="12" font-style="italic" lengthAdjust="spacingAndGlyphs" textLength="87" x="93.5" y="86.1387">«public class»</text><text fill="#EEEEEE" font-family="sans-serif" font-size="12" font-style="italic" lengthAdjust="spacingAndGlyphs" textLength="113" x="80.5" y="100.1074">«static collection»</text><text fill="#EEEEEE" font-family="sans-serif" font-size="16" lengthAdjust="spacingAndGlyphs" textLength="160" x="57" y="121.7891">Class_Retriever_Utils</text><line style="stroke: #111111; stroke-width: 1.5;" x1="25" x2="221" y1="132.5625" y2="132.5625"/><line style="stroke: #111111; stroke-width: 1.5;" x1="25" x2="221" y1="140.5625" y2="140.5625"/><!--MD5=[243643627653d9f00fb521443e3da6fe]
class TWRP\\Utils\\Color_Utils--><rect codeLine="47" fill="url(#glpxef9urkzjz0)" height="80.5625" id="TWRP\\Utils\\Color_Utils" style="stroke: #111111; stroke-width: 1.5;" width="147" x="257.5" y="68"/><ellipse cx="273.5" cy="100.2813" fill="#ADD1B2" rx="12" ry="12" style="stroke: #111111; stroke-width: 1.0;"/><path d="M276.4375,106.3125 Q275.75,106.6719 275.0313,106.8438 Q274.3281,107.0313 273.5313,107.0313 Q271.0156,107.0313 269.6094,105.25 Q268.2188,103.4688 268.2188,100.2344 Q268.2188,97.0156 269.625,95.2188 Q271.0313,93.4219 273.5313,93.4219 Q274.3281,93.4219 275.0313,93.6094 Q275.75,93.7813 276.4375,94.1406 L276.4375,95.9688 Q275.7813,95.4219 275.0313,95.1406 Q274.2813,94.8594 273.5313,94.8594 Q271.7969,94.8594 270.9375,96.2031 Q270.0781,97.5313 270.0781,100.2344 Q270.0781,102.9219 270.9375,104.2656 Q271.7969,105.5938 273.5313,105.5938 Q274.2969,105.5938 275.0469,105.3125 Q275.7969,105.0313 276.4375,104.5 L276.4375,106.3125 Z "/><text fill="#EEEEEE" font-family="sans-serif" font-size="12" font-style="italic" lengthAdjust="spacingAndGlyphs" textLength="87" x="301.5" y="86.1387">«public class»</text><text fill="#EEEEEE" font-family="sans-serif" font-size="12" font-style="italic" lengthAdjust="spacingAndGlyphs" textLength="113" x="288.5" y="100.1074">«static collection»</text><text fill="#EEEEEE" font-family="sans-serif" font-size="16" lengthAdjust="spacingAndGlyphs" textLength="82" x="304" y="121.7891">Color_Utils</text><line style="stroke: #111111; stroke-width: 1.5;" x1="258.5" x2="403.5" y1="132.5625" y2="132.5625"/><line style="stroke: #111111; stroke-width: 1.5;" x1="258.5" x2="403.5" y1="140.5625" y2="140.5625"/><!--MD5=[31a7c035d40df4bd96a38a38835ef09d]
class TWRP\\Utils\\Date_Utils--><rect codeLine="48" fill="url(#glpxef9urkzjz0)" height="80.5625" id="TWRP\\Utils\\Date_Utils" style="stroke: #111111; stroke-width: 1.5;" width="147" x="439.5" y="68"/><ellipse cx="455.5" cy="100.2813" fill="#ADD1B2" rx="12" ry="12" style="stroke: #111111; stroke-width: 1.0;"/><path d="M458.4375,106.3125 Q457.75,106.6719 457.0313,106.8438 Q456.3281,107.0313 455.5313,107.0313 Q453.0156,107.0313 451.6094,105.25 Q450.2188,103.4688 450.2188,100.2344 Q450.2188,97.0156 451.625,95.2188 Q453.0313,93.4219 455.5313,93.4219 Q456.3281,93.4219 457.0313,93.6094 Q457.75,93.7813 458.4375,94.1406 L458.4375,95.9688 Q457.7813,95.4219 457.0313,95.1406 Q456.2813,94.8594 455.5313,94.8594 Q453.7969,94.8594 452.9375,96.2031 Q452.0781,97.5313 452.0781,100.2344 Q452.0781,102.9219 452.9375,104.2656 Q453.7969,105.5938 455.5313,105.5938 Q456.2969,105.5938 457.0469,105.3125 Q457.7969,105.0313 458.4375,104.5 L458.4375,106.3125 Z "/><text fill="#EEEEEE" font-family="sans-serif" font-size="12" font-style="italic" lengthAdjust="spacingAndGlyphs" textLength="87" x="483.5" y="86.1387">«public class»</text><text fill="#EEEEEE" font-family="sans-serif" font-size="12" font-style="italic" lengthAdjust="spacingAndGlyphs" textLength="113" x="470.5" y="100.1074">«static collection»</text><text fill="#EEEEEE" font-family="sans-serif" font-size="16" lengthAdjust="spacingAndGlyphs" textLength="77" x="488.5" y="121.7891">Date_Utils</text><line style="stroke: #111111; stroke-width: 1.5;" x1="440.5" x2="585.5" y1="132.5625" y2="132.5625"/><line style="stroke: #111111; stroke-width: 1.5;" x1="440.5" x2="585.5" y1="140.5625" y2="140.5625"/><!--MD5=[31298f49c598f0682e11c637ba1f9ee5]
class TWRP\\Utils\\Directory_Utils--><rect codeLine="49" fill="url(#glpxef9urkzjz0)" height="80.5625" id="TWRP\\Utils\\Directory_Utils" style="stroke: #111111; stroke-width: 1.5;" width="151" x="47.5" y="209"/><ellipse cx="63.5" cy="241.2813" fill="#ADD1B2" rx="12" ry="12" style="stroke: #111111; stroke-width: 1.0;"/><path d="M66.4375,247.3125 Q65.75,247.6719 65.0313,247.8438 Q64.3281,248.0313 63.5313,248.0313 Q61.0156,248.0313 59.6094,246.25 Q58.2188,244.4688 58.2188,241.2344 Q58.2188,238.0156 59.625,236.2188 Q61.0313,234.4219 63.5313,234.4219 Q64.3281,234.4219 65.0313,234.6094 Q65.75,234.7813 66.4375,235.1406 L66.4375,236.9688 Q65.7813,236.4219 65.0313,236.1406 Q64.2813,235.8594 63.5313,235.8594 Q61.7969,235.8594 60.9375,237.2031 Q60.0781,238.5313 60.0781,241.2344 Q60.0781,243.9219 60.9375,245.2656 Q61.7969,246.5938 63.5313,246.5938 Q64.2969,246.5938 65.0469,246.3125 Q65.7969,246.0313 66.4375,245.5 L66.4375,247.3125 Z "/><text fill="#EEEEEE" font-family="sans-serif" font-size="12" font-style="italic" lengthAdjust="spacingAndGlyphs" textLength="87" x="93.5" y="227.1387">«public class»</text><text fill="#EEEEEE" font-family="sans-serif" font-size="12" font-style="italic" lengthAdjust="spacingAndGlyphs" textLength="113" x="80.5" y="241.1074">«static collection»</text><text fill="#EEEEEE" font-family="sans-serif" font-size="16" lengthAdjust="spacingAndGlyphs" textLength="113" x="80.5" y="262.7891">Directory_Utils</text><line style="stroke: #111111; stroke-width: 1.5;" x1="48.5" x2="197.5" y1="273.5625" y2="273.5625"/><line style="stroke: #111111; stroke-width: 1.5;" x1="48.5" x2="197.5" y1="281.5625" y2="281.5625"/><!--MD5=[d249ff578723dfb1fb66a4140a852441]
class TWRP\\Utils\\Filesystem_Utils--><rect codeLine="50" fill="url(#glpxef9urkzjz0)" height="80.5625" id="TWRP\\Utils\\Filesystem_Utils" style="stroke: #111111; stroke-width: 1.5;" width="160" x="234" y="209"/><ellipse cx="250" cy="241.2813" fill="#ADD1B2" rx="12" ry="12" style="stroke: #111111; stroke-width: 1.0;"/><path d="M252.9375,247.3125 Q252.25,247.6719 251.5313,247.8438 Q250.8281,248.0313 250.0313,248.0313 Q247.5156,248.0313 246.1094,246.25 Q244.7188,244.4688 244.7188,241.2344 Q244.7188,238.0156 246.125,236.2188 Q247.5313,234.4219 250.0313,234.4219 Q250.8281,234.4219 251.5313,234.6094 Q252.25,234.7813 252.9375,235.1406 L252.9375,236.9688 Q252.2813,236.4219 251.5313,236.1406 Q250.7813,235.8594 250.0313,235.8594 Q248.2969,235.8594 247.4375,237.2031 Q246.5781,238.5313 246.5781,241.2344 Q246.5781,243.9219 247.4375,245.2656 Q248.2969,246.5938 250.0313,246.5938 Q250.7969,246.5938 251.5469,246.3125 Q252.2969,246.0313 252.9375,245.5 L252.9375,247.3125 Z "/><text fill="#EEEEEE" font-family="sans-serif" font-size="12" font-style="italic" lengthAdjust="spacingAndGlyphs" textLength="87" x="284.5" y="227.1387">«public class»</text><text fill="#EEEEEE" font-family="sans-serif" font-size="12" font-style="italic" lengthAdjust="spacingAndGlyphs" textLength="113" x="271.5" y="241.1074">«static collection»</text><text fill="#EEEEEE" font-family="sans-serif" font-size="16" lengthAdjust="spacingAndGlyphs" textLength="122" x="267" y="262.7891">Filesystem_Utils</text><line style="stroke: #111111; stroke-width: 1.5;" x1="235" x2="393" y1="273.5625" y2="273.5625"/><line style="stroke: #111111; stroke-width: 1.5;" x1="235" x2="393" y1="281.5625" y2="281.5625"/><!--MD5=[e7b81e81c11d10e18688738ef685d2d1]
class TWRP\\Utils\\Simple_Utils--><rect codeLine="51" fill="url(#glpxef9urkzjz0)" height="80.5625" id="TWRP\\Utils\\Simple_Utils" style="stroke: #111111; stroke-width: 1.5;" width="147" x="429.5" y="209"/><ellipse cx="445.5" cy="241.2813" fill="#ADD1B2" rx="12" ry="12" style="stroke: #111111; stroke-width: 1.0;"/><path d="M448.4375,247.3125 Q447.75,247.6719 447.0313,247.8438 Q446.3281,248.0313 445.5313,248.0313 Q443.0156,248.0313 441.6094,246.25 Q440.2188,244.4688 440.2188,241.2344 Q440.2188,238.0156 441.625,236.2188 Q443.0313,234.4219 445.5313,234.4219 Q446.3281,234.4219 447.0313,234.6094 Q447.75,234.7813 448.4375,235.1406 L448.4375,236.9688 Q447.7813,236.4219 447.0313,236.1406 Q446.2813,235.8594 445.5313,235.8594 Q443.7969,235.8594 442.9375,237.2031 Q442.0781,238.5313 442.0781,241.2344 Q442.0781,243.9219 442.9375,245.2656 Q443.7969,246.5938 445.5313,246.5938 Q446.2969,246.5938 447.0469,246.3125 Q447.7969,246.0313 448.4375,245.5 L448.4375,247.3125 Z "/><text fill="#EEEEEE" font-family="sans-serif" font-size="12" font-style="italic" lengthAdjust="spacingAndGlyphs" textLength="87" x="473.5" y="227.1387">«public class»</text><text fill="#EEEEEE" font-family="sans-serif" font-size="12" font-style="italic" lengthAdjust="spacingAndGlyphs" textLength="113" x="460.5" y="241.1074">«static collection»</text><text fill="#EEEEEE" font-family="sans-serif" font-size="16" lengthAdjust="spacingAndGlyphs" textLength="91" x="471.5" y="262.7891">Simple_Utils</text><line style="stroke: #111111; stroke-width: 1.5;" x1="430.5" x2="575.5" y1="273.5625" y2="273.5625"/><line style="stroke: #111111; stroke-width: 1.5;" x1="430.5" x2="575.5" y1="281.5625" y2="281.5625"/><!--MD5=[87e36d28a3267eec0ae766d6d2867cd3]
class TWRP\\Utils\\Widget_Utils--><rect codeLine="52" fill="url(#glpxef9urkzjz0)" height="80.5625" id="TWRP\\Utils\\Widget_Utils" style="stroke: #111111; stroke-width: 1.5;" width="147" x="49.5" y="350"/><ellipse cx="65.5" cy="382.2813" fill="#ADD1B2" rx="12" ry="12" style="stroke: #111111; stroke-width: 1.0;"/><path d="M68.4375,388.3125 Q67.75,388.6719 67.0313,388.8438 Q66.3281,389.0313 65.5313,389.0313 Q63.0156,389.0313 61.6094,387.25 Q60.2188,385.4688 60.2188,382.2344 Q60.2188,379.0156 61.625,377.2188 Q63.0313,375.4219 65.5313,375.4219 Q66.3281,375.4219 67.0313,375.6094 Q67.75,375.7813 68.4375,376.1406 L68.4375,377.9688 Q67.7813,377.4219 67.0313,377.1406 Q66.2813,376.8594 65.5313,376.8594 Q63.7969,376.8594 62.9375,378.2031 Q62.0781,379.5313 62.0781,382.2344 Q62.0781,384.9219 62.9375,386.2656 Q63.7969,387.5938 65.5313,387.5938 Q66.2969,387.5938 67.0469,387.3125 Q67.7969,387.0313 68.4375,386.5 L68.4375,388.3125 Z "/><text fill="#EEEEEE" font-family="sans-serif" font-size="12" font-style="italic" lengthAdjust="spacingAndGlyphs" textLength="87" x="93.5" y="368.1387">«public class»</text><text fill="#EEEEEE" font-family="sans-serif" font-size="12" font-style="italic" lengthAdjust="spacingAndGlyphs" textLength="113" x="80.5" y="382.1074">«static collection»</text><text fill="#EEEEEE" font-family="sans-serif" font-size="16" lengthAdjust="spacingAndGlyphs" textLength="96" x="89" y="403.7891">Widget_Utils</text><line style="stroke: #111111; stroke-width: 1.5;" x1="50.5" x2="195.5" y1="414.5625" y2="414.5625"/><line style="stroke: #111111; stroke-width: 1.5;" x1="50.5" x2="195.5" y1="422.5625" y2="422.5625"/><!--MD5=[4194741537ad4fc42df8684e19fa30c1]
class TWRP\\Utils\\Helper_Trait\\After_Setup_Theme_Init_Trait--><rect codeLine="55" fill="url(#glpxef9urkzjz0)" height="80.5625" id="TWRP\\Utils\\Helper_Trait\\After_Setup_Theme_Init_Trait" style="stroke: #111111; stroke-width: 1.5;" width="264" x="622" y="68"/><ellipse cx="638" cy="100.2813" fill="#A9DCDF" rx="12" ry="12" style="stroke: #111111; stroke-width: 1.0;"/><path d="M637.9219,94.7188 L636.0469,101.4375 L639.7813,101.4375 L637.9219,94.7188 Z M636.8438,93.1563 L639,93.1563 L643.0156,106.2813 L641.1719,106.2813 L640.2031,102.8594 L635.6094,102.8594 L634.6563,106.2813 L632.8281,106.2813 L636.8438,93.1563 Z "/><text fill="#EEEEEE" font-family="sans-serif" font-size="12" font-style="italic" lengthAdjust="spacingAndGlyphs" textLength="87" x="724.5" y="86.1387">«public class»</text><text fill="#EEEEEE" font-family="sans-serif" font-size="12" font-style="italic" lengthAdjust="spacingAndGlyphs" textLength="67" x="734.5" y="100.1074">«abstract»</text><text fill="#EEEEEE" font-family="sans-serif" font-size="16" font-style="italic" lengthAdjust="spacingAndGlyphs" textLength="226" x="655" y="121.7891">After_Setup_Theme_Init_Trait</text><line style="stroke: #111111; stroke-width: 1.5;" x1="623" x2="885" y1="132.5625" y2="132.5625"/><line style="stroke: #111111; stroke-width: 1.5;" x1="623" x2="885" y1="140.5625" y2="140.5625"/><!--MD5=[758c6ef18952c0eef767cebff7332821]
class TWRP\\Utils\\Helper_Trait\\BEM_Class_Naming_Trait--><rect codeLine="56" fill="url(#glpxef9urkzjz0)" height="80.5625" id="TWRP\\Utils\\Helper_Trait\\BEM_Class_Naming_Trait" style="stroke: #111111; stroke-width: 1.5;" width="230" x="921" y="68"/><ellipse cx="937" cy="100.2813" fill="#A9DCDF" rx="12" ry="12" style="stroke: #111111; stroke-width: 1.0;"/><path d="M936.9219,94.7188 L935.0469,101.4375 L938.7813,101.4375 L936.9219,94.7188 Z M935.8438,93.1563 L938,93.1563 L942.0156,106.2813 L940.1719,106.2813 L939.2031,102.8594 L934.6094,102.8594 L933.6563,106.2813 L931.8281,106.2813 L935.8438,93.1563 Z "/><text fill="#EEEEEE" font-family="sans-serif" font-size="12" font-style="italic" lengthAdjust="spacingAndGlyphs" textLength="87" x="1006.5" y="86.1387">«public class»</text><text fill="#EEEEEE" font-family="sans-serif" font-size="12" font-style="italic" lengthAdjust="spacingAndGlyphs" textLength="67" x="1016.5" y="100.1074">«abstract»</text><text fill="#EEEEEE" font-family="sans-serif" font-size="16" font-style="italic" lengthAdjust="spacingAndGlyphs" textLength="192" x="954" y="121.7891">BEM_Class_Naming_Trait</text><line style="stroke: #111111; stroke-width: 1.5;" x1="922" x2="1150" y1="132.5625" y2="132.5625"/><line style="stroke: #111111; stroke-width: 1.5;" x1="922" x2="1150" y1="140.5625" y2="140.5625"/><!--MD5=[539a997e5898fa303743fd652c46bbd9]
class TWRP\\Utils\\Helper_Trait\\Class_Children_Order_Trait--><rect codeLine="57" fill="url(#glpxef9urkzjz0)" height="80.5625" id="TWRP\\Utils\\Helper_Trait\\Class_Children_Order_Trait" style="stroke: #111111; stroke-width: 1.5;" width="246" x="631" y="209"/><ellipse cx="647" cy="241.2813" fill="#A9DCDF" rx="12" ry="12" style="stroke: #111111; stroke-width: 1.0;"/><path d="M646.9219,235.7188 L645.0469,242.4375 L648.7813,242.4375 L646.9219,235.7188 Z M645.8438,234.1563 L648,234.1563 L652.0156,247.2813 L650.1719,247.2813 L649.2031,243.8594 L644.6094,243.8594 L643.6563,247.2813 L641.8281,247.2813 L645.8438,234.1563 Z "/><text fill="#EEEEEE" font-family="sans-serif" font-size="12" font-style="italic" lengthAdjust="spacingAndGlyphs" textLength="87" x="724.5" y="227.1387">«public class»</text><text fill="#EEEEEE" font-family="sans-serif" font-size="12" font-style="italic" lengthAdjust="spacingAndGlyphs" textLength="67" x="734.5" y="241.1074">«abstract»</text><text fill="#EEEEEE" font-family="sans-serif" font-size="16" font-style="italic" lengthAdjust="spacingAndGlyphs" textLength="208" x="664" y="262.7891">Class_Children_Order_Trait</text><line style="stroke: #111111; stroke-width: 1.5;" x1="632" x2="876" y1="273.5625" y2="273.5625"/><line style="stroke: #111111; stroke-width: 1.5;" x1="632" x2="876" y1="281.5625" y2="281.5625"/><path d="M1202,235 L1202,264.1328 L1588,264.1328 L1588,245 L1578,235 L1202,235 " fill="#FBFB77" style="stroke: #A80036; stroke-width: 1.0;"/><path d="M1578,235 L1578,245 L1588,245 L1578,235 " fill="#FBFB77" style="stroke: #A80036; stroke-width: 1.0;"/><text fill="#000000" font-family="sans-serif" font-size="13" lengthAdjust="spacingAndGlyphs" textLength="361" x="1210" y="254.0669">All other packages can reference these utils at any time.</text><!--MD5=[133466724e00e8e897948d3ebd841424]
reverse link TWRP\\Utils to NoteUtils--><path codeLine="62" d="M1194.079,113.9504 C1194.2098,114.0387 1194.342,114.1279 1194.4757,114.2181 C1194.743,114.3984 1195.016,114.5826 1195.2947,114.7706 C1199.753,117.7784 1205.6479,121.7553 1212.6092,126.4517 C1226.5319,135.8445 1244.7204,148.1152 1264.214,161.2664 C1303.2013,187.5688 1347.409,217.3931 1373.1512,234.7599 " fill="none" id="TWRP\\Utils-backto-NoteUtils" style="stroke: #FFFF00; stroke-width: 1.0; stroke-dasharray: 7.0,7.0;"/><polygon fill="#FFFF00" points="1194.079,113.9504,1199.3028,122.2998,1198.2239,116.7468,1203.7769,115.6679,1194.079,113.9504" style="stroke: #FFFF00; stroke-width: 1.0;"/><!--MD5=[866706a4a2c60b5cf1b4edef39abc0c2]
link TWRP\\Utils\\Class_Retriever_Utils to TWRP\\Utils\\Color_Utils--><!--MD5=[1206e0b0b56b5824f9ba41c208727485]
link TWRP\\Utils\\Color_Utils to TWRP\\Utils\\Date_Utils--><!--MD5=[5be85f7ad250361c79c58ef298875bcb]
link TWRP\\Utils\\Class_Retriever_Utils to TWRP\\Utils\\Directory_Utils--><!--MD5=[ba4d78a70ad2be2ca176b135b10443d6]
link TWRP\\Utils\\Directory_Utils to TWRP\\Utils\\Filesystem_Utils--><!--MD5=[ff850c9784bd3dbfa91fa640dd7385f5]
link TWRP\\Utils\\Filesystem_Utils to TWRP\\Utils\\Simple_Utils--><!--MD5=[f0c3176f9f19751e97f08987ba06c114]
link TWRP\\Utils\\Directory_Utils to TWRP\\Utils\\Widget_Utils--><!--MD5=[5dd7f10f57910197ce97bd5e4ea5a4a2]
link TWRP\\Utils\\Helper_Trait\\After_Setup_Theme_Init_Trait to TWRP\\Utils\\Helper_Trait\\BEM_Class_Naming_Trait--><!--MD5=[99027af30f5bdf8f9c0fa49c0ef26520]
link TWRP\\Utils\\Helper_Trait\\After_Setup_Theme_Init_Trait to TWRP\\Utils\\Helper_Trait\\Class_Children_Order_Trait--><!--MD5=[a246ccde317b17e4033a0ff3507be08a]
@startuml
set namespaceSeparator \\

    skinparam {
        padding 2
        backgroundColor #222
        shadowing false

        classFontColor #eee
        classStereotypeFontColor #eee
        classBorderColor #111
        classFontSize 14
        ClassAttributeFontColor #eee
        ClassAttributeFontSize 13
        ClassAttributeIconSize 15

        PackageBackgroundColor #2c2c2c
        PackageBorderColor #111
        PackageFontColor #eee

        ArrowColor yellow
    }

    skinparam circled {
        CharacterFontColor black
        CharacterFontSize 18
        CharacterFontStyle plain
        CharacterRadius 12
    }


    skinparam <<public class>> {
        classBackgroundColor #004b00/#003b00
        classFontSize 16
    }

    skinparam <<private class>> {
        classBackgroundColor #5d0000/#4d0000
    }

    skinparam <<protected class>> {
        classBackgroundColor #d16300/#c15300
    }


namespace TWRP\\Utils {
	class Class_Retriever_Utils <<public class>> <<static collection>> {}
	class Color_Utils <<public class>> <<static collection>> {}
	class Date_Utils <<public class>> <<static collection>> {}
	class Directory_Utils <<public class>> <<static collection>> {}
	class Filesystem_Utils <<public class>> <<static collection>> {}
	class Simple_Utils <<public class>> <<static collection>> {}
	class Widget_Utils <<public class>> <<static collection>> {}

	namespace Helper_Trait {
		abstract After_Setup_Theme_Init_Trait <<public class>> <<abstract>> {}
		abstract BEM_Class_Naming_Trait <<public class>> <<abstract>> {}
		abstract Class_Children_Order_Trait <<public class>> <<abstract>> {}
	}
}

note "All other packages can reference these utils at any time." as NoteUtils
TWRP\\Utils <.up. NoteUtils
@enduml

PlantUML version 1.2020.19(Mon Oct 12 15:10:01 UTC 2020)
(GPL source distribution)
Java Runtime: OpenJDK Runtime Environment
JVM: OpenJDK 64-Bit Server VM
Default Encoding: UTF-8
Language: en
Country: null
--></g></svg>