<svg id="twrp-tax-fi-f" xmlns="http://www.w3.org/2000/svg" viewBox="0 0 100 100"><path d="M87.4,69.2c0,0-0.1-0.1-0.1-0.1l0,0L55.2,13.5l0,0c-0.3-0.4-0.7-0.8-1.1-1l0,0L41,5V5c-0.7-0.4-1.5-0.4-2.2-0.1l0,0L38.5,5c0,0,0,0,0,0c0,0,0,0,0,0L13.2,19.6c-0.8,0.5-1.2,1.3-1.2,2.1l0,0v15.2l0,0c-0.1,0.5,0,1,0.3,1.5c0,0,0,0.1,0.1,0.1l0,0l32,55.4c0,0.1,0.1,0.1,0.1,0.2c0.7,1.2,2.1,1.6,3.3,1l0,0l38.7-22.4l0,0C87.7,71.9,88.1,70.4,87.4,69.2z M33.6,25.2c-2.2,1.3-5.1,0.5-6.3-1.7c-1.3-2.2-0.5-5.1,1.7-6.3s5.1-0.5,6.3,1.7C36.6,21.1,35.9,24,33.6,25.2z"/></svg>
