<svg id="twrp-tax-fi-t-f" xmlns="http://www.w3.org/2000/svg" viewBox="0 0 100 100"><path d="M95.9,71.6c0,0-0.1-0.1-0.1-0.1l0,0L63.6,15.5l0,0c-0.3-0.4-0.7-0.8-1.1-1l0,0L52.9,9l10.6,18.4l24.2,41.9l0,0c0,0,0.1,0.1,0.1,0.1c0.7,1.2,0.3,2.7-0.9,3.4l0,0L51.1,93.6l1.6,2.7c0,0.1,0.1,0.1,0.1,0.2c0.7,1.2,2.1,1.6,3.3,1l0,0L95,75l0,0C96.2,74.3,96.6,72.8,95.9,71.6z"/><path d="M78.5,70.4c1.2-0.7,1.6-2.2,0.9-3.4c0,0-0.1-0.1-0.1-0.1l0,0L47.2,11.3l0,0c-0.3-0.4-0.7-0.8-1.1-1l0,0L33,2.8v0.1c-0.7-0.4-1.5-0.4-2.2-0.1l0,0l-0.2,0.1c0,0,0,0,0,0c0,0,0,0,0,0L5.2,17.4C4.5,17.9,4,18.7,4,19.5l0,0v15.2l0,0c-0.1,0.5,0,1,0.3,1.5c0,0,0,0.1,0.1,0.1l0,0l32,55.4c0,0.1,0.1,0.1,0.1,0.2c0.7,1.2,2.1,1.6,3.3,1l0,0L78.5,70.4L78.5,70.4z M25.5,23c-2.2,1.3-5.1,0.5-6.3-1.7c-1.3-2.2-0.5-5.1,1.7-6.3s5.1-0.5,6.3,1.7C28.4,18.9,27.7,21.7,25.5,23z"/></svg>
