<?xml version="1.0" encoding="utf-8"?>
<!-- Generator: Adobe Illustrator 24.3.0, SVG Export Plug-In . SVG Version: 6.00 Build 0)  -->
<svg version="1.1" id="Layer_1" xmlns="http://www.w3.org/2000/svg" xmlns:xlink="http://www.w3.org/1999/xlink" x="0px" y="0px"
	 viewBox="0 0 100 100" style="enable-background:new 0 0 100 100;" xml:space="preserve">
<g>
	<path style="fill-opacity:0.3;" d="M86.3,32.6l-1.6,1.6l0.5,2.2c0.2,0.8,0.5,1.6,0.7,2.3c-0.8-0.4-1.5-0.8-2.2-1.4L82,35.9
		l-2.1,0.8c-2.5,0.9-5.1,1.4-7.8,1.4c-9.9,0-18-6.3-18-14s8.1-14,18-14s18,6.3,18,14C90,28,88,30.8,86.3,32.6z"/>
	<path d="M93.6,36.3C96.5,32.7,98,28.4,98,24C98,11.9,86.3,2,72,2s-26,9.9-26,22c0,2.6,0.5,5,1.5,7.3c1.7,0.2,3.4,0.6,5,1
		c6.6,1.8,12.4,5.1,16.7,9.6c1.2,1.3,2.4,2.7,3.3,4.1c2.8,0,5.5-0.4,8.1-1.2c3.3,2.1,7.4,3.1,12,3.1c1.9,0,3.6-1.1,4.3-2.8
		c0.8-1.7,0.4-3.7-0.9-5.1C96,40.1,94.6,38.6,93.6,36.3z M54,24c0-7.8,8.1-14,18-14s18,6.3,18,14c0,3.9-2,6.8-3.7,8.5l-1.6,1.6
		l0.5,2.2c0.2,0.8,0.5,1.6,0.7,2.3c-0.8-0.4-1.5-0.8-2.2-1.4L82,35.9l-2.1,0.8c-2.5,0.9-5.1,1.4-7.8,1.4C62.1,38.1,54,31.8,54,24z"
		/>
</g>
<g>
	<path style="fill:#FFFFFF;" d="M66.6,81.5c-0.2,0.2-0.3,0.5-0.5,0.7c0.2-0.2,0.5-0.4,0.7-0.5L66.6,81.5z"/>
</g>
<g>
	<path style="fill-opacity:0.3;" d="M60.9,75.7c-0.2,0.3-0.4,0.5-0.6,0.8c-3.2,4.4-8.4,7.9-14.5,9.6c-2.8,0.8-5.8,1.2-8.8,1.2
		c-3.6,0-7.1-0.6-10.4-1.7c0,0-0.4-0.1-0.8-0.3c-0.1,0-0.1,0-0.2-0.1c-0.1-0.1-0.3-0.1-0.5-0.2c-0.7-0.3-1.5-0.6-1.8-0.7
		c-0.1,0-0.1,0-0.1,0l-1.8,1.5c-1.7,1.4-3.6,2.4-5.8,3.1c0,0-0.1,0-0.2,0c-0.5,0.1-1.2,0.2-1.2,0.1c0.4-0.9,3-8.5,3-8.5L15.8,79
		C12,75.1,10,70.5,10,65.6c0-2,0.3-4,1-5.9c1.4-3.9,4-7.3,7.7-10c3.1-2.3,7-4.1,11.2-5L60.9,75.7z"/>
	<path d="M66.6,81.5c-0.2,0.2-0.3,0.5-0.5,0.7c-6.3,7.9-17,13.2-29.1,13.2c-4.2,0-8.4-0.6-12.3-1.9C20.1,96.5,14.5,98,8,98
		c-2,0-3.8-1.2-4.6-3c-0.8-1.8-0.4-3.9,1-5.4c0,0,2.5-2.8,4-6.8c-4.2-5-6.4-11-6.4-17.1c0-8.5,4.2-16.1,10.9-21.5
		c3-2.5,6.6-4.5,10.5-5.8l6.4,6.5c-4.2,0.9-8.1,2.7-11.2,5c-3.6,2.7-6.3,6.1-7.7,10c-0.7,1.9-1,3.8-1,5.9c0,4.9,2,9.5,5.8,13.3
		l1.5,1.6c0,0-2.6,7.6-3,8.5c0,0,1.3-0.2,1.3-0.2c2.2-0.7,4.1-1.7,5.8-3.1l1.8-1.5c0,0,0,0,0.1,0c0.3,0.1,1.1,0.4,1.8,0.7
		c0.2,0,0.3,0.1,0.5,0.2c0.1,0,0.1,0,0.2,0.1c0.4,0.1,0.7,0.3,0.8,0.3c3.3,1.1,6.8,1.7,10.4,1.7c3.1,0,6.1-0.4,8.8-1.2
		c6.1-1.7,11.3-5.1,14.5-9.6c0.2-0.3,0.4-0.5,0.6-0.8L66.6,81.5z"/>
	<path d="M69.5,54.7L55.1,40.3c2,1.1,3.9,2.3,5.7,3.7C64.6,46.9,67.6,50.6,69.5,54.7z"/>
</g>
<g>
	<path d="M99.1,97L97,99.1c-1.2,1.2-3.1,1.2-4.2,0L0.9,7.2C-0.3,6-0.3,4.1,0.9,3L3,0.9c1.2-1.2,3.1-1.2,4.2,0l91.9,91.9
		C100.3,94,100.3,95.8,99.1,97z"/>
</g>
</svg>
