<svg id="twrp-user-jam-circle-ol" xmlns="http://www.w3.org/2000/svg" viewBox="0 0 24 24"><path d="M12,23.9C5.4,23.9,0.1,18.6,0.1,12S5.4,0.1,12,0.1S23.9,5.4,23.9,12S18.6,23.9,12,23.9z M12,21.5c5.3,0,9.5-4.3,9.5-9.5S17.3,2.5,12,2.5S2.5,6.7,2.5,12S6.7,21.5,12,21.5z M12,4.9c2.6,0,4.8,2.1,4.8,4.8V12c0,2.6-2.1,4.8-4.8,4.8S7.2,14.6,7.2,12V9.6C7.2,7,9.4,4.9,12,4.9z M12,7.2c-1.3,0-2.4,1.1-2.4,2.4V12c0,1.3,1.1,2.4,2.4,2.4s2.4-1.1,2.4-2.4V9.6C14.4,8.3,13.3,7.2,12,7.2z M7.1,20.2c-0.7-0.4-1.3-0.9-1.9-1.5c0.7-0.8,1.6-1.5,2.6-1.9c0.6-0.3,1.3,0,1.6,0.6c0.3,0.6,0,1.3-0.6,1.6c0,0,0,0-0.1,0C8.1,19.3,7.6,19.7,7.1,20.2L7.1,20.2z M16.8,20.2c-0.5-0.5-1-0.9-1.7-1.1c-0.6-0.2-0.9-0.9-0.7-1.5c0.2-0.6,0.9-0.9,1.5-0.7c0,0,0,0,0.1,0c1.1,0.4,2,1.1,2.7,1.9C18.1,19.3,17.5,19.8,16.8,20.2z"/></svg>
