<svg id="twrp-user-ji-ol" viewBox="0 0 24 24"><path d="M7.9,12.1c0.6-0.3,1.3,0,1.6,0.6c0.3,0.6,0,1.3-0.6,1.6c0,0,0,0-0.1,0c-1.6,0.6-2.7,2.2-2.7,4v2.1c0,0.7,0.5,1.2,1.2,1.2h9.5c0.7,0,1.2-0.5,1.2-1.2v-2c0-1.8-1.1-3.4-2.8-4.1c-0.6-0.2-0.9-0.9-0.7-1.5c0.2-0.6,0.9-0.9,1.5-0.7c0,0,0,0,0.1,0c2.6,1,4.3,3.5,4.3,6.3v2c0,2-1.6,3.6-3.6,3.6H7.2c-2,0-3.6-1.6-3.6-3.6v-2.1C3.7,15.5,5.3,13.1,7.9,12.1z M12,0.1c2.6,0,4.8,2.1,4.8,4.8v2.4c0,2.6-2.1,4.8-4.8,4.8S7.2,9.9,7.2,7.2V4.9C7.2,2.2,9.4,0.1,12,0.1z M12,2.5c-1.3,0-2.4,1.1-2.4,2.4v2.4c0,1.3,1.1,2.4,2.4,2.4s2.4-1.1,2.4-2.4V4.9C14.4,3.5,13.3,2.5,12,2.5z"/></svg>
