<svg id="twrp-user-jam-square-ol" xmlns="http://www.w3.org/2000/svg" viewBox="0 0 24 24"><path d="M4.9,0.1h14.3c2.6,0,4.8,2.1,4.8,4.8v14.3c0,2.6-2.1,4.8-4.8,4.8H4.9c-2.6,0-4.8-2.1-4.8-4.8V4.9C0.1,2.2,2.2,0.1,4.9,0.1z M4.9,2.5c-1.3,0-2.4,1.1-2.4,2.4v14.3c0,1.3,1.1,2.4,2.4,2.4h14.3c1.3,0,2.4-1.1,2.4-2.4V4.9c0-1.3-1.1-2.4-2.4-2.4H4.9z M6.3,21.5H4.9c-0.3,0-0.7-0.1-1-0.2c0.5-2,2-3.7,4-4.5c0.6-0.3,1.3,0,1.6,0.6c0.3,0.6,0,1.3-0.6,1.6c0,0,0,0-0.1,0C7.6,19.5,6.7,20.4,6.3,21.5z M17.6,21.5c-0.5-1.1-1.4-2-2.5-2.5c-0.6-0.2-0.9-0.9-0.7-1.5c0.2-0.6,0.9-0.9,1.5-0.7c0,0,0,0,0.1,0c2,0.8,3.5,2.4,4.1,4.5c-0.3,0.1-0.6,0.2-0.9,0.2H17.6L17.6,21.5z M12,4.9c2.6,0,4.8,2.1,4.8,4.8V12c0,2.6-2.1,4.8-4.8,4.8S7.2,14.6,7.2,12V9.6C7.2,7,9.4,4.9,12,4.9z M12,7.2c-1.3,0-2.4,1.1-2.4,2.4V12c0,1.3,1.1,2.4,2.4,2.4s2.4-1.1,2.4-2.4V9.6C14.4,8.3,13.3,7.2,12,7.2z"/></svg>
