<?xml version="1.0" encoding="utf-8"?>
<!-- Generator: Adobe Illustrator 24.3.0, SVG Export Plug-In . SVG Version: 6.00 Build 0)  -->
<svg version="1.1" id="Layer_1" xmlns="http://www.w3.org/2000/svg" xmlns:xlink="http://www.w3.org/1999/xlink" x="0px" y="0px"
	 viewBox="0 0 100 100" style="enable-background:new 0 0 100 100;" xml:space="preserve">
<path d="M93.6,36.3C96.5,32.7,98,28.4,98,24C98,11.9,86.3,2,72,2s-26,9.9-26,22c0,2.6,0.5,5,1.5,7.3c10.7,1.4,19.9,7,25,14.7
	c2.8,0,5.5-0.4,8.1-1.2c3.3,2.1,7.4,3.1,12,3.1c1.9,0,3.6-1.1,4.3-2.8c0.8-1.7,0.4-3.7-0.9-5.1C96,40.1,94.6,38.6,93.6,36.3z
	 M86.3,32.6l-1.6,1.6l0.5,2.2c0.2,0.8,0.5,1.6,0.7,2.3c-0.8-0.4-1.5-0.8-2.2-1.4L82,35.9l-2.1,0.8c-2.5,0.9-5.1,1.4-7.8,1.4
	c-9.9,0-18-6.3-18-14s8.1-14,18-14s18,6.3,18,14C90,28,88,30.8,86.3,32.6z"/>
<g>
	<path style="fill:none;" d="M14.2,89.3 M66.6,81.4l-0.5,0.7"/>
	<path d="M69.5,54.7L55.1,40.3c2,1.1,3.9,2.3,5.7,3.7C64.6,46.9,67.6,50.6,69.5,54.7z"/>
</g>
<path d="M66.6,81.4l-5.7-5.7c-0.2,0.3-0.4,0.5-0.6,0.8c-3.2,4.4-8.3,7.9-14.5,9.6c-2.8,0.8-5.8,1.2-8.8,1.2c-3.6,0-7.1-0.6-10.4-1.7
	c-0.4-0.1-3.3-1.2-3.3-1.2l-1.8,1.5c-1.7,1.4-3.6,2.4-5.8,3.1c-0.5,0.2-0.9,0.3-1.4,0.4c0.1-0.1,2-4.2,2.6-6.6l0.5-2.2L15.8,79
	C12,75.1,10,70.5,10,65.7c0-2,0.4-4,1-5.9c1.4-3.9,4-7.3,7.7-10c3.1-2.3,7-4.1,11.2-5l-6.5-6.4c-3.9,1.4-7.5,3.4-10.5,5.8
	C6.2,49.6,2,57.2,2,65.7c0,6.1,2.3,12.1,6.4,17.1c-1.5,4.1-4,6.8-4,6.8C3,91,2.7,93.2,3.4,95C4.2,96.8,6,98,8,98
	c6.5,0,12.1-1.6,16.6-4.6c4,1.3,8.1,1.9,12.3,1.9c12.1,0,22.8-5.2,29.1-13.2L66.6,81.4z"/>
<g>
	<path d="M99.1,97L97,99.1c-1.2,1.2-3.1,1.2-4.2,0L0.9,7.2C-0.3,6-0.3,4.1,0.9,3L3,0.9c1.2-1.2,3.1-1.2,4.2,0l91.9,91.9
		C100.3,94,100.3,95.8,99.1,97z"/>
</g>
</svg>
