<svg id="twrp-dcom-twrp-c2-t" viewBox="0 0 100 100"><path d="M67.5,77.4c-5.3,2.2-11.2,3.4-17.5,3.4c-5.8,0-11.4-1-16.7-3.1l-1.1-0.4l-0.9,0.7c-4.9,4-11.2,6.2-18.6,6.4c1.8-2.2,5.4-7.3,7-14l0.3-1.1l-0.8-0.8c-5.7-5.9-8.7-12.9-8.7-20.4c0-7.4,3-14.2,8-19.7l-2.8-2.8C10,31.8,6.5,39.7,6.5,48.2c0,8.1,3.2,16,9,22.3c-2.1,7.3-6.7,12.3-6.8,12.4c-0.9,1-1.1,2.4-0.6,3.6c0.5,1.2,1.7,2,3,2c8.6,0,16-2.2,21.8-6.6c5.5,2,11.2,3,17.1,3c7.4,0,14.5-1.6,20.6-4.4L67.5,77.4z M50,11.5c-8.5,0-16.3,2-23,5.6l3,3c5.9-2.9,12.8-4.5,20.1-4.5c21.8,0,39.5,14.7,39.5,32.7c0,8.2-3.7,15.8-9.8,21.6l2.8,2.8c6.9-6.5,11-15,11-24.4C93.5,28,74,11.5,50,11.5z"/><path d="M99.1,99.1c-0.8,0.8-2,0.8-2.8,0L0.9,3.7c-0.8-0.8-0.8-2,0-2.8c0.8-0.8,2-0.8,2.8,0l95.5,95.5C99.9,97.1,99.9,98.4,99.1,99.1z"/></svg>
