<svg id="twrp-dcom-twrp-cs-ol" viewBox="0 0 100 100"><path d="M88.5,2h-33C50.3,2,46,5.9,46,10.7V30h8V10.7c0-0.1,0.5-0.7,1.5-0.7h33c1,0,1.5,0.5,1.5,0.7v21c0,0.1-0.5,0.7-1.5,0.7h-6.1V37l-7.2-4.6h-1.6c2.6,2,4.3,4.9,4.3,8.2v3l4.7,3l1.2,0.7c0.7,0.4,1.5,0.6,2.3,0.6c0.7,0,1.4-0.2,2.1-0.5c1.3-0.7,2.2-2.1,2.2-3.6l0-3.6c4.3-0.8,7.6-4.3,7.6-8.5v-21C98,5.9,93.7,2,88.5,2z"/><path d="M72,46.6v10.5l-8-8v-2.5c0-1.4-1.8-2.6-3.8-2.6h-1.4l-8-8h9.4c2.6,0,5,0.8,7,2.1c0.6,0.4,2.7,2.5,2.7,2.6C71.3,42.4,72,44.5,72,46.6z"/><path d="M68.9,83.8c-2.1,2.1-5.2,3.4-8.7,3.4h-25L19.4,97.3c-0.7,0.4-3.8,0.5-4.5,0.1c-1.4-0.8-2.2-2.2-2.3-3.7l0-6.5C6.7,86.7,2,82.1,2,76.6V46.6c0-4.2,2.7-7.9,6.7-9.6c1.5-0.7,3.2-1,5.1-1h7.4l8,8H13.8c-0.6,0-1.2,0.1-1.8,0.3c-1.2,0.5-2,1.3-2,2.3v29.9c0,1.2,1.2,2.2,2.8,2.5c0.3,0.1,7.9,0.1,7.9,0.1v7.9l12.3-7.9h27.3c1.2,0,2.3-0.4,3-1.1L68.9,83.8z"/><path d="M99.1,97L97,99.1c-1.2,1.2-3.1,1.2-4.2,0L0.9,7.2C-0.3,6-0.3,4.1,0.9,3L3,0.9c1.2-1.2,3.1-1.2,4.2,0l91.9,91.9C100.3,94,100.3,95.8,99.1,97z"/></svg>
