<svg id="twrp-dcom-twrp-c-t" viewBox="0 0 100 100"><path d="M63,72.9H45.5L24.8,86.4l0,0V72.9h-5.9c-4.6,0-8.4-3.1-8.4-7V25.5c0-1.4,0.5-2.7,1.3-3.8L9,18.9c-1.6,1.8-2.5,4.1-2.5,6.6v40.5c0,6,5.5,11,12.4,11h1.9v9.8l0,2.3c0,0.9,0.5,1.7,1.3,2.1c0.4,0.2,0.8,0.3,1.3,0.3c0.5,0,1-0.1,1.4-0.4l2.2-1.4l19.8-12.8H67L63,72.9z M81.1,14.5H24.4l4,4h52.7c4.6,0,8.4,3.1,8.4,7v40.4c0,3.4-2.9,6.2-6.8,6.9l3.2,3.3h0c4.4-1.7,7.5-5.6,7.5-10.1V25.5C93.5,19.4,88,14.5,81.1,14.5z"/><path d="M99.1,99.1c-0.8,0.8-2,0.8-2.8,0L0.9,3.7c-0.8-0.8-0.8-2,0-2.8c0.8-0.8,2-0.8,2.8,0l95.5,95.5C99.9,97.1,99.9,98.4,99.1,99.1z"/></svg>
