<svg id="twrp-dcom-twrp-c2-ol" viewBox="0 0 100 100"><path d="M60.8,75.7c-3.4,0.9-7,1.4-10.8,1.4c-5.2,0-10.3-0.9-15.1-2.8l-2.2-0.8l-1.8,1.5c-3.3,2.7-7.3,4.4-12.1,5.2c1.6-2.6,3.3-6.1,4.3-10.2l0.5-2.2l-1.6-1.6c-5-5.1-7.7-11.3-7.7-17.8c0-5.2,1.7-10,4.7-14.3l-5.7-5.7c-4.4,5.8-7,12.6-7,20c0,7.8,2.9,15.4,8.3,21.6c-1.9,5.8-5.5,9.7-5.6,9.7c-1.4,1.5-1.8,3.7-1,5.7c0.8,2,2.7,3.2,4.8,3.2c8.2,0,15.3-2,21-6C39.2,84.2,44.5,85,50,85c6.1,0,11.9-1.1,17.2-3L60.8,75.7z M50,11.5c-7.1,0-13.8,1.4-19.7,4l6.2,6.2c4.2-1.4,8.7-2.2,13.5-2.2c19.6,0,35.5,12.9,35.5,28.8c0,6-2.3,11.6-6.2,16.2l5.6,5.7c5.4-6.1,8.5-13.7,8.5-21.8C93.5,28,74,11.5,50,11.5z"/><path d="M99.1,97L97,99.1c-1.2,1.2-3.1,1.2-4.2,0L0.9,7.2C-0.3,6-0.3,4.1,0.9,3L3,0.9c1.2-1.2,3.1-1.2,4.2,0l91.9,91.9C100.3,94,100.3,95.8,99.1,97z"/></svg>
