<svg id="twrp-dcom-twrp-c2-dt" viewBox="0 0 100 100"><path style="fill-opacity:0.3;" d="M60.8,75.7c-3.4,0.9-7,1.4-10.8,1.4c-5.2,0-10.3-0.9-15.1-2.8l-2.2-0.8l-1.8,1.5c-3.3,2.7-7.3,4.4-12.1,5.2c1.6-2.6,3.3-6.1,4.3-10.2l0.5-2.2l-1.6-1.6c-5-5.1-7.7-11.3-7.7-17.8c0-5.2,1.7-10,4.7-14.3L60.8,75.7z"/><path style="fill-opacity:0.3;" d="M85.5,48.3c0,6-2.3,11.6-6.2,16.2L36.5,21.7c4.2-1.4,8.7-2.2,13.5-2.2C69.6,19.5,85.5,32.4,85.5,48.3z"/><path d="M67.2,82C61.9,84,56.1,85,50,85c-5.5,0-10.8-0.9-15.9-2.6c-5.7,4-12.8,6-21,6c-2.1,0-4-1.2-4.8-3.2c-0.8-1.9-0.4-4.1,1-5.7c0-0.1,3.7-4,5.6-9.7c-5.4-6.3-8.3-13.9-8.3-21.6c0-7.3,2.6-14.2,7-20l5.7,5.7c-3,4.2-4.7,9.1-4.7,14.3c0,6.5,2.7,12.7,7.7,17.8l1.6,1.6l-0.5,2.2c-1,4.1-2.7,7.6-4.3,10.2c4.7-0.8,8.8-2.5,12.1-5.2l1.8-1.5l2.2,0.8C39.7,76.1,44.8,77,50,77c3.8,0,7.4-0.5,10.8-1.4L67.2,82z"/><path d="M93.5,48.3c0,8.2-3.2,15.7-8.5,21.8l-5.6-5.7c3.9-4.6,6.2-10.2,6.2-16.2c0-15.9-15.9-28.8-35.5-28.8c-4.8,0-9.3,0.8-13.5,2.2l-6.2-6.2c5.9-2.5,12.6-4,19.7-4C74,11.5,93.5,28,93.5,48.3z"/><path d="M99.1,97L97,99.1c-1.2,1.2-3.1,1.2-4.2,0L0.9,7.2C-0.3,6-0.3,4.1,0.9,3L3,0.9c1.2-1.2,3.1-1.2,4.2,0l91.9,91.9C100.3,94,100.3,95.8,99.1,97z"/></svg>
