<svg id="twrp-com-ii-2-f" xmlns="http://www.w3.org/2000/svg" viewBox="0 0 512 512"><path d="M53.5,509.1C37.5,509,24.6,496,24.6,480c0.1-2.9,0.5-5.8,1.4-8.6l20.8-75.3c0.9-2.8-0.1-5.6-1.4-7.8l-0.2-0.5c-0.1-0.1-0.5-0.7-0.8-1.2c-0.3-0.4-0.7-0.9-1-1.4l-0.2-0.3C16.9,345.2,2.9,298.5,2.9,250.8C2.7,185.7,28.1,124.2,74.6,77.6C122.7,29.4,187,2.9,255.8,2.9c58.4,0,115.1,19.8,160.7,56.3c44.6,35.9,75.6,85.9,87.2,140.9c3.6,16.7,5.4,33.8,5.4,50.9c0,66.6-25.6,129.1-72,176.1c-46.9,47.5-109.8,73.5-177.2,73.5c-23.7,0-54.1-6.1-68.7-10.2c-17.5-4.9-34.2-11.3-36-12c-1.9-0.7-4-1.1-6.1-1.1c-2.2,0-4.5,0.4-6.6,1.3l-1,0.4l-76.3,27.5C61.6,508.1,57.6,509,53.5,509.1z M65.6,396.1L65.6,396.1z"/></svg>
