<svg id="twrp-com-ii-2-ol" xmlns="http://www.w3.org/2000/svg" viewBox="0 0 512 512"><path style="fill:none;stroke:currentColor;stroke-width:32;stroke-linecap:round;stroke-miterlimit:10;" d="M65.8,396.1c1.3-4.9-1.6-11.8-4.5-16.8c-0.9-1.5-1.8-2.9-2.9-4.3c-24.3-36.9-37.3-80.1-37.3-124.3C20.8,123.9,126,21,256.1,21c113.4,0,208.1,78.6,230.2,182.9c3.3,15.5,5,31.2,5,47.1c0,127-101.1,231.6-231.2,231.6c-20.7,0-48.6-5.2-63.8-9.5c-15.2-4.3-30.4-9.9-34.3-11.4c-4-1.5-8.3-2.3-12.6-2.3c-4.7,0-9.3,0.9-13.7,2.7l-76.6,27.7c-1.7,0.7-3.5,1.2-5.3,1.4c-6,0-10.8-4.9-10.8-10.9c0,0,0-0.1,0-0.1c0.1-1.3,0.3-2.5,0.7-3.7L65.8,396.1z"/></svg>
