<svg id="twrp-com-ii-c-ol" xmlns="http://www.w3.org/2000/svg" viewBox="0 0 512 512"><path style="fill:none;stroke:currentColor;stroke-width:32;stroke-linecap:round;stroke-miterlimit:10;" d="M453.8,329c-1.1-4.1,1.4-9.7,3.7-13.8c0.7-1.2,1.5-2.4,2.4-3.5c20.3-30.2,31.2-65.7,31.2-102C491.4,105.5,403.5,21,294.8,21C200,21,120.9,85.5,102.3,171.1c-2.8,12.7-4.2,25.7-4.2,38.6c0,104.3,84.5,191.1,193.2,191.1c17.3,0,40.6-5.2,53.3-8.7c12.8-3.5,25.4-8.1,28.7-9.4c3.4-1.3,6.9-1.9,10.5-1.9c3.9,0,7.8,0.8,11.4,2.3l64.1,22.7c1.4,0.6,2.9,1,4.4,1.1c5,0,9-4,9-9c-0.1-1-0.3-2.1-0.6-3.1L453.8,329z"/><path style="fill:none;stroke:currentColor;stroke-width:32;stroke-linecap:round;stroke-miterlimit:10;" d="M41.8,228.9C11.6,283.2,14.4,349.8,49,401.4c2.6,3.9,4.1,7,3.6,9c-0.5,2-13.5,69.9-13.5,69.9c-0.6,3.2,0.5,6.6,3.1,8.7c1.7,1.3,3.7,2,5.8,2c1.1,0,2.3-0.2,3.3-0.7l63.5-24.9c4.4-1.7,9.2-1.6,13.6,0.2c21.4,8.3,45.1,13.6,68.7,13.6c31.8,0,63-8.3,90.5-24.3"/></svg>
