<svg id="twrp-com-ii-ios-f" viewBox="0 0 512 512"><path d="M256,51.7c-135.5,0-245.2,88.2-245.2,197c0,39.2,14.3,75.7,38.8,106.4c1.1,1.1,3.7,4.9,4.6,6.3c0,0-1.3-2-1.4-2.4l0,0l0,0l0,0c2.9,4.2,4.6,9.1,4.6,14.3c0,1.8-22.9,74.1-22.9,74.1l0,0c-1.7,5.6,2.7,11.4,9.7,12.8c1,0.3,2,0.3,3.1,0.3c1.7,0,3.2-0.3,4.7-0.6l2-0.8l64.6-28.1c1.1-0.5,11.5-4.5,12.8-5l0.8-0.3c0,0-0.1,0-0.8,0.3c4.3-1.5,9.2-2.3,14.3-2.3c4.6,0,9.1,0.6,13.2,1.9c0.1,0,0.3,0,0.3,0.1c0.6,0.3,1.3,0.4,1.9,0.6c29.5,10.1,61.8,13.2,95.9,13.2c135.4,0,243.9-81.8,243.9-190.6C501.2,139.9,391.4,51.7,256,51.7L256,51.7z"/></svg>
