<svg id="twrp-com-ii-t2-f" xmlns="http://www.w3.org/2000/svg" viewBox="0 0 512 512"><path d="M503.7,200.1c-11.7-55-42.7-105-87.3-140.9C370.9,22.7,314.2,2.9,255.8,2.9C187,2.9,122.7,29.4,74.6,77.6C28.1,124.2,2.7,185.7,2.9,250.8c0,47.7,14,94.4,40.3,134.2l4.9,6.8L21,509.1l129.7-32.3c0,0,2.6,0.9,4.5,1.6c1.9,0.7,18.5,7.1,36,12c14.6,4.1,44.9,10.2,68.7,10.2c67.4,0,130.3-26.1,177.2-73.5c46.5-47,72-109.6,72-176.2C509.1,233.8,507.3,216.8,503.7,200.1z M147.5,292.2c-20,0-36.2-16.2-36.2-36.2c0-20,16.2-36.2,36.2-36.2s36.2,16.2,36.2,36.2C183.7,276,167.5,292.2,147.5,292.2z M256,292.2c-20,0-36.2-16.2-36.2-36.2c0-20,16.2-36.2,36.2-36.2c20,0,36.2,16.2,36.2,36.2C292.2,276,276,292.2,256,292.2z M364.5,292.2c-20,0-36.2-16.2-36.2-36.2c0-20,16.2-36.2,36.2-36.2s36.2,16.2,36.2,36.2C400.6,276,384.5,292.2,364.5,292.2z"/></svg>
