<svg id="twrp-com-ii-t-sh" xmlns="http://www.w3.org/2000/svg" viewBox="0 0 512 512"><path d="M482,21H30C15,21,2.9,33.1,2.9,48.1v325.4c0,15,12.1,27.1,27.1,27.1h81.4V491l133-90.4H482c15,0,27.1-12.1,27.1-27.1V48.1C509.1,33.1,497,21,482,21z M147.5,247c-20,0-36.2-16.2-36.2-36.2s16.2-36.2,36.2-36.2s36.2,16.2,36.2,36.2S167.5,247,147.5,247z M256,247c-20,0-36.2-16.2-36.2-36.2s16.2-36.2,36.2-36.2c20,0,36.2,16.2,36.2,36.2S276,247,256,247z M364.5,247c-20,0-36.2-16.2-36.2-36.2s16.2-36.2,36.2-36.2c20,0,36.2,16.2,36.2,36.2S384.5,247,364.5,247z M482,57.1L482,57.1z"/></svg>
