<svg id="twrp-com-ii-t-f" xmlns="http://www.w3.org/2000/svg" viewBox="0 0 512 512"><path d="M427.8,21H84.2C39.3,21,2.9,57.4,2.9,102.3v217c0,44.9,36.4,81.3,81.4,81.4h27.1V473c0,10,8.1,18.1,18.1,18.1c4.2,0,8.3-1.5,11.6-4.2l103.4-86.2h183.4c44.9,0,81.3-36.4,81.4-81.4v-217C509.1,57.4,472.7,21,427.8,21z M147.5,247c-20,0-36.2-16.2-36.2-36.2s16.2-36.2,36.2-36.2s36.2,16.2,36.2,36.2S167.5,247,147.5,247z M256,247c-20,0-36.2-16.2-36.2-36.2s16.2-36.2,36.2-36.2c20,0,36.2,16.2,36.2,36.2S276,247,256,247z M364.5,247c-20,0-36.2-16.2-36.2-36.2s16.2-36.2,36.2-36.2c20,0,36.2,16.2,36.2,36.2S384.5,247,364.5,247z"/></svg>
