<svg id="twrp-cal-jam-2-f" xmlns="http://www.w3.org/2000/svg" viewBox="0 0 24 24"><path d="M19.7,3.4c1.8,0,3.3,1.6,3.3,3.7v12.2c0,2-1.5,3.7-3.3,3.7H4.3C2.5,23,1,21.4,1,19.3V7.1c0-2,1.5-3.7,3.3-3.7v2.4c0,1.4,1,2.4,2.2,2.4s2.2-1.1,2.2-2.4V3.4h1.1v2.4c0,1.4,1,2.4,2.2,2.4s2.2-1.1,2.2-2.4V3.4h1.1v2.4c0,1.4,1,2.4,2.2,2.4s2.2-1.1,2.2-2.4V3.4z M4.3,10.8v2.4h2.2v-2.4H4.3z M4.3,15.7v2.4h2.2v-2.4H4.3z M17.5,15.7v2.4h2.2v-2.4H17.5z M17.5,10.8v2.4h2.2v-2.4H17.5z M8.7,10.8v2.4h2.2v-2.4H8.7z M13.1,10.8v2.4h2.2v-2.4H13.1z M13.1,15.7v2.4h2.2v-2.4H13.1z M8.7,15.7v2.4h2.2v-2.4H8.7z M6.5,1c0.6,0,1.1,0.5,1.1,1.2v3.7c0,0.7-0.5,1.2-1.1,1.2S5.4,6.6,5.4,5.9V2.2C5.4,1.5,5.9,1,6.5,1z M17.5,1c0.6,0,1.1,0.5,1.1,1.2v3.7c0,0.7-0.5,1.2-1.1,1.2s-1.1-0.5-1.1-1.2V2.2C16.4,1.5,16.9,1,17.5,1z M12,1c0.6,0,1.1,0.5,1.1,1.2v3.7c0,0.7-0.5,1.2-1.1,1.2s-1.1-0.5-1.1-1.2V2.2C10.9,1.5,11.4,1,12,1z"/></svg>
