<svg id="twrp-cal-ji-2-ol" viewBox="0 0 24 24"><path d="M10.9,3.4V2.2C10.9,1.5,11.4,1,12,1s1.1,0.5,1.1,1.2v1.2h3.3V2.2c0-0.7,0.5-1.2,1.1-1.2s1.1,0.5,1.1,1.2v1.2h1.1c1.8,0,3.3,1.6,3.3,3.7v12.2c0,2-1.5,3.7-3.3,3.7H4.3C2.5,23,1,21.4,1,19.3V7.1c0-2,1.5-3.7,3.3-3.7h1.1V2.2C5.4,1.5,5.9,1,6.5,1s1.1,0.5,1.1,1.2v1.2H10.9z M10.9,5.9H7.6v1.2c0,0.7-0.5,1.2-1.1,1.2S5.4,7.8,5.4,7.1V5.9H4.3c-0.6,0-1.1,0.5-1.1,1.2v12.2c0,0.7,0.5,1.2,1.1,1.2h15.4c0.6,0,1.1-0.5,1.1-1.2V7.1c0-0.7-0.5-1.2-1.1-1.2h-1.1v1.2c0,0.7-0.5,1.2-1.1,1.2s-1.1-0.5-1.1-1.2V5.9h-3.3v1.2c0,0.7-0.5,1.2-1.1,1.2s-1.1-0.5-1.1-1.2V5.9z M4.3,10.8h2.2v2.4H4.3V10.8z M4.3,15.7h2.2v2.4H4.3V15.7z M17.5,15.7h2.2v2.4h-2.2V15.7z M17.5,10.8h2.2v2.4h-2.2V10.8z M8.7,10.8h2.2v2.4H8.7V10.8z M13.1,10.8h2.2v2.4h-2.2V10.8z M13.1,15.7h2.2v2.4h-2.2V15.7z M8.7,15.7h2.2v2.4H8.7V15.7z"/></svg>
