<svg id="twrp-cal-jam-ol" viewBox="0 0 24 24"><path d="M20.8,9.6V7.1c0-0.7-0.5-1.2-1.1-1.2h-1.1v1.2c0,0.7-0.5,1.2-1.1,1.2s-1.1-0.5-1.1-1.2V5.9H7.6v1.2c0,0.7-0.5,1.2-1.1,1.2S5.4,7.8,5.4,7.1V5.9H4.3c-0.6,0-1.1,0.5-1.1,1.2v2.4H20.8z M20.8,12H3.2v7.3c0,0.7,0.5,1.2,1.1,1.2h15.4c0.6,0,1.1-0.5,1.1-1.2V12z M18.6,3.4h1.1c1.8,0,3.3,1.6,3.3,3.7v12.2c0,2-1.5,3.7-3.3,3.7H4.3C2.5,23,1,21.4,1,19.3V7.1c0-2,1.5-3.7,3.3-3.7h1.1V2.2C5.4,1.5,5.9,1,6.5,1s1.1,0.5,1.1,1.2v1.2h8.8V2.2c0-0.7,0.5-1.2,1.1-1.2s1.1,0.5,1.1,1.2V3.4z"/></svg>
