<?xml version="1.0" encoding="utf-8"?>
<!-- Generator: Adobe Illustrator 24.3.0, SVG Export Plug-In . SVG Version: 6.00 Build 0)  -->
<svg version="1.1" id="Layer_1" xmlns="http://www.w3.org/2000/svg" xmlns:xlink="http://www.w3.org/1999/xlink" x="0px" y="0px"
	 viewBox="0 0 100 100" style="enable-background:new 0 0 100 100;" xml:space="preserve">
<path d="M73.8,4C64.7,4,55.3,8.4,50,17.6C44.6,8.3,35.3,4,26.2,4C12.9,4,0,13.1,0,29.9C0,49.4,23.2,69.3,50,96
	c26.8-26.7,50-46.6,50-66.1C100,13.1,87.1,4,73.8,4z M54.3,80.5c-1.4,1.4-2.9,2.8-4.3,4.3V33.5l6.9-11.9c3.5-6,9.8-9.5,16.9-9.5
	C82.6,12,92,17.6,92,29.9C92,43.6,74.5,60.7,54.3,80.5z"/>
</svg>
