<?xml version="1.0" encoding="utf-8"?>
<!-- Generator: Adobe Illustrator 24.3.0, SVG Export Plug-In . SVG Version: 6.00 Build 0)  -->
<svg version="1.1" id="Layer_1" xmlns="http://www.w3.org/2000/svg" xmlns:xlink="http://www.w3.org/1999/xlink" x="0px" y="0px"
	 viewBox="0 0 100 100" style="enable-background:new 0 0 100 100;" xml:space="preserve">
<path d="M79.6,11.5H31.3l8,8h40.3c3.2,0,5.9,2.1,5.9,4.5v38.2c0,0.9-0.4,1.8-1,2.5l5.7,5.6c2.1-2.2,3.4-5,3.4-8.1V24
	C93.5,17.1,87.3,11.5,79.6,11.5z M46.9,66.7h-1.8l-17,11v-11h-7.7c-3.2,0-5.9-2.1-5.9-4.5V34.3l-8-8v35.9c0,6.8,6.1,12.3,13.6,12.5
	l0,9.4c0,1.6,0.9,3,2.3,3.8c0.7,0.4,1.5,0.6,2.2,0.6c0.8,0,4.5-2,4.5-2l18.3-11.8h7.4L46.9,66.7z"/>
<g>
	<path d="M98.8,98.8C98,99.6,97,100,96,100c-1,0-2.1-0.4-2.8-1.2L1.2,6.9c-1.6-1.6-1.6-4.1,0-5.7C2,0.4,3,0,4,0c1,0,2.1,0.4,2.8,1.2
		l91.9,91.9C100.3,94.7,100.3,97.2,98.8,98.8z"/>
</g>
</svg>
