<?xml version="1.0" encoding="utf-8"?>
<!-- Generator: Adobe Illustrator 24.3.0, SVG Export Plug-In . SVG Version: 6.00 Build 0)  -->
<svg version="1.1" id="Layer_1" xmlns="http://www.w3.org/2000/svg" xmlns:xlink="http://www.w3.org/1999/xlink" x="0px" y="0px"
	 viewBox="0 0 100 100" style="enable-background:new 0 0 100 100;" xml:space="preserve">
<path d="M51.6,77.1h-5.7L24.7,91.1c-1.3,0.9-3.2,0-3.2-1.5V77.1h-4.1c-6,0-10.9-4.3-10.9-9.6V32L51.6,77.1z"/>
<g>
	<path d="M98.8,96L96,98.8c-1.6,1.6-4.1,1.6-5.7,0L1.2,9.7c-1.6-1.6-1.6-4.1,0-5.7L4,1.2c1.6-1.6,4.1-1.6,5.7,0L23,14.5h59.6
		c6,0,10.9,4.3,10.9,9.6v43.3c0,4.5-3.5,8.3-8.2,9.3l13.6,13.6C100.4,91.9,100.4,94.4,98.8,96z"/>
</g>
</svg>
