<svg id="twrp-tax-ji-h-f" viewBox="0 0 24 24">twrp-tax-ji-h-f<path d="M10.7,10.7v2.6h2.6v-2.6H10.7z M10.7,8.1h2.6V4.3c0-0.7,0.6-1.3,1.3-1.3s1.3,0.6,1.3,1.3v3.9h3.9c0.7,0,1.3,0.6,1.3,1.3c0,0.7-0.6,1.3-1.3,1.3h-3.9v2.6h3.9c0.7,0,1.3,0.6,1.3,1.3s-0.6,1.3-1.3,1.3h-3.9v3.9c0,0.7-0.6,1.3-1.3,1.3s-1.3-0.6-1.3-1.3v-3.9h-2.6v3.9c0,0.7-0.6,1.3-1.3,1.3c-0.7,0-1.3-0.6-1.3-1.3v-3.9H4.3c-0.7,0-1.3-0.6-1.3-1.3s0.6-1.3,1.3-1.3h3.9v-2.6H4.3C3.6,10.7,3,10.1,3,9.4c0-0.7,0.6-1.3,1.3-1.3h3.9V4.3C8.1,3.6,8.7,3,9.4,3c0.7,0,1.3,0.6,1.3,1.3V8.1z"/></svg>
