<svg id="twrp-tax-ji-t-f" viewBox="0 0 24 24"><path d="M14.3,4l2.5,2.5c0.5,0.5,0.7,1.3,0.5,2l-1.3,4L8,20.4l-8-7.8l8.1-7.9l4.2-1.3C13,3.3,13.8,3.5,14.3,4z M10.5,10.2c0.6,0.6,1.6,0.6,2.2,0c0.6-0.6,0.6-1.5,0-2.1l0,0c-0.6-0.6-1.6-0.6-2.2,0C9.9,8.7,9.9,9.6,10.5,10.2L10.5,10.2z M17.9,11.2c0.6,0,1-0.1,1.2-0.3c0.7-0.5,0.7-1.5,0.2-2.1c-0.1-0.1-0.3-0.3-0.5-0.4c0.2-0.7-0.1-1.4-0.6-1.8l-1.8-1.7l2.3-0.7c0.7-0.2,1.5,0,2.1,0.5l2.5,2.5c0.5,0.5,0.7,1.3,0.5,2l-1.3,4l-8.1,7.9l-2.9-2.8l5.8-5.7C17.5,12.6,17.9,11.2,17.9,11.2z"/></svg>
