<svg id="twrp-cal-ti-ol" viewBox="0 0 24 24"><path d="M20.6,4.9V4.7c0-2-1.6-3.7-3.7-3.7s-3.7,1.6-3.7,3.7h-2.4c0-2-1.6-3.7-3.7-3.7S3.4,2.6,3.4,4.7v0.2C2,5.4,1,6.7,1,8.3v11c0,2,1.6,3.7,3.7,3.7h14.7c2,0,3.7-1.6,3.7-3.7v-11C23,6.7,22,5.4,20.6,4.9z M15.7,4.7c0-0.7,0.5-1.2,1.2-1.2s1.2,0.5,1.2,1.2v2.4c0,0.7-0.5,1.2-1.2,1.2s-1.2-0.5-1.2-1.2V4.7z M5.9,4.7c0-0.7,0.5-1.2,1.2-1.2c0.7,0,1.2,0.5,1.2,1.2v2.4c0,0.7-0.5,1.2-1.2,1.2S5.9,7.8,5.9,7.1V4.7z M20.6,19.3c0,0.7-0.5,1.2-1.2,1.2H4.7c-0.7,0-1.2-0.5-1.2-1.2V12h17.1V19.3z M20.6,10.8H3.4V8.3c0-0.7,0.5-1.2,1.2-1.2c0,1.3,1.1,2.4,2.4,2.4s2.4-1.1,2.4-2.4h4.9c0,1.3,1.1,2.4,2.4,2.4s2.4-1.1,2.4-2.4c0.7,0,1.2,0.5,1.2,1.2V10.8z"/></svg>
